<?xml version="1.0" standalone="no"?>
<!DOCTYPE svg PUBLIC "-//W3C//DTD SVG 1.1//EN" "http://www.w3.org/Graphics/SVG/1.1/DTD/svg11.dtd" >
<svg xmlns="http://www.w3.org/2000/svg" xmlns:xlink="http://www.w3.org/1999/xlink" version="1.1">
<metadata>
Created by FontForge 20161013 at Mon Jun 12 15:02:21 2017
 By ,,,
Copyright (c) 2017 by Teimuraz batonishvili, Guram Muradov. All rights reserved.
</metadata>
<defs>
<font id="GLAkademiuri-Regular" horiz-adv-x="702" >
  <font-face 
    font-family="GL Akademiuri"
    font-weight="400"
    font-stretch="normal"
    units-per-em="1000"
    panose-1="0 0 5 0 0 0 0 0 0 0"
    ascent="800"
    descent="-200"
    x-height="386"
    cap-height="625"
    bbox="-353.8 -337 1451.8 946"
    underline-thickness="50"
    underline-position="-150"
    unicode-range="U+0020-A729"
  />
<missing-glyph horiz-adv-x="501" 
d="M94 -275v1000h317v-1000h-317zM168 626h65v-38h-66v-32h166v32h-66v38h66v32h-165v-32zM167 426h166v34h-66v69h-100v-103zM200 460v35h33v-35h-33zM167 365h66v-36h-66v-34h100v70h66v33h-166v-33zM301 273h-134v-34h166v99h-32v-65zM233 160h34v24h34v-48h-101v80h-33
v-113h166v113h-100v-56zM167 -70h166v113h-166v-113zM200 -37v48h101v-48h-101zM167 -126h70l-70 -47v-33h166v33h-101l69 47h32v34h-166v-34z" />
    <glyph glyph-name="Aogonek_acutecomb.liga" unicode="&#x104;&#x301;" horiz-adv-x="704" 
d="M246 678q-4 0 -5.5 4.5t1.5 6.5q50 26 103 59q50 29 60 35q4 3 23 -3t35 -15q13 -7 6 -9q-119 -30 -222 -78h-1zM703 4q0 -6 -4 -6q-12 0 -54 2l-42 1q-54 0 -91 -37t-37 -93q0 -51 28.5 -83.5t79.5 -32.5q31 0 56 13h1q3 0 5.5 -3t0.5 -5q-46 -35 -105 -35
q-58 0 -91 29.5t-33 79.5q0 39 17 67t57 65q29 26 41 44t12 39q0 16 -9 35l-91 191h-236l-63 -148q-14 -36 -14 -55q0 -60 98 -60q5 0 5 -6t-5 -6l-52 2q-50 2 -66 2q-14 0 -60 -2q-40 -2 -50 -2q-5 0 -5 6t5 6q28 0 47.5 10.5t37.5 37.5q17 26 38 76l211 498q2 3 7 3t6 -3
l236 -499q35 -75 59 -99q24 -27 56 -27q4 0 4 -5zM216 295h218l-115 243z" />
    <glyph glyph-name="Eogonek_acutecomb.liga" unicode="&#x118;&#x301;" horiz-adv-x="537" 
d="M170 678q-4 0 -5 4.5t2 6.5l109 62q18 12 54 33q4 2 23.5 -4.5t33.5 -14.5t7 -9q-59 -14 -109.5 -32t-112.5 -45zM499 -222q3 0 5.5 -3t-0.5 -5q-52 -45 -108 -45q-53 0 -82.5 26.5t-29.5 72.5q0 86 112 176h-353q-2 0 -2 6t2 6q36 0 56 5q17 5 23.5 19.5t6.5 44.5v463
q0 30 -6.5 44t-23.5 20q-20 5 -56 5q-2 0 -2 6t2 6h402q9 0 9 -9l2 -123q0 -3 -5 -3.5t-6 2.5q-3 53 -32 82.5t-77 29.5h-61q-33 0 -51 -5q-16 -6 -23 -19.5t-7 -40.5v-203h122q48 0 68.5 16t20.5 54q0 2 6 2t6 -2l-1 -81q0 -34 1 -44l1 -48q0 -2 -6 -2t-6 2q0 44 -21.5 63
t-71.5 19h-119v-230q0 -28 6 -41t22 -18q18 -5 50 -5h80q48 0 80 33.5t43 94.5q0 2 4 2q8 0 8 -4q-9 -63 -9 -132q0 -8 -3.5 -11.5t-12.5 -3.5h-47q-40 -37 -58 -70.5t-18 -72.5q0 -48 24 -75t69 -27q20 0 35 5.5t30 17.5h2z" />
    <glyph glyph-name="IJ_acutecomb.liga" unicode="&#x132;&#x301;" horiz-adv-x="690" 
d="M68 678q-4 0 -5 4.5t2 6.5l109 62q18 12 54 33q4 2 23.5 -4.5t33.5 -14.5t7 -9q-59 -14 -109.5 -32t-112.5 -45zM442 678q-4 0 -5 4.5t2 6.5l109 62q18 12 54 33q4 2 23.5 -4.5t33.5 -14.5t7 -9q-59 -14 -109.5 -32t-112.5 -45zM194 350q0 -31 6 -45t24 -19t56 -5
q2 0 2 -6t-2 -6q-37 0 -49 1l-71 1l-67 -1q-13 -1 -51 -1q-2 0 -2 6t2 6q36 0 56 5q17 5 23.5 19.5t6.5 44.5v194q0 30 -6.5 44t-23.5 20q-20 5 -56 5q-2 0 -2 6t2 6l51 -1q56 -2 67 -2q15 0 73 2l47 1q2 0 2 -6t-2 -6q-37 0 -55 -6t-24 -20q-7 -14 -7 -45v-192zM656 625
q3 0 3 -6t-3 -6q-32 0 -47.5 -6t-20.5 -20q-6 -15 -6 -45v-284q0 -85 -29.5 -146t-84.5 -93t-125 -32q-60 0 -112 22t-82 58q-30 35 -30 68q0 17 9 27t25 10q20 0 29 -12.5t18 -46.5q10 -39 21 -60t37 -35q28 -16 80 -16q90 0 134.5 51t44.5 147v344q0 30 -7.5 44t-27.5 20
q-22 5 -63 5q-3 0 -3 6t3 6l58 -1q58 -2 71 -2q15 0 65 2z" />
    <glyph glyph-name="Iogonek_acutecomb.liga" unicode="&#x12e;&#x301;" horiz-adv-x="332" 
d="M250.5 779.5q19.5 -6.5 33.5 -14.5t7 -9q-59 -14 -109.5 -32t-112.5 -45l-2 -1q-4 0 -5 4.5t2 6.5l109 62q18 12 54 33q4 2 23.5 -4.5zM230 607q-18 -6 -24.5 -20.5t-6.5 -44.5v-461q0 -31 6 -45t24 -19t55 -5q3 0 3 -6t-3 -6q-33 0 -44 1l-65 1q-49 -64 -49 -140
q0 -48 22.5 -77t61.5 -29q16 0 26 4.5t26 17.5h1q3 0 5.5 -3t0.5 -5q-25 -24 -47 -34.5t-49 -10.5q-48 0 -75 26.5t-27 71.5q0 88 88 179l-65 -1q-11 -1 -47 -1q-3 0 -3 6t3 6q36 0 56 5q17 5 23.5 19.5t6.5 44.5v463q0 30 -6.5 44t-23.5 20q-20 5 -56 5q-3 0 -3 6t3 6
l49 -1q56 -2 69 -2q16 0 72 2l47 1q3 0 3 -6t-3 -6q-38 0 -54 -6z" />
    <glyph glyph-name="J_acutecomb.liga" unicode="J&#x301;" horiz-adv-x="320" 
d="M65 678q-4 0 -5.5 4.5t1.5 6.5q50 26 103 59q50 29 60 35q4 3 23 -3t35 -15q14 -7 6 -9q-119 -30 -222 -78h-1zM203 67q0 -81 -13.5 -130t-44.5 -81q-33 -33 -89 -56l-1 -1q-3 0 -5 4.5t0 6.5q48 26 68 81.5t20 148.5v504q0 30 -6.5 44t-24.5 20q-20 5 -56 5q-2 0 -2 6
t2 6l52 -1l66 -2q14 0 64 2l44 1q2 0 2 -6t-2 -6q-33 0 -48 -6t-20 -20q-6 -15 -6 -45v-475z" />
    <glyph glyph-name="uni01EA0301.liga" unicode="&#x1ea;&#x301;" horiz-adv-x="766" 
d="M285 678q-4 0 -5 4.5t2 6.5l109 62q18 12 54 33q4 2 23.5 -4.5t33.5 -14.5t7 -9q-59 -14 -109.5 -32t-112.5 -45zM384.5 -71q-16.5 -33 -16.5 -72q0 -48 24 -75t69 -27q20 0 35 5.5t30 17.5h2q3 0 5.5 -3t-0.5 -5q-52 -45 -108 -45q-53 0 -82.5 26.5t-29.5 72.5
q0 81 102 167q-24 -3 -49 -3q-92 0 -165 43t-112 119q-40 73 -40 162q0 100 50.5 174.5t135.5 112.5q80 37 166 37q93 0 165.5 -43.5t112.5 -118.5q38 -74 38 -155q0 -78 -36 -147t-100 -115q-63 -45 -142 -62q-38 -33 -54.5 -66zM160 175.5q35 -77.5 98 -121.5
q63 -45 143 -45q69 0 123.5 33.5t85.5 96.5t31 152q0 93 -35 166.5t-98 114.5q-65 41 -149 41q-110 0 -172 -71t-62 -195q0 -94 35 -171.5z" />
    <glyph glyph-name="aogonek_acutecomb.liga" unicode="&#x105;&#x301;" horiz-adv-x="419" 
d="M210 474q0 -2 -4 -2q-3 0 -5 2q-3 1 -2 2l52 240q1 4 20.5 9.5t32.5 5.5q9 0 8 -4zM415 54q4 0 5 -4.5t-3 -6.5l-103 -49l-4 -2q-36 -33 -52 -65.5t-16 -69.5q0 -48 24 -75t69 -27q20 0 35 5.5t30 17.5h2q3 0 5.5 -3t-0.5 -5q-52 -45 -108 -45q-53 0 -82.5 26.5
t-29.5 72.5q0 83 108 172q-9 6 -16 22t-9 39l-52 -34q-25 -16 -44 -23t-40 -7q-36 0 -57 19t-21 50q0 30 24 52t79 42l110 41v68q0 112 -63 112q-31 0 -49.5 -20.5t-25.5 -53.5q-3 -20 -11.5 -30.5t-26.5 -10.5q-15 0 -24 8.5t-9 21.5q0 23 30 47t75 41q42 16 77 16
q41 0 62 -26t21 -75v-187q0 -35 9 -51t30 -16q20 0 49 13h2zM269 71v112l-93 -36q-28 -11 -40.5 -25.5t-12.5 -34.5q0 -24 16 -40.5t40 -16.5q20 0 48 16z" />
    <glyph glyph-name="eogonek_acutecomb.liga" unicode="&#x119;&#x301;" horiz-adv-x="408" 
d="M201 474q0 -2 -4 -2q-3 0 -5 2q-3 1 -2 2l52 240q1 4 20.5 9.5t32.5 5.5q9 0 8 -4zM367 -222q3 0 5.5 -3t-0.5 -5q-45 -45 -98 -45q-48 0 -75 25.5t-27 70.5q0 87 111 177q-29 -10 -64 -10q-56 0 -97.5 26t-63.5 72q-22 43 -22 94q0 59 28 108.5t77 78.5q47 28 106 28
q56 0 86 -30t30 -84q0 -12 -2 -20q-3 -6 -9 -6l-248 -1l-2 -36q0 -88 41.5 -141.5t114.5 -53.5q29 0 50.5 7.5t49.5 25.5h1q3 0 5.5 -3.5t0.5 -6.5l-29 -23q-56 -44 -81.5 -85t-25.5 -87t20.5 -71.5t58.5 -25.5q17 0 28.5 5.5t28.5 18.5h2zM143 346.5q-28 -28.5 -37 -79.5
l190 4q0 50 -21.5 77t-60.5 27q-43 0 -71 -28.5z" />
    <glyph glyph-name="ij_acutecomb.liga" unicode="&#x133;&#x301;" horiz-adv-x="526" 
d="M135 474q0 -2 -4 -2q-3 0 -5 2q-3 1 -2 2l52 240q1 4 20.5 9.5t32.5 5.5q9 0 8 -4zM395 474q0 -2 -4 -2q-3 0 -5 2q-3 1 -2 2l52 240q1 4 20.5 9.5t32.5 5.5q9 0 8 -4zM51 6q0 6 2 6q27 0 40.5 5.5t18.5 20.5t5 43v187q0 37 -7 52q-7 16 -26 16q-17 0 -45 -14h-1
q-4 0 -6 5t1 7l130 60l4 1q2 0 5 -2.5t3 -5.5l-1 -40q-1 -22 -1 -78v-188q0 -30 5 -44t18 -19q14 -6 40 -6q3 0 3 -6t-3 -6q-28 0 -37 1l-54 1l-54 -1q-9 -1 -38 -1q-2 0 -2 6zM435 347q-1 -22 -1 -78v-317q0 -68 -13.5 -111.5t-43.5 -72.5q-31 -29 -84 -50q-2 -1 -4.5 4.5
t-0.5 6.5q49 21 69 67t20 133v339q0 37 -7 52q-7 16 -24 16q-16 0 -46 -14h-1q-5 0 -7 5t2 7l130 60l3 1q4 0 6.5 -2.5t2.5 -5.5z" />
    <glyph glyph-name="iogonek_acutecomb.liga" unicode="&#x12f;&#x301;" horiz-adv-x="273" 
d="M135 474q0 -2 -4 -2q-3 0 -5 2q-3 1 -2 2l52 240q1 4 20.5 9.5t32.5 5.5q9 0 8 -4zM240 -215q3 0 5.5 -3t0.5 -5q-25 -24 -47 -34.5t-49 -10.5q-48 0 -75 26.5t-27 71.5q0 85 81 172l-76 -2q-2 0 -2 6t2 6q27 0 40.5 5.5t18.5 20.5t5 43v187q0 37 -7 52q-7 16 -26 16
q-17 0 -45 -14h-1q-4 0 -6 5t1 7l130 60l4 1q2 0 5 -2.5t3 -5.5l-1 -40q-1 -22 -1 -78v-188q0 -30 5 -44t18 -19q14 -6 40 -6q3 0 3 -6t-3 -6q-28 0 -37 1l-52 1q-44 -62 -44 -133q0 -48 22.5 -77t61.5 -29q16 0 26 4.5t26 17.5h1z" />
    <glyph glyph-name="j_acutecomb.liga" unicode="j&#x301;" horiz-adv-x="257" 
d="M126 474q0 -2 -4 -2q-3 0 -5 2q-3 1 -2 2l52 240q1 4 20.5 9.5t32.5 5.5q9 0 8 -4zM166 347q-1 -22 -1 -78v-317q0 -68 -13.5 -111.5t-43.5 -72.5q-31 -29 -84 -50q-2 -1 -4.5 4.5t-0.5 6.5q49 21 69 67t20 133v339q0 37 -7 52q-7 16 -24 16q-16 0 -46 -14h-1q-5 0 -7 5
t2 7l130 60l3 1q4 0 6.5 -2.5t2.5 -5.5z" />
    <glyph glyph-name="uni01EB0301.liga" unicode="&#x1eb;&#x301;" horiz-adv-x="479" 
d="M238 474q0 -2 -4 -2q-3 0 -5 2q-3 1 -2 2l52 240q1 4 20.5 9.5t32.5 5.5q9 0 8 -4zM395.5 58q-47.5 -55 -122.5 -67q-30 -33 -44 -67t-14 -73q0 -46 21.5 -71.5t62.5 -25.5q21 0 35 5.5t33 18.5h1q3 0 5.5 -3t0.5 -5q-52 -45 -111 -45q-51 0 -78.5 25.5t-27.5 70.5
q0 82 93 167q-4 -1 -19 -1q-57 0 -102 28.5t-69 77.5q-24 48 -24 105q0 63 30.5 109.5t82.5 69.5q48 22 100 22q58 0 102 -28t69 -77q23 -49 23 -101q0 -80 -47.5 -135zM123 117q20 -51 56 -81t81 -30q56 0 85.5 39.5t29.5 119.5q0 62 -20.5 111t-56.5 77q-36 27 -82 27
q-54 0 -83.5 -39t-29.5 -112q0 -61 20 -112z" />
    <glyph glyph-name="T_T.liga" unicode="TT" horiz-adv-x="1149" 
d="M1108 654q5 0 5 -4q-3 -27 -6 -87.5t-3 -96.5q0 -2 -5 -2t-7 2q-4 79 -32.5 110.5t-96.5 31.5q-47 0 -63 -4q-19 -4 -26 -17t-7 -45v-461q0 -31 7 -45t27 -19q22 -5 63 -5q3 0 3 -6t-3 -6q-41 0 -54 1l-77 1l-75 -1q-13 -1 -55 -1q-2 0 -2 6t2 6q41 0 63 5
q20 5 27.5 19.5t7.5 44.5v463q0 30 -6.5 43t-23.5 17q-15 4 -58 4q-61 0 -85 -8t-32 -35q-9 -27 -12 -99q0 -2 -6 -2t-6 2q1 67 -7 99q-8 28 -33 35q-27 8 -94 8q-40 0 -55 -4q-18 -4 -24.5 -18t-6.5 -44v-461q0 -31 6 -45t24 -19q20 -5 56 -5q2 0 2 -6t-2 -6q-37 0 -49 1
l-71 1l-74 -1q-13 -1 -56 -1q-2 0 -2 6t2 6q41 0 63 5q20 5 27.5 19.5t7.5 44.5v463q0 31 -7 44t-26 17q-20 3 -64 3q-62 0 -93.5 -32t-46.5 -110q0 -2 -5 -2q-6 0 -6 2q4 31 9 91.5t5 89.5q0 5 6 5t6 -5q0 -22 53 -22q85 -3 201 -3q36 0 118 2l63 1q47 0 56 1q13 1 17 5.5
t5 19.5q0 4 6 4t6 -4v-9q0 -8 2.5 -11t10.5 -4q4 -1 20 -1l21 -1q81 -3 190 -3q37 0 125 2l68 1q35 0 53 5q17 5 22 20q1 4 7 4z" />
    <glyph glyph-name="T_h.liga" unicode="Th" horiz-adv-x="1028" 
d="M1009 6q0 -6 -3 -6q-27 0 -36 1l-55 1l-54 -1q-9 -1 -38 -1q-2 0 -2 6t2 6q27 0 40.5 5.5t18.5 19.5q5 15 5 44v159q0 59 -22.5 87.5t-69.5 28.5q-31 0 -64 -16.5t-57 -45.5v-213q0 -30 5 -44t18 -19q14 -6 40 -6q3 0 3 -6t-3 -6q-27 0 -36 1l-55 1l-54 -1q-9 -1 -38 -1
q-2 0 -2 6t2 6q27 0 40.5 5.5t18.5 19.5q5 15 5 44v514q0 13 -14 13h-155q-47 0 -64 -4q-19 -4 -26 -17.5t-7 -44.5v-461q0 -31 7 -45t27 -19q22 -5 63 -5q3 0 3 -6t-3 -6q-40 0 -53 1l-78 1l-75 -1q-13 -1 -55 -1q-2 0 -2 6t2 6q41 0 63 5q20 5 27.5 19.5t7.5 44.5v463
q0 31 -7 44t-26 17q-20 3 -64 3q-63 0 -94.5 -32t-45.5 -110q0 -2 -5 -2q-6 0 -6 2q14 134 14 181q0 5 6 5q5 0 5 -5q0 -22 54 -22q76 -2 201 -2q127 0 193 2q61 2 99.5 27.5t50.5 72.5q0 2 5 2q8 0 8 -3v-413q73 85 154 85q55 0 85.5 -31t30.5 -90v-194q0 -30 4.5 -44
t17.5 -19q14 -6 40 -6q3 0 3 -6z" />
    <glyph glyph-name="f_b.liga" unicode="fb" horiz-adv-x="821" 
d="M705 377.5q37 -21.5 58 -61.5q22 -41 22 -102q0 -70 -30.5 -122t-82.5 -79q-52 -26 -107 -26q-73 0 -138 42l-74 -34h-2q-4 0 -5 4t2 6q32 23 44.5 43t12.5 55l1 530q-47 77 -121 77q-36 0 -61 -18.5t-40 -57.5q-26 -63 -26 -195v-64q52 2 128 10q4 0 5 -7q2 -10 2 -17
q0 -9 -3 -17t-7 -7q-63 15 -125 16v-272q0 -31 7 -45t27 -19q22 -5 64 -5q3 0 3 -6t-3 -6l-64 1q-14 1 -64 1l-56 -1q-9 -1 -40 -1q-3 0 -3 6t3 6q30 0 44 5.5t20 19.5q5 15 5 44v225q0 26 -5 36.5t-19 14.5q-15 3 -49 3q-3 0 -3 7q0 6 3 6q41 0 55.5 9.5t15.5 35.5
q6 149 50 223q26 44 65.5 64.5t96.5 20.5q82 0 131 -38q11 20 11 40q0 3 6 3q5 0 5 -3v-413q39 41 77 62.5t83 21.5q44 0 81 -21.5zM686.5 51.5q32.5 45.5 32.5 128.5q0 89 -34.5 137.5t-93.5 48.5q-61 0 -127 -68v-217q56 -75 132 -75q58 0 90.5 45.5z" />
    <glyph glyph-name="f_f.liga" unicode="ff" horiz-adv-x="600" 
d="M697 710.5q33 -15.5 33 -37.5q0 -15 -10 -23.5t-25 -8.5q-12 0 -21 6t-19 20q-16 22 -33.5 32t-42.5 10q-58 0 -92 -67t-34 -203v-64q52 2 128 10q4 0 5 -7q2 -10 2 -17q0 -9 -3 -17t-7 -7q-63 15 -125 16v-272q0 -31 7 -45t27 -19q22 -5 64 -5q3 0 3 -6t-3 -6l-64 1
q-14 1 -64 1l-56 -1q-9 -1 -40 -1q-3 0 -3 6t3 6q30 0 44 5.5t20 19.5q5 15 5 44v225q-1 25 -5 33.5t-18 11.5l-60 3q-46 2 -155 2v-275q0 -31 7 -45t27 -19q22 -5 64 -5q3 0 3 -6t-3 -6l-64 1q-14 1 -64 1l-56 -1q-9 -1 -40 -1q-3 0 -3 6t3 6q30 0 44 5.5t20 19.5
q5 15 5 44v225q0 26 -5 36.5t-19 14.5q-15 3 -49 3q-3 0 -3 7q0 6 3 6q41 0 55.5 9.5t15.5 35.5q7 133 68 203t167 70q73 0 128 -28q53 63 152 63q50 0 83 -15.5zM430 612q-27 30 -60 46t-69 16q-67 0 -105 -61t-38 -174v-64q136 0 164 1q36 2 47 5q14 4 19.5 13t5.5 24
q5 122 36 194z" />
    <glyph glyph-name="f_f_b.liga" unicode="ffb" horiz-adv-x="1116" 
d="M1000 377.5q37 -21.5 58 -61.5q22 -41 22 -102q0 -70 -30.5 -122t-82.5 -79q-52 -26 -107 -26q-74 0 -138 42l-74 -34h-2q-4 0 -5 4t2 6q32 23 44.5 43t12.5 55l1 530q-47 77 -121 77q-36 0 -61 -18.5t-40 -57.5q-26 -63 -26 -195v-64q52 2 128 10q4 0 5 -7q2 -10 2 -17
q0 -9 -3 -17t-7 -7q-63 15 -125 16v-272q0 -31 7 -45t27 -19q22 -5 64 -5q3 0 3 -6t-3 -6l-64 1q-14 1 -64 1l-56 -1q-9 -1 -40 -1q-3 0 -3 6t3 6q30 0 44 5.5t20 19.5q5 15 5 44v225q-1 25 -5 33.5t-18 11.5l-60 3q-46 2 -155 2v-275q0 -31 7 -45t27 -19q22 -5 64 -5
q3 0 3 -6t-3 -6l-64 1q-14 1 -64 1l-56 -1q-9 -1 -40 -1q-3 0 -3 6t3 6q30 0 44 5.5t20 19.5q5 15 5 44v225q0 26 -5 36.5t-19 14.5q-15 3 -49 3q-3 0 -3 7q0 6 3 6q41 0 55.5 9.5t15.5 35.5q7 133 68 203t167 70q72 0 126 -27q50 62 146 62q82 0 131 -38q11 20 11 40
q0 3 6 3q5 0 5 -3v-413q39 41 77 62.5t83 21.5q44 0 81 -21.5zM429 612q-27 30 -59.5 46t-68.5 16q-67 0 -105 -61t-38 -174v-64q136 0 164 1q36 2 47 5q14 4 19.5 13t5.5 24q5 123 35 194zM981.5 51.5q32.5 45.5 32.5 128.5q0 89 -34.5 137.5t-93.5 48.5q-61 0 -127 -68
v-217q56 -75 132 -75q58 0 90.5 45.5z" />
    <glyph glyph-name="f_f_f.liga" unicode="fff" horiz-adv-x="896" 
d="M907 710.5q33 -15.5 33 -37.5q0 -15 -10 -23.5t-25 -8.5q-12 0 -21 6t-19 20q-16 22 -33.5 32t-42.5 10q-34 0 -59 -22q26 -16 42 -32l-30 -65q-21 37 -42 58q-37 -70 -37 -209v-58q15 4 20.5 12.5t6.5 24.5l21 -40l80 7q4 0 5 -7q2 -10 2 -17q0 -9 -3 -17t-7 -7
q-36 10 -81 13l-16 -44q-1 26 -5.5 34t-22.5 11v-270q0 -31 7 -45t27 -19q22 -5 64 -5q3 0 3 -6t-3 -6l-64 1q-14 1 -64 1q-19 0 -81 -2h-16l-56 1q-13 1 -57 1l-55 -1q-10 -1 -42 -1q-2 0 -2 6t2 6q30 0 44.5 5.5t20.5 19.5q5 15 5 44v225q-1 25 -5 33.5t-18 11.5l-60 3
q-46 2 -155 2v-275q0 -31 7 -45t27 -19q22 -5 64 -5q3 0 3 -6t-3 -6l-64 1q-14 1 -64 1l-56 -1q-9 -1 -40 -1q-3 0 -3 6t3 6q30 0 44 5.5t20 19.5q5 15 5 44v225q0 26 -5 36.5t-19 14.5q-15 3 -49 3q-3 0 -3 7q0 6 3 6q41 0 55.5 9.5t15.5 35.5q7 133 68 203t167 70
q41 0 78.5 -9.5t63.5 -25.5q59 59 152 59q43 0 82 -18q46 29 114 29q50 0 83 -15.5zM676 668q-38 28 -81 28q-67 0 -104.5 -66.5t-37.5 -190.5v-64h114q20 4 28 13.5t9 29.5q6 178 72 250zM438 603q-27 34 -63 52.5t-74 18.5q-67 0 -105 -61t-38 -174v-64q136 0 164 1
q36 2 47 5q14 4 19.5 13t5.5 24q5 112 44 185zM606 306q0 24 -4 34.5t-15 14.5q-23 1 -134 1v-275q0 -31 6.5 -44t24.5 -18q16 -5 59 -7q27 1 40 6.5t18 19.5q5 15 5 43v225z" />
    <glyph glyph-name="f_f_h.liga" unicode="ffh" horiz-adv-x="1112" 
d="M1093 6q0 -6 -3 -6q-28 0 -37 1l-54 1l-55 -1q-9 -1 -36 -1q-3 0 -3 6t3 6q27 0 40.5 5.5t17.5 19.5q4 12 4 44v159q0 59 -22.5 87.5t-68.5 28.5q-31 0 -63 -16.5t-58 -45.5v-213q0 -30 5 -44t18 -19q14 -6 40 -6q3 0 3 -6t-3 -6q-28 0 -37 1l-54 1l-55 -1q-9 -1 -36 -1
q-3 0 -3 6t3 6q27 0 40.5 5.5t17.5 19.5q4 12 4 44v552q-47 77 -121 77q-64 0 -96 -63q-31 -63 -31 -208v-64q52 2 128 10q4 0 5 -7q2 -10 2 -17q0 -9 -3 -17t-7 -7q-63 15 -125 16v-272q0 -31 7 -45t27 -19q22 -5 64 -5q3 0 3 -6t-3 -6l-64 1q-14 1 -64 1l-56 -1
q-9 -1 -40 -1q-3 0 -3 6t3 6q30 0 44 5.5t20 19.5q5 15 5 44v225q-1 25 -5 33.5t-18 11.5l-60 3q-46 2 -155 2v-275q0 -31 7 -45t27 -19q22 -5 64 -5q3 0 3 -6t-3 -6l-64 1q-14 1 -64 1l-56 -1q-9 -1 -40 -1q-3 0 -3 6t3 6q30 0 44 5.5t20 19.5q5 15 5 44v225q0 26 -5 36.5
t-19 14.5q-15 3 -49 3q-3 0 -3 7q0 6 3 6q41 0 55.5 9.5t15.5 35.5q7 133 68 203t167 70q72 0 126 -27q50 62 146 62q82 0 130 -37q10 19 10 39q0 3 6 3t6 -3v-417q38 44 75.5 64.5t78.5 20.5q55 0 85 -31t30 -90v-194q0 -30 5 -44t18 -19q14 -6 40 -6q3 0 3 -6zM429 613
q-26 29 -59 45t-69 16q-67 0 -105 -61t-38 -174v-64q136 0 164 1q36 2 47 5q14 4 19.5 13t5.5 24q4 123 35 195z" />
    <glyph glyph-name="f_f_i.liga" unicode="ffi" horiz-adv-x="863" 
d="M492 640q-39 -69 -39 -201v-64q51 2 128 10q4 0 5 -7q2 -10 2 -17q0 -10 -4 -18q-4 -10 -6 -8q-62 19 -125 22v-276q0 -31 7 -45t27 -19q22 -5 64 -5q3 0 3 -6t-3 -6l-64 1q-14 1 -64 1l-56 -1q-9 -1 -40 -1q-3 0 -3 6t3 6q30 0 44 5.5t20 19.5q5 15 5 44v225
q-1 25 -5 33.5t-18 11.5l-60 3q-46 2 -155 2v-275q0 -31 7 -45t27 -19q22 -5 64 -5q3 0 3 -6t-3 -6l-64 1q-14 1 -64 1l-56 -1q-9 -1 -40 -1q-3 0 -3 6t3 6q30 0 44 5.5t20 19.5q5 15 5 44v225q0 26 -5 36.5t-19 14.5q-15 3 -49 3q-3 0 -3 7q0 6 3 6q41 0 55.5 9.5
t15.5 35.5q7 133 68 203t167 70q76 0 134 -31q59 66 164 66q54 0 90 -22t36 -53q0 -15 -8 -23t-22 -8t-23 8t-19 27q-17 29 -35 41.5t-52 12.5q-68 0 -107 -69zM434 608q-27 31 -62 48.5t-71 17.5q-67 0 -105 -61t-38 -174v-64q136 0 164 1q36 2 47 5q14 4 19.5 13t5.5 24
q5 118 40 190zM830 6q0 -6 -3 -6q-28 0 -37 1l-54 1l-54 -1q-9 -1 -37 -1q-3 0 -3 6t3 6q27 0 40 5.5t18 20.5t5 43v187q0 37 -7 52q-7 16 -25 16q-13 0 -46 -14h-1q-5 0 -6.5 5t2.5 7l130 61q1 1 3 1q3 0 5.5 -3t2.5 -6l-1 -40q-1 -22 -1 -78v-188q0 -29 5 -43.5t18 -19.5
q14 -6 40 -6q3 0 3 -6z" />
    <glyph glyph-name="f_f_j.liga" unicode="ffj" horiz-adv-x="864" 
d="M493 640.5q-40 -68.5 -40 -201.5v-64q52 2 128 10q4 0 5 -7q2 -10 2 -17q0 -9 -3 -17t-7 -7q-63 15 -125 16v-272q0 -31 7 -45t27 -19q22 -5 64 -5q3 0 3 -6t-3 -6l-64 1q-14 1 -64 1l-56 -1q-9 -1 -40 -1q-3 0 -3 6t3 6q30 0 44 5.5t20 19.5q5 15 5 44v225
q-1 25 -5 33.5t-18 11.5l-60 3q-46 2 -155 2v-275q0 -31 7 -45t27 -19q22 -5 64 -5q3 0 3 -6t-3 -6l-64 1q-14 1 -64 1l-56 -1q-9 -1 -40 -1q-3 0 -3 6t3 6q30 0 44 5.5t20 19.5q5 15 5 44v225q0 26 -5 36.5t-19 14.5q-15 3 -49 3q-3 0 -3 7q0 6 3 6q41 0 55.5 9.5
t15.5 35.5q7 133 68 203t167 70q40 0 75 -8.5t60 -23.5q60 67 167 67q58 0 96 -22t38 -53q0 -15 -8.5 -23t-22.5 -8t-23 7.5t-22 27.5q-17 28 -36.5 41t-53.5 13q-71 0 -111 -68.5zM434 607q-27 32 -61.5 49.5t-71.5 17.5q-67 0 -105 -61t-38 -174v-64q136 0 164 1
q36 2 47 5q14 4 19.5 13t5.5 24q5 117 40 189zM763 395q1 1 3 1q3 0 6 -3t3 -6l-1 -40q-2 -44 -2 -78v-317q0 -68 -13 -110t-43 -69q-29 -28 -85 -49q-2 -1 -4.5 4.5t0.5 6.5q49 21 69 65t20 129v339q0 37 -7 52q-7 16 -25 16q-13 0 -46 -14h-1q-5 0 -6.5 5t2.5 7z" />
    <glyph glyph-name="f_f_k.liga" unicode="ffk" horiz-adv-x="1104" 
d="M1098 6q0 -6 -2 -6q-28 0 -37 1l-54 1l-73 -1q-10 -1 -42 -1q-3 0 -3 6t3 6q50 0 50 19q0 8 -10 22l-122 167l-50 -39v-100q0 -30 5 -44t18 -19q14 -6 40 -6q3 0 3 -6t-3 -6q-28 0 -37 1l-54 1l-55 -1q-9 -1 -36 -1q-3 0 -3 6t3 6q27 0 40.5 5.5t17.5 19.5q4 12 4 44v552
q-47 77 -122 77q-63 0 -95 -63q-31 -63 -31 -208v-64q52 2 128 10q4 0 5 -7q2 -10 2 -17q0 -9 -3 -17t-7 -7q-63 15 -125 16v-272q0 -31 7 -45t27 -19q22 -5 64 -5q3 0 3 -6t-3 -6l-64 1q-14 1 -64 1l-56 -1q-9 -1 -40 -1q-3 0 -3 6t3 6q30 0 44 5.5t20 19.5q5 15 5 44v225
q-1 25 -5 33.5t-18 11.5l-60 3q-46 2 -155 2v-275q0 -31 7 -45t27 -19q22 -5 64 -5q3 0 3 -6t-3 -6l-64 1q-14 1 -64 1l-56 -1q-9 -1 -40 -1q-3 0 -3 6t3 6q30 0 44 5.5t20 19.5q5 15 5 44v225q0 26 -5 36.5t-19 14.5q-15 3 -49 3q-3 0 -3 7q0 6 3 6q41 0 55.5 9.5
t15.5 35.5q7 133 68 203t167 70q72 0 126 -27q50 62 144 62q42 0 76 -9.5t56 -27.5q10 19 10 39q0 3 6 3t6 -3v-531l134 108q32 26 32 44q0 25 -57 25q-3 0 -3 6t3 6q32 0 41 -1l73 -1l66 1q9 1 37 1q2 0 2 -6t-2 -6q-39 0 -83 -18t-89 -54l-59 -46l128 -175q50 -69 115 -69
q2 0 2 -6zM429 613q-26 29 -59 45t-69 16q-67 0 -105 -61t-38 -174v-64q136 0 164 1q36 2 47 5q14 4 19.5 13t5.5 24q4 123 35 195z" />
    <glyph glyph-name="f_f_l.liga" unicode="ffl" horiz-adv-x="862" 
d="M837 6q0 -6 -3 -6q-28 0 -37 1l-55 1l-55 -1q-9 -1 -37 -1q-3 0 -3 6t3 6q27 0 40.5 5.5t17.5 19.5q4 12 4 44v549q-27 41 -58 60.5t-70 19.5q-62 0 -97 -63q-34 -64 -34 -208v-64q51 2 128 10q3 0 5 -8q2 -10 2 -17q0 -10 -4 -18q-4 -9 -6 -7q-62 19 -125 22v-276
q0 -31 7 -45t27 -19q22 -5 64 -5q3 0 3 -6t-3 -6l-64 1q-14 1 -64 1l-56 -1q-9 -1 -40 -1q-3 0 -3 6t3 6q30 0 44 5.5t20 19.5q5 15 5 44v225q-1 25 -5 33.5t-18 11.5l-60 3q-46 2 -155 2v-275q0 -31 7 -45t27 -19q22 -5 64 -5q3 0 3 -6t-3 -6l-64 1q-14 1 -64 1l-56 -1
q-9 -1 -40 -1q-3 0 -3 6t3 6q30 0 44 5.5t20 19.5q5 15 5 44v225q0 26 -5 36.5t-19 14.5q-15 3 -49 3q-3 0 -3 7q0 6 3 6q41 0 55.5 9.5t15.5 35.5q7 133 68 203t167 70q68 0 127 -27q53 62 148 62q42 0 78 -10.5t60 -28.5q12 18 12 41q0 3 6 3t6 -3v-647q0 -30 5 -44
t18 -19q14 -6 40 -6q3 0 3 -6zM430 612q-27 30 -60 46t-69 16q-67 0 -105 -61t-38 -174v-64q136 0 164 1q36 2 47 5q14 4 19.5 13t5.5 24q5 122 36 194z" />
    <glyph glyph-name="f_f_thorn.liga" unicode="ff&#xfe;" horiz-adv-x="1106" 
d="M993.5 376.5q34.5 -22.5 55.5 -63.5q21 -42 21 -98q0 -72 -32.5 -124.5t-84.5 -78.5q-49 -25 -98 -25q-33 0 -57 5.5t-47 19.5v-206q0 -31 7 -44.5t27 -18.5q20 -6 63 -6q3 0 3 -6t-3 -6q-41 0 -54 1l-73 1l-54 -1q-9 -1 -39 -1q-2 0 -2 6t2 6q28 0 41 5.5t18 19.5
q5 15 5 44v841q-43 63 -113 63q-63 0 -95 -63q-31 -63 -31 -208v-64q52 2 128 10q4 0 5 -7q2 -10 2 -17q0 -9 -3 -17t-7 -7q-63 15 -125 16v-272q0 -31 7 -45t27 -19q22 -5 64 -5q3 0 3 -6t-3 -6l-64 1q-14 1 -64 1l-56 -1q-9 -1 -40 -1q-3 0 -3 6t3 6q30 0 44 5.5t20 19.5
q5 15 5 44v225q-1 25 -5 33.5t-18 11.5l-60 3q-46 2 -155 2v-275q0 -31 7 -45t27 -19q22 -5 64 -5q3 0 3 -6t-3 -6l-64 1q-14 1 -64 1l-56 -1q-9 -1 -40 -1q-3 0 -3 6t3 6q30 0 44 5.5t20 19.5q5 15 5 44v225q0 26 -5 36.5t-19 14.5q-15 3 -49 3q-3 0 -3 7q0 6 3 6
q41 0 55.5 9.5t15.5 35.5q7 133 68 203t167 70q72 0 126 -27q50 62 144 62q78 0 126 -33q9 17 9 35q0 3 6 3t6 -3v-413q83 84 166 84q42 0 76.5 -22.5zM429 613q-26 29 -59 45t-69 16q-67 0 -105 -61t-38 -174v-64q136 0 164 1q36 2 47 5q14 4 19.5 13t5.5 24q4 123 35 195z
M972.5 55q33.5 47 33.5 129t-37 129.5t-95 47.5q-32 0 -62 -16t-61 -47v-229q27 -31 58.5 -46t74.5 -15q55 0 88.5 47z" />
    <glyph glyph-name="f_f_t.liga" unicode="fft" horiz-adv-x="918" 
d="M890 52q4 0 6 -4.5t-1 -6.5q-36 -29 -65.5 -41t-62.5 -12q-44 0 -69.5 20t-25.5 62v236q0 20 -4 29t-15.5 13t-37.5 6q-52 2 -162 2v-275q0 -31 7 -45t27 -19q22 -5 64 -5q3 0 3 -6t-3 -6l-64 1q-14 1 -64 1l-56 -1q-9 -1 -40 -1q-3 0 -3 6t3 6q30 0 44 5.5t20 19.5
q5 15 5 44v225q-1 25 -5 33.5t-18 11.5l-60 3q-46 2 -155 2v-275q0 -31 7 -45t27 -19q22 -5 64 -5q3 0 3 -6t-3 -6l-64 1q-14 1 -64 1l-56 -1q-9 -1 -40 -1q-3 0 -3 6t3 6q30 0 44 5.5t20 19.5q5 15 5 44v225q0 26 -5 36.5t-19 14.5q-15 3 -49 3q-3 0 -3 7q0 6 3 6
q41 0 55.5 9.5t15.5 35.5q7 133 68 203t167 70q73 0 128 -28q53 63 152 63q50 0 83 -15.5t33 -37.5q0 -15 -10 -23.5t-25 -8.5q-11 0 -19.5 6t-21.5 22q-15 21 -33 30.5t-42 9.5q-58 0 -92 -67t-34 -203v-64q91 0 142 3q45 1 69 7.5t35 21.5t15 42q2 3 8 3q7 0 7 -3v-74
q58 2 139 10q4 0 5 -7q2 -10 2 -17q0 -8 -3.5 -16.5t-6.5 -7.5q-62 15 -136 16v-249q0 -81 79 -81q46 0 80 28zM430 612q-27 30 -60 46t-69 16q-67 0 -105 -61t-38 -174v-64q136 0 164 1q36 2 47 5q14 4 19.5 13t5.5 24q5 122 36 194z" />
    <glyph glyph-name="f_h.liga" unicode="fh" horiz-adv-x="817" 
d="M798 6q0 -6 -3 -6q-28 0 -37 1l-54 1l-55 -1q-9 -1 -36 -1q-3 0 -3 6t3 6q27 0 40.5 5.5t17.5 19.5q4 12 4 44v159q0 59 -22.5 87.5t-68.5 28.5q-31 0 -63 -16.5t-58 -45.5v-213q0 -30 5 -44t18 -19q14 -6 40 -6q3 0 3 -6t-3 -6q-28 0 -37 1l-54 1l-55 -1q-9 -1 -36 -1
q-3 0 -3 6t3 6q27 0 40.5 5.5t17.5 19.5q4 12 4 44v552q-47 77 -121 77q-64 0 -96 -63q-31 -63 -31 -208v-64q52 2 128 10q4 0 5 -7q2 -10 2 -17q0 -9 -3 -17t-7 -7q-63 15 -125 16v-272q0 -31 7 -45t27 -19q22 -5 64 -5q3 0 3 -6t-3 -6l-64 1q-14 1 -64 1l-56 -1
q-9 -1 -40 -1q-3 0 -3 6t3 6q30 0 44 5.5t20 19.5q5 15 5 44v225q0 26 -5 36.5t-19 14.5q-15 3 -49 3q-3 0 -3 7q0 6 3 6q41 0 55.5 9.5t15.5 35.5q5 159 56 233.5t156 74.5q82 0 130 -37q10 19 10 39q0 3 6 3t6 -3v-417q38 44 75.5 64.5t78.5 20.5q55 0 85 -31t30 -90v-194
q0 -30 5 -44t18 -19q14 -6 40 -6q3 0 3 -6z" />
    <glyph glyph-name="f_j.liga" unicode="fj" horiz-adv-x="569" 
d="M198 640.5q-40 -68.5 -40 -201.5v-64q52 2 128 10q4 0 5 -7q2 -10 2 -17q0 -9 -3 -17t-7 -7q-63 15 -125 16v-272q0 -31 7 -45t27 -19q22 -5 64 -5q3 0 3 -6t-3 -6l-64 1q-14 1 -64 1l-56 -1q-9 -1 -40 -1q-3 0 -3 6t3 6q30 0 44 5.5t20 19.5q5 15 5 44v225q0 26 -5 36.5
t-19 14.5q-15 3 -49 3q-3 0 -3 7q0 6 3 6q41 0 55.5 9.5t15.5 35.5q12 308 242 308q58 0 96 -22t38 -53q0 -15 -8.5 -23t-22.5 -8t-23 7.5t-22 27.5q-17 28 -36.5 41t-53.5 13q-71 0 -111 -68.5zM468 395q1 1 3 1q3 0 6 -3t3 -6l-1 -40q-2 -44 -2 -78v-317q0 -68 -13 -110
t-43 -69q-29 -28 -85 -49q-2 -1 -4.5 4.5t0.5 6.5q49 21 69 65t20 129v339q0 37 -7 52q-7 16 -25 16q-13 0 -46 -14h-1q-5 0 -6.5 5t2.5 7z" />
    <glyph glyph-name="f_k.liga" unicode="fk" horiz-adv-x="809" 
d="M803 6q0 -6 -2 -6q-28 0 -37 1l-54 1l-73 -1q-10 -1 -42 -1q-3 0 -3 6t3 6q50 0 50 19q0 8 -10 22l-122 167l-50 -39v-100q0 -30 5 -44t18 -19q14 -6 40 -6q3 0 3 -6t-3 -6q-28 0 -37 1l-54 1l-55 -1q-9 -1 -36 -1q-3 0 -3 6t3 6q27 0 40.5 5.5t17.5 19.5q4 12 4 44v552
q-47 77 -122 77q-63 0 -95 -63q-31 -63 -31 -208v-64q52 2 128 10q4 0 5 -7q2 -10 2 -17q0 -9 -3 -17t-7 -7q-63 15 -125 16v-272q0 -31 7 -45t27 -19q22 -5 64 -5q3 0 3 -6t-3 -6l-64 1q-14 1 -64 1l-56 -1q-9 -1 -40 -1q-3 0 -3 6t3 6q30 0 44 5.5t20 19.5q5 15 5 44v225
q0 26 -5 36.5t-19 14.5q-15 3 -49 3q-3 0 -3 7q0 6 3 6q41 0 55.5 9.5t15.5 35.5q5 159 56 233.5t154 74.5q42 0 76 -9.5t56 -27.5q10 19 10 39q0 3 6 3t6 -3v-531l134 108q32 26 32 44q0 25 -57 25q-3 0 -3 6t3 6q32 0 41 -1l73 -1l66 1q9 1 37 1q2 0 2 -6t-2 -6
q-39 0 -83 -18t-89 -54l-59 -46l128 -175q50 -69 115 -69q2 0 2 -6z" />
    <glyph glyph-name="f_thorn.liga" unicode="f&#xfe;" horiz-adv-x="811" 
d="M698.5 376.5q34.5 -22.5 55.5 -63.5q21 -42 21 -98q0 -72 -32.5 -124.5t-84.5 -78.5q-49 -25 -98 -25q-33 0 -57 5.5t-47 19.5v-206q0 -31 7 -44.5t27 -18.5q20 -6 63 -6q3 0 3 -6t-3 -6q-41 0 -54 1l-73 1l-54 -1q-9 -1 -39 -1q-2 0 -2 6t2 6q28 0 41 5.5t18 19.5
q5 15 5 44v841q-43 63 -113 63q-63 0 -95 -63q-31 -63 -31 -208v-64q52 2 128 10q4 0 5 -7q2 -10 2 -17q0 -9 -3 -17t-7 -7q-63 15 -125 16v-272q0 -31 7 -45t27 -19q22 -5 64 -5q3 0 3 -6t-3 -6l-64 1q-14 1 -64 1l-56 -1q-9 -1 -40 -1q-3 0 -3 6t3 6q30 0 44 5.5t20 19.5
q5 15 5 44v225q0 26 -5 36.5t-19 14.5q-15 3 -49 3q-3 0 -3 7q0 6 3 6q41 0 55.5 9.5t15.5 35.5q5 159 56 233.5t154 74.5q78 0 126 -33q9 17 9 35q0 3 6 3t6 -3v-413q83 84 166 84q42 0 76.5 -22.5zM677.5 55q33.5 47 33.5 129t-37 129.5t-95 47.5q-32 0 -62 -16t-61 -47
v-229q27 -31 58.5 -46t74.5 -15q55 0 88.5 47z" />
    <glyph glyph-name="f_t.liga" unicode="ft" horiz-adv-x="623" 
d="M595 52q4 0 6 -4.5t-1 -6.5q-36 -29 -65.5 -41t-62.5 -12q-44 0 -69.5 20t-25.5 62v236q0 20 -4 29t-15.5 13t-37.5 6q-52 2 -162 2v-275q0 -31 7 -45t27 -19q22 -5 64 -5q3 0 3 -6t-3 -6l-64 1q-14 1 -64 1l-56 -1q-9 -1 -40 -1q-3 0 -3 6t3 6q30 0 44 5.5t20 19.5
q5 15 5 44v225q0 26 -5 36.5t-19 14.5q-15 3 -49 3q-3 0 -3 7q0 6 3 6q41 0 55.5 9.5t15.5 35.5q5 160 59 234t161 74q50 0 83 -15.5t33 -37.5q0 -15 -10 -23.5t-25 -8.5q-11 0 -19.5 6t-21.5 22q-15 21 -33 30.5t-42 9.5q-58 0 -92 -67t-34 -203v-64q91 0 142 3
q45 1 69 7.5t35 21.5t15 42q2 3 8 3q7 0 7 -3v-74q58 2 139 10q4 0 5 -7q2 -10 2 -17q0 -8 -3.5 -16.5t-6.5 -7.5q-62 15 -136 16v-249q0 -81 79 -81q46 0 80 28z" />
    <glyph glyph-name="fi.liga" unicode="fi" horiz-adv-x="568" 
d="M197 640q-39 -69 -39 -201v-64q51 2 128 10q4 0 5 -7q2 -10 2 -17q0 -10 -4 -18q-4 -10 -6 -8q-62 19 -125 22v-276q0 -31 7 -45t27 -19q22 -5 64 -5q3 0 3 -6t-3 -6l-64 1q-14 1 -64 1l-56 -1q-9 -1 -40 -1q-3 0 -3 6t3 6q30 0 44 5.5t20 19.5q5 15 5 44v225
q0 26 -5 36.5t-19 14.5q-15 3 -49 3q-3 0 -3 7q0 6 3 6q41 0 55.5 9.5t15.5 35.5q11 308 238 308q54 0 90 -22t36 -53q0 -15 -8 -23t-22 -8t-23 8t-19 27q-17 29 -35 41.5t-52 12.5q-68 0 -107 -69zM535 6q0 -6 -3 -6q-28 0 -37 1l-54 1l-54 -1q-9 -1 -37 -1q-3 0 -3 6t3 6
q27 0 40 5.5t18 20.5t5 43v187q0 37 -7 52q-7 16 -25 16q-13 0 -46 -14h-1q-5 0 -6.5 5t2.5 7l130 61q1 1 3 1q3 0 5.5 -3t2.5 -6l-1 -40q-1 -22 -1 -78v-188q0 -29 5 -43.5t18 -19.5q14 -6 40 -6q3 0 3 -6z" />
    <glyph glyph-name="fl.liga" unicode="fl" horiz-adv-x="567" 
d="M542 6q0 -6 -3 -6q-28 0 -37 1l-55 1l-55 -1q-9 -1 -37 -1q-3 0 -3 6t3 6q27 0 40.5 5.5t17.5 19.5q4 12 4 44v549q-27 41 -58 60.5t-70 19.5q-62 0 -97 -63q-34 -64 -34 -208v-64q51 2 128 10q3 0 5 -8q2 -10 2 -17q0 -10 -4 -18q-4 -9 -6 -7q-62 19 -125 22v-276
q0 -31 7 -45t27 -19q22 -5 64 -5q3 0 3 -6t-3 -6l-64 1q-14 1 -64 1l-56 -1q-9 -1 -40 -1q-3 0 -3 6t3 6q30 0 44 5.5t20 19.5q5 15 5 44v225q0 26 -5 36.5t-19 14.5q-15 3 -49 3q-3 0 -3 7q0 6 3 6q41 0 55.5 9.5t15.5 35.5q5 160 58.5 234t156.5 74q42 0 78 -10.5
t60 -28.5q12 18 12 41q0 3 6 3t6 -3v-647q0 -30 5 -44t18 -19q14 -6 40 -6q3 0 3 -6z" />
    <glyph glyph-name="g_g.liga" unicode="gg" horiz-adv-x="880" 
d="M443 387q1 -5 1 -15q0 -12 -3 -24t-6 -10l-25 8q-21 7 -54 7q-6 0 -24 -2q34 -37 34 -86q0 -36 -19.5 -66t-55.5 -48t-82 -18q-34 0 -65 11q-20 -17 -28 -31.5t-8 -32.5q0 -22 14.5 -34t47.5 -16q35 -5 92 -5q49 0 79 -6.5t52 -27.5q23 -23 23 -69q0 -53 -33 -100
t-88 -74q-55 -28 -115 -28q-68 0 -108 30.5t-40 79.5q0 75 100 145q-37 5 -56 21.5t-19 46.5q0 29 16.5 52.5t55.5 54.5q-34 17 -53 47t-19 66q0 56 44.5 93t114.5 37q63 0 104 -32q32 17 59.5 25t58.5 8q4 0 5 -7zM780 18.5q32 -6.5 56 -27.5q25 -22 25 -69
q0 -53 -34.5 -100t-92.5 -74q-56 -28 -120 -28q-65 0 -104 30.5t-39 79.5q0 75 97 145q-38 5 -57 21t-19 47q0 29 16.5 53t54.5 54q-35 15 -54 45.5t-19 67.5t20.5 66.5t57.5 46.5t82 17q65 0 103 -31q56 32 107 32q4 0 5 -6q2 -10 2 -16q0 -11 -3 -23q-4 -12 -7 -11
q-22 8 -35.5 11.5t-32.5 3.5q-5 0 -23 -2q34 -37 34 -86q0 -36 -19.5 -66t-54.5 -48q-36 -18 -83 -18q-35 0 -65 10q-20 -15 -28 -30t-8 -33q0 -22 14.5 -34t47.5 -16q35 -5 93 -5q51 0 83 -6.5zM283 172.5q20 24.5 20 71.5q0 59 -31.5 96.5t-79.5 37.5q-35 0 -54 -23
t-19 -69q0 -41 15.5 -73.5t41.5 -48.5q25 -16 53 -16q34 0 54 24.5zM572 355q-19 -23 -19 -69q0 -41 15.5 -73.5t41.5 -48.5q25 -16 53 -16q35 0 55 24.5t20 71.5q0 59 -31.5 96.5t-80.5 37.5q-35 0 -54 -23zM300 -34q-33 5 -82 5q-37 0 -63 2q-33 -22 -49 -47t-16 -60
q0 -54 34.5 -85t96.5 -31q65 0 104.5 36.5t39.5 98.5q0 69 -65 81zM768 -213.5q43 36.5 43 98.5q0 37 -18 56t-52 25q-35 5 -88 5q-49 0 -62 1q-31 -21 -46.5 -46t-15.5 -60q0 -54 33 -85t93 -31q70 0 113 36.5z" />
    <glyph glyph-name="longs_b.liga" unicode="&#x17f;b" horiz-adv-x="809" 
d="M693.5 377.5q36.5 -21.5 57.5 -61.5q22 -41 22 -102q0 -70 -30.5 -122t-82.5 -79q-50 -26 -106 -26q-74 0 -139 42l-74 -34h-2q-4 0 -5 4t3 6q32 23 44.5 43t12.5 55v529q-40 78 -111 78q-62 0 -94 -63q-31 -63 -31 -208v-358q0 -31 7 -45t27 -19q22 -5 64 -5q3 0 3 -6
t-3 -6l-64 1q-14 1 -64 1l-56 -1q-9 -1 -40 -1q-3 0 -3 6t3 6q30 0 44 5.5t20 19.5q5 15 5 44v225q0 26 -5 36.5t-19 14.5q-15 3 -49 3q-3 0 -3 7q0 6 3 6q41 0 56 9.5t15 35.5q2 308 209 308q78 0 121 -37q11 20 11 39q0 3 6 3t6 -3v-413q39 41 77.5 62.5t83.5 21.5
q44 0 80.5 -21.5zM674.5 51.5q32.5 45.5 32.5 128.5q0 89 -34.5 137.5t-93.5 48.5q-61 0 -127 -69v-216q56 -75 132 -75q58 0 90.5 45.5z" />
    <glyph glyph-name="longs_h.liga" unicode="&#x17f;h" horiz-adv-x="804" 
d="M785 6q0 -6 -2 -6q-29 0 -38 1l-54 1l-54 -1q-9 -1 -37 -1q-3 0 -3 6t3 6q27 0 40 5.5t18 20.5t5 43v159q0 59 -22.5 87.5t-69.5 28.5q-32 0 -64 -16.5t-57 -45.5v-213q0 -30 5.5 -44t18.5 -19q14 -6 40 -6q2 0 2 -6t-2 -6q-29 0 -38 1l-54 1l-54 -1q-9 -1 -37 -1
q-4 0 -4 6t4 6q27 0 40 5.5t18 20.5t5 43v551q-40 78 -112 78q-62 0 -94 -63q-31 -63 -31 -208v-358q0 -31 7 -45t27 -19q22 -5 64 -5q3 0 3 -6t-3 -6l-65 1q-14 1 -63 1l-55 -1q-10 -1 -41 -1q-3 0 -3 6t3 6q30 0 44 5.5t20 19.5q5 15 5 44l1 225q0 26 -5 36.5t-19 14.5
q-15 3 -49 3q-3 0 -3 7q0 6 3 6q41 0 56 9.5t15 35.5q1 308 208 308q76 0 122 -36q10 17 10 38q0 3 6 3q5 0 5 -3v-417q39 44 76.5 64.5t77.5 20.5q55 0 85 -31t30 -90v-194q0 -30 5.5 -44t18.5 -19q14 -6 40 -6q2 0 2 -6z" />
    <glyph glyph-name="longs_i.liga" unicode="&#x17f;i" horiz-adv-x="548" 
d="M28 6q0 6 4 6q30 0 44 5.5t20 19.5q5 15 5 44v225q0 26 -5 36.5t-19 14.5q-15 3 -49 3q-3 0 -3 7q0 6 3 6q41 0 56 9.5t15 35.5q0 156 56 232t160 76q54 0 85.5 -15.5t31.5 -40.5q0 -15 -9.5 -23t-24.5 -8q-14 0 -23 6.5t-22 24.5q-16 22 -30 31.5t-37 9.5q-58 0 -92 -67
q-35 -68 -35 -205v-358q0 -31 6 -45t24 -19q20 -5 58 -5q2 0 2 -6t-2 -6l-61 1q-13 1 -58 1l-57 -1q-9 -1 -39 -1q-4 0 -4 6zM319 6q0 6 2 6q27 0 40.5 5.5t18.5 20.5t5 43v187q0 37 -7 52q-7 16 -25 16q-13 0 -46 -14h-1q-4 0 -6 5t2 7l130 61q1 1 3 1q3 0 5.5 -3t2.5 -6
l-1 -40q-1 -22 -1 -78v-188q0 -30 5 -44t18 -19q14 -6 40 -6q3 0 3 -6t-3 -6q-28 0 -37 1l-54 1l-54 -1q-9 -1 -38 -1q-2 0 -2 6z" />
    <glyph glyph-name="longs_j.liga" unicode="&#x17f;j" horiz-adv-x="529" 
d="M28 6q0 6 4 6q30 0 44 5.5t20 19.5q5 15 5 44v225q0 26 -5 36.5t-19 14.5q-15 3 -49 3q-3 0 -3 7q0 6 3 6q41 0 56 9.5t15 35.5q0 156 56 232t160 76q54 0 85.5 -15.5t31.5 -40.5q0 -15 -9.5 -23t-24.5 -8q-14 0 -23 6.5t-22 24.5q-16 22 -30 31.5t-37 9.5q-58 0 -92 -67
q-35 -68 -35 -205v-358q0 -31 6 -45t24 -19q20 -5 58 -5q2 0 2 -6t-2 -6l-61 1q-13 1 -58 1l-57 -1q-9 -1 -39 -1q-4 0 -4 6zM291.5 -271.5q-2.5 5.5 -0.5 6.5q49 21 69 64.5t20 129.5v339q0 37 -7 52q-7 16 -24 16q-13 0 -46 -14h-1q-5 0 -6.5 5t2.5 7l130 61q1 1 3 1
q3 0 5.5 -3t2.5 -6l-1 -40q-1 -22 -1 -78v-317q0 -68 -13 -110t-43 -69q-29 -28 -85 -49q-2 -1 -4.5 4.5z" />
    <glyph glyph-name="longs_k.liga" unicode="&#x17f;k" horiz-adv-x="797" 
d="M791 6q0 -6 -2 -6q-28 0 -37 1l-54 1l-72 -1q-11 -1 -43 -1q-2 0 -2 6t2 6q50 0 50 19q0 8 -10 22l-122 167l-50 -40v-99q0 -30 5 -44t18 -19q14 -6 40 -6q3 0 3 -6t-3 -6q-28 0 -37 1l-54 1l-54 -1q-9 -1 -37 -1q-3 0 -3 6t3 6q27 0 40 5.5t18 20.5t5 43v551
q-40 78 -112 78q-62 0 -94 -63q-31 -63 -31 -208v-358q0 -31 7 -45t27 -19q22 -5 64 -5q3 0 3 -6t-3 -6l-64 1q-14 1 -64 1l-56 -1q-9 -1 -40 -1q-3 0 -3 6t3 6q30 0 44 5.5t20 19.5q5 15 5 44v225q0 26 -5 36.5t-19 14.5q-15 3 -49 3q-3 0 -3 7q0 6 3 6q41 0 56.5 9.5
t15.5 35.5q1 308 208 308q80 0 121 -37q11 20 11 39q0 3 6 3q5 0 5 -3v-531l134 108q32 26 32 44q0 25 -57 25q-3 0 -3 6t3 6q32 0 42 -1l73 -1l67 1q8 1 35 1q3 0 3 -6t-3 -6q-39 0 -83 -18t-89 -54l-59 -46l128 -175q50 -69 115 -69q2 0 2 -6z" />
    <glyph glyph-name="longs_l.liga" unicode="&#x17f;l" horiz-adv-x="546" 
d="M521 6q0 -6 -3 -6q-28 0 -37 1l-55 1l-54 -1q-9 -1 -38 -1q-3 0 -3 6t3 6q27 0 40 5.5t18 20.5t5 43v546q-47 83 -119 83q-120 0 -120 -271v-358q0 -31 7 -45t27 -19q22 -5 64 -5q3 0 3 -6t-3 -6l-64 1q-14 1 -64 1l-56 -1q-9 -1 -40 -1q-3 0 -3 6t3 6q30 0 44 5.5
t20 19.5q5 15 5 44v225q0 26 -5 36.5t-19 14.5q-15 3 -49 3q-3 0 -3 7q0 6 3 6q41 0 56 9.5t15 35.5q5 159 56.5 233.5t149.5 74.5q80 0 126 -39q12 18 12 41q0 3 6 3t6 -3v-647q0 -30 5 -44t18 -19q14 -6 40 -6q3 0 3 -6z" />
    <glyph glyph-name="longs_thorn.liga" unicode="&#x17f;&#xfe;" horiz-adv-x="798" 
d="M686 376.5q35 -22.5 56 -63.5q21 -42 21 -98q0 -72 -32.5 -124.5t-85.5 -78.5q-49 -25 -98 -25q-33 0 -57 5.5t-47 19.5v-206q0 -31 7 -44.5t28 -18.5q20 -6 64 -6q2 0 2 -6t-2 -6q-43 0 -56 1l-72 1l-54 -1q-9 -1 -39 -1q-2 0 -2 6t2 6q27 0 40.5 5.5t18.5 19.5
q5 15 5 44v843q-40 61 -102 61t-94 -63q-31 -63 -31 -208v-358q0 -32 6.5 -45.5t26.5 -18.5q22 -5 65 -5q2 0 2 -6t-2 -6l-65 1q-14 1 -63 1l-56 -1q-10 -1 -41 -1q-3 0 -3 6t3 6q31 0 45 5t19 20t5 44v225q0 26 -5 36.5t-19 14.5q-13 3 -49 3q-3 0 -3 7q0 6 3 6
q41 0 56 9.5t16 35.5q4 156 55.5 232t152.5 76q72 0 116 -32q8 18 8 34q0 3 6 3t6 -3v-413q83 84 166 84q42 0 77 -22.5zM664.5 55q33.5 47 33.5 129t-36.5 129.5t-94.5 47.5q-34 0 -63 -16t-61 -48v-228q28 -31 59.5 -46t74.5 -15q54 0 87.5 47z" />
    <glyph glyph-name="longs_longs.liga" unicode="&#x17f;&#x17f;" horiz-adv-x="540" 
d="M660.5 710.5q29.5 -15.5 29.5 -37.5q0 -15 -10 -23t-25 -8q-14 0 -22.5 6.5t-21.5 23.5q-16 22 -28 30t-33 8q-54 0 -84 -65q-30 -66 -30 -206v-358q0 -32 6 -45.5t23 -18.5q18 -5 56 -5q2 0 2 -6t-2 -6l-59 1q-13 1 -57 1l-56 -1q-10 -1 -41 -1q-3 0 -3 6t3 6q31 0 45 5
t19 20t5 44v225q0 26 -5 36.5t-19 14.5q-13 3 -49 3q-3 0 -3 7q0 6 3 6q41 0 56 9.5t16 35.5q5 129 36 199q-24 27 -52.5 42t-58.5 15q-67 0 -105 -61t-38 -174v-358q0 -31 6.5 -45t25.5 -19q22 -5 62 -5q2 0 2 -6t-2 -6l-63 1q-13 1 -61 1l-56 -1q-9 -1 -40 -1q-3 0 -3 6
t3 6q30 0 44 5.5t20 19.5q5 15 5 44v225q0 26 -5 36.5t-19 14.5q-14 3 -49 3q-3 0 -3 7q0 6 3 6q41 0 56 9.5t16 35.5q4 131 66 202t168 71q59 0 108 -23q49 58 143 58q46 0 75.5 -15.5z" />
    <glyph glyph-name="longs_longs_b.liga" unicode="&#x17f;&#x17f;b" horiz-adv-x="1096" 
d="M980.5 377.5q36.5 -21.5 57.5 -61.5q22 -41 22 -102q0 -70 -30.5 -122t-82.5 -79q-50 -26 -106 -26q-74 0 -139 42l-74 -34h-2q-4 0 -5 4t3 6q32 23 44.5 43t12.5 55v529q-40 78 -111 78q-62 0 -94 -63q-31 -63 -31 -208v-358q0 -31 7 -45t27 -19q22 -5 64 -5q3 0 3 -6
t-3 -6l-64 1q-14 1 -64 1l-56 -1q-9 -1 -40 -1q-3 0 -3 6t3 6q30 0 44 5.5t20 19.5q5 15 5 44v225q0 26 -5 36.5t-19 14.5q-15 3 -49 3q-3 0 -3 7q0 6 3 6q41 0 56 9.5t15 35.5q0 117 32 192q-24 31 -54 47.5t-63 16.5q-67 0 -105 -61t-38 -174v-358q0 -31 6.5 -45t25.5 -19
q22 -5 62 -5q2 0 2 -6t-2 -6l-63 1q-13 1 -61 1l-56 -1q-9 -1 -40 -1q-3 0 -3 6t3 6q30 0 44 5.5t20 19.5q5 15 5 44v225q0 26 -5 36.5t-19 14.5q-14 3 -49 3q-3 0 -3 7q0 6 3 6q41 0 56 9.5t16 35.5q4 131 66 202t168 71q67 0 116 -27q53 62 145 62q78 0 121 -37
q11 20 11 39q0 3 6 3t6 -3v-413q39 41 77.5 62.5t83.5 21.5q44 0 80.5 -21.5zM961.5 51.5q32.5 45.5 32.5 128.5q0 89 -34.5 137.5t-93.5 48.5q-61 0 -127 -69v-216q55 -75 132 -75q58 0 90.5 45.5z" />
    <glyph glyph-name="longs_longs_h.liga" unicode="&#x17f;&#x17f;h" horiz-adv-x="1092" 
d="M1072 6q0 -6 -2 -6q-29 0 -38 1l-54 1l-54 -1q-9 -1 -37 -1q-3 0 -3 6t3 6q27 0 40 5.5t18 20.5t5 43v159q0 59 -22.5 87.5t-69.5 28.5q-32 0 -64 -16.5t-57 -45.5v-213q0 -30 5.5 -44t18.5 -19q14 -6 40 -6q2 0 2 -6t-2 -6q-29 0 -38 1l-54 1l-54 -1q-9 -1 -37 -1
q-4 0 -4 6t4 6q27 0 40 5.5t18 20.5t5 43v551q-40 78 -112 78q-62 0 -94 -63q-31 -63 -31 -208v-358q0 -31 7 -45t27 -19q22 -5 64 -5q3 0 3 -6t-3 -6l-65 1q-14 1 -63 1l-55 -1q-10 -1 -41 -1q-3 0 -3 6t3 6q30 0 44 5.5t20 19.5q5 15 5 44l1 225q0 26 -5 36.5t-19 14.5
q-15 3 -49 3q-3 0 -3 7q0 6 3 6q41 0 56 9.5t15 35.5q0 117 32 193q-24 30 -54 46.5t-63 16.5q-67 0 -105 -61t-38 -174v-358q0 -31 6.5 -45t25.5 -19q22 -5 62 -5q2 0 2 -6t-2 -6l-63 1q-13 1 -61 1l-56 -1q-9 -1 -40 -1q-3 0 -3 6t3 6q30 0 44 5.5t20 19.5q5 15 5 44v225
q0 26 -5 36.5t-19 14.5q-14 3 -49 3q-3 0 -3 7q0 6 3 6q41 0 56 9.5t16 35.5q4 131 66 202t168 71q66 0 115 -27q53 62 145 62q75 0 122 -36q10 17 10 38q0 3 6 3q5 0 5 -3v-417q39 44 76.5 64.5t77.5 20.5q55 0 85 -31t30 -90v-194q0 -30 5.5 -44t18.5 -19q14 -6 40 -6
q2 0 2 -6z" />
    <glyph glyph-name="longs_longs_i.liga" unicode="&#x17f;&#x17f;i" horiz-adv-x="829" 
d="M475 644q-35 -68 -35 -205v-358q0 -31 6 -45t24 -19q20 -5 58 -5q2 0 2 -6t-2 -6l-61 1q-13 1 -58 1l-57 -1q-9 -1 -39 -1q-4 0 -4 6t4 6q30 0 44 5.5t20 19.5q5 15 5 44v225q0 26 -5 36.5t-19 14.5q-15 3 -49 3q-3 0 -3 7q0 6 3 6q41 0 56 9.5t15 35.5q0 121 35 196
q-52 60 -114 60q-67 0 -105 -61t-38 -174v-358q0 -31 6.5 -45t25.5 -19q22 -5 62 -5q2 0 2 -6t-2 -6l-63 1q-13 1 -61 1l-56 -1q-9 -1 -40 -1q-3 0 -3 6t3 6q30 0 44 5.5t20 19.5q5 15 5 44v225q0 26 -5 36.5t-19 14.5q-14 3 -49 3q-3 0 -3 7q0 6 3 6q41 0 56 9.5t16 35.5
q4 131 66 202t168 71q60 0 114 -26q54 61 148 61q54 0 85.5 -15.5t31.5 -40.5q0 -15 -9.5 -23t-24.5 -8q-14 0 -23 6.5t-22 24.5q-16 22 -30 31.5t-37 9.5q-58 0 -92 -67zM788 6q0 -6 -3 -6q-28 0 -37 1l-54 1l-54 -1q-9 -1 -38 -1q-2 0 -2 6t2 6q27 0 40.5 5.5t18.5 20.5
t5 43v187q0 37 -7 52q-7 16 -25 16q-13 0 -46 -14h-1q-4 0 -6 5t2 7l130 61q1 1 3 1q3 0 5.5 -3t2.5 -6l-1 -40q-1 -22 -1 -78v-188q0 -30 5 -44t18 -19q14 -6 40 -6q3 0 3 -6z" />
    <glyph glyph-name="longs_longs_j.liga" unicode="&#x17f;&#x17f;j" horiz-adv-x="810" 
d="M475 644q-35 -68 -35 -205v-358q0 -31 6 -45t24 -19q20 -5 58 -5q2 0 2 -6t-2 -6l-61 1q-13 1 -58 1l-57 -1q-9 -1 -39 -1q-4 0 -4 6t4 6q30 0 44 5.5t20 19.5q5 15 5 44v225q0 26 -5 36.5t-19 14.5q-15 3 -49 3q-3 0 -3 7q0 6 3 6q41 0 56 9.5t15 35.5q0 121 35 196
q-52 60 -114 60q-67 0 -105 -61t-38 -174v-358q0 -31 6.5 -45t25.5 -19q22 -5 62 -5q2 0 2 -6t-2 -6l-63 1q-13 1 -61 1l-56 -1q-9 -1 -40 -1q-3 0 -3 6t3 6q30 0 44 5.5t20 19.5q5 15 5 44v225q0 26 -5 36.5t-19 14.5q-14 3 -49 3q-3 0 -3 7q0 6 3 6q41 0 56 9.5t16 35.5
q4 131 66 202t168 71q60 0 114 -26q54 61 148 61q54 0 85.5 -15.5t31.5 -40.5q0 -15 -9.5 -23t-24.5 -8q-14 0 -23 6.5t-22 24.5q-16 22 -30 31.5t-37 9.5q-58 0 -92 -67zM709 395q1 1 3 1q3 0 5.5 -3t2.5 -6l-1 -40q-1 -22 -1 -78v-317q0 -68 -13 -110t-43 -69
q-29 -28 -85 -49q-2 -1 -4.5 4.5t-0.5 6.5q49 21 69 64.5t20 129.5v339q0 37 -7 52q-7 16 -24 16q-13 0 -46 -14h-1q-5 0 -6.5 5t2.5 7z" />
    <glyph glyph-name="longs_longs_k.liga" unicode="&#x17f;&#x17f;k" horiz-adv-x="1078" 
d="M1072 6q0 -6 -2 -6q-28 0 -37 1l-54 1l-72 -1q-11 -1 -43 -1q-2 0 -2 6t2 6q50 0 50 19q0 8 -10 22l-122 167l-50 -40v-99q0 -30 5 -44t18 -19q14 -6 40 -6q3 0 3 -6t-3 -6q-28 0 -37 1l-54 1l-54 -1q-9 -1 -37 -1q-3 0 -3 6t3 6q27 0 40 5.5t18 20.5t5 43v551
q-40 78 -112 78q-62 0 -94 -63q-31 -63 -31 -208v-358q0 -31 7 -45t27 -19q22 -5 64 -5q3 0 3 -6t-3 -6l-64 1q-14 1 -64 1l-56 -1q-9 -1 -40 -1q-3 0 -3 6t3 6q30 0 44 5.5t20 19.5q5 15 5 44v225q0 26 -5 36.5t-19 14.5q-15 3 -49 3q-3 0 -3 7q0 6 3 6q41 0 56.5 9.5
t15.5 35.5q0 121 33 197q-49 59 -113 59q-67 0 -105 -61t-38 -174v-358q0 -31 6.5 -45t25.5 -19q22 -5 62 -5q2 0 2 -6t-2 -6l-63 1q-13 1 -61 1l-56 -1q-9 -1 -40 -1q-3 0 -3 6t3 6q30 0 44 5.5t20 19.5q5 15 5 44v225q0 26 -5 36.5t-19 14.5q-14 3 -49 3q-3 0 -3 7
q0 6 3 6q41 0 56 9.5t16 35.5q4 131 66 202t168 71q65 0 112 -25q51 60 143 60q80 0 121 -37q11 20 11 39q0 3 6 3q5 0 5 -3v-531l134 108q32 26 32 44q0 25 -57 25q-3 0 -3 6t3 6q32 0 42 -1l73 -1l67 1q8 1 35 1q3 0 3 -6t-3 -6q-39 0 -83 -18t-89 -54l-59 -46l128 -175
q50 -69 115 -69q2 0 2 -6z" />
    <glyph glyph-name="longs_longs_l.liga" unicode="&#x17f;&#x17f;l" horiz-adv-x="827" 
d="M802 6q0 -6 -3 -6q-28 0 -37 1l-55 1l-54 -1q-9 -1 -38 -1q-3 0 -3 6t3 6q27 0 40 5.5t18 20.5t5 43v546q-47 83 -119 83q-120 0 -120 -271v-358q0 -31 7 -45t27 -19q22 -5 64 -5q3 0 3 -6t-3 -6l-64 1q-14 1 -64 1l-56 -1q-9 -1 -40 -1q-3 0 -3 6t3 6q30 0 44 5.5
t20 19.5q5 15 5 44v225q0 26 -5 36.5t-19 14.5q-15 3 -49 3q-3 0 -3 7q0 6 3 6q41 0 56 9.5t15 35.5q5 124 35 195q-23 29 -52.5 45t-61.5 16q-67 0 -105 -61t-38 -174v-358q0 -31 6.5 -45t25.5 -19q22 -5 62 -5q2 0 2 -6t-2 -6l-63 1q-13 1 -61 1l-56 -1q-9 -1 -40 -1
q-3 0 -3 6t3 6q30 0 44 5.5t20 19.5q5 15 5 44v225q0 26 -5 36.5t-19 14.5q-14 3 -49 3q-3 0 -3 7q0 6 3 6q41 0 56 9.5t16 35.5q4 131 66 202t168 71q64 0 113 -25q50 60 139 60q81 0 126 -39q12 18 12 41q0 3 6 3t6 -3v-647q0 -30 5 -44t18 -19q14 -6 40 -6q3 0 3 -6z" />
    <glyph glyph-name="longs_longs_thorn.liga" unicode="&#x17f;&#x17f;&#xfe;" horiz-adv-x="1079" 
d="M966 376.5q35 -22.5 56 -63.5q21 -42 21 -98q0 -72 -32.5 -124.5t-85.5 -78.5q-49 -25 -98 -25q-33 0 -57 5.5t-47 19.5v-206q0 -31 7 -44.5t28 -18.5q20 -6 64 -6q2 0 2 -6t-2 -6q-43 0 -56 1l-72 1l-54 -1q-9 -1 -39 -1q-2 0 -2 6t2 6q27 0 40.5 5.5t18.5 19.5
q5 15 5 44v843q-40 61 -102 61t-94 -63q-31 -63 -31 -208v-358q0 -32 6.5 -45.5t26.5 -18.5q22 -5 65 -5q2 0 2 -6t-2 -6l-65 1q-14 1 -63 1l-56 -1q-10 -1 -41 -1q-3 0 -3 6t3 6q31 0 45 5t19 20t5 44v225q0 26 -5 36.5t-19 14.5q-14 3 -49 3q-3 0 -3 7q0 6 3 6
q41 0 56 9.5t16 35.5q3 120 35 195q-23 29 -52.5 45t-61.5 16q-67 0 -105 -61t-38 -174v-358q0 -31 6.5 -45t25.5 -19q22 -5 62 -5q2 0 2 -6t-2 -6l-63 1q-13 1 -61 1l-56 -1q-9 -1 -40 -1q-3 0 -3 6t3 6q30 0 44 5.5t20 19.5q5 15 5 44v225q0 26 -5 36.5t-19 14.5
q-13 3 -49 3q-3 0 -3 7q0 6 3 6q41 0 56 9.5t16 35.5q4 131 66 202t168 71q64 0 113 -25q51 60 141 60q72 0 116 -32q8 18 8 34q0 3 6 3t6 -3v-413q83 84 166 84q42 0 77 -22.5zM944.5 55q33.5 47 33.5 129t-36.5 129.5t-94.5 47.5q-34 0 -63 -16t-61 -48v-228
q28 -31 59.5 -46t74.5 -15q54 0 87.5 47z" />
    <glyph glyph-name=".notdef" horiz-adv-x="501" 
d="M94 -275v1000h317v-1000h-317zM168 626h65v-38h-66v-32h166v32h-66v38h66v32h-165v-32zM167 426h166v34h-66v69h-100v-103zM200 460v35h33v-35h-33zM167 365h66v-36h-66v-34h100v70h66v33h-166v-33zM301 273h-134v-34h166v99h-32v-65zM233 160h34v24h34v-48h-101v80h-33
v-113h166v113h-100v-56zM167 -70h166v113h-166v-113zM200 -37v48h101v-48h-101zM167 -126h70l-70 -47v-33h166v33h-101l69 47h32v34h-166v-34z" />
    <glyph glyph-name=".null" horiz-adv-x="0" 
 />
    <glyph glyph-name="nonmarkingreturn" horiz-adv-x="333" 
 />
    <glyph glyph-name="space" unicode=" " horiz-adv-x="234" 
 />
    <glyph glyph-name="exclam" unicode="!" horiz-adv-x="247" 
d="M92 627q20 2 32 2t32 -2q14 -3 13 -7q-15 -80 -23 -172t-17 -259q0 -3 -7 -3q-8 0 -8 3q-6 151 -13.5 250.5t-22.5 180.5q-1 4 14 7zM87 1q-12 12 -12 32q0 19 12 30t32 11q21 0 32.5 -11t11.5 -30q0 -20 -11.5 -32t-32.5 -12q-20 0 -32 12z" />
    <glyph glyph-name="quotedbl" unicode="&#x22;" horiz-adv-x="283" 
d="M43 608q-1 11 24 21.5t44 10.5q9 0 8 -4l-52 -270q-2 -2 -7 -3t-5 2zM185 608q-1 11 24 21.5t44 10.5q9 0 8 -4l-52 -270q-2 -2 -7 -3t-5 2z" />
    <glyph glyph-name="numbersign" unicode="#" horiz-adv-x="526" 
d="M463 314q3 0 4 -6q1 -4 1 -13t-1 -13q-1 -7 -4 -7h-73l-29 -159h67q3 0 4 -6q1 -5 1 -14t-1 -13q-1 -7 -4 -7h-74l-27 -155q0 -3 -9 -3q-7 0 -18 3q-5 1 -7.5 2t-1.5 2l27 151h-151l-27 -155q0 -3 -9 -3q-7 0 -18 3q-5 1 -7.5 2t-1.5 2l27 151h-68q-2 0 -3 7q-2 8 -2 14
q0 9 1 13q2 6 3 6h76l28 159h-68q-2 0 -3 7q-2 8 -2 14q0 5 2 13l2 5h76l30 168q0 5 18 1t17 -8l-28 -161h150l30 168q0 2 7 2q9 0 19 -3t9 -6l-28 -161h66zM325 116l28 159h-150l-29 -159h151z" />
    <glyph glyph-name="dollar" unicode="$" horiz-adv-x="411" 
d="M327.5 32.5q-38.5 -36.5 -103.5 -43.5v-91q0 -7 -10 -7q-11 0 -11 7v90h-5q-71 0 -120 35q-8 5 -8 19l-11 99q-1 4 5 5t7 -3q13 -53 50 -92t82 -46v211l-14 8q-44 23 -66 39t-37 39q-16 23 -16 57q0 50 37 82.5t96 37.5v82q0 8 11 8q4 0 7 -2t3 -6v-81q45 0 96 -23
q10 -6 12 -8.5t3 -8.5l7 -87q0 -4 -5.5 -5t-6.5 3q-7 37 -37 70.5t-69 41.5v-193l17 -9q46 -24 69 -40.5t39 -39.5q17 -26 17 -59q0 -53 -38.5 -89.5zM142.5 328q19.5 -24 60.5 -47v184q-38 0 -59 -21.5t-21 -57.5q0 -34 19.5 -58zM224 4q37 1 61 22.5t24 62.5
q0 36 -21 62.5t-64 52.5v-200z" />
    <glyph glyph-name="percent" unicode="%" horiz-adv-x="574" 
d="M62 340.5q-35 37.5 -35 92.5q0 54 35 90.5t88 36.5q51 0 85.5 -37.5t34.5 -92.5q0 -54 -34 -90.5t-86 -36.5q-53 0 -88 37.5zM105 -6q-5 0 -14.5 5t-8.5 8l371 544l2 1q5 0 14 -6t8 -9l-371 -543h-1zM200.5 340q11.5 26 11.5 83q0 126 -68 126q-32 0 -45.5 -28.5
t-13.5 -84.5q0 -122 72 -122q32 0 43.5 26zM339 32.5q-35 37.5 -35 92.5q0 54 35 91t88 37q51 0 85.5 -38t34.5 -92t-34.5 -91t-85.5 -37q-53 0 -88 37.5zM477.5 33q11.5 26 11.5 83q0 125 -68 125q-32 0 -45 -28t-13 -84q0 -122 71 -122q32 0 43.5 26z" />
    <glyph glyph-name="ampersand" unicode="&#x26;" horiz-adv-x="697" 
d="M700.5 5.5q-0.5 -5.5 -3.5 -5.5h-108q-45 0 -137 71q-81 -83 -202 -83q-60 0 -102 20.5t-63 55.5t-21 73q0 54 32.5 96t105.5 95q-19 28 -29 50q-29 66 -29 109t21 79.5t59 58.5q38 21 86 21q52 0 84.5 -24.5t32.5 -74.5q0 -69 -67 -124q-29 -25 -77 -56q-13 -8 -21 -14
q68 -110 213 -223q35 62 35 135q0 38 -15.5 55t-55.5 17q-3 0 -3.5 6t3.5 6l209 1q4 0 4 -6t-4 -6q-61 0 -75 -24q-5 -8 -14 -35q-28 -98 -69 -160q59 -42 113.5 -70.5t93.5 -36.5q4 -1 3.5 -6.5zM254 365q59 44 86.5 82t27.5 84q0 44 -23.5 69t-63.5 25q-79 0 -79 -95
q0 -79 52 -165zM439 81l-18 15q-61 48 -116.5 105.5t-94.5 113.5q-41 -32 -61.5 -67t-20.5 -76q0 -42 21.5 -77.5t60.5 -55.5q38 -21 85 -21q84 0 144 63z" />
    <glyph glyph-name="quotesingle" unicode="'" horiz-adv-x="140" 
d="M43 608q-1 11 24 21.5t44 10.5q9 0 8 -4l-52 -270q-2 -2 -7 -3t-5 2z" />
    <glyph glyph-name="parenleft" unicode="(" horiz-adv-x="309" 
d="M120.5 559.5q55.5 112.5 153.5 165.5q2 1 4 -1.5t0 -4.5q-73 -69 -108 -172t-35 -243t35 -243t108 -172q2 -1 0 -4t-4 -2q-98 54 -153.5 166t-55.5 255t55.5 255.5z" />
    <glyph glyph-name="parenright" unicode=")" horiz-adv-x="309" 
d="M188.5 48.5q-55.5 -112.5 -153.5 -165.5q-2 -1 -4 1.5t0 4.5q73 69 108 172t35 243t-35 243t-108 172q-2 1 0 4t4 2q98 -54 153.5 -166t55.5 -255t-55.5 -255.5z" />
    <glyph glyph-name="asterisk" unicode="*" horiz-adv-x="448" 
d="M228 657q0 9 19 18t40 12q20 3 18 -2l-69 -156q-1 -3 -5 -3q-5 0 -5 3zM82 552q-12 5 -12 42q0 18 3 31t6 10l128 -115q3 -1 1 -5.5t-4 -3.5zM251 503q-2 0 -3.5 4.5t0.5 5.5l123 38q8 3 22.5 -12t25.5 -35q9 -18 3 -18zM137 383q-3 -5 -14 -5q-12 0 -28.5 5.5
t-28.5 12.5q-12 8 -8 9l148 86l2 1q2 0 4.5 -3t1.5 -4zM233 481q-1 2 3 5.5t5 1.5l75 -106q5 -6 -5.5 -25t-25.5 -34t-16 -9z" />
    <glyph glyph-name="plus" unicode="+" horiz-adv-x="398" 
d="M364 209q3 0 4 -6q1 -4 1 -13t-1 -13q-1 -7 -4 -7h-145v-145q0 -2 -7 -3q-10 -2 -16 -2q-17 0 -17 3v147h-145q-2 0 -3 7q-2 8 -2 14q0 5 2 13l2 5h146v145q0 3 7 4q4 1 13 1t14 -1q6 -1 6 -4v-145h145z" />
    <glyph glyph-name="comma" unicode="," horiz-adv-x="222" 
d="M149 48.5q17 -22.5 17 -64.5q0 -39 -17.5 -74t-53.5 -69q-1 -1 -3 -1q-3 0 -5 3t0 5q49 49 49 118q0 28 -10 41q-9 -15 -31 -15q-18 0 -28.5 11t-10.5 28q0 40 46 40q30 0 47 -22.5z" />
    <glyph glyph-name="hyphen" unicode="-" horiz-adv-x="323" 
d="M32 165q-1 -1 -3 7q-2 10 -2 16q0 19 3 19l261 47q1 1 2 -0.5t2 -4.5q1 -5 1 -15q0 -20 -5 -22z" />
    <glyph glyph-name="period" unicode="." horiz-adv-x="197" 
d="M67 1q-12 12 -12 32q0 19 12 30t32 11q21 0 32.5 -11t11.5 -30q0 -20 -11.5 -32t-32.5 -12q-20 0 -32 12z" />
    <glyph glyph-name="slash" unicode="/" horiz-adv-x="341" 
d="M64 -163q-1 -4 -20 1.5t-18 9.5l252 882q2 4 20.5 -1.5t16.5 -10.5z" />
    <glyph glyph-name="zero" unicode="0" horiz-adv-x="477" 
d="M134.5 14q-46.5 27 -72.5 75q-27 47 -27 107q0 59 26 105t74 72q47 26 106 26q58 0 104 -26.5t72 -73.5q25 -46 25 -106q0 -59 -26 -106t-72 -73q-46 -27 -104 -27q-59 0 -105.5 27zM341 48.5q31 47.5 31 132.5q0 97 -39.5 150.5t-102.5 53.5q-59 0 -92.5 -49.5
t-33.5 -131.5q0 -90 40.5 -146.5t106.5 -56.5q59 0 90 47.5z" />
    <glyph glyph-name="one" unicode="1" horiz-adv-x="332" 
d="M138 305q0 31 -6 45t-23 19q-20 5 -57 5q-3 0 -3 6t3 6q35 0 46 -1l68 -1l67 1q11 1 47 1q3 0 3 -6t-3 -6q-36 0 -54 -5q-18 -6 -25 -20t-7 -44v-224q0 -31 6 -45t24 -19t56 -5q3 0 3 -6t-3 -6q-35 0 -46 1l-68 1l-67 -1q-11 -1 -47 -1q-3 0 -3 6t3 6q37 0 55 6
q17 5 24 19t7 44v224z" />
    <glyph glyph-name="two" unicode="2" horiz-adv-x="402" 
d="M175.5 135q46.5 44 66.5 79q21 36 21 72q0 40 -24.5 65.5t-63.5 25.5q-80 0 -114 -124q0 -1 -4 -1q-9 0 -8 4l39 152q0 2 4 2t6 -1q2 -2 1 -3q-1 -3 -1 -11q0 -16 15 -16q10 0 30 7q39 13 73 13q51 0 80.5 -27t29.5 -72q0 -34 -21.5 -69t-66.5 -75q-38 -35 -122 -100
q-4 -3 -2.5 -5t6.5 -2q110 0 153 3t62 16t26 46q0 2 5 2q7 0 7 -3l-15 -102q0 -4 -2.5 -7.5t-6.5 -3.5h-305q-5 0 -8 5.5t1 9.5q92 76 138.5 120z" />
    <glyph glyph-name="three" unicode="3" horiz-adv-x="389" 
d="M313.5 85q35.5 -39 35.5 -94q0 -50 -32.5 -101.5t-96.5 -94.5q-68 -45 -161 -70q-4 -1 -6.5 4.5t1.5 6.5q113 35 168 101t55 143q0 57 -29 92.5t-84 35.5q-28 0 -48 -6q-3 -1 -5 5t1 7q78 20 110.5 55.5t32.5 98.5q0 52 -22 80.5t-65 28.5q-88 0 -123 -119q-1 -1 -4 -1
q-9 0 -8 4l37 146l4 2q4 0 6 -1q3 -2 2 -3l-2 -11q0 -17 17 -17q10 0 30 7q40 15 74 15q55 0 86.5 -32.5t31.5 -81.5t-28.5 -91.5t-76.5 -62.5q64 -7 99.5 -46z" />
    <glyph glyph-name="four" unicode="4" horiz-adv-x="451" 
d="M418 25q0 -11 -1 -16q-2 -8 -4 -8q-75 4 -84 4v-158q0 -11 -8 -14l-42 -21l-6 -2q-3 0 -3 8v188q-84 2 -241 2q-5 0 -8 4t1 8l292 376q2 2 6 2q3 0 6 -1.5t3 -4.5v-350l85 2q4 0 4 -19zM249 40h21v257l-197 -252q-3 -3 -1.5 -5t6.5 -2q45 0 171 2z" />
    <glyph glyph-name="five" unicode="5" horiz-adv-x="409" 
d="M119 325q-13 0 -15 -14l-21 -115q135 -1 201.5 -49.5t66.5 -137.5q0 -57 -28.5 -103t-90.5 -90q-65 -46 -164 -91h-1q-4 0 -6.5 4.5t1.5 6.5q119 59 171 121t52 135q0 84 -56 129.5t-161 45.5q-5 0 -8 3.5t-2 8.5l32 178q1 7 3 8.5t10 2.5l169 21q43 6 56 13q13 6 17 21
q1 3 6.5 2.5t4.5 -4.5l-20 -74q-4 -11 -9.5 -14.5t-18.5 -3.5z" />
    <glyph glyph-name="six" unicode="6" horiz-adv-x="465" 
d="M396.5 248.5q33.5 -34.5 33.5 -89.5q0 -47 -27 -86t-73 -63q-48 -23 -100 -23q-85 0 -134 58.5t-49 162.5q0 94 42.5 183.5t122.5 160.5q81 72 188 109q4 1 6 -4t-1 -7q-92 -42 -159 -111t-101 -152q-34 -81 -34 -162q0 -63 18 -112.5t51 -78t78 -28.5q49 0 78.5 34
t29.5 92q0 56 -26 89.5t-75 33.5q-26 0 -49 -11t-51 -36q-1 -1 -3 -1q-3 0 -5.5 3t-1.5 5q54 68 144 68q64 0 97.5 -34.5z" />
    <glyph glyph-name="seven" unicode="7" horiz-adv-x="429" 
d="M163 -218q-3 -8 -7 -12.5t-14 -11.5l-51 -33h-1q-2 0 -4.5 2.5t-1.5 4.5l267 596q3 7 -5 7q-154 0 -205 -4q-39 -3 -59 -9t-30 -18.5t-17 -36.5q-2 -2 -5 -2t-5.5 1.5t-1.5 3.5l35 143q1 2 7 1.5t5 -2.5q-1 -3 -1 -10q0 -10 10 -13q9 -3 38 -3h265q4 0 7.5 -4.5t1.5 -8.5
z" />
    <glyph glyph-name="eight" unicode="8" horiz-adv-x="489" 
d="M382.5 292q29.5 -22 49.5 -53q21 -33 21 -77q0 -48 -28 -88t-77 -64q-51 -23 -106 -23q-57 0 -101 22.5t-69 60.5q-25 37 -25 80q0 57 38.5 109.5t98.5 83.5q-41 25 -61 51t-20 60q0 37 23 65t61 42q35 13 72 13q39 0 70 -15t48 -40q16 -23 16 -50q0 -32 -24.5 -64.5
t-70.5 -60.5q55 -30 84.5 -52zM180 537.5q-22 -20.5 -22 -53.5q0 -40 29 -68t100 -66q25 25 37 49.5t12 53.5q0 47 -27.5 76t-70.5 29q-36 0 -58 -20.5zM360.5 39.5q35.5 34.5 35.5 90.5q0 43 -20.5 76.5t-54.5 57.5q-23 15 -85 49l-38 21q-41 -26 -63.5 -67t-22.5 -91
q0 -45 20 -84t56 -63t82 -24q55 0 90.5 34.5z" />
    <glyph glyph-name="nine" unicode="9" horiz-adv-x="465" 
d="M72 148q-37 39 -37 96q0 44 23.5 79t66.5 56q42 20 92 20q61 0 106.5 -29t70 -81.5t24.5 -122.5q0 -92 -42.5 -181t-121.5 -157q-79 -70 -189 -103q-3 -1 -5.5 4t1.5 7q91 37 158 104t102 150q33 80 33 156q0 57 -16 110t-49 88q-35 36 -88 36q-48 0 -75 -31t-27 -86
q0 -56 29 -91t81 -35q26 0 46 8t45 29q1 1 3 1q3 0 6 -3t2 -5q-49 -58 -134 -58q-68 0 -105 39z" />
    <glyph glyph-name="colon" unicode=":" horiz-adv-x="197" 
d="M67 282q-12 12 -12 32q0 19 12 30t32 11q21 0 32.5 -11t11.5 -30q0 -20 -11.5 -32t-32.5 -12q-20 0 -32 12zM67 1q-12 12 -12 32q0 19 12 30t32 11q21 0 32.5 -11t11.5 -30q0 -20 -11.5 -32t-32.5 -12q-20 0 -32 12z" />
    <glyph glyph-name="semicolon" unicode=";" horiz-adv-x="224" 
d="M69 282q-12 12 -12 32q0 19 12 30t32 11q21 0 32.5 -11t11.5 -30q0 -20 -11.5 -32t-32.5 -12q-20 0 -32 12zM151 48.5q17 -22.5 17 -64.5q0 -39 -17.5 -74t-53.5 -69q-1 -1 -3 -1q-3 0 -5 3t0 5q49 49 49 118q0 28 -10 41q-9 -15 -31 -15q-18 0 -28.5 11t-10.5 28
q0 40 46 40q30 0 47 -22.5z" />
    <glyph glyph-name="less" unicode="&#x3c;" horiz-adv-x="407" 
d="M370 66q7 -3 7 -24q0 -20 -7 -17l-334 148q-5 3 -5 17q0 15 5 17l334 147q3 2 5 -3q2 -6 2 -13q0 -20 -7 -24l-291 -124z" />
    <glyph glyph-name="equal" unicode="=" horiz-adv-x="468" 
d="M34 240q-2 0 -3 7q-2 8 -2 14q0 5 2 13l2 5h401q3 0 4 -6q1 -4 1 -13t-1 -13q-1 -7 -4 -7h-400zM34 100q-2 0 -3 7q-2 8 -2 14q0 5 2 13l2 5h401q3 0 4 -6q1 -4 1 -13t-1 -13q-1 -7 -4 -7h-400z" />
    <glyph glyph-name="greater" unicode="&#x3e;" horiz-adv-x="407" 
d="M371 206q5 -2 5 -17q0 -14 -5 -17l-334 -147q-3 -2 -5 4t-2 12q0 9 2 16t5 8l291 124l-291 124q-3 1 -5 8t-2 16q0 6 2 14q2 5 5 3z" />
    <glyph glyph-name="question" unicode="?" horiz-adv-x="329" 
d="M127.5 600.5q-9.5 -11.5 -11.5 -35.5q-4 -22 -12.5 -33t-26.5 -11q-15 0 -24.5 10.5t-9.5 23.5q0 29 35 49.5t84 20.5q61 0 98.5 -32t37.5 -88q0 -28 -10 -51.5t-25 -39.5q-13 -15 -42 -42q-35 -34 -49 -61.5t-14 -62.5q0 -22 6 -55q1 -3 -5 -4t-7 2q-11 25 -18.5 60.5
t-7.5 58.5q0 29 11.5 50t37.5 47q30 30 42 52.5t12 57.5q0 43 -19.5 69t-50.5 26q-22 0 -31.5 -11.5zM115 1q-12 12 -12 32q0 19 12 30t32 11q21 0 32.5 -11t11.5 -30q0 -20 -11.5 -32t-32.5 -12q-20 0 -32 12z" />
    <glyph glyph-name="at" unicode="@" horiz-adv-x="719" 
d="M412 111q0 15 2 27l10 51q-36 -64 -78 -102t-80 -38q-24 0 -37.5 15t-13.5 45q0 15 1 20q8 53 41 106t78 87q44 33 83 33q32 0 47 -21q15 14 18 28q2 2 8 2q12 0 10 -3l-41 -224q-4 -20 -4 -31q0 -35 37 -35q28 0 55 20.5t45 57.5q18 38 18 87q0 64 -32 117.5t-88 85.5
q-55 31 -125 31q-74 0 -131 -36.5t-88 -99.5q-30 -61 -30 -135q0 -78 34.5 -138.5t97.5 -93.5t144 -33q48 0 84.5 10t81.5 36h1q2 0 4.5 -3.5t0.5 -4.5q-87 -69 -204 -69q-81 0 -146 32.5t-103 93.5q-38 62 -38 144q0 89 45 162.5t121 116.5q74 41 158 41q73 0 130.5 -30.5
t88.5 -83.5q31 -52 31 -114q0 -56 -24.5 -105t-66.5 -79t-90 -30q-55 0 -55 60zM349.5 116q30.5 27 55.5 70q25 41 34 84q1 3 1 15q0 22 -11 34.5t-31 12.5q-25 0 -52.5 -23.5t-48.5 -62.5q-21 -38 -29 -85q-3 -18 -3 -32q0 -40 28 -40q26 0 56.5 27z" />
    <glyph glyph-name="A" unicode="A" 
d="M703 6q0 -6 -4 -6l-59 2l-58 2q-10 0 -56 -2l-49 -2q-4 0 -4 6t4 6q39 0 54 7q17 8 17 24t-13 43l-89 189h-238l-63 -148q-14 -36 -14 -55q0 -60 98 -60q5 0 5 -6t-5 -6l-52 2q-50 2 -66 2q-14 0 -60 -2q-40 -2 -50 -2q-5 0 -5 6t5 6q28 0 47.5 10.5t37.5 37.5
q17 26 38 76l211 498q2 3 7 3t6 -3l236 -497q35 -75 58 -99q24 -26 57 -26q4 0 4 -6zM216 295h221l-117 247z" />
    <glyph glyph-name="B" unicode="B" horiz-adv-x="558" 
d="M459.5 299.5q48.5 -46.5 48.5 -115.5q0 -53 -26 -96t-71 -67q-46 -25 -102 -25q-33 0 -72 3q-57 3 -75 3l-68 -1q-12 -1 -51 -1q-2 0 -2 6t2 6q37 0 55 6q18 5 25 19t7 44v463q0 30 -6.5 44t-23.5 20q-20 5 -55 5q-3 0 -3 6t3 6l49 -1l68 -2q15 0 60 3q31 3 58 3
q82 0 125 -35.5t43 -96.5q0 -48 -30.5 -85.5t-85.5 -58.5q79 -6 127.5 -52.5zM219.5 608.5q-12.5 -4.5 -18.5 -18.5q-6 -15 -6 -48v-190l45 -1q71 0 107 36.5t36 100.5q0 58 -31.5 91.5t-92.5 33.5q-27 0 -39.5 -4.5zM402 51q36 37 36 108q0 77 -45 123.5t-122 47.5
q-28 1 -76 -2v-247q0 -27 8 -40.5t29 -19.5q20 -7 62 -7q72 0 108 37z" />
    <glyph glyph-name="C" unicode="C" horiz-adv-x="686" 
d="M517 627q43 -9 86 -31q6 -3 7.5 -5.5t2 -8t1.5 -8.5l12 -119q0 -3 -5.5 -3.5t-6.5 2.5q-47 167 -206 167q-84 0 -148 -37t-99 -105q-35 -70 -35 -160q0 -86 38.5 -159t104.5 -115q65 -42 142 -42q81 0 132.5 40t78.5 122q0 2 5 2q7 0 7 -3l-10 -110q-1 -11 -2.5 -14.5
t-8.5 -7.5q-52 -25 -97.5 -35t-104.5 -10q-105 0 -187.5 41.5t-128.5 116.5q-46 74 -46 172q0 93 47 166t130 113q81 40 185 40q63 0 106 -9z" />
    <glyph glyph-name="D" unicode="D" horiz-adv-x="691" 
d="M236 -1q-57 3 -83 3l-68 -1q-12 -1 -50 -1q-2 0 -2 6t2 6q36 0 56 5q17 5 23.5 19.5t6.5 44.5v463q0 31 -6 44.5t-23 19.5q-20 5 -56 5q-2 0 -2 6t2 6l50 -1q56 -2 67 -2q38 0 75 3l61 2q103 0 183.5 -39.5t125.5 -109.5q44 -70 44 -155q0 -95 -45 -170t-124 -116
t-170 -41q-29 0 -67 3zM436 45q62 34 96 99q34 64 34 157q0 87 -33 158t-94 112q-62 41 -141 41q-45 0 -67.5 -5.5t-33.5 -19.5q-11 -16 -11 -45v-450q0 -31 9 -47.5t32 -24.5q23 -9 66 -9q81 0 143 34z" />
    <glyph glyph-name="E" unicode="E" horiz-adv-x="537" 
d="M479 151q8 0 8 -4q-9 -63 -9 -132q0 -8 -3.5 -11.5t-12.5 -3.5h-419q-2 0 -2 6t2 6q36 0 56 5q17 5 23.5 19.5t6.5 44.5v463q0 30 -6.5 44t-23.5 20q-20 5 -56 5q-2 0 -2 6t2 6h402q9 0 9 -9l2 -123q0 -3 -5 -3.5t-6 2.5q-3 53 -32 82.5t-77 29.5h-61q-33 0 -51 -5
q-16 -6 -23 -19.5t-7 -40.5v-203h122q48 0 68.5 16t20.5 54q0 2 6 2t6 -2l-1 -81q0 -34 1 -44l1 -48q0 -2 -6 -2t-6 2q0 44 -21.5 63t-71.5 19h-119v-230q0 -28 6 -41t22 -18q18 -5 50 -5h80q48 0 80 33.5t43 94.5q0 2 4 2z" />
    <glyph glyph-name="F" unicode="F" horiz-adv-x="509" 
d="M456 493q0 -3 -5 -3.5t-6 2.5q-3 53 -32 82.5t-77 29.5h-61q-34 0 -51 -5t-23 -18q-7 -13 -7 -38v-219h101q53 0 75.5 16.5t22.5 53.5q0 2 6 2t6 -2l-1 -81q0 -34 1 -44l1 -48q0 -2 -6 -2t-6 2q0 44 -23.5 63t-78.5 19h-98v-218q0 -33 8.5 -47t33.5 -20q26 -6 79 -6
q3 0 3 -6t-3 -6q-49 0 -64 1l-90 1l-68 -1q-12 -1 -51 -1q-2 0 -2 6t2 6q36 0 56 5q18 5 24.5 19t6.5 45v463q0 30 -6.5 44t-23.5 20q-20 5 -56 5q-2 0 -2 6t2 6h402q9 0 9 -9z" />
    <glyph glyph-name="G" unicode="G" horiz-adv-x="714" 
d="M218 31.5q-82 43.5 -126 119.5q-43 74 -43 165q0 96 48.5 168.5t135.5 112.5q86 39 191 39q54 0 100.5 -10t77.5 -29q8 -4 9 -6.5t2 -15.5l12 -118q0 -3 -5.5 -4t-6.5 3q-47 164 -208 164q-79 0 -142.5 -35.5t-99.5 -100.5q-37 -65 -37 -153q0 -87 36 -161.5t104 -119.5
q71 -47 169 -47q71 0 100 27.5t29 94.5q0 52 -6 73q-8 20 -29 27t-79 7q-6 0 -6 8q0 3 1.5 5.5t3.5 2.5q87 -5 126 -5q46 0 99 3q2 0 3.5 -2.5t1.5 -4.5q0 -7 -5 -7q-25 1 -34.5 -6.5t-12.5 -29.5t-3 -81q0 -47 4 -64l3 -24q0 -6 -2 -8t-9 -4q-124 -27 -212 -27
q-108 0 -190 43.5z" />
    <glyph glyph-name="H" unicode="H" horiz-adv-x="759" 
d="M725 6q0 -6 -3 -6q-37 0 -49 1l-69 1l-74 -1q-11 -1 -47 -1q-3 0 -3 6t3 6q37 0 57 5q18 5 24.5 19t6.5 45v234h-384v-234q0 -31 6.5 -45t24.5 -19q20 -5 57 -5q2 0 2 -6t-2 -6q-37 0 -49 1l-72 1l-69 -1q-12 -1 -50 -1q-2 0 -2 6t2 6q35 0 57 5q18 5 24.5 19t6.5 45v463
q0 30 -6.5 44t-24.5 20q-20 5 -56 5q-2 0 -2 6t2 6l51 -1q56 -2 67 -2q15 0 73 2l48 1q2 0 2 -6t-2 -6q-38 0 -56 -6t-25 -20t-7 -45v-206h384v206q0 30 -6.5 44.5t-24.5 20.5t-57 6q-3 0 -3 6t3 6l47 -1q58 -2 74 -2q13 0 69 2l49 1q3 0 3 -6t-3 -6q-36 0 -56 -5
q-18 -6 -24.5 -20t-6.5 -44v-463q0 -31 6.5 -45t24.5 -19q20 -5 56 -5q3 0 3 -6z" />
    <glyph glyph-name="I" unicode="I" horiz-adv-x="332" 
d="M199 81q0 -31 6 -45t24 -19t55 -5q3 0 3 -6t-3 -6q-36 0 -48 1l-71 1l-69 -1q-12 -1 -49 -1q-3 0 -3 6t3 6q36 0 56 5q17 5 23.5 19.5t6.5 44.5v463q0 30 -6.5 44t-23.5 20q-20 5 -56 5q-3 0 -3 6t3 6l49 -1q56 -2 69 -2q16 0 72 2l47 1q3 0 3 -6t-3 -6q-38 0 -54 -6
q-18 -6 -24.5 -20.5t-6.5 -44.5v-461z" />
    <glyph glyph-name="J" unicode="J" horiz-adv-x="322" 
d="M280 625q2 0 2 -6t-2 -6q-33 0 -48 -6t-20 -20q-6 -15 -6 -45v-570q0 -100 -46.5 -158t-132.5 -58q-34 0 -53.5 11.5t-19.5 31.5q0 15 9 24t25 9t25 -6.5t20 -23.5q9 -15 16.5 -20.5t19.5 -5.5q36 0 54 42q17 42 17 133v593q0 31 -7 44.5t-27 19.5q-23 5 -64 5q-2 0 -2 6
t2 6l58 -1l72 -2q14 0 64 2z" />
    <glyph glyph-name="K" unicode="K" horiz-adv-x="650" 
d="M644 6q0 -6 -3 -6h-112h-28q-21 -1 -58 51q-45 61 -71 94l-153 193l-33 -32v-225q0 -31 6 -45t24 -19t55 -5q3 0 3 -6t-3 -6q-36 0 -48 1l-70 1l-68 -1q-12 -1 -50 -1q-2 0 -2 6t2 6q36 0 56 5q17 5 23.5 19.5t6.5 44.5v463q0 31 -6 44.5t-23 19.5q-20 5 -56 5q-2 0 -2 6
t2 6l50 -1q56 -2 67 -2q15 0 71 2l47 1q3 0 3 -6t-3 -6q-38 0 -54 -6q-18 -6 -24.5 -20.5t-6.5 -44.5v-211l214 213q33 33 33 49q0 20 -59 20q-2 0 -2 6t2 6l43 -1q54 -2 73 -2q21 0 69 2l37 1q3 0 3 -6t-3 -6q-44 0 -89.5 -19t-83.5 -56l-158 -155l144 -184
q77 -99 112 -134q25 -26 41.5 -37t32 -13.5t46.5 -2.5q3 0 3 -6z" />
    <glyph glyph-name="L" unicode="L" horiz-adv-x="533" 
d="M185 85q0 -29 6 -41.5t22 -17.5q18 -5 52 -5h109q56 0 90.5 34.5t45.5 97.5q0 3 5.5 2.5t5.5 -3.5q-9 -82 -9 -137q0 -8 -3 -11.5t-12 -3.5h-462q-2 0 -2 6t2 6q36 0 56 5q17 5 23 19t6 45v463q0 31 -6 44.5t-23 19.5q-20 5 -56 5q-2 0 -2 6t2 6l49 -1l68 -2q14 0 70 2
l48 1q3 0 3 -6t-3 -6q-36 0 -54 -5q-18 -6 -24.5 -20.5t-6.5 -44.5v-458z" />
    <glyph glyph-name="M" unicode="M" horiz-adv-x="836" 
d="M815 6q0 -6 -3 -6q-37 0 -49 1l-69 1l-64 -1q-11 -1 -45 -1q-2 0 -2 6t2 6q34 0 50.5 5.5t22.5 19.5q5 14 3 44l-18 455l-228 -529q-1 -4 -8 -4q-5 0 -9 4l-246 523l-9 -421q-1 -53 18 -75t67 -22q2 0 2 -6t-2 -6q-33 0 -43 1l-54 1l-52 -1q-9 -1 -40 -1q-2 0 -2 6t2 6
q42 0 60.5 22.5t19.5 74.5l9 464q-30 40 -82 40q-2 0 -2 6t2 6l37 -1q7 -1 28 -1q22 0 31 1q8 1 19 1q13 0 22 -9q8 -12 24 -43l223 -470l218 497q10 25 30 25q8 0 15 -1q6 -1 25 -1l47 1q7 1 33 1q3 0 3 -6t-3 -6q-51 0 -72 -15t-20 -54l20 -463q1 -31 7.5 -45t23.5 -19
q18 -5 55 -5q3 0 3 -6z" />
    <glyph glyph-name="N" unicode="N" horiz-adv-x="727" 
d="M704 625q3 0 3 -6t-3 -6q-42 0 -61 -23t-19 -75v-527q0 -2 -5 -3t-7 1l-460 557l-9 10v-444q0 -52 18.5 -74.5t59.5 -22.5q3 0 3 -6t-3 -6q-29 0 -38 1l-50 1l-51 -1q-9 -1 -41 -1q-2 0 -2 6t2 6q43 0 61 22.5t18 74.5v468q-39 36 -79 36q-3 0 -3 6t3 6l37 -1q8 -1 33 -1
q27 0 36 1t22 1q8 0 11 -3t12 -16q12 -18 24 -33l385 -473v415q0 52 -17.5 75t-58.5 23q-2 0 -2 6t2 6l39 -1q40 -2 49 -2l50 2z" />
    <glyph glyph-name="O" unicode="O" horiz-adv-x="766" 
d="M201 31q-73 43 -112 119q-40 73 -40 162q0 100 50.5 174.5t135.5 112.5q80 37 166 37q93 0 165.5 -43.5t112.5 -118.5q38 -74 38 -155q0 -90 -47.5 -166t-128.5 -121q-82 -44 -175 -44q-92 0 -165 43zM524.5 42.5q54.5 33.5 85.5 96.5t31 152q0 93 -35 166.5t-98 114.5
q-65 41 -149 41q-110 0 -172 -71t-62 -195q0 -94 35 -171.5t98 -121.5q63 -45 143 -45q69 0 123.5 33.5z" />
    <glyph glyph-name="P" unicode="P" horiz-adv-x="543" 
d="M192 85q0 -33 8.5 -47t33.5 -20q24 -6 77 -6q3 0 3 -6t-3 -6q-49 0 -64 1l-87 1l-67 -1q-13 -1 -51 -1q-2 0 -2 6t2 6q36 0 56 5q17 5 23 19t6 45v463q0 31 -6 44.5t-23 19.5q-20 5 -56 5q-2 0 -2 6t2 6l50 -1q56 -2 67 -2q25 0 56 3l38 2q17 1 45 1q95 0 149 -42
t54 -124q0 -64 -31 -109.5t-84 -68.5q-50 -22 -105 -22q-27 0 -49 5q-3 0 -3 5q0 3 1.5 6t3.5 2q15 -4 36 -4q69 0 113 44.5t44 122.5t-42.5 124t-110.5 46q-37 0 -52 -4q-16 -4 -23 -19t-7 -48v-457z" />
    <glyph glyph-name="Q" unicode="Q" horiz-adv-x="766" 
d="M746 -161q2 0 3.5 -4.5t-0.5 -5.5q-51 -12 -85 -12q-70 0 -146.5 46t-131.5 126q-5 -1 -20 -1q-92 0 -165 43t-112 119q-40 73 -40 162q0 100 50.5 174.5t135.5 112.5q80 37 166 37q93 0 165.5 -43.5t112.5 -118.5q38 -74 38 -155q0 -74 -32 -139.5t-90 -111.5
q-57 -46 -129 -66q42 -72 111 -119t132 -47q23 0 36 3h1zM160 175.5q35 -77.5 98 -121.5q63 -45 143 -45q69 0 123.5 33.5t85.5 96.5t31 152q0 93 -35 166.5t-98 114.5q-65 41 -149 41q-110 0 -172 -71t-62 -195q0 -94 35 -171.5z" />
    <glyph glyph-name="R" unicode="R" horiz-adv-x="673" 
d="M685 6q0 -6 -2 -6h-129q-25 0 -94 83q-71 85 -164 228q-27 -6 -56 -6l-45 3v-227q0 -31 6 -45t24 -19t55 -5q3 0 3 -6t-3 -6q-37 0 -49 1l-69 1l-68 -1q-12 -1 -51 -1q-2 0 -2 6t2 6q36 0 56 5q18 5 24.5 19t6.5 45v463q0 31 -6 44.5t-23 19.5q-20 5 -56 5q-3 0 -3 6t3 6
l49 -1l68 -2q22 0 73 3q37 3 67 3q78 0 121.5 -35.5t43.5 -96.5q0 -53 -31 -97t-84 -69q86 -123 143 -190.5t101 -97.5t87 -30q2 0 2 -6zM195 332q23 -4 59 -4q77 0 111 33.5t34 105.5q0 76 -33.5 111t-101.5 35q-40 0 -54.5 -14.5t-14.5 -56.5v-210z" />
    <glyph glyph-name="S" unicode="S" horiz-adv-x="491" 
d="M211 392q35 -25 75 -49q60 -37 86 -56.5t45 -49.5q20 -34 20 -78q0 -49 -24 -87.5t-70 -60.5q-48 -23 -112 -23q-76 0 -141 35q-5 3 -6.5 6.5t-2.5 12.5l-13 136q-1 4 4.5 5t6.5 -3q17 -77 62 -126.5t113 -49.5q53 0 86 29t33 86q0 42 -18.5 75.5t-49.5 57.5
q-32 23 -78 50q-55 34 -80 53.5t-42 49.5q-19 31 -19 75q0 49 26 84.5t70 54.5q43 17 90 17q59 0 117 -24q15 -4 15 -17l7 -115q0 -4 -5 -4t-6 4q-9 58 -46 99.5t-98 41.5q-54 0 -82.5 -31.5t-28.5 -81.5q0 -70 66 -116z" />
    <glyph glyph-name="T" unicode="T" horiz-adv-x="634" 
d="M94.5 575q-31.5 -32 -45.5 -109q0 -2 -5 -2q-6 0 -6 2q14 134 14 181q0 5 6 5q5 0 5 -5q0 -22 54 -22q85 -3 201 -3q37 0 125 2l68 1q34 0 54 5q17 5 22 20q1 4 6 4t5 -4q-3 -30 -6 -89t-3 -95q0 -2 -6 -2t-6 2q-3 78 -32 109.5t-96 31.5q-47 0 -64 -4q-19 -4 -26 -17
t-7 -44v-461q0 -31 7 -45t27 -19q22 -5 63 -5q3 0 3 -6t-3 -6q-40 0 -53 1l-78 1l-75 -1q-13 -1 -55 -1q-2 0 -2 6t2 6q41 0 63 5q20 5 27.5 19.5t7.5 44.5v463q0 31 -7 43.5t-26 16.5q-20 3 -64 3q-63 0 -94.5 -32z" />
    <glyph glyph-name="U" unicode="U" horiz-adv-x="698" 
d="M572 515q0 98 -87 98q-3 0 -3 6t3 6l43 -1l57 -2l49 2l42 1q2 0 2 -6t-2 -6q-80 0 -80 -98v-284q0 -114 -63.5 -179t-172.5 -65q-74 0 -129.5 29t-85.5 83q-31 52 -31 125v320q0 31 -6 44.5t-23 19.5q-20 5 -56 5q-2 0 -2 6t2 6l49 -1l68 -2q14 0 70 2l48 1q3 0 3 -6
t-3 -6q-37 0 -55 -6t-24 -20t-6 -45v-283q0 -116 53 -179t150 -63q90 0 140 56.5t50 156.5v285z" />
    <glyph glyph-name="V" unicode="V" horiz-adv-x="666" 
d="M669 625q3 0 3 -6t-3 -6q-35 0 -59.5 -18.5t-41.5 -60.5l-213 -533q-1 -4 -11 -4q-8 0 -11 4l-249 541q-17 39 -36 55t-49 16q-3 0 -3 6t3 6l38 -1l45 -2q24 0 86 2l41 1q3 0 3 -6t-3 -6q-62 0 -62 -35q0 -12 9 -32l209 -458l180 451q8 22 8 33q0 21 -19 31t-59 10
q-3 0 -3 6t3 6l43 -1q46 -2 62 -2q13 0 47 2z" />
    <glyph glyph-name="W" unicode="W" horiz-adv-x="931" 
d="M934 625q3 0 3 -6t-3 -6q-34 0 -58.5 -18.5t-42.5 -60.5l-213 -533q-1 -4 -11 -4q-8 0 -11 4l-130 283l-113 -283q-1 -4 -11 -4q-8 0 -11 4l-249 541q-18 40 -36.5 55.5t-48.5 15.5q-3 0 -3 6t3 6l38 -1l45 -2q22 0 78 2l41 1q3 0 3 -6t-3 -6q-31 0 -45 -7t-14 -24
q0 -16 10 -36l213 -457l90 223l-106 230q-18 39 -35.5 55t-46.5 16q-3 0 -3 6t3 6l37 -1l43 -2q19 0 59 2l28 1q3 0 3 -6t-3 -6q-18 0 -26 -3t-8 -12q0 -13 18 -52l73 -156l59 149q11 31 11 45q0 15 -10 22t-32 7q-3 0 -3 6t3 6l23 -1q26 -2 42 -2q12 0 46 2l41 1q2 0 2 -6
t-2 -6q-35 0 -58.5 -18t-40.5 -61l-68 -171l127 -274l179 448q8 22 8 35q0 21 -18 31t-57 10q-3 0 -3 6t3 6l42 -1q42 -2 60 -2q13 0 47 2z" />
    <glyph glyph-name="X" unicode="X" horiz-adv-x="652" 
d="M637 6q0 -6 -2 -6q-31 0 -41 1l-55 1l-77 -1q-12 -1 -49 -1q-2 0 -2 6t2 6q28 0 39 4q12 5 12 13q0 9 -9 22l-152 230l-127 -179q-24 -34 -24 -55q0 -35 59 -35q3 0 3 -6t-3 -6q-35 0 -46 1l-69 1l-42 -1q-7 -1 -37 -1q-3 0 -3 6t3 6q33 0 68 23t68 68l141 193l-161 244
q-27 40 -52.5 56.5t-59.5 16.5q-2 0 -2 6t2 6l38 -1l38 -2q18 0 82 2l52 1q3 0 3 -6t-3 -6q-27 0 -38 -4q-13 -4 -13 -14q0 -8 9 -22l148 -223l117 166q27 38 27 62q0 35 -56 35q-3 0 -3 6t3 6l45 -1q50 -2 69 -2q10 0 42 2l37 1q3 0 3 -6t-3 -6q-33 0 -69 -25t-72 -74
l-131 -179l167 -252q26 -39 53.5 -55t68.5 -16q2 0 2 -6z" />
    <glyph glyph-name="Y" unicode="Y" horiz-adv-x="609" 
d="M614 625q2 0 2 -6t-2 -6q-36 0 -73 -26.5t-66 -72.5l-134 -206v-227q0 -31 6 -45t24 -19t55 -5q3 0 3 -6t-3 -6q-37 0 -48 1l-70 1l-69 -1q-12 -1 -49 -1q-3 0 -3 6t3 6q36 0 56 5q17 5 23.5 19.5t6.5 44.5v211l-166 243q-27 44 -52 61t-59 17q-3 0 -3 6t3 6l36 -2l35 -1
q16 0 86 2l54 1q2 0 2 -6t-2 -6q-52 0 -52 -21q0 -12 10 -25l161 -236l122 187q22 34 22 59q0 36 -54 36q-2 0 -2 6t2 6l47 -1q50 -2 70 -2q9 0 41 2z" />
    <glyph glyph-name="Z" unicode="Z" horiz-adv-x="595" 
d="M450 600q3 5 2.5 6.5t-7.5 1.5q-171 0 -243 -5q-44 -4 -68.5 -14t-39.5 -31t-30 -61q0 -2 -4 -2q-2 0 -6 2q-3 1 -2 2l40 156q0 1 4 1q8 0 8 -2l-1 -9q0 -11 12 -16q9 -4 46 -4h365q5 0 7.5 -5t-0.5 -8l-389 -585q-4 -5 -3 -6.5t7 -1.5h255q66 0 101.5 28t46.5 88
q2 2 6 2q5 0 5 -2l-14 -127q0 -3 -2.5 -6.5t-6.5 -3.5q-198 2 -478 2q-5 0 -7 4.5t1 8.5z" />
    <glyph glyph-name="bracketleft" unicode="[" horiz-adv-x="274" 
d="M88 715q0 7 1.5 8.5t7.5 1.5h139q3 0 3 -6t-3 -6q-39 0 -57 -6t-25 -20t-7 -45v-676q0 -31 7 -45t25 -20t57 -6q3 0 3 -6t-3 -6h-139q-6 0 -7.5 2t-1.5 9v821z" />
    <glyph glyph-name="backslash" unicode="\" horiz-adv-x="341" 
d="M26 718q-2 5 16.5 10.5t20.5 1.5l252 -882q2 -4 -17 -9.5t-21 -1.5z" />
    <glyph glyph-name="bracketright" unicode="]" horiz-adv-x="274" 
d="M186 -106q0 -7 -1.5 -9t-7.5 -2h-139q-3 0 -3 6t3 6q39 0 58 6q18 6 24.5 20.5t6.5 44.5v676q0 30 -6.5 44.5t-24.5 20.5q-19 6 -58 6q-3 0 -3 6t3 6h139q6 0 7.5 -1.5t1.5 -8.5v-821z" />
    <glyph glyph-name="asciicircum" unicode="^" horiz-adv-x="392" 
d="M333 379q0 -2 -4 -4t-5 0l-128 172l-128 -172q-1 -1 -3 -1t-5 2.5t-2 3.5l127 249q2 5 11 5t11 -5l126 -249v-1z" />
    <glyph glyph-name="underscore" unicode="_" horiz-adv-x="398" 
d="M34 -76q-2 0 -3 7q-2 8 -2 14q0 9 1 13q2 6 3 6h331q3 0 4 -6q1 -5 1 -14t-1 -13q-1 -7 -4 -7h-330z" />
    <glyph glyph-name="grave" unicode="`" horiz-adv-x="213" 
d="M42 727v1q0 3 8 3q13 0 32.5 -5.5t20.5 -9.5l51 -240v-1q0 -2 -4.5 -3t-5.5 2z" />
    <glyph glyph-name="a" unicode="a" horiz-adv-x="419" 
d="M415 54q4 0 5 -4.5t-3 -6.5l-103 -49q-6 -2 -8 -2q-13 0 -23 17.5t-13 47.5l-52 -34q-25 -16 -44 -23t-40 -7q-36 0 -57 19t-21 50q0 30 24 52t79 42l110 41v68q0 112 -63 112q-31 0 -49.5 -20.5t-25.5 -53.5q-3 -20 -11.5 -30.5t-26.5 -10.5q-15 0 -24 8.5t-9 21.5
q0 23 30 47t75 41q42 16 77 16q41 0 62 -26t21 -75v-187q0 -35 9 -51t30 -16q20 0 49 13h2zM269 71v112l-93 -36q-28 -11 -40.5 -25.5t-12.5 -34.5q0 -24 16 -40.5t40 -16.5q20 0 48 16z" />
    <glyph glyph-name="b" unicode="b" horiz-adv-x="510" 
d="M393 377.5q37 -21.5 58 -61.5q22 -41 22 -102q0 -70 -30.5 -122t-82.5 -79q-52 -26 -107 -26q-77 0 -136 44l-76 -36h-2q-4 0 -5 4t2 6q33 23 45.5 42.5t12.5 55.5v494q0 37 -7 52q-7 16 -26 16q-15 0 -45 -13h-2q-3 0 -4.5 5t1.5 6l125 61l5 1q2 0 5.5 -2.5t3.5 -5.5
v-405q42 44 79.5 65.5t82.5 21.5q44 0 81 -21.5zM374.5 51.5q32.5 45.5 32.5 128.5q0 89 -34.5 137.5t-93.5 48.5q-32 0 -63 -17.5t-66 -52.5v-164q0 -42 20.5 -70.5t53.5 -42.5q30 -13 60 -13q58 0 90.5 45.5z" />
    <glyph glyph-name="c" unicode="c" horiz-adv-x="411" 
d="M123.5 15.5q-44.5 27.5 -66.5 74.5q-21 45 -21 95q0 62 31 110.5t84 74.5q49 25 103 25q46 0 81.5 -17.5t35.5 -43.5q0 -13 -10 -22.5t-25 -9.5q-27 0 -44 33q-13 21 -28.5 30.5t-42.5 9.5q-56 0 -87.5 -43.5t-31.5 -116.5q0 -87 43 -139.5t125 -52.5q62 0 102 33h1
q3 0 5.5 -3t0.5 -5q-36 -31 -71 -45.5t-77 -14.5q-63 0 -107.5 27.5z" />
    <glyph glyph-name="d" unicode="d" horiz-adv-x="512" 
d="M506 57q4 0 5.5 -5t-1.5 -7l-110 -52l-8 -2q-13 0 -22 22q-8 21 -10 61q-40 -42 -80.5 -64.5t-87.5 -22.5q-42 0 -77.5 24.5t-56.5 67.5q-22 43 -22 99q0 69 33.5 119.5t89.5 76.5q51 25 105 25q52 0 96 -26v224q0 37 -7 52q-7 16 -26 16q-12 0 -46 -14h-2q-4 0 -5.5 4.5
t1.5 6.5l127 62q1 1 5 1q2 0 5.5 -2.5t3.5 -5.5v-607q0 -36 8.5 -52t27.5 -16q29 0 52 14zM297 39.5q31 16.5 63 50.5v220q-25 35 -54 52t-69 17q-63 0 -99.5 -45t-36.5 -126q0 -54 17 -96.5t47 -65.5q29 -23 66 -23q35 0 66 16.5z" />
    <glyph glyph-name="e" unicode="e" horiz-adv-x="408" 
d="M359 56q3 0 5.5 -3.5t0.5 -6.5q-65 -58 -146 -58q-56 0 -97.5 26t-63.5 72q-22 43 -22 94q0 59 28 108.5t77 78.5q47 28 106 28q56 0 86 -30t30 -84q0 -12 -2 -20q-3 -6 -9 -6l-248 -1l-2 -36q0 -88 41.5 -141.5t114.5 -53.5q29 0 50.5 7.5t49.5 25.5h1zM143 346.5
q-28 -28.5 -37 -79.5l190 4q0 50 -21.5 77t-60.5 27q-43 0 -71 -28.5z" />
    <glyph glyph-name="f" unicode="f" horiz-adv-x="305" 
d="M402 710.5q33 -15.5 33 -37.5q0 -15 -10 -23.5t-25 -8.5q-12 0 -21 6t-19 20q-16 22 -33.5 32t-42.5 10q-58 0 -92 -67t-34 -203v-64q52 2 128 10q4 0 5 -7q2 -10 2 -17q0 -9 -3 -17t-7 -7q-63 15 -125 16v-272q0 -31 7 -45t27 -19q22 -5 64 -5q3 0 3 -6t-3 -6l-64 1
q-14 1 -64 1l-56 -1q-9 -1 -40 -1q-3 0 -3 6t3 6q30 0 44 5.5t20 19.5q5 15 5 44v225q0 26 -5 36.5t-19 14.5q-15 3 -49 3q-3 0 -3 7q0 6 3 6q41 0 55.5 9.5t15.5 35.5q5 160 59 234t161 74q50 0 83 -15.5z" />
    <glyph glyph-name="g" unicode="g" horiz-adv-x="445" 
d="M344 17.5q30 -5.5 56 -25.5q28 -22 28 -70q0 -53 -34.5 -100t-92.5 -74q-57 -28 -121 -28q-68 0 -108 30.5t-40 79.5q0 74 103 146q-39 5 -58.5 21t-19.5 46q0 29 16.5 52.5t55.5 54.5q-34 17 -53 47t-19 66q0 56 44.5 93t114.5 37q66 0 104 -31q28 16 53.5 24t53.5 8
q3 0 4 -7q1 -5 1 -15q0 -8 -2 -24q-3 -11 -7 -10q-38 15 -67 15q-6 0 -24 -2q34 -37 34 -86q0 -36 -19.5 -66t-55.5 -48t-82 -18q-34 0 -65 11q-20 -17 -28.5 -32t-8.5 -33q0 -22 13.5 -33.5t44.5 -16.5q35 -5 87 -5q62 -1 92 -6.5zM119 287q0 -43 15.5 -75t41.5 -48
q25 -16 52 -16q35 0 55 24t20 71q0 61 -31.5 98t-79.5 37q-73 0 -73 -91zM334.5 -213q43.5 37 43.5 97q0 38 -18.5 57t-52.5 25q-35 5 -89 5q-12 0 -60 2q-35 -22 -51.5 -47.5t-16.5 -62.5q0 -52 34.5 -82.5t96.5 -30.5q70 0 113.5 37z" />
    <glyph glyph-name="h" unicode="h" horiz-adv-x="499" 
d="M480 6q0 -6 -3 -6q-28 0 -37 1l-54 1l-54 -1q-9 -1 -37 -1q-3 0 -3 6t3 6q27 0 40 5.5t18 20.5t5 43v159q0 59 -22.5 87.5t-69.5 28.5q-31 0 -63 -16.5t-58 -45.5v-213q0 -29 5 -43.5t18 -19.5q14 -6 40 -6q3 0 3 -6t-3 -6q-28 0 -37 1l-54 1l-54 -1q-9 -1 -37 -1
q-3 0 -3 6t3 6q27 0 40 5.5t18 20.5t5 43v517q0 37 -7 52q-7 16 -25 16q-13 0 -46 -14h-2q-3 0 -5 5t2 6l127 62h3q4 0 6.5 -2.5t2.5 -5.5v-406q38 44 75.5 64.5t78.5 20.5q55 0 85 -31t30 -90v-194q0 -29 5 -43.5t18 -19.5q14 -6 40 -6q3 0 3 -6z" />
    <glyph glyph-name="i" unicode="i" horiz-adv-x="273" 
d="M104.5 523q-11.5 11 -11.5 31t11.5 31t32.5 11q20 0 31 -11t11 -31t-11 -31t-31 -11q-21 0 -32.5 11zM51 6q0 6 2 6q27 0 40.5 5.5t18.5 20.5t5 43v187q0 37 -7 52q-7 16 -26 16q-17 0 -45 -14h-1q-4 0 -6 5t1 7l130 60l4 1q2 0 5 -2.5t3 -5.5l-1 -40q-1 -22 -1 -78v-188
q0 -30 5 -44t18 -19q14 -6 40 -6q3 0 3 -6t-3 -6q-28 0 -37 1l-54 1l-54 -1q-9 -1 -38 -1q-2 0 -2 6z" />
    <glyph glyph-name="j" unicode="j" horiz-adv-x="257" 
d="M95.5 523q-11.5 11 -11.5 31t11.5 31t32.5 11q20 0 31 -11t11 -31t-11 -31t-31 -11q-21 0 -32.5 11zM166 347q-1 -22 -1 -78v-317q0 -68 -13.5 -111.5t-43.5 -72.5q-31 -29 -84 -50q-2 -1 -4.5 4.5t-0.5 6.5q49 21 69 67t20 133v339q0 37 -7 52q-7 16 -24 16
q-16 0 -46 -14h-1q-5 0 -7 5t2 7l130 60l3 1q4 0 6.5 -2.5t2.5 -5.5z" />
    <glyph glyph-name="k" unicode="k" horiz-adv-x="491" 
d="M486 6q0 -6 -3 -6q-28 0 -37 1l-54 1l-72 -1q-11 -1 -43 -1q-2 0 -2 6t2 6q50 0 50 19q0 9 -9 22l-123 167l-50 -39v-100q0 -29 5 -43.5t18 -19.5q14 -6 40 -6q3 0 3 -6t-3 -6q-28 0 -37 1l-54 1l-54 -1q-9 -1 -37 -1q-3 0 -3 6t3 6q27 0 40 5.5t18 20.5t5 43v517
q0 37 -7 52q-7 16 -25 16q-13 0 -46 -14h-2q-3 0 -5 5t2 6l125 61l5 1q3 0 6 -2.5t3 -5.5v-520l134 108q32 26 32 44q0 25 -57 25q-3 0 -3 6t3 6q32 0 41 -1l73 -1l67 1q9 1 36 1q3 0 3 -6t-3 -6q-38 0 -83 -18.5t-89 -53.5l-58 -46l127 -175q50 -69 115 -69q3 0 3 -6z" />
    <glyph glyph-name="l" unicode="l" horiz-adv-x="258" 
d="M37 6q0 6 3 6q27 0 40 5.5t18 20.5t5 43v517q0 37 -7 52q-7 16 -25 16q-13 0 -46 -14h-2q-3 0 -4.5 5t1.5 6l128 61q1 1 5 1q2 0 5.5 -2.5t3.5 -5.5v-636q0 -30 4.5 -43.5t17.5 -19.5q14 -6 40 -6q3 0 3 -6t-3 -6q-27 0 -36 1l-56 1l-54 -1q-9 -1 -38 -1q-3 0 -3 6z" />
    <glyph glyph-name="m" unicode="m" horiz-adv-x="763" 
d="M746 6q0 -6 -4 -6q-28 0 -37 1l-54 1l-54 -1q-9 -1 -37 -1q-3 0 -3 6t3 6q27 0 40 5.5t18 20.5t5 43v159q0 59 -21 87.5t-65 28.5q-30 0 -60.5 -16.5t-56.5 -46.5q1 -3 1 -16v-196q0 -30 5 -44t18 -19q14 -6 40 -6q3 0 3 -6t-3 -6q-28 0 -37 1l-54 1l-55 -1q-9 -1 -36 -1
q-3 0 -3 6t3 6q27 0 40.5 5.5t17.5 19.5q4 12 4 44v159q0 59 -21 87.5t-64 28.5q-30 0 -60 -16t-55 -45v-214q0 -30 4.5 -44t17.5 -19q14 -6 40 -6q3 0 3 -6t-3 -6q-27 0 -36 1l-54 1l-55 -1q-9 -1 -36 -1q-3 0 -3 6t3 6q27 0 40.5 5.5t17.5 19.5q4 12 4 44v198q0 34 -8 49
t-27 15q-17 0 -54 -15h-2q-4 0 -5.5 4.5t2.5 6.5l116 55l6 1q8 0 19 -23q10 -21 10 -59v-1q35 44 71 64t76 20q46 0 73.5 -22t34.5 -66q72 88 151 88q54 0 82 -30.5t28 -90.5v-194q0 -30 4.5 -44t17.5 -19q14 -6 40 -6q4 0 4 -6z" />
    <glyph glyph-name="n" unicode="n" horiz-adv-x="517" 
d="M498 6q0 -6 -3 -6q-27 0 -36 1l-54 1l-55 -1q-9 -1 -36 -1q-3 0 -3 6t3 6q27 0 40.5 5.5t17.5 19.5q4 12 4 44v162q0 59 -22.5 87t-69.5 28q-31 0 -62.5 -16.5t-57.5 -45.5v-215q0 -30 4.5 -44t17.5 -19q14 -6 40 -6q3 0 3 -6t-3 -6q-27 0 -36 1l-54 1l-55 -1
q-9 -1 -36 -1q-3 0 -3 6t3 6q27 0 40.5 5.5t17.5 19.5q4 12 4 44v198q0 34 -8 49t-27 15q-17 0 -54 -15h-2q-4 0 -5.5 4.5t2.5 6.5l116 55l6 1q8 0 19 -23q10 -21 10 -59q38 44 75.5 65t77.5 21q56 0 86 -31t30 -91v-196q0 -30 4.5 -44t17.5 -19q14 -6 40 -6q3 0 3 -6z" />
    <glyph glyph-name="o" unicode="o" horiz-adv-x="479" 
d="M129 15.5q-45 28.5 -69 77.5q-24 48 -24 105q0 63 30.5 109.5t82.5 69.5q48 22 100 22q58 0 102 -28t69 -77q23 -49 23 -101q0 -61 -28.5 -107.5t-77.5 -72.5q-50 -26 -106 -26q-57 0 -102 28.5zM345.5 45.5q29.5 39.5 29.5 119.5q0 62 -20.5 111t-56.5 77q-36 27 -82 27
q-54 0 -83.5 -39t-29.5 -112q0 -61 20 -112t56 -81t81 -30q56 0 85.5 39.5z" />
    <glyph glyph-name="p" unicode="p" horiz-adv-x="511" 
d="M395.5 376.5q34.5 -22.5 55.5 -63.5q21 -42 21 -98q0 -72 -32.5 -124.5t-84.5 -78.5q-49 -25 -98 -25q-31 0 -55.5 6t-50.5 20v-207q0 -30 7.5 -44t28.5 -19q21 -6 64 -6q2 0 2 -6t-2 -6q-41 0 -54 1l-73 1l-55 -1q-9 -1 -37 -1q-3 0 -3 6t3 6q27 0 40 5.5t18 19.5
q5 15 5 44v470q0 36 -8 51.5t-28 15.5t-53 -14l-2 -1q-4 0 -5.5 5t1.5 7l111 53q1 1 7 1q14 0 23 -21q8 -20 10 -60q86 86 168 86q42 0 76.5 -22.5zM374.5 55q33.5 47 33.5 129t-36.5 129.5t-94.5 47.5q-34 0 -63.5 -16t-62.5 -49v-225q29 -32 61 -47.5t75 -15.5
q54 0 87.5 47z" />
    <glyph glyph-name="q" unicode="q" horiz-adv-x="488" 
d="M475 -269q0 -6 -2 -6q-30 0 -39 1l-54 1l-59 -1q-11 -1 -47 -1q-2 0 -2 6t2 6q34 0 50.5 5.5t22.5 19.5q6 13 6 44v266q-38 -41 -77 -63t-84 -22q-43 0 -78.5 22.5t-56.5 63.5t-21 98q0 75 31.5 127.5t83.5 77.5q51 23 103 23q67 0 132 -35l67 24l2 1q3 0 4 -4.5t-2 -5.5
q-25 -15 -36.5 -34.5t-11.5 -49.5v-489q0 -30 5 -44t18 -19q14 -6 41 -6q2 0 2 -6zM288.5 37.5q30.5 17.5 64.5 51.5v180q0 50 -36 80.5t-94 30.5q-121 0 -121 -176q0 -86 33.5 -135t90.5 -49q32 0 62.5 17.5z" />
    <glyph glyph-name="r" unicode="r" horiz-adv-x="364" 
d="M317.5 383q19.5 -12 19.5 -29q0 -13 -9 -22t-24 -9q-8 0 -14 3t-17 11q-9 9 -17 12.5t-19 3.5q-13 0 -27 -11q-13 -9 -46 -47v-214q0 -30 7.5 -44t27.5 -19q20 -6 62 -6q4 0 4 -6t-4 -6q-38 0 -51 1l-74 1l-55 -1q-9 -1 -36 -1q-3 0 -3 6t3 6q27 0 40.5 5.5t17.5 19.5
q4 12 4 44v198q0 34 -8 49t-27 15q-17 0 -54 -15h-2q-4 0 -5.5 4.5t2.5 6.5l116 55l6 1q8 0 19 -23q10 -21 10 -59v-1q40 47 65 66q25 17 46 17q23 0 42.5 -12z" />
    <glyph glyph-name="s" unicode="s" horiz-adv-x="338" 
d="M121.5 272q20.5 -20 69.5 -46q39 -20 57 -32.5t31 -32.5q14 -22 14 -51q0 -52 -38.5 -86.5t-102.5 -34.5q-53 0 -96 30q-6 5 -6 12l-2 78q0 3 5.5 3.5t6.5 -2.5q19 -50 49.5 -76t70.5 -26q33 0 50 16t15 47q-1 36 -21.5 56.5t-69.5 44.5q-36 17 -54 30t-31 33
q-14 22 -14 52q0 52 39 81.5t97 29.5q40 0 73 -15q6 -2 7.5 -4.5t1.5 -6.5q0 -24 -1 -31l-1 -42q0 -2 -6 -2t-6 2q0 20 -15.5 38.5t-40.5 30.5q-25 11 -48 11q-25 0 -39.5 -14t-14.5 -40q0 -33 20.5 -53z" />
    <glyph glyph-name="t" unicode="t" horiz-adv-x="338" 
d="M311 52q4 0 6 -4.5t-1 -6.5q-36 -29 -65.5 -41t-62.5 -12q-45 0 -70.5 20t-25.5 62v235q0 27 -3 37q-4 11 -13.5 14.5t-34.5 3.5q-4 0 -4 7q0 6 4 6q40 1 65 21.5t29 54.5q0 3 8 3q7 0 7 -3v-74q58 2 139 10q2 0 5 -7q2 -10 2 -17q0 -8 -3.5 -16.5t-7.5 -7.5
q-60 15 -135 16v-249q0 -81 79 -81q45 0 80 28z" />
    <glyph glyph-name="u" unicode="u" horiz-adv-x="493" 
d="M487 57q4 0 5.5 -4.5t-2.5 -6.5l-117 -55l-4 -1q-10 0 -19 23t-9 60v4q-39 -44 -78 -64.5t-81 -20.5q-51 0 -78.5 31.5t-27.5 91.5v153q0 40 -7 57q-8 17 -23 17t-34 -10h-1q-4 0 -6 5.5t2 6.5l111 50l4 1q3 0 6.5 -2.5t3.5 -5.5v-239q0 -116 84 -116q32 0 65 16.5
t60 45.5v174q0 41 -6 57q-8 17 -24 17q-15 0 -34 -10h-1q-4 0 -5.5 5.5t2.5 6.5l111 50l3 1q3 0 6.5 -2.5t3.5 -5.5v-280q0 -34 8 -49t27 -15q16 0 53 14h2z" />
    <glyph glyph-name="v" unicode="v" horiz-adv-x="434" 
d="M433 380q0 -6 -2 -6q-25 0 -43 -17t-34 -56l-125 -300q-2 -5 -11 -5t-11 5l-140 302q-20 44 -33 57q-14 14 -34 14q-3 0 -3 6t3 6q24 0 31 -1l38 -1l65 1q10 1 40 1q3 0 3 -6t-3 -6q-60 0 -60 -24q0 -8 4 -15l122 -258l94 229q7 18 7 29q0 20 -19 29.5t-60 9.5q-2 0 -2 6
t2 6q32 0 41 -1l60 -1l36 1q7 1 32 1q2 0 2 -6z" />
    <glyph glyph-name="w" unicode="w" horiz-adv-x="671" 
d="M669 380q0 -6 -3 -6q-24 0 -41.5 -16t-34.5 -57l-124 -300q-1 -4 -11 -4t-11 4l-113 243l-102 -243q-1 -4 -11 -4t-11 4l-140 302q-20 44 -33 57q-14 14 -34 14q-3 0 -3 6t3 6q24 0 31 -1l38 -1l60 1q10 1 43 1q3 0 3 -6t-3 -6q-26 0 -43 -5q-15 -6 -15 -19q0 -8 4 -15
l122 -257l79 190l-16 35q-20 44 -33 57q-14 14 -32 14q-2 0 -2 6t2 6q23 0 30 -1l37 -1l65 1q9 1 38 1q3 0 3 -6t-3 -6q-57 0 -57 -24q0 -8 4 -15l121 -259l94 230q7 14 7 29q0 20 -19 29.5t-60 9.5q-2 0 -2 6t2 6q32 0 41 -1l60 -1l36 1q7 1 31 1q3 0 3 -6z" />
    <glyph glyph-name="x" unicode="x" horiz-adv-x="439" 
d="M429 6q0 -6 -2 -6l-32 1q-7 1 -32 1l-64 -1q-10 -1 -40 -1q-3 0 -3 6t3 6q19 0 26 3q7 1 7 9q0 9 -12 27l-76 115l-60 -86q-20 -31 -20 -44q0 -12 14 -18t43 -6q3 0 3 -6t-3 -6q-31 0 -40 1l-60 1l-36 -1q-7 -1 -32 -1q-2 0 -2 6t2 6q27 0 57 19.5t56 54.5l68 95l-81 122
q-23 35 -49 53t-48 18q-2 0 -2 6t2 6q24 0 31 -1l31 -1l64 1q9 1 39 1q2 0 2 -6t-2 -6q-15 0 -25 -2q-8 -3 -8 -10q0 -8 13 -27l69 -104l51 75q21 32 21 45q0 12 -13 18q-15 5 -45 5q-2 0 -2 6t2 6q32 0 41 -1l60 -1l36 1q7 1 32 1q2 0 2 -6t-2 -6q-28 0 -57 -19t-56 -55
l-61 -83l89 -134q23 -36 49.5 -53.5t49.5 -17.5q2 0 2 -6z" />
    <glyph glyph-name="y" unicode="y" horiz-adv-x="435" 
d="M434 380q0 -6 -3 -6q-25 0 -43 -18t-34 -59l-122 -325q-37 -97 -69 -151.5t-67 -77.5q-34 -24 -80 -24q-22 0 -36.5 10.5t-14.5 28.5q0 14 9 22t22 8q22 0 41 -13l12 -6q10 -5 23 -5q24 0 45.5 21.5t46.5 70.5q25 51 57 136l-152 311q-23 45 -35 58t-31 13q-2 0 -2 6t2 6
l34 -1q8 -1 33 -1l64 1q9 1 39 1q2 0 2 -6t-2 -6q-58 0 -58 -23q0 -4 5 -16l132 -271l80 230q8 26 8 38q0 23 -17.5 32.5t-59.5 9.5q-2 0 -2 6t2 6q32 0 41 -1l60 -1l36 1q7 1 31 1q3 0 3 -6z" />
    <glyph glyph-name="z" unicode="z" horiz-adv-x="405" 
d="M281 366q4 7 -5 7q-78 0 -120.5 -7t-66.5 -25q-24 -19 -36 -57q0 -2 -4 -2q-3 0 -5 2q-3 1 -2 2l34 129q1 2 6.5 1.5t4.5 -2.5t-1 -8q0 -11 11 -16q9 -4 38 -4h212q4 0 7 -4t1 -8l-236 -352q-4 -7 5 -7q98 0 140 6q41 6 60 25t34 68q2 2 6 2q5 0 5 -2l-2 -103
q0 -4 -2.5 -7.5t-6.5 -3.5h-309q-4 0 -6.5 4t-0.5 8z" />
    <glyph glyph-name="braceleft" unicode="{" horiz-adv-x="289" 
d="M29 305q0 6 3 6q45 6 62 60t17 158q0 85 11 127q11 40 39 54.5t89 14.5q4 0 4 -6t-4 -6q-36 0 -55.5 -27.5t-20.5 -78.5q-1 -118 -8 -172q-6 -51 -27.5 -79t-74.5 -51q51 -24 73.5 -53t28.5 -80q7 -54 8 -171q1 -51 20.5 -78.5t55.5 -27.5q4 0 4 -6t-4 -6q-62 0 -90 14.5
t-38 55.5q-11 42 -11 127q0 105 -17 158.5t-62 59.5q-3 0 -3 7z" />
    <glyph glyph-name="bar" unicode="|" horiz-adv-x="168" 
d="M66 731q0 7 20 7q19 0 19 -7v-885q0 -4 -6 -6t-13 -2q-9 0 -14.5 2t-5.5 6v885z" />
    <glyph glyph-name="braceright" unicode="}" horiz-adv-x="283" 
d="M189 238.5q-17 -53.5 -17 -158.5q0 -88 -10 -127q-10 -40 -38.5 -55t-90.5 -15q-4 0 -4 6t4 6q36 0 55.5 27.5t20.5 78.5q1 117 8 171q6 51 28.5 80t73.5 53q-53 23 -74.5 51t-27.5 79q-7 54 -8 172q-1 51 -20.5 78.5t-55.5 27.5q-4 0 -4 6t4 6q61 0 89 -14.5t39 -54.5
q11 -42 11 -127q0 -104 17 -158t62 -60q3 0 3 -6q0 -7 -3 -7q-45 -6 -62 -59.5z" />
    <glyph glyph-name="asciitilde" unicode="~" horiz-adv-x="443" 
d="M354.5 206.5q15.5 8.5 34.5 29.5l2 1q2 0 4 -3t1 -5q-35 -44 -57 -60t-49 -16q-18 0 -34.5 4t-43.5 14q-29 10 -46 14t-36 4q-22 0 -34.5 -5.5t-24.5 -17.5l-16 -15h-1q-2 0 -4.5 2.5t-1.5 4.5q57 76 113 76q22 0 68 -17q32 -11 49 -15t35 -4q26 0 41.5 8.5z" />
    <glyph glyph-name="uni00A0" unicode="&#xa0;" horiz-adv-x="234" 
 />
    <glyph glyph-name="exclamdown" unicode="&#xa1;" horiz-adv-x="247" 
d="M160 353q12 -12 12 -32q0 -19 -12 -30t-32 -11q-21 0 -32.5 11t-11.5 30q0 20 11.5 32t32.5 12q20 0 32 -12zM155 -272q-15 -3 -32 -3t-32 3q-15 1 -13 6q15 80 23 172t17 259q0 3 8 3q7 0 7 -3q6 -151 13.5 -250.5t22.5 -180.5q1 -4 -14 -6z" />
    <glyph glyph-name="cent" unicode="&#xa2;" horiz-adv-x="538" 
d="M487 143q2 0 4.5 -1.5t2.5 -2.5l-13 -106q-1 -8 -3 -11t-11 -7q-76 -27 -160 -27h-9v-90q0 -7 -11 -7t-11 7v91q-81 6 -136 43.5t-80 94.5q-24 54 -24 109q0 62 31 115t86 87q54 32 123 40v83q0 4 3.5 6t7.5 2q11 0 11 -8v-81h13q39 0 82 -8t70 -21q7 -3 9 -6t3 -11
l10 -103q0 -3 -5.5 -4t-6.5 3q-18 66 -62.5 99.5t-112.5 35.5v-462q4 -1 19 -1q126 0 165 138q0 3 5 3zM127.5 141.5q19.5 -51.5 56.5 -87.5q37 -37 92 -48v458q-48 -3 -86.5 -31t-59.5 -76q-22 -47 -22 -106q0 -58 19.5 -109.5z" />
    <glyph glyph-name="sterling" unicode="&#xa3;" horiz-adv-x="432" 
d="M374 125.5q6 -0.5 6 -2.5q-9 -49 -9 -108q0 -8 -3.5 -11.5t-11.5 -3.5h-325q-2 0 -2 6q0 4 2 6q50 12 69 33t19 59q0 31 -4.5 57t-14.5 58h-47q-3 0 -5 3.5t-2 7.5q0 11 7 11h40q-9 29 -13 49t-4 42q0 72 47.5 110t122.5 38q48 0 90 -16q15 -4 16 -19l7 -101q0 -4 -5 -4
q-6 0 -7 4q-10 54 -39 88t-75 34q-48 0 -72 -28.5t-24 -73.5q0 -40 16 -94l8 -29h113q7 0 7 -11t-7 -11h-107q10 -36 10 -72t-12.5 -60.5t-38.5 -44.5h125q45 0 66 6t32 23q12 19 19 53q0 2 6 1.5z" />
    <glyph glyph-name="currency" unicode="&#xa4;" horiz-adv-x="414" 
d="M334 36l-48 55q-41 -26 -90 -26q-43 0 -74 21l-44 -50l-23 23l44 46q-18 19 -28 44.5t-10 52.5q0 54 39 91l-50 50l28 25l51 -54q38 21 82 21q43 0 78 -23l50 53l22 -22l-49 -50q37 -38 37 -92q0 -51 -36 -89l49 -49zM271.5 109q20.5 26 20.5 71q0 57 -28.5 97t-75.5 40
q-34 0 -53.5 -24.5t-19.5 -69.5q0 -58 26.5 -99t73.5 -41q36 0 56.5 26z" />
    <glyph glyph-name="yen" unicode="&#xa5;" horiz-adv-x="481" 
d="M472 468q3 0 3 -6t-3 -6q-65 0 -120 -90l-82 -137v-16h103q7 0 7 -10q0 -11 -7 -11h-270q-7 0 -7 11q0 10 7 10h105v2l-111 170q-27 40 -48.5 55.5t-51.5 15.5q-2 0 -2 6t2 6l33 -2l32 -1q15 0 77 2l49 1q3 0 3 -6t-3 -6q-43 0 -43 -21q0 -9 8 -22l109 -166l69 120
q17 29 17 51q0 18 -11 28t-31 10q-3 0 -3 6t3 6l42 -1q42 -2 61 -2q9 0 33 2zM373 153q7 0 7 -10q0 -11 -7 -11h-103v-51q0 -31 6 -45t24 -19t56 -5q2 0 2 -6t-2 -6q-36 0 -47 1l-70 1l-66 -1q-13 -1 -52 -1q-2 0 -2 6t2 6q36 0 56 5q18 5 24.5 19t6.5 45v51h-105
q-7 0 -7 11q0 10 7 10h270z" />
    <glyph glyph-name="brokenbar" unicode="&#xa6;" horiz-adv-x="168" 
d="M66 731q0 7 20 7q19 0 19 -7v-371q0 -3 -6 -5t-13 -2q-6 0 -14 2q-6 2 -6 5v371zM66 216q0 4 5.5 6t14.5 2q7 0 13 -2t6 -6v-370q0 -4 -6 -6t-13 -2q-9 0 -14.5 2t-5.5 6v370z" />
    <glyph glyph-name="section" unicode="&#xa7;" horiz-adv-x="441" 
d="M361 -56q0 -63 -43.5 -97.5t-108.5 -34.5q-52 0 -88 18q-11 8 -11 17l-8 98q0 3 6 3t6 -3q4 -22 23.5 -48t47.5 -44q29 -18 60 -18q30 0 48.5 18.5t18.5 54.5q0 42 -24.5 70t-84.5 67q-49 32 -72.5 52.5t-40.5 50.5q-18 32 -18 76q0 39 14.5 67.5t53.5 64.5
q-37 37 -37 84q0 63 43 97.5t107 34.5q53 0 87 -19q11 -5 11 -16l8 -99q0 -2 -5 -2t-7 2q-4 24 -22.5 49.5t-46.5 43.5t-61 18q-30 0 -48 -18.5t-18 -54.5q0 -42 24 -70.5t83 -66.5q46 -29 70 -51t41 -52q17 -32 17 -76q0 -39 -14 -66.5t-52 -62.5q41 -38 41 -87zM183 129
q23 -19 69 -49q37 -24 59 -41q27 33 27 86q0 80 -60 129q-20 16 -68 49q-36 23 -61 44q-15 -18 -21.5 -39.5t-6.5 -49.5q0 -79 62 -129z" />
    <glyph glyph-name="dieresis" unicode="&#xa8;" horiz-adv-x="322" 
d="M42.5 489q-11.5 11 -11.5 30t11.5 30t31.5 11q41 0 41 -41q0 -19 -10.5 -30t-30.5 -11t-31.5 11zM217.5 489q-11.5 11 -11.5 30t11.5 30t31.5 11q42 0 42 -41t-42 -41q-20 0 -31.5 11z" />
    <glyph glyph-name="copyright" unicode="&#xa9;" horiz-adv-x="719" 
d="M228 -67.5q-67 34.5 -110 98.5q-44 67 -44 159q0 88 44 158t121 111q74 39 159 39q73 0 130.5 -30.5t88.5 -83.5q31 -52 31 -114q0 -61 -32.5 -114.5t-88.5 -84.5q-58 -32 -125 -32q-59 0 -99.5 22t-60.5 59q-19 34 -19 75q0 50 24.5 88.5t65.5 60.5q42 20 82 20
q37 0 65.5 -14.5t29.5 -35.5q0 -12 -8 -20.5t-20 -8.5q-21 0 -36 26q-13 19 -25 27.5t-33 8.5q-43 0 -62.5 -31.5t-19.5 -94.5q0 -72 37 -114t112 -42q47 0 86.5 20t63.5 59t24 97q0 64 -31.5 117.5t-87.5 85.5q-55 31 -123 31q-76 0 -132.5 -34t-85.5 -95t-29 -133
q0 -87 40.5 -152.5t107.5 -99.5q66 -32 129 -32q60 0 103.5 9.5t93.5 36.5q3 1 5 -2t-1 -5q-52 -38 -106 -54t-123 -16q-74 0 -141 34.5z" />
    <glyph glyph-name="ordfeminine" unicode="&#xaa;" horiz-adv-x="278" 
d="M271 407q4 0 5.5 -3.5t-0.5 -5.5l-68 -32q-2 -1 -6 -1q-7 0 -13 7q-10 11 -11 35l-41 -22q-21 -12 -32.5 -16t-24.5 -4q-21 0 -33 11t-12 28q0 16 12 26.5t44 21.5l87 31v55q0 43 -11.5 58.5t-35.5 15.5q-18 0 -31 -14.5t-17 -36.5q-3 -13 -7.5 -18.5t-16.5 -5.5
q-10 0 -17 6.5t-7 14.5q0 15 21 32t52 29q30 11 50 11q27 0 42.5 -18.5t15.5 -53.5v-117q0 -21 5 -33q4 -10 16 -10q8 0 33 9h1zM178 419v54l-70 -28q-16 -6 -21.5 -11.5t-5.5 -15.5q0 -12 8 -20t20 -8q11 0 25 6zM259 314q5 0 5 -13q0 -5 -1.5 -9.5t-3.5 -4.5h-224
q-2 0 -3.5 4.5t-1.5 9.5q0 6 1 9q1 4 3 4h225z" />
    <glyph glyph-name="guillemotleft" unicode="&#xab;" horiz-adv-x="456" 
d="M211 189q-4 4 -4 12q0 7 4 11l177 149q2 3 5.5 0t1.5 -5l-121 -155l121 -155v-1q0 -3 -2.5 -5t-4.5 0zM59 189q-4 4 -4 12q0 7 4 11l177 149q0 1 2 1t4 -2.5t1 -3.5l-122 -155l122 -155q1 -2 -2.5 -5.5t-4.5 -0.5z" />
    <glyph glyph-name="logicalnot" unicode="&#xac;" horiz-adv-x="395" 
d="M364 77q0 -1 -6 -3q-10 -2 -15 -2q-9 0 -13 1q-6 2 -6 3v152h-290q-2 0 -3 7q-2 8 -2 14q0 9 1 13q2 6 3 6h331v-191z" />
    <glyph glyph-name="uni00AD" unicode="&#xad;" horiz-adv-x="323" 
d="M32 165q-1 -1 -3 7q-2 10 -2 16q0 19 3 19l261 47q1 1 2 -0.5t2 -4.5q1 -5 1 -15q0 -20 -5 -22z" />
    <glyph glyph-name="registered" unicode="&#xae;" horiz-adv-x="750" 
d="M542.5 688.5q64.5 -36.5 100.5 -99.5q35 -64 35 -138q0 -86 -41.5 -157.5t-113.5 -113.5t-156 -42q-75 0 -142 35t-108 100q-43 65 -43 155q0 84 44 152t119 107q74 38 158 38q83 0 147.5 -36.5zM524.5 197.5q55.5 31.5 85.5 89.5q29 60 29 135q0 78 -36 142.5t-99 101.5
q-63 36 -141 36q-76 0 -133 -33t-85 -91q-28 -56 -28 -124q0 -86 40 -152.5t106 -101.5q64 -34 132 -34q74 0 129.5 31.5zM566 276q0 -4 -2 -4h-79q-10 0 -34 42q-23 36 -66 121q-21 -6 -55 -4v-103q0 -21 4 -30t14 -12q11 -3 33 -3q2 0 2 -5q0 -6 -2 -6l-72 1l-71 -1
q-2 0 -2 6q0 5 2 5q23 0 33 3t13.5 12t3.5 30v215q0 28 -9 36t-41 8q-2 0 -2 6t2 6l71 -1l44 2l38 2q91 0 91 -66q0 -60 -55 -88q33 -66 54 -100q20 -32 39 -48.5t44 -19.5q2 0 2 -4zM330 448q20 -3 35 -3q37 0 54.5 16.5t17.5 51.5q0 38 -16.5 57t-46.5 19q-20 0 -28 -3
t-12 -12t-4 -33v-93z" />
    <glyph glyph-name="macron" unicode="&#xaf;" horiz-adv-x="345" 
d="M47 483q-6 0 -6 14t6 14h251q6 0 6 -14t-6 -14h-251z" />
    <glyph glyph-name="degree" unicode="&#xb0;" horiz-adv-x="332" 
d="M67.5 410q-38.5 37 -38.5 93q0 54 39 90.5t99 36.5t98 -37t38 -92t-38 -91.5t-98 -36.5q-61 0 -99.5 37zM230.5 409.5q14.5 24.5 14.5 84.5q0 63 -20.5 94t-63.5 31q-41 0 -57 -27.5t-16 -85.5q0 -60 20 -90.5t66 -30.5q42 0 56.5 24.5z" />
    <glyph glyph-name="plusminus" unicode="&#xb1;" horiz-adv-x="398" 
d="M34 233q-2 0 -3 7q-2 8 -2 14q0 5 2 13l2 5h146v146q0 4 20 4t20 -4v-146h145q3 0 4 -6q1 -4 1 -13t-1 -13q-1 -7 -4 -7h-145v-145q0 -1 -6 -3q-10 -2 -15 -2q-9 0 -13 1q-6 2 -6 3v146h-145zM364 37q2 0 4 -5q1 -4 1 -13t-1 -12q-1 -6 -4 -6h-330q-1 0 -3 6q-2 8 -2 13
q0 8 1 12q2 5 3 5h331z" />
    <glyph glyph-name="uni00B2" unicode="&#xb2;" horiz-adv-x="251" 
d="M49.5 449.5q12.5 21.5 39.5 57.5q37 54 52 83.5t15 58.5q0 28 -13.5 43.5t-36.5 15.5q-24 0 -42 -16.5t-24 -41.5q0 -2 -4 -2q-3 0 -6 1.5t-2 3.5q12 37 35 56.5t61 19.5t59 -19.5t21 -51.5q0 -28 -18 -56t-62 -79q-27 -29 -40.5 -47t-19.5 -33q0 -3 3 -3q67 0 93 3
q24 3 33 12.5t18 38.5q0 2 4 2q3 0 3 -2l-1 -87q0 -5 -4 -5h-179q-2 0 -3 2t0 4q6 20 18.5 41.5z" />
    <glyph glyph-name="uni00B3" unicode="&#xb3;" horiz-adv-x="251" 
d="M217 495q0 -41 -28 -70t-74 -29q-37 0 -60 18.5t-32 50.5q-1 4 5 5.5t7 -2.5q6 -23 25.5 -38t47.5 -15t44.5 17t16.5 52q0 36 -21 58.5t-54 22.5q-3 0 -3 6t3 6q28 0 45 21.5t17 50.5q0 25 -14 41.5t-38 16.5q-22 0 -40 -16.5t-23 -40.5q-2 -2 -5 -2t-5.5 1.5t-1.5 3.5
q9 35 32.5 55.5t61.5 20.5q36 0 58.5 -20.5t22.5 -51.5q0 -27 -17.5 -50t-47.5 -34q78 -18 78 -78z" />
    <glyph glyph-name="acute" unicode="&#xb4;" horiz-adv-x="212" 
d="M69 474q0 -2 -4 -2q-3 0 -5 2q-3 1 -2 2l52 240q1 4 20.5 9.5t32.5 5.5q9 0 8 -4z" />
    <glyph glyph-name="paragraph" unicode="&#xb6;" horiz-adv-x="639" 
d="M289.5 -180.5q-16.5 12.5 -16.5 30.5q0 15 8 24.5t23 9.5q16 0 23 -6t14 -22q9 -16 15.5 -21.5t21.5 -5.5q28 0 40 41q11 42 11 138v117q-36 -3 -79 -3q-80 0 -146 27t-107 84q-43 58 -43 153q0 117 71 179.5t198 62.5q31 0 64 -3q21 0 38 -1q34 -2 47 -2l58 2l52 1
q2 0 2 -6t-2 -6q-43 0 -66 -21t-23 -60l1 -477q0 -130 -38 -189t-124 -59q-26 0 -42.5 12.5z" />
    <glyph glyph-name="periodcentered" unicode="&#xb7;" horiz-adv-x="195" 
d="M65 169q-12 12 -12 32q0 19 12 30t32 11q21 0 32.5 -11t11.5 -30q0 -20 -11.5 -32t-32.5 -12q-20 0 -32 12z" />
    <glyph glyph-name="cedilla" unicode="&#xb8;" horiz-adv-x="232" 
d="M114 -2q-13 -40 -13 -55q0 -14 9 -21q7 -7 35 -24q27 -15 40.5 -33t13.5 -44q0 -39 -28 -67.5t-76 -28.5q-28 0 -46 10t-18 28q0 13 9 21.5t21 8.5q11 0 17 -5t12 -17q7 -14 15 -20t22 -6q34 0 34 38q0 26 -18.5 46.5t-67.5 46.5q-14 8 -14 13q0 2 5 17l25 64q1 5 5 15
q4 11 5 14z" />
    <glyph glyph-name="uni00B9" unicode="&#xb9;" horiz-adv-x="262" 
d="M47 402q-2 0 -2 6t2 6q35 0 47 4t17 18q4 12 4 47v118q0 48 -2 66q-2 14 -15 14q-12 0 -58 -20h-1q-4 0 -6.5 5t1.5 6l115 55q1 1 3 1q3 0 5 -2.5t2 -5.5v-237q0 -35 4 -47q5 -14 17 -18q11 -4 43 -4q3 0 3 -6t-3 -6l-35 1q-40 2 -50 2q-11 0 -53 -2z" />
    <glyph glyph-name="ordmasculine" unicode="&#xba;" horiz-adv-x="315" 
d="M61.5 399q-35.5 40 -35.5 99q0 41 20 71t54 46q31 15 65 15q37 0 66 -18.5t45 -50.5q15 -32 15 -66q0 -37 -18.5 -68.5t-50.5 -49.5t-69 -18q-56 0 -91.5 40zM225.5 401.5q21.5 27.5 21.5 75.5q0 58 -28.5 97.5t-72.5 39.5q-36 0 -56 -25.5t-20 -71.5q0 -59 28.5 -101
t69.5 -42q36 0 57.5 27.5zM37 287q-2 0 -3.5 4.5t-1.5 9.5q0 6 1 9q1 4 3 4h243q5 0 5 -13q0 -5 -1.5 -9.5t-3.5 -4.5h-242z" />
    <glyph glyph-name="guillemotright" unicode="&#xbb;" horiz-adv-x="456" 
d="M245 212q5 -5 5 -11q0 -7 -5 -12l-177 -149q0 -1 -2 -1t-4 2.5t-1 4.5l122 154l-122 156q-1 2 2.5 5t4.5 0zM397 212q5 -5 5 -11q0 -7 -5 -12l-177 -149q0 -1 -2 -1t-4 2.5t-1 4.5l122 154l-122 156q-1 2 2.5 5t4.5 0z" />
    <glyph glyph-name="onequarter" unicode="&#xbc;" horiz-adv-x="600" 
d="M226 315q0 -6 -3 -6q-26 0 -35 1l-50 1l-53 -1q-9 -1 -38 -1q-2 0 -2 6q0 5 2 5q35 0 47 4t17 18q4 12 4 47v119q0 48 -2 66q-2 14 -15 14q-7 0 -23 -6t-35 -15h-1q-4 0 -6.5 5t1.5 6l115 56h2q3 0 5.5 -2.5t2.5 -4.5v-238q0 -35 4 -47q5 -14 17 -18q11 -4 43 -4
q3 0 3 -5zM439 627q0 1 2 1q5 0 14 -4t8 -6l-280 -618q0 -1 -2 -1q-5 0 -14 4.5t-8 6.5zM528 90v-49q0 -15 2 -20t11 -7q9 -3 31 -3q1 -1 1 -6t-1 -6l-61 1l-78 -1q-1 0 -1 6t1 6q22 0 36 2q11 2 14.5 8t3.5 20v51q-90 2 -125 2q-2 0 -4 2.5t0 3.5l157 223q2 2 5 2q8 0 8 -4
v-208l44 2q3 0 3 -13q0 -14 -3 -14zM487 111v149l-91 -148q-3 -3 2 -3q25 0 89 2z" />
    <glyph glyph-name="onehalf" unicode="&#xbd;" horiz-adv-x="610" 
d="M45 315q0 5 2 5q35 0 47 4t17 18q4 12 4 47v119q0 48 -2 66q-2 14 -15 14q-7 0 -23 -6t-35 -15h-1q-4 0 -6.5 5t1.5 6l115 56h2q3 0 5.5 -2.5t2.5 -4.5v-238q0 -35 4 -47q5 -14 17 -18q11 -4 43 -4q3 0 3 -5q0 -6 -3 -6q-26 0 -35 1l-50 1l-53 -1q-9 -1 -38 -1q-2 0 -2 6
zM183 0q0 -1 -2 -1q-5 0 -14 4.5t-8 6.5l280 617q0 1 2 1q5 0 14 -4t8 -6zM406.5 44q10.5 18 40.5 60q38 53 53 82.5t15 60.5q0 27 -13.5 42t-36.5 15q-24 0 -42 -15.5t-24 -40.5q0 -3 -4 -3q-3 0 -6 1.5t-2 3.5q12 37 35 56.5t61 19.5t59 -19.5t21 -51.5q0 -27 -19 -57
t-62 -77q-48 -54 -59 -80q0 -3 3 -3q68 0 93 3q24 2 33 11.5t18 38.5q0 2 4 2q3 0 3 -2l-1 -86q0 -5 -4 -5h-179q-4 0 -3 6q6 20 16.5 38z" />
    <glyph glyph-name="threequarters" unicode="&#xbe;" horiz-adv-x="589" 
d="M189 331.5q-28 -28.5 -74 -28.5q-37 0 -60 18.5t-32 50.5q-1 4 5 5t7 -3q6 -23 25.5 -38t47.5 -15t44.5 16.5t16.5 51.5q0 38 -21 60t-54 22q-3 0 -3 6t3 6q28 0 45 21.5t17 50.5q0 25 -14 41.5t-38 16.5q-22 0 -40 -16.5t-23 -39.5q-1 -3 -5 -3q-3 0 -5.5 1.5t-1.5 3.5
q9 35 32.5 55.5t61.5 20.5q37 0 59 -20t22 -52q0 -26 -18.5 -49t-46.5 -35q78 -16 78 -78q0 -41 -28 -69.5zM428 627q0 1 2 1q5 0 14 -4t8 -6l-280 -618q0 -1 -2 -1q-5 0 -14 4.5t-8 6.5zM517 90v-49q0 -15 2 -20t11 -7q9 -3 31 -3q1 -1 1 -6t-1 -6l-61 1l-78 -1q-1 0 -1 6
t1 6q22 0 36 2q11 2 14.5 8t3.5 20v51q-90 2 -125 2q-2 0 -4 2.5t0 3.5l157 223q2 2 5 2q8 0 8 -4v-208l44 2q3 0 3 -13q0 -14 -3 -14zM476 111v149l-91 -148q-3 -3 2 -3q25 0 89 2z" />
    <glyph glyph-name="questiondown" unicode="&#xbf;" horiz-adv-x="327" 
d="M212 349q12 -12 12 -32q0 -19 -12 -30t-32 -11q-21 0 -32.5 11t-11.5 30q0 20 11.5 32t32.5 12q20 0 32 -12zM199.5 -250.5q9.5 11.5 11.5 35.5q4 22 12.5 33t26.5 11q15 0 24.5 -10.5t9.5 -23.5q0 -29 -35 -49.5t-84 -20.5q-61 0 -98.5 32t-37.5 88q0 52 36 92l41 41
q35 34 49 61.5t14 62.5q0 22 -6 55q-1 3 5 4t7 -2q11 -25 18.5 -60.5t7.5 -58.5q0 -29 -11.5 -50t-37.5 -47q-29 -30 -41.5 -52.5t-12.5 -57.5q0 -43 19.5 -69t50.5 -26q22 0 31.5 11.5z" />
    <glyph glyph-name="Agrave" unicode="&#xc0;" 
d="M215 758q0 3 10 7q14 8 33.5 14.5t23.5 4.5l29 -18q110 -65 133 -77q2 -2 2 -4q0 -3 -2 -5t-4 -1q-114 50 -223 77q-2 0 -2 2zM703 6q0 -6 -4 -6l-59 2l-58 2q-10 0 -56 -2l-49 -2q-4 0 -4 6t4 6q39 0 54 7q17 8 17 24t-13 43l-89 189h-238l-63 -148q-14 -36 -14 -55
q0 -60 98 -60q5 0 5 -6t-5 -6l-52 2q-50 2 -66 2q-14 0 -60 -2q-40 -2 -50 -2q-5 0 -5 6t5 6q28 0 47.5 10.5t37.5 37.5q17 26 38 76l211 498q2 3 7 3t6 -3l236 -497q35 -75 58 -99q24 -26 57 -26q4 0 4 -6zM216 295h221l-117 247z" />
    <glyph glyph-name="Aacute" unicode="&#xc1;" 
d="M243 678q-4 0 -5.5 4.5t1.5 6.5q50 26 103 59q50 29 60 35q4 3 23 -3t35 -15q14 -7 6 -9q-118 -30 -222 -78h-1zM703 6q0 -6 -4 -6l-59 2l-58 2q-10 0 -56 -2l-49 -2q-4 0 -4 6t4 6q39 0 54 7q17 8 17 24t-13 43l-89 189h-238l-63 -148q-14 -36 -14 -55q0 -60 98 -60
q5 0 5 -6t-5 -6l-52 2q-50 2 -66 2q-14 0 -60 -2q-40 -2 -50 -2q-5 0 -5 6t5 6q28 0 47.5 10.5t37.5 37.5q17 26 38 76l211 498q2 3 7 3t6 -3l236 -497q35 -75 58 -99q24 -26 57 -26q4 0 4 -6zM216 295h221l-117 247z" />
    <glyph glyph-name="Acircumflex" unicode="&#xc2;" 
d="M232 648q-2 -1 -5 2.5t-1 4.5l103 97q5 5 12 5q6 0 11 -5l102 -97q1 0 1 -2t-2.5 -4t-3.5 -1l-108 57zM703 6q0 -6 -4 -6l-59 2l-58 2q-10 0 -56 -2l-49 -2q-4 0 -4 6t4 6q39 0 54 7q17 8 17 24t-13 43l-89 189h-238l-63 -148q-14 -36 -14 -55q0 -60 98 -60q5 0 5 -6
t-5 -6l-52 2q-50 2 -66 2q-14 0 -60 -2q-40 -2 -50 -2q-5 0 -5 6t5 6q28 0 47.5 10.5t37.5 37.5q17 26 38 76l211 498q2 3 7 3t6 -3l236 -497q35 -75 58 -99q24 -26 57 -26q4 0 4 -6zM216 295h221l-117 247z" />
    <glyph glyph-name="Atilde" unicode="&#xc3;" 
d="M213 719q-3 0 -5 2.5t0 4.5q45 61 85 61q16 0 50 -10q48 -14 75 -14q16 0 25.5 6t23.5 21h1q3 0 5.5 -2.5t0.5 -4.5q-26 -36 -43 -49t-36 -13q-21 0 -61 12l-25 7q-23 6 -45 6q-23 0 -38 -17q-8 -8 -11 -10h-2zM703 6q0 -6 -4 -6l-59 2l-58 2q-10 0 -56 -2l-49 -2
q-4 0 -4 6t4 6q39 0 54 7q17 8 17 24t-13 43l-89 189h-238l-63 -148q-14 -36 -14 -55q0 -60 98 -60q5 0 5 -6t-5 -6l-52 2q-50 2 -66 2q-14 0 -60 -2q-40 -2 -50 -2q-5 0 -5 6t5 6q28 0 47.5 10.5t37.5 37.5q17 26 38 76l211 498q2 3 7 3t6 -3l236 -497q35 -75 58 -99
q24 -26 57 -26q4 0 4 -6zM216 295h221l-117 247z" />
    <glyph glyph-name="Adieresis" unicode="&#xc4;" 
d="M222.5 728q-11.5 11 -11.5 30t11.5 30t31.5 11q41 0 41 -41q0 -19 -10.5 -30t-30.5 -11t-31.5 11zM397.5 728q-11.5 11 -11.5 30t11.5 30t31.5 11q42 0 42 -41t-42 -41q-20 0 -31.5 11zM703 6q0 -6 -4 -6l-59 2l-58 2q-10 0 -56 -2l-49 -2q-4 0 -4 6t4 6q39 0 54 7
q17 8 17 24t-13 43l-89 189h-238l-63 -148q-14 -36 -14 -55q0 -60 98 -60q5 0 5 -6t-5 -6l-52 2q-50 2 -66 2q-14 0 -60 -2q-40 -2 -50 -2q-5 0 -5 6t5 6q28 0 47.5 10.5t37.5 37.5q17 26 38 76l211 498q2 3 7 3t6 -3l236 -497q35 -75 58 -99q24 -26 57 -26q4 0 4 -6z
M216 295h221l-117 247z" />
    <glyph glyph-name="Aring" unicode="&#xc5;" 
d="M272.5 687.5q-24.5 23.5 -24.5 56.5q0 34 29.5 55.5t68.5 21.5q36 0 62 -23t26 -56q0 -34 -29 -56t-69 -22q-39 0 -63.5 23.5zM301 799.5q-8 -11.5 -8 -35.5q0 -35 16.5 -62t41.5 -27q37 0 37 49q0 36 -18 61.5t-44 25.5q-17 0 -25 -11.5zM703 6q0 -6 -4 -6l-59 2l-58 2
q-10 0 -56 -2l-49 -2q-4 0 -4 6t4 6q39 0 54 7q17 8 17 24t-13 43l-89 189h-238l-63 -148q-14 -36 -14 -55q0 -60 98 -60q5 0 5 -6t-5 -6l-52 2q-50 2 -66 2q-14 0 -60 -2q-40 -2 -50 -2q-5 0 -5 6t5 6q28 0 47.5 10.5t37.5 37.5q17 26 38 76l211 498q2 3 7 3t6 -3l236 -497
q35 -75 58 -99q24 -26 57 -26q4 0 4 -6zM216 295h221l-117 247z" />
    <glyph glyph-name="AE" unicode="&#xc6;" horiz-adv-x="874" 
d="M817 151q3 0 5.5 -1.5t2.5 -2.5q-9 -63 -9 -132q0 -8 -3.5 -11.5t-12.5 -3.5h-408q-2 0 -2 6t2 6q35 0 55 5q17 5 23.5 19.5t6.5 44.5v234h-172l-129 -189q-30 -43 -30 -71q0 -43 78 -43q5 0 5 -6t-5 -6l-54 2q-54 2 -69 2q-14 0 -54 -2l-44 -2q-5 0 -5 6t5 6q31 0 69 31
t78 89l303 442q13 17 13 25q0 9 -16 12q-22 2 -61 2q-2 0 -2 6t2 6h394q9 0 9 -9l2 -123q0 -3 -5.5 -3.5t-5.5 2.5q-2 48 -32.5 80t-75.5 32h-54q-32 0 -50 -5q-17 -5 -23.5 -17.5t-6.5 -38.5v-207h112q49 0 69.5 16t20.5 54q0 2 6 2t6 -2l-1 -81q0 -34 1 -44l1 -48
q0 -2 -6 -2t-6 2q0 44 -21.5 63t-71.5 19h-110v-230q0 -27 6.5 -40.5t22.5 -18.5q18 -5 49 -5h73q43 0 77 36t44 92q0 2 4 2zM319 336h158v231z" />
    <glyph glyph-name="Ccedilla" unicode="&#xc7;" horiz-adv-x="686" 
d="M627 167q7 0 7 -3l-10 -110q-1 -11 -2.5 -14.5t-8.5 -7.5q-52 -25 -97.5 -35t-104.5 -10h-2q-9 -30 -9 -44q0 -15 9 -22q7 -7 34 -23q27 -15 40.5 -33t13.5 -44q0 -39 -28 -67.5t-76 -28.5q-28 0 -46 10t-18 28q0 13 9 21.5t21 8.5q11 0 17 -5t12 -17q7 -14 15 -20t22 -6
q34 0 34 38q0 26 -18.5 46.5t-67.5 46.5q-14 8 -14 13q0 2 5 17l31 81q-101 3 -179 45.5t-123 116.5q-44 74 -44 168q0 93 47 166t130 113q81 40 185 40q63 0 106 -9t86 -31q6 -3 7.5 -5.5t2 -8t1.5 -8.5l12 -119q0 -3 -5.5 -3.5t-6.5 2.5q-47 167 -206 167q-84 0 -148 -37
t-99 -105q-35 -70 -35 -160q0 -86 38.5 -159t104.5 -115q65 -42 142 -42q81 0 132.5 40t78.5 122q0 2 5 2z" />
    <glyph glyph-name="Egrave" unicode="&#xc8;" horiz-adv-x="537" 
d="M166 758q0 3 10 7q14 8 33.5 14.5t23.5 4.5l29 -18q110 -65 133 -77q2 -2 2 -4q0 -3 -2 -5t-4 -1q-114 50 -223 77q-2 0 -2 2zM479 151q8 0 8 -4q-9 -63 -9 -132q0 -8 -3.5 -11.5t-12.5 -3.5h-419q-2 0 -2 6t2 6q36 0 56 5q17 5 23.5 19.5t6.5 44.5v463q0 30 -6.5 44
t-23.5 20q-20 5 -56 5q-2 0 -2 6t2 6h402q9 0 9 -9l2 -123q0 -3 -5 -3.5t-6 2.5q-3 53 -32 82.5t-77 29.5h-61q-33 0 -51 -5q-16 -6 -23 -19.5t-7 -40.5v-203h122q48 0 68.5 16t20.5 54q0 2 6 2t6 -2l-1 -81q0 -34 1 -44l1 -48q0 -2 -6 -2t-6 2q0 44 -21.5 63t-71.5 19h-119
v-230q0 -28 6 -41t22 -18q18 -5 50 -5h80q48 0 80 33.5t43 94.5q0 2 4 2z" />
    <glyph glyph-name="Eacute" unicode="&#xc9;" horiz-adv-x="537" 
d="M193 678q-4 0 -5 4.5t2 6.5l109 62q18 12 54 33q4 2 23.5 -4.5t33.5 -14.5t7 -9q-59 -14 -109.5 -32t-112.5 -45zM479 151q8 0 8 -4q-9 -63 -9 -132q0 -8 -3.5 -11.5t-12.5 -3.5h-419q-2 0 -2 6t2 6q36 0 56 5q17 5 23.5 19.5t6.5 44.5v463q0 30 -6.5 44t-23.5 20
q-20 5 -56 5q-2 0 -2 6t2 6h402q9 0 9 -9l2 -123q0 -3 -5 -3.5t-6 2.5q-3 53 -32 82.5t-77 29.5h-61q-33 0 -51 -5q-16 -6 -23 -19.5t-7 -40.5v-203h122q48 0 68.5 16t20.5 54q0 2 6 2t6 -2l-1 -81q0 -34 1 -44l1 -48q0 -2 -6 -2t-6 2q0 44 -21.5 63t-71.5 19h-119v-230
q0 -28 6 -41t22 -18q18 -5 50 -5h80q48 0 80 33.5t43 94.5q0 2 4 2z" />
    <glyph glyph-name="Ecircumflex" unicode="&#xca;" horiz-adv-x="537" 
d="M184 685q-2 -1 -5 2.5t-1 4.5l103 98q5 5 12 5q6 0 11 -5l102 -98q1 0 1 -2t-2.5 -4t-3.5 -1l-108 58zM479 151q8 0 8 -4q-9 -63 -9 -132q0 -8 -3.5 -11.5t-12.5 -3.5h-419q-2 0 -2 6t2 6q36 0 56 5q17 5 23.5 19.5t6.5 44.5v463q0 30 -6.5 44t-23.5 20q-20 5 -56 5
q-2 0 -2 6t2 6h402q9 0 9 -9l2 -123q0 -3 -5 -3.5t-6 2.5q-3 53 -32 82.5t-77 29.5h-61q-33 0 -51 -5q-16 -6 -23 -19.5t-7 -40.5v-203h122q48 0 68.5 16t20.5 54q0 2 6 2t6 -2l-1 -81q0 -34 1 -44l1 -48q0 -2 -6 -2t-6 2q0 44 -21.5 63t-71.5 19h-119v-230q0 -28 6 -41
t22 -18q18 -5 50 -5h80q48 0 80 33.5t43 94.5q0 2 4 2z" />
    <glyph glyph-name="Edieresis" unicode="&#xcb;" horiz-adv-x="537" 
d="M173.5 728q-11.5 11 -11.5 30t11.5 30t31.5 11q41 0 41 -41q0 -19 -10.5 -30t-30.5 -11t-31.5 11zM348.5 728q-11.5 11 -11.5 30t11.5 30t31.5 11q42 0 42 -41t-42 -41q-20 0 -31.5 11zM479 151q8 0 8 -4q-9 -63 -9 -132q0 -8 -3.5 -11.5t-12.5 -3.5h-419q-2 0 -2 6t2 6
q36 0 56 5q17 5 23.5 19.5t6.5 44.5v463q0 30 -6.5 44t-23.5 20q-20 5 -56 5q-2 0 -2 6t2 6h402q9 0 9 -9l2 -123q0 -3 -5 -3.5t-6 2.5q-3 53 -32 82.5t-77 29.5h-61q-33 0 -51 -5q-16 -6 -23 -19.5t-7 -40.5v-203h122q48 0 68.5 16t20.5 54q0 2 6 2t6 -2l-1 -81
q0 -34 1 -44l1 -48q0 -2 -6 -2t-6 2q0 44 -21.5 63t-71.5 19h-119v-230q0 -28 6 -41t22 -18q18 -5 50 -5h80q48 0 80 33.5t43 94.5q0 2 4 2z" />
    <glyph glyph-name="Igrave" unicode="&#xcc;" horiz-adv-x="332" 
d="M42 756q-2 0 -2 2q0 3 10 7q14 8 33.5 14.5t23.5 4.5l29 -18q110 -65 133 -77q2 -2 2 -4q0 -3 -2 -5t-4 -1q-114 50 -223 77zM199 81q0 -31 6 -45t24 -19t55 -5q3 0 3 -6t-3 -6q-36 0 -48 1l-71 1l-69 -1q-12 -1 -49 -1q-3 0 -3 6t3 6q36 0 56 5q17 5 23.5 19.5t6.5 44.5
v463q0 30 -6.5 44t-23.5 20q-20 5 -56 5q-3 0 -3 6t3 6l49 -1q56 -2 69 -2q16 0 72 2l47 1q3 0 3 -6t-3 -6q-38 0 -54 -6q-18 -6 -24.5 -20.5t-6.5 -44.5v-461z" />
    <glyph glyph-name="Iacute" unicode="&#xcd;" horiz-adv-x="332" 
d="M67 678q-4 0 -5 4.5t2 6.5l109 62q18 12 54 33q4 2 23.5 -4.5t33.5 -14.5t7 -9q-59 -14 -109.5 -32t-112.5 -45zM199 81q0 -31 6 -45t24 -19t55 -5q3 0 3 -6t-3 -6q-36 0 -48 1l-71 1l-69 -1q-12 -1 -49 -1q-3 0 -3 6t3 6q36 0 56 5q17 5 23.5 19.5t6.5 44.5v463
q0 30 -6.5 44t-23.5 20q-20 5 -56 5q-3 0 -3 6t3 6l49 -1q56 -2 69 -2q16 0 72 2l47 1q3 0 3 -6t-3 -6q-38 0 -54 -6q-18 -6 -24.5 -20.5t-6.5 -44.5v-461z" />
    <glyph glyph-name="Icircumflex" unicode="&#xce;" horiz-adv-x="332" 
d="M155 790q5 5 12 5q6 0 11 -5l102 -98q1 0 1 -2t-2.5 -4t-3.5 -1l-108 58l-109 -58q-2 -1 -5 2.5t-1 4.5zM199 81q0 -31 6 -45t24 -19t55 -5q3 0 3 -6t-3 -6q-36 0 -48 1l-71 1l-69 -1q-12 -1 -49 -1q-3 0 -3 6t3 6q36 0 56 5q17 5 23.5 19.5t6.5 44.5v463q0 30 -6.5 44
t-23.5 20q-20 5 -56 5q-3 0 -3 6t3 6l49 -1q56 -2 69 -2q16 0 72 2l47 1q3 0 3 -6t-3 -6q-38 0 -54 -6q-18 -6 -24.5 -20.5t-6.5 -44.5v-461z" />
    <glyph glyph-name="Idieresis" unicode="&#xcf;" horiz-adv-x="332" 
d="M63.5 728q-11.5 11 -11.5 30t11.5 30t31.5 11t31 -11t11 -30t-11 -30t-31 -11t-31.5 11zM206.5 728q-11.5 11 -11.5 30t11.5 30t31.5 11q41 0 41 -41q0 -19 -10.5 -30t-30.5 -11t-31.5 11zM199 81q0 -31 6 -45t24 -19t55 -5q3 0 3 -6t-3 -6q-36 0 -48 1l-71 1l-69 -1
q-12 -1 -49 -1q-3 0 -3 6t3 6q36 0 56 5q17 5 23.5 19.5t6.5 44.5v463q0 30 -6.5 44t-23.5 20q-20 5 -56 5q-3 0 -3 6t3 6l49 -1q56 -2 69 -2q16 0 72 2l47 1q3 0 3 -6t-3 -6q-38 0 -54 -6q-18 -6 -24.5 -20.5t-6.5 -44.5v-461z" />
    <glyph glyph-name="Eth" unicode="&#xd0;" horiz-adv-x="691" 
d="M472.5 587.5q80.5 -39.5 125.5 -109.5q44 -70 44 -155q0 -95 -45 -170t-124 -116t-170 -41q-29 0 -67 3q-57 3 -83 3l-68 -1q-12 -1 -50 -1q-2 0 -2 6t2 6q36 0 56 5q17 5 23.5 19.5t6.5 44.5v220h-68q-4 0 -4 10t4 10h68v223q0 31 -6 44.5t-23 19.5q-20 5 -56 5
q-2 0 -2 6t2 6l50 -1q56 -2 67 -2q38 0 75 3l61 2q103 0 183.5 -39.5zM436 45q62 34 96 99q34 64 34 157q0 87 -33 158t-94 112q-62 41 -141 41q-45 0 -67.5 -5.5t-33.5 -19.5q-11 -16 -11 -45v-221h136q4 0 4 -10t-4 -10h-136v-209q0 -31 9 -47.5t32 -24.5q23 -9 66 -9
q81 0 143 34z" />
    <glyph glyph-name="Ntilde" unicode="&#xd1;" horiz-adv-x="727" 
d="M250 697q-3 0 -5.5 2.5t-0.5 4.5q17 26 40 44.5t45 18.5q15 0 50 -11l29 -7q21 -7 46 -7q16 0 26 6t23 21h2q3 0 5 -2.5t0 -4.5q-26 -36 -43 -49t-36 -13q-21 0 -61 12q-43 12 -69 12q-25 0 -40 -17l-10 -10h-1zM704 625q3 0 3 -6t-3 -6q-42 0 -61 -23t-19 -75v-527
q0 -2 -5 -3t-7 1l-460 557l-9 10v-444q0 -52 18.5 -74.5t59.5 -22.5q3 0 3 -6t-3 -6q-29 0 -38 1l-50 1l-51 -1q-9 -1 -41 -1q-2 0 -2 6t2 6q43 0 61 22.5t18 74.5v468q-39 36 -79 36q-3 0 -3 6t3 6l37 -1q8 -1 33 -1q27 0 36 1t22 1q8 0 11 -3t12 -16q12 -18 24 -33
l385 -473v415q0 52 -17.5 75t-58.5 23q-2 0 -2 6t2 6l39 -1q40 -2 49 -2l50 2z" />
    <glyph glyph-name="Ograve" unicode="&#xd2;" horiz-adv-x="766" 
d="M261 756q-2 0 -2 2q0 3 10 7q14 8 33.5 14.5t23.5 4.5l29 -18q110 -65 133 -77q2 -2 2 -4q0 -3 -2 -5t-4 -1q-114 50 -223 77zM201 31q-73 43 -112 119q-40 73 -40 162q0 100 50.5 174.5t135.5 112.5q80 37 166 37q93 0 165.5 -43.5t112.5 -118.5q38 -74 38 -155
q0 -90 -47.5 -166t-128.5 -121q-82 -44 -175 -44q-92 0 -165 43zM524.5 42.5q54.5 33.5 85.5 96.5t31 152q0 93 -35 166.5t-98 114.5q-65 41 -149 41q-110 0 -172 -71t-62 -195q0 -94 35 -171.5t98 -121.5q63 -45 143 -45q69 0 123.5 33.5z" />
    <glyph glyph-name="Oacute" unicode="&#xd3;" horiz-adv-x="766" 
d="M286 678q-4 0 -5 4.5t2 6.5l109 62q18 12 54 33q4 2 23.5 -4.5t33.5 -14.5t7 -9q-59 -14 -109.5 -32t-112.5 -45zM201 31q-73 43 -112 119q-40 73 -40 162q0 100 50.5 174.5t135.5 112.5q80 37 166 37q93 0 165.5 -43.5t112.5 -118.5q38 -74 38 -155q0 -90 -47.5 -166
t-128.5 -121q-82 -44 -175 -44q-92 0 -165 43zM524.5 42.5q54.5 33.5 85.5 96.5t31 152q0 93 -35 166.5t-98 114.5q-65 41 -149 41q-110 0 -172 -71t-62 -195q0 -94 35 -171.5t98 -121.5q63 -45 143 -45q69 0 123.5 33.5z" />
    <glyph glyph-name="Ocircumflex" unicode="&#xd4;" horiz-adv-x="766" 
d="M374 790q5 5 12 5q6 0 11 -5l102 -98q1 0 1 -2t-2.5 -4t-3.5 -1l-108 58l-109 -58q-2 -1 -5 2.5t-1 4.5zM201 31q-73 43 -112 119q-40 73 -40 162q0 100 50.5 174.5t135.5 112.5q80 37 166 37q93 0 165.5 -43.5t112.5 -118.5q38 -74 38 -155q0 -90 -47.5 -166
t-128.5 -121q-82 -44 -175 -44q-92 0 -165 43zM524.5 42.5q54.5 33.5 85.5 96.5t31 152q0 93 -35 166.5t-98 114.5q-65 41 -149 41q-110 0 -172 -71t-62 -195q0 -94 35 -171.5t98 -121.5q63 -45 143 -45q69 0 123.5 33.5z" />
    <glyph glyph-name="Otilde" unicode="&#xd5;" horiz-adv-x="766" 
d="M489 748q10 6 23 21h2q3 0 5 -2.5t0 -4.5q-26 -36 -43 -49t-36 -13q-20 0 -61 12q-43 12 -69 12q-25 0 -40 -17l-10 -10h-1q-3 0 -5.5 2.5t-0.5 4.5q17 26 40 44.5t45 18.5q15 0 50 -11l29 -7q21 -7 46 -7q16 0 26 6zM201 31q-73 43 -112 119q-40 73 -40 162
q0 100 50.5 174.5t135.5 112.5q80 37 166 37q93 0 165.5 -43.5t112.5 -118.5q38 -74 38 -155q0 -90 -47.5 -166t-128.5 -121q-82 -44 -175 -44q-92 0 -165 43zM524.5 42.5q54.5 33.5 85.5 96.5t31 152q0 93 -35 166.5t-98 114.5q-65 41 -149 41q-110 0 -172 -71t-62 -195
q0 -94 35 -171.5t98 -121.5q63 -45 143 -45q69 0 123.5 33.5z" />
    <glyph glyph-name="Odieresis" unicode="&#xd6;" horiz-adv-x="766" 
d="M266.5 728q-11.5 11 -11.5 30t11.5 30t31.5 11q41 0 41 -41q0 -19 -10.5 -30t-30.5 -11t-31.5 11zM441.5 728q-11.5 11 -11.5 30t11.5 30t31.5 11q42 0 42 -41t-42 -41q-20 0 -31.5 11zM201 31q-73 43 -112 119q-40 73 -40 162q0 100 50.5 174.5t135.5 112.5
q80 37 166 37q93 0 165.5 -43.5t112.5 -118.5q38 -74 38 -155q0 -90 -47.5 -166t-128.5 -121q-82 -44 -175 -44q-92 0 -165 43zM524.5 42.5q54.5 33.5 85.5 96.5t31 152q0 93 -35 166.5t-98 114.5q-65 41 -149 41q-110 0 -172 -71t-62 -195q0 -94 35 -171.5t98 -121.5
q63 -45 143 -45q69 0 123.5 33.5z" />
    <glyph glyph-name="multiply" unicode="&#xd7;" horiz-adv-x="382" 
d="M322 88q3 -4 -11 -18t-18 -11l-102 102l-103 -102q-2 -4 -16.5 10.5t-12.5 16.5l104 104l-102 103q-4 2 10.5 16.5t16.5 11.5l103 -103l102 102q4 3 18 -11t11 -18l-102 -101z" />
    <glyph glyph-name="Oslash" unicode="&#xd8;" horiz-adv-x="771" 
d="M625 546q44 -44 68 -104t24 -123q0 -90 -47.5 -166t-128.5 -121q-82 -44 -175 -44q-63 0 -117 20t-96 59l-73 -74l-2 -1q-4 0 -10 6.5t-3 9.5l73 74q-43 44 -66 103.5t-23 126.5q0 100 50.5 174.5t135.5 112.5q80 37 166 37q123 0 209 -75l68 69l2 1q5 0 11 -6t3 -8z
M185 130l383 388q-37 46 -90.5 70.5t-118.5 24.5q-110 0 -172 -71t-62 -195q0 -126 60 -217zM524.5 42.5q54.5 33.5 85.5 96.5t31 152q0 61 -15.5 115t-44.5 96l-384 -390q37 -49 89.5 -76t114.5 -27q69 0 123.5 33.5z" />
    <glyph glyph-name="Ugrave" unicode="&#xd9;" horiz-adv-x="698" 
d="M250 756q-2 0 -2 2q0 3 10 7q14 8 33.5 14.5t23.5 4.5l29 -18q110 -65 133 -77q2 -2 2 -4q0 -3 -2 -5t-4 -1q-114 50 -223 77zM572 515q0 98 -87 98q-3 0 -3 6t3 6l43 -1l57 -2l49 2l42 1q2 0 2 -6t-2 -6q-80 0 -80 -98v-284q0 -114 -63.5 -179t-172.5 -65
q-74 0 -129.5 29t-85.5 83q-31 52 -31 125v320q0 31 -6 44.5t-23 19.5q-20 5 -56 5q-2 0 -2 6t2 6l49 -1l68 -2q14 0 70 2l48 1q3 0 3 -6t-3 -6q-37 0 -55 -6t-24 -20t-6 -45v-283q0 -116 53 -179t150 -63q90 0 140 56.5t50 156.5v285z" />
    <glyph glyph-name="Uacute" unicode="&#xda;" horiz-adv-x="698" 
d="M275 678q-4 0 -5 4.5t2 6.5l109 62q18 12 54 33q4 2 23.5 -4.5t33.5 -14.5t7 -9q-59 -14 -109.5 -32t-112.5 -45zM572 515q0 98 -87 98q-3 0 -3 6t3 6l43 -1l57 -2l49 2l42 1q2 0 2 -6t-2 -6q-80 0 -80 -98v-284q0 -114 -63.5 -179t-172.5 -65q-74 0 -129.5 29t-85.5 83
q-31 52 -31 125v320q0 31 -6 44.5t-23 19.5q-20 5 -56 5q-2 0 -2 6t2 6l49 -1l68 -2q14 0 70 2l48 1q3 0 3 -6t-3 -6q-37 0 -55 -6t-24 -20t-6 -45v-283q0 -116 53 -179t150 -63q90 0 140 56.5t50 156.5v285z" />
    <glyph glyph-name="Ucircumflex" unicode="&#xdb;" horiz-adv-x="698" 
d="M363 790q5 5 12 5q6 0 11 -5l102 -98q1 0 1 -2t-2.5 -4t-3.5 -1l-108 58l-109 -58q-2 -1 -5 2.5t-1 4.5zM572 515q0 98 -87 98q-3 0 -3 6t3 6l43 -1l57 -2l49 2l42 1q2 0 2 -6t-2 -6q-80 0 -80 -98v-284q0 -114 -63.5 -179t-172.5 -65q-74 0 -129.5 29t-85.5 83
q-31 52 -31 125v320q0 31 -6 44.5t-23 19.5q-20 5 -56 5q-2 0 -2 6t2 6l49 -1l68 -2q14 0 70 2l48 1q3 0 3 -6t-3 -6q-37 0 -55 -6t-24 -20t-6 -45v-283q0 -116 53 -179t150 -63q90 0 140 56.5t50 156.5v285z" />
    <glyph glyph-name="Udieresis" unicode="&#xdc;" horiz-adv-x="698" 
d="M255.5 728q-11.5 11 -11.5 30t11.5 30t31.5 11q41 0 41 -41q0 -19 -10.5 -30t-30.5 -11t-31.5 11zM430.5 728q-11.5 11 -11.5 30t11.5 30t31.5 11q42 0 42 -41t-42 -41q-20 0 -31.5 11zM572 515q0 98 -87 98q-3 0 -3 6t3 6l43 -1l57 -2l49 2l42 1q2 0 2 -6t-2 -6
q-80 0 -80 -98v-284q0 -114 -63.5 -179t-172.5 -65q-74 0 -129.5 29t-85.5 83q-31 52 -31 125v320q0 31 -6 44.5t-23 19.5q-20 5 -56 5q-2 0 -2 6t2 6l49 -1l68 -2q14 0 70 2l48 1q3 0 3 -6t-3 -6q-37 0 -55 -6t-24 -20t-6 -45v-283q0 -116 53 -179t150 -63q90 0 140 56.5
t50 156.5v285z" />
    <glyph glyph-name="Yacute" unicode="&#xdd;" horiz-adv-x="609" 
d="M219 678q-4 0 -5 4.5t2 6.5l109 62q18 12 54 33q4 2 23.5 -4.5t33.5 -14.5t7 -9q-59 -14 -109.5 -32t-112.5 -45zM614 625q2 0 2 -6t-2 -6q-36 0 -73 -26.5t-66 -72.5l-134 -206v-227q0 -31 6 -45t24 -19t55 -5q3 0 3 -6t-3 -6q-37 0 -48 1l-70 1l-69 -1q-12 -1 -49 -1
q-3 0 -3 6t3 6q36 0 56 5q17 5 23.5 19.5t6.5 44.5v211l-166 243q-27 44 -52 61t-59 17q-3 0 -3 6t3 6l36 -2l35 -1q16 0 86 2l54 1q2 0 2 -6t-2 -6q-52 0 -52 -21q0 -12 10 -25l161 -236l122 187q22 34 22 59q0 36 -54 36q-2 0 -2 6t2 6l47 -1q50 -2 70 -2q9 0 41 2z" />
    <glyph glyph-name="Thorn" unicode="&#xde;" horiz-adv-x="538" 
d="M383.5 192q43.5 45 43.5 124t-45.5 124t-121.5 45q-32 0 -69 -8v-392q0 -33 8.5 -47t33.5 -20q24 -6 77 -6q3 0 3 -6t-3 -6q-49 0 -64 1l-87 1l-66 -1q-12 -1 -50 -1q-2 0 -2 6t2 6q36 0 54 5q17 5 23 19t6 45v463q0 31 -6 44.5t-23 19.5q-18 5 -54 5q-2 0 -2 6t2 6
l50 -1q54 -2 66 -2q17 0 87 2l64 1q3 0 3 -6t-3 -6q-53 0 -77 -6t-33 -20.5t-9 -47.5v-47q42 7 94 7q102 0 159 -41.5t57 -128.5q0 -63 -31.5 -107.5t-84.5 -66.5q-48 -22 -102 -22q-20 0 -50 5q-2 0 -2 5q0 3 1.5 6t3.5 2q21 -4 36 -4q68 0 111.5 45z" />
    <glyph glyph-name="germandbls" unicode="&#xdf;" horiz-adv-x="509" 
d="M280.5 6.5q-23.5 17.5 -23.5 46.5q0 13 8 21.5t22 8.5q12 0 20.5 -8t17.5 -26q13 -23 22.5 -31.5t26.5 -8.5q26 0 43 18.5t17 48.5q0 36 -19 66t-64 73q-47 47 -67 78.5t-20 70.5q0 28 10.5 50t34.5 56q27 36 38.5 62.5t11.5 60.5q0 50 -22 84t-67 34q-58 0 -90 -69
q-32 -72 -32 -196v-365q0 -31 5 -45t18 -19q15 -5 41 -5q2 0 2 -6t-2 -6l-92 1l-99 -1q-3 0 -3 6t3 6q31 0 45 5t19 20t5 44v231q0 27 -4.5 37t-18.5 14q-13 3 -48 3q-4 0 -4 7q0 6 4 6q33 0 47 6q12 4 17 18q4 10 7 45q10 144 59 211t147 67q60 0 92.5 -28.5t32.5 -69.5
q0 -31 -14 -56t-47 -61q-30 -32 -42.5 -53t-12.5 -46q0 -30 19 -58.5t66 -75.5q52 -53 73.5 -86.5t21.5 -70.5q0 -34 -17.5 -64.5t-49.5 -48.5q-31 -19 -74 -19q-40 0 -63.5 17.5z" />
    <glyph glyph-name="agrave" unicode="&#xe0;" horiz-adv-x="419" 
d="M116 727v1q0 3 8 3q13 0 32.5 -5.5t20.5 -9.5l51 -240v-1q0 -2 -4.5 -3t-5.5 2zM415 54q4 0 5 -4.5t-3 -6.5l-103 -49q-6 -2 -8 -2q-13 0 -23 17.5t-13 47.5l-52 -34q-25 -16 -44 -23t-40 -7q-36 0 -57 19t-21 50q0 30 24 52t79 42l110 41v68q0 112 -63 112
q-31 0 -49.5 -20.5t-25.5 -53.5q-3 -20 -11.5 -30.5t-26.5 -10.5q-15 0 -24 8.5t-9 21.5q0 23 30 47t75 41q42 16 77 16q41 0 62 -26t21 -75v-187q0 -35 9 -51t30 -16q20 0 49 13h2zM269 71v112l-93 -36q-28 -11 -40.5 -25.5t-12.5 -34.5q0 -24 16 -40.5t40 -16.5
q20 0 48 16z" />
    <glyph glyph-name="aacute" unicode="&#xe1;" horiz-adv-x="419" 
d="M210 474q0 -2 -4 -2q-3 0 -5 2q-3 1 -2 2l52 240q1 4 20.5 9.5t32.5 5.5q9 0 8 -4zM415 54q4 0 5 -4.5t-3 -6.5l-103 -49q-6 -2 -8 -2q-13 0 -23 17.5t-13 47.5l-52 -34q-25 -16 -44 -23t-40 -7q-36 0 -57 19t-21 50q0 30 24 52t79 42l110 41v68q0 112 -63 112
q-31 0 -49.5 -20.5t-25.5 -53.5q-3 -20 -11.5 -30.5t-26.5 -10.5q-15 0 -24 8.5t-9 21.5q0 23 30 47t75 41q42 16 77 16q41 0 62 -26t21 -75v-187q0 -35 9 -51t30 -16q20 0 49 13h2zM269 71v112l-93 -36q-28 -11 -40.5 -25.5t-12.5 -34.5q0 -24 16 -40.5t40 -16.5
q20 0 48 16z" />
    <glyph glyph-name="acircumflex" unicode="&#xe2;" horiz-adv-x="419" 
d="M144 474q0 -2 -4 -2q-3 0 -5 2q-3 1 -2 2l68 249q2 5 11 5q10 0 12 -5l67 -249v-1q0 -2 -4.5 -3t-5.5 2l-68 164zM415 54q4 0 5 -4.5t-3 -6.5l-103 -49q-6 -2 -8 -2q-13 0 -23 17.5t-13 47.5l-52 -34q-25 -16 -44 -23t-40 -7q-36 0 -57 19t-21 50q0 30 24 52t79 42
l110 41v68q0 112 -63 112q-31 0 -49.5 -20.5t-25.5 -53.5q-3 -20 -11.5 -30.5t-26.5 -10.5q-15 0 -24 8.5t-9 21.5q0 23 30 47t75 41q42 16 77 16q41 0 62 -26t21 -75v-187q0 -35 9 -51t30 -16q20 0 49 13h2zM269 71v112l-93 -36q-28 -11 -40.5 -25.5t-12.5 -34.5
q0 -24 16 -40.5t40 -16.5q20 0 48 16z" />
    <glyph glyph-name="atilde" unicode="&#xe3;" horiz-adv-x="419" 
d="M84 480q-3 0 -5 2.5t0 4.5q45 61 85 61q16 0 50 -10q48 -14 75 -14q16 0 25.5 6t23.5 21h1q3 0 5.5 -2.5t0.5 -4.5q-26 -36 -43 -49t-36 -13q-20 0 -61 12l-25 7q-22 6 -45 6t-38 -17q-8 -8 -11 -10h-2zM415 54q4 0 5 -4.5t-3 -6.5l-103 -49q-6 -2 -8 -2q-13 0 -23 17.5
t-13 47.5l-52 -34q-25 -16 -44 -23t-40 -7q-36 0 -57 19t-21 50q0 30 24 52t79 42l110 41v68q0 112 -63 112q-31 0 -49.5 -20.5t-25.5 -53.5q-3 -20 -11.5 -30.5t-26.5 -10.5q-15 0 -24 8.5t-9 21.5q0 23 30 47t75 41q42 16 77 16q41 0 62 -26t21 -75v-187q0 -35 9 -51
t30 -16q20 0 49 13h2zM269 71v112l-93 -36q-28 -11 -40.5 -25.5t-12.5 -34.5q0 -24 16 -40.5t40 -16.5q20 0 48 16z" />
    <glyph glyph-name="adieresis" unicode="&#xe4;" horiz-adv-x="419" 
d="M93.5 489q-11.5 11 -11.5 30t11.5 30t31.5 11q41 0 41 -41q0 -19 -10.5 -30t-30.5 -11t-31.5 11zM268.5 489q-11.5 11 -11.5 30t11.5 30t31.5 11q42 0 42 -41t-42 -41q-20 0 -31.5 11zM415 54q4 0 5 -4.5t-3 -6.5l-103 -49q-6 -2 -8 -2q-13 0 -23 17.5t-13 47.5l-52 -34
q-25 -16 -44 -23t-40 -7q-36 0 -57 19t-21 50q0 30 24 52t79 42l110 41v68q0 112 -63 112q-31 0 -49.5 -20.5t-25.5 -53.5q-3 -20 -11.5 -30.5t-26.5 -10.5q-15 0 -24 8.5t-9 21.5q0 23 30 47t75 41q42 16 77 16q41 0 62 -26t21 -75v-187q0 -35 9 -51t30 -16q20 0 49 13h2z
M269 71v112l-93 -36q-28 -11 -40.5 -25.5t-12.5 -34.5q0 -24 16 -40.5t40 -16.5q20 0 48 16z" />
    <glyph glyph-name="aring" unicode="&#xe5;" horiz-adv-x="419" 
d="M139.5 491q-24.5 23 -24.5 56q0 35 29.5 56.5t68.5 21.5q36 0 62 -23.5t26 -56.5q0 -34 -29 -55.5t-69 -21.5q-39 0 -63.5 23zM168 602.5q-8 -11.5 -8 -35.5q0 -35 16.5 -62t42.5 -27q36 0 36 49q0 36 -18 61.5t-44 25.5q-17 0 -25 -11.5zM415 54q4 0 5 -4.5t-3 -6.5
l-103 -49q-6 -2 -8 -2q-13 0 -23 17.5t-13 47.5l-52 -34q-25 -16 -44 -23t-40 -7q-36 0 -57 19t-21 50q0 30 24 52t79 42l110 41v68q0 112 -63 112q-31 0 -49.5 -20.5t-25.5 -53.5q-3 -20 -11.5 -30.5t-26.5 -10.5q-15 0 -24 8.5t-9 21.5q0 23 30 47t75 41q42 16 77 16
q41 0 62 -26t21 -75v-187q0 -35 9 -51t30 -16q20 0 49 13h2zM269 71v112l-93 -36q-28 -11 -40.5 -25.5t-12.5 -34.5q0 -24 16 -40.5t40 -16.5q20 0 48 16z" />
    <glyph glyph-name="ae" unicode="&#xe6;" horiz-adv-x="592" 
d="M556 56q3 0 5.5 -3.5t0.5 -6.5q-34 -31 -67 -44.5t-73 -13.5q-102 0 -141 81l-67 -46q-47 -30 -87 -30q-38 0 -59.5 19t-21.5 50q0 30 24 51.5t78 41.5l111 42q-1 58 -7 106q-5 38 -18 56.5t-36 18.5q-37 0 -55 -22t-24 -65q-3 -36 -35 -36q-17 0 -26 8.5t-9 23.5
q0 22 27 47.5t68 43.5q42 17 76 17q30 0 53.5 -18.5t31.5 -50.5q28 33 66.5 51t82.5 18q49 0 76 -31.5t27 -87.5q0 -12 -2.5 -16.5t-9.5 -4.5l-223 -1q-2 -32 -2 -39q1 -89 30.5 -141.5t102.5 -52.5q33 0 57 8t45 27h1zM357 347q-25 -28 -33 -79l163 3q1 49 -17.5 76.5
t-49.5 27.5q-38 0 -63 -28zM277 79q-14 39 -17 91v14l-95 -37q-27 -12 -39 -26.5t-12 -34.5q0 -26 15 -41.5t44 -15.5q24 0 49 16z" />
    <glyph glyph-name="ccedilla" unicode="&#xe7;" horiz-adv-x="411" 
d="M224 -12q-10 -29 -10 -45q0 -14 9 -21q7 -7 35 -24q27 -15 40.5 -33t13.5 -44q0 -39 -28 -67.5t-76 -28.5q-28 0 -46 10t-18 28q0 13 9 21.5t21 8.5q11 0 17 -5t12 -17q7 -14 15 -20t22 -6q34 0 34 38q0 26 -18.5 46.5t-67.5 46.5q-14 8 -14 13q0 2 5 17q7 18 31 83
q-56 5 -96 33.5t-59 72.5q-19 42 -19 90q0 62 31 110.5t84 74.5q49 25 103 25q46 0 81.5 -17.5t35.5 -43.5q0 -13 -10 -22.5t-25 -9.5q-27 0 -44 33q-13 21 -28.5 30.5t-42.5 9.5q-56 0 -87.5 -43.5t-31.5 -116.5q0 -87 43 -139.5t125 -52.5q62 0 102 33h1q3 0 5.5 -3
t0.5 -5q-36 -31 -71 -45.5t-77 -14.5h-7z" />
    <glyph glyph-name="egrave" unicode="&#xe8;" horiz-adv-x="408" 
d="M131 727v1q0 3 8 3q13 0 32.5 -5.5t20.5 -9.5l51 -240v-1q0 -2 -4.5 -3t-5.5 2zM359 56q3 0 5.5 -3.5t0.5 -6.5q-65 -58 -146 -58q-56 0 -97.5 26t-63.5 72q-22 43 -22 94q0 59 28 108.5t77 78.5q47 28 106 28q56 0 86 -30t30 -84q0 -12 -2 -20q-3 -6 -9 -6l-248 -1
l-2 -36q0 -88 41.5 -141.5t114.5 -53.5q29 0 50.5 7.5t49.5 25.5h1zM143 346.5q-28 -28.5 -37 -79.5l190 4q0 50 -21.5 77t-60.5 27q-43 0 -71 -28.5z" />
    <glyph glyph-name="eacute" unicode="&#xe9;" horiz-adv-x="408" 
d="M225 474q0 -2 -4 -2q-3 0 -5 2q-3 1 -2 2l52 240q1 4 20.5 9.5t32.5 5.5q9 0 8 -4zM359 56q3 0 5.5 -3.5t0.5 -6.5q-65 -58 -146 -58q-56 0 -97.5 26t-63.5 72q-22 43 -22 94q0 59 28 108.5t77 78.5q47 28 106 28q56 0 86 -30t30 -84q0 -12 -2 -20q-3 -6 -9 -6l-248 -1
l-2 -36q0 -88 41.5 -141.5t114.5 -53.5q29 0 50.5 7.5t49.5 25.5h1zM143 346.5q-28 -28.5 -37 -79.5l190 4q0 50 -21.5 77t-60.5 27q-43 0 -71 -28.5z" />
    <glyph glyph-name="ecircumflex" unicode="&#xea;" horiz-adv-x="408" 
d="M159 474q0 -2 -4 -2q-3 0 -5 2q-3 1 -2 2l68 249q2 5 11 5q10 0 12 -5l67 -249v-1q0 -2 -4.5 -3t-5.5 2l-68 164zM359 56q3 0 5.5 -3.5t0.5 -6.5q-65 -58 -146 -58q-56 0 -97.5 26t-63.5 72q-22 43 -22 94q0 59 28 108.5t77 78.5q47 28 106 28q56 0 86 -30t30 -84
q0 -12 -2 -20q-3 -6 -9 -6l-248 -1l-2 -36q0 -88 41.5 -141.5t114.5 -53.5q29 0 50.5 7.5t49.5 25.5h1zM143 346.5q-28 -28.5 -37 -79.5l190 4q0 50 -21.5 77t-60.5 27q-43 0 -71 -28.5z" />
    <glyph glyph-name="edieresis" unicode="&#xeb;" horiz-adv-x="408" 
d="M108.5 489q-11.5 11 -11.5 30t11.5 30t31.5 11q41 0 41 -41q0 -19 -10.5 -30t-30.5 -11t-31.5 11zM283.5 489q-11.5 11 -11.5 30t11.5 30t31.5 11q42 0 42 -41t-42 -41q-20 0 -31.5 11zM359 56q3 0 5.5 -3.5t0.5 -6.5q-65 -58 -146 -58q-56 0 -97.5 26t-63.5 72
q-22 43 -22 94q0 59 28 108.5t77 78.5q47 28 106 28q56 0 86 -30t30 -84q0 -12 -2 -20q-3 -6 -9 -6l-248 -1l-2 -36q0 -88 41.5 -141.5t114.5 -53.5q29 0 50.5 7.5t49.5 25.5h1zM143 346.5q-28 -28.5 -37 -79.5l190 4q0 50 -21.5 77t-60.5 27q-43 0 -71 -28.5z" />
    <glyph glyph-name="igrave" unicode="&#xec;" horiz-adv-x="273" 
d="M41 727v1q0 3 8 3q13 0 32.5 -5.5t20.5 -9.5l51 -240v-1q0 -2 -4.5 -3t-5.5 2zM51 6q0 6 2 6q27 0 40.5 5.5t18.5 20.5t5 43v187q0 37 -7 52q-7 16 -26 16q-17 0 -45 -14h-1q-4 0 -6 5t1 7l130 60l4 1q2 0 5 -2.5t3 -5.5l-1 -40q-1 -22 -1 -78v-188q0 -30 5 -44t18 -19
q14 -6 40 -6q3 0 3 -6t-3 -6q-28 0 -37 1l-54 1l-54 -1q-9 -1 -38 -1q-2 0 -2 6z" />
    <glyph glyph-name="iacute" unicode="&#xed;" horiz-adv-x="273" 
d="M135 474q0 -2 -4 -2q-3 0 -5 2q-3 1 -2 2l52 240q1 4 20.5 9.5t32.5 5.5q9 0 8 -4zM51 6q0 6 2 6q27 0 40.5 5.5t18.5 20.5t5 43v187q0 37 -7 52q-7 16 -26 16q-17 0 -45 -14h-1q-4 0 -6 5t1 7l130 60l4 1q2 0 5 -2.5t3 -5.5l-1 -40q-1 -22 -1 -78v-188q0 -30 5 -44
t18 -19q14 -6 40 -6q3 0 3 -6t-3 -6q-28 0 -37 1l-54 1l-54 -1q-9 -1 -38 -1q-2 0 -2 6z" />
    <glyph glyph-name="icircumflex" unicode="&#xee;" horiz-adv-x="273" 
d="M216 476v-1q0 -2 -4.5 -3t-5.5 2l-68 164l-69 -164q0 -2 -4 -2q-3 0 -5 2q-3 1 -2 2l68 249q2 5 11 5q10 0 12 -5zM51 6q0 6 2 6q27 0 40.5 5.5t18.5 20.5t5 43v187q0 37 -7 52q-7 16 -26 16q-17 0 -45 -14h-1q-4 0 -6 5t1 7l130 60l4 1q2 0 5 -2.5t3 -5.5l-1 -40
q-1 -22 -1 -78v-188q0 -30 5 -44t18 -19q14 -6 40 -6q3 0 3 -6t-3 -6q-28 0 -37 1l-54 1l-54 -1q-9 -1 -38 -1q-2 0 -2 6z" />
    <glyph glyph-name="idieresis" unicode="&#xef;" horiz-adv-x="273" 
d="M34.5 489q-11.5 11 -11.5 30t11.5 30t31.5 11t31 -11t11 -30t-11 -30t-31 -11t-31.5 11zM177.5 489q-11.5 11 -11.5 30t11.5 30t31.5 11q41 0 41 -41q0 -19 -10.5 -30t-30.5 -11t-31.5 11zM51 6q0 6 2 6q27 0 40.5 5.5t18.5 20.5t5 43v187q0 37 -7 52q-7 16 -26 16
q-17 0 -45 -14h-1q-4 0 -6 5t1 7l130 60l4 1q2 0 5 -2.5t3 -5.5l-1 -40q-1 -22 -1 -78v-188q0 -30 5 -44t18 -19q14 -6 40 -6q3 0 3 -6t-3 -6q-28 0 -37 1l-54 1l-54 -1q-9 -1 -38 -1q-2 0 -2 6z" />
    <glyph glyph-name="eth" unicode="&#xf0;" horiz-adv-x="470" 
d="M303 569q65 -75 100 -163.5t35 -178.5q0 -117 -59 -178.5t-156 -61.5q-56 0 -99.5 26.5t-67.5 73.5t-24 99q0 66 30.5 115t81.5 74q48 24 97 24q58 0 103 -33q-27 95 -85 181l-134 -63h-1q-5 0 -8 9.5t1 11.5l129 61q-69 95 -156 150q-2 2 -2 3q0 2 2.5 4.5t5.5 1.5
q107 -48 192 -139l103 49h1q5 0 8.5 -9.5t-1.5 -11.5zM340 49.5q30 43.5 30 141.5q0 52 -11 112q-20 37 -54 57t-76 20q-58 0 -94 -44t-36 -121q0 -57 19 -104t54 -76t79 -29q59 0 89 43.5z" />
    <glyph glyph-name="ntilde" unicode="&#xf1;" horiz-adv-x="517" 
d="M143 480q-3 0 -5 2.5t0 4.5q45 61 85 61q16 0 50 -10q48 -14 75 -14q16 0 25.5 6t23.5 21h1q3 0 5.5 -2.5t0.5 -4.5q-26 -36 -43 -49t-36 -13q-21 0 -61 12l-25 7q-22 6 -45 6t-38 -17q-8 -8 -11 -10h-2zM498 6q0 -6 -3 -6q-27 0 -36 1l-54 1l-55 -1q-9 -1 -36 -1
q-3 0 -3 6t3 6q27 0 40.5 5.5t17.5 19.5q4 12 4 44v162q0 59 -22.5 87t-69.5 28q-31 0 -62.5 -16.5t-57.5 -45.5v-215q0 -30 4.5 -44t17.5 -19q14 -6 40 -6q3 0 3 -6t-3 -6q-27 0 -36 1l-54 1l-55 -1q-9 -1 -36 -1q-3 0 -3 6t3 6q27 0 40.5 5.5t17.5 19.5q4 12 4 44v198
q0 34 -8 49t-27 15q-17 0 -54 -15h-2q-4 0 -5.5 4.5t2.5 6.5l116 55l6 1q8 0 19 -23q10 -21 10 -59q38 44 75.5 65t77.5 21q56 0 86 -31t30 -91v-196q0 -30 4.5 -44t17.5 -19q14 -6 40 -6q3 0 3 -6z" />
    <glyph glyph-name="ograve" unicode="&#xf2;" horiz-adv-x="479" 
d="M144 727v1q0 3 8 3q13 0 32.5 -5.5t20.5 -9.5l51 -240v-1q0 -2 -4.5 -3t-5.5 2zM129 15.5q-45 28.5 -69 77.5q-24 48 -24 105q0 63 30.5 109.5t82.5 69.5q48 22 100 22q58 0 102 -28t69 -77q23 -49 23 -101q0 -61 -28.5 -107.5t-77.5 -72.5q-50 -26 -106 -26
q-57 0 -102 28.5zM345.5 45.5q29.5 39.5 29.5 119.5q0 62 -20.5 111t-56.5 77q-36 27 -82 27q-54 0 -83.5 -39t-29.5 -112q0 -61 20 -112t56 -81t81 -30q56 0 85.5 39.5z" />
    <glyph glyph-name="oacute" unicode="&#xf3;" horiz-adv-x="479" 
d="M238 474q0 -2 -4 -2q-3 0 -5 2q-3 1 -2 2l52 240q1 4 20.5 9.5t32.5 5.5q9 0 8 -4zM129 15.5q-45 28.5 -69 77.5q-24 48 -24 105q0 63 30.5 109.5t82.5 69.5q48 22 100 22q58 0 102 -28t69 -77q23 -49 23 -101q0 -61 -28.5 -107.5t-77.5 -72.5q-50 -26 -106 -26
q-57 0 -102 28.5zM345.5 45.5q29.5 39.5 29.5 119.5q0 62 -20.5 111t-56.5 77q-36 27 -82 27q-54 0 -83.5 -39t-29.5 -112q0 -61 20 -112t56 -81t81 -30q56 0 85.5 39.5z" />
    <glyph glyph-name="ocircumflex" unicode="&#xf4;" horiz-adv-x="479" 
d="M319 476v-1q0 -2 -4.5 -3t-5.5 2l-68 164l-69 -164q0 -2 -4 -2q-3 0 -5 2q-3 1 -2 2l68 249q2 5 11 5q10 0 12 -5zM129 15.5q-45 28.5 -69 77.5q-24 48 -24 105q0 63 30.5 109.5t82.5 69.5q48 22 100 22q58 0 102 -28t69 -77q23 -49 23 -101q0 -61 -28.5 -107.5
t-77.5 -72.5q-50 -26 -106 -26q-57 0 -102 28.5zM345.5 45.5q29.5 39.5 29.5 119.5q0 62 -20.5 111t-56.5 77q-36 27 -82 27q-54 0 -83.5 -39t-29.5 -112q0 -61 20 -112t56 -81t81 -30q56 0 85.5 39.5z" />
    <glyph glyph-name="otilde" unicode="&#xf5;" horiz-adv-x="479" 
d="M342.5 530q9.5 6 23.5 21h1q3 0 5.5 -2.5t0.5 -4.5q-26 -36 -43 -49t-36 -13q-20 0 -61 12l-25 7q-22 6 -45 6t-38 -17q-8 -8 -11 -10h-2q-3 0 -5 2.5t0 4.5q45 61 85 61q16 0 50 -10q48 -14 75 -14q16 0 25.5 6zM129 15.5q-45 28.5 -69 77.5q-24 48 -24 105
q0 63 30.5 109.5t82.5 69.5q48 22 100 22q58 0 102 -28t69 -77q23 -49 23 -101q0 -61 -28.5 -107.5t-77.5 -72.5q-50 -26 -106 -26q-57 0 -102 28.5zM345.5 45.5q29.5 39.5 29.5 119.5q0 62 -20.5 111t-56.5 77q-36 27 -82 27q-54 0 -83.5 -39t-29.5 -112q0 -61 20 -112
t56 -81t81 -30q56 0 85.5 39.5z" />
    <glyph glyph-name="odieresis" unicode="&#xf6;" horiz-adv-x="479" 
d="M121.5 489q-11.5 11 -11.5 30t11.5 30t31.5 11q41 0 41 -41q0 -19 -10.5 -30t-30.5 -11t-31.5 11zM296.5 489q-11.5 11 -11.5 30t11.5 30t31.5 11q42 0 42 -41t-42 -41q-20 0 -31.5 11zM129 15.5q-45 28.5 -69 77.5q-24 48 -24 105q0 63 30.5 109.5t82.5 69.5
q48 22 100 22q58 0 102 -28t69 -77q23 -49 23 -101q0 -61 -28.5 -107.5t-77.5 -72.5q-50 -26 -106 -26q-57 0 -102 28.5zM345.5 45.5q29.5 39.5 29.5 119.5q0 62 -20.5 111t-56.5 77q-36 27 -82 27q-54 0 -83.5 -39t-29.5 -112q0 -61 20 -112t56 -81t81 -30q56 0 85.5 39.5z
" />
    <glyph glyph-name="divide" unicode="&#xf7;" horiz-adv-x="398" 
d="M166 322.5q-12 11.5 -12 31.5q0 19 12 30t32 11q42 0 42 -41q0 -20 -11 -31.5t-31 -11.5t-32 11.5zM34 170q-2 0 -3 7q-2 8 -2 14q0 5 2 13l2 5h331q3 0 4 -6q1 -4 1 -13t-1 -13q-1 -7 -4 -7h-330zM166 1q-12 12 -12 32q0 19 12 30t32 11t31 -11t11 -30q0 -20 -11 -32
t-31 -12t-32 12z" />
    <glyph glyph-name="oslash" unicode="&#xf8;" horiz-adv-x="477" 
d="M390 337q25 -30 39 -67.5t14 -76.5q0 -61 -28.5 -107.5t-77.5 -72.5q-50 -26 -106 -26q-77 0 -130 51l-50 -52l-2 -1q-4 0 -10 6.5t-3 9.5l50 52q-24 29 -37 66.5t-13 78.5q0 63 30.5 109.5t82.5 69.5q48 22 100 22q76 0 127 -48l46 48h2q4 0 10 -5.5t3 -8.5zM131 99
l206 212q-22 33 -53 51t-68 18q-54 0 -83.5 -39t-29.5 -112q0 -75 28 -130zM345.5 45.5q29.5 39.5 29.5 119.5q0 74 -28 127l-206 -213q22 -36 52.5 -54.5t66.5 -18.5q56 0 85.5 39.5z" />
    <glyph glyph-name="ugrave" unicode="&#xf9;" horiz-adv-x="493" 
d="M142 727v1q0 3 8 3q13 0 32.5 -5.5t20.5 -9.5l51 -240v-1q0 -2 -4.5 -3t-5.5 2zM487 57q4 0 5.5 -4.5t-2.5 -6.5l-117 -55l-4 -1q-10 0 -19 23t-9 60v4q-39 -44 -78 -64.5t-81 -20.5q-51 0 -78.5 31.5t-27.5 91.5v153q0 40 -7 57q-8 17 -23 17t-34 -10h-1q-4 0 -6 5.5
t2 6.5l111 50l4 1q3 0 6.5 -2.5t3.5 -5.5v-239q0 -116 84 -116q32 0 65 16.5t60 45.5v174q0 41 -6 57q-8 17 -24 17q-15 0 -34 -10h-1q-4 0 -5.5 5.5t2.5 6.5l111 50l3 1q3 0 6.5 -2.5t3.5 -5.5v-280q0 -34 8 -49t27 -15q16 0 53 14h2z" />
    <glyph glyph-name="uacute" unicode="&#xfa;" horiz-adv-x="493" 
d="M236 474q0 -2 -4 -2q-3 0 -5 2q-3 1 -2 2l52 240q1 4 20.5 9.5t32.5 5.5q9 0 8 -4zM487 57q4 0 5.5 -4.5t-2.5 -6.5l-117 -55l-4 -1q-10 0 -19 23t-9 60v4q-39 -44 -78 -64.5t-81 -20.5q-51 0 -78.5 31.5t-27.5 91.5v153q0 40 -7 57q-8 17 -23 17t-34 -10h-1q-4 0 -6 5.5
t2 6.5l111 50l4 1q3 0 6.5 -2.5t3.5 -5.5v-239q0 -116 84 -116q32 0 65 16.5t60 45.5v174q0 41 -6 57q-8 17 -24 17q-15 0 -34 -10h-1q-4 0 -5.5 5.5t2.5 6.5l111 50l3 1q3 0 6.5 -2.5t3.5 -5.5v-280q0 -34 8 -49t27 -15q16 0 53 14h2z" />
    <glyph glyph-name="ucircumflex" unicode="&#xfb;" horiz-adv-x="493" 
d="M170 474q0 -2 -4 -2q-3 0 -5 2q-3 1 -2 2l68 249q2 5 11 5q10 0 12 -5l67 -249v-1q0 -2 -4.5 -3t-5.5 2l-68 164zM487 57q4 0 5.5 -4.5t-2.5 -6.5l-117 -55l-4 -1q-10 0 -19 23t-9 60v4q-39 -44 -78 -64.5t-81 -20.5q-51 0 -78.5 31.5t-27.5 91.5v153q0 40 -7 57
q-8 17 -23 17t-34 -10h-1q-4 0 -6 5.5t2 6.5l111 50l4 1q3 0 6.5 -2.5t3.5 -5.5v-239q0 -116 84 -116q32 0 65 16.5t60 45.5v174q0 41 -6 57q-8 17 -24 17q-15 0 -34 -10h-1q-4 0 -5.5 5.5t2.5 6.5l111 50l3 1q3 0 6.5 -2.5t3.5 -5.5v-280q0 -34 8 -49t27 -15q16 0 53 14h2z
" />
    <glyph glyph-name="udieresis" unicode="&#xfc;" horiz-adv-x="493" 
d="M119.5 489q-11.5 11 -11.5 30t11.5 30t31.5 11q41 0 41 -41q0 -19 -10.5 -30t-30.5 -11t-31.5 11zM294.5 489q-11.5 11 -11.5 30t11.5 30t31.5 11q42 0 42 -41t-42 -41q-20 0 -31.5 11zM487 57q4 0 5.5 -4.5t-2.5 -6.5l-117 -55l-4 -1q-10 0 -19 23t-9 60v4
q-39 -44 -78 -64.5t-81 -20.5q-51 0 -78.5 31.5t-27.5 91.5v153q0 40 -7 57q-8 17 -23 17t-34 -10h-1q-4 0 -6 5.5t2 6.5l111 50l4 1q3 0 6.5 -2.5t3.5 -5.5v-239q0 -116 84 -116q32 0 65 16.5t60 45.5v174q0 41 -6 57q-8 17 -24 17q-15 0 -34 -10h-1q-4 0 -5.5 5.5t2.5 6.5
l111 50l3 1q3 0 6.5 -2.5t3.5 -5.5v-280q0 -34 8 -49t27 -15q16 0 53 14h2z" />
    <glyph glyph-name="yacute" unicode="&#xfd;" horiz-adv-x="435" 
d="M222 474q0 -2 -4 -2q-3 0 -5 2q-3 1 -2 2l52 240q1 4 20.5 9.5t32.5 5.5q9 0 8 -4zM434 380q0 -6 -3 -6q-25 0 -43 -18t-34 -59l-122 -325q-37 -97 -69 -151.5t-67 -77.5q-34 -24 -80 -24q-22 0 -36.5 10.5t-14.5 28.5q0 14 9 22t22 8q22 0 41 -13l12 -6q10 -5 23 -5
q24 0 45.5 21.5t46.5 70.5q25 51 57 136l-152 311q-23 45 -35 58t-31 13q-2 0 -2 6t2 6l34 -1q8 -1 33 -1l64 1q9 1 39 1q2 0 2 -6t-2 -6q-58 0 -58 -23q0 -4 5 -16l132 -271l80 230q8 26 8 38q0 23 -17.5 32.5t-59.5 9.5q-2 0 -2 6t2 6q32 0 41 -1l60 -1l36 1q7 1 31 1
q3 0 3 -6z" />
    <glyph glyph-name="thorn" unicode="&#xfe;" horiz-adv-x="491" 
d="M378.5 376.5q34.5 -22.5 55.5 -63.5q21 -42 21 -98q0 -72 -32.5 -124.5t-84.5 -78.5q-49 -25 -98 -25q-32 0 -56.5 6t-50.5 20v-207q0 -30 8 -44t29 -19q20 -6 63 -6q3 0 3 -6t-3 -6q-41 0 -54 1l-73 1l-54 -1q-9 -1 -38 -1q-2 0 -2 6t2 6q27 0 40.5 5.5t18.5 19.5
q5 15 5 44v792q0 37 -7 52q-7 16 -26 16q-14 0 -45 -14h-2q-4 0 -5.5 4.5t1.5 6.5l126 61q1 1 5 1q2 0 5 -2.5t3 -5.5v-405q83 87 169 87q42 0 76.5 -22.5zM357.5 55q33.5 47 33.5 129t-37 129.5t-95 47.5q-35 0 -64.5 -16t-61.5 -50v-223q29 -32 61 -48t75 -16
q55 0 88.5 47z" />
    <glyph glyph-name="ydieresis" unicode="&#xff;" horiz-adv-x="435" 
d="M105.5 489q-11.5 11 -11.5 30t11.5 30t31.5 11q41 0 41 -41q0 -19 -10.5 -30t-30.5 -11t-31.5 11zM280.5 489q-11.5 11 -11.5 30t11.5 30t31.5 11q42 0 42 -41t-42 -41q-20 0 -31.5 11zM434 380q0 -6 -3 -6q-25 0 -43 -18t-34 -59l-122 -325q-37 -97 -69 -151.5
t-67 -77.5q-34 -24 -80 -24q-22 0 -36.5 10.5t-14.5 28.5q0 14 9 22t22 8q22 0 41 -13l12 -6q10 -5 23 -5q24 0 45.5 21.5t46.5 70.5q25 51 57 136l-152 311q-23 45 -35 58t-31 13q-2 0 -2 6t2 6l34 -1q8 -1 33 -1l64 1q9 1 39 1q2 0 2 -6t-2 -6q-58 0 -58 -23q0 -4 5 -16
l132 -271l80 230q8 26 8 38q0 23 -17.5 32.5t-59.5 9.5q-2 0 -2 6t2 6q32 0 41 -1l60 -1l36 1q7 1 31 1q3 0 3 -6z" />
    <glyph glyph-name="Amacron" unicode="&#x100;" 
d="M215 722q-6 0 -6 14t6 14h251q6 0 6 -14t-6 -14h-251zM703 6q0 -6 -4 -6l-59 2l-58 2q-10 0 -56 -2l-49 -2q-4 0 -4 6t4 6q39 0 54 7q17 8 17 24t-13 43l-89 189h-238l-63 -148q-14 -36 -14 -55q0 -60 98 -60q5 0 5 -6t-5 -6l-52 2q-50 2 -66 2q-14 0 -60 -2
q-40 -2 -50 -2q-5 0 -5 6t5 6q28 0 47.5 10.5t37.5 37.5q17 26 38 76l211 498q2 3 7 3t6 -3l236 -497q35 -75 58 -99q24 -26 57 -26q4 0 4 -6zM216 295h221l-117 247z" />
    <glyph glyph-name="amacron" unicode="&#x101;" horiz-adv-x="419" 
d="M86 483q-6 0 -6 14t6 14h251q6 0 6 -14t-6 -14h-251zM415 54q4 0 5 -4.5t-3 -6.5l-103 -49q-6 -2 -8 -2q-13 0 -23 17.5t-13 47.5l-52 -34q-25 -16 -44 -23t-40 -7q-36 0 -57 19t-21 50q0 30 24 52t79 42l110 41v68q0 112 -63 112q-31 0 -49.5 -20.5t-25.5 -53.5
q-3 -20 -11.5 -30.5t-26.5 -10.5q-15 0 -24 8.5t-9 21.5q0 23 30 47t75 41q42 16 77 16q41 0 62 -26t21 -75v-187q0 -35 9 -51t30 -16q20 0 49 13h2zM269 71v112l-93 -36q-28 -11 -40.5 -25.5t-12.5 -34.5q0 -24 16 -40.5t40 -16.5q20 0 48 16z" />
    <glyph glyph-name="Abreve" unicode="&#x102;" 
d="M272.5 718q-26.5 28 -34.5 79q-1 4 4 4.5t7 -1.5q7 -27 33.5 -47t58.5 -20q31 0 57.5 20t33.5 47q0 2 4 2q3 0 5.5 -1.5t1.5 -3.5q-8 -52 -34 -79.5t-68 -27.5t-68.5 28zM703 6q0 -6 -4 -6l-59 2l-58 2q-10 0 -56 -2l-49 -2q-4 0 -4 6t4 6q39 0 54 7q17 8 17 24t-13 43
l-89 189h-238l-63 -148q-14 -36 -14 -55q0 -60 98 -60q5 0 5 -6t-5 -6l-52 2q-50 2 -66 2q-14 0 -60 -2q-40 -2 -50 -2q-5 0 -5 6t5 6q28 0 47.5 10.5t37.5 37.5q17 26 38 76l211 498q2 3 7 3t6 -3l236 -497q35 -75 58 -99q24 -26 57 -26q4 0 4 -6zM216 295h221l-117 247z
" />
    <glyph glyph-name="abreve" unicode="&#x103;" horiz-adv-x="419" 
d="M135.5 511.5q-26.5 38.5 -26.5 111.5q0 4 5.5 5t5.5 -2q0 -44 26 -73.5t66 -29.5q38 0 64.5 30t26.5 73q0 2 3 2t5.5 -1.5t2.5 -3.5q0 -74 -26 -112t-76 -38t-76.5 38.5zM415 54q4 0 5 -4.5t-3 -6.5l-103 -49q-6 -2 -8 -2q-13 0 -23 17.5t-13 47.5l-52 -34
q-25 -16 -44 -23t-40 -7q-36 0 -57 19t-21 50q0 30 24 52t79 42l110 41v68q0 112 -63 112q-31 0 -49.5 -20.5t-25.5 -53.5q-3 -20 -11.5 -30.5t-26.5 -10.5q-15 0 -24 8.5t-9 21.5q0 23 30 47t75 41q42 16 77 16q41 0 62 -26t21 -75v-187q0 -35 9 -51t30 -16q20 0 49 13h2z
M269 71v112l-93 -36q-28 -11 -40.5 -25.5t-12.5 -34.5q0 -24 16 -40.5t40 -16.5q20 0 48 16z" />
    <glyph glyph-name="Aogonek" unicode="&#x104;" horiz-adv-x="704" 
d="M703 4q0 -6 -4 -6q-12 0 -54 2l-42 1q-54 0 -91 -37t-37 -93q0 -51 28.5 -83.5t79.5 -32.5q31 0 56 13h1q3 0 5.5 -3t0.5 -5q-46 -35 -105 -35q-58 0 -91 29.5t-33 79.5q0 39 17 67t57 65q29 26 41 44t12 39q0 16 -9 35l-91 191h-236l-63 -148q-14 -36 -14 -55
q0 -60 98 -60q5 0 5 -6t-5 -6l-52 2q-50 2 -66 2q-14 0 -60 -2q-40 -2 -50 -2q-5 0 -5 6t5 6q28 0 47.5 10.5t37.5 37.5q17 26 38 76l211 498q2 3 7 3t6 -3l236 -499q35 -75 59 -99q24 -27 56 -27q4 0 4 -5zM216 295h218l-115 243z" />
    <glyph glyph-name="aogonek" unicode="&#x105;" horiz-adv-x="419" 
d="M415 54q4 0 5 -4.5t-3 -6.5l-103 -49l-4 -2q-36 -33 -52 -65.5t-16 -69.5q0 -48 24 -75t69 -27q20 0 35 5.5t30 17.5h2q3 0 5.5 -3t-0.5 -5q-52 -45 -108 -45q-53 0 -82.5 26.5t-29.5 72.5q0 83 108 172q-9 6 -16 22t-9 39l-52 -34q-25 -16 -44 -23t-40 -7q-36 0 -57 19
t-21 50q0 30 24 52t79 42l110 41v68q0 112 -63 112q-31 0 -49.5 -20.5t-25.5 -53.5q-3 -20 -11.5 -30.5t-26.5 -10.5q-15 0 -24 8.5t-9 21.5q0 23 30 47t75 41q42 16 77 16q41 0 62 -26t21 -75v-187q0 -35 9 -51t30 -16q20 0 49 13h2zM269 71v112l-93 -36
q-28 -11 -40.5 -25.5t-12.5 -34.5q0 -24 16 -40.5t40 -16.5q20 0 48 16z" />
    <glyph glyph-name="Cacute" unicode="&#x106;" horiz-adv-x="686" 
d="M289 678q-4 0 -5 4.5t2 6.5l109 62q18 12 54 33q4 2 23.5 -4.5t33.5 -14.5t7 -9q-59 -14 -109.5 -32t-112.5 -45zM517 627q43 -9 86 -31q6 -3 7.5 -5.5t2 -8t1.5 -8.5l12 -119q0 -3 -5.5 -3.5t-6.5 2.5q-47 167 -206 167q-84 0 -148 -37t-99 -105q-35 -70 -35 -160
q0 -86 38.5 -159t104.5 -115q65 -42 142 -42q81 0 132.5 40t78.5 122q0 2 5 2q7 0 7 -3l-10 -110q-1 -11 -2.5 -14.5t-8.5 -7.5q-52 -25 -97.5 -35t-104.5 -10q-105 0 -187.5 41.5t-128.5 116.5q-46 74 -46 172q0 93 47 166t130 113q81 40 185 40q63 0 106 -9z" />
    <glyph glyph-name="cacute" unicode="&#x107;" horiz-adv-x="411" 
d="M223 474q0 -2 -4 -2q-3 0 -5 2q-3 1 -2 2l52 240q1 4 20.5 9.5t32.5 5.5q9 0 8 -4zM123.5 15.5q-44.5 27.5 -66.5 74.5q-21 45 -21 95q0 62 31 110.5t84 74.5q49 25 103 25q46 0 81.5 -17.5t35.5 -43.5q0 -13 -10 -22.5t-25 -9.5q-27 0 -44 33q-13 21 -28.5 30.5
t-42.5 9.5q-56 0 -87.5 -43.5t-31.5 -116.5q0 -87 43 -139.5t125 -52.5q62 0 102 33h1q3 0 5.5 -3t0.5 -5q-36 -31 -71 -45.5t-77 -14.5q-63 0 -107.5 27.5z" />
    <glyph glyph-name="Ccircumflex" unicode="&#x108;" horiz-adv-x="686" 
d="M377 790q5 5 12 5q6 0 11 -5l102 -98q1 0 1 -2t-2.5 -4t-3.5 -1l-108 58l-109 -58q-2 -1 -5 2.5t-1 4.5zM517 627q43 -9 86 -31q6 -3 7.5 -5.5t2 -8t1.5 -8.5l12 -119q0 -3 -5.5 -3.5t-6.5 2.5q-47 167 -206 167q-84 0 -148 -37t-99 -105q-35 -70 -35 -160
q0 -86 38.5 -159t104.5 -115q65 -42 142 -42q81 0 132.5 40t78.5 122q0 2 5 2q7 0 7 -3l-10 -110q-1 -11 -2.5 -14.5t-8.5 -7.5q-52 -25 -97.5 -35t-104.5 -10q-105 0 -187.5 41.5t-128.5 116.5q-46 74 -46 172q0 93 47 166t130 113q81 40 185 40q63 0 106 -9z" />
    <glyph glyph-name="ccircumflex" unicode="&#x109;" horiz-adv-x="411" 
d="M304 476v-1q0 -2 -4.5 -3t-5.5 2l-68 164l-69 -164q0 -2 -4 -2q-3 0 -5 2q-3 1 -2 2l68 249q2 5 11 5q10 0 12 -5zM123.5 15.5q-44.5 27.5 -66.5 74.5q-21 45 -21 95q0 62 31 110.5t84 74.5q49 25 103 25q46 0 81.5 -17.5t35.5 -43.5q0 -13 -10 -22.5t-25 -9.5
q-27 0 -44 33q-13 21 -28.5 30.5t-42.5 9.5q-56 0 -87.5 -43.5t-31.5 -116.5q0 -87 43 -139.5t125 -52.5q62 0 102 33h1q3 0 5.5 -3t0.5 -5q-36 -31 -71 -45.5t-77 -14.5q-63 0 -107.5 27.5z" />
    <glyph glyph-name="Cdotaccent" unicode="&#x10a;" horiz-adv-x="686" 
d="M356.5 724.5q-11.5 11.5 -11.5 32.5q0 19 11.5 30t32.5 11q20 0 31 -11t11 -30q0 -21 -11 -32.5t-31 -11.5q-21 0 -32.5 11.5zM517 627q43 -9 86 -31q6 -3 7.5 -5.5t2 -8t1.5 -8.5l12 -119q0 -3 -5.5 -3.5t-6.5 2.5q-47 167 -206 167q-84 0 -148 -37t-99 -105
q-35 -70 -35 -160q0 -86 38.5 -159t104.5 -115q65 -42 142 -42q81 0 132.5 40t78.5 122q0 2 5 2q7 0 7 -3l-10 -110q-1 -11 -2.5 -14.5t-8.5 -7.5q-52 -25 -97.5 -35t-104.5 -10q-105 0 -187.5 41.5t-128.5 116.5q-46 74 -46 172q0 93 47 166t130 113q81 40 185 40
q63 0 106 -9z" />
    <glyph glyph-name="cdotaccent" unicode="&#x10b;" horiz-adv-x="411" 
d="M192.5 523q-11.5 11 -11.5 31t11.5 31t32.5 11q20 0 31 -11t11 -31t-11 -31t-31 -11q-21 0 -32.5 11zM123.5 15.5q-44.5 27.5 -66.5 74.5q-21 45 -21 95q0 62 31 110.5t84 74.5q49 25 103 25q46 0 81.5 -17.5t35.5 -43.5q0 -13 -10 -22.5t-25 -9.5q-27 0 -44 33
q-13 21 -28.5 30.5t-42.5 9.5q-56 0 -87.5 -43.5t-31.5 -116.5q0 -87 43 -139.5t125 -52.5q62 0 102 33h1q3 0 5.5 -3t0.5 -5q-36 -31 -71 -45.5t-77 -14.5q-63 0 -107.5 27.5z" />
    <glyph glyph-name="Ccaron" unicode="&#x10c;" horiz-adv-x="686" 
d="M273 784q-1 0 -1 1q0 2 2.5 4.5t4.5 1.5l109 -57l108 57h1q3 0 5 -3t-1 -4l-102 -97q-4 -4 -11 -4q-8 0 -12 4zM517 627q43 -9 86 -31q6 -3 7.5 -5.5t2 -8t1.5 -8.5l12 -119q0 -3 -5.5 -3.5t-6.5 2.5q-47 167 -206 167q-84 0 -148 -37t-99 -105q-35 -70 -35 -160
q0 -86 38.5 -159t104.5 -115q65 -42 142 -42q81 0 132.5 40t78.5 122q0 2 5 2q7 0 7 -3l-10 -110q-1 -11 -2.5 -14.5t-8.5 -7.5q-52 -25 -97.5 -35t-104.5 -10q-105 0 -187.5 41.5t-128.5 116.5q-46 74 -46 172q0 93 47 166t130 113q81 40 185 40q63 0 106 -9z" />
    <glyph glyph-name="ccaron" unicode="&#x10d;" horiz-adv-x="411" 
d="M145 726q-1 3 4.5 4t6.5 -1l69 -165l68 165q0 1 3 1q8 0 7 -4l-67 -249q-2 -5 -11 -5t-12 5zM123.5 15.5q-44.5 27.5 -66.5 74.5q-21 45 -21 95q0 62 31 110.5t84 74.5q49 25 103 25q46 0 81.5 -17.5t35.5 -43.5q0 -13 -10 -22.5t-25 -9.5q-27 0 -44 33
q-13 21 -28.5 30.5t-42.5 9.5q-56 0 -87.5 -43.5t-31.5 -116.5q0 -87 43 -139.5t125 -52.5q62 0 102 33h1q3 0 5.5 -3t0.5 -5q-36 -31 -71 -45.5t-77 -14.5q-63 0 -107.5 27.5z" />
    <glyph glyph-name="Dcaron" unicode="&#x10e;" horiz-adv-x="691" 
d="M203 784q-1 0 -1 1q0 2 2.5 4.5t4.5 1.5l109 -57l108 57h1q3 0 5 -3t-1 -4l-102 -97q-4 -4 -11 -4q-8 0 -12 4zM236 -1q-57 3 -83 3l-68 -1q-12 -1 -50 -1q-2 0 -2 6t2 6q36 0 56 5q17 5 23.5 19.5t6.5 44.5v463q0 31 -6 44.5t-23 19.5q-20 5 -56 5q-2 0 -2 6t2 6l50 -1
q56 -2 67 -2q38 0 75 3l61 2q103 0 183.5 -39.5t125.5 -109.5q44 -70 44 -155q0 -95 -45 -170t-124 -116t-170 -41q-29 0 -67 3zM436 45q62 34 96 99q34 64 34 157q0 87 -33 158t-94 112q-62 41 -141 41q-45 0 -67.5 -5.5t-33.5 -19.5q-11 -16 -11 -45v-450q0 -31 9 -47.5
t32 -24.5q23 -9 66 -9q81 0 143 34z" />
    <glyph glyph-name="dcaron" unicode="&#x10f;" horiz-adv-x="512" 
d="M506 57q4 0 5.5 -5t-1.5 -7l-110 -52l-8 -2q-13 0 -22 22q-8 21 -10 61q-40 -42 -80.5 -64.5t-87.5 -22.5q-42 0 -77.5 24.5t-56.5 67.5q-22 43 -22 99q0 69 33.5 119.5t89.5 76.5q51 25 105 25q52 0 96 -26v224q0 37 -7 52q-7 16 -26 16q-12 0 -46 -14h-2q-4 0 -5.5 4.5
t1.5 6.5l127 62q1 1 5 1q2 0 5.5 -2.5t3.5 -5.5v-607q0 -36 8.5 -52t27.5 -16q29 0 52 14zM489 722q0 2 3 2q4 0 11 -3q14 -6 26 -15t11 -14l-32 -243q0 -2 -5.5 -1.5t-5.5 2.5zM297 39.5q31 16.5 63 50.5v220q-25 35 -54 52t-69 17q-63 0 -99.5 -45t-36.5 -126
q0 -54 17 -96.5t47 -65.5q29 -23 66 -23q35 0 66 16.5z" />
    <glyph glyph-name="Dcroat" unicode="&#x110;" horiz-adv-x="691" 
d="M472.5 587.5q80.5 -39.5 125.5 -109.5q44 -70 44 -155q0 -95 -45 -170t-124 -116t-170 -41q-29 0 -67 3q-57 3 -83 3l-68 -1q-12 -1 -50 -1q-2 0 -2 6t2 6q36 0 56 5q17 5 23.5 19.5t6.5 44.5v220h-68q-4 0 -4 10t4 10h68v223q0 31 -6 44.5t-23 19.5q-20 5 -56 5
q-2 0 -2 6t2 6l50 -1q56 -2 67 -2q38 0 75 3l61 2q103 0 183.5 -39.5zM436 45q62 34 96 99q34 64 34 157q0 87 -33 158t-94 112q-62 41 -141 41q-45 0 -67.5 -5.5t-33.5 -19.5q-11 -16 -11 -45v-221h136q4 0 4 -10t-4 -10h-136v-209q0 -31 9 -47.5t32 -24.5q23 -9 66 -9
q81 0 143 34z" />
    <glyph glyph-name="dcroat" unicode="&#x111;" horiz-adv-x="513" 
d="M506 57q4 0 5.5 -5t-1.5 -7l-110 -52l-8 -2q-13 0 -22 22q-8 21 -10 61q-40 -42 -80.5 -64.5t-87.5 -22.5q-42 0 -77.5 24.5t-56.5 67.5q-22 43 -22 99q0 69 33.5 119.5t89.5 76.5q51 25 105 25q52 0 96 -26v129h-169q-2 0 -3.5 3t-1.5 7t1.5 7t3.5 3h169v75q0 37 -7 52
q-7 16 -26 16q-12 0 -46 -14h-2q-4 0 -5.5 4.5t1.5 6.5l127 62q1 1 5 1q2 0 5.5 -2.5t3.5 -5.5v-195h66q5 0 5 -10t-5 -10h-66v-392q0 -36 8.5 -52t27.5 -16q29 0 52 14zM297 39.5q31 16.5 63 50.5v220q-25 35 -54 52t-69 17q-63 0 -99.5 -45t-36.5 -126q0 -54 17 -96.5
t47 -65.5q29 -23 66 -23q35 0 66 16.5z" />
    <glyph glyph-name="Emacron" unicode="&#x112;" horiz-adv-x="537" 
d="M166 722q-6 0 -6 14t6 14h251q6 0 6 -14t-6 -14h-251zM479 151q8 0 8 -4q-9 -63 -9 -132q0 -8 -3.5 -11.5t-12.5 -3.5h-419q-2 0 -2 6t2 6q36 0 56 5q17 5 23.5 19.5t6.5 44.5v463q0 30 -6.5 44t-23.5 20q-20 5 -56 5q-2 0 -2 6t2 6h402q9 0 9 -9l2 -123q0 -3 -5 -3.5
t-6 2.5q-3 53 -32 82.5t-77 29.5h-61q-33 0 -51 -5q-16 -6 -23 -19.5t-7 -40.5v-203h122q48 0 68.5 16t20.5 54q0 2 6 2t6 -2l-1 -81q0 -34 1 -44l1 -48q0 -2 -6 -2t-6 2q0 44 -21.5 63t-71.5 19h-119v-230q0 -28 6 -41t22 -18q18 -5 50 -5h80q48 0 80 33.5t43 94.5q0 2 4 2
z" />
    <glyph glyph-name="emacron" unicode="&#x113;" horiz-adv-x="408" 
d="M101 483q-6 0 -6 14t6 14h251q6 0 6 -14t-6 -14h-251zM359 56q3 0 5.5 -3.5t0.5 -6.5q-65 -58 -146 -58q-56 0 -97.5 26t-63.5 72q-22 43 -22 94q0 59 28 108.5t77 78.5q47 28 106 28q56 0 86 -30t30 -84q0 -12 -2 -20q-3 -6 -9 -6l-248 -1l-2 -36q0 -88 41.5 -141.5
t114.5 -53.5q29 0 50.5 7.5t49.5 25.5h1zM143 346.5q-28 -28.5 -37 -79.5l190 4q0 50 -21.5 77t-60.5 27q-43 0 -71 -28.5z" />
    <glyph glyph-name="Ebreve" unicode="&#x114;" horiz-adv-x="537" 
d="M223.5 718q-26.5 28 -34.5 79q-1 4 4 4.5t7 -1.5q7 -27 33.5 -47t58.5 -20q31 0 57.5 20t33.5 47q0 2 4 2q3 0 5.5 -1.5t1.5 -3.5q-8 -52 -34 -79.5t-68 -27.5t-68.5 28zM479 151q8 0 8 -4q-9 -63 -9 -132q0 -8 -3.5 -11.5t-12.5 -3.5h-419q-2 0 -2 6t2 6q36 0 56 5
q17 5 23.5 19.5t6.5 44.5v463q0 30 -6.5 44t-23.5 20q-20 5 -56 5q-2 0 -2 6t2 6h402q9 0 9 -9l2 -123q0 -3 -5 -3.5t-6 2.5q-3 53 -32 82.5t-77 29.5h-61q-33 0 -51 -5q-16 -6 -23 -19.5t-7 -40.5v-203h122q48 0 68.5 16t20.5 54q0 2 6 2t6 -2l-1 -81q0 -34 1 -44l1 -48
q0 -2 -6 -2t-6 2q0 44 -21.5 63t-71.5 19h-119v-230q0 -28 6 -41t22 -18q18 -5 50 -5h80q48 0 80 33.5t43 94.5q0 2 4 2z" />
    <glyph glyph-name="ebreve" unicode="&#x115;" horiz-adv-x="408" 
d="M150.5 511.5q-26.5 38.5 -26.5 111.5q0 4 5.5 5t5.5 -2q0 -44 26 -73.5t66 -29.5q38 0 64.5 30t26.5 73q0 2 3 2t5.5 -1.5t2.5 -3.5q0 -74 -26 -112t-76 -38t-76.5 38.5zM359 56q3 0 5.5 -3.5t0.5 -6.5q-65 -58 -146 -58q-56 0 -97.5 26t-63.5 72q-22 43 -22 94
q0 59 28 108.5t77 78.5q47 28 106 28q56 0 86 -30t30 -84q0 -12 -2 -20q-3 -6 -9 -6l-248 -1l-2 -36q0 -88 41.5 -141.5t114.5 -53.5q29 0 50.5 7.5t49.5 25.5h1zM143 346.5q-28 -28.5 -37 -79.5l190 4q0 50 -21.5 77t-60.5 27q-43 0 -71 -28.5z" />
    <glyph glyph-name="Edotaccent" unicode="&#x116;" horiz-adv-x="537" 
d="M259.5 724.5q-11.5 11.5 -11.5 32.5q0 19 11.5 30t32.5 11q20 0 31 -11t11 -30q0 -21 -11 -32.5t-31 -11.5q-21 0 -32.5 11.5zM479 151q8 0 8 -4q-9 -63 -9 -132q0 -8 -3.5 -11.5t-12.5 -3.5h-419q-2 0 -2 6t2 6q36 0 56 5q17 5 23.5 19.5t6.5 44.5v463q0 30 -6.5 44
t-23.5 20q-20 5 -56 5q-2 0 -2 6t2 6h402q9 0 9 -9l2 -123q0 -3 -5 -3.5t-6 2.5q-3 53 -32 82.5t-77 29.5h-61q-33 0 -51 -5q-16 -6 -23 -19.5t-7 -40.5v-203h122q48 0 68.5 16t20.5 54q0 2 6 2t6 -2l-1 -81q0 -34 1 -44l1 -48q0 -2 -6 -2t-6 2q0 44 -21.5 63t-71.5 19h-119
v-230q0 -28 6 -41t22 -18q18 -5 50 -5h80q48 0 80 33.5t43 94.5q0 2 4 2z" />
    <glyph glyph-name="edotaccent" unicode="&#x117;" horiz-adv-x="408" 
d="M194.5 523q-11.5 11 -11.5 31t11.5 31t32.5 11q20 0 31 -11t11 -31t-11 -31t-31 -11q-21 0 -32.5 11zM359 56q3 0 5.5 -3.5t0.5 -6.5q-65 -58 -146 -58q-56 0 -97.5 26t-63.5 72q-22 43 -22 94q0 59 28 108.5t77 78.5q47 28 106 28q56 0 86 -30t30 -84q0 -12 -2 -20
q-3 -6 -9 -6l-248 -1l-2 -36q0 -88 41.5 -141.5t114.5 -53.5q29 0 50.5 7.5t49.5 25.5h1zM143 346.5q-28 -28.5 -37 -79.5l190 4q0 50 -21.5 77t-60.5 27q-43 0 -71 -28.5z" />
    <glyph glyph-name="Eogonek" unicode="&#x118;" horiz-adv-x="537" 
d="M499 -222q3 0 5.5 -3t-0.5 -5q-52 -45 -108 -45q-53 0 -82.5 26.5t-29.5 72.5q0 86 112 176h-353q-2 0 -2 6t2 6q36 0 56 5q17 5 23.5 19.5t6.5 44.5v463q0 30 -6.5 44t-23.5 20q-20 5 -56 5q-2 0 -2 6t2 6h402q9 0 9 -9l2 -123q0 -3 -5 -3.5t-6 2.5q-3 53 -32 82.5
t-77 29.5h-61q-33 0 -51 -5q-16 -6 -23 -19.5t-7 -40.5v-203h122q48 0 68.5 16t20.5 54q0 2 6 2t6 -2l-1 -81q0 -34 1 -44l1 -48q0 -2 -6 -2t-6 2q0 44 -21.5 63t-71.5 19h-119v-230q0 -28 6 -41t22 -18q18 -5 50 -5h80q48 0 80 33.5t43 94.5q0 2 4 2q8 0 8 -4
q-9 -63 -9 -132q0 -8 -3.5 -11.5t-12.5 -3.5h-47q-40 -37 -58 -70.5t-18 -72.5q0 -48 24 -75t69 -27q20 0 35 5.5t30 17.5h2z" />
    <glyph glyph-name="eogonek" unicode="&#x119;" horiz-adv-x="408" 
d="M367 -222q3 0 5.5 -3t-0.5 -5q-45 -45 -98 -45q-48 0 -75 25.5t-27 70.5q0 87 111 177q-29 -10 -64 -10q-56 0 -97.5 26t-63.5 72q-22 43 -22 94q0 59 28 108.5t77 78.5q47 28 106 28q56 0 86 -30t30 -84q0 -12 -2 -20q-3 -6 -9 -6l-248 -1l-2 -36q0 -88 41.5 -141.5
t114.5 -53.5q29 0 50.5 7.5t49.5 25.5h1q3 0 5.5 -3.5t0.5 -6.5l-29 -23q-56 -44 -81.5 -85t-25.5 -87t20.5 -71.5t58.5 -25.5q17 0 28.5 5.5t28.5 18.5h2zM143 346.5q-28 -28.5 -37 -79.5l190 4q0 50 -21.5 77t-60.5 27q-43 0 -71 -28.5z" />
    <glyph glyph-name="Ecaron" unicode="&#x11a;" horiz-adv-x="537" 
d="M177 784q-1 0 -1 1q0 2 2.5 4.5t4.5 1.5l109 -57l108 57h1q3 0 5 -3t-1 -4l-102 -97q-4 -4 -11 -4q-8 0 -12 4zM479 151q8 0 8 -4q-9 -63 -9 -132q0 -8 -3.5 -11.5t-12.5 -3.5h-419q-2 0 -2 6t2 6q36 0 56 5q17 5 23.5 19.5t6.5 44.5v463q0 30 -6.5 44t-23.5 20
q-20 5 -56 5q-2 0 -2 6t2 6h402q9 0 9 -9l2 -123q0 -3 -5 -3.5t-6 2.5q-3 53 -32 82.5t-77 29.5h-61q-33 0 -51 -5q-16 -6 -23 -19.5t-7 -40.5v-203h122q48 0 68.5 16t20.5 54q0 2 6 2t6 -2l-1 -81q0 -34 1 -44l1 -48q0 -2 -6 -2t-6 2q0 44 -21.5 63t-71.5 19h-119v-230
q0 -28 6 -41t22 -18q18 -5 50 -5h80q48 0 80 33.5t43 94.5q0 2 4 2z" />
    <glyph glyph-name="ecaron" unicode="&#x11b;" horiz-adv-x="408" 
d="M147 726q-1 3 4.5 4t6.5 -1l69 -165l68 165q0 1 3 1q8 0 7 -4l-67 -249q-2 -5 -11 -5t-12 5zM359 56q3 0 5.5 -3.5t0.5 -6.5q-65 -58 -146 -58q-56 0 -97.5 26t-63.5 72q-22 43 -22 94q0 59 28 108.5t77 78.5q47 28 106 28q56 0 86 -30t30 -84q0 -12 -2 -20q-3 -6 -9 -6
l-248 -1l-2 -36q0 -88 41.5 -141.5t114.5 -53.5q29 0 50.5 7.5t49.5 25.5h1zM143 346.5q-28 -28.5 -37 -79.5l190 4q0 50 -21.5 77t-60.5 27q-43 0 -71 -28.5z" />
    <glyph glyph-name="Gcircumflex" unicode="&#x11c;" horiz-adv-x="714" 
d="M383 790q5 5 12 5q6 0 11 -5l102 -98q1 0 1 -2t-2.5 -4t-3.5 -1l-108 58l-109 -58q-2 -1 -5 2.5t-1 4.5zM218 31.5q-82 43.5 -126 119.5q-43 74 -43 165q0 96 48.5 168.5t135.5 112.5q86 39 191 39q54 0 100.5 -10t77.5 -29q8 -4 9 -6.5t2 -15.5l12 -118q0 -3 -5.5 -4
t-6.5 3q-47 164 -208 164q-79 0 -142.5 -35.5t-99.5 -100.5q-37 -65 -37 -153q0 -87 36 -161.5t104 -119.5q71 -47 169 -47q71 0 100 27.5t29 94.5q0 52 -6 73q-8 20 -29 27t-79 7q-6 0 -6 8q0 3 1.5 5.5t3.5 2.5q87 -5 126 -5q46 0 99 3q2 0 3.5 -2.5t1.5 -4.5q0 -7 -5 -7
q-25 1 -34.5 -6.5t-12.5 -29.5t-3 -81q0 -47 4 -64l3 -24q0 -6 -2 -8t-9 -4q-124 -27 -212 -27q-108 0 -190 43.5z" />
    <glyph glyph-name="gcircumflex" unicode="&#x11d;" horiz-adv-x="445" 
d="M147 474q0 -2 -4 -2q-3 0 -5 2q-3 1 -2 2l68 249q2 5 11 5q10 0 12 -5l67 -249v-1q0 -2 -4.5 -3t-5.5 2l-68 164zM344 17.5q30 -5.5 56 -25.5q28 -22 28 -70q0 -53 -34.5 -100t-92.5 -74q-57 -28 -121 -28q-68 0 -108 30.5t-40 79.5q0 74 103 146q-39 5 -58.5 21
t-19.5 46q0 29 16.5 52.5t55.5 54.5q-34 17 -53 47t-19 66q0 56 44.5 93t114.5 37q66 0 104 -31q28 16 53.5 24t53.5 8q3 0 4 -7q1 -5 1 -15q0 -8 -2 -24q-3 -11 -7 -10q-38 15 -67 15q-6 0 -24 -2q34 -37 34 -86q0 -36 -19.5 -66t-55.5 -48t-82 -18q-34 0 -65 11
q-20 -17 -28.5 -32t-8.5 -33q0 -22 13.5 -33.5t44.5 -16.5q35 -5 87 -5q62 -1 92 -6.5zM119 287q0 -43 15.5 -75t41.5 -48q25 -16 52 -16q35 0 55 24t20 71q0 61 -31.5 98t-79.5 37q-73 0 -73 -91zM334.5 -213q43.5 37 43.5 97q0 38 -18.5 57t-52.5 25q-35 5 -89 5
q-12 0 -60 2q-35 -22 -51.5 -47.5t-16.5 -62.5q0 -52 34.5 -82.5t96.5 -30.5q70 0 113.5 37z" />
    <glyph glyph-name="Gbreve" unicode="&#x11e;" horiz-adv-x="714" 
d="M325.5 718q-26.5 28 -34.5 79q-1 4 4 4.5t7 -1.5q7 -27 33.5 -47t58.5 -20q31 0 57.5 20t33.5 47q0 2 4 2q3 0 5.5 -1.5t1.5 -3.5q-8 -52 -34 -79.5t-68 -27.5t-68.5 28zM218 31.5q-82 43.5 -126 119.5q-43 74 -43 165q0 96 48.5 168.5t135.5 112.5q86 39 191 39
q54 0 100.5 -10t77.5 -29q8 -4 9 -6.5t2 -15.5l12 -118q0 -3 -5.5 -4t-6.5 3q-47 164 -208 164q-79 0 -142.5 -35.5t-99.5 -100.5q-37 -65 -37 -153q0 -87 36 -161.5t104 -119.5q71 -47 169 -47q71 0 100 27.5t29 94.5q0 52 -6 73q-8 20 -29 27t-79 7q-6 0 -6 8q0 3 1.5 5.5
t3.5 2.5q87 -5 126 -5q46 0 99 3q2 0 3.5 -2.5t1.5 -4.5q0 -7 -5 -7q-25 1 -34.5 -6.5t-12.5 -29.5t-3 -81q0 -47 4 -64l3 -24q0 -6 -2 -8t-9 -4q-124 -27 -212 -27q-108 0 -190 43.5z" />
    <glyph glyph-name="gbreve" unicode="&#x11f;" horiz-adv-x="445" 
d="M138.5 511.5q-26.5 38.5 -26.5 111.5q0 4 5.5 5t5.5 -2q0 -44 26 -73.5t66 -29.5q38 0 64.5 30t26.5 73q0 2 3 2t5.5 -1.5t2.5 -3.5q0 -74 -26 -112t-76 -38t-76.5 38.5zM344 17.5q30 -5.5 56 -25.5q28 -22 28 -70q0 -53 -34.5 -100t-92.5 -74q-57 -28 -121 -28
q-68 0 -108 30.5t-40 79.5q0 74 103 146q-39 5 -58.5 21t-19.5 46q0 29 16.5 52.5t55.5 54.5q-34 17 -53 47t-19 66q0 56 44.5 93t114.5 37q66 0 104 -31q28 16 53.5 24t53.5 8q3 0 4 -7q1 -5 1 -15q0 -8 -2 -24q-3 -11 -7 -10q-38 15 -67 15q-6 0 -24 -2q34 -37 34 -86
q0 -36 -19.5 -66t-55.5 -48t-82 -18q-34 0 -65 11q-20 -17 -28.5 -32t-8.5 -33q0 -22 13.5 -33.5t44.5 -16.5q35 -5 87 -5q62 -1 92 -6.5zM119 287q0 -43 15.5 -75t41.5 -48q25 -16 52 -16q35 0 55 24t20 71q0 61 -31.5 98t-79.5 37q-73 0 -73 -91zM334.5 -213
q43.5 37 43.5 97q0 38 -18.5 57t-52.5 25q-35 5 -89 5q-12 0 -60 2q-35 -22 -51.5 -47.5t-16.5 -62.5q0 -52 34.5 -82.5t96.5 -30.5q70 0 113.5 37z" />
    <glyph glyph-name="Gdotaccent" unicode="&#x120;" horiz-adv-x="714" 
d="M361.5 724.5q-11.5 11.5 -11.5 32.5q0 19 11.5 30t32.5 11q20 0 31 -11t11 -30q0 -21 -11 -32.5t-31 -11.5q-21 0 -32.5 11.5zM218 31.5q-82 43.5 -126 119.5q-43 74 -43 165q0 96 48.5 168.5t135.5 112.5q86 39 191 39q54 0 100.5 -10t77.5 -29q8 -4 9 -6.5t2 -15.5
l12 -118q0 -3 -5.5 -4t-6.5 3q-47 164 -208 164q-79 0 -142.5 -35.5t-99.5 -100.5q-37 -65 -37 -153q0 -87 36 -161.5t104 -119.5q71 -47 169 -47q71 0 100 27.5t29 94.5q0 52 -6 73q-8 20 -29 27t-79 7q-6 0 -6 8q0 3 1.5 5.5t3.5 2.5q87 -5 126 -5q46 0 99 3q2 0 3.5 -2.5
t1.5 -4.5q0 -7 -5 -7q-25 1 -34.5 -6.5t-12.5 -29.5t-3 -81q0 -47 4 -64l3 -24q0 -6 -2 -8t-9 -4q-124 -27 -212 -27q-108 0 -190 43.5z" />
    <glyph glyph-name="gdotaccent" unicode="&#x121;" horiz-adv-x="445" 
d="M182.5 523q-11.5 11 -11.5 31t11.5 31t32.5 11q20 0 31 -11t11 -31t-11 -31t-31 -11q-21 0 -32.5 11zM344 17.5q30 -5.5 56 -25.5q28 -22 28 -70q0 -53 -34.5 -100t-92.5 -74q-57 -28 -121 -28q-68 0 -108 30.5t-40 79.5q0 74 103 146q-39 5 -58.5 21t-19.5 46
q0 29 16.5 52.5t55.5 54.5q-34 17 -53 47t-19 66q0 56 44.5 93t114.5 37q66 0 104 -31q28 16 53.5 24t53.5 8q3 0 4 -7q1 -5 1 -15q0 -8 -2 -24q-3 -11 -7 -10q-38 15 -67 15q-6 0 -24 -2q34 -37 34 -86q0 -36 -19.5 -66t-55.5 -48t-82 -18q-34 0 -65 11q-20 -17 -28.5 -32
t-8.5 -33q0 -22 13.5 -33.5t44.5 -16.5q35 -5 87 -5q62 -1 92 -6.5zM119 287q0 -43 15.5 -75t41.5 -48q25 -16 52 -16q35 0 55 24t20 71q0 61 -31.5 98t-79.5 37q-73 0 -73 -91zM334.5 -213q43.5 37 43.5 97q0 38 -18.5 57t-52.5 25q-35 5 -89 5q-12 0 -60 2
q-35 -22 -51.5 -47.5t-16.5 -62.5q0 -52 34.5 -82.5t96.5 -30.5q70 0 113.5 37z" />
    <glyph glyph-name="Gcommaaccent" unicode="&#x122;" horiz-adv-x="714" 
d="M677.5 243.5q1.5 -2.5 1.5 -4.5q0 -7 -5 -7q-25 1 -34.5 -6.5t-12.5 -29.5t-3 -81q0 -47 4 -64l3 -24q0 -6 -2 -8t-9 -4q-124 -27 -212 -27q-108 0 -190 43.5t-126 119.5q-43 74 -43 165q0 96 48.5 168.5t135.5 112.5q86 39 191 39q54 0 100.5 -10t77.5 -29q8 -4 9 -6.5
t2 -15.5l12 -118q0 -3 -5.5 -4t-6.5 3q-47 164 -208 164q-79 0 -142.5 -35.5t-99.5 -100.5q-37 -65 -37 -153q0 -87 36 -161.5t104 -119.5q71 -47 169 -47q71 0 100 27.5t29 94.5q0 52 -6 73q-8 20 -29 27t-79 7q-6 0 -6 8q0 3 1.5 5.5t3.5 2.5q87 -5 126 -5q46 0 99 3
q2 0 3.5 -2.5zM460.5 -104q14.5 -19 14.5 -54q0 -62 -61 -117q-1 -1 -3 -1q-3 0 -5 3.5t0 5.5q44 38 44 89q0 20 -6 29q-7 -15 -30 -15q-18 0 -28.5 11t-10.5 28q0 40 43 40q28 0 42.5 -19z" />
    <glyph glyph-name="gcommaaccent" unicode="&#x123;" horiz-adv-x="445" 
d="M173.5 504q-14.5 19 -14.5 54q0 62 61 117q1 1 3 1q3 0 5 -3.5t0 -5.5q-44 -38 -44 -89q0 -20 6 -29q8 15 30 15q18 0 28.5 -11t10.5 -28q0 -40 -43 -40q-28 0 -42.5 19zM344 17.5q30 -5.5 56 -25.5q28 -22 28 -70q0 -53 -34.5 -100t-92.5 -74q-57 -28 -121 -28
q-68 0 -108 30.5t-40 79.5q0 74 103 146q-39 5 -58.5 21t-19.5 46q0 29 16.5 52.5t55.5 54.5q-34 17 -53 47t-19 66q0 56 44.5 93t114.5 37q66 0 104 -31q28 16 53.5 24t53.5 8q3 0 4 -7q1 -5 1 -15q0 -8 -2 -24q-3 -11 -7 -10q-38 15 -67 15q-6 0 -24 -2q34 -37 34 -86
q0 -36 -19.5 -66t-55.5 -48t-82 -18q-34 0 -65 11q-20 -17 -28.5 -32t-8.5 -33q0 -22 13.5 -33.5t44.5 -16.5q35 -5 87 -5q62 -1 92 -6.5zM119 287q0 -43 15.5 -75t41.5 -48q25 -16 52 -16q35 0 55 24t20 71q0 61 -31.5 98t-79.5 37q-73 0 -73 -91zM334.5 -213
q43.5 37 43.5 97q0 38 -18.5 57t-52.5 25q-35 5 -89 5q-12 0 -60 2q-35 -22 -51.5 -47.5t-16.5 -62.5q0 -52 34.5 -82.5t96.5 -30.5q70 0 113.5 37z" />
    <glyph glyph-name="Hcircumflex" unicode="&#x124;" horiz-adv-x="759" 
d="M272 685q-2 -1 -5 2.5t-1 4.5l103 98q5 5 12 5q6 0 11 -5l102 -98q1 0 1 -2t-2.5 -4t-3.5 -1l-108 58zM725 6q0 -6 -3 -6q-37 0 -49 1l-69 1l-74 -1q-11 -1 -47 -1q-3 0 -3 6t3 6q37 0 57 5q18 5 24.5 19t6.5 45v234h-384v-234q0 -31 6.5 -45t24.5 -19q20 -5 57 -5
q2 0 2 -6t-2 -6q-37 0 -49 1l-72 1l-69 -1q-12 -1 -50 -1q-2 0 -2 6t2 6q35 0 57 5q18 5 24.5 19t6.5 45v463q0 30 -6.5 44t-24.5 20q-20 5 -56 5q-2 0 -2 6t2 6l51 -1q56 -2 67 -2q15 0 73 2l48 1q2 0 2 -6t-2 -6q-38 0 -56 -6t-25 -20t-7 -45v-206h384v206q0 30 -6.5 44.5
t-24.5 20.5t-57 6q-3 0 -3 6t3 6l47 -1q58 -2 74 -2q13 0 69 2l49 1q3 0 3 -6t-3 -6q-36 0 -56 -5q-18 -6 -24.5 -20t-6.5 -44v-463q0 -31 6.5 -45t24.5 -19q20 -5 56 -5q3 0 3 -6z" />
    <glyph glyph-name="hcircumflex" unicode="&#x125;" horiz-adv-x="499" 
d="M17 720q-2 -1 -5 2.5t-1 4.5l103 98q5 5 12 5q6 0 11 -5l102 -98q1 0 1 -2t-2.5 -4t-3.5 -1l-108 58zM480 6q0 -6 -3 -6q-28 0 -37 1l-54 1l-54 -1q-9 -1 -37 -1q-3 0 -3 6t3 6q27 0 40 5.5t18 20.5t5 43v159q0 59 -22.5 87.5t-69.5 28.5q-31 0 -63 -16.5t-58 -45.5v-213
q0 -29 5 -43.5t18 -19.5q14 -6 40 -6q3 0 3 -6t-3 -6q-28 0 -37 1l-54 1l-54 -1q-9 -1 -37 -1q-3 0 -3 6t3 6q27 0 40 5.5t18 20.5t5 43v517q0 37 -7 52q-7 16 -25 16q-13 0 -46 -14h-2q-3 0 -5 5t2 6l127 62h3q4 0 6.5 -2.5t2.5 -5.5v-406q38 44 75.5 64.5t78.5 20.5
q55 0 85 -31t30 -90v-194q0 -29 5 -43.5t18 -19.5q14 -6 40 -6q3 0 3 -6z" />
    <glyph glyph-name="Hbar" unicode="&#x126;" horiz-adv-x="759" 
d="M725 6q0 -6 -3 -6q-37 0 -49 1l-69 1l-74 -1q-11 -1 -47 -1q-3 0 -3 6t3 6q37 0 57 5q18 5 24.5 19t6.5 45v140h-384v-140q0 -31 6.5 -45t24.5 -19q20 -5 57 -5q2 0 2 -6t-2 -6q-37 0 -49 1l-72 1l-69 -1q-12 -1 -50 -1q-2 0 -2 6t2 6q35 0 57 5q18 5 24.5 19t6.5 45v463
q0 30 -6.5 44t-24.5 20q-20 5 -56 5q-2 0 -2 6t2 6l51 -1q56 -2 67 -2q15 0 73 2l48 1q2 0 2 -6t-2 -6q-38 0 -56 -6t-25 -20t-7 -45v-113h384v113q0 30 -6.5 44.5t-24.5 20.5t-57 6q-3 0 -3 6t3 6l47 -1q58 -2 74 -2q13 0 69 2l49 1q3 0 3 -6t-3 -6q-36 0 -56 -5
q-18 -6 -24.5 -20t-6.5 -44v-463q0 -31 6.5 -45t24.5 -19q20 -5 56 -5q3 0 3 -6zM187 242h384v166h-384v-166z" />
    <glyph glyph-name="hbar" unicode="&#x127;" horiz-adv-x="499" 
d="M480 6q0 -6 -3 -6q-28 0 -37 1l-54 1l-54 -1q-9 -1 -37 -1q-3 0 -3 6t3 6q27 0 40 5.5t18 20.5t5 43v159q0 59 -22.5 87.5t-69.5 28.5q-31 0 -63 -16.5t-58 -45.5v-213q0 -29 5 -43.5t18 -19.5q14 -6 40 -6q3 0 3 -6t-3 -6q-28 0 -37 1l-54 1l-54 -1q-9 -1 -37 -1
q-3 0 -3 6t3 6q27 0 40 5.5t18 20.5t5 43v421h-77q-2 0 -3.5 3t-1.5 7t1.5 7t3.5 3h77v76q0 37 -7 52q-7 16 -25 16q-13 0 -46 -14h-2q-3 0 -5 5t2 6l127 62h3q4 0 6.5 -2.5t2.5 -5.5v-195h159q2 0 3.5 -3t1.5 -7t-1.5 -7t-3.5 -3h-159v-191q38 44 75.5 64.5t78.5 20.5
q55 0 85 -31t30 -90v-194q0 -29 5 -43.5t18 -19.5q14 -6 40 -6q3 0 3 -6z" />
    <glyph glyph-name="Itilde" unicode="&#x128;" horiz-adv-x="332" 
d="M39 697q-2 0 -4.5 2.5t-1.5 4.5q17 26 40 44.5t45 18.5q16 0 51 -11q48 -14 74 -14q17 0 27 6t23 21h1q3 0 5 -2.5t1 -4.5q-27 -37 -43 -49q-16 -13 -36 -13q-22 0 -62 12q-42 12 -69 12q-25 0 -40 -17l-10 -10h-1zM199 81q0 -31 6 -45t24 -19t55 -5q3 0 3 -6t-3 -6
q-36 0 -48 1l-71 1l-69 -1q-12 -1 -49 -1q-3 0 -3 6t3 6q36 0 56 5q17 5 23.5 19.5t6.5 44.5v463q0 30 -6.5 44t-23.5 20q-20 5 -56 5q-3 0 -3 6t3 6l49 -1q56 -2 69 -2q16 0 72 2l47 1q3 0 3 -6t-3 -6q-38 0 -54 -6q-18 -6 -24.5 -20.5t-6.5 -44.5v-461z" />
    <glyph glyph-name="itilde" unicode="&#x129;" horiz-adv-x="273" 
d="M217 530q10 6 23 21h1q3 0 5.5 -2.5t0.5 -4.5q-23 -33 -43 -49q-16 -13 -35 -13q-14 0 -40 12q-1 0 -14.5 6.5t-30.5 6.5q-25 0 -41 -18l-9 -9h-1q-2 0 -4.5 2.5t-1.5 4.5q46 61 85 61q10 0 33 -10q30 -14 46 -14t26 6zM51 6q0 6 2 6q27 0 40.5 5.5t18.5 20.5t5 43v187
q0 37 -7 52q-7 16 -26 16q-17 0 -45 -14h-1q-4 0 -6 5t1 7l130 60l4 1q2 0 5 -2.5t3 -5.5l-1 -40q-1 -22 -1 -78v-188q0 -30 5 -44t18 -19q14 -6 40 -6q3 0 3 -6t-3 -6q-28 0 -37 1l-54 1l-54 -1q-9 -1 -38 -1q-2 0 -2 6z" />
    <glyph glyph-name="Imacron" unicode="&#x12a;" horiz-adv-x="332" 
d="M40 722q-6 0 -6 14t6 14h251q6 0 6 -14t-6 -14h-251zM199 81q0 -31 6 -45t24 -19t55 -5q3 0 3 -6t-3 -6q-36 0 -48 1l-71 1l-69 -1q-12 -1 -49 -1q-3 0 -3 6t3 6q36 0 56 5q17 5 23.5 19.5t6.5 44.5v463q0 30 -6.5 44t-23.5 20q-20 5 -56 5q-3 0 -3 6t3 6l49 -1
q56 -2 69 -2q16 0 72 2l47 1q3 0 3 -6t-3 -6q-38 0 -54 -6q-18 -6 -24.5 -20.5t-6.5 -44.5v-461z" />
    <glyph glyph-name="imacron" unicode="&#x12b;" horiz-adv-x="273" 
d="M11 483q-6 0 -6 14t6 14h251q6 0 6 -14t-6 -14h-251zM51 6q0 6 2 6q27 0 40.5 5.5t18.5 20.5t5 43v187q0 37 -7 52q-7 16 -26 16q-17 0 -45 -14h-1q-4 0 -6 5t1 7l130 60l4 1q2 0 5 -2.5t3 -5.5l-1 -40q-1 -22 -1 -78v-188q0 -30 5 -44t18 -19q14 -6 40 -6q3 0 3 -6
t-3 -6q-28 0 -37 1l-54 1l-54 -1q-9 -1 -38 -1q-2 0 -2 6z" />
    <glyph glyph-name="Ibreve" unicode="&#x12c;" horiz-adv-x="332" 
d="M97.5 718q-26.5 28 -34.5 79q-1 4 4 4.5t7 -1.5q7 -27 33.5 -47t58.5 -20q31 0 57.5 20t33.5 47q0 2 4 2q3 0 5.5 -1.5t1.5 -3.5q-8 -52 -34 -79.5t-68 -27.5t-68.5 28zM199 81q0 -31 6 -45t24 -19t55 -5q3 0 3 -6t-3 -6q-36 0 -48 1l-71 1l-69 -1q-12 -1 -49 -1
q-3 0 -3 6t3 6q36 0 56 5q17 5 23.5 19.5t6.5 44.5v463q0 30 -6.5 44t-23.5 20q-20 5 -56 5q-3 0 -3 6t3 6l49 -1q56 -2 69 -2q16 0 72 2l47 1q3 0 3 -6t-3 -6q-38 0 -54 -6q-18 -6 -24.5 -20.5t-6.5 -44.5v-461z" />
    <glyph glyph-name="ibreve" unicode="&#x12d;" horiz-adv-x="273" 
d="M39.5 628q5.5 1 5.5 -2q0 -44 26 -73.5t66 -29.5q38 0 64.5 30t26.5 73q0 2 3 2t5.5 -1.5t2.5 -3.5q0 -74 -26 -112t-76 -38t-76.5 38.5t-26.5 111.5q0 4 5.5 5zM51 6q0 6 2 6q27 0 40.5 5.5t18.5 20.5t5 43v187q0 37 -7 52q-7 16 -26 16q-17 0 -45 -14h-1q-4 0 -6 5t1 7
l130 60l4 1q2 0 5 -2.5t3 -5.5l-1 -40q-1 -22 -1 -78v-188q0 -30 5 -44t18 -19q14 -6 40 -6q3 0 3 -6t-3 -6q-28 0 -37 1l-54 1l-54 -1q-9 -1 -38 -1q-2 0 -2 6z" />
    <glyph glyph-name="Iogonek" unicode="&#x12e;" horiz-adv-x="332" 
d="M287 6q0 -6 -3 -6q-33 0 -44 1l-65 1q-49 -64 -49 -140q0 -48 22.5 -77t61.5 -29q16 0 26 4.5t26 17.5h1q3 0 5.5 -3t0.5 -5q-25 -24 -47 -34.5t-49 -10.5q-48 0 -75 26.5t-27 71.5q0 88 88 179l-65 -1q-11 -1 -47 -1q-3 0 -3 6t3 6q36 0 56 5q17 5 23.5 19.5t6.5 44.5
v463q0 30 -6.5 44t-23.5 20q-20 5 -56 5q-3 0 -3 6t3 6l49 -1q56 -2 69 -2q16 0 72 2l47 1q3 0 3 -6t-3 -6q-38 0 -54 -6q-18 -6 -24.5 -20.5t-6.5 -44.5v-461q0 -31 6 -45t24 -19t55 -5q3 0 3 -6z" />
    <glyph glyph-name="iogonek" unicode="&#x12f;" horiz-adv-x="273" 
d="M104.5 523q-11.5 11 -11.5 31t11.5 31t32.5 11q20 0 31 -11t11 -31t-11 -31t-31 -11q-21 0 -32.5 11zM240 -215q3 0 5.5 -3t0.5 -5q-25 -24 -47 -34.5t-49 -10.5q-48 0 -75 26.5t-27 71.5q0 85 81 172l-76 -2q-2 0 -2 6t2 6q27 0 40.5 5.5t18.5 20.5t5 43v187q0 37 -7 52
q-7 16 -26 16q-17 0 -45 -14h-1q-4 0 -6 5t1 7l130 60l4 1q2 0 5 -2.5t3 -5.5l-1 -40q-1 -22 -1 -78v-188q0 -30 5 -44t18 -19q14 -6 40 -6q3 0 3 -6t-3 -6q-28 0 -37 1l-52 1q-44 -62 -44 -133q0 -48 22.5 -77t61.5 -29q16 0 26 4.5t26 17.5h1z" />
    <glyph glyph-name="Idotaccent" unicode="&#x130;" horiz-adv-x="332" 
d="M133.5 724.5q-11.5 11.5 -11.5 32.5q0 19 11.5 30t32.5 11q20 0 31 -11t11 -30q0 -21 -11 -32.5t-31 -11.5q-21 0 -32.5 11.5zM199 81q0 -31 6 -45t24 -19t55 -5q3 0 3 -6t-3 -6q-36 0 -48 1l-71 1l-69 -1q-12 -1 -49 -1q-3 0 -3 6t3 6q36 0 56 5q17 5 23.5 19.5
t6.5 44.5v463q0 30 -6.5 44t-23.5 20q-20 5 -56 5q-3 0 -3 6t3 6l49 -1q56 -2 69 -2q16 0 72 2l47 1q3 0 3 -6t-3 -6q-38 0 -54 -6q-18 -6 -24.5 -20.5t-6.5 -44.5v-461z" />
    <glyph glyph-name="dotlessi" unicode="&#x131;" horiz-adv-x="273" 
d="M51 6q0 6 2 6q27 0 40.5 5.5t18.5 20.5t5 43v187q0 37 -7 52q-7 16 -26 16q-17 0 -45 -14h-1q-4 0 -6 5t1 7l130 60l4 1q2 0 5 -2.5t3 -5.5l-1 -40q-1 -22 -1 -78v-188q0 -30 5 -44t18 -19q14 -6 40 -6q3 0 3 -6t-3 -6q-28 0 -37 1l-54 1l-54 -1q-9 -1 -38 -1q-2 0 -2 6z
" />
    <glyph glyph-name="IJ" unicode="&#x132;" horiz-adv-x="690" 
d="M194 350q0 -31 6 -45t24 -19t56 -5q2 0 2 -6t-2 -6q-37 0 -49 1l-71 1l-67 -1q-13 -1 -51 -1q-2 0 -2 6t2 6q36 0 56 5q17 5 23.5 19.5t6.5 44.5v194q0 30 -6.5 44t-23.5 20q-20 5 -56 5q-2 0 -2 6t2 6l51 -1q56 -2 67 -2q15 0 73 2l47 1q2 0 2 -6t-2 -6q-37 0 -55 -6
t-24 -20q-7 -14 -7 -45v-192zM656 625q3 0 3 -6t-3 -6q-32 0 -47.5 -6t-20.5 -20q-6 -15 -6 -45v-284q0 -85 -29.5 -146t-84.5 -93t-125 -32q-60 0 -112 22t-82 58q-30 35 -30 68q0 17 9 27t25 10q20 0 29 -12.5t18 -46.5q10 -39 21 -60t37 -35q28 -16 80 -16q90 0 134.5 51
t44.5 147v344q0 30 -7.5 44t-27.5 20q-22 5 -63 5q-3 0 -3 6t3 6l58 -1q58 -2 71 -2q15 0 65 2z" />
    <glyph glyph-name="ij" unicode="&#x133;" horiz-adv-x="526" 
d="M104.5 523q-11.5 11 -11.5 31t11.5 31t32.5 11q20 0 31 -11t11 -31t-11 -31t-31 -11q-21 0 -32.5 11zM364.5 523q-11.5 11 -11.5 31t11.5 31t32.5 11q20 0 31 -11t11 -31t-11 -31t-31 -11q-21 0 -32.5 11zM51 6q0 6 2 6q27 0 40.5 5.5t18.5 20.5t5 43v187q0 37 -7 52
q-7 16 -26 16q-17 0 -45 -14h-1q-4 0 -6 5t1 7l130 60l4 1q2 0 5 -2.5t3 -5.5l-1 -40q-1 -22 -1 -78v-188q0 -30 5 -44t18 -19q14 -6 40 -6q3 0 3 -6t-3 -6q-28 0 -37 1l-54 1l-54 -1q-9 -1 -38 -1q-2 0 -2 6zM435 347q-1 -22 -1 -78v-317q0 -68 -13.5 -111.5t-43.5 -72.5
q-31 -29 -84 -50q-2 -1 -4.5 4.5t-0.5 6.5q49 21 69 67t20 133v339q0 37 -7 52q-7 16 -24 16q-16 0 -46 -14h-1q-5 0 -7 5t2 7l130 60l3 1q4 0 6.5 -2.5t2.5 -5.5z" />
    <glyph glyph-name="Jcircumflex" unicode="&#x134;" horiz-adv-x="322" 
d="M152 799q5 5 12 5q6 0 11 -5l102 -98q1 0 1 -2t-2.5 -4t-3.5 -1l-108 58l-109 -58q-2 -1 -5 2.5t-1 4.5zM280 625q2 0 2 -6t-2 -6q-33 0 -48 -6t-20 -20q-6 -15 -6 -45v-570q0 -100 -46.5 -158t-132.5 -58q-34 0 -53.5 11.5t-19.5 31.5q0 15 9 24t25 9t25 -6.5t20 -23.5
q9 -15 16.5 -20.5t19.5 -5.5q36 0 54 42q17 42 17 133v593q0 31 -7 44.5t-27 19.5q-23 5 -64 5q-2 0 -2 6t2 6l58 -1l72 -2q14 0 64 2z" />
    <glyph glyph-name="jcircumflex" unicode="&#x135;" horiz-adv-x="257" 
d="M207 476v-1q0 -2 -4.5 -3t-5.5 2l-68 164l-69 -164q0 -2 -4 -2q-3 0 -5 2q-3 1 -2 2l68 249q2 5 11 5q10 0 12 -5zM166 347q-1 -22 -1 -78v-317q0 -68 -13.5 -111.5t-43.5 -72.5q-31 -29 -84 -50q-2 -1 -4.5 4.5t-0.5 6.5q49 21 69 67t20 133v339q0 37 -7 52
q-7 16 -24 16q-16 0 -46 -14h-1q-5 0 -7 5t2 7l130 60l3 1q4 0 6.5 -2.5t2.5 -5.5z" />
    <glyph glyph-name="Kcommaaccent" unicode="&#x136;" horiz-adv-x="650" 
d="M644 6q0 -6 -3 -6h-112h-28q-21 -1 -58 51q-45 61 -71 94l-153 193l-33 -32v-225q0 -31 6 -45t24 -19t55 -5q3 0 3 -6t-3 -6q-36 0 -48 1l-70 1l-68 -1q-12 -1 -50 -1q-2 0 -2 6t2 6q36 0 56 5q17 5 23.5 19.5t6.5 44.5v463q0 31 -6 44.5t-23 19.5q-20 5 -56 5q-2 0 -2 6
t2 6l50 -1q56 -2 67 -2q15 0 71 2l47 1q3 0 3 -6t-3 -6q-38 0 -54 -6q-18 -6 -24.5 -20.5t-6.5 -44.5v-211l214 213q33 33 33 49q0 20 -59 20q-2 0 -2 6t2 6l43 -1q54 -2 73 -2q21 0 69 2l37 1q3 0 3 -6t-3 -6q-44 0 -89.5 -19t-83.5 -56l-158 -155l144 -184
q77 -99 112 -134q25 -26 41.5 -37t32 -13.5t46.5 -2.5q3 0 3 -6zM379.5 -104q14.5 -19 14.5 -54q0 -62 -61 -117q-1 -1 -3 -1q-3 0 -5 3.5t0 5.5q44 38 44 89q0 20 -6 29q-7 -15 -30 -15q-18 0 -28.5 11t-10.5 28q0 40 43 40q28 0 42.5 -19z" />
    <glyph glyph-name="kcommaaccent" unicode="&#x137;" horiz-adv-x="491" 
d="M486 6q0 -6 -3 -6q-28 0 -37 1l-54 1l-72 -1q-11 -1 -43 -1q-2 0 -2 6t2 6q50 0 50 19q0 9 -9 22l-123 167l-50 -39v-100q0 -29 5 -43.5t18 -19.5q14 -6 40 -6q3 0 3 -6t-3 -6q-28 0 -37 1l-54 1l-54 -1q-9 -1 -37 -1q-3 0 -3 6t3 6q27 0 40 5.5t18 20.5t5 43v517
q0 37 -7 52q-7 16 -25 16q-13 0 -46 -14h-2q-3 0 -5 5t2 6l125 61l5 1q3 0 6 -2.5t3 -5.5v-520l134 108q32 26 32 44q0 25 -57 25q-3 0 -3 6t3 6q32 0 41 -1l73 -1l67 1q9 1 36 1q3 0 3 -6t-3 -6q-38 0 -83 -18.5t-89 -53.5l-58 -46l127 -175q50 -69 115 -69q3 0 3 -6z
M282.5 -104q14.5 -19 14.5 -54q0 -62 -61 -117q-1 -1 -3 -1q-3 0 -5 3.5t0 5.5q44 38 44 89q0 20 -6 29q-7 -15 -30 -15q-18 0 -28.5 11t-10.5 28q0 40 43 40q28 0 42.5 -19z" />
    <glyph glyph-name="kgreenlandic" unicode="&#x138;" horiz-adv-x="509" 
d="M503 6q0 -6 -2 -6q-29 0 -38 1l-54 1l-71 -1q-11 -1 -43 -1q-3 0 -3 6t3 6q49 0 49 19q0 9 -9 22l-123 167l-49 -39v-100q0 -30 5 -44t18 -19q14 -6 40 -6q3 0 3 -6t-3 -6q-29 0 -38 1l-54 1l-54 -1q-9 -1 -37 -1q-2 0 -2 6t2 6q27 0 40 5.5t18 20.5t5 43v198q0 34 -8 49
t-27 15q-16 0 -54 -15h-2q-4 0 -5.5 4.5t2.5 6.5l117 55q1 1 5 1q8 0 19 -23q10 -21 10 -59v-116l134 108q32 26 32 44q0 25 -57 25q-3 0 -3 6t3 6q32 0 41 -1l73 -1l66 1q9 1 37 1q2 0 2 -6t-2 -6q-39 0 -84 -18.5t-89 -53.5l-58 -46l127 -175q50 -69 116 -69q2 0 2 -6z
" />
    <glyph glyph-name="Lacute" unicode="&#x139;" horiz-adv-x="533" 
d="M59 678q-4 0 -5 4.5t2 6.5l109 62q18 12 54 33q4 2 23.5 -4.5t33.5 -14.5t7 -9q-59 -14 -109.5 -32t-112.5 -45zM185 85q0 -29 6 -41.5t22 -17.5q18 -5 52 -5h109q56 0 90.5 34.5t45.5 97.5q0 3 5.5 2.5t5.5 -3.5q-9 -82 -9 -137q0 -8 -3 -11.5t-12 -3.5h-462q-2 0 -2 6
t2 6q36 0 56 5q17 5 23 19t6 45v463q0 31 -6 44.5t-23 19.5q-20 5 -56 5q-2 0 -2 6t2 6l49 -1l68 -2q14 0 70 2l48 1q3 0 3 -6t-3 -6q-36 0 -54 -5q-18 -6 -24.5 -20.5t-6.5 -44.5v-458z" />
    <glyph glyph-name="lacute" unicode="&#x13a;" horiz-adv-x="258" 
d="M27 727q-4 0 -5 4.5t2 6.5l109 62q18 12 54 33q4 2 23.5 -4.5t33.5 -14.5t7 -9q-59 -14 -109.5 -32t-112.5 -45zM37 6q0 6 3 6q27 0 40 5.5t18 20.5t5 43v517q0 37 -7 52q-7 16 -25 16q-13 0 -46 -14h-2q-3 0 -4.5 5t1.5 6l128 61q1 1 5 1q2 0 5.5 -2.5t3.5 -5.5v-636
q0 -30 4.5 -43.5t17.5 -19.5q14 -6 40 -6q3 0 3 -6t-3 -6q-27 0 -36 1l-56 1l-54 -1q-9 -1 -38 -1q-3 0 -3 6z" />
    <glyph glyph-name="Lcommaaccent" unicode="&#x13b;" horiz-adv-x="533" 
d="M515.5 155.5q5.5 -0.5 5.5 -3.5q-9 -82 -9 -137q0 -8 -3 -11.5t-12 -3.5h-462q-2 0 -2 6t2 6q36 0 56 5q17 5 23 19t6 45v463q0 31 -6 44.5t-23 19.5q-20 5 -56 5q-2 0 -2 6t2 6l49 -1l68 -2q14 0 70 2l48 1q3 0 3 -6t-3 -6q-36 0 -54 -5q-18 -6 -24.5 -20.5t-6.5 -44.5
v-458q0 -29 6 -41.5t22 -17.5q18 -5 52 -5h109q56 0 90.5 34.5t45.5 97.5q0 3 5.5 2.5zM332.5 -104q14.5 -19 14.5 -54q0 -62 -61 -117q-1 -1 -3 -1q-3 0 -5 3.5t0 5.5q44 38 44 89q0 20 -6 29q-7 -15 -30 -15q-18 0 -28.5 11t-10.5 28q0 40 43 40q28 0 42.5 -19z" />
    <glyph glyph-name="lcommaaccent" unicode="&#x13c;" horiz-adv-x="258" 
d="M227 6q0 -6 -3 -6q-27 0 -36 1l-56 1l-54 -1q-9 -1 -38 -1q-3 0 -3 6t3 6q27 0 40 5.5t18 20.5t5 43v517q0 37 -7 52q-7 16 -25 16q-13 0 -46 -14h-2q-3 0 -4.5 5t1.5 6l128 61q1 1 5 1q2 0 5.5 -2.5t3.5 -5.5v-636q0 -30 4.5 -43.5t17.5 -19.5q14 -6 40 -6q3 0 3 -6z
M167.5 -104q14.5 -19 14.5 -54q0 -62 -61 -117q-1 -1 -3 -1q-3 0 -5 3.5t0 5.5q44 38 44 89q0 20 -6 29q-7 -15 -30 -15q-18 0 -28.5 11t-10.5 28q0 40 43 40q28 0 42.5 -19z" />
    <glyph glyph-name="Lcaron" unicode="&#x13d;" horiz-adv-x="533" 
d="M353 625q0 2 3 2t11 -3q14 -6 26 -15t11 -14l-32 -243q0 -2 -5.5 -1.5t-5.5 2.5zM185 85q0 -29 6 -41.5t22 -17.5q18 -5 52 -5h109q56 0 90.5 34.5t45.5 97.5q0 3 5.5 2.5t5.5 -3.5q-9 -82 -9 -137q0 -8 -3 -11.5t-12 -3.5h-462q-2 0 -2 6t2 6q36 0 56 5q17 5 23 19t6 45
v463q0 31 -6 44.5t-23 19.5q-20 5 -56 5q-2 0 -2 6t2 6l49 -1l68 -2q14 0 70 2l48 1q3 0 3 -6t-3 -6q-36 0 -54 -5q-18 -6 -24.5 -20.5t-6.5 -44.5v-458z" />
    <glyph glyph-name="lcaron" unicode="&#x13e;" horiz-adv-x="258" 
d="M231 725q0 2 3 2q4 0 11 -3q14 -6 26 -15t11 -14l-32 -243q0 -2 -5.5 -1.5t-5.5 2.5zM37 6q0 6 3 6q27 0 40 5.5t18 20.5t5 43v517q0 37 -7 52q-7 16 -25 16q-13 0 -46 -14h-2q-3 0 -4.5 5t1.5 6l128 61q1 1 5 1q2 0 5.5 -2.5t3.5 -5.5v-636q0 -30 4.5 -43.5t17.5 -19.5
q14 -6 40 -6q3 0 3 -6t-3 -6q-27 0 -36 1l-56 1l-54 -1q-9 -1 -38 -1q-3 0 -3 6z" />
    <glyph glyph-name="Ldot" unicode="&#x13f;" horiz-adv-x="533" 
d="M185 85q0 -29 6 -41.5t22 -17.5q18 -5 52 -5h109q56 0 90.5 34.5t45.5 97.5q0 3 5.5 2.5t5.5 -3.5q-9 -82 -9 -137q0 -8 -3 -11.5t-12 -3.5h-462q-2 0 -2 6t2 6q36 0 56 5q17 5 23 19t6 45v463q0 31 -6 44.5t-23 19.5q-20 5 -56 5q-2 0 -2 6t2 6l49 -1l68 -2q14 0 70 2
l48 1q3 0 3 -6t-3 -6q-36 0 -54 -5q-18 -6 -24.5 -20.5t-6.5 -44.5v-458zM396 290q-12 12 -12 32q0 19 12 30t32 11q21 0 32.5 -11t11.5 -30q0 -20 -11.5 -32t-32.5 -12q-20 0 -32 12z" />
    <glyph glyph-name="ldot" unicode="&#x140;" horiz-adv-x="257" 
d="M37 6q0 6 3 6q27 0 40 5.5t18 20.5t5 43v517q0 37 -7 52q-7 16 -25 16q-13 0 -46 -14h-2q-3 0 -4.5 5t1.5 6l128 61q1 1 5 1q2 0 5.5 -2.5t3.5 -5.5v-636q0 -30 4.5 -43.5t17.5 -19.5q14 -6 40 -6q3 0 3 -6t-3 -6q-27 0 -36 1l-56 1l-54 -1q-9 -1 -38 -1q-3 0 -3 6z
M224 304q-12 12 -12 32q0 19 12 30t32 11q21 0 32.5 -11t11.5 -30q0 -20 -11.5 -32t-32.5 -12q-20 0 -32 12z" />
    <glyph glyph-name="Lslash" unicode="&#x141;" horiz-adv-x="524" 
d="M515.5 155.5q5.5 -0.5 5.5 -3.5q-9 -82 -9 -137q0 -8 -3 -11.5t-12 -3.5h-462q-2 0 -2 6t2 6q36 0 56 5q17 5 23 19t6 45v183l-51 -29h-1q-4 0 -8.5 8.5t-1.5 9.5l62 36v255q0 31 -6 44.5t-23 19.5q-20 5 -56 5q-2 0 -2 6t2 6l49 -1l68 -2q14 0 70 2l48 1q3 0 3 -6t-3 -6
q-36 0 -54 -5q-18 -6 -24.5 -20.5t-6.5 -44.5v-217l107 61h1q3 0 7.5 -8.5t0.5 -9.5l-116 -67v-217q0 -29 6 -41.5t22 -17.5q18 -5 52 -5h109q56 0 90.5 34.5t45.5 97.5q0 3 5.5 2.5z" />
    <glyph glyph-name="lslash" unicode="&#x142;" horiz-adv-x="262" 
d="M224 413q5 0 9.5 -8.5t0.5 -11.5l-68 -40v-272q0 -30 4.5 -43.5t17.5 -19.5q14 -6 40 -6q3 0 3 -6t-3 -6q-27 0 -36 1l-56 1l-54 -1q-9 -1 -38 -1q-3 0 -3 6t3 6q27 0 40 5.5t18 20.5t5 43v238l-57 -33h-1q-4 0 -9 9t-1 10l68 40v253q0 37 -7 52q-7 16 -25 16
q-13 0 -46 -14h-2q-3 0 -4.5 5t1.5 6l128 61q1 1 5 1q3 0 6 -2.5t3 -5.5v-337l57 33h1z" />
    <glyph glyph-name="Nacute" unicode="&#x143;" horiz-adv-x="727" 
d="M277 678q-4 0 -5 4.5t2 6.5l109 62q18 12 54 33q4 2 23.5 -4.5t33.5 -14.5t7 -9q-59 -14 -109.5 -32t-112.5 -45zM704 625q3 0 3 -6t-3 -6q-42 0 -61 -23t-19 -75v-527q0 -2 -5 -3t-7 1l-460 557l-9 10v-444q0 -52 18.5 -74.5t59.5 -22.5q3 0 3 -6t-3 -6q-29 0 -38 1
l-50 1l-51 -1q-9 -1 -41 -1q-2 0 -2 6t2 6q43 0 61 22.5t18 74.5v468q-39 36 -79 36q-3 0 -3 6t3 6l37 -1q8 -1 33 -1q27 0 36 1t22 1q8 0 11 -3t12 -16q12 -18 24 -33l385 -473v415q0 52 -17.5 75t-58.5 23q-2 0 -2 6t2 6l39 -1q40 -2 49 -2l50 2z" />
    <glyph glyph-name="nacute" unicode="&#x144;" horiz-adv-x="517" 
d="M269 474q0 -2 -4 -2q-3 0 -5 2q-3 1 -2 2l52 240q1 4 20.5 9.5t32.5 5.5q9 0 8 -4zM498 6q0 -6 -3 -6q-27 0 -36 1l-54 1l-55 -1q-9 -1 -36 -1q-3 0 -3 6t3 6q27 0 40.5 5.5t17.5 19.5q4 12 4 44v162q0 59 -22.5 87t-69.5 28q-31 0 -62.5 -16.5t-57.5 -45.5v-215
q0 -30 4.5 -44t17.5 -19q14 -6 40 -6q3 0 3 -6t-3 -6q-27 0 -36 1l-54 1l-55 -1q-9 -1 -36 -1q-3 0 -3 6t3 6q27 0 40.5 5.5t17.5 19.5q4 12 4 44v198q0 34 -8 49t-27 15q-17 0 -54 -15h-2q-4 0 -5.5 4.5t2.5 6.5l116 55l6 1q8 0 19 -23q10 -21 10 -59q38 44 75.5 65
t77.5 21q56 0 86 -31t30 -91v-196q0 -30 4.5 -44t17.5 -19q14 -6 40 -6q3 0 3 -6z" />
    <glyph glyph-name="Ncommaaccent" unicode="&#x145;" horiz-adv-x="727" 
d="M704 625q3 0 3 -6t-3 -6q-42 0 -61 -23t-19 -75v-527q0 -2 -5 -3t-7 1l-460 557l-9 10v-444q0 -52 18.5 -74.5t59.5 -22.5q3 0 3 -6t-3 -6q-29 0 -38 1l-50 1l-51 -1q-9 -1 -41 -1q-2 0 -2 6t2 6q43 0 61 22.5t18 74.5v468q-39 36 -79 36q-3 0 -3 6t3 6l37 -1q8 -1 33 -1
q27 0 36 1t22 1q8 0 11 -3t12 -16q12 -18 24 -33l385 -473v415q0 52 -17.5 75t-58.5 23q-2 0 -2 6t2 6l39 -1q40 -2 49 -2l50 2zM409.5 -104q14.5 -19 14.5 -54q0 -62 -61 -117q-1 -1 -3 -1q-3 0 -5 3.5t0 5.5q44 38 44 89q0 20 -6 29q-7 -15 -30 -15q-18 0 -28.5 11
t-10.5 28q0 40 43 40q28 0 42.5 -19z" />
    <glyph glyph-name="ncommaaccent" unicode="&#x146;" horiz-adv-x="517" 
d="M498 6q0 -6 -3 -6q-27 0 -36 1l-54 1l-55 -1q-9 -1 -36 -1q-3 0 -3 6t3 6q27 0 40.5 5.5t17.5 19.5q4 12 4 44v162q0 59 -22.5 87t-69.5 28q-31 0 -62.5 -16.5t-57.5 -45.5v-215q0 -30 4.5 -44t17.5 -19q14 -6 40 -6q3 0 3 -6t-3 -6q-27 0 -36 1l-54 1l-55 -1
q-9 -1 -36 -1q-3 0 -3 6t3 6q27 0 40.5 5.5t17.5 19.5q4 12 4 44v198q0 34 -8 49t-27 15q-17 0 -54 -15h-2q-4 0 -5.5 4.5t2.5 6.5l116 55l6 1q8 0 19 -23q10 -21 10 -59q38 44 75.5 65t77.5 21q56 0 86 -31t30 -91v-196q0 -30 4.5 -44t17.5 -19q14 -6 40 -6q3 0 3 -6z
M293.5 -104q14.5 -19 14.5 -54q0 -62 -61 -117q-1 -1 -3 -1q-3 0 -5 3.5t0 5.5q44 38 44 89q0 20 -6 29q-7 -15 -30 -15q-18 0 -28.5 11t-10.5 28q0 40 43 40q28 0 42.5 -19z" />
    <glyph glyph-name="Ncaron" unicode="&#x147;" horiz-adv-x="727" 
d="M261 784q-1 0 -1 1q0 2 2.5 4.5t4.5 1.5l109 -57l108 57h1q3 0 5 -3t-1 -4l-102 -97q-4 -4 -11 -4q-8 0 -12 4zM704 625q3 0 3 -6t-3 -6q-42 0 -61 -23t-19 -75v-527q0 -2 -5 -3t-7 1l-460 557l-9 10v-444q0 -52 18.5 -74.5t59.5 -22.5q3 0 3 -6t-3 -6q-29 0 -38 1l-50 1
l-51 -1q-9 -1 -41 -1q-2 0 -2 6t2 6q43 0 61 22.5t18 74.5v468q-39 36 -79 36q-3 0 -3 6t3 6l37 -1q8 -1 33 -1q27 0 36 1t22 1q8 0 11 -3t12 -16q12 -18 24 -33l385 -473v415q0 52 -17.5 75t-58.5 23q-2 0 -2 6t2 6l39 -1q40 -2 49 -2l50 2z" />
    <glyph glyph-name="ncaron" unicode="&#x148;" horiz-adv-x="517" 
d="M191 726q-1 3 4.5 4t6.5 -1l69 -165l68 165q0 1 3 1q8 0 7 -4l-67 -249q-2 -5 -11 -5t-12 5zM498 6q0 -6 -3 -6q-27 0 -36 1l-54 1l-55 -1q-9 -1 -36 -1q-3 0 -3 6t3 6q27 0 40.5 5.5t17.5 19.5q4 12 4 44v162q0 59 -22.5 87t-69.5 28q-31 0 -62.5 -16.5t-57.5 -45.5
v-215q0 -30 4.5 -44t17.5 -19q14 -6 40 -6q3 0 3 -6t-3 -6q-27 0 -36 1l-54 1l-55 -1q-9 -1 -36 -1q-3 0 -3 6t3 6q27 0 40.5 5.5t17.5 19.5q4 12 4 44v198q0 34 -8 49t-27 15q-17 0 -54 -15h-2q-4 0 -5.5 4.5t2.5 6.5l116 55l6 1q8 0 19 -23q10 -21 10 -59q38 44 75.5 65
t77.5 21q56 0 86 -31t30 -91v-196q0 -30 4.5 -44t17.5 -19q14 -6 40 -6q3 0 3 -6z" />
    <glyph glyph-name="napostrophe" unicode="&#x149;" horiz-adv-x="517" 
d="M33.5 572q-10.5 11 -10.5 28q0 40 46 40q30 0 47 -22.5t17 -64.5q0 -39 -17.5 -74t-53.5 -69q-1 -1 -3 -1q-3 0 -5 3t0 5q49 49 49 118q0 28 -10 41q-9 -15 -31 -15q-18 0 -28.5 11zM498 6q0 -6 -3 -6q-27 0 -36 1l-54 1l-55 -1q-9 -1 -36 -1q-3 0 -3 6t3 6
q27 0 40.5 5.5t17.5 19.5q4 12 4 44v162q0 59 -22.5 87t-69.5 28q-31 0 -62.5 -16.5t-57.5 -45.5v-215q0 -30 4.5 -44t17.5 -19q14 -6 40 -6q3 0 3 -6t-3 -6q-27 0 -36 1l-54 1l-55 -1q-9 -1 -36 -1q-3 0 -3 6t3 6q27 0 40.5 5.5t17.5 19.5q4 12 4 44v198q0 34 -8 49t-27 15
q-17 0 -54 -15h-2q-4 0 -5.5 4.5t2.5 6.5l116 55l6 1q8 0 19 -23q10 -21 10 -59q38 44 75.5 65t77.5 21q56 0 86 -31t30 -91v-196q0 -30 4.5 -44t17.5 -19q14 -6 40 -6q3 0 3 -6z" />
    <glyph glyph-name="Eng" unicode="&#x14a;" horiz-adv-x="727" 
d="M704 625q3 0 3 -6t-3 -6q-42 0 -61 -23t-19 -75v-527q0 -87 -32.5 -133t-94.5 -46q-36 0 -59 16.5t-23 40.5q0 17 8.5 26.5t23.5 9.5q16 0 23 -8t14 -28t14.5 -28.5t23.5 -8.5q38 0 59 42.5t21 114.5v12l-450 545l-9 10v-444q0 -52 18.5 -74.5t59.5 -22.5q3 0 3 -6t-3 -6
q-29 0 -38 1l-50 1l-51 -1q-9 -1 -41 -1q-2 0 -2 6t2 6q43 0 61.5 22.5t18.5 74.5v467q-40 37 -80 37q-3 0 -3 6t3 6l37 -1q8 -1 33 -1q27 0 36 1t22 1q8 0 11 -3t12 -16q12 -18 24 -33l386 -474v416q0 52 -18 75t-59 23q-2 0 -2 6t2 6l39 -1q40 -2 49 -2l50 2z" />
    <glyph glyph-name="eng" unicode="&#x14b;" horiz-adv-x="504" 
d="M402 368q30 -31 30 -91v-325q0 -68 -13 -110t-43 -69q-29 -28 -85 -49q-2 -1 -4.5 4.5t0.5 6.5q49 21 68.5 64.5t19.5 129.5v314q0 59 -22.5 87t-69.5 28q-31 0 -62.5 -16.5t-57.5 -45.5v-215q0 -30 5 -44t18 -19q14 -6 40 -6q3 0 3 -6t-3 -6q-29 0 -38 1l-54 1l-54 -1
q-9 -1 -37 -1q-2 0 -2 6t2 6q27 0 40 5.5t18 20.5t5 43v198q0 34 -8 49t-27 15q-16 0 -54 -15h-2q-4 0 -5.5 4.5t2.5 6.5l117 55q1 1 5 1q8 0 19 -23q10 -21 10 -58q39 43 76 64t78 21q55 0 85 -31z" />
    <glyph glyph-name="Omacron" unicode="&#x14c;" horiz-adv-x="766" 
d="M259 722q-6 0 -6 14t6 14h251q6 0 6 -14t-6 -14h-251zM201 31q-73 43 -112 119q-40 73 -40 162q0 100 50.5 174.5t135.5 112.5q80 37 166 37q93 0 165.5 -43.5t112.5 -118.5q38 -74 38 -155q0 -90 -47.5 -166t-128.5 -121q-82 -44 -175 -44q-92 0 -165 43zM524.5 42.5
q54.5 33.5 85.5 96.5t31 152q0 93 -35 166.5t-98 114.5q-65 41 -149 41q-110 0 -172 -71t-62 -195q0 -94 35 -171.5t98 -121.5q63 -45 143 -45q69 0 123.5 33.5z" />
    <glyph glyph-name="omacron" unicode="&#x14d;" horiz-adv-x="479" 
d="M114 483q-6 0 -6 14t6 14h251q6 0 6 -14t-6 -14h-251zM129 15.5q-45 28.5 -69 77.5q-24 48 -24 105q0 63 30.5 109.5t82.5 69.5q48 22 100 22q58 0 102 -28t69 -77q23 -49 23 -101q0 -61 -28.5 -107.5t-77.5 -72.5q-50 -26 -106 -26q-57 0 -102 28.5zM345.5 45.5
q29.5 39.5 29.5 119.5q0 62 -20.5 111t-56.5 77q-36 27 -82 27q-54 0 -83.5 -39t-29.5 -112q0 -61 20 -112t56 -81t81 -30q56 0 85.5 39.5z" />
    <glyph glyph-name="Obreve" unicode="&#x14e;" horiz-adv-x="766" 
d="M316.5 718q-26.5 28 -34.5 79q-1 4 4 4.5t7 -1.5q7 -27 33.5 -47t58.5 -20q31 0 57.5 20t33.5 47q0 2 4 2q3 0 5.5 -1.5t1.5 -3.5q-8 -52 -34 -79.5t-68 -27.5t-68.5 28zM201 31q-73 43 -112 119q-40 73 -40 162q0 100 50.5 174.5t135.5 112.5q80 37 166 37
q93 0 165.5 -43.5t112.5 -118.5q38 -74 38 -155q0 -90 -47.5 -166t-128.5 -121q-82 -44 -175 -44q-92 0 -165 43zM524.5 42.5q54.5 33.5 85.5 96.5t31 152q0 93 -35 166.5t-98 114.5q-65 41 -149 41q-110 0 -172 -71t-62 -195q0 -94 35 -171.5t98 -121.5q63 -45 143 -45
q69 0 123.5 33.5z" />
    <glyph glyph-name="obreve" unicode="&#x14f;" horiz-adv-x="479" 
d="M142.5 628q5.5 1 5.5 -2q0 -44 26 -73.5t66 -29.5q38 0 64.5 30t26.5 73q0 2 3 2t5.5 -1.5t2.5 -3.5q0 -74 -26 -112t-76 -38t-76.5 38.5t-26.5 111.5q0 4 5.5 5zM129 15.5q-45 28.5 -69 77.5q-24 48 -24 105q0 63 30.5 109.5t82.5 69.5q48 22 100 22q58 0 102 -28
t69 -77q23 -49 23 -101q0 -61 -28.5 -107.5t-77.5 -72.5q-50 -26 -106 -26q-57 0 -102 28.5zM345.5 45.5q29.5 39.5 29.5 119.5q0 62 -20.5 111t-56.5 77q-36 27 -82 27q-54 0 -83.5 -39t-29.5 -112q0 -61 20 -112t56 -81t81 -30q56 0 85.5 39.5z" />
    <glyph glyph-name="Ohungarumlaut" unicode="&#x150;" horiz-adv-x="766" 
d="M278 676q-3 0 -4.5 4.5t0.5 6.5q46 43 90 95q3 4 22.5 -0.5t34.5 -12.5q16 -8 8 -11q-42 -17 -76 -35.5t-73 -45.5zM402 676q-3 0 -4.5 4.5t0.5 6.5q46 43 90 95q3 4 22 -0.5t34 -12.5q14 -8 7 -11q-66 -27 -147 -81zM201 31q-73 43 -112 119q-40 73 -40 162
q0 100 50.5 174.5t135.5 112.5q80 37 166 37q93 0 165.5 -43.5t112.5 -118.5q38 -74 38 -155q0 -90 -47.5 -166t-128.5 -121q-82 -44 -175 -44q-92 0 -165 43zM524.5 42.5q54.5 33.5 85.5 96.5t31 152q0 93 -35 166.5t-98 114.5q-65 41 -149 41q-110 0 -172 -71t-62 -195
q0 -94 35 -171.5t98 -121.5q63 -45 143 -45q69 0 123.5 33.5z" />
    <glyph glyph-name="ohungarumlaut" unicode="&#x151;" horiz-adv-x="479" 
d="M146 458q-4 0 -5.5 4.5t1.5 6.5q17 17 50 57q4 4 18 22q3 4 8.5 10.5t10.5 9.5t12 3l14 -2q22 -5 37 -12q17 -7 9 -9q-66 -27 -153 -90h-2zM268 458q-4 0 -5.5 4.5t1.5 6.5q17 17 50 57q4 4 18 22q3 4 8.5 10.5t10.5 9.5t12 3l14 -2q22 -5 37 -12q16 -7 8 -9
q-64 -26 -152 -90h-2zM129 15.5q-45 28.5 -69 77.5q-24 48 -24 105q0 63 30.5 109.5t82.5 69.5q48 22 100 22q58 0 102 -28t69 -77q23 -49 23 -101q0 -61 -28.5 -107.5t-77.5 -72.5q-50 -26 -106 -26q-57 0 -102 28.5zM345.5 45.5q29.5 39.5 29.5 119.5q0 62 -20.5 111
t-56.5 77q-36 27 -82 27q-54 0 -83.5 -39t-29.5 -112q0 -61 20 -112t56 -81t81 -30q56 0 85.5 39.5z" />
    <glyph glyph-name="OE" unicode="&#x152;" horiz-adv-x="915" 
d="M858.5 150.5q5.5 -0.5 5.5 -3.5q-9 -79 -9 -132q0 -8 -3 -11.5t-12 -3.5h-298l-70 -2l-74 -2q-100 0 -179.5 40t-124.5 110q-45 71 -45 155q0 95 46 170t126 116q77 40 172 40q51 0 68 -1l79 -1h282q10 0 10 -9l2 -123q0 -3 -6 -3.5t-6 2.5q-2 48 -32 80t-75 32h-64
q-33 0 -51 -5q-16 -5 -22.5 -17.5t-6.5 -38.5v-207h122q49 0 69.5 16t20.5 54q0 2 6 2q5 0 5 -2l-1 -81q0 -34 1 -44l1 -48q0 -2 -5 -2q-6 0 -6 2q0 44 -21.5 63t-72.5 19h-119v-230q0 -27 6.5 -40.5t22.5 -18.5q18 -5 49 -5h83q43 0 77 36t44 91q0 3 5.5 2.5zM506 534
q0 30 -9 46t-30 24q-24 8 -64 8q-82 0 -144.5 -33.5t-97.5 -98.5q-36 -66 -36 -157q0 -88 34 -159t95 -112q62 -41 143 -41q45 0 67.5 5.5t31.5 20.5q10 14 10 45v452z" />
    <glyph glyph-name="oe" unicode="&#x153;" horiz-adv-x="695" 
d="M658 56q3 0 5.5 -3.5t0.5 -6.5q-67 -58 -146 -58q-111 0 -160 83q-25 -40 -64.5 -62t-85.5 -22q-52 0 -94 28.5t-66 77.5q-23 49 -23 105q0 63 29.5 109t78.5 70q45 22 94 22q51 0 89 -25t59 -71q30 43 74 67.5t97 24.5q57 0 85 -28.5t28 -88.5q0 -12 -2 -18q-3 -5 -9 -5
l-249 -1q-4 -17 -4 -47q0 -84 42.5 -134t114.5 -50q29 0 57 8t48 25h1zM307.5 48.5q26.5 43.5 26.5 121.5q0 95 -38.5 152.5t-101.5 57.5q-49 0 -76.5 -40t-27.5 -113q0 -60 19 -111t52 -81t74 -30q46 0 72.5 43.5zM441 346.5q-29 -28.5 -40 -79.5l189 4q1 55 -19 79.5
t-59 24.5q-42 0 -71 -28.5z" />
    <glyph glyph-name="Racute" unicode="&#x154;" horiz-adv-x="673" 
d="M177 678q-4 0 -5.5 4.5t1.5 6.5q50 26 103 59q50 29 60 35q4 3 23 -3t35 -15q14 -7 6 -9q-118 -30 -222 -78h-1zM685 6q0 -6 -2 -6h-129q-25 0 -94 83q-71 85 -164 228q-27 -6 -56 -6l-45 3v-227q0 -31 6 -45t24 -19t55 -5q3 0 3 -6t-3 -6q-37 0 -49 1l-69 1l-68 -1
q-12 -1 -51 -1q-2 0 -2 6t2 6q36 0 56 5q18 5 24.5 19t6.5 45v463q0 31 -6 44.5t-23 19.5q-20 5 -56 5q-3 0 -3 6t3 6l49 -1l68 -2q22 0 73 3q37 3 67 3q78 0 121.5 -35.5t43.5 -96.5q0 -53 -31 -97t-84 -69q86 -123 143 -190.5t101 -97.5t87 -30q2 0 2 -6zM195 332
q23 -4 59 -4q77 0 111 33.5t34 105.5q0 76 -33.5 111t-101.5 35q-40 0 -54.5 -14.5t-14.5 -56.5v-210z" />
    <glyph glyph-name="racute" unicode="&#x155;" horiz-adv-x="364" 
d="M183 474q0 -2 -4 -2q-3 0 -5 2q-3 1 -2 2l52 240q1 4 20.5 9.5t32.5 5.5q9 0 8 -4zM317.5 383q19.5 -12 19.5 -29q0 -13 -9 -22t-24 -9q-8 0 -14 3t-17 11q-9 9 -17 12.5t-19 3.5q-13 0 -27 -11q-13 -9 -46 -47v-214q0 -30 7.5 -44t27.5 -19q20 -6 62 -6q4 0 4 -6t-4 -6
q-38 0 -51 1l-74 1l-55 -1q-9 -1 -36 -1q-3 0 -3 6t3 6q27 0 40.5 5.5t17.5 19.5q4 12 4 44v198q0 34 -8 49t-27 15q-17 0 -54 -15h-2q-4 0 -5.5 4.5t2.5 6.5l116 55l6 1q8 0 19 -23q10 -21 10 -59v-1q40 47 65 66q25 17 46 17q23 0 42.5 -12z" />
    <glyph glyph-name="Rcommaaccent" unicode="&#x156;" horiz-adv-x="673" 
d="M685 6q0 -6 -2 -6h-129q-25 0 -94 83q-71 85 -164 228q-27 -6 -56 -6l-45 3v-227q0 -31 6 -45t24 -19t55 -5q3 0 3 -6t-3 -6q-37 0 -49 1l-69 1l-68 -1q-12 -1 -51 -1q-2 0 -2 6t2 6q36 0 56 5q18 5 24.5 19t6.5 45v463q0 31 -6 44.5t-23 19.5q-20 5 -56 5q-3 0 -3 6t3 6
l49 -1l68 -2q22 0 73 3q37 3 67 3q78 0 121.5 -35.5t43.5 -96.5q0 -53 -31 -97t-84 -69q86 -123 143 -190.5t101 -97.5t87 -30q2 0 2 -6zM195 332q23 -4 59 -4q77 0 111 33.5t34 105.5q0 76 -33.5 111t-101.5 35q-40 0 -54.5 -14.5t-14.5 -56.5v-210zM376.5 -104
q14.5 -19 14.5 -54q0 -62 -61 -117q-1 -1 -3 -1q-3 0 -5 3.5t0 5.5q44 38 44 89q0 20 -6 29q-7 -15 -30 -15q-18 0 -28.5 11t-10.5 28q0 40 43 40q28 0 42.5 -19z" />
    <glyph glyph-name="rcommaaccent" unicode="&#x157;" horiz-adv-x="364" 
d="M317.5 383q19.5 -12 19.5 -29q0 -13 -9 -22t-24 -9q-8 0 -14 3t-17 11q-9 9 -17 12.5t-19 3.5q-13 0 -27 -11q-13 -9 -46 -47v-214q0 -30 7.5 -44t27.5 -19q20 -6 62 -6q4 0 4 -6t-4 -6q-38 0 -51 1l-74 1l-55 -1q-9 -1 -36 -1q-3 0 -3 6t3 6q27 0 40.5 5.5t17.5 19.5
q4 12 4 44v198q0 34 -8 49t-27 15q-17 0 -54 -15h-2q-4 0 -5.5 4.5t2.5 6.5l116 55l6 1q8 0 19 -23q10 -21 10 -59v-1q40 47 65 66q25 17 46 17q23 0 42.5 -12zM189.5 -104q14.5 -19 14.5 -54q0 -62 -61 -117q-1 -1 -3 -1q-3 0 -5 3.5t0 5.5q44 38 44 89q0 20 -6 29
q-7 -15 -30 -15q-18 0 -28.5 11t-10.5 28q0 40 43 40q28 0 42.5 -19z" />
    <glyph glyph-name="Rcaron" unicode="&#x158;" horiz-adv-x="673" 
d="M160 784q-1 0 -1 1q0 2 2.5 4.5t4.5 1.5l109 -57l108 57h1q3 0 5 -3t-1 -4l-102 -97q-4 -4 -11 -4q-8 0 -12 4zM685 6q0 -6 -2 -6h-129q-25 0 -94 83q-71 85 -164 228q-27 -6 -56 -6l-45 3v-227q0 -31 6 -45t24 -19t55 -5q3 0 3 -6t-3 -6q-37 0 -49 1l-69 1l-68 -1
q-12 -1 -51 -1q-2 0 -2 6t2 6q36 0 56 5q18 5 24.5 19t6.5 45v463q0 31 -6 44.5t-23 19.5q-20 5 -56 5q-3 0 -3 6t3 6l49 -1l68 -2q22 0 73 3q37 3 67 3q78 0 121.5 -35.5t43.5 -96.5q0 -53 -31 -97t-84 -69q86 -123 143 -190.5t101 -97.5t87 -30q2 0 2 -6zM195 332
q23 -4 59 -4q77 0 111 33.5t34 105.5q0 76 -33.5 111t-101.5 35q-40 0 -54.5 -14.5t-14.5 -56.5v-210z" />
    <glyph glyph-name="rcaron" unicode="&#x159;" horiz-adv-x="364" 
d="M105 726q-1 3 4.5 4t6.5 -1l69 -165l68 165q0 1 3 1q8 0 7 -4l-67 -249q-2 -5 -11 -5t-12 5zM317.5 383q19.5 -12 19.5 -29q0 -13 -9 -22t-24 -9q-8 0 -14 3t-17 11q-9 9 -17 12.5t-19 3.5q-13 0 -27 -11q-13 -9 -46 -47v-214q0 -30 7.5 -44t27.5 -19q20 -6 62 -6
q4 0 4 -6t-4 -6q-38 0 -51 1l-74 1l-55 -1q-9 -1 -36 -1q-3 0 -3 6t3 6q27 0 40.5 5.5t17.5 19.5q4 12 4 44v198q0 34 -8 49t-27 15q-17 0 -54 -15h-2q-4 0 -5.5 4.5t2.5 6.5l116 55l6 1q8 0 19 -23q10 -21 10 -59v-1q40 47 65 66q25 17 46 17q23 0 42.5 -12z" />
    <glyph glyph-name="Sacute" unicode="&#x15a;" horiz-adv-x="491" 
d="M156 678q-4 0 -5 4.5t2 6.5l109 62q18 12 54 33q4 2 23.5 -4.5t33.5 -14.5t7 -9q-59 -14 -109.5 -32t-112.5 -45zM211 392q35 -25 75 -49q60 -37 86 -56.5t45 -49.5q20 -34 20 -78q0 -49 -24 -87.5t-70 -60.5q-48 -23 -112 -23q-76 0 -141 35q-5 3 -6.5 6.5t-2.5 12.5
l-13 136q-1 4 4.5 5t6.5 -3q17 -77 62 -126.5t113 -49.5q53 0 86 29t33 86q0 42 -18.5 75.5t-49.5 57.5q-32 23 -78 50q-55 34 -80 53.5t-42 49.5q-19 31 -19 75q0 49 26 84.5t70 54.5q43 17 90 17q59 0 117 -24q15 -4 15 -17l7 -115q0 -4 -5 -4t-6 4q-9 58 -46 99.5
t-98 41.5q-54 0 -82.5 -31.5t-28.5 -81.5q0 -70 66 -116z" />
    <glyph glyph-name="sacute" unicode="&#x15b;" horiz-adv-x="338" 
d="M170 474q0 -2 -4 -2q-3 0 -5 2q-3 1 -2 2l52 240q1 4 20.5 9.5t32.5 5.5q9 0 8 -4zM121.5 272q20.5 -20 69.5 -46q39 -20 57 -32.5t31 -32.5q14 -22 14 -51q0 -52 -38.5 -86.5t-102.5 -34.5q-53 0 -96 30q-6 5 -6 12l-2 78q0 3 5.5 3.5t6.5 -2.5q19 -50 49.5 -76
t70.5 -26q33 0 50 16t15 47q-1 36 -21.5 56.5t-69.5 44.5q-36 17 -54 30t-31 33q-14 22 -14 52q0 52 39 81.5t97 29.5q40 0 73 -15q6 -2 7.5 -4.5t1.5 -6.5q0 -24 -1 -31l-1 -42q0 -2 -6 -2t-6 2q0 20 -15.5 38.5t-40.5 30.5q-25 11 -48 11q-25 0 -39.5 -14t-14.5 -40
q0 -33 20.5 -53z" />
    <glyph glyph-name="Scircumflex" unicode="&#x15c;" horiz-adv-x="491" 
d="M244 790q5 5 12 5q6 0 11 -5l102 -98q1 0 1 -2t-2.5 -4t-3.5 -1l-108 58l-109 -58q-2 -1 -5 2.5t-1 4.5zM211 392q35 -25 75 -49q60 -37 86 -56.5t45 -49.5q20 -34 20 -78q0 -49 -24 -87.5t-70 -60.5q-48 -23 -112 -23q-76 0 -141 35q-5 3 -6.5 6.5t-2.5 12.5l-13 136
q-1 4 4.5 5t6.5 -3q17 -77 62 -126.5t113 -49.5q53 0 86 29t33 86q0 42 -18.5 75.5t-49.5 57.5q-32 23 -78 50q-55 34 -80 53.5t-42 49.5q-19 31 -19 75q0 49 26 84.5t70 54.5q43 17 90 17q59 0 117 -24q15 -4 15 -17l7 -115q0 -4 -5 -4t-6 4q-9 58 -46 99.5t-98 41.5
q-54 0 -82.5 -31.5t-28.5 -81.5q0 -70 66 -116z" />
    <glyph glyph-name="scircumflex" unicode="&#x15d;" horiz-adv-x="338" 
d="M251 476v-1q0 -2 -4.5 -3t-5.5 2l-68 164l-69 -164q0 -2 -4 -2q-3 0 -5 2q-3 1 -2 2l68 249q2 5 11 5q10 0 12 -5zM121.5 272q20.5 -20 69.5 -46q39 -20 57 -32.5t31 -32.5q14 -22 14 -51q0 -52 -38.5 -86.5t-102.5 -34.5q-53 0 -96 30q-6 5 -6 12l-2 78q0 3 5.5 3.5
t6.5 -2.5q19 -50 49.5 -76t70.5 -26q33 0 50 16t15 47q-1 36 -21.5 56.5t-69.5 44.5q-36 17 -54 30t-31 33q-14 22 -14 52q0 52 39 81.5t97 29.5q40 0 73 -15q6 -2 7.5 -4.5t1.5 -6.5q0 -24 -1 -31l-1 -42q0 -2 -6 -2t-6 2q0 20 -15.5 38.5t-40.5 30.5q-25 11 -48 11
q-25 0 -39.5 -14t-14.5 -40q0 -33 20.5 -53z" />
    <glyph glyph-name="Scedilla" unicode="&#x15e;" horiz-adv-x="491" 
d="M390 43.5q-47 -46.5 -130 -54.5q-10 -29 -10 -46q0 -14 9 -21q7 -7 35 -24q27 -15 40.5 -33t13.5 -44q0 -39 -28 -67.5t-76 -28.5q-28 0 -46 10t-18 28q0 13 9 21.5t21 8.5q11 0 17 -5t12 -17q7 -14 15 -20t22 -6q34 0 34 38q0 26 -18.5 46.5t-67.5 46.5q-14 8 -14 13
q0 2 5 17q12 27 31 82h-15q-76 0 -141 35q-5 3 -6.5 6.5t-2.5 12.5l-13 136q-1 4 4.5 5t6.5 -3q17 -77 62 -126.5t113 -49.5q53 0 86 29t33 86q0 42 -18.5 75.5t-49.5 57.5q-32 23 -78 50q-55 34 -80 53.5t-42 49.5q-19 31 -19 75q0 49 26 84.5t70 54.5q43 17 90 17
q59 0 117 -24q15 -4 15 -17l7 -115q0 -4 -5 -4t-6 4q-9 58 -46 99.5t-98 41.5q-54 0 -82.5 -31.5t-28.5 -81.5q0 -70 66 -116q35 -25 75 -49q60 -37 86 -56.5t45 -49.5q20 -34 20 -78q0 -69 -47 -115.5z" />
    <glyph glyph-name="scedilla" unicode="&#x15f;" horiz-adv-x="338" 
d="M260 28.5q-33 -33.5 -90 -38.5q-10 -30 -10 -47q0 -14 9 -21q7 -7 35 -24q27 -15 40.5 -33t13.5 -44q0 -39 -28 -67.5t-76 -28.5q-28 0 -46 10t-18 28q0 13 9 21.5t21 8.5q11 0 17 -5t12 -17q7 -14 15 -20t22 -6q34 0 34 38q0 26 -18.5 46.5t-67.5 46.5q-14 8 -14 13
q0 2 5 17q7 18 31 83h-4q-53 0 -96 30q-6 5 -6 12l-2 78q0 3 5.5 3.5t6.5 -2.5q19 -50 49.5 -76t70.5 -26q33 0 50 16t15 47q-1 36 -21.5 56.5t-69.5 44.5q-36 17 -54 30t-31 33q-14 22 -14 52q0 52 39 81.5t97 29.5q40 0 73 -15q6 -2 7.5 -4.5t1.5 -6.5q0 -24 -1 -31
l-1 -42q0 -2 -6 -2t-6 2q0 20 -15.5 38.5t-40.5 30.5q-25 11 -48 11q-25 0 -39.5 -14t-14.5 -40q0 -33 20.5 -53t69.5 -46q39 -20 57 -32.5t31 -32.5q14 -22 14 -51q0 -48 -33 -81.5z" />
    <glyph glyph-name="Scaron" unicode="&#x160;" horiz-adv-x="491" 
d="M140 784q-1 0 -1 1q0 2 2.5 4.5t4.5 1.5l109 -57l108 57h1q3 0 5 -3t-1 -4l-102 -97q-4 -4 -11 -4q-8 0 -12 4zM211 392q35 -25 75 -49q60 -37 86 -56.5t45 -49.5q20 -34 20 -78q0 -49 -24 -87.5t-70 -60.5q-48 -23 -112 -23q-76 0 -141 35q-5 3 -6.5 6.5t-2.5 12.5
l-13 136q-1 4 4.5 5t6.5 -3q17 -77 62 -126.5t113 -49.5q53 0 86 29t33 86q0 42 -18.5 75.5t-49.5 57.5q-32 23 -78 50q-55 34 -80 53.5t-42 49.5q-19 31 -19 75q0 49 26 84.5t70 54.5q43 17 90 17q59 0 117 -24q15 -4 15 -17l7 -115q0 -4 -5 -4t-6 4q-9 58 -46 99.5
t-98 41.5q-54 0 -82.5 -31.5t-28.5 -81.5q0 -70 66 -116z" />
    <glyph glyph-name="scaron" unicode="&#x161;" horiz-adv-x="338" 
d="M92 726q-1 3 4.5 4t6.5 -1l69 -165l68 165q0 1 3 1q8 0 7 -4l-67 -249q-2 -5 -11 -5t-12 5zM121.5 272q20.5 -20 69.5 -46q39 -20 57 -32.5t31 -32.5q14 -22 14 -51q0 -52 -38.5 -86.5t-102.5 -34.5q-53 0 -96 30q-6 5 -6 12l-2 78q0 3 5.5 3.5t6.5 -2.5q19 -50 49.5 -76
t70.5 -26q33 0 50 16t15 47q-1 36 -21.5 56.5t-69.5 44.5q-36 17 -54 30t-31 33q-14 22 -14 52q0 52 39 81.5t97 29.5q40 0 73 -15q6 -2 7.5 -4.5t1.5 -6.5q0 -24 -1 -31l-1 -42q0 -2 -6 -2t-6 2q0 20 -15.5 38.5t-40.5 30.5q-25 11 -48 11q-25 0 -39.5 -14t-14.5 -40
q0 -33 20.5 -53z" />
    <glyph glyph-name="uni0162" unicode="&#x162;" horiz-adv-x="634" 
d="M593 654q5 0 5 -4q-3 -30 -6 -89t-3 -95q0 -2 -6 -2t-6 2q-3 78 -32 109.5t-96 31.5q-47 0 -64 -4q-19 -4 -26 -17t-7 -44v-461q0 -31 7 -45t27 -19q22 -5 63 -5q3 0 3 -6t-3 -6q-38 0 -51 1l-75 1q-13 -40 -13 -56q0 -15 8.5 -25t32.5 -23q27 -15 40.5 -33t13.5 -44
q0 -39 -28 -67.5t-76 -28.5q-28 0 -46 10t-18 28q0 13 9 21.5t21 8.5q11 0 17 -5t12 -17q7 -14 15 -20t22 -6q34 0 34 38q0 26 -18.5 46.5t-67.5 46.5q-14 8 -14 13q0 2 5 17l37 96l-70 -1q-12 -1 -51 -1q-2 0 -2 6t2 6q41 0 63 5q20 5 27.5 19.5t7.5 44.5v463q0 31 -7 43.5
t-26 16.5q-20 3 -64 3q-63 0 -94.5 -32t-45.5 -109q0 -2 -5 -2q-6 0 -6 2q14 134 14 181q0 5 6 5q5 0 5 -5q0 -22 54 -22q85 -3 201 -3q37 0 125 2l68 1q34 0 54 5q17 5 22 20q1 4 6 4z" />
    <glyph glyph-name="uni0163" unicode="&#x163;" horiz-adv-x="338" 
d="M311 52q4 0 6 -4.5t-1 -6.5q-36 -29 -65.5 -41t-62.5 -12h-1q-10 -33 -10 -45q0 -14 9 -21q7 -7 35 -24q27 -15 40.5 -33t13.5 -44q0 -39 -28 -67.5t-76 -28.5q-28 0 -46 10t-18 28q0 13 9 21.5t21 8.5q11 0 17 -5t12 -17q7 -14 15 -20t22 -6q34 0 34 38q0 26 -18.5 46.5
t-67.5 46.5q-14 8 -14 13q0 2 5 17q7 18 31 83q-38 3 -59.5 23t-21.5 58v235q0 27 -3 37q-4 11 -13.5 14.5t-34.5 3.5q-4 0 -4 7q0 6 4 6q40 1 65 21.5t29 54.5q0 3 8 3q7 0 7 -3v-74q58 2 139 10q2 0 5 -7q2 -10 2 -17q0 -8 -3.5 -16.5t-7.5 -7.5q-60 15 -135 16v-249
q0 -81 79 -81q45 0 80 28z" />
    <glyph glyph-name="Tcaron" unicode="&#x164;" horiz-adv-x="634" 
d="M202 784q-1 0 -1 1q0 2 2.5 4.5t4.5 1.5l109 -57l108 57h1q3 0 5 -3t-1 -4l-102 -97q-4 -4 -11 -4q-8 0 -12 4zM94.5 575q-31.5 -32 -45.5 -109q0 -2 -5 -2q-6 0 -6 2q14 134 14 181q0 5 6 5q5 0 5 -5q0 -22 54 -22q85 -3 201 -3q37 0 125 2l68 1q34 0 54 5q17 5 22 20
q1 4 6 4t5 -4q-3 -30 -6 -89t-3 -95q0 -2 -6 -2t-6 2q-3 78 -32 109.5t-96 31.5q-47 0 -64 -4q-19 -4 -26 -17t-7 -44v-461q0 -31 7 -45t27 -19q22 -5 63 -5q3 0 3 -6t-3 -6q-40 0 -53 1l-78 1l-75 -1q-13 -1 -55 -1q-2 0 -2 6t2 6q41 0 63 5q20 5 27.5 19.5t7.5 44.5v463
q0 31 -7 43.5t-26 16.5q-20 3 -64 3q-63 0 -94.5 -32z" />
    <glyph glyph-name="tcaron" unicode="&#x165;" horiz-adv-x="338" 
d="M215 433q0 -2 -5.5 -1.5t-5.5 2.5l-8 272q0 2 3 2q4 0 11 -3q14 -6 26 -15t11 -14zM311 52q4 0 6 -4.5t-1 -6.5q-36 -29 -65.5 -41t-62.5 -12q-45 0 -70.5 20t-25.5 62v235q0 27 -3 37q-4 11 -13.5 14.5t-34.5 3.5q-4 0 -4 7q0 6 4 6q40 1 65 21.5t29 54.5q0 3 8 3
q7 0 7 -3v-74q58 2 139 10q2 0 5 -7q2 -10 2 -17q0 -8 -3.5 -16.5t-7.5 -7.5q-60 15 -135 16v-249q0 -81 79 -81q45 0 80 28z" />
    <glyph glyph-name="Tbar" unicode="&#x166;" horiz-adv-x="632" 
d="M593 654q5 0 5 -4q-3 -30 -6 -89t-3 -95q0 -2 -6 -2t-6 2q-3 78 -32 109.5t-96 31.5q-47 0 -64 -4q-19 -4 -26 -17t-7 -44v-209h100q2 0 3.5 -3t1.5 -7q0 -11 -5 -11h-100v-231q0 -31 7 -45t27 -19q22 -5 63 -5q3 0 3 -6t-3 -6q-40 0 -53 1l-78 1l-75 -1q-13 -1 -55 -1
q-2 0 -2 6t2 6q41 0 63 5q20 5 27.5 19.5t7.5 44.5v231h-99q-4 0 -4 11q0 10 4 10h99v211q0 31 -7 43.5t-26 16.5q-20 3 -64 3q-63 0 -94.5 -32t-45.5 -109q0 -2 -5 -2q-6 0 -6 2q14 134 14 181q0 5 6 5q5 0 5 -5q0 -22 54 -22q85 -3 201 -3q37 0 125 2l68 1q34 0 54 5
q17 5 22 20q1 4 6 4z" />
    <glyph glyph-name="tbar" unicode="&#x167;" horiz-adv-x="339" 
d="M311 52q4 0 6 -4.5t-1 -6.5q-36 -29 -65.5 -41t-62.5 -12q-45 0 -70.5 20t-25.5 62v136h-41q-4 0 -4 11q0 3 2 7l2 3h41v78q0 27 -3 37q-4 11 -13.5 14.5t-34.5 3.5q-4 0 -4 7q0 6 4 6q40 1 65 21.5t29 54.5q0 3 8 3q7 0 7 -3v-74q58 2 139 10q2 0 5 -7q2 -10 2 -17
q0 -8 -3.5 -16.5t-7.5 -7.5q-60 15 -135 16v-126h130q4 0 4 -10q0 -11 -4 -11h-130v-102q0 -81 79 -81q45 0 80 28z" />
    <glyph glyph-name="Utilde" unicode="&#x168;" horiz-adv-x="698" 
d="M476.5 769q9.5 6 23.5 21h1q3 0 5.5 -2.5t0.5 -4.5q-26 -36 -43 -49t-36 -13q-20 0 -61 12l-25 7q-22 6 -45 6t-38 -17q-8 -8 -11 -10h-2q-3 0 -5 2.5t0 4.5q45 61 85 61q16 0 50 -10q48 -14 75 -14q16 0 25.5 6zM572 515q0 98 -87 98q-3 0 -3 6t3 6l43 -1l57 -2l49 2
l42 1q2 0 2 -6t-2 -6q-80 0 -80 -98v-284q0 -114 -63.5 -179t-172.5 -65q-74 0 -129.5 29t-85.5 83q-31 52 -31 125v320q0 31 -6 44.5t-23 19.5q-20 5 -56 5q-2 0 -2 6t2 6l49 -1l68 -2q14 0 70 2l48 1q3 0 3 -6t-3 -6q-37 0 -55 -6t-24 -20t-6 -45v-283q0 -116 53 -179
t150 -63q90 0 140 56.5t50 156.5v285z" />
    <glyph glyph-name="utilde" unicode="&#x169;" horiz-adv-x="493" 
d="M110 480q-3 0 -5 2.5t0 4.5q45 61 85 61q16 0 50 -10q48 -14 75 -14q16 0 25.5 6t23.5 21h1q3 0 5.5 -2.5t0.5 -4.5q-26 -36 -43 -49t-36 -13q-20 0 -61 12l-25 7q-23 6 -45 6q-23 0 -38 -17q-8 -8 -11 -10h-2zM487 57q4 0 5.5 -4.5t-2.5 -6.5l-117 -55l-4 -1
q-10 0 -19 23t-9 60v4q-39 -44 -78 -64.5t-81 -20.5q-51 0 -78.5 31.5t-27.5 91.5v153q0 40 -7 57q-8 17 -23 17t-34 -10h-1q-4 0 -6 5.5t2 6.5l111 50l4 1q3 0 6.5 -2.5t3.5 -5.5v-239q0 -116 84 -116q32 0 65 16.5t60 45.5v174q0 41 -6 57q-8 17 -24 17q-15 0 -34 -10h-1
q-4 0 -5.5 5.5t2.5 6.5l111 50l3 1q3 0 6.5 -2.5t3.5 -5.5v-280q0 -34 8 -49t27 -15q16 0 53 14h2z" />
    <glyph glyph-name="Umacron" unicode="&#x16a;" horiz-adv-x="698" 
d="M248 722q-6 0 -6 14t6 14h251q6 0 6 -14t-6 -14h-251zM572 515q0 98 -87 98q-3 0 -3 6t3 6l43 -1l57 -2l49 2l42 1q2 0 2 -6t-2 -6q-80 0 -80 -98v-284q0 -114 -63.5 -179t-172.5 -65q-74 0 -129.5 29t-85.5 83q-31 52 -31 125v320q0 31 -6 44.5t-23 19.5q-20 5 -56 5
q-2 0 -2 6t2 6l49 -1l68 -2q14 0 70 2l48 1q3 0 3 -6t-3 -6q-37 0 -55 -6t-24 -20t-6 -45v-283q0 -116 53 -179t150 -63q90 0 140 56.5t50 156.5v285z" />
    <glyph glyph-name="umacron" unicode="&#x16b;" horiz-adv-x="493" 
d="M112 483q-6 0 -6 14t6 14h251q6 0 6 -14t-6 -14h-251zM487 57q4 0 5.5 -4.5t-2.5 -6.5l-117 -55l-4 -1q-10 0 -19 23t-9 60v4q-39 -44 -78 -64.5t-81 -20.5q-51 0 -78.5 31.5t-27.5 91.5v153q0 40 -7 57q-8 17 -23 17t-34 -10h-1q-4 0 -6 5.5t2 6.5l111 50l4 1
q3 0 6.5 -2.5t3.5 -5.5v-239q0 -116 84 -116q32 0 65 16.5t60 45.5v174q0 41 -6 57q-8 17 -24 17q-15 0 -34 -10h-1q-4 0 -5.5 5.5t2.5 6.5l111 50l3 1q3 0 6.5 -2.5t3.5 -5.5v-280q0 -34 8 -49t27 -15q16 0 53 14h2z" />
    <glyph glyph-name="Ubreve" unicode="&#x16c;" horiz-adv-x="698" 
d="M305.5 718q-26.5 28 -34.5 79q-1 4 4 4.5t7 -1.5q7 -27 33.5 -47t58.5 -20q31 0 57.5 20t33.5 47q0 2 4 2q3 0 5.5 -1.5t1.5 -3.5q-8 -52 -34 -79.5t-68 -27.5t-68.5 28zM572 515q0 98 -87 98q-3 0 -3 6t3 6l43 -1l57 -2l49 2l42 1q2 0 2 -6t-2 -6q-80 0 -80 -98v-284
q0 -114 -63.5 -179t-172.5 -65q-74 0 -129.5 29t-85.5 83q-31 52 -31 125v320q0 31 -6 44.5t-23 19.5q-20 5 -56 5q-2 0 -2 6t2 6l49 -1l68 -2q14 0 70 2l48 1q3 0 3 -6t-3 -6q-37 0 -55 -6t-24 -20t-6 -45v-283q0 -116 53 -179t150 -63q90 0 140 56.5t50 156.5v285z" />
    <glyph glyph-name="ubreve" unicode="&#x16d;" horiz-adv-x="493" 
d="M161.5 511.5q-26.5 38.5 -26.5 111.5q0 4 5.5 5t5.5 -2q0 -44 26 -73.5t66 -29.5q38 0 64.5 30t26.5 73q0 2 3 2t5.5 -1.5t2.5 -3.5q0 -74 -26 -112t-76 -38t-76.5 38.5zM487 57q4 0 5.5 -4.5t-2.5 -6.5l-117 -55l-4 -1q-10 0 -19 23t-9 60v4q-39 -44 -78 -64.5
t-81 -20.5q-51 0 -78.5 31.5t-27.5 91.5v153q0 40 -7 57q-8 17 -23 17t-34 -10h-1q-4 0 -6 5.5t2 6.5l111 50l4 1q3 0 6.5 -2.5t3.5 -5.5v-239q0 -116 84 -116q32 0 65 16.5t60 45.5v174q0 41 -6 57q-8 17 -24 17q-15 0 -34 -10h-1q-4 0 -5.5 5.5t2.5 6.5l111 50l3 1
q3 0 6.5 -2.5t3.5 -5.5v-280q0 -34 8 -49t27 -15q16 0 53 14h2z" />
    <glyph glyph-name="Uring" unicode="&#x16e;" horiz-adv-x="698" 
d="M301.5 730q-24.5 23 -24.5 56q0 35 29.5 56.5t68.5 21.5q36 0 62 -23.5t26 -56.5q0 -34 -29 -55.5t-69 -21.5q-39 0 -63.5 23zM417 766q0 36 -18 61.5t-44 25.5q-17 0 -25 -11.5t-8 -35.5q0 -35 16.5 -62t42.5 -27q36 0 36 49zM572 515q0 98 -87 98q-3 0 -3 6t3 6l43 -1
l57 -2l49 2l42 1q2 0 2 -6t-2 -6q-80 0 -80 -98v-284q0 -114 -63.5 -179t-172.5 -65q-74 0 -129.5 29t-85.5 83q-31 52 -31 125v320q0 31 -6 44.5t-23 19.5q-20 5 -56 5q-2 0 -2 6t2 6l49 -1l68 -2q14 0 70 2l48 1q3 0 3 -6t-3 -6q-37 0 -55 -6t-24 -20t-6 -45v-283
q0 -116 53 -179t150 -63q90 0 140 56.5t50 156.5v285z" />
    <glyph glyph-name="uring" unicode="&#x16f;" horiz-adv-x="493" 
d="M165.5 491q-24.5 23 -24.5 56q0 35 29.5 56.5t68.5 21.5q36 0 62 -23.5t26 -56.5q0 -34 -29 -55.5t-69 -21.5q-39 0 -63.5 23zM194 602.5q-8 -11.5 -8 -35.5q0 -35 16.5 -62t42.5 -27q36 0 36 49q0 36 -18 61.5t-44 25.5q-17 0 -25 -11.5zM487 57q4 0 5.5 -4.5t-2.5 -6.5
l-117 -55l-4 -1q-10 0 -19 23t-9 60v4q-39 -44 -78 -64.5t-81 -20.5q-51 0 -78.5 31.5t-27.5 91.5v153q0 40 -7 57q-8 17 -23 17t-34 -10h-1q-4 0 -6 5.5t2 6.5l111 50l4 1q3 0 6.5 -2.5t3.5 -5.5v-239q0 -116 84 -116q32 0 65 16.5t60 45.5v174q0 41 -6 57q-8 17 -24 17
q-15 0 -34 -10h-1q-4 0 -5.5 5.5t2.5 6.5l111 50l3 1q3 0 6.5 -2.5t3.5 -5.5v-280q0 -34 8 -49t27 -15q16 0 53 14h2z" />
    <glyph glyph-name="Uhungarumlaut" unicode="&#x170;" horiz-adv-x="698" 
d="M267 676q-3 0 -4.5 4.5t0.5 6.5q46 43 90 95q3 4 22.5 -0.5t34.5 -12.5q16 -8 8 -11q-42 -17 -76 -35.5t-73 -45.5zM391 676q-3 0 -4.5 4.5t0.5 6.5q46 43 90 95q3 4 22 -0.5t34 -12.5q14 -8 7 -11q-66 -27 -147 -81zM572 515q0 98 -87 98q-3 0 -3 6t3 6l43 -1l57 -2
l49 2l42 1q2 0 2 -6t-2 -6q-80 0 -80 -98v-284q0 -114 -63.5 -179t-172.5 -65q-74 0 -129.5 29t-85.5 83q-31 52 -31 125v320q0 31 -6 44.5t-23 19.5q-20 5 -56 5q-2 0 -2 6t2 6l49 -1l68 -2q14 0 70 2l48 1q3 0 3 -6t-3 -6q-37 0 -55 -6t-24 -20t-6 -45v-283
q0 -116 53 -179t150 -63q90 0 140 56.5t50 156.5v285z" />
    <glyph glyph-name="uhungarumlaut" unicode="&#x171;" horiz-adv-x="493" 
d="M144 458q-4 0 -5.5 4.5t1.5 6.5q17 17 50 57q4 4 18 22q3 4 8.5 10.5t10.5 9.5t12 3l14 -2q22 -5 37 -12q16 -8 9 -9q-66 -27 -153 -90h-2zM312 526q4 4 18 22q3 4 8.5 10.5t10.5 9.5t12 3l14 -2q22 -5 37 -12q16 -7 8 -9q-64 -26 -152 -90h-2q-4 0 -5.5 4.5t1.5 6.5
q17 17 50 57zM487 57q4 0 5.5 -4.5t-2.5 -6.5l-117 -55l-4 -1q-10 0 -19 23t-9 60v4q-39 -44 -78 -64.5t-81 -20.5q-51 0 -78.5 31.5t-27.5 91.5v153q0 40 -7 57q-8 17 -23 17t-34 -10h-1q-4 0 -6 5.5t2 6.5l111 50l4 1q3 0 6.5 -2.5t3.5 -5.5v-239q0 -116 84 -116
q32 0 65 16.5t60 45.5v174q0 41 -6 57q-8 17 -24 17q-15 0 -34 -10h-1q-4 0 -5.5 5.5t2.5 6.5l111 50l3 1q3 0 6.5 -2.5t3.5 -5.5v-280q0 -34 8 -49t27 -15q16 0 53 14h2z" />
    <glyph glyph-name="Uogonek" unicode="&#x172;" horiz-adv-x="698" 
d="M676 625q2 0 2 -6t-2 -6q-80 0 -80 -98v-284q0 -94 -44 -155.5t-123 -80.5q-37 -36 -53.5 -68t-16.5 -70q0 -48 24 -75t69 -27q20 0 35 5.5t30 17.5h2q3 0 5.5 -3t-0.5 -5q-52 -45 -108 -45q-53 0 -82.5 26.5t-29.5 72.5q0 82 100 166q-21 -3 -44 -3q-74 0 -129.5 29
t-85.5 83q-31 52 -31 125v320q0 31 -6 44.5t-23 19.5q-20 5 -56 5q-2 0 -2 6t2 6l49 -1l68 -2q14 0 70 2l48 1q3 0 3 -6t-3 -6q-37 0 -55 -6t-24 -20t-6 -45v-283q0 -116 53 -179t150 -63q90 0 140 56.5t50 156.5v285q0 98 -87 98q-3 0 -3 6t3 6l43 -1l57 -2l49 2z" />
    <glyph glyph-name="uogonek" unicode="&#x173;" horiz-adv-x="493" 
d="M486 57q4 1 6 -4t-2 -7l-53 -25q-68 -39 -99 -79.5t-31 -90.5q0 -46 22.5 -71.5t66.5 -25.5q21 0 36 5.5t31 18.5h2q3 0 5.5 -3t-0.5 -5q-52 -45 -110 -45q-53 0 -81.5 25t-28.5 71q0 44 29.5 88t83.5 83q-9 7 -15.5 29t-6.5 52v4q-39 -44 -78 -64.5t-81 -20.5
q-51 0 -78.5 31.5t-27.5 91.5v153q0 40 -7 57q-8 17 -23 17t-34 -10h-1q-4 0 -6 5.5t2 6.5l111 50l4 1q3 0 6.5 -2.5t3.5 -5.5v-239q0 -116 84 -116q32 0 65 16.5t60 45.5v174q0 41 -6 57q-8 17 -24 17q-15 0 -34 -10h-1q-4 0 -5.5 5.5t2.5 6.5l111 50l3 1q3 0 6.5 -2.5
t3.5 -5.5v-280q0 -34 8 -49t27 -15q13 0 29 6l24 10z" />
    </font>
</defs>
</svg>
