<?xml version="1.0" standalone="no"?>
<!DOCTYPE svg PUBLIC "-//W3C//DTD SVG 1.1//EN" "http://www.w3.org/Graphics/SVG/1.1/DTD/svg11.dtd" >
<svg xmlns="http://www.w3.org/2000/svg" xmlns:xlink="http://www.w3.org/1999/xlink" version="1.1">
<metadata>
Created by FontForge 20161013 at Mon Jun 12 14:58:58 2017
 By ,,,
Copyright (c) 2017 by Unknow Designer, Davit Samsonidze. All rights reserved.
</metadata>
<defs>
<font id="GLKupiura-Regular" horiz-adv-x="741" >
  <font-face 
    font-family="GL Kupiura"
    font-weight="400"
    font-stretch="normal"
    units-per-em="1000"
    panose-1="0 0 5 0 0 0 0 0 0 0"
    ascent="800"
    descent="-200"
    x-height="442"
    cap-height="691"
    bbox="-41 -300 1015 921"
    underline-thickness="50"
    underline-position="-150"
    unicode-range="U+0020-2212"
  />
<missing-glyph horiz-adv-x="505" 
d="M414 -300h-320v1010h320v-1010zM170 642v-33h65v-37h-66v-34h167v34h-66v37h66v33h-166zM169 512v-105h167v34h-66v71h-101zM235 441h-33v37h33v-37zM169 380v-34h66v-37h-66v-33h101v70h66v34h-167zM303 319v-67h-134v-34h167v101h-33zM235 196v-57h35v24h33v-48h-101
v81h-33v-114h167v114h-101zM169 21v-114h167v114h-167zM303 -60h-101v48h101v-48zM169 -116v-34h70l-70 -47v-33h167v33h-103l71 47h32v34h-167z" />
    <glyph glyph-name=".notdef" horiz-adv-x="505" 
d="M414 -300h-320v1010h320v-1010zM170 642v-33h65v-37h-66v-34h167v34h-66v37h66v33h-166zM169 512v-105h167v34h-66v71h-101zM235 441h-33v37h33v-37zM169 380v-34h66v-37h-66v-33h101v70h66v34h-167zM303 319v-67h-134v-34h167v101h-33zM235 196v-57h35v24h33v-48h-101
v81h-33v-114h167v114h-101zM169 21v-114h167v114h-167zM303 -60h-101v48h101v-48zM169 -116v-34h70l-70 -47v-33h167v33h-103l71 47h32v34h-167z" />
    <glyph glyph-name=".null" horiz-adv-x="0" 
 />
    <glyph glyph-name="nonmarkingreturn" horiz-adv-x="333" 
 />
    <glyph glyph-name="space" unicode=" " horiz-adv-x="262" 
 />
    <glyph glyph-name="exclam" unicode="!" horiz-adv-x="263" 
d="M105 345q-5 44 -18 115q-16 89 -16 143q0 31 16.5 50t43.5 19t43.5 -19t16.5 -50q0 -47 -16 -143q-13 -79 -17 -115l-16 -195h-22zM89 5.5q-17 17.5 -17 43.5t17 43t42 17q26 0 43 -17t17 -43t-17 -43.5t-43 -17.5q-25 0 -42 17.5z" />
    <glyph glyph-name="quotedbl" unicode="&#x22;" horiz-adv-x="374" 
d="M81 647l-2 17q0 22 9 33t24 11t24 -11t9 -33l-2 -17l-19 -143h-23zM231 647q-1 3 -1 8.5t-1 8.5q0 22 9 33t24 11t24 -11t9 -33q-1 -3 -1 -8.5t-1 -8.5l-20 -143h-23z" />
    <glyph glyph-name="numbersign" unicode="#" horiz-adv-x="659" 
d="M159 0l30 190h-112v39h117l35 208h-152v38h158l28 188h42l-30 -188h143l28 188h43l-28 -188h128v-38h-134l-33 -208h164v-39h-171l-30 -190h-43l30 190h-140l-30 -190h-43zM236 229h143l33 208h-140z" />
    <glyph glyph-name="dollar" unicode="$" horiz-adv-x="552" 
d="M218 -12q-77 15 -119 59.5t-42 112.5q0 33 19.5 54t46.5 21q16 0 28.5 -12t12.5 -31q0 -18 -6 -28.5t-19 -24.5q-11 -11 -16.5 -20t-5.5 -23q0 -26 26.5 -46.5t74.5 -29.5v303q-70 27 -104 71t-34 108q0 63 36.5 109t101.5 61v63h30v-59q20 3 32 3q15 0 23 -2v58h31v-61
q69 -12 109 -55t40 -100q0 -42 -14 -66t-44 -24q-19 0 -30 11t-11 26q0 16 6 26t18 22q13 13 19 23t6 27q0 25 -26 48t-73 31v-275q74 -29 110.5 -75t36.5 -112q0 -71 -38.5 -123.5t-108.5 -67.5v-71h-31v66q-5 -1 -23 -1q-24 0 -32 1v-66h-30v69zM303 647l-23 1l-32 -2
v-244l55 -23v268zM218 640q-45 -13 -68 -44.5t-23 -71.5q0 -45 19.5 -67.5t71.5 -43.5v227zM303 16v274l-55 20v-294h32h23zM411 71.5q28 35.5 28 78.5q0 37 -9.5 58t-31 35.5t-64.5 32.5v-254q49 14 77 49.5z" />
    <glyph glyph-name="percent" unicode="%" horiz-adv-x="830" 
d="M603 681h36l-413 -698h-36zM152.5 355.5q-29.5 23.5 -45.5 63t-16 84.5q0 47 16.5 87.5t46.5 64.5t68 24q60 0 95.5 -51t35.5 -125q0 -72 -36.5 -121.5t-94.5 -49.5q-40 0 -69.5 23.5zM276.5 388q14.5 37 14.5 115q0 80 -15 118.5t-54 38.5q-40 0 -54.5 -38.5
t-14.5 -118.5q0 -79 14.5 -115.5t54.5 -36.5t54.5 37zM538.5 8q-29.5 24 -45.5 63.5t-16 85.5q0 47 16.5 87t46.5 64t68 24q60 0 95.5 -51t35.5 -124t-36.5 -123t-94.5 -50q-40 0 -69.5 24zM662.5 41.5q14.5 37.5 14.5 115.5t-15 116.5t-54 38.5q-40 0 -54.5 -38t-14.5 -117
t14.5 -116t54.5 -37t54.5 37.5z" />
    <glyph glyph-name="ampersand" unicode="&#x26;" horiz-adv-x="757" 
d="M99 23q-50 40 -50 118q0 94 138 194l30 23l-9 14q-25 35 -38.5 72t-13.5 69q0 46 20 84t54 64q32 19 55 19q9 0 18 -3q55 4 85 -29t30 -86q0 -51 -28.5 -91t-91.5 -91l167 -235q35 42 59 91.5t24 80.5q0 17 -11 28t-27 11h-44v31h242v-31h-31q-29 0 -48 -11.5t-34 -44.5
q-39 -76 -61.5 -113.5t-49.5 -69.5q32 -45 59 -70q27 -22 47 -22q33 0 55 19t39 55l16 -8q-25 -51 -55 -79.5t-78 -28.5q-68 0 -137 78q-43 -36 -92 -57t-99 -21q-90 0 -140 40zM358 485q26 35 26 83q0 35 -22.5 60t-55.5 25q-40 0 -64 -30.5t-24 -79.5q0 -29 15 -61t46 -73
q53 41 79 76zM409 84l-173 247q-50 -41 -71.5 -82.5t-21.5 -101.5q0 -36 14 -67.5t38.5 -50t53.5 -18.5q81 0 160 73z" />
    <glyph glyph-name="quotesingle" unicode="'" horiz-adv-x="225" 
d="M81 647l-2 17q0 22 9 33t24 11t24 -11t9 -33l-2 -17l-19 -143h-23z" />
    <glyph glyph-name="parenleft" unicode="(" horiz-adv-x="338" 
d="M273 -192q-88 81 -138.5 198.5t-50.5 251.5t50.5 251.5t138.5 198.5l29 -22q-86 -91 -128 -196.5t-42 -231.5q0 -249 170 -428z" />
    <glyph glyph-name="parenright" unicode=")" horiz-adv-x="338" 
d="M38 -170q170 179 170 428q0 248 -170 428l29 22q88 -81 138.5 -198.5t50.5 -251.5t-50.5 -251.5t-138.5 -198.5z" />
    <glyph glyph-name="asterisk" unicode="*" horiz-adv-x="486" 
d="M220 292.5q-10 11.5 -10 30.5q0 13 12 43q14 37 14 73q0 9 -1.5 12t-6.5 3t-14 -6q-38 -23 -54 -47q-15 -21 -27.5 -29.5t-27.5 -8.5q-16 0 -26 11t-10 25q0 20 16 30t49 15q31 4 73 25q3 1 6 4.5t3 6.5t-3 6.5t-6 4.5q-45 23 -73 25q-33 5 -49 15.5t-16 30.5q0 14 10 25
t26 11q14 0 26 -9t28 -29q19 -23 55 -48q9 -6 14 -6t6.5 3t1.5 12q0 42 -15 76q-11 25 -11 41q0 19 9.5 30t27.5 11q17 0 27 -11t10 -30q0 -13 -11 -41q-14 -37 -14 -76q0 -9 1.5 -12t6.5 -3q4 0 13 6q38 26 55 48q14 20 27 29t27 9q16 0 26 -11t10 -25q0 -20 -17 -30.5
t-49 -15.5q-35 -5 -71 -25q-3 -1 -6.5 -4.5t-3.5 -6.5t3.5 -6.5t6.5 -4.5q40 -22 71 -25q33 -4 49.5 -14t16.5 -31q0 -14 -10 -25t-26 -11q-13 0 -25 9t-29 29q-17 21 -55 47q-9 6 -13 6q-5 0 -6.5 -3t-1.5 -12q0 -41 13 -73q12 -33 12 -43q0 -18 -10 -30t-27 -12t-27 11.5z
" />
    <glyph glyph-name="plus" unicode="+" horiz-adv-x="908" 
d="M433 -151v388h-388v38h388v388h42v-388h388v-38h-388v-388h-42z" />
    <glyph glyph-name="comma" unicode="," horiz-adv-x="256" 
d="M80 -147q36 26 58.5 65.5t22.5 77.5q0 21 -13 27.5t-38 6.5q-21 0 -34 14.5t-13 35.5q0 25 16.5 40.5t38.5 15.5q37 0 57.5 -27.5t20.5 -72.5q0 -58 -29 -112t-73 -87z" />
    <glyph glyph-name="hyphen" unicode="-" horiz-adv-x="356" 
d="M57 217v55h242v-55h-242z" />
    <glyph glyph-name="period" unicode="." horiz-adv-x="263" 
d="M88 5.5q-17 17.5 -17 43.5t17.5 43t42.5 17q26 0 43 -17t17 -43t-17 -43.5t-43 -17.5t-43 17.5z" />
    <glyph glyph-name="zero" unicode="0" horiz-adv-x="568" 
d="M77.5 524q28.5 82 82 130t124.5 48t124.5 -48t82 -130t29.5 -179q-1 -97 -29.5 -178.5t-82 -129.5t-124.5 -48t-124.5 48t-82 129.5t-28.5 178.5t28.5 179zM165.5 95.5q16.5 -35.5 47 -57.5t71.5 -22q40 0 70.5 22t47 57.5t16.5 75.5v350q0 40 -16.5 75.5t-47 57
t-70.5 21.5q-41 0 -71.5 -21.5t-47 -57t-16.5 -75.5v-350q0 -40 16.5 -75.5z" />
    <glyph glyph-name="one" unicode="1" horiz-adv-x="305" 
d="M110 29q12 0 21.5 8.5t9.5 26.5v401l-90 -46l-10 27q106 41 115 215l1 29h64v-626q0 -19 7 -26.5t21 -7.5v-30h-139v29z" />
    <glyph glyph-name="two" unicode="2" horiz-adv-x="535" 
d="M491 153q0 -37 -4 -54q-9 -50 -39 -78t-70 -28q-35 0 -60 15t-58 45q-29 25 -46.5 36t-39.5 11q-37 0 -65 -28.5t-41 -78.5h-30q0 84 27.5 142t67.5 94.5t104 79.5q54 37 84.5 63.5t51.5 65.5t21 91q0 72 -40.5 110.5t-100.5 38.5q-63 0 -99 -45q16 -6 26.5 -20.5
t10.5 -34.5q0 -25 -18.5 -42.5t-42.5 -17.5q-27 0 -44.5 17t-17.5 43q0 30 26 59t69 46.5t90 17.5q234 0 234 -184q0 -49 -25.5 -86.5t-62 -65t-100.5 -66.5q-57 -35 -91.5 -60t-63.5 -58.5t-40 -74.5q22 24 49 37.5t56 13.5q31 0 52.5 -10.5t47.5 -30.5q25 -19 44.5 -28
t45.5 -9q30 0 49.5 18t19.5 53z" />
    <glyph glyph-name="three" unicode="3" horiz-adv-x="531" 
d="M137.5 15.5q-48.5 26.5 -73.5 68.5t-25 87q0 34 15 56.5t41 31.5q7 2 20 2q21 0 36.5 -11.5t20.5 -30.5q4 -9 4 -22q0 -23 -17 -40.5t-39 -17.5q-13 0 -23 5q0 -35 20.5 -64.5t55 -47t74.5 -17.5q43 0 76.5 19.5t52.5 53.5t19 74v83q0 57 -30.5 95t-80.5 38
q-19 -2 -28.5 -8.5t-9.5 -21.5h-22v90h22q0 -27 36 -29q35 2 64 31.5t29 72.5v34q0 56 -27.5 93.5t-83.5 37.5q-65 -1 -98 -44q16 -7 26 -21.5t10 -34.5q0 -25 -18 -42t-43 -17q-26 0 -43.5 17t-17.5 42q0 32 22.5 60t64.5 45.5t97 17.5q84 0 139.5 -44t55.5 -120
q0 -56 -32 -92t-75 -49v-4q62 -17 103.5 -65.5t41.5 -129.5q0 -58 -32.5 -105.5t-89 -75t-124.5 -27.5q-65 0 -113.5 26.5z" />
    <glyph glyph-name="four" unicode="4" horiz-adv-x="513" 
d="M8 165q35 19 110 105t139 199.5t74 220.5h61l1 -518h89v-28h-89v-80q0 -19 7 -26.5t21 -7.5v-30h-139v29q12 0 21.5 8.5t9.5 26.5v80h-306zM313 172l1 328h-9q-26 -67 -101 -167.5t-132 -155.5v-5h241z" />
    <glyph glyph-name="five" unicode="5" horiz-adv-x="555" 
d="M143.5 16q-48.5 27 -73.5 69t-25 87q0 40 21 65.5t54 25.5q29 0 46.5 -18t17.5 -43q0 -27 -17 -45t-41 -18q-10 0 -23 5q0 -35 20.5 -64.5t55 -47t76.5 -17.5q40 0 73 18.5t52.5 51t19.5 71.5v89q0 83 -40 122t-104 42q-29 1 -65 -8t-64 -29h-46l41 319h29
q3 -36 19 -57.5t38 -21.5q19 0 36 10t41 30q33 26 57.5 39t56.5 13q52 0 85 -42.5t30 -115.5l-23 1q0 33 -26.5 52.5t-62.5 19.5q-25 0 -43 -9t-40 -27q-21 -17 -38 -25.5t-41 -8.5q-51 0 -85 57l-23 -190q57 21 129 21q70 0 124.5 -30.5t84.5 -83t30 -117.5
q0 -61 -32 -110.5t-87.5 -78t-123.5 -28.5q-65 0 -113.5 27z" />
    <glyph glyph-name="six" unicode="6" horiz-adv-x="558" 
d="M160.5 31q-53.5 42 -83 124t-29.5 198q0 160 61.5 254t185.5 94q47 0 90 -17.5t69 -46t26 -59.5q0 -26 -17 -43t-44 -17q-25 0 -43 17.5t-18 42.5q0 20 10.5 34t25.5 21q-16 21 -41.5 33t-57.5 12q-68 0 -107.5 -52.5t-39.5 -130.5v-136q63 67 145 67q63 0 113.5 -24.5
t79.5 -72t29 -113.5q0 -65 -30 -117t-82.5 -81t-117.5 -29q-71 0 -124.5 42zM355 39q30 23 45 58.5t15 72.5v81q0 61 -33 102t-97 41q-58 0 -95.5 -35t-42.5 -95v-71q0 -48 16.5 -88.5t47.5 -64.5t72 -24q42 0 72 23z" />
    <glyph glyph-name="seven" unicode="7" horiz-adv-x="510" 
d="M157 29q28 0 35 35q22 115 45.5 194t57.5 149t92 165q-47 -34 -90 -34q-28 0 -47.5 9.5t-45.5 29.5t-46.5 30t-49.5 10q-31 0 -50.5 -17.5t-19.5 -52.5l-23 -3q-4 73 29.5 116.5t86.5 43.5q33 0 59 -13.5t62 -40.5q31 -23 50.5 -33.5t42.5 -10.5q31 0 64.5 30.5
t47.5 67.5l36 -19q-105 -167 -158 -309.5t-53 -300.5q0 -25 4 -35t17 -10v-30h-146v29z" />
    <glyph glyph-name="eight" unicode="8" horiz-adv-x="527" 
d="M152 14q-54 25 -86 68t-32 95q0 78 51.5 127t135.5 90q-73 43 -110.5 79.5t-37.5 83.5q0 43 27 75.5t70 50.5t88 18t88.5 -18t71 -51t27.5 -75q0 -46 -35 -85t-105 -81q85 -31 136.5 -85t51.5 -130q0 -45 -29 -88.5t-80 -71t-113 -27.5q-65 0 -119 25zM335.5 474
q27.5 34 27.5 82v27q0 42 -29.5 66.5t-75.5 24.5q-49 0 -78.5 -27t-29.5 -74l1 -20q0 -46 24.5 -80.5t77.5 -62.5q55 30 82.5 64zM360.5 50q34.5 34 34.5 92v48q0 59 -25.5 106t-99.5 77q-51 -29 -79 -53t-42.5 -54.5t-14.5 -75.5v-48q-1 -58 37.5 -92t99.5 -34
q55 0 89.5 34z" />
    <glyph glyph-name="nine" unicode="9" horiz-adv-x="557" 
d="M169 8q-44 19 -70.5 48.5t-26.5 60.5q0 28 18 46t43 18t43.5 -17.5t18.5 -42.5q0 -20 -10.5 -34t-26.5 -21q37 -53 105 -53q69 0 108 52.5t39 130.5v136q-63 -67 -145 -67q-63 0 -113.5 24.5t-79 71.5t-28.5 114q0 65 30 116.5t82.5 80.5t117.5 29q71 0 124.5 -42
t82.5 -123.5t29 -197.5q0 -160 -61.5 -254.5t-185.5 -94.5q-50 0 -94 19zM369 331.5q37 34.5 43 95.5v70q0 74 -37 126t-99 52q-43 0 -72.5 -23t-44.5 -58.5t-15 -73.5v-80q0 -61 33 -102t97 -41q58 0 95 34.5z" />
    <glyph glyph-name="colon" unicode=":" horiz-adv-x="263" 
d="M88 351q-17 17 -17 43t17 43t43 17t43 -17t17 -43t-17 -43t-43 -17t-43 17zM88 5.5q-17 17.5 -17 43.5t17.5 43t42.5 17q26 0 43 -17t17 -43t-17 -43.5t-43 -17.5t-43 17.5z" />
    <glyph glyph-name="semicolon" unicode=";" horiz-adv-x="256" 
d="M85 351q-17 17 -17 43t17 43t43 17q27 0 43.5 -17t16.5 -43t-16.5 -43t-43.5 -17q-26 0 -43 17zM80 -147q36 26 58.5 65.5t22.5 77.5q0 21 -13 27.5t-38 6.5q-21 0 -34 14.5t-13 35.5q0 25 16.5 40.5t38.5 15.5q37 0 57.5 -27.5t20.5 -72.5q0 -58 -29 -112t-73 -87z" />
    <glyph glyph-name="less" unicode="&#x3c;" horiz-adv-x="914" 
d="M815 -151l-734 394v27l734 393l19 -34l-692 -373l692 -372z" />
    <glyph glyph-name="equal" unicode="=" horiz-adv-x="912" 
d="M47 328v39h818v-39h-818zM47 144v38h818v-38h-818z" />
    <glyph glyph-name="greater" unicode="&#x3e;" horiz-adv-x="914" 
d="M98 -151l-18 35l693 372l-693 373l18 34l734 -393v-27z" />
    <glyph glyph-name="question" unicode="?" horiz-adv-x="458" 
d="M169 170q-25 21 -25 58q0 27 7.5 44.5t31.5 44t86 85.5q28 36 40.5 62.5t12.5 60.5q0 54 -29 86.5t-83 32.5q-29 0 -55 -11t-42 -28.5t-16 -35.5q0 -19 3.5 -25.5t14.5 -6.5q3 0 23 2q17 0 26.5 -10.5t9.5 -27.5q0 -21 -14 -34t-39 -13q-28 0 -47.5 23.5t-19.5 60.5
q0 40 25 70.5t63 47.5t75 17q83 0 136.5 -40t53.5 -108q0 -41 -21 -74t-49 -56.5t-72 -54.5q-43 -28 -65.5 -57.5t-22.5 -57.5q0 -23 15.5 -35t40.5 -12t41 18t16 47q0 13 -5 25l17 7q12 -19 12 -33q0 -27 -12.5 -48.5t-31 -33t-37.5 -11.5q-39 0 -64 21zM189.5 5.5
q-17.5 17.5 -17.5 43.5t17.5 43t43.5 17t43 -17t17 -43t-17 -43.5t-43 -17.5t-43.5 17.5z" />
    <glyph glyph-name="at" unicode="@" horiz-adv-x="791" 
d="M203 31.5q-79 48.5 -118 130.5t-39 182q0 106 50.5 189t133.5 129t176 46q109 0 184.5 -46t113.5 -124t38 -172q0 -65 -29 -120t-80 -87t-112 -32q-38 0 -63 19.5t-29 53.5l-5 1q-20 -30 -51.5 -52t-65.5 -22q-46 0 -77 32t-31 88q0 81 30 154t84 117t122 44
q23 0 44 -17.5t24 -36.5h5l12 42h69l-83 -301q-6 -30 -6 -41q0 -25 11 -41t25 -16q85 0 122 70.5t37 163.5q0 97 -39 163.5t-106 99.5t-152 33q-93 0 -162.5 -51.5t-106.5 -133.5t-37 -171q0 -103 41 -174t111.5 -106t161.5 -35q86 0 171 56l16 -22q-85 -61 -196 -61
q-115 0 -194 48.5zM398.5 199.5q40.5 49.5 60.5 125.5q16 55 21.5 78.5t5.5 35.5q0 41 -14 70t-37 29q-55 0 -93.5 -52t-57.5 -127t-19 -143q0 -28 14 -47t32 -19q47 0 87.5 49.5z" />
    <glyph glyph-name="A" unicode="A" 
d="M44 31h37q57 0 82 71l208 589h25l210 -616q10 -24 23.5 -34t34.5 -10h56v-31h-300v31h63q14 0 24 7.5t10 17.5q0 13 -4 21l-46 129h-227l-23 -65q-13 -38 -13 -57q0 -53 47 -53h59v-31h-266v31zM251 237h206l-101 297z" />
    <glyph glyph-name="B" unicode="B" horiz-adv-x="667" 
d="M60 31h71q12 0 18.5 7t6.5 19v576q0 14 -6 20.5t-19 6.5h-71v31h315q59 0 109.5 -21.5t79.5 -58.5q30 -37 30 -85q0 -64 -43 -107.5t-106 -56.5v-4q42 -3 81.5 -25.5t63.5 -59.5q25 -40 25 -85q0 -57 -30.5 -100.5t-83.5 -65.5t-114 -22h-327v31zM372 376q75 0 106 38
t31 112q0 58 -37 96t-92 38h-108q-28 0 -28 -27v-257h128zM376 31q64 0 100.5 37.5t36.5 119.5q0 157 -137 157h-132v-288q0 -26 28 -26h104z" />
    <glyph glyph-name="C" unicode="C" horiz-adv-x="646" 
d="M202 34q-65 51 -99.5 135.5t-34.5 181.5q0 102 33.5 183t95 127.5t141.5 46.5q36 0 71.5 -18.5t75.5 -46.5q22 -17 27 -17q8 0 11 4t7 16l18 54h24l5 -300h-28q-30 127 -85.5 202t-123.5 75q-90 0 -130 -81t-40 -244q0 -171 42 -254.5t143 -83.5q89 0 140 66t58 171h35
q-6 -120 -66 -194t-167 -74q-88 0 -153 51z" />
    <glyph glyph-name="D" unicode="D" horiz-adv-x="757" 
d="M60 31h71q12 0 18.5 7t6.5 19v576q0 14 -6 20.5t-19 6.5h-71v31h355q91 0 157.5 -48t101 -126t34.5 -166q0 -100 -39.5 -180t-107 -125.5t-146.5 -45.5h-355v31zM411 31q72 0 115.5 49.5t61.5 122t18 148.5q0 137 -49.5 223t-145.5 86h-139q-28 0 -28 -27v-576
q0 -26 28 -26h139z" />
    <glyph glyph-name="E" unicode="E" horiz-adv-x="668" 
d="M60 31h71q12 0 18.5 7t6.5 19v576q0 14 -6 20.5t-19 6.5h-71v31h541l4 -243h-24q0 55 -17 103.5t-52 78.5t-86 30h-154q-28 0 -28 -27v-261h76q46 0 69.5 47.5t23.5 112.5h25v-349h-25q0 65 -23.5 111.5t-69.5 46.5h-76v-284q0 -26 28 -26h155q73 0 111 54.5t45 140.5
q3 20 4 29.5t2 12.5h24l-12 -268h-541v31z" />
    <glyph glyph-name="F" unicode="F" horiz-adv-x="652" 
d="M60 31h71q12 0 18.5 7t6.5 19v576q0 14 -6 20.5t-19 6.5h-71v31h541l4 -243h-24q0 31 -9.5 74.5t-31.5 75.5q-41 62 -114 62h-154q-28 0 -28 -27v-261h76q46 0 69.5 49.5t23.5 114.5h25v-358h-25q0 65 -23.5 114t-69.5 49h-76v-278q0 -15 7 -23.5t21 -8.5h85v-31h-297v31
z" />
    <glyph glyph-name="G" unicode="G" horiz-adv-x="699" 
d="M187 37q-61 54 -90 138t-29 176q0 102 33.5 183t95 127.5t141.5 46.5q36 0 72.5 -19t74.5 -47q23 -16 26 -16q8 0 11.5 4t7.5 16l18 54h23l5 -300h-27q-30 127 -85.5 202t-123.5 75q-74 0 -111.5 -48.5t-48 -118.5t-10.5 -165q0 -165 36.5 -248t133.5 -83q38 0 71 27
t53 67t20 75v88q0 26 -26 26h-109v31h321v-31h-72q-27 0 -27 -26v-284h-30v89q2 33 -16 33q-10 0 -17.5 -7t-16.5 -22q-25 -39 -66 -68t-85 -29q-92 0 -153 54z" />
    <glyph glyph-name="H" unicode="H" horiz-adv-x="763" 
d="M60 31h71q12 0 18.5 7t6.5 19v576q0 27 -25 27h-71v31h281v-31h-69q-28 0 -28 -27v-255h294v255q0 27 -25 27h-70v31h280v-31h-69q-27 0 -27 -27v-576q0 -26 27 -26h69v-31h-281v31h71q25 0 25 26v291h-294v-291q0 -26 28 -26h69v-31h-281v31z" />
    <glyph glyph-name="I" unicode="I" horiz-adv-x="382" 
d="M60 31h71q12 0 18.5 7t6.5 19v576q0 14 -6 20.5t-19 6.5h-71v31h281v-31h-69q-28 0 -28 -27v-576q0 -26 28 -26h69v-31h-281v31z" />
    <glyph glyph-name="J" unicode="J" horiz-adv-x="520" 
d="M86.5 20.5q-45.5 37.5 -45.5 100.5q0 27 12 47.5t32 32.5q16 10 36 10q27 0 40.5 -13t13.5 -35q0 -20 -10 -31t-35 -19q-18 -5 -25 -12t-7 -21q0 -29 31 -47.5t77 -18.5t72.5 35.5t26.5 89.5v494q0 14 -6 20.5t-20 6.5h-71v31h282v-31h-69q-14 0 -20.5 -6.5t-6.5 -20.5
v-445q0 -62 -25.5 -109t-69.5 -72q-41 -24 -94 -24q-73 0 -118.5 37.5z" />
    <glyph glyph-name="K" unicode="K" horiz-adv-x="729" 
d="M60 31h71q12 0 18.5 7t6.5 19v576q0 14 -6 20.5t-19 6.5h-71v31h277v-31h-65q-28 0 -28 -27v-300l225 228q24 27 24 58q0 17 -13 29t-31 12h-26v31h256v-31h-39q-15 0 -36 -14.5t-51 -43.5l-163 -165l197 -363q13 -24 29 -33.5t45 -9.5h31v-31h-292v31h65q10 0 18 6t8 14
q0 18 -7 25l-158 297l-82 -82v-234q0 -26 28 -26h65v-31h-277v31z" />
    <glyph glyph-name="L" unicode="L" horiz-adv-x="643" 
d="M60 31h71q25 0 25 26v576q0 14 -6 20.5t-19 6.5h-71v31h297v-31h-85q-28 0 -28 -27v-576q0 -26 28 -26h98q92 0 135 60t57 166l7 32h25l-9 -289h-525v31z" />
    <glyph glyph-name="M" unicode="M" horiz-adv-x="806" 
d="M197 604h-6v-495q0 -45 20 -61.5t76 -16.5v-31h-231v31q39 0 59.5 7t28.5 23.5t8 47.5v524q0 27 -25 27h-71v31h206l158 -536l147 536h201v-31h-71q-14 0 -20 -6.5t-6 -20.5v-576q0 -12 7 -19t19 -7h71v-31h-281v31h70q13 0 19.5 7t6.5 19v573l-178 -642h-23z" />
    <glyph glyph-name="N" unicode="N" horiz-adv-x="736" 
d="M195 586h-4v-477q0 -45 20 -61.5t76 -16.5v-31h-231v31q40 0 60.5 7t28 23.5t7.5 47.5v525q-1 14 -6.5 20t-18.5 6h-71v31h183l337 -543v434q0 31 -8 47.5t-28 23.5t-59 7v31h231v-31q-57 0 -77 -17t-20 -61v-599h-38z" />
    <glyph glyph-name="O" unicode="O" horiz-adv-x="679" 
d="M198 38q-64 55 -97 139t-33 168q0 97 37 180.5t101.5 133t142.5 49.5q87 0 151.5 -55t97.5 -139t33 -169q0 -97 -37 -180t-102 -132.5t-143 -49.5q-87 0 -151 55zM485 98.5q43 84.5 43 246.5q0 164 -43 248t-136 84t-136 -84t-43 -248q0 -162 43 -246.5t136 -84.5
t136 84.5z" />
    <glyph glyph-name="P" unicode="P" horiz-adv-x="660" 
d="M60 31h71q12 0 18.5 7t6.5 19v576q0 14 -6 20.5t-19 6.5h-71v31h324q68 0 121.5 -22.5t81.5 -64.5q30 -42 30 -94q0 -53 -29.5 -95t-82.5 -65q-54 -24 -121 -24h-140v-269q0 -14 6.5 -20t21.5 -6h85v-31h-297v31zM397 357q52 0 84.5 44.5t32.5 108.5q0 65 -32 107.5
t-85 42.5h-125q-28 0 -28 -27v-276h153z" />
    <glyph glyph-name="Q" unicode="Q" horiz-adv-x="680" 
d="M440 -122.5q-24 39.5 -31 114.5q-30 -9 -59 -9q-80 0 -145.5 51.5t-101.5 137.5q-35 84 -35 177t36 176.5t100 132.5q62 50 145 50q81 0 146 -49.5t101 -133.5q35 -85 35 -176q0 -71 -20 -136.5t-56 -116.5q-34 -45 -85 -78q25 -111 80 -111q35 0 49 36.5t13 105.5h19
q0 -105 -24.5 -158t-87.5 -53q-55 0 -79 39.5zM257 46q-5 12 -5 27q0 40 27 66.5t67 26.5q84 0 113 -105q37 37 53 108t16 180q0 162 -42.5 245t-136.5 83t-136.5 -82.5t-42.5 -245.5q0 -108 19 -185.5t66 -118.5zM406 24q-2 55 -16 83t-47 28q-26 0 -42 -17t-16 -46
q0 -58 64 -58q33 0 57 10z" />
    <glyph glyph-name="R" unicode="R" horiz-adv-x="689" 
d="M506.5 -0.5q-21.5 10.5 -27.5 38.5q-31 40 -33 168q-1 68 -24 109.5t-70 41.5h-108v-300q0 -14 6.5 -20t21.5 -6h86v-31h-298v31h71q12 0 18.5 7t6.5 19v576q0 14 -6 20.5t-19 6.5h-71v31h318q99 0 157 -38t58 -118q0 -69 -52.5 -113.5t-131.5 -52.5v-4q58 -12 91 -54
t47 -134q4 -31 5 -38q5 -28 6 -43q7 -27 15 -36.5t25 -9.5q41 0 41 105h24q0 -75 -21 -120.5t-79 -45.5q-35 0 -56.5 10.5zM340 388q151 0 151 147q0 59 -32 92t-87 33h-100q-28 0 -28 -27v-245h96z" />
    <glyph glyph-name="S" unicode="S" horiz-adv-x="601" 
d="M264 -0.5q-39 16.5 -71 40.5q-43 32 -48 32q-19 0 -27 -43l-3 -39h-23l-6 307h24q5 -71 39 -136.5t86 -106.5q50 -40 106 -40q76 0 115 37t39 95q0 46 -27 74.5t-83 46.5l-145 66q-77 23 -114.5 72.5t-37.5 120.5q0 89 52.5 135.5t137.5 46.5q66 0 142 -58q4 -2 16 -10
t21 -8q16 0 19 24l3 35h24l10 -253h-23q-15 70 -48.5 124t-78.5 84q-46 31 -92 31q-56 0 -90.5 -36t-34.5 -99q0 -42 21.5 -66.5t67.5 -42.5l186 -77q63 -21 97 -69.5t34 -104.5q0 -53 -23.5 -97.5t-68.5 -72.5q-46 -29 -119 -29q-38 0 -77 16.5z" />
    <glyph glyph-name="T" unicode="T" horiz-adv-x="685" 
d="M189 31h93q26 0 26 26v579q0 15 -5.5 21t-20.5 6q-101 0 -145 -64.5t-43 -184.5h-28l8 277h556l8 -277h-27q1 120 -43 184.5t-145 64.5q-15 0 -20.5 -6t-5.5 -21v-579q0 -26 27 -26h92v-31h-327v31z" />
    <glyph glyph-name="U" unicode="U" horiz-adv-x="763" 
d="M265 16.5q-58 33.5 -87 91.5q-26 53 -26 122v403q0 14 -6.5 20.5t-20.5 6.5h-70v31h283v-31h-72q-13 0 -19 -6.5t-6 -20.5v-429q0 -91 43.5 -140.5t122.5 -49.5q59 0 102.5 24t66.5 66q24 41 24 88v389q0 45 -20.5 62t-75.5 17v31h230v-31q-55 0 -75 -17.5t-20 -61.5
v-379q0 -62 -28 -111.5t-80 -78.5t-124 -29q-84 0 -142 33.5z" />
    <glyph glyph-name="V" unicode="V" horiz-adv-x="749" 
d="M162 617q-9 24 -22 33.5t-35 9.5h-61v31h309v-31h-64q-13 0 -23 -7.5t-10 -17.5q0 -12 4 -21l167 -468l128 395q12 38 12 67q0 22 -12.5 37t-37.5 15h-52v31h262v-31h-37q-32 0 -50.5 -18t-30.5 -53l-198 -606h-23z" />
    <glyph glyph-name="W" unicode="W" horiz-adv-x="1037" 
d="M156 618q-9 23 -22.5 32.5t-34.5 9.5h-60v31h287v-31h-48q-13 0 -23 -7.5t-10 -17.5q0 -9 4 -21l129 -447l118 428l-9 29q-6 18 -25.5 27t-43.5 9h-28v31h286v-31h-37q-49 0 -49 -51q0 -17 6 -30l121 -420l121 382q7 29 9.5 42.5t2.5 32.5t-17.5 31.5t-47.5 12.5h-32v31
h262v-31h-42q-31 0 -49.5 -18.5t-29.5 -52.5l-193 -606h-25l-159 539l-152 -539h-24z" />
    <glyph glyph-name="X" unicode="X" horiz-adv-x="728" 
d="M47 31h30q30 0 51.5 16t44.5 49l164 246l-144 267q-16 29 -31.5 40t-46.5 11h-59v31h300v-31h-58q-18 0 -18 -15q0 -12 8 -25l106 -194l91 138q19 28 19 56q0 17 -13 28.5t-33 11.5h-30v31h262v-31h-44q-29 0 -48.5 -11t-36.5 -37l-150 -223l173 -315q14 -24 27 -33.5
t32 -9.5h61v-31h-300v31h59q12 0 18.5 5.5t6.5 14.5q0 13 -7 25l-124 229l-112 -170q-24 -36 -24 -61q0 -19 9 -31t26 -12h53v-31h-262v31z" />
    <glyph glyph-name="Y" unicode="Y" horiz-adv-x="706" 
d="M218 31h93q27 0 27 26v251l-188 310q-16 25 -27.5 33.5t-29.5 8.5h-51v31h300v-31h-59q-14 0 -23.5 -7t-9.5 -18q0 -13 5 -21l152 -259l100 190q5 7 11 27.5t6 31.5q0 25 -13.5 40.5t-39.5 15.5h-30v31h241v-31h-27q-30 0 -49.5 -17t-39.5 -54l-139 -263v-269
q0 -12 6.5 -19t19.5 -7h93v-31h-328v31z" />
    <glyph glyph-name="Z" unicode="Z" horiz-adv-x="632" 
d="M66 31l403 629h-184q-62 0 -106 -55t-62 -129q-7 -35 -7 -34h-25l24 249h461v-30l-398 -630h195q51 0 94 33.5t68 86t24 106.5q11 29 11 36h24l-16 -293h-506v31z" />
    <glyph glyph-name="bracketleft" unicode="[" horiz-adv-x="358" 
d="M105 -180v876l180 13l4 -26l-93 -15q-11 -1 -16.5 -10t-5.5 -22v-756q0 -13 6.5 -23.5t17.5 -11.5l91 -12l-4 -25z" />
    <glyph glyph-name="bracketright" unicode="]" horiz-adv-x="357" 
d="M68 -168l94 17q10 0 15 8.5t5 22.5v756q0 14 -5 22.5t-15 8.5l-94 17l4 25l180 -13v-876l-180 -13z" />
    <glyph glyph-name="underscore" unicode="_" horiz-adv-x="504" 
d="M0 -153v39h504v-39h-504z" />
    <glyph glyph-name="grave" unicode="`" horiz-adv-x="358" 
d="M124 591q-27 21 -27 42q0 14 7.5 22t19.5 8q14 0 24.5 -6.5t23.5 -24.5l89 -129l-12 -10z" />
    <glyph glyph-name="a" unicode="a" horiz-adv-x="480" 
d="M79.5 15q-34.5 27 -34.5 88q0 49 24 77t57 39.5t84 22.5l90 15v83q0 91 -90 91q-34 0 -61.5 -17t-27.5 -39q0 -17 18 -24q18 -6 27.5 -14.5t9.5 -23.5q0 -19 -12.5 -28.5t-31.5 -9.5q-22 0 -39 18t-17 48q0 34 19.5 60.5t51.5 39.5q36 13 64 13q69 0 113.5 -35.5
t44.5 -102.5v-237q0 -50 30 -50q23 0 34 27t11 70h18q0 -63 -18.5 -100.5t-59.5 -37.5q-40 0 -61.5 24.5t-23.5 68.5l-5 2q-15 -37 -49 -66t-74 -29q-57 0 -91.5 27zM252 54.5q26 31.5 48 92.5v91l-86 -18q-46 -10 -67 -38.5t-21 -81.5q0 -41 16.5 -59t43.5 -18
q40 0 66 31.5z" />
    <glyph glyph-name="b" unicode="b" horiz-adv-x="494" 
d="M205.5 14q-33.5 26 -53.5 69h-4l-40 -83h-17v646q0 12 -5 16.5t-17 4.5h-51v24h142v-320l4 -1q15 36 45.5 60t67.5 24q45 0 85 -30.5t62 -83.5q24 -58 24 -119q0 -64 -23 -118t-62 -84q-40 -31 -87 -31q-37 0 -70.5 26zM338 68.5q24 52.5 24 152.5t-24 153t-72 53
q-30 0 -55 -21.5t-35 -59.5q-11 -27 -13.5 -47t-2.5 -88v-35q0 -44 14.5 -80.5t38.5 -58.5q24 -21 53 -21q48 0 72 52.5z" />
    <glyph glyph-name="c" unicode="c" horiz-adv-x="427" 
d="M134 22q-43 34 -65 87.5t-22 111.5q0 66 25 119.5t68.5 83.5t96.5 30q43 0 76.5 -18.5t51 -48t17.5 -60.5q0 -29 -15 -46.5t-38 -17.5q-19 0 -32.5 12.5t-13.5 30.5q0 16 7.5 24.5t22.5 16.5q10 6 14.5 10t4.5 10q0 27 -30 45.5t-65 18.5q-59 0 -82.5 -50t-23.5 -160
t23 -159.5t82 -49.5q56 0 90 39.5t41 99.5h23q-5 -72 -47 -117.5t-106 -45.5q-60 0 -103 34z" />
    <glyph glyph-name="d" unicode="d" horiz-adv-x="502" 
d="M132.5 19q-39.5 31 -62.5 84q-23 52 -23 118q0 64 23.5 118t62.5 85q39 30 84 30q37 0 67 -24t46 -60l4 1v275q0 12 -5 16.5t-17 4.5h-69v24h161v-646q0 -12 4.5 -17t16.5 -5h49v-23h-140v72l-4 2q-18 -41 -47 -63.5t-66 -22.5q-45 0 -84.5 31zM285 39q24 23 37 60.5
t12 77.5v30v60q0 42 -14.5 79t-38.5 59q-23 22 -52 22q-48 0 -73 -53.5t-25 -152.5t25 -152t73 -53q32 0 56 23z" />
    <glyph glyph-name="e" unicode="e" horiz-adv-x="449" 
d="M101.5 50q-54.5 62 -54.5 169q0 62 24.5 116t67.5 87q43 32 96 32q57 0 96 -31t55 -82q18 -48 18 -117h-273q0 -101 29 -156.5t90 -55.5q48 0 86 35.5t48 103.5h23q-5 -72 -48.5 -117.5t-111.5 -45.5q-91 0 -145.5 62zM321 246q0 83 -22 134t-66 51q-48 0 -75 -52.5
t-27 -132.5h190z" />
    <glyph glyph-name="f" unicode="f" horiz-adv-x="312" 
d="M28 23h50q12 0 17 5.5t5 16.5v370h-72v27h72v67q0 64 20.5 107t56.5 63q32 19 70 19q44 0 72 -26t28 -73q0 -24 -12 -38.5t-32 -14.5q-19 0 -29.5 11t-10.5 30q0 9 4.5 19t12.5 16q15 7 15 22q0 16 -14 23.5t-36 7.5q-30 0 -53 -31t-23 -108v-94h92v-27h-92v-370
q0 -22 21 -22h71v-23h-233v23z" />
    <glyph glyph-name="g" unicode="g" horiz-adv-x="521" 
d="M106 -202.5q-59 28.5 -59 84.5q0 35 28 62t69 34v3q-87 18 -87 71q0 38 29 61.5t77 32.5v2q-44 19 -71 55.5t-27 91.5q0 48 24 84.5t65 56.5q39 18 84 18q37 0 76 -16.5t53 -33.5q8 24 27 37t40 13q33 0 54 -19.5t21 -50.5q0 -23 -11 -37.5t-30 -14.5q-16 0 -27 9t-11 26
q0 21 17 31q6 4 8 7t2 10q0 8 -7.5 12t-18.5 4q-17 0 -31.5 -14.5t-16.5 -32.5q27 -37 27 -89q0 -48 -22.5 -85t-61.5 -55q-40 -20 -88 -20q-60 0 -101 -16t-41 -48q0 -33 62 -33q9 0 42.5 1.5t120.5 1.5q64 0 104.5 -35t40.5 -97q0 -66 -57 -103t-152 -37q-92 0 -151 28.5z
M308.5 195q25.5 36 25.5 100t-25.5 100t-69.5 36q-45 0 -70.5 -36t-25.5 -100t25 -100t71 -36q44 0 69.5 36zM383.5 -182q49.5 27 49.5 83q0 32 -19.5 52.5t-61.5 21.5h-109q-66 0 -109 -22t-43 -69q0 -44 49 -68.5t118 -24.5q76 0 125.5 27z" />
    <glyph glyph-name="h" unicode="h" horiz-adv-x="527" 
d="M26 23h55q21 0 21 22v601q0 12 -5 16.5t-16 4.5h-55v24h147v-328l4 -1q45 92 127 92q67 0 98.5 -41t31.5 -108v-260q0 -12 4.5 -17t16.5 -5h41v-23h-194v23h41q12 0 17 5.5t5 16.5v279q0 46 -18.5 74.5t-56.5 28.5q-35 0 -61.5 -23.5t-41.5 -64.5q-14 -41 -14 -93v-201
q0 -12 4 -17t16 -5h41v-23h-208v23z" />
    <glyph glyph-name="i" unicode="i" horiz-adv-x="262" 
d="M93.5 577.5q-14.5 14.5 -14.5 35.5q0 22 14 35.5t35 13.5q23 0 36.5 -13t13.5 -36q0 -22 -13.5 -36t-36.5 -14q-20 0 -34.5 14.5zM38 23h41q21 0 21 22v353q0 11 -5 16t-16 5h-41v23h132v-397q0 -12 4.5 -17t15.5 -5h41v-23h-193v23z" />
    <glyph glyph-name="j" unicode="j" horiz-adv-x="299" 
d="M131 577.5q-15 14.5 -15 35.5q0 22 14.5 35.5t36.5 13.5q23 0 36.5 -13.5t13.5 -35.5q0 -21 -14 -35.5t-36 -14.5q-21 0 -36 14.5zM-12 -205.5q-29 25.5 -29 65.5q0 26 15 43.5t37 17.5q16 0 25.5 -9t9.5 -23q0 -10 -5 -18.5t-15 -17.5q-14 -13 -14 -30q0 -16 14 -23.5
t35 -7.5q16 0 30 8.5t25 22.5q22 32 22 108v467q0 11 -5 16t-17 5h-69v23h160v-484q0 -62 -21 -106t-56 -64q-35 -19 -71 -19q-42 0 -71 25.5z" />
    <glyph glyph-name="k" unicode="k" horiz-adv-x="500" 
d="M26 23h52q21 0 21 22v601q0 12 -5 16.5t-16 4.5h-52v24h142v-494l131 162q11 10 15 17t4 18q0 12 -9 18.5t-24 6.5h-26v23h198v-23h-31q-26 0 -46 -13t-47 -46l-75 -91l152 -215q12 -17 21.5 -24t23.5 -7h19v-23h-205v23h25q26 0 26 20q0 10 -2.5 16t-10.5 19l-96 135
l-43 -53v-115q0 -11 5 -16.5t17 -5.5h30v-23h-194v23z" />
    <glyph glyph-name="l" unicode="l" horiz-adv-x="261" 
d="M26 23h52q21 0 21 22v601q0 12 -5 16.5t-16 4.5h-52v24h142v-646q0 -12 4.5 -17t16.5 -5h50v-23h-213v23z" />
    <glyph glyph-name="m" unicode="m" horiz-adv-x="771" 
d="M38 23h41q21 0 21 22v353q0 11 -5 16t-16 5h-41v23h132v-77l4 -1q19 44 51 67t71 23q97 0 121 -105h5q12 41 47 73t78 32q67 0 98.5 -44.5t31.5 -114.5v-250q0 -22 21 -22h42v-23h-194v23h41q21 0 21 22v284q0 40 -19 69t-53 29q-30 0 -55 -22.5t-41 -63.5
q-17 -42 -17 -89v-207q0 -22 21 -22h41v-23h-193v23h41q11 0 15.5 5t4.5 17v283q0 42 -19 70.5t-53 28.5q-29 0 -54 -23t-41 -63t-16 -89v-207q0 -12 4.5 -17t15.5 -5h41v-23h-193v23z" />
    <glyph glyph-name="n" unicode="n" horiz-adv-x="525" 
d="M38 23h41q21 0 21 22v353q0 11 -5 16t-16 5h-41v23h132v-79l4 -1q43 92 127 92q67 0 98.5 -41t31.5 -108v-260q0 -22 21 -22h42v-23h-194v23h41q21 0 21 22v279q0 46 -18.5 74.5t-57.5 28.5q-33 0 -60 -23.5t-41 -64.5q-15 -40 -15 -93v-201q0 -12 4.5 -17t15.5 -5h41
v-23h-193v23z" />
    <glyph glyph-name="o" unicode="o" horiz-adv-x="481" 
d="M145 19.5q-44 31.5 -72 85.5q-26 52 -26 116t25 117t71 84q46 32 98 32q53 0 98.5 -31.5t69.5 -84.5q27 -57 27 -117q0 -63 -26 -116.5t-71 -84.5q-47 -32 -98 -32q-52 0 -96 31.5zM323 65q26 53 26 156q0 104 -26 157t-82 53q-57 0 -83.5 -53.5t-26.5 -156.5t26.5 -156
t83.5 -53q56 0 82 53z" />
    <glyph glyph-name="p" unicode="p" horiz-adv-x="503" 
d="M27 -200h51q11 0 16 5t5 17v576q0 11 -5 16t-16 5h-51v23h142v-71l4 -1q18 39 47 61.5t65 22.5q46 0 85 -30t62 -83q24 -54 24 -120q0 -64 -22.5 -118t-62.5 -84q-40 -31 -86 -31q-36 0 -67 24.5t-45 60.5h-4v-251q0 -12 4.5 -17t15.5 -5h51v-24h-213v24zM347 68.5
q24 52.5 24 152.5t-24 153t-72 53q-32 0 -56 -23.5t-37 -61t-13 -77.5q-1 -20 -0.5 -34.5t0.5 -23.5v-30q0 -44 14 -81.5t37 -58.5q24 -21 55 -21q48 0 72 52.5z" />
    <glyph glyph-name="q" unicode="q" horiz-adv-x="490" 
d="M262 -200h50q12 0 17 5t5 17v251h-4q-16 -37 -46 -61t-67 -24q-45 0 -83.5 31t-62.5 84q-24 51 -24 118q0 64 23.5 118t62.5 85q37 30 84 30q38 0 71 -26t53 -69h4l41 83h18v-620q0 -12 4.5 -17t16.5 -5h50v-24h-213v24zM293 43q23 27 32 80.5t9 142.5q0 42 -14.5 79.5
t-38.5 59.5q-25 22 -52 22q-48 0 -73 -53.5t-25 -152.5t25 -152t73 -53q41 0 64 27z" />
    <glyph glyph-name="r" unicode="r" horiz-adv-x="400" 
d="M38 23h41q21 0 21 22v353q0 11 -5 16t-16 5h-41v23h132v-97l4 -1q20 51 52 80.5t70 29.5q37 0 59.5 -21.5t22.5 -58.5q0 -22 -15 -41.5t-37 -19.5q-19 0 -31.5 9.5t-12.5 26.5q0 20 20 34q10 7 13.5 12t3.5 12q0 9 -8.5 14.5t-23.5 5.5q-30 0 -58 -29t-43 -76
q-16 -45 -16 -97v-180q0 -12 4.5 -17t15.5 -5h41v-23h-193v23z" />
    <glyph glyph-name="s" unicode="s" horiz-adv-x="421" 
d="M61 180h17l36 -76q53 -92 135 -92q45 0 67.5 21.5t22.5 59.5q0 21 -17 39t-46 31l-111 44q-55 22 -84 53t-29 75q0 57 36.5 88t93.5 31q27 0 52 -9t43 -22q22 -16 32 -16q12 0 15 17l3 20h17v-147h-18l-13 34q-21 51 -56.5 75.5t-74.5 24.5q-36 0 -59 -18.5t-23 -50.5
q0 -28 21.5 -47t63.5 -32q12 -6 33 -13q18 -7 36.5 -16t31.5 -18q50 -18 73 -45.5t23 -76.5q0 -63 -35.5 -94.5t-98.5 -31.5q-31 0 -52.5 8.5t-48.5 27.5q-21 17 -32 17q-25 0 -33 -33l-3 -20h-18v192z" />
    <glyph glyph-name="t" unicode="t" horiz-adv-x="334" 
d="M125 20q-28 32 -28 84v311h-72v27q58 0 86.5 40t28.5 112v35h26v-187h120v-27h-120v-316q0 -68 51 -68q70 0 70 116h17q0 -76 -22 -117.5t-85 -41.5q-44 0 -72 32z" />
    <glyph glyph-name="u" unicode="u" horiz-adv-x="516" 
d="M122.5 29q-31.5 41 -31.5 108v261q0 11 -5 16t-16 5h-41v23h131v-324q0 -46 18.5 -74t57.5 -28q33 0 59.5 23.5t42.5 65.5q15 41 15 91v202q0 11 -5 16t-16 5h-41v23h132v-397q0 -12 4.5 -17t16.5 -5h40v-23h-131v80l-4 1q-22 -46 -55 -69.5t-73 -23.5q-67 0 -98.5 41z
" />
    <glyph glyph-name="v" unicode="v" horiz-adv-x="516" 
d="M96 371q-10 26 -20.5 37t-29.5 11h-29v23h210v-23h-27q-13 0 -22.5 -6.5t-9.5 -16.5q0 -17 6 -32l109 -263l79 231q11 33 11 49q0 17 -9.5 27.5t-24.5 10.5h-25v23h177v-23h-22q-22 0 -40 -14.5t-28 -42.5l-127 -374h-18z" />
    <glyph glyph-name="w" unicode="w" horiz-adv-x="753" 
d="M99 362q-15 34 -25.5 45.5t-33.5 11.5h-23v23h210v-23h-31q-13 0 -20.5 -7.5t-7.5 -19.5q0 -13 6 -28l109 -263l73 246l-13 45q-6 14 -13 20.5t-20 6.5h-29v23h210v-23h-39q-14 0 -21.5 -7.5t-7.5 -21.5q0 -10 8 -31l90 -257l78 229q12 36 12 50q0 38 -35 38h-23v23h176
v-23h-22q-21 0 -39.5 -14.5t-27.5 -42.5l-132 -374h-16l-117 319l-101 -319h-17z" />
    <glyph glyph-name="x" unicode="x" horiz-adv-x="496" 
d="M30 23h25q22 0 38 13t34 41l87 132l-118 189q-9 13 -16 17t-22 4h-24v23h192v-23h-23q-20 0 -20 -19q0 -13 6 -21l66 -107l65 94q9 11 9 31q0 10 -7 16t-17 6h-23v23h169v-23h-23q-20 0 -36.5 -10.5t-31.5 -32.5l-88 -129l123 -199q10 -15 19 -20t29 -5h22v-23h-202v23
h29q22 0 22 17q0 8 -7 20l-77 124l-66 -98q-14 -20 -14 -34q0 -29 24 -29h17v-23h-161v23z" />
    <glyph glyph-name="y" unicode="y" horiz-adv-x="514" 
d="M65 -205.5q-25 25.5 -25 59.5q0 24 14 40t33 16q22 0 33.5 -14.5t11.5 -36.5q0 -11 -8 -25q-6 -12 -6 -20q0 -14 20 -14q27 0 48 21.5t31 55.5l25 84l-138 401q-11 33 -22 45t-34 12h-33v23h220v-23h-31q-12 0 -21 -6.5t-9 -16.5q0 -21 5 -32l100 -298l82 266
q10 38 10 49q0 17 -9.5 27.5t-24.5 10.5h-24v23h177v-23h-22q-23 0 -41 -14.5t-27 -41.5l-157 -498q-12 -39 -42.5 -67.5t-72.5 -28.5q-38 0 -63 25.5z" />
    <glyph glyph-name="z" unicode="z" horiz-adv-x="434" 
d="M47 25l252 394h-118q-37 0 -58.5 -17t-30.5 -38t-18 -54q-8 -28 -8 -38h-19l6 170h325v-31l-252 -388h125q60 0 84 49q13 26 21.5 58t8.5 41h18l-4 -171h-332v25z" />
    <glyph glyph-name="braceleft" unicode="{" horiz-adv-x="383" 
d="M295 -190q-144 48 -144 163q0 22 4.5 45.5t13.5 56.5q17 64 17 95q0 47 -24 63.5t-79 16.5v18q39 0 60.5 5.5t32 21.5t10.5 48q0 31 -17 97q-18 72 -18 105q0 115 144 163l12 -23q-54 -19 -76.5 -37.5t-22.5 -52.5q0 -23 4.5 -45t13.5 -55t13.5 -55.5t4.5 -45.5
q0 -106 -91 -134v-2q41 -13 66 -47.5t25 -92.5q0 -23 -4.5 -45t-13.5 -52t-13.5 -52t-4.5 -45q0 -35 22.5 -53.5t76.5 -38.5z" />
    <glyph glyph-name="bar" unicode="|" horiz-adv-x="268" 
d="M113 -192v900h42v-900h-42z" />
    <glyph glyph-name="braceright" unicode="}" horiz-adv-x="383" 
d="M76 -168q54 19 76.5 38t22.5 54q0 36 -17 100q-1 6 -6.5 27.5t-8 39.5t-2.5 33q0 106 91 134v2q-91 28 -91 134q0 38 17 100q9 37 13 58t4 43q0 34 -22.5 52.5t-76.5 37.5l12 23q145 -48 145 -163q0 -21 -4.5 -44.5t-13.5 -59.5q-17 -66 -17 -98t11.5 -48.5t33 -21.5
t58.5 -5v-18q-56 0 -79.5 -14t-23.5 -60q0 -32 17 -98q18 -72 18 -105q0 -115 -145 -163z" />
    <glyph glyph-name="asciitilde" unicode="~" horiz-adv-x="640" 
d="M109 158q-30 14 -46 36.5t-16 50.5q0 41 29.5 68.5t80.5 27.5q38 0 83 -14.5t119 -47.5q68 -30 102 -42t61 -12q16 0 27.5 13t11.5 33q0 19 -10 32t-31 25l12 20q30 -14 46 -36.5t16 -50.5q0 -40 -30 -68t-81 -28q-39 0 -85.5 15t-116.5 47q-62 29 -99 41.5t-64 12.5
q-16 0 -27 -12t-11 -32t10 -33.5t30 -25.5z" />
    <glyph glyph-name="exclamdown" unicode="&#xa1;" horiz-adv-x="263" 
d="M88.5 351q-16.5 17 -16.5 43t16.5 42.5t42.5 16.5t43 -16.5t17 -42.5t-17 -43t-43 -17t-42.5 17zM87.5 -212q-16.5 19 -16.5 50q0 55 16 144q14 74 18 115l15 194h23l15 -194q3 -38 17 -115q16 -89 16 -144q0 -31 -16.5 -50t-43.5 -19t-43.5 19z" />
    <glyph glyph-name="cent" unicode="&#xa2;" horiz-adv-x="557" 
d="M278 -11q-80 9 -126 73t-46 159q0 58 22 110t61 85t89 37v106h31v-106q57 -4 94.5 -40t37.5 -86q0 -29 -15 -46.5t-38 -17.5q-19 0 -32.5 12.5t-13.5 30.5q0 17 10 29t23 15q16 4 16 17q0 25 -25.5 43t-56.5 20v-418q52 3 81 41.5t36 97.5h23q-4 -66 -40.5 -113
t-99.5 -50v-104h-31v105zM278 429q-43 -11 -65.5 -70t-22.5 -138q0 -80 21.5 -136.5t66.5 -69.5v414z" />
    <glyph glyph-name="sterling" unicode="&#xa3;" horiz-adv-x="687" 
d="M370 1.5q-42 18.5 -99 53.5q-24 -27 -55.5 -47t-58.5 -20q-41 0 -68 20t-27 56q0 33 28 55.5t61 22.5q48 0 108 -29q6 24 7.5 42.5t1.5 55.5q0 61 -6 131q-53 9 -64 9q-24 0 -38 -4.5t-37 -16.5l-13 21q16 14 34 20.5t46 6.5q20 0 70 -10q-1 5 -1 19v30q0 69 27.5 129
t75.5 96.5t107 36.5q60 0 99 -34t39 -85q0 -34 -14.5 -53.5t-42.5 -19.5q-21 0 -35 13t-14 34q0 16 6.5 24t19.5 16q10 7 15.5 13t5.5 17q0 21 -20 35.5t-59 14.5q-57 0 -90.5 -48.5t-33.5 -118.5l1 -134q36 -8 59 -8q24 0 39 5t35 17l13 -22q-28 -27 -80 -27q-15 0 -66 9
l-1 -63q0 -107 -45 -172q34 -22 85 -33.5t99 -11.5q42 0 74.5 35t42.5 81l18 -7q-33 -173 -174 -173q-33 0 -75 18.5zM204.5 30.5q24.5 18.5 38.5 46.5q-31 22 -52 32t-45 10t-40.5 -16t-16.5 -39q0 -52 68 -52q23 0 47.5 18.5z" />
    <glyph glyph-name="currency" unicode="&#xa4;" horiz-adv-x="555" 
d="M46 132l65 65q-47 57 -47 135q0 37 12.5 72t35.5 64l-66 66l31 30l65 -65q28 23 62.5 35.5t72.5 12.5q77 0 136 -48l65 65l30 -30l-66 -66q23 -29 36 -64t13 -72q0 -76 -48 -135l65 -65l-30 -30l-65 65q-59 -48 -136 -48q-38 0 -72.5 12.5t-62.5 35.5l-65 -65zM367 179.5
q40 22.5 62.5 62.5t22.5 90t-22.5 90t-62.5 63.5t-90 23.5t-90 -24t-62 -64.5t-22 -88.5q0 -50 23.5 -90t63 -62.5t87.5 -22.5q50 0 90 22.5z" />
    <glyph glyph-name="yen" unicode="&#xa5;" horiz-adv-x="565" 
d="M133 31h72q27 0 27 27v130h-136v31h136v70h-136v31h130l-134 275q-11 20 -19.5 28.5t-23.5 8.5h-34v31h220v-31h-32q-25 0 -25 -16q0 -9 7 -24l118 -240l105 193q20 35 20 53q0 14 -8 24t-25 10h-41v31h194v-31h-21q-20 0 -38 -18.5t-38 -53.5l-134 -240h135v-31h-136
v-70h136v-31h-136v-130q0 -27 27 -27h73v-31h-283v31z" />
    <glyph glyph-name="brokenbar" unicode="&#xa6;" horiz-adv-x="268" 
d="M113 359v349h42v-349h-42zM113 -163v349h42v-349h-42z" />
    <glyph glyph-name="section" unicode="&#xa7;" horiz-adv-x="596" 
d="M192.5 -167q-26.5 13 -43 36t-16.5 50q0 24 14.5 38t37.5 14q19 0 32.5 -12.5t13.5 -28.5q0 -15 -4.5 -23.5t-17.5 -17.5q-7 -2 -9.5 -6t-2.5 -12q0 -12 14.5 -20t36.5 -8q35 0 60.5 21t25.5 55q0 37 -14.5 65t-48.5 58l-125 104q-33 30 -48 60t-15 72q0 74 107 143
q-58 52 -58 124q0 39 19.5 69.5t52 47.5t70.5 17q45 0 80 -29t35 -68q0 -25 -14.5 -39.5t-36.5 -14.5q-20 0 -34 12.5t-14 30.5q0 14 5 21.5t20 16.5q10 6 10 18q0 14 -13.5 21.5t-37.5 7.5q-36 0 -61 -20.5t-25 -55.5q0 -39 14 -63.5t51 -57.5l124 -109q36 -29 50 -57.5
t14 -73.5q0 -40 -28 -74.5t-80 -67.5q26 -27 41.5 -60t15.5 -67q0 -59 -41.5 -94.5t-101.5 -35.5q-28 0 -54.5 13zM377 135q27 26 27 45q0 30 -10 52t-33 41l-133 117q-7 2 -21 18q-88 -55 -88 -92q0 -52 41 -91l134 -114q14 -6 22 -20q34 18 61 44z" />
    <glyph glyph-name="dieresis" unicode="&#xa8;" horiz-adv-x="469" 
d="M111 546q-14 14 -14 32q0 19 14 33t33 14t32.5 -13.5t13.5 -33.5q0 -18 -13.5 -32t-32.5 -14t-33 14zM293.5 546q-14.5 14 -14.5 32q0 19 14.5 33t32.5 14q19 0 32.5 -13.5t13.5 -33.5q0 -18 -13.5 -32t-32.5 -14q-18 0 -32.5 14z" />
    <glyph glyph-name="copyright" unicode="&#xa9;" horiz-adv-x="795" 
d="M220.5 31.5q-80.5 48.5 -127.5 132.5q-46 82 -46 181t45.5 183t126.5 132t179 48t179 -48t126 -132q46 -86 46 -183q0 -98 -46 -180.5t-127 -132.5q-79 -49 -178 -49q-97 0 -177.5 48.5zM561.5 55q74.5 45 117.5 123t43 167q0 91 -42.5 168.5t-117.5 121.5
q-78 47 -164 47q-88 0 -162.5 -45.5t-118.5 -123.5q-43 -73 -43 -168q0 -90 43 -167t118 -123q75 -45 163 -45q89 0 163.5 45zM305.5 137.5q-44.5 30.5 -68.5 81t-24 109.5q0 70 23 125t67.5 87t107.5 32q18 0 32 -6t33 -17q2 -1 13 -8t21 -7q9 0 15.5 10.5t7.5 21.5h16
v-158h-17q-3 33 -22 66t-45.5 54t-52.5 21q-56 0 -85 -55.5t-29 -165.5q0 -80 28.5 -139t82.5 -59q56 0 87.5 38.5t37.5 101.5h23q-4 -69 -43 -116t-105 -47q-59 0 -103.5 30.5z" />
    <glyph glyph-name="ordfeminine" unicode="&#xaa;" horiz-adv-x="359" 
d="M71.5 415q-16.5 14 -16.5 43q0 54 94 95l47 22l1 36q0 26 -14 38.5t-36 12.5q-21 0 -37 -9t-16 -22q0 -6 1.5 -8.5t7.5 -2.5q9 0 15 -7t6 -16q0 -12 -7.5 -18.5t-18.5 -6.5q-16 0 -26.5 9.5t-10.5 26.5q0 31 26 51t59 20q43 0 70 -20.5t27 -61.5v-137q0 -36 22 -36
q16 0 21.5 14.5t5.5 43.5h13q0 -81 -50 -81q-25 0 -40 13t-17 34l-2 1q-14 -20 -32.5 -34t-40.5 -14q-35 0 -51.5 14zM174 437.5q13 9.5 23 29.5l-1 89l-37 -19q-50 -25 -50 -73q0 -17 10 -26.5t22 -9.5q20 0 33 9.5zM63 352v22h233v-22h-233z" />
    <glyph glyph-name="logicalnot" unicode="&#xac;" horiz-adv-x="559" 
d="M471 155v161h-426v39h469v-200h-43z" />
    <glyph glyph-name="registered" unicode="&#xae;" horiz-adv-x="795" 
d="M220.5 31.5q-80.5 48.5 -127.5 132.5q-46 82 -46 181t45.5 183t126.5 132t179 48t179 -48t126 -132q46 -86 46 -183q0 -98 -46 -180.5t-127 -132.5q-79 -49 -178 -49q-97 0 -177.5 48.5zM561.5 55q74.5 45 117.5 123t43 167q0 91 -42.5 168.5t-117.5 121.5
q-78 47 -164 47q-88 0 -162.5 -45.5t-118.5 -123.5q-43 -73 -43 -168q0 -90 43 -167t118 -123q75 -45 163 -45q89 0 163.5 45zM490 142.5q-19 28.5 -21 83.5q-6 66 -19.5 93.5t-51.5 27.5h-72v-176q0 -12 5 -17t16 -5h43v-23h-196v23h41q11 0 16.5 5t5.5 17v353q0 21 -22 21
h-41v23h221q63 0 102.5 -28t39.5 -78q0 -45 -33.5 -72t-75.5 -33v-4q44 -11 65 -44.5t29 -89.5q3 -38 10.5 -55.5t24.5 -17.5q21 0 30.5 27t9.5 64h17q0 -53 -18.5 -88t-63.5 -35q-43 0 -62 28.5zM401 371q32 0 51 22.5t19 63.5q0 88 -71 88h-53q-11 0 -16 -5t-5 -16v-153
h75z" />
    <glyph glyph-name="macron" unicode="&#xaf;" horiz-adv-x="446" 
d="M97 555v38h252v-38h-252z" />
    <glyph glyph-name="degree" unicode="&#xb0;" horiz-adv-x="548" 
d="M208 433q-31 18 -49 49q-17 27 -17 65q0 36 17.5 67.5t48.5 47.5q34 17 66 17q36 0 66.5 -17t47.5 -48q18 -33 18 -67q0 -35 -17.5 -66t-48.5 -48q-30 -18 -66 -18q-35 0 -66 18zM346.5 474.5q28.5 28.5 28.5 72.5t-28.5 72.5t-72.5 28.5q-43 0 -72 -28.5t-29 -72.5
q0 -43 29 -72t72 -29q44 0 72.5 28.5z" />
    <glyph glyph-name="plusminus" unicode="&#xb1;" horiz-adv-x="912" 
d="M435 62v266h-388v39h388v264h42v-264h388v-39h-388v-266h-42zM47 -39v39h810v-39h-810z" />
    <glyph glyph-name="acute" unicode="&#xb4;" horiz-adv-x="358" 
d="M97 503l89 129q12 18 22.5 24.5t25.5 6.5q12 0 19.5 -8t7.5 -22q0 -21 -27 -42l-125 -98z" />
    <glyph glyph-name="paragraph" unicode="&#xb6;" horiz-adv-x="518" 
d="M223 375q-71 0 -117 42.5t-46 110.5q0 46 21.5 83t59 58.5t82.5 21.5h236v-33h-66v-809h-36v809h-98v-809h-36v526z" />
    <glyph glyph-name="periodcentered" unicode="&#xb7;" horiz-adv-x="263" 
d="M88 264q-17 17 -17 43t17.5 43t42.5 17q26 0 43 -17t17 -43t-17 -43t-43 -17t-43 17z" />
    <glyph glyph-name="cedilla" unicode="&#xb8;" horiz-adv-x="374" 
d="M121 -189q-24 17 -24 44q0 11 7 19t16 8q23 0 26 -31q7 -40 39 -40q27 0 42 12.5t15 34.5q0 47 -58 47h-39l15 95h22l-7 -50h25q34 0 55.5 -17.5t21.5 -50.5q0 -39 -24.5 -63.5t-74.5 -24.5q-33 0 -57 17z" />
    <glyph glyph-name="ordmasculine" unicode="&#xba;" horiz-adv-x="361" 
d="M120.5 419q-26.5 18 -41.5 50q-15 30 -15 70q0 38 15 70.5t42 51.5q29 18 58 18q31 0 57.5 -19t43.5 -51q17 -30 17 -70q0 -38 -15.5 -70t-42.5 -50q-28 -18 -60 -18t-58.5 18zM226.5 451q15.5 34 15.5 88q0 53 -15.5 88t-47.5 35q-31 0 -46.5 -35t-15.5 -88t15.5 -87.5
t46.5 -34.5q32 0 47.5 34zM64 352v22h233v-22h-233z" />
    <glyph glyph-name="questiondown" unicode="&#xbf;" horiz-adv-x="456" 
d="M276 414.5q17 -17.5 17 -43.5q0 -25 -17 -42.5t-43 -17.5t-43.5 17t-17.5 43t17.5 43.5t43.5 17.5t43 -17.5zM270.5 259.5q18.5 -11.5 31 -33t12.5 -48.5q0 -14 -12 -33l-17 7q5 12 5 25q0 29 -16 47t-41 18t-40.5 -12t-15.5 -35q0 -28 22.5 -57.5t65.5 -57.5
q44 -31 72 -54.5t49 -56.5t21 -74q0 -68 -53.5 -108t-136.5 -40q-37 0 -75 17t-63 47.5t-25 70.5q0 37 19.5 60.5t47.5 23.5q25 0 39 -13t14 -34q0 -17 -9.5 -27.5t-26.5 -10.5q-20 2 -23 2q-11 0 -14.5 -6.5t-3.5 -25.5q0 -18 16 -35.5t42 -28.5t55 -11q54 0 83 32.5
t29 86.5q0 34 -12.5 60.5t-40.5 62.5q-62 59 -86 85.5t-31.5 44t-7.5 44.5q0 37 25 58t64 21q19 0 37.5 -11.5z" />
    <glyph glyph-name="Agrave" unicode="&#xc0;" 
d="M271 837q-27 21 -27 43q0 14 7.5 22t20.5 8t23.5 -7t22.5 -24l89 -129l-11 -11zM44 31h37q57 0 82 71l208 589h25l210 -616q10 -24 23.5 -34t34.5 -10h56v-31h-300v31h63q14 0 24 7.5t10 17.5q0 13 -4 21l-46 129h-227l-23 -65q-13 -38 -13 -57q0 -53 47 -53h59v-31h-266
v31zM251 237h206l-101 297z" />
    <glyph glyph-name="Aacute" unicode="&#xc1;" 
d="M359 750l90 129q12 17 23 24t25 7q11 0 19 -8.5t8 -21.5q0 -21 -28 -43l-125 -98zM44 31h37q57 0 82 71l208 589h25l210 -616q10 -24 23.5 -34t34.5 -10h56v-31h-300v31h63q14 0 24 7.5t10 17.5q0 13 -4 21l-46 129h-227l-23 -65q-13 -38 -13 -57q0 -53 47 -53h59v-31
h-266v31zM251 237h206l-101 297z" />
    <glyph glyph-name="Acircumflex" unicode="&#xc2;" 
d="M231 756q88 50 134 136h39q46 -87 132 -136l-9 -17q-25 8 -69.5 37t-73.5 56q-32 -28 -75.5 -56.5t-68.5 -36.5zM44 31h37q57 0 82 71l208 589h25l210 -616q10 -24 23.5 -34t34.5 -10h56v-31h-300v31h63q14 0 24 7.5t10 17.5q0 13 -4 21l-46 129h-227l-23 -65
q-13 -38 -13 -57q0 -53 47 -53h59v-31h-266v31zM251 237h206l-101 297z" />
    <glyph glyph-name="Atilde" unicode="&#xc3;" 
d="M233 786q3 38 25 63.5t57 25.5q15 0 39.5 -6.5t48.5 -14.5q53 -17 70 -17t28 11t15 31l19 -2q-2 -39 -24.5 -64t-58.5 -25q-24 0 -88 20q-53 17 -70 17q-35 0 -43 -40zM44 31h37q57 0 82 71l208 589h25l210 -616q10 -24 23.5 -34t34.5 -10h56v-31h-300v31h63q14 0 24 7.5
t10 17.5q0 13 -4 21l-46 129h-227l-23 -65q-13 -38 -13 -57q0 -53 47 -53h59v-31h-266v31zM251 237h206l-101 297z" />
    <glyph glyph-name="Adieresis" unicode="&#xc4;" 
d="M248.5 788.5q-14.5 14.5 -14.5 36.5t14.5 36t36.5 14t36.5 -14t14.5 -36t-14.5 -36.5t-36.5 -14.5t-36.5 14.5zM447.5 788.5q-14.5 14.5 -14.5 36.5t14.5 36t35.5 14q22 0 36 -14t14 -36t-14 -36.5t-36 -14.5q-21 0 -35.5 14.5zM44 31h37q57 0 82 71l208 589h25l210 -616
q10 -24 23.5 -34t34.5 -10h56v-31h-300v31h63q14 0 24 7.5t10 17.5q0 13 -4 21l-46 129h-227l-23 -65q-13 -38 -13 -57q0 -53 47 -53h59v-31h-266v31zM251 237h206l-101 297z" />
    <glyph glyph-name="Aring" unicode="&#xc5;" 
d="M317 757.5q-28 28.5 -28 67.5q0 40 28 68t67 28t67 -28t28 -68q0 -39 -28 -67.5t-67 -28.5t-67 28.5zM434.5 774q21.5 21 21.5 51t-21.5 51t-50.5 21q-30 0 -51.5 -21t-21.5 -51t21.5 -51t51.5 -21q29 0 50.5 21zM44 31h37q57 0 82 71l208 589h25l210 -616
q10 -24 23.5 -34t34.5 -10h56v-31h-300v31h63q14 0 24 7.5t10 17.5q0 13 -4 21l-46 129h-227l-23 -65q-13 -38 -13 -57q0 -53 47 -53h59v-31h-266v31zM251 237h206l-101 297z" />
    <glyph glyph-name="AE" unicode="&#xc6;" horiz-adv-x="971" 
d="M25 31h31q35 0 58.5 18t41.5 53l256 489q17 31 17 48q0 11 -5.5 16t-18.5 5h-40v31h541l4 -243h-24q0 55 -17.5 103.5t-52.5 78.5t-86 30h-155q-13 0 -19 -6.5t-6 -20.5v-261h75q46 0 69.5 47.5t23.5 112.5h25v-349h-25q0 65 -23.5 111.5t-69.5 46.5h-75v-284
q0 -26 25 -26h156q54 0 86 28.5t48.5 78.5t27.5 130h25l-12 -268h-536v31h65q13 0 19.5 7t6.5 19v150h-210l-34 -67q-18 -33 -18 -58t9 -38t34 -13h45v-31h-262v31zM461 237v364l-192 -364h192z" />
    <glyph glyph-name="Ccedilla" unicode="&#xc7;" horiz-adv-x="646" 
d="M288 -212.5q-28 18.5 -28 49.5q0 12 7.5 20.5t18.5 8.5q26 0 32 -34q3 -18 16.5 -29t33.5 -11q29 0 44 13t15 36q0 50 -66 50h-48l17 93q-87 8 -146 65t-87.5 138t-28.5 164q0 102 33.5 183t95 127.5t141.5 46.5q36 0 71.5 -18.5t75.5 -46.5q22 -17 27 -17q8 0 11 4t7 16
l18 54h24l5 -300h-28q-30 127 -85.5 202t-123.5 75q-91 0 -130.5 -81t-39.5 -245q0 -170 42 -253.5t143 -83.5q89 0 140 66t58 171h35q-6 -120 -66 -194t-167 -74l-7 -38h31q40 0 65 -20.5t25 -57.5q0 -44 -28 -71t-86 -27q-39 0 -67 18.5z" />
    <glyph glyph-name="Egrave" unicode="&#xc8;" horiz-adv-x="668" 
d="M244 837q-27 21 -27 43q0 13 8 21.5t19 8.5q14 0 24.5 -7t23.5 -24l90 -129l-13 -11zM60 31h71q12 0 18.5 7t6.5 19v576q0 14 -6 20.5t-19 6.5h-71v31h541l4 -243h-24q0 28 -10 72.5t-32 77.5q-38 62 -113 62h-154q-28 0 -28 -27v-261h76q46 0 69.5 47.5t23.5 112.5h25
v-349h-25q0 65 -23.5 111.5t-69.5 46.5h-76v-284q0 -26 28 -26h155q73 0 111 54.5t45 140.5q3 20 4 29.5t2 12.5h24l-12 -268h-541v31z" />
    <glyph glyph-name="Eacute" unicode="&#xc9;" horiz-adv-x="668" 
d="M334 750l88 129q12 17 22.5 24t24.5 7q13 0 20.5 -8t7.5 -22q0 -21 -28 -43l-125 -98zM60 31h71q12 0 18.5 7t6.5 19v576q0 14 -6 20.5t-19 6.5h-71v31h541l4 -243h-24q0 55 -17 103.5t-52 78.5t-86 30h-154q-28 0 -28 -27v-261h76q46 0 69.5 47.5t23.5 112.5h25v-349
h-25q0 65 -23.5 111.5t-69.5 46.5h-76v-284q0 -26 28 -26h155q66 0 101 45.5t43 82t18 109.5h24l-12 -268h-541v31z" />
    <glyph glyph-name="Ecircumflex" unicode="&#xca;" horiz-adv-x="668" 
d="M204 756q87 48 134 136h38q46 -87 134 -136l-9 -17q-25 8 -69 37t-75 56q-29 -27 -74 -56t-70 -37zM60 31h71q12 0 18.5 7t6.5 19v576q0 14 -6 20.5t-19 6.5h-71v31h541l4 -243h-24q0 28 -10 72.5t-32 77.5q-38 62 -113 62h-154q-28 0 -28 -27v-261h76q46 0 69.5 47.5
t23.5 112.5h25v-349h-25q0 65 -23.5 111.5t-69.5 46.5h-76v-284q0 -26 28 -26h155q73 0 111 54.5t45 140.5q3 20 4 29.5t2 12.5h24l-12 -268h-541v31z" />
    <glyph glyph-name="Edieresis" unicode="&#xcb;" horiz-adv-x="668" 
d="M223 788.5q-14 14.5 -14 36.5t14 36t35 14q23 0 36.5 -13.5t13.5 -36.5q0 -22 -14 -36.5t-36 -14.5q-21 0 -35 14.5zM420 788.5q-15 14.5 -15 36.5t15 36t36 14q23 0 36.5 -13.5t13.5 -36.5q0 -22 -14 -36.5t-36 -14.5q-21 0 -36 14.5zM60 31h71q12 0 18.5 7t6.5 19v576
q0 14 -6 20.5t-19 6.5h-71v31h541l4 -243h-24q0 28 -10 72.5t-32 77.5q-38 62 -113 62h-154q-28 0 -28 -27v-261h76q46 0 69.5 47.5t23.5 112.5h25v-349h-25q0 65 -23.5 111.5t-69.5 46.5h-76v-284q0 -26 28 -26h155q73 0 111 54.5t45 140.5q3 20 4 29.5t2 12.5h24l-12 -268
h-541v31z" />
    <glyph glyph-name="Igrave" unicode="&#xcc;" horiz-adv-x="387" 
d="M94 837q-26 21 -26 43q0 13 7.5 21.5t18.5 8.5q14 0 25 -7t23 -24l90 -129l-14 -11zM66 31h70q12 0 19 7t7 19v576q0 14 -6 20.5t-20 6.5h-70v31h280v-31h-68q-15 0 -21.5 -6.5t-6.5 -20.5v-576q0 -26 28 -26h68v-31h-280v31z" />
    <glyph glyph-name="Iacute" unicode="&#xcd;" horiz-adv-x="389" 
d="M178 750l88 129q12 17 23 24t25 7q13 0 19.5 -8t6.5 -22q0 -22 -26 -43l-124 -98zM60 31h71q12 0 18.5 7t6.5 19v576q0 14 -6 20.5t-19 6.5h-71v31h281v-31h-69q-28 0 -28 -27v-576q0 -26 28 -26h69v-31h-281v31z" />
    <glyph glyph-name="Icircumflex" unicode="&#xce;" horiz-adv-x="391" 
d="M53 756q88 49 133 136h39q45 -86 133 -136l-9 -17q-25 8 -68.5 37t-73.5 56q-30 -27 -75 -56t-70 -37zM65 31h69q27 0 27 26v576q0 27 -27 27h-69v31h280v-31h-70q-14 0 -20 -6.5t-6 -20.5v-576q0 -12 6.5 -19t19.5 -7h70v-31h-280v31z" />
    <glyph glyph-name="Idieresis" unicode="&#xcf;" horiz-adv-x="390" 
d="M70.5 788.5q-14.5 14.5 -14.5 36.5t14.5 36t36.5 14q23 0 36.5 -13.5t13.5 -36.5q0 -22 -14 -36.5t-36 -14.5t-36.5 14.5zM268.5 789q-15.5 15 -15.5 36q0 22 15 36t37 14t36 -14t14 -36t-14 -36.5t-36 -14.5q-21 0 -36.5 15zM64 31h70q26 0 26 26v576q0 14 -6 20.5
t-20 6.5h-70v31h280v-31h-69q-14 0 -20 -6.5t-6 -20.5v-576q0 -26 26 -26h69v-31h-280v31z" />
    <glyph glyph-name="Eth" unicode="&#xd0;" horiz-adv-x="749" 
d="M61 31h70q12 0 19 7t7 19v288h-91v35h91v253q0 14 -6 20.5t-20 6.5h-70v31h355q91 0 157.5 -48t101 -126t34.5 -166q0 -100 -39.5 -180t-107 -125.5t-146.5 -45.5h-355v31zM412 31q72 0 115.5 49.5t61.5 122.5t18 149q0 137 -49.5 222.5t-145.5 85.5h-140
q-14 0 -20.5 -6.5t-6.5 -20.5v-253h112v-35h-112v-288q0 -26 27 -26h140z" />
    <glyph glyph-name="Ntilde" unicode="&#xd1;" horiz-adv-x="736" 
d="M248 786q3 38 25.5 63.5t58.5 25.5q25 0 87 -20q6 -2 31.5 -10t38.5 -8q36 0 42 42l21 -2q-4 -39 -25.5 -64t-55.5 -25q-47 0 -91 24q-24 6 -21 5q-9 2 -25 5t-24 3q-17 0 -28 -10.5t-14 -29.5zM195 586h-4v-477q0 -45 20 -61.5t76 -16.5v-31h-231v31q40 0 60.5 7
t28 23.5t7.5 47.5v525q-1 14 -6.5 20t-18.5 6h-71v31h183l337 -543v434q0 31 -8 47.5t-28 23.5t-59 7v31h231v-31q-57 0 -77 -17t-20 -61v-599h-38z" />
    <glyph glyph-name="Ograve" unicode="&#xd2;" horiz-adv-x="679" 
d="M237 837q-27 21 -27 43q0 14 7 22t20 8q14 0 25 -7t22 -24l89 -129l-12 -10zM204 33.5q-65 50.5 -101 136.5q-35 84 -35 175q0 93 36 176.5t100 135.5q63 51 145 51q80 0 144.5 -50.5t101.5 -135.5q36 -84 36 -177t-36.5 -176.5t-99.5 -134.5q-64 -51 -146 -51
q-80 0 -145 50.5zM485 98.5q43 84.5 43 246.5q0 164 -43 248t-136 84t-136 -84t-43 -248q0 -162 43 -246.5t136 -84.5t136 84.5z" />
    <glyph glyph-name="Oacute" unicode="&#xd3;" horiz-adv-x="679" 
d="M325 750l90 129q12 17 22.5 24t24.5 7q12 0 19.5 -8.5t7.5 -21.5q0 -22 -27 -43l-125 -97zM204 33.5q-65 50.5 -101 136.5q-35 84 -35 175q0 93 36 176.5t100 135.5q63 51 145 51q80 0 144.5 -50.5t101.5 -135.5q36 -84 36 -177t-36.5 -176.5t-99.5 -134.5
q-64 -51 -146 -51q-80 0 -145 50.5zM485 98.5q43 84.5 43 246.5q0 164 -43 248t-136 84t-136 -84t-43 -247q0 -162 43 -247t136 -85t136 84.5z" />
    <glyph glyph-name="Ocircumflex" unicode="&#xd4;" horiz-adv-x="679" 
d="M196 756q90 50 134 136h39q48 -89 133 -136l-9 -17q-25 8 -69 37t-75 56q-31 -28 -74.5 -56.5t-67.5 -36.5zM204 33.5q-65 50.5 -101 136.5q-35 84 -35 175q0 93 36 176.5t100 135.5q63 51 145 51q80 0 144.5 -50.5t101.5 -135.5q36 -84 36 -177t-36.5 -176.5
t-99.5 -134.5q-64 -51 -146 -51q-80 0 -145 50.5zM485 98.5q43 84.5 43 246.5q0 164 -43 248t-136 84t-136 -84t-43 -248q0 -162 43 -246.5t136 -84.5t136 84.5z" />
    <glyph glyph-name="Otilde" unicode="&#xd5;" horiz-adv-x="679" 
d="M198 786q3 38 25.5 63.5t57.5 25.5q26 0 88 -20q7 -2 32 -10t37 -8q35 0 43 42l21 -2q-4 -39 -26.5 -64t-58.5 -25q-25 0 -87 20q-49 17 -70 17q-35 0 -43 -40zM204 33.5q-65 50.5 -101 136.5q-35 84 -35 175q0 93 36 176.5t100 135.5q63 51 145 51q80 0 144.5 -50.5
t101.5 -135.5q36 -84 36 -177t-36.5 -176.5t-99.5 -134.5q-64 -51 -146 -51q-80 0 -145 50.5zM485 98.5q43 84.5 43 246.5q0 164 -43 248t-136 84t-136 -84t-43 -248q0 -162 43 -246.5t136 -84.5t136 84.5z" />
    <glyph glyph-name="Odieresis" unicode="&#xd6;" horiz-adv-x="679" 
d="M215 789q-15 15 -15 36q0 22 14.5 36t35.5 14q23 0 37 -14t14 -36t-14.5 -36.5t-36.5 -14.5q-20 0 -35 15zM412.5 788.5q-14.5 14.5 -14.5 36.5t14.5 36t35.5 14q23 0 37 -14t14 -36t-14.5 -36.5t-36.5 -14.5q-21 0 -35.5 14.5zM204 33.5q-65 50.5 -101 136.5
q-35 84 -35 175q0 93 36 176.5t100 135.5q63 51 145 51q80 0 144.5 -50.5t101.5 -135.5q36 -84 36 -177t-36.5 -176.5t-99.5 -134.5q-64 -51 -146 -51q-80 0 -145 50.5zM485 98.5q43 84.5 43 246.5q0 164 -43 248t-136 84t-136 -84t-43 -248q0 -162 43 -246.5t136 -84.5
t136 84.5z" />
    <glyph glyph-name="multiply" unicode="&#xd7;" horiz-adv-x="905" 
d="M179 -49l-31 31l275 274l-275 274l31 31l274 -275l273 275l30 -31l-274 -274l274 -274l-30 -31l-273 275z" />
    <glyph glyph-name="Oslash" unicode="&#xd8;" horiz-adv-x="679" 
d="M68 6l73 96q-35 50 -54 113.5t-19 129.5q0 93 36 176.5t100 135.5q63 51 145 51q104 0 185 -86l64 86l31 -23l-72 -95q35 -50 54.5 -114t19.5 -131q0 -93 -36.5 -176.5t-99.5 -134.5q-64 -51 -146 -51q-52 0 -99 22.5t-85 64.5l-66 -87zM496 572q-43 105 -147 105
q-94 0 -136.5 -84t-42.5 -249q0 -98 18 -178zM485 99q43 85 43 247q0 108 -18 181l-308 -408q44 -105 147 -105q93 0 136 85z" />
    <glyph glyph-name="Ugrave" unicode="&#xd9;" horiz-adv-x="763" 
d="M292 837q-27 21 -27 43q0 13 7.5 21.5t19.5 8.5q14 0 24.5 -7t23.5 -24l89 -129l-13 -11zM265 16.5q-58 33.5 -87 91.5q-26 53 -26 122v403q0 14 -6.5 20.5t-20.5 6.5h-70v31h283v-31h-72q-13 0 -19 -6.5t-6 -20.5v-429q0 -91 43.5 -140.5t122.5 -49.5q59 0 102.5 24
t66.5 66q24 41 24 88v389q0 45 -20.5 62t-75.5 17v31h230v-31q-55 0 -75 -17.5t-20 -61.5v-379q0 -62 -28 -111.5t-80 -78.5t-124 -29q-84 0 -142 33.5z" />
    <glyph glyph-name="Uacute" unicode="&#xda;" horiz-adv-x="763" 
d="M379 750l91 129q12 17 22.5 24t24.5 7q13 0 20 -8t7 -22q0 -22 -27 -43l-125 -98zM265 16.5q-58 33.5 -87 91.5q-26 53 -26 122v403q0 14 -6.5 20.5t-20.5 6.5h-70v31h283v-31h-72q-13 0 -19 -6.5t-6 -20.5v-429q0 -91 43.5 -140.5t122.5 -49.5q59 0 102.5 24t66.5 66
q24 41 24 88v389q0 45 -20.5 62t-75.5 17v31h230v-31q-55 0 -75 -17.5t-20 -61.5v-379q0 -62 -28 -111.5t-80 -78.5t-124 -29q-84 0 -142 33.5z" />
    <glyph glyph-name="Ucircumflex" unicode="&#xdb;" horiz-adv-x="763" 
d="M251 756q89 49 134 136h39q45 -86 133 -136l-9 -17q-26 8 -70.5 37t-72.5 56q-29 -27 -74 -56t-70 -37zM265 16.5q-58 33.5 -87 91.5q-26 53 -26 122v403q0 14 -6.5 20.5t-20.5 6.5h-70v31h283v-31h-72q-13 0 -19 -6.5t-6 -20.5v-429q0 -91 43.5 -140.5t122.5 -49.5
q59 0 102.5 24t66.5 66q24 41 24 88v389q0 45 -20.5 62t-75.5 17v31h230v-31q-55 0 -75 -17.5t-20 -61.5v-379q0 -62 -28 -111.5t-80 -78.5t-124 -29q-84 0 -142 33.5z" />
    <glyph glyph-name="Udieresis" unicode="&#xdc;" horiz-adv-x="763" 
d="M270 788.5q-15 14.5 -15 36.5t15 36t36 14q23 0 36.5 -13.5t13.5 -36.5q0 -22 -14 -36.5t-36 -14.5q-21 0 -36 14.5zM467.5 788.5q-14.5 14.5 -14.5 36.5t14.5 36t36.5 14q23 0 36.5 -13.5t13.5 -36.5q0 -22 -14 -36.5t-36 -14.5t-36.5 14.5zM265 16.5q-58 33.5 -87 91.5
q-26 53 -26 122v403q0 14 -6.5 20.5t-20.5 6.5h-70v31h283v-31h-72q-13 0 -19 -6.5t-6 -20.5v-429q0 -91 43.5 -140.5t122.5 -49.5q59 0 102.5 24t66.5 66q24 41 24 88v389q0 45 -20.5 62t-75.5 17v31h230v-31q-55 0 -75 -17.5t-20 -61.5v-379q0 -62 -28 -111.5t-80 -78.5
t-124 -29q-84 0 -142 33.5z" />
    <glyph glyph-name="Yacute" unicode="&#xdd;" horiz-adv-x="706" 
d="M357 750l90 129q12 17 23 24t25 7q11 0 18.5 -8.5t7.5 -21.5q0 -22 -27 -43l-125 -98zM218 31h93q27 0 27 26v251l-188 310q-16 25 -27.5 33.5t-29.5 8.5h-51v31h300v-31h-59q-14 0 -23.5 -7t-9.5 -18q0 -13 5 -21l152 -259l100 190q5 7 11 27.5t6 31.5q0 25 -13.5 40.5
t-39.5 15.5h-30v31h241v-31h-27q-30 0 -49.5 -17t-39.5 -54l-139 -263v-269q0 -12 6.5 -19t19.5 -7h93v-31h-328v31z" />
    <glyph glyph-name="Thorn" unicode="&#xde;" horiz-adv-x="660" 
d="M60 31h71q12 0 18.5 7t6.5 19v576q0 14 -6 20.5t-19 6.5h-71v31h297v-31h-85q-28 0 -28 -27v-65h140q68 0 121.5 -22.5t81.5 -63.5q30 -42 30 -94q0 -53 -29.5 -94.5t-82.5 -65.5q-52 -24 -121 -24h-140v-147q0 -26 28 -26h85v-31h-297v31zM397 235q52 0 84.5 44.5
t32.5 108.5t-32 106.5t-85 42.5h-125q-15 0 -21.5 -6t-6.5 -20v-276h153z" />
    <glyph glyph-name="germandbls" unicode="&#xdf;" horiz-adv-x="507" 
d="M225 14.5q-31 26.5 -31 66.5q0 28 14.5 43.5t36.5 15.5q21 0 31 -11t10 -30q0 -13 -6.5 -20.5t-18.5 -13.5q-6 -3 -10.5 -7.5t-4.5 -9.5q0 -17 16 -26.5t40 -9.5q43 0 58.5 44t15.5 117q0 104 -33 167.5t-93 63.5h-37v27h37q50 0 77 37.5t27 94.5q0 110 -81 110
q-50 0 -78 -46.5t-28 -114.5v-512h-142v23h51q22 0 22 22v450q0 57 23 103t64 72t92 26q69 0 109.5 -35t40.5 -93q0 -54 -41 -94.5t-98 -54.5v-4q75 -22 124 -84t49 -158q0 -81 -44.5 -133t-115.5 -52q-45 0 -76 26.5z" />
    <glyph glyph-name="agrave" unicode="&#xe0;" horiz-adv-x="480" 
d="M108 591q-27 21 -27 42q0 14 7.5 22t20.5 8q14 0 24.5 -7t22.5 -24l89 -129l-12 -10zM79.5 15q-34.5 27 -34.5 88q0 49 24 77t57 39.5t84 22.5l90 15v83q0 91 -90 91q-34 0 -61.5 -17t-27.5 -39q0 -17 18 -24q18 -6 27.5 -14.5t9.5 -23.5q0 -19 -12.5 -28.5t-31.5 -9.5
q-22 0 -39 18t-17 48q0 34 19.5 60.5t51.5 39.5q36 13 64 13q69 0 113.5 -35.5t44.5 -102.5v-237q0 -50 30 -50q23 0 34 27t11 70h18q0 -63 -18.5 -100.5t-59.5 -37.5q-40 0 -61.5 24.5t-23.5 68.5l-5 2q-15 -37 -49 -66t-74 -29q-57 0 -91.5 27zM252 54.5q26 31.5 48 92.5
v91l-86 -18q-46 -10 -67 -38.5t-21 -81.5q0 -41 16.5 -59t43.5 -18q40 0 66 31.5z" />
    <glyph glyph-name="aacute" unicode="&#xe1;" horiz-adv-x="480" 
d="M197 503l89 129q12 18 23 24.5t25 6.5q12 0 19.5 -8t7.5 -22q0 -21 -26 -42l-125 -99zM79.5 15q-34.5 27 -34.5 88q0 49 24 77t57 39.5t84 22.5l90 15v83q0 91 -90 91q-34 0 -61.5 -17t-27.5 -39q0 -9 2.5 -12.5t7.5 -7.5q26 -9 35.5 -18.5t9.5 -23.5q0 -19 -12.5 -28.5
t-31.5 -9.5q-22 0 -39 18t-17 48q0 34 19.5 60.5t51.5 39.5q36 13 64 13q69 0 113.5 -35.5t44.5 -102.5v-237q0 -50 30 -50q23 0 34 27t11 70h18q0 -63 -18.5 -100.5t-59.5 -37.5q-40 0 -61.5 24.5t-23.5 68.5l-5 2q-15 -37 -49 -66t-74 -29q-57 0 -91.5 27zM252 54.5
q26 31.5 48 92.5v91l-86 -18q-46 -10 -67 -38.5t-21 -81.5q0 -41 16.5 -59t43.5 -18q40 0 66 31.5z" />
    <glyph glyph-name="acircumflex" unicode="&#xe2;" horiz-adv-x="480" 
d="M94 505q73 48 108 146h39q35 -98 107 -146l-8 -12q-68 35 -119 89q-52 -55 -117 -89zM79.5 15q-34.5 27 -34.5 88q0 49 24 77t57 39.5t84 22.5l90 15v83q0 91 -90 91q-34 0 -61.5 -17t-27.5 -39q0 -17 18 -24q18 -6 27.5 -14.5t9.5 -23.5q0 -19 -12.5 -28.5t-31.5 -9.5
q-22 0 -39 18t-17 48q0 34 19.5 60.5t51.5 39.5q36 13 64 13q69 0 113.5 -35.5t44.5 -102.5v-237q0 -50 30 -50q23 0 34 27t11 70h18q0 -63 -18.5 -100.5t-59.5 -37.5q-40 0 -61.5 24.5t-23.5 68.5l-5 2q-15 -37 -49 -66t-74 -29q-57 0 -91.5 27zM252 54.5q26 31.5 48 92.5
v91l-86 -18q-46 -10 -67 -38.5t-21 -81.5q0 -41 16.5 -59t43.5 -18q40 0 66 31.5z" />
    <glyph glyph-name="atilde" unicode="&#xe3;" horiz-adv-x="480" 
d="M84 541q6 37 27.5 61.5t55.5 24.5q16 0 31.5 -4.5t41.5 -15.5q19 -8 31.5 -11.5t26.5 -3.5q35 0 44 40l17 -3q-6 -37 -28 -61.5t-56 -24.5q-16 0 -31.5 4.5t-40.5 15.5q-21 8 -33 11.5t-25 3.5q-33 0 -45 -41zM79.5 15q-34.5 27 -34.5 88q0 49 24 77t57 39.5t84 22.5
l90 15v83q0 91 -90 91q-34 0 -61.5 -17t-27.5 -39q0 -9 2.5 -12.5t7.5 -7.5q8 -5 19 -9q13 -5 19.5 -11t6.5 -22q0 -19 -12.5 -28.5t-31.5 -9.5q-22 0 -39 18t-17 48q0 34 19.5 60.5t51.5 39.5q36 13 64 13q69 0 113.5 -35.5t44.5 -102.5v-237q0 -50 30 -50q23 0 34 27
t11 70h18q0 -63 -18.5 -100.5t-59.5 -37.5q-40 0 -61.5 24.5t-23.5 68.5l-5 2q-15 -37 -49 -66t-74 -29q-57 0 -91.5 27zM252 54.5q26 31.5 48 92.5v91l-86 -18q-46 -10 -67 -38.5t-21 -81.5q0 -41 16.5 -59t43.5 -18q40 0 66 31.5z" />
    <glyph glyph-name="adieresis" unicode="&#xe4;" horiz-adv-x="480" 
d="M97.5 546q-14.5 14 -14.5 32q0 19 14.5 33t32.5 14q20 0 33.5 -13.5t13.5 -33.5q0 -18 -14 -32t-33 -14q-18 0 -32.5 14zM280.5 546q-14.5 14 -14.5 32q0 19 14 33t32 14q20 0 33.5 -13.5t13.5 -33.5q0 -18 -13.5 -32t-33.5 -14q-17 0 -31.5 14zM79.5 15
q-34.5 27 -34.5 88q0 49 24 77t57 39.5t84 22.5l90 15v83q0 91 -90 91q-34 0 -61.5 -17t-27.5 -39q0 -17 18 -24q18 -6 27.5 -14.5t9.5 -23.5q0 -19 -12.5 -28.5t-31.5 -9.5q-22 0 -39 18t-17 48q0 34 19.5 60.5t51.5 39.5q36 13 64 13q69 0 113.5 -35.5t44.5 -102.5v-237
q0 -50 30 -50q23 0 34 27t11 70h18q0 -63 -18.5 -100.5t-59.5 -37.5q-40 0 -61.5 24.5t-23.5 68.5l-5 2q-15 -37 -49 -66t-74 -29q-57 0 -91.5 27zM252 54.5q26 31.5 48 92.5v91l-86 -18q-46 -10 -67 -38.5t-21 -81.5q0 -41 16.5 -59t43.5 -18q40 0 66 31.5z" />
    <glyph glyph-name="aring" unicode="&#xe5;" horiz-adv-x="480" 
d="M154.5 513.5q-28.5 28.5 -28.5 66.5q0 39 28 67t67 28q40 0 67.5 -27.5t27.5 -67.5q0 -39 -27.5 -67t-67.5 -28q-38 0 -66.5 28.5zM272 528.5q21 21.5 21 51.5t-21 51t-51 21t-51 -21t-21 -51t21 -51.5t51 -21.5t51 21.5zM79.5 15q-34.5 27 -34.5 88q0 49 24 77t57 39.5
t84 22.5l90 15v83q0 91 -90 91q-34 0 -61.5 -17t-27.5 -39q0 -17 18 -24q18 -6 27.5 -14.5t9.5 -23.5q0 -19 -12.5 -28.5t-31.5 -9.5q-22 0 -39 18t-17 48q0 34 19.5 60.5t51.5 39.5q36 13 64 13q69 0 113.5 -35.5t44.5 -102.5v-237q0 -50 30 -50q23 0 34 27t11 70h18
q0 -63 -18.5 -100.5t-59.5 -37.5q-40 0 -61.5 24.5t-23.5 68.5l-5 2q-15 -37 -49 -66t-74 -29q-57 0 -91.5 27zM252 54.5q26 31.5 48 92.5v91l-86 -18q-46 -10 -67 -38.5t-21 -81.5q0 -41 16.5 -59t43.5 -18q40 0 66 31.5z" />
    <glyph glyph-name="ae" unicode="&#xe6;" horiz-adv-x="682" 
d="M80 15q-35 27 -35 88q0 49 24 76.5t57 40t84 22.5l90 15v83q0 91 -91 91q-33 0 -60.5 -17t-27.5 -39q0 -9 2.5 -12.5t7.5 -7.5q26 -9 35.5 -18.5t9.5 -23.5q0 -19 -12.5 -28.5t-31.5 -9.5q-22 0 -39 18t-17 48q0 34 19.5 60.5t51.5 39.5t64 13q44 0 79.5 -14.5
t55.5 -43.5q48 58 122 58q57 0 96.5 -31t55.5 -82q8 -22 12 -55.5t4 -61.5h-267q0 -104 27 -158t87 -54q48 0 85.5 35.5t48.5 103.5h23q-6 -72 -49.5 -117.5t-111.5 -45.5q-61 0 -102.5 27.5t-63.5 74.5q-17 -37 -58.5 -69.5t-82.5 -32.5q-57 0 -92 27zM553 246
q0 83 -21.5 134t-65.5 51q-47 0 -72 -52t-25 -133h184zM258 48.5q31 25.5 48 63.5q-6 32 -6 123l-87 -16q-46 -9 -66.5 -37.5t-20.5 -81.5q0 -41 17 -59t43 -18q41 0 72 25.5z" />
    <glyph glyph-name="ccedilla" unicode="&#xe7;" horiz-adv-x="427" 
d="M179 -189q-24 17 -24 44q0 11 7 19t16 8q22 0 27 -31q4 -21 13 -30.5t25 -9.5q27 0 41.5 12t14.5 35q0 47 -56 47h-39l12 84q-55 7 -93.5 42t-57 86t-18.5 104q0 66 25 119.5t68.5 83.5t96.5 30q43 0 76.5 -18.5t51 -48t17.5 -60.5q0 -29 -15 -46.5t-38 -17.5
q-19 0 -32.5 12.5t-13.5 30.5q0 17 10 29t23 14q16 6 16 18q0 27 -30 45.5t-65 18.5q-59 0 -82.5 -50t-23.5 -160t23 -159.5t82 -49.5q56 0 90 39.5t41 99.5h23q-5 -72 -46 -117.5t-105 -45.5l-6 -38h25q34 0 56 -18t22 -50q0 -39 -24.5 -63.5t-74.5 -24.5q-34 0 -58 17z
" />
    <glyph glyph-name="egrave" unicode="&#xe8;" horiz-adv-x="449" 
d="M120 591q-27 20 -27 42q0 14 7.5 22t19.5 8q14 0 24.5 -6.5t23.5 -24.5l89 -129l-13 -10zM101.5 50q-54.5 62 -54.5 169q0 62 24.5 116t67.5 87q43 32 96 32q57 0 96.5 -31t55.5 -82q8 -23 12.5 -56.5t4.5 -60.5h-273q0 -101 29 -156.5t90 -55.5q48 0 86 35.5t48 103.5
h23q-5 -72 -48.5 -117.5t-111.5 -45.5q-91 0 -145.5 62zM321 246q0 83 -22 134t-66 51q-48 0 -75 -52.5t-27 -132.5h190z" />
    <glyph glyph-name="eacute" unicode="&#xe9;" horiz-adv-x="449" 
d="M209 503l89 129q12 17 23 24t25 7q12 0 19 -8t7 -22q0 -22 -26 -42l-126 -98zM101.5 50q-54.5 62 -54.5 169q0 62 24.5 116t67.5 87q43 32 96 32q57 0 96.5 -31t55.5 -82q8 -23 12.5 -56.5t4.5 -60.5h-273q0 -101 29 -156.5t90 -55.5q48 0 86 35.5t48 103.5h23
q-5 -72 -48.5 -117.5t-111.5 -45.5q-91 0 -145.5 62zM321 246q0 83 -22 134t-66 51q-48 0 -75 -52.5t-27 -132.5h190z" />
    <glyph glyph-name="ecircumflex" unicode="&#xea;" horiz-adv-x="449" 
d="M106 505q72 47 107 146h39q35 -98 108 -146l-9 -12q-67 35 -118 89q-52 -55 -118 -89zM101.5 50q-54.5 62 -54.5 169q0 62 24.5 116t67.5 87q43 32 96 32q57 0 96.5 -31t55.5 -82q8 -23 12.5 -56.5t4.5 -60.5h-273q0 -101 29 -156.5t90 -55.5q48 0 86 35.5t48 103.5h23
q-5 -72 -48.5 -117.5t-111.5 -45.5q-91 0 -145.5 62zM321 246q0 83 -22 134t-66 51q-48 0 -75 -52.5t-27 -132.5h190z" />
    <glyph glyph-name="edieresis" unicode="&#xeb;" horiz-adv-x="449" 
d="M109.5 546q-14.5 14 -14.5 32q0 19 14 33t34 14q19 0 32 -13.5t13 -33.5q0 -18 -13.5 -32t-31.5 -14q-19 0 -33.5 14zM291.5 546q-14.5 14 -14.5 32q0 19 14.5 33t32.5 14q20 0 33.5 -13.5t13.5 -33.5q0 -18 -14 -32t-33 -14q-18 0 -32.5 14zM101.5 50
q-54.5 62 -54.5 169q0 62 24.5 116t67.5 87q43 32 96 32q57 0 96.5 -31t55.5 -82q8 -23 12.5 -56.5t4.5 -60.5h-273q0 -101 29 -156.5t90 -55.5q48 0 86 35.5t48 103.5h23q-5 -72 -48.5 -117.5t-111.5 -45.5q-91 0 -145.5 62zM321 246q0 83 -22 134t-66 51q-48 0 -75 -52.5
t-27 -132.5h190z" />
    <glyph glyph-name="igrave" unicode="&#xec;" horiz-adv-x="270" 
d="M23 591q-28 22 -28 42q0 14 7.5 22t20.5 8q14 0 24.5 -7t22.5 -24l89 -129l-11 -10zM44 23h42q21 0 21 22v353q0 11 -5 16t-16 5h-42v23h132v-397q0 -22 21 -22h42v-23h-195v23z" />
    <glyph glyph-name="iacute" unicode="&#xed;" horiz-adv-x="268" 
d="M105 503l88 129q12 18 23 24.5t26 6.5q12 0 19 -8t7 -22q0 -23 -26 -42l-126 -98zM38 23h41q21 0 21 22v353q0 11 -5 16t-16 5h-41v23h132v-397q0 -12 4.5 -17t15.5 -5h41v-23h-193v23z" />
    <glyph glyph-name="icircumflex" unicode="&#xee;" horiz-adv-x="267" 
d="M4 505q74 49 108 146h38q37 -99 108 -146l-9 -12q-65 34 -117 89q-54 -55 -118 -89zM40 23h41q22 0 22 22v353q0 21 -22 21h-41v23h132v-397q0 -12 4.5 -17t16.5 -5h41v-23h-194v23z" />
    <glyph glyph-name="idieresis" unicode="&#xef;" horiz-adv-x="272" 
d="M24 546q-14 14 -14 32q0 19 13.5 33t31.5 14q20 0 33.5 -13.5t13.5 -33.5q0 -18 -14 -32t-33 -14q-17 0 -31 14zM186.5 546q-14.5 14 -14.5 32q0 19 14 33t32 14q20 0 34 -14t14 -33q0 -18 -14.5 -32t-33.5 -14q-17 0 -31.5 14zM48 23h40q12 0 16.5 5t4.5 17v353
q0 11 -4.5 16t-16.5 5h-40v23h130v-397q0 -11 5.5 -16.5t17.5 -5.5h40v-23h-193v23z" />
    <glyph glyph-name="eth" unicode="&#xf0;" horiz-adv-x="484" 
d="M145 19.5q-44 31.5 -72 85.5q-26 52 -26 116t25 117t71 84q47 32 98 32q30 0 61 -12l3 4q-18 37 -81 117l-106 -65l-13 22l100 64q-41 53 -100 107h93q32 -30 65 -72l105 66l14 -22l-102 -65l14 -17q18 -21 28.5 -37.5t14.5 -36.5q98 -132 98 -257q0 -79 -26 -139.5
t-70 -91.5q-48 -31 -98 -31q-52 0 -96 31.5zM323.5 65q26.5 53 26.5 156q0 210 -109 210q-57 0 -83.5 -53.5t-26.5 -156.5t26.5 -156t83.5 -53q56 0 82.5 53z" />
    <glyph glyph-name="ntilde" unicode="&#xf1;" horiz-adv-x="525" 
d="M131 541q6 37 28 61.5t55 24.5q17 0 32 -4.5t36 -13.5q20 -9 34 -13t29 -4q33 0 45 40l16 -3q-6 -37 -28 -61.5t-55 -24.5q-17 0 -31 4.5t-37 13.5q-38 17 -63 17q-33 0 -46 -41zM38 23h41q21 0 21 22v353q0 11 -5 16t-16 5h-41v23h132v-79l4 -1q43 92 127 92
q67 0 98.5 -41t31.5 -108v-260q0 -22 21 -22h42v-23h-194v23h41q21 0 21 22v279q0 46 -18.5 74.5t-57.5 28.5q-33 0 -60 -23.5t-41 -64.5q-15 -40 -15 -93v-201q0 -12 4.5 -17t15.5 -5h41v-23h-193v23z" />
    <glyph glyph-name="ograve" unicode="&#xf2;" horiz-adv-x="481" 
d="M128 591q-27 21 -27 42q0 14 7.5 22t19.5 8q13 0 24.5 -7t23.5 -24l89 -129l-13 -10zM145 19.5q-44 31.5 -72 85.5q-26 52 -26 116t25 117t71 84q46 32 98 32q53 0 98.5 -31.5t69.5 -84.5q27 -57 27 -117q0 -63 -26 -116.5t-71 -84.5q-47 -32 -98 -32q-52 0 -96 31.5z
M323 65q26 53 26 156q0 104 -26 157t-82 53q-57 0 -83.5 -53.5t-26.5 -156.5t26.5 -156t83.5 -53q56 0 82 53z" />
    <glyph glyph-name="oacute" unicode="&#xf3;" horiz-adv-x="481" 
d="M216 503l90 129q13 18 23.5 24.5t24.5 6.5q26 0 26 -30q0 -22 -26 -42l-126 -98zM145 19.5q-44 31.5 -72 85.5q-26 52 -26 116t25 117t71 84q46 32 98 32q53 0 98.5 -31.5t69.5 -84.5q27 -57 27 -117q0 -63 -26 -116.5t-71 -84.5q-47 -32 -98 -32q-52 0 -96 31.5zM323 65
q26 53 26 156q0 104 -26 157t-82 53q-57 0 -83.5 -53.5t-26.5 -156.5t26.5 -156t83.5 -53q56 0 82 53z" />
    <glyph glyph-name="ocircumflex" unicode="&#xf4;" horiz-adv-x="481" 
d="M113 505q73 48 108 146h39q35 -98 108 -146l-9 -12q-66 34 -118 89q-50 -54 -118 -89zM145 19.5q-44 31.5 -72 85.5q-26 52 -26 116t25 117t71 84q46 32 98 32q53 0 98.5 -31.5t69.5 -84.5q27 -57 27 -117q0 -63 -26 -116.5t-71 -84.5q-47 -32 -98 -32q-52 0 -96 31.5z
M323 65q26 53 26 156q0 104 -26 157t-82 53q-57 0 -83.5 -53.5t-26.5 -156.5t26.5 -156t83.5 -53q56 0 82 53z" />
    <glyph glyph-name="otilde" unicode="&#xf5;" horiz-adv-x="481" 
d="M104 541q6 37 27.5 61.5t54.5 24.5q17 0 33 -5t40 -15q33 -15 58 -15q33 0 45 40l16 -3q-6 -37 -28 -61.5t-55 -24.5q-17 0 -33 5t-40 15q-20 8 -32.5 11.5t-25.5 3.5q-33 0 -45 -41zM145 19.5q-44 31.5 -72 85.5q-26 52 -26 116t25 117t71 84q46 32 98 32
q53 0 98.5 -31.5t69.5 -84.5q27 -57 27 -117q0 -63 -26 -116.5t-71 -84.5q-47 -32 -98 -32q-52 0 -96 31.5zM323 65q26 53 26 156q0 104 -26 157t-82 53q-57 0 -83.5 -53.5t-26.5 -156.5t26.5 -156t83.5 -53q56 0 82 53z" />
    <glyph glyph-name="odieresis" unicode="&#xf6;" horiz-adv-x="481" 
d="M117 546q-14 14 -14 32q0 19 14 33t32 14q21 0 34 -13.5t13 -33.5q0 -19 -13.5 -32.5t-33.5 -13.5q-18 0 -32 14zM299 546q-14 14 -14 32q0 19 14 33t33 14t32.5 -13.5t13.5 -33.5q0 -18 -13.5 -32t-32.5 -14t-33 14zM145 19.5q-44 31.5 -72 85.5q-26 52 -26 116t25 117
t71 84q46 32 98 32q53 0 98.5 -31.5t69.5 -84.5q27 -57 27 -117q0 -63 -26 -116.5t-71 -84.5q-47 -32 -98 -32q-52 0 -96 31.5zM323 65q26 53 26 156q0 104 -26 157t-82 53q-57 0 -83.5 -53.5t-26.5 -156.5t26.5 -156t83.5 -53q56 0 82 53z" />
    <glyph glyph-name="oslash" unicode="&#xf8;" horiz-adv-x="481" 
d="M47 6l49 60q-23 32 -36 72t-13 83q0 64 25 117t71 84q46 32 98 32q35 0 68 -14.5t59 -41.5l44 56l24 -17l-50 -61q23 -32 36.5 -72.5t13.5 -82.5q0 -63 -26 -116.5t-71 -84.5q-47 -32 -98 -32q-36 0 -68.5 15t-59.5 42l-45 -57zM334 356q-29 75 -93 75q-57 0 -83.5 -53.5
t-26.5 -156.5q0 -53 10 -101zM323 65q26 53 26 156q0 58 -9 101l-192 -235q27 -75 93 -75q56 0 82 53z" />
    <glyph glyph-name="ugrave" unicode="&#xf9;" horiz-adv-x="516" 
d="M139 591q-28 21 -28 42q0 14 8 22t21 8t23.5 -7t22.5 -24l89 -129l-11 -10zM122.5 29q-31.5 41 -31.5 108v261q0 11 -5 16t-16 5h-41v23h131v-324q0 -46 18.5 -74t57.5 -28q33 0 59.5 23.5t42.5 65.5q15 41 15 91v202q0 11 -5 16t-16 5h-41v23h132v-397q0 -12 4.5 -17
t16.5 -5h40v-23h-131v80l-4 1q-22 -46 -55 -69.5t-73 -23.5q-67 0 -98.5 41z" />
    <glyph glyph-name="uacute" unicode="&#xfa;" horiz-adv-x="516" 
d="M227 503l90 129q13 18 23.5 24.5t24.5 6.5q12 0 19.5 -8t7.5 -22q0 -21 -27 -43l-125 -97zM122.5 29q-31.5 41 -31.5 108v261q0 11 -5 16t-16 5h-41v23h131v-324q0 -46 18.5 -74t57.5 -28q33 0 59.5 23.5t42.5 65.5q15 41 15 91v202q0 11 -5 16t-16 5h-41v23h132v-397
q0 -12 4.5 -17t16.5 -5h40v-23h-131v80l-4 1q-22 -46 -55 -69.5t-73 -23.5q-67 0 -98.5 41z" />
    <glyph glyph-name="ucircumflex" unicode="&#xfb;" horiz-adv-x="516" 
d="M125 505q71 47 108 146h38q34 -96 107 -146l-8 -12q-67 35 -118 89q-55 -57 -118 -89zM122.5 29q-31.5 41 -31.5 108v261q0 11 -5 16t-16 5h-41v23h131v-324q0 -46 18.5 -74t57.5 -28q33 0 59.5 23.5t42.5 65.5q15 41 15 91v202q0 11 -5 16t-16 5h-41v23h132v-397
q0 -12 4.5 -17t16.5 -5h40v-23h-131v80l-4 1q-22 -46 -55 -69.5t-73 -23.5q-67 0 -98.5 41z" />
    <glyph glyph-name="udieresis" unicode="&#xfc;" horiz-adv-x="516" 
d="M128.5 546q-14.5 14 -14.5 32q0 19 14 33t32 14q20 0 34 -14t14 -33q0 -18 -14.5 -32t-33.5 -14q-17 0 -31.5 14zM311 546q-14 14 -14 32q0 19 14 33t32 14q20 0 33.5 -13.5t13.5 -33.5q0 -18 -13.5 -32t-33.5 -14q-18 0 -32 14zM122.5 29q-31.5 41 -31.5 108v261
q0 11 -5 16t-16 5h-41v23h131v-324q0 -46 18.5 -74t57.5 -28q33 0 59.5 23.5t42.5 65.5q15 41 15 91v202q0 11 -5 16t-16 5h-41v23h132v-397q0 -12 4.5 -17t16.5 -5h40v-23h-131v80l-4 1q-22 -46 -55 -69.5t-73 -23.5q-67 0 -98.5 41z" />
    <glyph glyph-name="yacute" unicode="&#xfd;" horiz-adv-x="531" 
d="M259 503l90 129q12 17 22.5 24t24.5 7q26 0 26 -30q0 -21 -25 -42l-126 -98zM84 -207q-27 23 -27 51l1 9q-2 24 12 41t33 15q21 2 33.5 -12t13.5 -36q0 -12 -7 -26t-7 -21q0 -14 19 -14q28 0 48.5 21.5t30.5 55.5l25 84l-137 401q-12 33 -23 45t-34 12h-32v23h220v-23
h-32q-13 0 -22 -6.5t-9 -16.5q0 -17 6 -32l100 -298l82 266q9 34 9 49q0 17 -9.5 27.5t-24.5 10.5h-24v23h177v-23h-21q-23 0 -40.5 -14t-26.5 -42l-157 -498q-12 -39 -43 -67.5t-72 -28.5t-62 24z" />
    <glyph glyph-name="thorn" unicode="&#xfe;" horiz-adv-x="482" 
d="M23 -221l51 21q11 5 15 10.5t4 16.5v763q0 17 -14 17q-8 0 -17 -4l-29 -10l-10 24l113 46h27v-323h6q27 52 69.5 83t85.5 31q47 0 79.5 -29.5t32.5 -85.5q0 -65 -42 -135.5t-111 -127.5q-61 -51 -120 -76v-194l-130 -50zM163 26q62 31 102.5 70t54.5 100q32 58 32 128
q0 87 -61 87q-28 0 -58 -28t-50 -72q-20 -45 -20 -86v-199z" />
    <glyph glyph-name="ydieresis" unicode="&#xff;" horiz-adv-x="531" 
d="M160 546q-14 14 -14 32q0 19 14 33t33 14t32.5 -13.5t13.5 -33.5q0 -18 -13.5 -32t-32.5 -14t-33 14zM342 546q-14 14 -14 32q0 19 14 33t32 14q20 0 33.5 -13.5t13.5 -33.5q0 -18 -14 -32t-33 -14q-18 0 -32 14zM84 -207q-27 23 -27 51l1 9q-2 24 12 41t33 15
q21 2 33.5 -12t13.5 -36q0 -12 -7 -26t-7 -21q0 -14 19 -14q28 0 48.5 21.5t30.5 55.5l25 84l-137 401q-12 33 -23 45t-34 12h-32v23h220v-23h-32q-13 0 -22 -6.5t-9 -16.5q0 -17 6 -32l100 -298l82 266q9 34 9 49q0 17 -9.5 27.5t-24.5 10.5h-24v23h177v-23h-21
q-23 0 -40.5 -14t-26.5 -42l-157 -498q-12 -39 -43 -67.5t-72 -28.5t-62 24z" />
    <glyph glyph-name="OE" unicode="&#x152;" horiz-adv-x="1016" 
d="M204.5 33.5q-64.5 50.5 -100.5 136.5q-36 83 -36 175q0 94 36 177t100 135q65 51 145 51q18 0 53 -7q6 -1 36.5 -5.5t63.5 -4.5h448l3 -243h-25q0 55 -17 103.5t-52 78.5t-86 30h-154q-14 0 -20 -6.5t-6 -20.5v-261h75q45 0 68.5 47.5t23.5 112.5h26v-349h-26
q0 64 -23.5 111t-68.5 47h-75v-284q0 -26 26 -26h156q66 0 100.5 45.5t42 80.5t18.5 111h24l-11 -268h-446q-39 0 -105 -11q-40 -6 -49 -6q-80 0 -144.5 50.5zM462.5 57.5q40.5 43.5 40.5 118.5v338q0 163 -154 163q-93 0 -136 -84t-43 -247q0 -162 43 -247t136 -85
q73 0 113.5 43.5z" />
    <glyph glyph-name="oe" unicode="&#x153;" horiz-adv-x="747" 
d="M138.5 19q-43.5 31 -67.5 85q-24 51 -24 117q0 64 23.5 117t67.5 85q43 31 99 31q45 0 83 -22t65 -60h4q26 39 63 60.5t81 21.5q56 0 95.5 -31t55.5 -82q8 -22 12 -55t4 -62h-271q0 -212 118 -212q48 0 86 35.5t48 103.5h24q-7 -72 -50.5 -117.5t-110.5 -45.5
q-103 0 -156 77h-4q-29 -36 -67 -56.5t-80 -20.5q-55 0 -98.5 31zM316.5 72q27.5 60 27.5 149q0 90 -27 150t-80 60t-79.5 -59.5t-26.5 -150.5q0 -90 26.5 -149.5t79.5 -59.5q52 0 79.5 60zM618 246q0 83 -22 134t-66 51q-47 0 -74 -52.5t-27 -132.5h189z" />
    <glyph glyph-name="circumflex" unicode="&#x2c6;" horiz-adv-x="448" 
d="M97 505q71 47 108 146h37q38 -99 109 -146l-9 -12q-67 35 -118 89q-52 -55 -117 -89z" />
    <glyph glyph-name="ring" unicode="&#x2da;" horiz-adv-x="384" 
d="M125.5 513.5q-28.5 28.5 -28.5 66.5q0 39 28 67t67 28q40 0 67.5 -27.5t27.5 -67.5q0 -39 -28 -67t-67 -28q-38 0 -66.5 28.5zM244 528.5q21 21.5 21 51.5t-21 51t-52 21q-30 0 -51 -21t-21 -51t21 -51.5t51 -21.5q31 0 52 21.5z" />
    <glyph glyph-name="tilde" unicode="&#x2dc;" horiz-adv-x="469" 
d="M97 541q7 38 28.5 62t54.5 24q17 0 32 -4.5t36 -13.5q20 -9 34 -13t29 -4q33 0 46 40l15 -3q-6 -37 -27.5 -61.5t-55.5 -24.5q-17 0 -31.5 4.5t-35.5 13.5q-22 9 -35.5 13t-28.5 4q-33 0 -45 -41z" />
    <glyph glyph-name="uni10D0" unicode="&#x10d0;" horiz-adv-x="564" 
d="M156.5 12.5q-55.5 23.5 -87.5 65.5t-32 97q0 69 48.5 112t117.5 57l14 -28q-45 -20 -65.5 -50.5t-20.5 -87.5q0 -71 41 -116.5t107 -45.5t106.5 47.5t40.5 128.5q0 64 -12.5 103t-45.5 72.5t-103 78.5q-55 36 -83 63.5t-36.5 49t-8.5 47.5q0 22 12.5 44.5t34.5 37
t49 14.5q34 0 55.5 -18t21.5 -42q0 -17 -11 -28.5t-28 -11.5t-28 10.5t-11 23.5q0 14 7.5 22.5t20.5 9.5q-7 9 -25 9q-24 0 -43.5 -18.5t-19.5 -52.5q0 -27 13.5 -46.5t38 -36.5t76.5 -48q85 -51 133.5 -92t71 -85t22.5 -102q0 -62 -33 -109t-90 -72.5t-125 -25.5
q-67 0 -122.5 23.5z" />
    <glyph glyph-name="uni10D1" unicode="&#x10d1;" horiz-adv-x="550" 
d="M148.5 16q-54.5 27 -83 69t-28.5 86t19.5 78.5t62.5 68t122 80.5q11 7 16.5 20.5t12.5 39.5q2 7 8 21q1 3 5 13.5t4 18.5q0 25 -35 39l-40 17q-8 4 -15 4q-13 0 -30 -12q-13 -6 -42 -25l-21 27q58 28 64 65q3 12 3 20q0 10 -3 20q0 3 -1.5 10t-1.5 13l28 7q5 -31 12 -44
t31 -24l50 -23q54 -26 54 -67q0 -12 -4 -23q-5 -15 -21 -41q-10 -15 -14.5 -26t-4.5 -22q0 -21 19 -32q66 -40 106.5 -71.5t66 -69.5t25.5 -83q0 -44 -29 -86t-83.5 -68.5t-125.5 -26.5q-72 0 -126.5 27zM342.5 31.5q31.5 15.5 50.5 44t19 65.5v75q0 62 -42 101t-95 62
q-49 -19 -93 -60t-44 -103v-75q0 -37 19 -65.5t50.5 -44t67.5 -15.5t67.5 15.5z" />
    <glyph glyph-name="uni10D2" unicode="&#x10d2;" horiz-adv-x="593" 
d="M161.5 14q-58.5 26 -91.5 70t-33 94q0 60 30.5 103.5t68 68.5t96.5 57q61 33 90 52t47 46t18 65q0 47 -26.5 75.5t-65.5 28.5q-33 0 -55 -11.5t-39 -32.5q15 -7 25.5 -21t10.5 -33q0 -25 -17.5 -43t-42.5 -18t-42.5 18t-17.5 43q0 30 24.5 59t65.5 47.5t88 18.5
q43 0 80.5 -17.5t60 -48t22.5 -65.5q0 -44 -31 -77t-83 -68q77 -42 119 -71t68 -72t26 -105q0 -50 -35 -93.5t-95 -69.5t-133 -26q-74 0 -132.5 26zM371 32q37 16 60 47.5t23 73.5v58q0 50 -24 88.5t-50 59.5t-67 48q-52 -27 -85.5 -48t-63.5 -57.5t-30 -83.5v-61
q0 -44 23 -76t60 -48.5t77 -16.5t77 16z" />
    <glyph glyph-name="uni10D3" unicode="&#x10d3;" horiz-adv-x="852" 
d="M473 311q-52 28 -81 76t-29 106q0 68 39 119q-23 25 -55 43.5t-63 18.5q-64 0 -105.5 -47.5t-41.5 -127.5q0 -86 34 -137t81 -75t123 -48q6 -2 12.5 -4t13.5 -4q181 -59 216 -231h-118l-11 24q13 7 20.5 13.5t7.5 25.5q0 15 -7 36q-11 36 -38.5 61t-59.5 37t-57 12
q-44 0 -74 -11t-44 -27t-14 -29q3 1 7.5 3.5t9.5 2.5q14 0 22 -9t8 -24q0 -14 -10.5 -23.5t-26.5 -9.5q-17 0 -29 14t-12 34q0 32 30 61t80 38l-1 5q-74 13 -134 48.5t-94.5 88t-34.5 115.5q0 48 28.5 98t82.5 83.5t126 33.5q43 0 79.5 -15.5t72.5 -46.5q31 30 73 46t90 16
q61 0 113 -28t82.5 -76t30.5 -105q0 -58 -31 -106t-83 -75.5t-112 -27.5q-64 0 -116 28zM462 429q0 -52 36.5 -84.5t90.5 -32.5q32 0 61.5 15t47.5 41.5t18 59.5v119q0 38 -18 67t-47.5 45t-61.5 16q-55 0 -91 -35t-36 -92v-119z" />
    <glyph glyph-name="uni10D4" unicode="&#x10d4;" horiz-adv-x="540" 
d="M136 17q-53 28 -83 75t-30 103q0 43 22.5 82t61.5 67t87 37l13 -27q-48 -21 -66 -63.5t-18 -116.5q0 -67 35.5 -112.5t96.5 -45.5q70 0 107 53.5t37 128.5v296q0 82 -36.5 131.5t-104.5 49.5q-59 0 -94 -44q16 -7 27 -21t11 -34q0 -25 -17.5 -43t-42.5 -18t-42.5 18
t-17.5 43q0 29 24 58.5t65 48t87 18.5q121 0 181 -90.5t60 -245.5q0 -116 -28.5 -200.5t-83.5 -130t-132 -45.5q-66 0 -119 28z" />
    <glyph glyph-name="uni10D5" unicode="&#x10d5;" horiz-adv-x="564" 
d="M148.5 15q-56.5 26 -89 68t-32.5 88q0 57 43 99.5t106 58.5l14 -26q-34 -18 -48.5 -45.5t-14.5 -68.5v-40q0 -34 19 -64.5t53 -49.5t76 -19q43 0 77.5 20t54.5 54.5t20 74.5v81q0 54 -31.5 93t-81.5 42q-19 -2 -28 -8.5t-9 -21.5h-22v90h22q0 -27 36 -29q38 2 62 35
t24 92q0 60 -27.5 98t-87.5 41q-37 0 -64.5 -13t-43.5 -33q16 -7 27 -21.5t11 -34.5q0 -25 -17.5 -42.5t-41.5 -17.5q-25 0 -42.5 17.5t-17.5 42.5q0 32 23 61t66 46.5t100 17.5q91 0 146.5 -43.5t55.5 -120.5q0 -52 -30.5 -88.5t-76.5 -49.5q71 -25 109.5 -77t38.5 -126
q0 -60 -34 -107t-92 -73.5t-127 -26.5t-125.5 26z" />
    <glyph glyph-name="uni10D6" unicode="&#x10d6;" horiz-adv-x="751" 
d="M306.5 54.5q-60.5 65.5 -60.5 180.5q0 27 3 57l14 108q-46 -22 -98 -22q-65 0 -110 37.5t-45 113.5q0 51 26.5 90.5t69.5 60.5t90 21q79 0 123.5 -50t44.5 -149q0 -23 -3 -49q-2 -18 -2 -28q-4 -51 -8 -74q22 28 60.5 47t81.5 19q63 0 114 -29t80.5 -79.5t29.5 -113.5
q0 -55 -31.5 -102.5t-84.5 -75.5t-115 -28q-119 0 -179.5 65.5zM274 502q5 42 5 65q0 63 -22 85t-61 22q-40 0 -70.5 -32.5t-30.5 -101.5q0 -58 25 -96t71 -38q34 0 75 22zM570.5 53q40.5 36 43.5 102l2 68q4 73 -30.5 116.5t-101.5 43.5q-45 0 -87.5 -30.5t-51.5 -73.5
l-6 -78q-3 -52 13.5 -94t49 -66t75.5 -24q53 0 93.5 36z" />
    <glyph glyph-name="uni10D7" unicode="&#x10d7;" horiz-adv-x="898" 
d="M737 658q53 -43 83.5 -122.5t30.5 -184.5q0 -97 -25.5 -171.5t-67.5 -121.5t-91 -68l-10 26q45 20 69.5 78.5t24.5 155.5v189q0 103 -33.5 169.5t-102.5 66.5q-42 0 -79.5 -30t-56.5 -72q50 -92 50 -220q0 -103 -27 -185.5t-81.5 -130t-132.5 -47.5q-77 0 -131.5 49
t-82 132.5t-27.5 184.5q0 98 31 176.5t86 123.5t124 45q51 0 94.5 -25t76.5 -71q26 44 65.5 70t92.5 26q67 0 120 -43zM429 483q0 48 -17 92.5t-49 72t-75 27.5q-44 0 -76 -27.5t-48.5 -72.5t-16.5 -94v-269q0 -48 17 -93t49 -74t75 -29t75 28.5t49 74t17 93.5v271z" />
    <glyph glyph-name="uni10D8" unicode="&#x10d8;" horiz-adv-x="582" 
d="M418.5 657.5q55.5 -46.5 86 -126.5t30.5 -177q0 -147 -45 -244.5t-133 -118.5l-10 26q42 14 65 69t23 127v295q0 44 -17 83t-49.5 63t-77.5 24t-77.5 -24t-49.5 -63t-17 -83v-295q0 -72 23 -127t65 -69l-10 -26q-88 21 -133 118.5t-45 244.5q0 97 30.5 177t86 126.5
t127.5 46.5t127.5 -46.5z" />
    <glyph glyph-name="uni10D9" unicode="&#x10d9;" horiz-adv-x="529" 
d="M129 9q-55 20 -87 56.5t-32 82.5q0 38 25.5 68t62 48.5t67.5 24.5l13 -23q-67 -36 -67 -103v-25q0 -32 18 -60t50 -45t71 -17q68 0 107 41.5t39 110.5v54q0 64 -33.5 102.5t-91.5 38.5q-24 -1 -33.5 -6t-9.5 -21h-22v90h22q0 -16 9.5 -21t33.5 -6q54 0 89.5 20t35.5 52
q0 26 -14 46t-40 45q-25 25 -36.5 41t-11.5 36q0 12 4 23q5 23 26 46l62 -72q32 -37 43.5 -69.5t11.5 -63.5q0 -44 -31.5 -77t-77.5 -45q79 -29 121.5 -78t42.5 -114q0 -61 -32.5 -106t-88.5 -69t-124 -25q-67 0 -122 20z" />
    <glyph glyph-name="uni10DA" unicode="&#x10da;" horiz-adv-x="1044" 
d="M540 25q36 14 36 43q0 26 -28.5 57t-70.5 54t-81 27q-24 2 -35 2q-56 0 -93.5 -19.5t-37.5 -46.5q3 1 7 4t10 3q13 0 21.5 -9t8.5 -24q0 -14 -10.5 -23.5t-26.5 -9.5q-17 0 -28.5 13t-11.5 32q0 5 2 15q4 29 33.5 54t81.5 33v3q-82 17 -145.5 55t-99 90t-35.5 111
q0 53 23 102.5t68.5 81t110.5 31.5q48 0 85.5 -24t58.5 -61q18 40 52 64.5t85 24.5q54 0 89.5 -24.5t52.5 -64.5q19 37 57.5 61t93.5 24q58 0 102.5 -31.5t68 -80.5t23.5 -99q0 -52 -18 -98t-50.5 -76.5t-74.5 -36.5q-27 -7 -52 -7q-48 0 -82 26l17 26q28 -20 58 -20
q49 1 76 40.5t29 105.5v50q0 83 -26.5 128.5t-80.5 45.5q-49 0 -78 -42.5t-29 -103.5v-53q0 -17 5.5 -29t23.5 -15v-21h-122v21q17 1 23 11.5t6 32.5v54q0 41 -15 75.5t-40.5 54t-56.5 19.5q-29 0 -53.5 -19.5t-39 -54t-14.5 -75.5v-54q0 -20 6 -31.5t23 -12.5v-21h-122v21
q16 1 23 11t7 33v53q0 60 -28.5 103t-77.5 43q-51 0 -80.5 -47t-29.5 -130q0 -84 35.5 -134.5t82.5 -73t116 -41.5q91 -23 153.5 -51t106 -76t58.5 -123h-131z" />
    <glyph glyph-name="uni10DB" unicode="&#x10db;" horiz-adv-x="552" 
d="M149.5 17.5q-52.5 28.5 -82.5 78.5t-30 111q0 62 29 110t80 74t113 26q83 0 145 -68v146q0 78 -39.5 130.5t-108.5 52.5q-32 0 -57 -12t-42 -33q16 -6 26.5 -20.5t10.5 -34.5q0 -25 -18 -42.5t-43 -17.5q-27 0 -44 17t-17 43q0 30 26 59t68.5 46.5t89.5 17.5
q124 0 186 -94t62 -254q0 -116 -29.5 -198t-83 -124t-124.5 -42q-65 0 -117.5 28.5zM341 40q31 24 47.5 64.5t16.5 88.5v62q-4 60 -42 95t-96 35q-64 0 -97 -41t-33 -102v-72q0 -37 15 -72.5t45 -58.5t72 -23q41 0 72 24z" />
    <glyph glyph-name="uni10DC" unicode="&#x10dc;" horiz-adv-x="557" 
d="M166 32q-55 43 -86 126t-31 200q0 164 53 253.5t177 89.5q21 0 47.5 -3t36.5 -4q58 -8 87 -8q49 0 82 16l5 -22q-26 -31 -53 -48t-67 -17q-19 0 -35.5 7t-39.5 21q-24 15 -43 23t-44 8q-106 0 -106 -179v-145q63 69 149 69q63 0 112.5 -26t77.5 -74.5t28 -111.5
q0 -55 -30.5 -105.5t-82 -81.5t-112.5 -31q-70 0 -125 43zM353 35.5q29 19.5 46 53.5t17 73v63q0 160 -127 160q-55 0 -95.5 -32.5t-45.5 -83.5v-80q0 -45 18.5 -85t51 -64t71.5 -24q35 0 64 19.5z" />
    <glyph glyph-name="uni10DD" unicode="&#x10dd;" horiz-adv-x="811" 
d="M93 104q-46 99 -46 247q0 98 27 178t77.5 126t117.5 46q48 0 81 -25.5t54 -65.5h3q21 38 58 64.5t77 26.5q67 0 117.5 -46t77.5 -126t27 -178q0 -148 -46.5 -247t-134.5 -115l-10 26q43 19 67 72t24 123v304q0 42 -15 79t-42.5 59.5t-64.5 22.5q-33 0 -54 -22.5
t-30 -52.5t-9 -54v-122q0 -22 7.5 -32.5t24.5 -11.5v-24h-151v24q17 1 24.5 11t7.5 33v122q0 24 -9 54t-30 52.5t-54 22.5q-37 0 -64.5 -22.5t-42.5 -59.5t-15 -79v-304q0 -70 23.5 -123t66.5 -72l-10 -26q-88 16 -134 115z" />
    <glyph glyph-name="uni10DE" unicode="&#x10de;" horiz-adv-x="542" 
d="M139.5 10q-53.5 21 -84.5 58.5t-31 84.5q0 59 46.5 92t97.5 43l12 -22q-32 -19 -44 -41.5t-12 -59.5v-30q0 -49 36 -84t97 -35q62 0 103.5 34t41.5 94v65q0 52 -24 86.5t-71 34.5h-17q-12 0 -19.5 -7.5t-7.5 -18.5h-21v81h21q0 -12 7.5 -19.5t19.5 -7.5h20
q39 0 66.5 21.5t27.5 53.5q0 22 -15.5 35t-37.5 19t-62 13q-31 5 -50.5 9.5t-34.5 11.5q-30 15 -47 39.5t-17 54.5q0 24 12.5 47.5t33.5 42.5l13 -15q-8 -15 -8 -29q0 -7 1 -10q5 -43 77 -63q72 -22 105 -36t52.5 -39t19.5 -68q0 -35 -27.5 -62.5t-62.5 -37.5
q65 -19 106 -59.5t41 -105.5q0 -90 -68 -140.5t-178 -50.5q-64 0 -117.5 21z" />
    <glyph glyph-name="uni10DF" unicode="&#x10df;" horiz-adv-x="553" 
d="M145 12.5q-55 23.5 -88.5 64t-33.5 87.5q0 41 27.5 71.5t64.5 47.5t67 20l11 -24q-34 -16 -51.5 -45t-17.5 -68v-25q0 -34 18.5 -62.5t50.5 -45.5t72 -17q44 0 80 21t57 62t21 99l-1 444q-26 -34 -75.5 -53.5t-93.5 -24.5v-4q33 -13 55 -36t22 -55q0 -49 -38 -76.5
t-89 -27.5q-34 0 -61 14.5t-42 36t-15 43.5q0 23 14.5 38.5t38.5 15.5q20 0 31.5 -13t11.5 -31t-12 -29t-27 -11q-10 0 -17 4l-2 -2q25 -38 67 -38q32 0 55.5 20t23.5 60q0 34 -25.5 55t-59.5 22l-7 28q20 -2 73.5 7.5t104 35t67.5 69.5h84v-431q0 -134 -66.5 -202
t-176.5 -68q-63 0 -118 23.5z" />
    <glyph glyph-name="uni10E0" unicode="&#x10e0;" horiz-adv-x="711" 
d="M124 26q-39 32 -63 82.5t-24 108.5q0 92 37 151.5t88 91.5t128 65q67 30 97 51t30 55q0 16 -11 25t-29 9v25h153v-25q-12 0 -17 -10q-26 -49 -55.5 -75.5t-90.5 -57.5q-16 -8 -61 -26q-48 -19 -81 -36t-59 -43l6 -1q10 6 28 10.5t36 4.5q31 0 62.5 -16t55.5 -48
q48 64 124 64q50 0 95.5 -28.5t73 -78t27.5 -109.5q0 -61 -26 -111t-66 -80t-81 -35l-10 26q19 2 38.5 19.5t32.5 46t13 63.5l2 101q1 85 -28 121t-76 36q-35 0 -60 -27.5t-25 -72.5v-21q0 -32 28 -36v-25h-125v25q15 2 22 10.5t7 25.5v21q0 45 -25.5 72.5t-60.5 27.5
q-43 0 -72 -43t-28 -139l1 -72q0 -35 12.5 -65t31 -48t37.5 -20l-10 -26q-43 5 -82 37z" />
    <glyph glyph-name="uni10E1" unicode="&#x10e1;" horiz-adv-x="599" 
d="M157.5 55q-57.5 66 -57.5 184q0 37 4 69q1 24 11 114q6 43 9 84q3 24 3 47q0 59 -17.5 95t-45.5 36q-9 0 -22 -5q14 -8 14 -24q0 -12 -8 -20.5t-20 -8.5t-21 8.5t-9 20.5q0 23 24.5 37t61.5 14q61 0 95.5 -45.5t34.5 -135.5q0 -13 -2 -47l-9 -99q-12 -125 -12 -182
q0 -76 38 -128.5t101 -52.5t99 47t36 124q0 41 -11.5 67.5t-32.5 55.5q-16 23 -23.5 38.5t-7.5 36.5q0 34 18.5 56.5t52.5 23.5q19 0 29.5 -9t10.5 -23q0 -12 -9 -20.5t-21 -8.5q-11 0 -19 8t-10 20q-10 -2 -17.5 -8.5t-7.5 -17.5q0 -24 15 -43t48 -49q40 -35 62 -65.5
t22 -73.5q0 -48 -28.5 -91t-79.5 -69t-116 -26q-125 0 -182.5 66z" />
    <glyph glyph-name="uni10E2" unicode="&#x10e2;" horiz-adv-x="800" 
d="M686 387.5q77 -68.5 77 -161.5q0 -61 -41 -115.5t-115 -88.5t-167 -34q-96 0 -172 33t-118.5 87.5t-42.5 118.5q0 49 23 90q-27 -10 -46 -10q-28 0 -47.5 18t-19.5 42t11 36.5t27 12.5q13 0 20 -8t7 -19q0 -12 -7 -18t-16 -6q-4 0 -8 2h-3q-4 -15 9 -26.5t30 -11.5
q20 0 39.5 10.5t41.5 27.5q40 39 110 76l12 -21q-44 -31 -63.5 -71.5t-19.5 -93.5v-60q0 -61 36 -102t90 -60t107 -19q55 0 106 20t84 61t33 100v69q0 80 -59.5 131.5t-153.5 78.5q-44 -32 -66.5 -64t-22.5 -80q0 -43 21 -71.5t65 -28.5q39 0 61 25t22 57q0 16 -5 26l-5 1
q-9 -16 -26 -16q-10 0 -18.5 7.5t-8.5 20.5q0 15 10.5 26t28.5 11q22 0 40.5 -18t18.5 -60q0 -52 -38.5 -83.5t-91.5 -31.5q-64 0 -103.5 38.5t-39.5 96.5q0 47 30.5 86t85.5 75q-48 16 -71 43t-23 60q0 45 35.5 75.5t88.5 30.5q56 0 91.5 -29t35.5 -69q0 -59 -86 -107
q130 -41 207 -109.5zM480.5 550.5q14.5 20.5 14.5 54.5q0 33 -18 52.5t-47 19.5q-41 0 -59.5 -22t-18.5 -57q0 -61 90 -82q24 14 38.5 34.5z" />
    <glyph glyph-name="uni10E3" unicode="&#x10e3;" horiz-adv-x="713" 
d="M266 17.5q-58 28.5 -90 72t-32 86.5q0 56 45 99.5t116 56.5l12 -23q-34 -14 -53.5 -47.5t-19.5 -69.5v-36q0 -35 19.5 -67.5t55 -52.5t81.5 -20t83 25t59 76.5t22 127.5v243q0 87 -26 137t-73 50q-46 0 -72 -38.5t-26 -94.5v-60q0 -23 6.5 -33.5t22.5 -10.5v-22h-100v22
q29 0 30 37v68q-1 38 -19.5 70.5t-52.5 32.5q-18 0 -32 -12t-32 -37q-24 -31 -43.5 -47t-49.5 -16q-44 0 -73 33.5t-27 90.5h19q1 -22 17 -40t35 -18q12 0 22.5 9t25.5 28q26 31 49 48t60 17q39 0 72 -28t49 -74q31 102 122 102q90 0 143 -91t53 -265q0 -119 -37 -199.5
t-97.5 -119t-132.5 -38.5q-73 0 -131 28.5z" />
    <glyph glyph-name="uni10E4" unicode="&#x10e4;" horiz-adv-x="713" 
d="M634 315q39 -52 39 -110t-34 -108t-94 -79.5t-135 -29.5q-76 0 -133.5 25t-88 64.5t-30.5 80.5q0 50 38 85.5t111 48.5l12 -23q-28 -13 -45 -36.5t-17 -80.5q0 -36 19.5 -67.5t55 -50t79.5 -18.5q45 0 82 20t58.5 58.5t21.5 90.5v59q0 61 -25 94t-60 33h-1q-18 0 -23 -6
t-5 -22h-24v88h24q0 -15 5.5 -21.5t22.5 -6.5h1q34 0 60.5 22.5t26.5 72.5v58q0 63 -31 91t-73 28q-40 0 -63.5 -12t-53.5 -34q39 -47 39 -111q0 -52 -25.5 -94.5t-69 -67t-95.5 -24.5q-51 0 -94.5 24.5t-69.5 67t-26 94.5q0 50 25.5 92.5t69.5 67t95 24.5q38 0 72 -13.5
t61 -38.5q39 25 69 38.5t76 13.5q65 0 107.5 -24.5t62.5 -60.5t20 -71q1 -52 -33.5 -98.5t-114.5 -60.5q72 -20 111 -72zM300 567q0 54 -27 81.5t-70 27.5t-69.5 -27t-26.5 -82v-100q0 -56 26.5 -83.5t69.5 -27.5t70 28t27 85v98z" />
    <glyph glyph-name="uni10E5" unicode="&#x10e5;" horiz-adv-x="565" 
d="M136 11q-53 22 -82.5 60t-29.5 85q0 58 44 92t102 45l13 -22q-31 -12 -45 -40.5t-14 -67.5v-25q0 -35 18.5 -63t49.5 -43.5t67 -15.5q37 0 69.5 16.5t52 48t19.5 74.5v356q-56 10 -89 10q-42 0 -70.5 -20.5t-28.5 -51.5q0 -35 30 -46l-10 -21q-8 -2 -17 -2q-30 0 -56 17
t-26 51q0 47 41 73.5t121 26.5q20 0 85 -7l20 -3v39q0 57 22.5 91t65.5 34h46v-24q-22 0 -32 -11t-12.5 -30.5t-2.5 -58.5v-368q0 -62 -27 -112t-79.5 -79.5t-125.5 -29.5q-66 0 -119 22z" />
    <glyph glyph-name="uni10E6" unicode="&#x10e6;" horiz-adv-x="824" 
d="M480 24q13 7 20.5 13.5t7.5 25.5q0 15 -7 36q-13 47 -54 76t-82 33q-35 2 -66 -6.5t-50.5 -24.5t-19.5 -35q3 1 7 3.5t9 2.5q14 0 22.5 -9t8.5 -24q0 -14 -10.5 -23.5t-26.5 -9.5q-18 0 -30 14t-12 34q0 32 26.5 61t69.5 38l-1 5q-73 14 -131 49.5t-91 87.5t-33 115
q0 53 27 103t78 81.5t120 31.5q50 0 90 -25.5t63 -68.5q49 94 160 94q69 0 117 -32.5t72 -81.5t24 -98q0 -60 -22.5 -109.5t-67 -78.5t-106.5 -29q-51 0 -84 26l16 25q25 -19 57 -19q51 0 79 40t28 113v52q0 164 -119 164q-35 0 -63 -18.5t-43.5 -47.5t-15.5 -60v-69
q0 -22 7 -33t23 -12v-21h-123v21q16 1 23 11.5t7 33.5v69q0 30 -15.5 59.5t-42.5 48t-58 18.5q-60 0 -95.5 -49.5t-35.5 -125.5q0 -87 33 -138t79 -75t121 -48l23 -7q181 -58 216 -231h-118z" />
    <glyph glyph-name="uni10E7" unicode="&#x10e7;" horiz-adv-x="538" 
d="M135.5 14q-54.5 25 -85 67t-30.5 91q0 55 41.5 97t118.5 62l14 -29q-34 -12 -54 -44t-20 -78v-44q0 -59 38.5 -89.5t101.5 -30.5q38 0 73 17t58 55.5t23 99.5v237q-52 -68 -137 -68q-43 0 -87.5 17.5t-74.5 54.5t-30 92q0 43 23 81t57.5 64t66.5 34l18 -19
q-29 -16 -51 -49t-22 -79v-53q0 -54 34.5 -83t77.5 -29q52 0 88.5 34t36.5 89v179h83v-470q0 -70 -30.5 -122.5t-84.5 -80.5t-123 -28t-123.5 25z" />
    <glyph glyph-name="uni10E8" unicode="&#x10e8;" horiz-adv-x="645" 
d="M243.5 17q-52.5 28 -83 77.5t-30.5 110.5q0 57 30.5 105.5t81.5 77.5t111 29q41 0 78 -17.5t63 -49.5h4v153q0 170 -94 170q-37 0 -60.5 -26.5t-23.5 -60.5v-21q0 -29 7.5 -41.5t23.5 -12.5v-22h-97v22q17 0 24 12.5t7 41.5v20q0 34 -25 59t-60 25q-44 0 -67.5 -32
t-23.5 -80q0 -47 16.5 -74.5t41.5 -33.5v-23q-64 0 -102 38t-38 93q0 36 18.5 69.5t55 54.5t87.5 21q37 0 68 -18t45 -47h2q16 31 42 48.5t62 17.5q102 0 146.5 -96t44.5 -254q0 -116 -29.5 -198t-83 -124t-124.5 -42q-65 0 -117.5 28zM433 37q31 21 48.5 57t17.5 79v75
q-6 61 -43.5 99t-94.5 38q-64 0 -97 -41t-33 -102v-72q0 -37 15 -72.5t45 -58.5t72 -23q39 0 70 21z" />
    <glyph glyph-name="uni10E9" unicode="&#x10e9;" horiz-adv-x="533" 
d="M54 482q0 113 55 166t139 53q82 0 115.5 -37.5t33.5 -87.5q0 -52 -36 -97t-96 -73q7 1 21 1q63 0 111 -28t73.5 -73.5t25.5 -95.5q0 -81 -57 -136.5t-146 -72.5v27q39 18 70.5 55.5t31.5 103.5v50q0 63 -32 100.5t-79 37.5q-80 0 -148 -68l3 -307h-85v482zM218 407
q109 69 109 166q0 41 -18.5 73t-65.5 32q-112 0 -110 -194l1 -138z" />
    <glyph glyph-name="uni10EA" unicode="&#x10ea;" horiz-adv-x="656" 
d="M195 31q-69 41 -113 122t-44 194q0 98 38 173t93 117.5t102 46.5v-26q-34 -7 -64.5 -45.5t-49 -96.5t-18.5 -121v-108q0 -82 26 -143.5t72 -94.5t105 -33q48 1 88.5 22t65.5 61t26 92v37q2 69 -27.5 102.5t-101.5 33.5q-30 -1 -30 -26h-20v80h20q0 -26 37 -26
q54 0 81.5 17.5t27.5 51.5q0 23 -19 44t-58 43q-50 29 -50 73q0 32 32 73l15 -9q-11 -27 -11 -42q0 -17 13 -30.5t44 -28.5q55 -27 84 -52.5t29 -63.5q0 -45 -36.5 -63.5t-92.5 -23.5l1 -4q49 -5 85.5 -28.5t56 -59.5t19.5 -76q0 -62 -39 -113.5t-104.5 -80.5t-137.5 -29
q-76 0 -145 41z" />
    <glyph glyph-name="uni10EB" unicode="&#x10eb;" horiz-adv-x="553" 
d="M150 16q-53 27 -83 75t-30 109q0 62 29.5 112t80.5 78.5t113 28.5q80 0 144 -69v145q0 183 -95 183l-1 23q93 0 144.5 -93t51.5 -255q0 -116 -29 -198t-82.5 -124t-124.5 -42q-65 0 -118 27zM341 39q31 23 47.5 58.5t16.5 72.5l1 85q-4 60 -42 95t-96 35q-63 0 -96.5 -44
t-33.5 -106v-72q0 -37 15 -71t44.5 -55t72.5 -21q40 0 71 23z" />
    <glyph glyph-name="uni10EC" unicode="&#x10ec;" horiz-adv-x="635" 
d="M208 91q-23 43 -59 107q-55 94 -80.5 154t-30.5 135q-2 20 -2 29q0 82 46.5 134t123.5 52q74 0 112 -72q33 72 131 72q66 0 109 -40t43 -104q0 -56 -41.5 -93.5t-101.5 -37.5v23q26 6 42 32.5t16 78.5q0 48 -23.5 80.5t-67.5 32.5q-39 0 -65 -30t-26 -82q0 -26 6 -38.5
t22 -12.5v-22h-91v22q16 0 22.5 12.5t6.5 38.5q0 54 -23.5 82t-61.5 28q-36 0 -62.5 -27.5t-26.5 -98.5q0 -42 8.5 -78t31.5 -105l9 -21q31 27 75 46t90 19q35 0 69 -13t56 -41t22 -69q0 -47 -25.5 -84t-77.5 -87q-36 -36 -58.5 -61.5t-39.5 -56.5h-31q-24 53 -47 96z
M310 83q41 53 62.5 91.5t21.5 86.5q0 111 -86 111q-37 0 -64 -17.5t-60 -49.5l91 -269q15 22 35 47z" />
    <glyph glyph-name="uni10ED" unicode="&#x10ed;" horiz-adv-x="548" 
d="M138 12q-53 22 -82 59t-29 79q0 45 42.5 76.5t113.5 45.5l13 -21q-36 -8 -53 -36t-17 -54v-24q0 -57 34.5 -90.5t100.5 -33.5q71 0 111.5 37.5t40.5 106.5v49q0 109 -111 177q-37 -30 -61 -43t-53 -13q-39 0 -66 16.5t-27 45.5q0 32 25 50t62 18q28 0 46 -7.5t34.5 -18
t22.5 -14.5q2 16 11 44q9 22 9 37q0 28 -23 42l-34 20q-11 7 -24 7q-15 0 -32 -7.5t-42 -25.5l-15 24q37 23 48 37.5t11 40.5q0 13 -6 31t-8 23l26 12q9 -17 23 -37t27 -27l57 -37q24 -15 34.5 -31t10.5 -41q0 -14 -5.5 -25.5t-15.5 -26.5q-23 -30 -25 -58q50 40 73.5 55
t45.5 15q19 0 28.5 -9t9.5 -23q0 -13 -8 -22t-21 -9q-12 0 -20.5 7.5t-6.5 20.5q-19 -2 -37.5 -13.5t-54.5 -42.5q98 -50 145 -104t47 -120q0 -49 -33.5 -91t-91.5 -67.5t-127 -25.5q-70 0 -123 22zM233 361q19 11 46 34q-26 19 -43 27.5t-38 8.5q-18 0 -34 -9.5t-16 -29.5
q0 -19 15 -30.5t34 -11.5q17 0 36 11z" />
    <glyph glyph-name="uni10EE" unicode="&#x10ee;" horiz-adv-x="601" 
d="M169 53.5q-58 64.5 -58 189.5q0 30 3 61q4 43 11 106q8 68 10 92q4 31 4 61q0 58 -15.5 87.5t-39.5 31.5h-6q-13 0 -27 -7q14 -8 14 -24q0 -12 -8 -20.5t-20 -8.5t-21 8.5t-9 20.5q0 24 24 38t61 14q62 -1 96.5 -46t34.5 -134q0 -23 -3 -50l-10 -122q63 66 141 66
q60 0 109.5 -28.5t77.5 -77.5t28 -106q0 -60 -29.5 -109t-81 -77.5t-114.5 -29.5q-114 0 -172 64.5zM426 55.5q35 38.5 41 103.5l3 59q1 9 1 25q0 64 -33.5 102t-94.5 38q-49 0 -89 -25.5t-48 -67.5l-6 -94q-1 -85 35.5 -132t101.5 -48q54 1 89 39.5z" />
    <glyph glyph-name="uni10EF" unicode="&#x10ef;" horiz-adv-x="715" 
d="M678.5 234.5q15.5 -16.5 15.5 -40.5q0 -31 -24 -52.5t-52 -28.5q-24 -8 -49 -8q-43 0 -83.5 27.5t-71.5 90.5l-82 160l-177 -142q49 -2 84 -34.5t35 -82.5q0 -51 -39 -84t-97 -33q-53 0 -89.5 29t-36.5 75q0 30 17.5 50t46.5 20q23 0 36.5 -16t13.5 -36q0 -21 -14 -36
t-31 -15q-9 0 -16 4l-6 -3q4 -13 21 -27.5t48 -14.5t54.5 25t23.5 62q0 41 -22.5 67.5t-70.5 26.5l-16 -1l-8 21l226 179l-81 157q-16 33 -40.5 53.5t-48.5 20.5q-21 0 -38 -16q15 2 27.5 -8.5t16.5 -25.5q3 -7 3 -15q0 -15 -9 -29t-23 -20q-9 -3 -18 -3q-18 0 -32 10.5
t-18 27.5q-3 9 -3 18q0 27 22 49.5t55 30.5q23 10 51 10q43 0 84 -29t72 -91l45 -88l178 141q10 7 10 18q0 9 -7 14.5t-20 5.5v30h149v-31q-16 0 -28 -5t-35 -23l-230 -184l117 -230q17 -34 39.5 -53.5t44.5 -19.5q18 0 34 14q-20 -1 -33.5 15t-13.5 37t15.5 37t36.5 16
q26 0 41.5 -16.5z" />
    <glyph glyph-name="uni10F0" unicode="&#x10f0;" horiz-adv-x="582" 
d="M62.5 215.5q47.5 32.5 124.5 39.5l17 -26q-82 -30 -82 -99q0 -30 21.5 -56t57 -42t77.5 -16q73 0 115.5 32.5t42.5 90.5q0 61 -33.5 85t-80.5 24h-25v35h33q57 0 81 13.5t24 45.5t-26 46.5t-79 14.5h-33v35h33q44 0 68.5 10.5t24.5 38.5q0 29 -25.5 39.5t-76.5 16.5
q-40 5 -64 10.5t-40.5 21t-16.5 43.5q0 30 15.5 49t41.5 35l15 -12q-5 -5 -11 -16.5t-6 -23.5q0 -23 23.5 -34.5t75.5 -24.5q44 -11 71 -20.5t46 -28.5t19 -49q0 -55 -91 -71q40 -5 74.5 -22.5t34.5 -56.5q0 -41 -27 -58t-76 -23q29 -3 61.5 -18.5t54.5 -42.5t22 -62
q0 -52 -38.5 -86t-99 -49.5t-127.5 -15.5q-81 0 -140.5 18.5t-91 51.5t-31.5 74q0 51 47.5 83.5z" />
    <glyph glyph-name="endash" unicode="&#x2013;" horiz-adv-x="601" 
d="M58 237v35h485v-35h-485z" />
    <glyph glyph-name="emdash" unicode="&#x2014;" horiz-adv-x="970" 
d="M58 237v35h854v-35h-854z" />
    <glyph glyph-name="quoteleft" unicode="&#x2018;" horiz-adv-x="256" 
d="M80.5 437q-20.5 27 -20.5 72q0 59 29 112.5t74 86.5l13 -15q-36 -27 -58.5 -66.5t-22.5 -76.5q0 -21 12.5 -27.5t36.5 -6.5q21 0 35.5 -14.5t14.5 -35.5q0 -24 -17 -40t-39 -16q-37 0 -57.5 27z" />
    <glyph glyph-name="quoteright" unicode="&#x2019;" horiz-adv-x="256" 
d="M80 425q37 28 59 66.5t22 76.5q0 20 -13 26.5t-38 6.5q-20 0 -33.5 15.5t-13.5 36.5q0 24 16.5 39.5t38.5 15.5q37 0 57.5 -27.5t20.5 -72.5q0 -57 -29 -111.5t-73 -86.5z" />
    <glyph glyph-name="quotesinglbase" unicode="&#x201a;" horiz-adv-x="256" 
d="M80 -147q36 26 58.5 65.5t22.5 77.5q0 21 -13 27.5t-38 6.5q-21 0 -34 14.5t-13 35.5q0 25 16.5 40.5t38.5 15.5q37 0 57.5 -27.5t20.5 -72.5q0 -58 -29 -112t-73 -87z" />
    <glyph glyph-name="quotedblleft" unicode="&#x201c;" horiz-adv-x="436" 
d="M80.5 437q-20.5 27 -20.5 72q0 59 29 112.5t74 86.5l13 -15q-36 -27 -58.5 -66.5t-22.5 -76.5q0 -21 12.5 -27.5t36.5 -6.5q21 0 35.5 -14.5t14.5 -35.5q0 -24 -17 -40t-39 -16q-37 0 -57.5 27zM260 437q-20 27 -20 72q0 59 28.5 112.5t73.5 86.5l14 -15
q-36 -27 -58.5 -66.5t-22.5 -76.5q0 -21 13 -27.5t37 -6.5q21 0 34.5 -14.5t13.5 -35.5q0 -24 -17 -40t-39 -16q-37 0 -57 27z" />
    <glyph glyph-name="quotedblright" unicode="&#x201d;" horiz-adv-x="436" 
d="M80 425q37 28 59 66.5t22 76.5q0 20 -13 26.5t-38 6.5q-20 0 -33.5 15.5t-13.5 36.5q0 24 16.5 39.5t38.5 15.5q37 0 57.5 -27.5t20.5 -72.5q0 -57 -29 -111.5t-73 -86.5zM260 425q36 28 58.5 67t22.5 76q0 20 -13 26.5t-37 6.5q-21 0 -35 15.5t-14 36.5q0 24 17 39.5
t40 15.5q37 0 57 -27.5t20 -72.5q0 -58 -29 -112t-74 -86z" />
    <glyph glyph-name="quotedblbase" unicode="&#x201e;" horiz-adv-x="436" 
d="M80 -147q36 26 58.5 65.5t22.5 77.5q0 21 -13 27.5t-38 6.5q-21 0 -34 14.5t-13 35.5q0 25 16.5 40.5t38.5 15.5q37 0 57.5 -27.5t20.5 -72.5q0 -58 -29 -112t-73 -87zM260 -147q36 27 58.5 66t22.5 77q0 20 -13 27t-37 7q-21 0 -35 14.5t-14 35.5q0 25 17 40.5t40 15.5
q37 0 57 -27.5t20 -72.5q0 -59 -29 -112.5t-74 -86.5z" />
    <glyph glyph-name="bullet" unicode="&#x2022;" horiz-adv-x="457" 
d="M150 265q-32 32 -32 78t32 78.5t79 32.5q46 0 77.5 -32t31.5 -79q0 -46 -31.5 -78t-77.5 -32q-47 0 -79 32z" />
    <glyph glyph-name="ellipsis" unicode="&#x2026;" horiz-adv-x="805" 
d="M88 5.5q-17 17.5 -17 43.5t17.5 43t42.5 17q26 0 43 -17t17 -43t-17 -43.5t-43 -17.5t-43 17.5zM359.5 5q-16.5 17 -16.5 44q0 26 16.5 43t43.5 17q26 0 43 -17t17 -43t-17 -43.5t-43 -17.5q-27 0 -43.5 17zM631.5 5.5q-17.5 17.5 -17.5 43.5t17.5 43t43.5 17
q25 0 42 -17t17 -43t-17 -43.5t-42 -17.5q-26 0 -43.5 17.5z" />
    <glyph glyph-name="guilsinglleft" unicode="&#x2039;" horiz-adv-x="317" 
d="M216 27q-47 31 -79 83t-32 111q0 60 32 112t79 82l16 -14q-34 -31 -53.5 -78.5t-19.5 -101.5t19 -101.5t54 -77.5z" />
    <glyph glyph-name="guilsinglright" unicode="&#x203a;" horiz-adv-x="317" 
d="M86 42q35 30 54 77.5t19 101.5t-19 101.5t-54 78.5l15 14q47 -30 79 -82t32 -112q0 -59 -32 -111t-79 -83z" />
    <glyph glyph-name="minus" unicode="&#x2212;" horiz-adv-x="908" 
d="M45 237v38h818v-38h-818z" />
    </font>
</defs>
</svg>
