<?xml version="1.0" standalone="no"?>
<!DOCTYPE svg PUBLIC "-//W3C//DTD SVG 1.1//EN" "http://www.w3.org/Graphics/SVG/1.1/DTD/svg11.dtd" >
<svg xmlns="http://www.w3.org/2000/svg" xmlns:xlink="http://www.w3.org/1999/xlink" version="1.1">
<metadata>
Created by FontForge 20161013 at Mon Jun 12 00:05:59 2017
 By ,,,
</metadata>
<defs>
<font id="GLSatitulo-Regular" horiz-adv-x="339" >
  <font-face 
    font-family="GL Satitulo"
    font-weight="400"
    font-stretch="normal"
    units-per-em="1000"
    panose-1="0 0 5 0 0 0 0 0 0 0"
    ascent="800"
    descent="-200"
    x-height="515"
    cap-height="708"
    bbox="-267 -549 1210 1000"
    underline-thickness="50"
    underline-position="-150"
    unicode-range="U+000D-FB02"
  />
<missing-glyph horiz-adv-x="562" 
d="M60 0v772h441v-772h-441zM96 30h369v712h-369v-712z" />
    <glyph glyph-name="fi" unicode="fi" horiz-adv-x="619" 
d="M105 514q0 136 73 203q68 65 187 65q40 0 75.5 -8t58.5 -22q34 -22 34 -55q0 -18 -9 -33t-24 -23q-13 -9 -31 -9q-17 0 -32 8.5t-24 23.5t-9 32q0 18 9 33t25 23q-24 15 -73 15q-100 0 -142 -77q-15 -27 -21.5 -66.5t-6.5 -109.5h161q63 0 98.5 2.5t67.5 9.5v-433
q0 -28 7.5 -43.5t24.5 -22.5q17 -6 45 -6v-21q-48 2 -62 2l-59 2l-61 -2q-15 0 -61 -2v21q29 0 45.5 6.5t23.5 21.5q8 18 8 44v313q0 47 -17.5 67.5t-59.5 20.5h-161v-401q0 -39 21 -55.5t66 -16.5v-21l-132 4l-53 -2q-14 0 -68 -2v21q29 0 45.5 6.5t23.5 21.5t7 44v401h-80
v20h80z" />
    <glyph glyph-name="fl" unicode="fl" horiz-adv-x="621" 
d="M522 93q0 -28 7.5 -43.5t24.5 -22.5q17 -6 45 -6v-21q-48 2 -62 2l-59 2l-61 -2q-15 0 -61 -2v21q29 0 45.5 6.5t23.5 21.5q8 18 8 44v557q0 30 -7 49.5t-21 33.5q-16 16 -42.5 25t-52.5 9q-50 0 -80 -31q-19 -20 -27 -50.5t-8 -77.5v-94h128v-20h-128v-401
q0 -39 21 -55.5t66 -16.5v-21l-132 4l-53 -2q-14 0 -68 -2v21q29 0 45.5 6.5t23.5 21.5t7 44v401h-80v20h80q0 59 5 97t18 69q15 33 41 56q53 46 136 46q20 0 44 -3q5 -1 32 -5t52 -4q49 0 89 14v-691z" />
    <glyph glyph-name="f_f" unicode="ff" horiz-adv-x="653" 
d="M105 514q0 109 45 163q26 30 66 47.5t87 17.5t83.5 -19t55.5 -55q25 74 86 101q30 13 68 13q51 0 87 -27q31 -25 31 -62q0 -23 -15 -38t-38 -15q-24 0 -39.5 15t-15.5 39q0 20 11.5 33.5t30.5 17.5q-2 9 -15.5 15.5t-33.5 6.5q-41 0 -58.5 -26t-20.5 -71q-4 -35 -4 -130
v-26h108v-20h-108v-391q0 -45 25.5 -63.5t80.5 -18.5v-21l-92 3l-62 1l-47 -1l-71 -3v21q29 0 45.5 6.5t23.5 21.5t7 44v401h-231v-401q0 -28 7.5 -43.5t24.5 -22.5q17 -6 44 -6v-21q-48 2 -63 2l-57 2l-55 -2q-15 0 -67 -2v21q29 0 45.5 6.5t23.5 21.5t7 44v401h-80v20h80z
M426 514q0 77 10 129q-14 37 -47.5 59t-81.5 22q-58 0 -85 -38t-27 -121v-51h231z" />
    <glyph glyph-name="f_idieresis.liga" unicode="f&#xef;" horiz-adv-x="619" 
d="M522 93q0 -28 7.5 -43.5t24.5 -22.5q17 -6 45 -6v-21q-48 2 -62 2l-59 2l-61 -2q-15 0 -61 -2v21q29 0 45.5 6.5t23.5 21.5q8 18 8 44v313q0 47 -17.5 67.5t-59.5 20.5h-161v-401q0 -39 21 -55.5t66 -16.5v-21l-132 4l-53 -2q-14 0 -68 -2v21q29 0 45.5 6.5t23.5 21.5
t7 44v401h-80v20h80q0 115 22 168q11 28 30 50q41 50 128 50q36 0 65 -11.5t46 -32.5q17 -20 19 -50v-4q-1 -24 -18 -40.5t-41 -16.5q-23 0 -40.5 17t-17.5 41q0 15 8.5 29t21.5 21q11 8 28 8q-25 22 -70 22q-37 0 -58.5 -19.5t-26.5 -56.5q-6 -33 -6 -175h161
q63 0 98.5 2.5t67.5 9.5v-433zM597 735q14 -8 22 -21q7 -13 7 -29t-8 -29.5t-21 -20.5q-12 -8 -29 -8q-23 0 -40 17t-17 41q0 15 8 29t21 21q11 8 28 8q15 0 29 -8z" />
    <glyph glyph-name="f_igrave.liga" unicode="f&#xec;" horiz-adv-x="619" 
d="M522 93q0 -28 7.5 -43.5t24.5 -22.5q17 -6 45 -6v-21q-48 2 -62 2l-59 2l-61 -2q-15 0 -61 -2v21q29 0 45.5 6.5t23.5 21.5q8 18 8 44v313q0 47 -17.5 67.5t-59.5 20.5h-161v-401q0 -39 21 -55.5t66 -16.5v-21l-132 4l-53 -2q-14 0 -68 -2v21q29 0 45.5 6.5t23.5 21.5
t7 44v401h-80v20h80q0 59 4.5 97t15.5 69q11 30 35 56q43 46 115 46q34 0 60 -13q-3 8 -3 16q0 15 11 25t24 10q20 0 35 -17.5t36 -56.5q17 -34 35 -68t42 -70l-12 -9q-41 44 -94 90l-35 33q-29 24 -51 34.5t-47 10.5q-42 0 -65 -42q-16 -35 -16 -117v-94h161q63 0 98.5 2.5
t67.5 9.5v-433z" />
    <glyph glyph-name="f_f_b.liga" unicode="ffb" horiz-adv-x="1217" 
d="M824 422q22 51 63 79t92 28q57 0 99 -31t67 -91q24 -61 24 -150q0 -84 -29.5 -146.5t-80.5 -93.5q-50 -31 -113 -31q-37 0 -71.5 15t-59.5 43l-71 -60l-17 7q6 24 6 58v601q0 56 -26 83q-16 16 -40 25t-47 9q-39 0 -65 -23.5t-32 -57.5q-6 -33 -6 -78v-94h127v-20h-127
v-401q0 -40 20.5 -56t65.5 -16v-21l-131 4l-59 -2q-14 0 -62 -2v21q29 0 45 6.5t23 21.5t7 44v401h-231v-401q0 -28 7.5 -43.5t24.5 -22.5q17 -6 44 -6v-21q-48 2 -63 2l-57 2l-55 -2q-15 0 -67 -2v21q29 0 45.5 6.5t23.5 21.5t7 44v401h-80v20h80q0 105 49 163q28 31 69 48
t90 17q89 0 140 -54q13 26 38 48q50 46 127 46q24 0 56 -5q42 -5 67 -5q52 0 83 12v-362zM426 514q0 54 4.5 90t14.5 65q-22 26 -53.5 40.5t-66.5 14.5q-130 0 -130 -159v-51h231zM824 58q23 -24 52.5 -36.5t61.5 -12.5q68 0 101.5 61t33.5 187q0 242 -122 242
q-27 0 -52.5 -14.5t-44.5 -41.5q-20 -29 -30 -67v-318z" />
    <glyph glyph-name="f_f_h.liga" unicode="ffh" horiz-adv-x="1226" 
d="M1134 93q0 -28 7.5 -43.5t24.5 -22.5q17 -6 44 -6v-21q-48 2 -63 2l-57 2l-54 -2q-13 0 -57 -2v21q25 0 38.5 6.5t20.5 21.5q6 17 6 44v289q0 39 -6 62.5t-22 37.5q-20 15 -53 15q-40 0 -72 -23t-49 -64q-18 -42 -18 -94v-223q0 -28 6.5 -43.5t20.5 -22.5q14 -6 39 -6
v-21q-44 2 -58 2l-55 2l-55 -2q-14 0 -64 -2v21q29 0 45 6.5t23 21.5t7 44v557q0 56 -26 83q-16 16 -40 25t-47 9q-39 0 -65 -23.5t-32 -57.5q-6 -33 -6 -78v-94h127v-20h-127v-401q0 -40 20.5 -56t65.5 -16v-21l-131 4l-59 -2q-14 0 -62 -2v21q29 0 45 6.5t23 21.5t7 44
v401h-231v-401q0 -28 7.5 -43.5t24.5 -22.5q17 -6 44 -6v-21q-48 2 -63 2l-57 2l-55 -2q-15 0 -67 -2v21q29 0 45.5 6.5t23.5 21.5t7 44v401h-80v20h80q0 105 49 163q28 31 69 48t90 17q89 0 140 -54q13 26 38 48q50 46 127 46q24 0 56 -5q42 -5 67 -5q50 0 83 11v-374
q23 61 67 90.5t103 29.5q70 0 106 -38q19 -20 26.5 -50t7.5 -81v-267zM426 514q0 54 4.5 90t14.5 65q-22 26 -53.5 40.5t-66.5 14.5q-130 0 -130 -159v-51h231z" />
    <glyph glyph-name="f_f_i" unicode="ffi" horiz-adv-x="940" 
d="M844 93q0 -28 7.5 -43.5t23.5 -22.5q17 -6 44 -6v-21q-48 2 -62 2l-59 2l-57 -2q-15 0 -63 -2v21q29 0 45 6.5t23 21.5t7 44v313q0 47 -17 67.5t-58 20.5h-161v-401q0 -40 20.5 -56t65.5 -16v-21l-131 4l-59 -2q-14 0 -62 -2v21q29 0 45 6.5t23 21.5t7 44v401h-231v-401
q0 -28 7.5 -43.5t24.5 -22.5q17 -6 44 -6v-21q-48 2 -63 2l-57 2l-55 -2q-15 0 -67 -2v21q29 0 45.5 6.5t23.5 21.5t7 44v401h-80v20h80q0 105 49 163q28 31 69 48t90 17q101 0 151 -68q37 62 113 91q48 17 109 17q40 0 75.5 -8t57.5 -22q35 -21 35 -55q0 -18 -8.5 -33
t-23.5 -23q-15 -9 -32 -9t-32 8.5t-24 23.5q-8 16 -8 32q0 18 8.5 33t23.5 23q-23 15 -72 15q-50 0 -86 -20t-57 -57q-14 -26 -20 -65.5t-6 -110.5h161q61 0 97.5 2.5t68.5 9.5v-433zM426 514q0 85 29 143q-22 31 -56 49t-74 18q-130 0 -130 -159v-51h231z" />
    <glyph glyph-name="f_f_j.liga" unicode="ffj" horiz-adv-x="920" 
d="M678 514q61 0 97.5 2.5t68.5 9.5v-411q0 -87 -12 -146t-41 -96q-24 -29 -56 -45t-66 -16q-27 0 -46.5 13.5t-19.5 39.5q0 21 12.5 34t33.5 13q20 0 32.5 -12.5t12.5 -32.5q0 -24 -15 -40q52 6 67 46q7 20 7 62v471q0 47 -17 67.5t-58 20.5h-161v-391q0 -45 25.5 -63.5
t80.5 -18.5v-21l-154 4l-53 -2q-15 0 -65 -2v21q29 0 45 6.5t23 21.5t7 44v401h-231v-401q0 -28 7.5 -43.5t24.5 -22.5q17 -6 44 -6v-21q-48 2 -63 2l-57 2l-55 -2q-15 0 -67 -2v21q29 0 45.5 6.5t23.5 21.5t7 44v401h-80v20h80q0 105 49 163q28 31 69 48t90 17
q101 0 151 -68q37 62 113 91q48 17 109 17q40 0 75.5 -8t57.5 -22q35 -21 35 -55q0 -18 -8.5 -33t-23.5 -23q-15 -9 -32 -9t-32 8.5t-24 23.5q-8 16 -8 32q0 18 8.5 33t23.5 23q-23 15 -72 15q-50 0 -86 -20t-57 -57q-14 -26 -20 -65.5t-6 -110.5h161zM426 514q0 85 29 143
q-22 31 -56 49t-74 18q-130 0 -130 -159v-51h231z" />
    <glyph glyph-name="f_f_k.liga" unicode="ffk" horiz-adv-x="1188" 
d="M1110 73q20 -26 35 -37.5t36 -14.5v-21q-32 2 -42 2l-39 2l-56 -2q-14 0 -56 -2v21q15 0 23.5 5.5t8.5 13.5t-6 15l-116 168q-17 25 -32 33.5t-42 10.5v-174q0 -28 6.5 -43.5t20.5 -22.5q14 -6 39 -6v-21q-44 2 -58 2l-55 2l-55 -2q-14 0 -64 -2v21q29 0 45 6.5t23 21.5
t7 44v557q0 56 -26 83q-16 16 -40 25t-47 9q-39 0 -65 -23.5t-32 -57.5q-6 -33 -6 -78v-94h127v-20h-127v-401q0 -40 20.5 -56t65.5 -16v-21l-131 4l-59 -2q-14 0 -62 -2v21q29 0 45 6.5t23 21.5t7 44v401h-231v-401q0 -28 7.5 -43.5t24.5 -22.5q17 -6 44 -6v-21
q-48 2 -63 2l-57 2l-55 -2q-15 0 -67 -2v21q29 0 45.5 6.5t23.5 21.5t7 44v401h-80v20h80q0 105 49 163q28 31 69 48t90 17q89 0 140 -54q13 26 38 48q50 46 127 46q24 0 56 -5q42 -5 67 -5q50 0 83 11v-495q29 4 48.5 13t37.5 28l73 77q32 34 32 55q0 17 -19.5 25.5
t-54.5 8.5v20l27 -1q52 -3 87 -3q33 0 87 4v-20q-50 -5 -91 -47l-121 -128zM426 514q0 54 4.5 90t14.5 65q-22 26 -53.5 40.5t-66.5 14.5q-130 0 -130 -159v-51h231z" />
    <glyph glyph-name="f_b.liga" unicode="fb" horiz-adv-x="896" 
d="M502 422q22 51 63.5 79t93.5 28q56 0 98.5 -31t66.5 -91q25 -64 25 -150q0 -85 -29.5 -147t-81.5 -93q-50 -31 -113 -31q-37 0 -71.5 15t-59.5 43l-72 -60l-17 7q8 26 8 58v601q0 53 -27 83q-17 17 -40.5 25.5t-47.5 8.5q-39 0 -64.5 -24t-31.5 -58q-7 -31 -7 -77v-94
h128v-20h-128v-401q0 -39 21 -55.5t66 -16.5v-21l-132 4l-53 -2q-14 0 -68 -2v21q29 0 45.5 6.5t23.5 21.5t7 44v401h-80v20h80q0 59 5 97t18 69q16 34 41 56q52 46 127 46q24 0 57 -5q42 -5 66 -5q53 0 83 12v-362zM502 59q24 -25 53.5 -37.5t62.5 -12.5q68 0 100.5 60.5
t32.5 187.5q0 122 -30 182t-92 60q-26 0 -51.5 -14.5t-45.5 -42.5q-20 -29 -30 -67v-316z" />
    <glyph glyph-name="f_f_l" unicode="ffl" horiz-adv-x="942" 
d="M844 93q0 -28 7.5 -43.5t23.5 -22.5q17 -6 44 -6v-21q-48 2 -62 2l-59 2l-57 -2q-15 0 -63 -2v21q29 0 45 6.5t23 21.5t7 44v557q0 30 -6 49.5t-20 33.5q-17 17 -43.5 25.5t-53.5 8.5q-49 0 -79 -31q-20 -20 -27 -49.5t-7 -78.5v-94h127v-20h-127v-401q0 -40 20.5 -56
t65.5 -16v-21l-131 4l-59 -2q-14 0 -62 -2v21q29 0 45 6.5t23 21.5t7 44v401h-231v-401q0 -28 7.5 -43.5t24.5 -22.5q17 -6 44 -6v-21q-48 2 -63 2l-57 2l-55 -2q-15 0 -67 -2v21q29 0 45.5 6.5t23.5 21.5t7 44v401h-80v20h80q0 105 49 163q28 31 69 48t90 17q89 0 140 -54
q31 60 99 83q38 11 73 11q20 0 62 -6q41 -6 63 -6q52 0 94 14v-691zM426 514q0 53 4.5 89.5t14.5 65.5q-22 26 -53.5 40.5t-66.5 14.5q-130 0 -130 -159v-51h231z" />
    <glyph glyph-name="f_h.liga" unicode="fh" horiz-adv-x="905" 
d="M502 409q25 62 68.5 91t101.5 29q70 0 106 -38q19 -20 27 -50t8 -81v-267q0 -28 7.5 -43.5t24.5 -22.5q17 -6 45 -6v-21q-48 2 -63 2l-57 2l-56 -2q-14 0 -56 -2v21q25 0 38.5 6.5t20.5 21.5t7 44v289q0 39 -6.5 62.5t-23.5 37.5q-18 15 -51 15q-41 0 -73 -23t-49 -64
q-19 -41 -19 -94v-223q0 -53 28 -66q14 -6 38 -6v-21q-44 2 -57 2l-54 2l-59 -2q-14 0 -62 -2v21q29 0 45.5 6.5t23.5 21.5q8 18 8 44v557q0 53 -27 83q-17 17 -40.5 25.5t-47.5 8.5q-39 0 -64.5 -24t-31.5 -58q-7 -31 -7 -77v-94h128v-20h-128v-401q0 -39 21 -55.5
t66 -16.5v-21l-132 4l-53 -2q-14 0 -68 -2v21q29 0 45.5 6.5t23.5 21.5t7 44v401h-80v20h80q0 59 5 97t18 69q16 34 41 56q52 46 127 46q24 0 57 -5q42 -5 66 -5q50 0 83 11v-374z" />
    <glyph glyph-name="f_j.liga" unicode="fj" horiz-adv-x="599" 
d="M105 514q0 136 73 203q68 65 187 65q40 0 75.5 -8t58.5 -22q34 -22 34 -55q0 -18 -9 -33t-24 -23q-13 -9 -31 -9q-17 0 -32 8.5t-24 23.5t-9 32q0 18 9 33t25 23q-24 15 -73 15q-100 0 -142 -77q-15 -27 -21.5 -66.5t-6.5 -109.5h161q63 0 98.5 2.5t67.5 9.5v-411
q0 -88 -11.5 -146.5t-40.5 -95.5q-23 -29 -55.5 -45t-65.5 -16q-29 0 -48 13t-19 40q0 21 12.5 34t34.5 13q20 0 32.5 -13t12.5 -32q0 -23 -17 -40q26 3 42 13.5t24 30.5q10 23 10 64v471q0 47 -17.5 67.5t-59.5 20.5h-161v-391q0 -45 25.5 -63.5t80.5 -18.5v-21l-92 3
l-62 1l-47 -1l-71 -3v21q29 0 45.5 6.5t23.5 21.5t7 44v401h-80v20h80z" />
    <glyph glyph-name="f_k.liga" unicode="fk" horiz-adv-x="867" 
d="M790 73q18 -25 33.5 -37t35.5 -15v-21l-36 2l-45 2l-51 -2q-14 0 -60 -2v21q15 0 23 5.5t8 13.5t-6 15l-114 168q-18 25 -33.5 34t-42.5 10v-174q0 -53 28 -66q14 -6 38 -6v-21q-44 2 -57 2l-54 2l-59 -2q-14 0 -62 -2v21q29 0 45.5 6.5t23.5 21.5q8 18 8 44v557
q0 53 -27 83q-17 17 -40.5 25.5t-47.5 8.5q-39 0 -64.5 -24t-31.5 -58q-7 -31 -7 -77v-94h128v-20h-128v-401q0 -39 21 -55.5t66 -16.5v-21l-132 4l-53 -2q-14 0 -68 -2v21q29 0 45.5 6.5t23.5 21.5t7 44v401h-80v20h80q0 59 5 97t18 69q16 34 41 56q52 46 127 46
q24 0 57 -5q42 -5 66 -5q50 0 83 11v-495q30 4 49.5 13t36.5 28l75 77q31 32 31 55q0 17 -19 25.5t-54 8.5v20l25 -1q53 -3 87 -3q33 0 87 4v-20q-49 -5 -90 -47l-121 -128z" />
    <glyph glyph-name=".notdef" horiz-adv-x="562" 
d="M60 0v772h441v-772h-441zM96 30h369v712h-369v-712z" />
    <glyph glyph-name=".null" horiz-adv-x="0" 
 />
    <glyph glyph-name="nonmarkingreturn" unicode="&#xd;" horiz-adv-x="0" 
 />
    <glyph glyph-name="space" unicode=" " horiz-adv-x="200" 
 />
    <glyph glyph-name="exclam" unicode="!" horiz-adv-x="160" 
d="M118 710l-24 -574h-27l-24 574h75zM48 1q-13 13 -13 32t13 32t32 13t32 -13t13 -32t-13 -32t-32 -13t-32 13z" />
    <glyph glyph-name="quotedbl" unicode="&#x22;" horiz-adv-x="299" 
d="M48.5 665q13.5 13 31.5 13q19 0 31.5 -13.5t12.5 -33.5q0 -25 -15.5 -50.5t-38.5 -45.5l-12 11q20 19 34 43l-1 1q-8 -2 -12 -2q-20 0 -32 13.5t-12 30.5q0 20 13.5 33zM188.5 665q13.5 13 31.5 13q19 0 31.5 -13.5t12.5 -33.5q0 -25 -15.5 -50.5t-38.5 -45.5l-12 11
q20 19 34 43l-1 1q-8 -2 -12 -2q-20 0 -32 13.5t-12 30.5q0 20 13.5 33z" />
    <glyph glyph-name="numbersign" unicode="#" horiz-adv-x="550" 
d="M419 425l-40 -142h136v-55h-151l-65 -228h-58l65 228h-132l-65 -228h-58l65 228h-81v55h96l40 142h-136v55h152l65 230h58l-65 -230h132l65 230h58l-65 -230h80v-55h-96zM361 425h-132l-40 -142h132z" />
    <glyph glyph-name="dollar" unicode="$" horiz-adv-x="523" 
d="M315 392q60 -37 93.5 -66t52.5 -64q20 -36 20 -86q0 -53 -20.5 -92t-59.5 -63q-36 -23 -86 -32v-121h-20v119q-8 -1 -25 -1q-26 0 -39 2v-120h-20v123q-37 7 -79 32q-22 14 -33 14q-9 0 -15 -10q-4 -8 -7 -34h-23q4 74 4 240h23q5 -89 37 -146.5t93 -74.5v325
q-52 32 -83 60t-50 63q-19 37 -19 86t20 85.5t55 58.5q34 21 77 27v123h20v-121h16q29 0 48 -4v125h20v-130q23 -7 54 -28q22 -14 33 -14q10 0 15 11q4 9 7 33h24q-6 -55 -6 -204h-23q-4 65 -30.5 113t-73.5 68v-297zM295 695q-15 5 -40 5q-16 0 -24 -2v-254l64 -40v291z
M211 693q-36 -11 -57 -40.5t-21 -68.5t19 -68.5t59 -57.5v235zM231 8q22 -2 32 -2q17 0 32 3v275q-39 26 -59 38l-5 3v-317zM315 15q36 14 57 45.5t21 78.5q0 39 -19 70t-59 61v-255z" />
    <glyph glyph-name="percent" unicode="%" horiz-adv-x="484" 
d="M218 695.5q-31 26.5 -75 26.5h-4q-44 0 -74 -26.5t-30 -73.5v-66q0 -45 30.5 -72t73.5 -27h4q43 0 74.5 27t31.5 72v66q0 47 -31 73.5zM379 710h60l-332 -710h-61zM185 518q0 -19 -13 -32.5t-33 -13.5q-16 0 -28 13.5t-12 32.5v143q0 19 11 32t28 13q21 0 34 -12.5
t13 -32.5v-143zM266 14.5q31 -26.5 75 -26.5h4q44 0 74 26.5t30 73.5v66q0 45 -30.5 72t-73.5 27h-4q-43 0 -74.5 -27t-31.5 -72v-66q0 -47 31 -73.5zM299 192q0 19 13 32.5t33 13.5q16 0 28 -13.5t12 -32.5v-143q0 -19 -11 -32t-28 -13q-21 0 -34 12.5t-13 32.5v143z" />
    <glyph glyph-name="ampersand" unicode="&#x26;" horiz-adv-x="837" 
d="M745 706q33 -16 52 -47q19 -29 19 -72q0 -47 -25 -82t-69 -58q-44 -20 -149 -52q55 -24 82.5 -67.5t27.5 -102.5q0 -63 -37.5 -118t-105.5 -87q-69 -34 -163 -34q-88 0 -161.5 31t-117.5 87q-44 54 -44 131q0 62 30.5 108t76.5 73q45 24 77 32q-48 21 -74 55.5t-26 73.5
q0 34 19.5 62.5t57.5 45.5q39 17 92 17q66 0 104 -30q18 -15 27.5 -33t9.5 -36q0 -23 -16.5 -38t-39.5 -15q-22 0 -37.5 13.5t-15.5 36.5q0 22 15 37.5t39 17.5q-5 13 -26.5 22.5t-50.5 9.5q-53 0 -84 -31.5t-31 -87.5q0 -67 50 -114q35 6 62 6q19 0 30 -6t11 -17
q0 -9 -7.5 -14t-20.5 -5q-25 0 -59 16q-7 3 -10.5 4t-4.5 2q-129 -39 -129 -164q0 -66 34.5 -115t96.5 -75q61 -26 137 -26q72 0 131.5 22.5t95.5 63.5q35 41 35 97q0 45 -23.5 84.5t-76.5 60.5q-96 -30 -127.5 -42.5t-52.5 -32.5q-23 -19 -23 -50q0 -24 13.5 -42t36.5 -28
t41 -10q19 0 38.5 6t21.5 16q-20 3 -33 16t-13 35q0 23 15.5 37.5t38.5 14.5q24 0 39 -14.5t15 -39.5q0 -26 -17.5 -46t-46.5 -30q-27 -10 -56 -10q-31 0 -59.5 13.5t-45.5 38.5q-19 27 -19 65q0 51 34.5 86.5t104.5 59.5q10 4 51 16l24 7q65 18 102 30t67 26q46 22 66 45
t20 51q0 27 -16 50.5t-43 37.5q-26 13 -58 13q-24 0 -29 -9q12 -7 19.5 -19.5t7.5 -26.5q0 -20 -16.5 -34.5t-39.5 -14.5t-37.5 13.5t-14.5 36.5q0 24 15.5 39.5t42.5 22.5q24 7 51 7q42 0 75 -16z" />
    <glyph glyph-name="quotesingle" unicode="'" horiz-adv-x="159" 
d="M48.5 665q13.5 13 31.5 13q19 0 31.5 -13.5t12.5 -33.5q0 -25 -15.5 -50.5t-38.5 -45.5l-12 11q20 19 34 43l-1 1q-8 -2 -12 -2q-20 0 -32 13.5t-12 30.5q0 20 13.5 33z" />
    <glyph glyph-name="parenleft" unicode="(" horiz-adv-x="209" 
d="M174 710q-75 -178 -75 -356q0 -177 75 -354h-56q-38 78 -60.5 173t-22.5 182t22.5 182t60.5 173h56z" />
    <glyph glyph-name="parenright" unicode=")" horiz-adv-x="209" 
d="M151.5 537q22.5 -95 22.5 -182t-22.5 -182t-60.5 -173h-56q75 177 75 354q0 178 -75 356h56q38 -78 60.5 -173z" />
    <glyph glyph-name="asterisk" unicode="*" horiz-adv-x="388" 
d="M57 431l120 -61l-20 132h75l-20 -132l118 60l23 -71l-132 -21l94 -95l-60 -44l-61 119l-62 -118l-60 43l94 95l-131 23z" />
    <glyph glyph-name="plus" unicode="+" horiz-adv-x="392" 
d="M40 382h129v128h55v-128h128v-55h-128v-129h-55v129h-129v55z" />
    <glyph glyph-name="comma" unicode="," horiz-adv-x="159" 
d="M48.5 65q13.5 13 31.5 13q19 0 31.5 -13.5t12.5 -33.5q0 -25 -15.5 -50.5t-38.5 -45.5l-12 11q20 19 34 43l-1 1q-8 -2 -12 -2q-20 0 -32 13.5t-12 30.5q0 20 13.5 33z" />
    <glyph glyph-name="hyphen" unicode="-" horiz-adv-x="330" 
d="M290 351v-74h-250v74h250z" />
    <glyph glyph-name="period" unicode="." horiz-adv-x="160" 
d="M48.5 1.5q-13.5 13.5 -13.5 32.5q0 18 13.5 31t32.5 13q18 0 31 -13t13 -31q0 -19 -13 -32.5t-31 -13.5q-19 0 -32.5 13.5z" />
    <glyph glyph-name="slash" unicode="/" horiz-adv-x="329" 
d="M294 710l-201 -710h-58l201 710h58z" />
    <glyph glyph-name="zero" unicode="0" horiz-adv-x="331" 
d="M76.5 19.5q36.5 -31.5 88.5 -31.5h3q51 0 87 31.5t36 85.5v500q0 53 -36 85t-87 32h-3q-51 0 -88 -32t-37 -85v-500q0 -54 36.5 -85.5zM114 650q0 23 15 38.5t38 15.5q20 0 35 -16t15 -38v-591q0 -22 -14 -37.5t-34 -15.5q-23 0 -39 15.5t-16 37.5v591z" />
    <glyph glyph-name="one" unicode="1" horiz-adv-x="232" 
d="M118 700h74v-700h-74v644h-2q-27 -73 -70 -146l-16 10q52 87 88 192z" />
    <glyph glyph-name="two" unicode="2" horiz-adv-x="327" 
d="M279 411.5q2 18.5 2 46.5v147q0 53 -36 85t-87 32h-3q-51 0 -88 -32t-37 -85v-147q0 -54 36 -85.5t87 -31.5q10 0 22.5 3t18.5 7h2q-8 -37 -28 -69.5t-56 -79.5q-38 -50 -56 -82t-18 -66v-54h254v74h-231q2 27 24.5 58t68.5 83q44 48 72.5 84.5t43.5 74.5q7 19 9 37.5z
M104 650q0 23 15 38.5t38 15.5q20 0 35 -16t15 -38v-241q0 -22 -14 -37.5t-36 -15.5t-37.5 15.5t-15.5 37.5v241z" />
    <glyph glyph-name="three" unicode="3" horiz-adv-x="316" 
d="M66.5 21.5q36.5 -31.5 88.5 -31.5h3q51 0 87 31.5t36 85.5v157q0 39 -20.5 67t-54.5 41q34 13 54.5 41t20.5 67v125q0 53 -36 85t-87 32h-3q-51 0 -88 -32t-37 -85v-95h74v140q0 23 15 38.5t38 15.5q20 0 35 -16t15 -38v-215q0 -23 -15 -38.5t-38 -15.5h-20v-18h20
q23 0 38 -15.5t15 -38.5v-248q0 -22 -14 -37.5t-34 -15.5q-23 0 -39 15.5t-16 37.5v188h-74v-142q0 -54 36.5 -85.5z" />
    <glyph glyph-name="four" unicode="4" horiz-adv-x="387" 
d="M352 252h-53v-264h-74v264h-195v27q155 228 155 431h84q-16 -98 -72.5 -205.5t-138.5 -225.5h167v132q43 38 71 84h3v-216h53v-27z" />
    <glyph glyph-name="five" unicode="5" horiz-adv-x="316" 
d="M30 398h54q16 20 33 27.5t37 7.5q23 0 38 -15.5t15 -37.5v-319q0 -22 -15 -37.5t-38 -15.5q-20 0 -35 15.5t-15 37.5v188h-74v-142q0 -54 36 -85.5t87 -31.5h3q52 0 88.5 31.5t36.5 85.5v227q0 54 -36 85.5t-87 31.5q-24 0 -44 -5t-43 -18h-2v208h212v74h-251v-312z" />
    <glyph glyph-name="six" unicode="6" horiz-adv-x="326" 
d="M291 286q0 54 -36 85.5t-87 31.5q-11 0 -27.5 -4t-26.5 -10v261q0 22 15 38t35 16q23 0 38 -15.5t15 -38.5v-65h74v20q0 53 -37 85t-88 32h-3q-51 0 -87 -32t-36 -85v-500q0 -54 36 -85.5t87 -31.5h3q52 0 88.5 31.5t36.5 85.5v181zM114 332q0 21 15 37t35 16
q23 0 38 -15.5t15 -37.5v-273q0 -22 -15 -37.5t-38 -15.5q-20 0 -35 15.5t-15 37.5v273z" />
    <glyph glyph-name="seven" unicode="7" horiz-adv-x="324" 
d="M35 637v74h254v-74q0 -70 -14 -117.5t-46 -115.5q-3 -7 -7 -15t-9 -19q-27 -60 -39 -106t-15 -100.5t-3 -163.5h-84q0 78 11.5 135t29.5 98t51 102l22 41l4.5 9t6.5 11q25 48 38 78t22 70.5t9 92.5h-231z" />
    <glyph glyph-name="eight" unicode="8" horiz-adv-x="321" 
d="M260.5 445q-25.5 -30 -65.5 -39q40 -9 65.5 -38.5t25.5 -74.5v-186q0 -54 -36 -85.5t-87 -31.5h-3q-52 0 -88.5 31.5t-36.5 85.5v186q0 45 26.5 74.5t66.5 38.5q-40 10 -66.5 39.5t-26.5 74.5v85q0 53 37 85t88 32h3q51 0 87 -32t36 -85v-85q0 -45 -25.5 -75zM212 650
q0 22 -15 38t-35 16q-23 0 -38 -15.5t-15 -38.5v-179q0 -22 15.5 -37.5t37.5 -15.5t36 15.5t14 37.5v179zM197 379q-15 16 -35 16q-23 0 -38 -15.5t-15 -38.5v-280q0 -22 16 -37.5t39 -15.5q20 0 34 15.5t14 37.5v280q0 22 -15 38z" />
    <glyph glyph-name="nine" unicode="9" horiz-adv-x="326" 
d="M35 426q0 -54 36 -85.5t87 -31.5q11 0 27.5 4t26.5 10v-261q0 -22 -15 -38t-35 -16q-23 0 -38 15.5t-15 38.5v65h-74v-20q0 -53 37 -85t88 -32h3q51 0 87 32t36 85v498q0 54 -36 85.5t-87 31.5h-3q-52 0 -88.5 -31.5t-36.5 -85.5v-179zM212 380q0 -21 -15 -37t-35 -16
q-23 0 -38 15.5t-15 37.5v271q0 22 15 37.5t38 15.5q20 0 35 -15.5t15 -37.5v-271z" />
    <glyph glyph-name="colon" unicode=":" horiz-adv-x="160" 
d="M48.5 201.5q-13.5 13.5 -13.5 32.5q0 18 13.5 31t32.5 13q18 0 31 -13t13 -31q0 -19 -13 -32.5t-31 -13.5q-19 0 -32.5 13.5zM48.5 1.5q-13.5 13.5 -13.5 32.5q0 18 13.5 31t32.5 13q18 0 31 -13t13 -31q0 -19 -13 -32.5t-31 -13.5q-19 0 -32.5 13.5z" />
    <glyph glyph-name="semicolon" unicode=";" horiz-adv-x="160" 
d="M48.5 201.5q-13.5 13.5 -13.5 32.5q0 18 13.5 31t32.5 13q18 0 31 -13t13 -31q0 -19 -13 -32.5t-31 -13.5q-19 0 -32.5 13.5zM49.5 65q13.5 13 31.5 13q19 0 31.5 -13.5t12.5 -33.5q0 -25 -15.5 -50.5t-38.5 -45.5l-12 11q20 19 34 43l-1 1q-8 -2 -12 -2q-20 0 -32 13.5
t-12 30.5q0 20 13.5 33z" />
    <glyph glyph-name="less" unicode="&#x3c;" horiz-adv-x="323" 
d="M222 110l-182 252l182 252h66l-182 -252l182 -252h-66z" />
    <glyph glyph-name="equal" unicode="=" horiz-adv-x="440" 
d="M400 480v-55h-360v55h360zM400 283v-55h-360v55h360z" />
    <glyph glyph-name="greater" unicode="&#x3e;" horiz-adv-x="323" 
d="M217 362l-182 252h66l182 -252l-182 -252h-66z" />
    <glyph glyph-name="question" unicode="?" horiz-adv-x="321" 
d="M109 510h-74v95q0 54 37 85.5t89 31.5q57 0 91 -32t34 -85q0 -49 -7.5 -81t-19 -52.5t-32.5 -47.5q-34 -44 -52 -81q-17 -36 -23 -69.5t-6 -112.5v-25h-27v25q0 75 8.5 119t26.5 90q7 19 15 37q25 60 34.5 95.5t9.5 86.5v62q0 21 -16 37t-36 16q-21 0 -36.5 -15.5
t-15.5 -37.5v-141zM176 65q13 -13 13 -32t-13 -32t-32 -13t-32 13t-13 32t13 32t32 13t32 -13z" />
    <glyph glyph-name="at" unicode="@" horiz-adv-x="878" 
d="M582 -102q-39 -28 -94.5 -43.5t-119.5 -15.5q-200 0 -279 133q-41 70 -41 171q0 133 65.5 255t176.5 196q112 74 242 74q92 0 161.5 -30t109.5 -90q41 -62 41 -155q0 -104 -43.5 -188t-113.5 -133q-69 -46 -133 -46q-73 0 -73 65q0 25 11 60q2 6 3 9.5t2 5.5v1
q-29 -73 -66 -107t-89 -34t-77 32t-25 89q0 74 35.5 151.5t91.5 128.5t111 51q60 0 72 -53l8 39q55 0 89 14l-84 -367q-6 -21 -6 -34q0 -14 7 -20t22 -6q46 0 102 44t95 118q41 80 41 181q0 87 -37.5 144.5t-105.5 85.5q-67 26 -148 26q-120 0 -227.5 -69t-172.5 -186
q-65 -118 -65 -250q0 -98 37.5 -163t106.5 -95q68 -30 157 -30q114 0 206 54zM543 393q-1 32 -16.5 47t-45.5 15q-40 0 -76.5 -44.5t-58.5 -116.5q-21 -70 -21 -141q0 -97 51 -97q26 0 52.5 26t50.5 75q22 46 39 114z" />
    <glyph glyph-name="A" unicode="A" horiz-adv-x="630" 
d="M567 84q24 -62 69 -64v-20q-40 3 -107 3q-86 0 -128 -3v20q39 2 55 9.5t16 27.5q0 17 -12 47l-62 164h-241l-41 -106q-20 -52 -20 -82q0 -31 21 -45t66 -15v-20q-57 3 -115 3q-45 0 -75 -3v20q50 11 79 87l235 606h16zM279 586l-114 -298h226z" />
    <glyph glyph-name="B" unicode="B" horiz-adv-x="623" 
d="M374 374q106 -14 155 -61t49 -119q0 -57 -29 -100.5t-84 -68.5q-53 -25 -128 -25q-36 0 -70 1q-68 2 -101 2q-83 0 -124 -3v20q37 2 52.5 8t22.5 23q6 18 6 55v496q0 38 -6.5 55t-22.5 23q-14 6 -52 8v20q40 -3 122 -3l86 1q31 1 64 1q68 0 115.5 -19.5t71.5 -55.5
q24 -34 24 -82q0 -60 -37.5 -105t-113.5 -69v-2zM283 376q78 0 112.5 42t34.5 121q0 76 -33.5 112.5t-106.5 36.5q-32 0 -47.5 -7t-21.5 -25t-6 -54v-226h68zM215 106q0 -36 6 -53t22 -24q15 -6 48 -6q187 0 187 175q0 80 -43.5 120.5t-135.5 40.5h-84v-253z" />
    <glyph glyph-name="C" unicode="C" horiz-adv-x="688" 
d="M600 0q-3 29 -8 45q-6 14 -17 14q-7 0 -20 -8q-32 -23 -57 -35.5t-56 -20.5q-31 -9 -72 -9q-96 0 -167 43t-111 125q-39 81 -39 194q0 110 40.5 195t112.5 132q70 47 165 47q56 0 98 -16t86 -49q11 -9 19 -9q20 0 26 60h23q-4 -57 -4 -230h-23q-8 46 -14 70.5t-14 41.5
q-7 17 -23 36q-29 38 -75.5 58t-100.5 20q-65 0 -114 -42.5t-76 -122.5q-27 -81 -27 -187q0 -107 29 -185.5t81 -120.5q52 -40 116 -40q53 0 99.5 19.5t71.5 56.5q20 27 29 57.5t18 100.5h23q0 -180 4 -240h-23z" />
    <glyph glyph-name="D" unicode="D" horiz-adv-x="723" 
d="M42 708q52 -3 97 -3h25l150 3q176 0 264.5 -88t88.5 -258q0 -109 -43 -191t-124 -126q-81 -45 -194 -45l-65 1l-75 2q-83 0 -124 -3v20q37 2 52.5 8t22.5 23q6 18 6 55v496q0 38 -6.5 55t-22.5 23q-14 6 -52 8v20zM215 104q0 -36 6 -54t22 -25q18 -7 48 -7
q104 0 165.5 38t86.5 113q24 75 24 189q0 117 -27 188.5t-87 107.5t-163 36q-32 0 -47.5 -7t-21.5 -25t-6 -54v-500z" />
    <glyph glyph-name="E" unicode="E" horiz-adv-x="609" 
d="M557 200q-3 -27 -3 -72q0 -62 7 -128q-69 3 -229 3q-192 0 -290 -3v20q37 2 52.5 8t22.5 23q6 18 6 55v496q0 38 -6.5 55t-22.5 23q-14 6 -52 8v20q97 -3 290 -3q146 0 209 3q-7 -60 -7 -118q0 -39 3 -62h-23q-8 67 -19.5 98t-36.5 45q-26 14 -79 14h-83q-37 0 -53 -6
t-21 -22q-7 -15 -7 -55v-236h67q45 0 63.5 26t23.5 66l6 40h22q-3 -49 -3 -94l1 -48q0 -66 5 -142h-23l-5 48q-9 84 -90 84h-67v-240q0 -38 6.5 -54.5t22.5 -22.5q17 -6 52 -6h74q62 0 94.5 16.5t47.5 53.5q13 34 22 107h23z" />
    <glyph glyph-name="F" unicode="F" horiz-adv-x="569" 
d="M42 708q97 -3 290 -3q146 0 209 3q-7 -66 -7 -128q0 -50 3 -82h-23q-9 82 -21 117.5t-41 52.5q-31 17 -93 17h-63q-37 0 -53 -6t-21 -22q-7 -15 -7 -55v-246h74q44 0 63 26t24 65q2 18 5 41h23q-3 -49 -3 -94v-48q0 -58 7 -142h-24l-5 48q-9 84 -90 84h-74v-230
q0 -38 8 -55t28 -23q18 -6 65 -8v-20q-51 3 -147 3q-86 0 -127 -3v20q37 2 52.5 8t22.5 23q6 18 6 55v496q0 38 -6.5 55t-22.5 23q-14 6 -52 8v20z" />
    <glyph glyph-name="G" unicode="G" horiz-adv-x="703" 
d="M598 0q-2 22 -9.5 39.5t-18.5 17.5q-6 0 -12 -3t-20 -14q-36 -28 -73.5 -41t-83.5 -13q-102 0 -175.5 42.5t-112.5 122.5t-39 191q0 113 40.5 199.5t114.5 134.5q73 46 166 46q72 0 127 -30q20 -11 54 -35q11 -10 20 -10q19 0 25 61h23q-4 -57 -4 -230h-23
q-10 58 -20.5 91t-30.5 57q-29 36 -75.5 57t-96.5 21q-66 0 -116 -42.5t-77 -122.5q-28 -82 -28 -186q0 -120 25.5 -196.5t78.5 -113.5q52 -37 135 -37q60 0 104 31q17 12 22.5 23t5.5 32v96q0 42 -7.5 61t-28.5 26q-19 7 -65 9v20q49 -3 141 -3q71 0 104 3v-20
q-23 -2 -33 -8.5t-13 -22.5q-4 -15 -4 -55v-198h-20z" />
    <glyph glyph-name="H" unicode="H" horiz-adv-x="757" 
d="M714 688q-37 -2 -53 -8t-21 -23q-7 -15 -7 -55v-496q0 -38 6.5 -55t22.5 -23q14 -6 52 -8v-20q-40 3 -128 3q-79 0 -127 -3v20q38 2 53.5 8t22.5 23q6 18 6 55v240h-326v-240q0 -38 6.5 -55t22.5 -23q14 -6 52 -8v-20q-45 3 -127 3q-86 0 -127 -3v20q37 2 52.5 8t22.5 23
q6 18 6 55v496q0 38 -6.5 55t-22.5 23q-14 6 -52 8v20q40 -3 127 -3q82 0 127 3v-20q-37 -2 -53 -8t-21 -23q-7 -15 -7 -55v-236h326v236q0 38 -6.5 55t-22.5 23q-14 6 -53 8v20q48 -3 127 -3q88 0 128 3v-20z" />
    <glyph glyph-name="I" unicode="I" 
d="M296 688q-37 -2 -53 -8t-21 -23q-7 -15 -7 -55v-496q0 -38 6.5 -55t22.5 -23q14 -6 52 -8v-20q-45 3 -127 3q-86 0 -127 -3v20q37 2 52.5 8t22.5 23q6 18 6 55v496q0 38 -6.5 55t-22.5 23q-14 6 -52 8v20q40 -3 127 -3q82 0 127 3v-20z" />
    <glyph glyph-name="J" unicode="J" horiz-adv-x="326" 
d="M291 688q-37 -2 -53 -8t-22 -23q-6 -16 -6 -55v-366q0 -94 -3.5 -157t-13.5 -104q-11 -47 -39.5 -84t-71.5 -58q-45 -21 -100 -21q-53 0 -92.5 22.5t-39.5 64.5q0 23 15 38t38 15q24 0 39.5 -15t15.5 -39q0 -41 -42 -51q8 -8 26 -12t38 -4q43 0 74.5 22.5t45.5 62.5
q9 27 14 78q3 47 3 151v457q0 38 -6 55t-22 23q-14 6 -53 8v20q42 -3 128 -3q80 0 127 3v-20z" />
    <glyph glyph-name="K" unicode="K" horiz-adv-x="655" 
d="M565 81q16 -25 37 -39t51 -22v-20q-46 3 -119 3q-55 0 -103 -3v20q27 2 34 6q12 5 12 15q0 8 -11 24l-146 220q-20 30 -34.5 45t-29.5 21q-19 6 -41 7v-252q0 -38 6.5 -55t22.5 -23q14 -6 52 -8v-20q-45 3 -127 3q-86 0 -127 -3v20q37 2 52.5 8t22.5 23q6 18 6 55v496
q0 38 -6.5 55t-22.5 23q-14 6 -52 8v20q40 -3 127 -3q82 0 127 3v-20q-37 -2 -53 -8t-21 -23q-7 -15 -7 -55v-224q74 3 115 56l95 122q52 67 52 96q0 34 -62 36v20q57 -3 114 -3q56 0 86 3v-20q-35 -5 -64 -22t-54 -51l-164 -209z" />
    <glyph glyph-name="L" unicode="L" horiz-adv-x="588" 
d="M296 688q-37 -2 -53 -8t-21 -23q-7 -15 -7 -55v-496q0 -38 6.5 -54.5t22.5 -22.5q17 -6 52 -6h74q62 0 94.5 17.5t47.5 56.5q13 37 22 113h23q-3 -31 -3 -82q0 -62 7 -128q-69 3 -229 3q-192 0 -290 -3v20q37 2 52.5 8t22.5 23q6 18 6 55v496q0 38 -6.5 55t-22.5 23
q-14 6 -52 8v20q40 -3 127 -3q82 0 127 3v-20z" />
    <glyph glyph-name="M" unicode="M" horiz-adv-x="871" 
d="M829 688q-38 -2 -53.5 -8t-21.5 -23q-6 -16 -6 -55v-496q0 -38 6 -55t22 -23q14 -6 53 -8v-20q-48 3 -127 3q-86 0 -128 -3v20q37 2 52.5 8t21.5 23q6 18 6 55v535l-240 -646h-17l-251 649v-528q0 -39 7 -58t25 -28q17 -8 58 -10v-20q-36 3 -102 3q-60 0 -92 -3v20
q35 2 51.5 10.5t22.5 27.5q7 18 7 58v486q0 38 -6.5 55t-22.5 23q-14 6 -52 8v20q32 -3 92 -3q53 0 86 3l219 -580l215 577h48q79 0 127 3v-20z" />
    <glyph glyph-name="N" unicode="N" horiz-adv-x="706" 
d="M669 688q-35 -2 -51.5 -10.5t-22.5 -27.5q-7 -18 -7 -58v-597h-23l-419 649v-528q0 -39 7 -58t25 -28q17 -8 58 -10v-20q-36 3 -102 3q-60 0 -92 -3v20q35 2 51.5 10.5t22.5 27.5q7 18 7 58v486q0 38 -6.5 55t-22.5 23q-14 6 -52 8v20q32 -3 92 -3q45 0 78 3l353 -544
v428q0 40 -6.5 59t-25.5 27q-17 8 -58 10v20q36 -3 102 -3q59 0 92 3v-20z" />
    <glyph glyph-name="O" unicode="O" horiz-adv-x="741" 
d="M538 679q71 -43 110 -124q40 -85 40 -195q0 -109 -40.5 -194.5t-113.5 -132.5q-70 -47 -164 -47q-96 0 -167 43t-111 125q-39 81 -39 194q0 110 40.5 195t112.5 132q70 47 165 47q96 0 167 -43zM254 660q-49 -44 -75 -125q-27 -79 -27 -183q0 -103 29 -182.5t81 -122.5
q49 -43 112 -43t112 44.5t75 124.5q26 78 26 183q0 103 -29 182t-79 123q-50 43 -112 43q-64 0 -113 -44z" />
    <glyph glyph-name="P" unicode="P" horiz-adv-x="585" 
d="M215 106q0 -38 8 -55t28 -23q18 -6 65 -8v-20q-51 3 -147 3q-86 0 -127 -3v20q37 2 52.5 8t22.5 23q6 18 6 55v496q0 38 -6.5 55t-22.5 23q-14 6 -52 8v20q40 -3 122 -3l86 1q31 1 64 1q78 0 133 -24.5t82 -69.5t27 -103q0 -59 -26 -108.5t-82 -81.5q-58 -34 -156 -34
h-77v-180zM283 306q93 0 133 49.5t40 143.5q0 65 -17 106.5t-53 61.5q-36 21 -96 21q-32 0 -47.5 -7t-21.5 -25t-6 -54v-296h68z" />
    <glyph glyph-name="Q" unicode="Q" horiz-adv-x="741" 
d="M763 -29q-24 -80 -70.5 -119.5t-128.5 -39.5q-44 0 -85.5 12.5t-119.5 47.5q-65 28 -116 46q-8 2 -13 4l-11 3q-45 -15 -83 -15q-47 0 -47 20q0 21 55 21q33 0 75 -8q17 4 35 11.5t39 17.5l39 16q-85 8 -148 53.5t-97 123.5q-34 77 -34 183q0 110 40.5 195t112.5 132
q70 47 165 47q96 0 167 -43t110 -124q40 -85 40 -195q0 -103 -36 -185t-102 -131q-62 -48 -149 -57q-23 -3 -40.5 -8.5t-51.5 -20.5q-34 -14 -56 -20q128 -25 199 -36.5t118 -11.5q71 0 112.5 20.5t65.5 66.5zM181 169.5q29 -79.5 81 -122.5q49 -43 112 -43t112 44.5
t75 124.5q26 78 26 183q0 103 -29 182t-79 123q-50 43 -112 43q-64 0 -113 -44t-75 -125q-27 -79 -27 -183q0 -103 29 -182.5z" />
    <glyph glyph-name="R" unicode="R" horiz-adv-x="648" 
d="M660 50q-25 -35 -48 -49.5t-59 -14.5q-43 0 -69 25t-39 83l-22 100q-12 57 -22.5 83t-30.5 42q-21 17 -59 17h-96v-230q0 -38 6.5 -55t22.5 -23q14 -6 52 -8v-20q-45 3 -127 3q-86 0 -127 -3v20q37 2 52.5 8t22.5 23q6 18 6 55v496q0 38 -6.5 55t-22.5 23q-14 6 -52 8v20
q40 -3 122 -3l86 1q31 1 64 1q77 0 131.5 -22t82.5 -62q28 -42 28 -90q0 -42 -19.5 -81t-60.5 -69q-45 -32 -115 -42l13 -2q45 -8 71.5 -22.5t42.5 -40.5q15 -23 26 -69l25 -102q11 -59 28 -74q10 -8 23 -8q16 0 27 8t28 30zM283 356q125 0 158 79q15 36 15 87
q0 83 -40 124.5t-126 41.5q-32 0 -47.5 -7t-21.5 -25t-6 -54v-246h68z" />
    <glyph glyph-name="S" unicode="S" horiz-adv-x="540" 
d="M89 233q8 -107 52 -167t130 -60q36 0 65.5 14.5t46.5 43.5q18 28 18 75q0 70 -69 125q-27 21 -86 58q-65 38 -99 66t-56 66q-24 38 -24 92q0 56 25 95t70 59q41 19 93 19q54 0 90 -17q26 -15 32 -20q25 -14 35 -14q9 0 14 11q5 12 8 33h23q-5 -49 -5 -204h-23
q-10 115 -76 165q-36 27 -88 27q-35 0 -63 -14.5t-44 -40.5q-15 -27 -15 -61q0 -49 28.5 -82.5t80.5 -64.5q51 -31 59 -36q69 -43 103 -71.5t55 -64.5q22 -41 22 -89q0 -60 -28 -103.5t-77 -65.5q-48 -21 -108 -21q-45 0 -76 9t-60 28q-25 14 -35 14q-8 0 -14 -10
q-5 -12 -8 -34h-22q3 56 3 240h23z" />
    <glyph glyph-name="T" unicode="T" horiz-adv-x="621" 
d="M33 498q3 32 3 82q0 54 -8 128q82 -3 283 -3q198 0 280 3q-7 -82 -7 -128q0 -50 3 -82h-23q-8 82 -20 117.5t-41 52.5q-31 17 -92 17h-55v-569q0 -41 8 -60.5t29 -26.5q19 -7 65 -9v-20q-54 3 -147 3q-101 0 -148 -3v20q45 2 65.5 9.5t27.5 26.5q8 19 8 60v569h-55
q-61 0 -91.5 -17t-41.5 -55q-12 -34 -20 -115h-23z" />
    <glyph glyph-name="U" unicode="U" horiz-adv-x="682" 
d="M654 688q-35 -2 -51.5 -10.5t-22.5 -27.5t-6 -58v-301q0 -73 -10 -124.5t-31 -87.5q-26 -43 -74.5 -68t-108.5 -25q-111 0 -168 54q-30 28 -46 59t-22 75q-7 41 -7 114v314q0 38 -6 55t-22 23q-14 6 -53 8v20q43 -3 128 -3q80 0 128 3v-20q-38 -2 -53.5 -8t-21.5 -23
q-6 -16 -6 -55v-331q0 -86 11.5 -136.5t44.5 -81.5q35 -32 101 -32q103 0 147.5 65.5t44.5 193.5v312q0 37 -8.5 57t-27.5 29q-18 8 -55 10v20q36 -3 103 -3q59 0 92 3v-20z" />
    <glyph glyph-name="V" unicode="V" horiz-adv-x="630" 
d="M447 708q57 -3 115 -3q45 0 75 3v-20q-50 -11 -79 -87l-235 -606h-16l-244 629q-24 62 -69 64v20q40 -3 107 -3q86 0 128 3v-20q-39 -2 -55 -9.5t-16 -27.5q0 -17 12 -47l181 -480l163 422q20 54 20 81q0 32 -21 46t-66 15v20z" />
    <glyph glyph-name="W" unicode="W" horiz-adv-x="905" 
d="M717 708q57 -3 115 -3q45 0 75 3v-20q-55 -12 -79 -87l-189 -606h-16l-174 515l-159 -515h-16l-212 629q-21 63 -69 64v20q41 -3 107 -3q72 0 108 3v-20q-26 -1 -37.5 -9.5t-11.5 -25.5q0 -14 11 -49l146 -446l122 387l-27 79q-21 63 -59 64v20q36 -3 97 -3q86 0 128 3
v-20q-27 -1 -40 -4t-20 -10q-8 -7 -8 -22q0 -18 10 -48l144 -445l123 387q16 49 16 80q0 33 -19.5 47t-65.5 15v20z" />
    <glyph glyph-name="X" unicode="X" horiz-adv-x="634" 
d="M560 71q13 -21 22 -31t19 -14q12 -5 25 -5v-21q-40 2 -50 2l-35 2l-68 -2q-16 0 -74 -2v21q40 0 56 3q16 5 16 13q0 7 -8 18l-171 262l-107 -161q-39 -57 -39 -88q0 -25 22 -36t67 -12v-20q-55 3 -134 3q-55 0 -85 -3v20q29 4 56 26.5t56 65.5l151 225l-196 300
q-13 21 -22 31t-19 14q-12 5 -25 5v21q38 -2 49 -2l37 -2q41 0 141 4v-21q-67 0 -67 -22q0 -8 9 -22l155 -238l98 147q44 65 44 96q0 21 -19 30t-59 10v20q57 -3 116 -3q54 0 84 3v-20q-30 -4 -57 -26.5t-55 -65.5l-140 -209z" />
    <glyph glyph-name="Y" unicode="Y" horiz-adv-x="591" 
d="M398 708q57 -3 115 -3q45 0 75 3v-20q-20 -5 -39 -26t-41 -63l-157 -311v-182q0 -38 6.5 -55t22.5 -23q14 -6 52 -8v-20q-46 3 -127 3q-86 0 -128 -3v20q37 2 53 8t22 23q6 18 6 55v151l-203 374q-18 32 -32 45q-14 11 -26 11v21q39 -3 88 -3q97 0 140 3v-21
q-70 0 -70 -39q0 -15 10 -34l167 -319l127 254q27 54 27 86q0 27 -21.5 39.5t-66.5 13.5v20z" />
    <glyph glyph-name="Z" unicode="Z" horiz-adv-x="594" 
d="M136 23h211q62 0 94.5 17.5t47.5 56.5q13 37 22 113h23q-4 -32 -4 -82q0 -46 8 -128q-75 3 -249 3q-172 0 -247 -3v20l416 665h-209q-62 0 -95 -17.5t-47 -56.5q-14 -36 -23 -113h-22q2 42 2 82q0 58 -6 128q74 -3 249 -3q170 0 242 3v-20z" />
    <glyph glyph-name="bracketleft" unicode="[" horiz-adv-x="205" 
d="M40 710h130v-18h-66v-674h66v-18h-130v710z" />
    <glyph glyph-name="backslash" unicode="\" horiz-adv-x="329" 
d="M294 0h-58l-201 710h58z" />
    <glyph glyph-name="bracketright" unicode="]" horiz-adv-x="205" 
d="M40 0v18h66v674h-66v18h130v-710h-130z" />
    <glyph glyph-name="asciicircum" unicode="^" horiz-adv-x="436" 
d="M360 474l-141 142l-142 -142l-37 36l178 178l37 -36l141 -142z" />
    <glyph glyph-name="underscore" unicode="_" horiz-adv-x="312" 
d="M282 89v-64h-252v64h252z" />
    <glyph glyph-name="grave" unicode="`" horiz-adv-x="223" 
d="M191 599q-24 26 -50 50.5t-58 52.5q-35 31 -49 49q-14 17 -14 34q0 16 11 25.5t24 9.5q20 0 35 -17.5t35 -56.5q17 -33 36 -68t42 -70z" />
    <glyph glyph-name="a" unicode="a" horiz-adv-x="498" 
d="M319 408q0 56 -22.5 78.5t-69.5 22.5q-71 0 -100 -36q21 -5 34 -21.5t13 -39.5q0 -25 -15.5 -39.5t-42.5 -14.5q-25 0 -39.5 17t-14.5 45q0 35 32 60t75 38q38 11 80 11q40 0 71.5 -10t49.5 -28q22 -23 31 -54t9 -86v-278q0 -25 7 -36t23 -11q12 0 22 5t23 16l12 -17
q-20 -15 -31.5 -22t-25.5 -10q-17 -5 -35 -5q-46 0 -66 23t-20 66q-28 -46 -68 -67.5t-85 -21.5q-36 0 -64.5 12.5t-45.5 36.5t-17 63q0 37 17.5 64t52.5 48q39 22 91 44q6 2 45.5 18t57.5 33q16 15 16 34v62zM319 305q-7 -10 -24 -21l-71 -36q-32 -15 -51 -29.5t-32 -37.5
q-15 -24 -15 -60q0 -43 21.5 -65.5t59.5 -22.5q66 0 112 76v196z" />
    <glyph glyph-name="b" unicode="b" horiz-adv-x="563" 
d="M170 422q22 51 63 79t93 28q56 0 99 -31t67 -91q24 -61 24 -150q0 -85 -29.5 -147t-81.5 -93q-49 -31 -112 -31q-37 0 -71.5 15t-60.5 43l-71 -60l-17 7q7 22 7 58v614q0 47 -17 67.5t-59 20.5v21q32 -3 62 -3q64 0 104 14v-361zM170 59q23 -24 53 -37t62 -13
q68 0 101 61t33 187q0 242 -122 242q-27 0 -52.5 -14.5t-44.5 -42.5q-22 -32 -30 -67v-316z" />
    <glyph glyph-name="c" unicode="c" horiz-adv-x="486" 
d="M451 125q-12 -37 -36 -68.5t-60 -50.5q-38 -20 -88 -20q-63 0 -113.5 32t-78.5 92q-30 60 -30 141t29.5 144.5t83.5 98.5q53 35 120 35t117 -32q46 -31 46 -77q0 -26 -14.5 -41t-37.5 -15q-24 0 -40 13.5t-16 36.5q0 21 12 35.5t30 19.5q-10 18 -35.5 30t-53.5 12
q-39 0 -71 -24.5t-51 -76.5q-21 -52 -21 -144q0 -120 38.5 -178.5t105.5 -58.5q44 0 82 26t63 77z" />
    <glyph glyph-name="d" unicode="d" horiz-adv-x="581" 
d="M484 109q0 -47 17 -67.5t59 -20.5v-21q-31 3 -62 3q-64 0 -104 -14v89q-38 -92 -142 -92q-64 0 -109.5 30.5t-70.5 90.5q-24 62 -24 154q0 84 30 144.5t83 92.5q50 31 113 31q39 0 70.5 -15t49.5 -44v194q0 47 -17 67.5t-59 20.5v21q32 -3 62 -3q64 0 104 14v-675z
M394 429q-29 77 -112 77q-41 0 -71.5 -28t-48.5 -83q-17 -54 -17 -138q0 -241 136 -241q26 0 49 13.5t40 39.5q16 25 24 62v298z" />
    <glyph glyph-name="e" unicode="e" horiz-adv-x="506" 
d="M462 120q-12 -36 -38 -66.5t-63 -48.5q-38 -19 -86 -19q-71 0 -123 32t-79 92q-28 61 -28 135q0 86 28 150.5t79 99.5q50 34 119 34q91 0 139 -55t48 -165h-312q-3 -25 -3 -64q0 -65 21 -114.5t57 -76.5q37 -26 74 -26q102 0 147 100zM362 328q2 51 -8 92t-32 65
q-23 25 -54 25t-57 -20t-44 -60q-18 -41 -22 -102h217z" />
    <glyph glyph-name="f" unicode="f" horiz-adv-x="332" 
d="M105 514q0 112 21 167q26 64 82 88q30 13 67 13q51 0 87 -27q32 -26 32 -62q0 -23 -15 -38t-39 -15q-23 0 -38.5 15t-15.5 39q0 20 11 33.5t31 17.5q-3 9 -16.5 15.5t-33.5 6.5q-41 0 -58.5 -26t-20.5 -71q-4 -35 -4 -130v-26h108v-20h-108v-391q0 -45 25.5 -63.5
t80.5 -18.5v-21l-92 3l-62 1l-47 -1l-71 -3v21q29 0 45.5 6.5t23.5 21.5t7 44v401h-80v20h80z" />
    <glyph glyph-name="g" unicode="g" horiz-adv-x="518" 
d="M382 110q55 0 86.5 -23t31.5 -70q0 -50 -32.5 -96.5t-92.5 -77.5q-63 -31 -155 -31q-54 0 -100 11t-73 31q-28 21 -28 50q0 33 34.5 65t90.5 57h-3q-44 0 -72 17.5t-28 58.5q0 35 29 66t96 61q-45 17 -69 53t-24 89q0 78 49 118t135 40q39 0 71 -9q9 55 35 89
q27 33 69 33q24 0 38 -14t14 -38q0 -20 -13.5 -34t-33.5 -14q-25 0 -36.5 14.5t-17.5 48.5q-13 -12 -23 -39.5t-14 -50.5q46 -17 71 -53t25 -91q0 -52 -23.5 -87.5t-65.5 -53.5q-43 -17 -96 -17q-40 0 -73 9q-44 -23 -64 -41t-20 -38q0 -33 47 -33h235zM189 478.5
q-22 -32.5 -22 -107.5q0 -74 22.5 -107t67.5 -33q46 0 69 32.5t23 107.5t-23 107.5t-69 32.5t-68 -32.5zM168 26q-31 -16 -49 -44t-18 -57q0 -31 20.5 -53t55.5 -33q38 -10 70 -10q46 0 88 16.5t68 47.5q28 33 28 77q0 20 -7 32t-23 18t-47 6h-186z" />
    <glyph glyph-name="h" unicode="h" horiz-adv-x="588" 
d="M186 409q24 62 67.5 91t101.5 29q71 0 106 -38q20 -20 28 -50t8 -81v-267q0 -28 7.5 -43.5t23.5 -22.5q17 -6 45 -6v-21q-54 2 -69 2l-51 2l-58 -2l-55 -2v21q26 0 40 6.5t20 21.5q7 15 7 44v289q0 39 -6.5 62.5t-23.5 37.5q-18 15 -51 15q-41 0 -73 -23t-49 -64
q-18 -39 -18 -94v-223q0 -28 6.5 -43.5t20.5 -22.5q14 -6 38 -6v-21q-44 2 -57 2l-54 2l-57 -2q-15 0 -63 -2v21q29 0 45 6.5t23 21.5q8 18 8 44v570q0 47 -17 67.5t-59 20.5v21q32 -3 62 -3q62 0 104 14v-374z" />
    <glyph glyph-name="i" unicode="i" horiz-adv-x="293" 
d="M174.5 756.5q14.5 -8.5 23.5 -23.5t9 -32t-9 -32t-24 -23q-14 -9 -31 -9t-32 8.5t-24 23.5q-8 16 -8 32q0 17 8.5 32t23.5 23q15 9 32 9t31.5 -8.5zM194 93q0 -28 7.5 -43.5t24.5 -22.5q17 -6 45 -6v-21q-50 2 -64 2l-58 2l-59 -2q-14 0 -62 -2v21q29 0 45.5 6.5
t23.5 21.5t7 44v313q0 47 -17 67.5t-59 20.5v21q31 -3 62 -3q62 0 104 14v-433z" />
    <glyph glyph-name="j" unicode="j" horiz-adv-x="267" 
d="M165 751.5q15 -8.5 23 -23.5q9 -15 9 -32t-8.5 -32t-23.5 -23q-15 -9 -32 -9t-32 9t-23 23q-9 15 -9 32t9 32t23 23q15 9 32 9t32 -8.5zM188 115q0 -87 -12 -146t-41 -96q-23 -29 -55 -45t-66 -16q-36 0 -57 16t-21 45q0 23 14.5 37.5t37.5 14.5q25 0 38.5 -12.5
t13.5 -36.5q0 -34 -38 -48l17 -1q35 0 56 23q23 29 23 85v471q0 47 -17 67.5t-59 20.5v21q31 -3 62 -3q62 0 104 14v-411z" />
    <glyph glyph-name="k" unicode="k" horiz-adv-x="550" 
d="M473 73q20 -26 34.5 -37.5t34.5 -14.5v-21l-39 2l-42 2l-52 -2q-14 0 -58 -2v21q14 0 22 5.5t8 13.5t-6 15l-114 168q-18 25 -33.5 34t-41.5 10v-174q0 -28 6.5 -43.5t20.5 -22.5q14 -6 38 -6v-21q-44 2 -58 2l-52 2l-59 -2q-14 0 -62 -2v21q29 0 45 6.5t23 21.5
q8 18 8 44v571q0 47 -17 67.5t-59 20.5v21q32 -3 62 -3q62 0 104 14v-496q29 4 48.5 13t36.5 28l75 77q31 32 31 55q0 17 -19 25.5t-54 8.5v20l25 -1q52 -3 88 -3q34 0 86 4v-20q-50 -5 -89 -47l-122 -128z" />
    <glyph glyph-name="l" unicode="l" horiz-adv-x="286" 
d="M188 93q0 -28 7.5 -43.5t23.5 -22.5q17 -6 45 -6v-21q-48 2 -62 2l-59 2l-58 -2q-14 0 -64 -2v21q29 0 45.5 6.5t23.5 21.5q8 18 8 44v571q0 47 -17.5 67.5t-59.5 20.5v21q32 -3 62 -3q63 0 105 14v-691z" />
    <glyph glyph-name="m" unicode="m" horiz-adv-x="888" 
d="M796 93q0 -28 7.5 -43.5t24.5 -22.5q17 -6 45 -6v-21q-48 2 -62 2l-59 2l-54 -2q-13 0 -57 -2v21q25 0 38.5 6.5t20.5 21.5t7 44v289q0 41 -5 63.5t-21 36.5q-17 15 -51 15q-37 0 -68 -23.5t-49 -65.5q-17 -40 -17 -92v-223q0 -28 7.5 -43.5t23.5 -22.5q17 -6 44 -6v-21
q-50 2 -64 2l-55 2l-55 -2q-14 0 -58 -2v21q26 0 40 6.5t20 21.5q6 17 6 44v289q0 42 -5 64t-20 36q-16 15 -50 15q-39 0 -70 -24t-48 -66q-18 -42 -18 -92v-222q0 -53 28 -66q14 -6 39 -6v-21l-55 2l-58 2l-57 -2q-15 0 -63 -2v21q29 0 45.5 6.5t23.5 21.5t7 44v313
q0 47 -17 67.5t-59 20.5v21q31 -3 62 -3q62 0 104 14v-118q24 60 67.5 90.5t96.5 30.5q68 0 104 -38q25 -26 31 -80q24 61 67 89.5t100 28.5q68 0 104 -38q18 -20 25 -50t7 -81v-267z" />
    <glyph glyph-name="n" unicode="n" horiz-adv-x="597" 
d="M194 408q25 62 69 91.5t102 29.5q70 0 106 -38q19 -20 26.5 -50t7.5 -81v-267q0 -28 7.5 -43.5t24.5 -22.5q17 -6 45 -6v-21q-48 2 -62 2l-59 2l-54 -2q-13 0 -57 -2v21q25 0 38.5 6.5t20.5 21.5t7 44v289q0 38 -6.5 62t-22.5 38q-18 15 -53 15q-40 0 -72.5 -23.5
t-49.5 -65.5q-18 -42 -18 -93v-222q0 -53 28 -66q14 -6 39 -6v-21l-55 2l-58 2l-57 -2q-15 0 -63 -2v21q29 0 45.5 6.5t23.5 21.5t7 44v313q0 47 -17 67.5t-59 20.5v21q31 -3 62 -3q62 0 104 14v-118z" />
    <glyph glyph-name="o" unicode="o" horiz-adv-x="548" 
d="M391.5 499.5q50.5 -29.5 79.5 -88.5t29 -154q0 -91 -28.5 -152t-80.5 -90q-53 -29 -118 -29q-67 0 -117.5 29.5t-79.5 88.5q-30 60 -30 153q0 90 29 151.5t82 91.5q50 29 116 29q68 0 118.5 -29.5zM177.5 446q-33.5 -63 -33.5 -189t33.5 -188.5t95.5 -62.5t96 62.5
t34 188.5t-34 189t-96 63t-95.5 -63z" />
    <glyph glyph-name="p" unicode="p" horiz-adv-x="581" 
d="M188 420q22 52 64 80.5t96 28.5q53 0 95.5 -29.5t66.5 -84.5q24 -57 24 -134q0 -79 -25 -145.5t-75 -107.5q-52 -42 -129 -42q-38 0 -69 14.5t-48 39.5v-128q0 -40 23 -56t73 -16v-21l-57 2q-30 2 -87 2q-43 0 -66 -2l-42 -2v21q37 0 51.5 13.5t14.5 48.5v504
q0 47 -17.5 67.5t-59.5 20.5v21q32 -3 62 -3q63 0 105 14v-106zM188 73q15 -30 41.5 -47t63.5 -17q144 0 144 258q0 232 -117 232q-46 0 -81.5 -33t-50.5 -93v-300z" />
    <glyph glyph-name="q" unicode="q" horiz-adv-x="563" 
d="M482 -98q0 -35 15 -48.5t51 -13.5v-21l-42 2q-23 2 -66 2q-57 0 -86 -2l-58 -2v21q50 0 73.5 16.5t23.5 55.5v172q-20 -47 -57 -72.5t-84 -25.5q-59 0 -105 30.5t-73 90.5q-28 64 -28 150q0 87 27.5 149t77.5 93q48 30 110 30q51 0 85 -17.5t55 -55.5l25 26q35 38 47 49
l17 -7q-8 -26 -8 -58v-564zM393 439q-40 67 -124 67q-61 0 -93 -62.5t-32 -186.5q0 -119 35 -180t103 -61q37 0 67.5 30.5t43.5 85.5v307z" />
    <glyph glyph-name="r" unicode="r" horiz-adv-x="445" 
d="M194 401q12 32 33.5 61t49.5 48q32 19 62 19q27 0 47.5 -10.5t32.5 -28.5t12 -40q0 -27 -16 -45t-41 -18q-23 0 -38.5 14.5t-15.5 37.5q0 32 34 54q-6 10 -21 10q-38 0 -70 -29.5t-51 -75.5q-18 -45 -18 -83v-212q0 -45 25.5 -63.5t80.5 -18.5v-21l-92 3l-62 1l-53 -2
q-13 0 -65 -2v21q29 0 45.5 6.5t23.5 21.5t7 44v313q0 47 -17 67.5t-59 20.5v21q31 -3 62 -3q62 0 104 14v-125z" />
    <glyph glyph-name="s" unicode="s" horiz-adv-x="446" 
d="M82 193q7 -65 21.5 -104t41.5 -61q28 -22 76 -22q23 0 43 10t32 30q14 23 14 55q0 49 -51 88q-20 16 -63 43q-54 34 -78 53.5t-41 46.5q-18 26 -18 68t19 71t54 44q34 14 75 14q32 0 60.5 -10.5t47.5 -26.5q13 -8 18 -8q17 0 22 44h23q-3 -49 -3 -170h-23
q-26 152 -137 152q-37 0 -59.5 -21t-22.5 -56q0 -31 20.5 -54t60.5 -48q33 -20 65 -41t57 -42q62 -52 62 -122q0 -43 -22.5 -75t-62.5 -49q-38 -16 -85 -16q-44 0 -80 14q-11 5 -41 27q-4 4 -9 4q-14 0 -20 -38h-23q4 76 4 200h23z" />
    <glyph glyph-name="t" unicode="t" horiz-adv-x="354" 
d="M338 514v-20h-148v-387q0 -45 15.5 -65t48.5 -20q31 0 53 25.5t37 81.5l20 -5q-24 -138 -130 -138q-33 0 -55.5 8t-39.5 25q-22 22 -30.5 53.5t-8.5 86.5v335h-96v20h96v153q54 1 90 14v-167h148z" />
    <glyph glyph-name="u" unicode="u" horiz-adv-x="581" 
d="M482 108q0 -47 17.5 -67.5t59.5 -20.5v-21q-31 3 -62 3q-64 0 -104 -14v118q-24 -60 -67 -90t-97 -30q-68 0 -104 38q-18 19 -26 50.5t-8 80.5v251q0 47 -17 67.5t-58 20.5v21q31 -3 62 -3q60 0 104 14v-393q0 -42 5 -64t20 -36q17 -15 50 -15q39 0 70 23.5t48 65.5
q18 42 18 92v207q0 47 -17.5 67.5t-59.5 20.5v21q31 -3 62 -3q64 0 104 14v-418z" />
    <glyph glyph-name="v" unicode="v" horiz-adv-x="489" 
d="M326 515q52 -3 84 -3q44 0 76 3v-20q-21 -2 -36.5 -18t-28.5 -52l-164 -430h-17l-184 443q-15 36 -29 45q-12 11 -29 11v21q70 -4 88 -4q58 0 130 4v-21q-27 0 -40.5 -2t-21.5 -9q-9 -6 -9 -23q0 -19 11 -44l123 -304l110 289q11 28 11 46q0 23 -17.5 34.5t-56.5 13.5v20
z" />
    <glyph glyph-name="w" unicode="w" horiz-adv-x="770" 
d="M607 515q53 -3 84 -3q44 0 76 3v-20q-22 -2 -37.5 -18.5t-27.5 -51.5l-145 -430h-17l-159 402l-142 -402h-17l-164 443q-12 32 -26.5 44t-31.5 12v21q42 -6 88 -6q44 0 130 6v-21q-36 0 -50.5 -4.5t-18.5 -21.5q-1 -3 -1 -10q0 -19 10 -48l100 -287l144 396h23l153 -405
l94 287q9 29 9 45q0 24 -17 35.5t-57 13.5v20z" />
    <glyph glyph-name="x" unicode="x" horiz-adv-x="519" 
d="M443 71q19 -26 31.5 -36.5t30.5 -13.5v-21l-29 2l-41 2l-67 -2l-52 -2v21q17 0 28.5 6t11.5 16q0 4 -4 12l-114 166l-73 -95q-28 -35 -28 -60q0 -42 73 -46v-20q-52 3 -113 3q-44 0 -76 -3v20q19 2 40 18.5t47 51.5l116 152l-140 202q-23 35 -40 44q-9 5 -22 6v21
q28 -2 36 -2l36 -2l66 2l51 2v-21q-16 0 -27.5 -6t-11.5 -16q0 -4 4 -12l107 -156l70 97q30 42 30 63q0 13 -14 22q-14 8 -43 9v20q51 -3 84 -3q44 0 75 3v-20q-39 -4 -88 -70l-101 -140z" />
    <glyph glyph-name="y" unicode="y" horiz-adv-x="504" 
d="M334 515q53 -3 84 -3q44 0 76 3v-20q-21 -2 -36.5 -18t-28.5 -52l-164 -430l-34 -87q-19 -51 -46 -73.5t-75 -22.5q-31 0 -49.5 16t-18.5 44q0 24 14 38.5t39 14.5q23 0 37 -12.5t14 -34.5q0 -30 -27 -45l6 -1q55 0 85 78l36 91l-182 437q-16 32 -32.5 44t-35.5 12v21
q47 -6 98 -6q43 0 130 6v-21q-27 0 -39.5 -2t-20.5 -9q-10 -7 -10 -24q0 -15 13 -49l121 -299l110 290q11 30 11 46q0 23 -18 34.5t-57 13.5v20z" />
    <glyph glyph-name="z" unicode="z" horiz-adv-x="476" 
d="M259 15q128 0 139 161h23q0 -114 4 -180q-69 4 -185 4q-114 0 -202 -5l289 505h-111q-45 0 -73.5 -16.5t-44.5 -50.5q-15 -33 -20 -94h-23q0 127 -5 180q106 -4 186 -4q85 0 202 5l-289 -505h110z" />
    <glyph glyph-name="braceleft" unicode="{" horiz-adv-x="244" 
d="M209 -182q-20 0 -35 16t-15 38v265q0 48 -23.5 77.5t-59.5 40.5q36 11 59.5 40.5t23.5 77.5v265q0 22 15 38t35 16v18q-52 0 -88 -31.5t-36 -85.5v-275q0 -22 -15 -38t-35 -16v-18q20 0 35 -16t15 -38v-275q0 -54 36 -85.5t88 -31.5v18z" />
    <glyph glyph-name="bar" unicode="|" horiz-adv-x="135" 
d="M95 710v-710h-55v710h55z" />
    <glyph glyph-name="braceright" unicode="}" horiz-adv-x="244" 
d="M123 -168.5q36 31.5 36 85.5v275q0 22 15 38t35 16v18q-20 0 -35 16t-15 38v275q0 54 -36 85.5t-88 31.5v-18q20 0 35 -16t15 -38v-265q0 -48 23.5 -77.5t59.5 -40.5q-36 -11 -59.5 -40.5t-23.5 -77.5v-265q0 -22 -15 -38t-35 -16v-18q52 0 88 31.5z" />
    <glyph glyph-name="asciitilde" unicode="~" horiz-adv-x="649" 
d="M74 259q4 32 23.5 56t50.5 38q30 12 66 12q33 0 61.5 -9.5t88.5 -38.5q61 -29 105 -29q64 0 90 58l17 -5q-4 -32 -24 -56t-51 -37q-30 -13 -66 -13q-32 0 -60 9.5t-90 39.5q-59 28 -104 28q-67 0 -91 -58z" />
    <glyph glyph-name="uni00A0" unicode="&#xa0;" horiz-adv-x="249" 
 />
    <glyph glyph-name="exclamdown" unicode="&#xa1;" horiz-adv-x="160" 
d="M112 697q13 -13 13 -32t-13 -32t-32 -13t-32 13t-13 32t13 32t32 13t32 -13zM42 -12l24 574h27l24 -574h-75z" />
    <glyph glyph-name="cent" unicode="&#xa2;" horiz-adv-x="474" 
d="M438 125q-11 -36 -33.5 -66.5t-56.5 -49.5q-37 -22 -83 -23v-167h-22v167q-60 3 -107.5 36.5t-74.5 91.5q-28 57 -28 137q0 76 26.5 137t74.5 97q47 35 109 43v180h22v-179h1q67 0 116 -32q47 -31 47 -77q0 -26 -14.5 -41t-38.5 -15t-39.5 13.5t-15.5 36.5
q0 21 11.5 35.5t30.5 19.5q-10 18 -35.5 30t-54.5 12h-8v-482h9q45 0 83 26t62 77zM243 507q-52 -14 -82.5 -74.5t-30.5 -166.5q0 -105 29.5 -163t83.5 -70v474z" />
    <glyph glyph-name="sterling" unicode="&#xa3;" horiz-adv-x="602" 
d="M441 222q35 -5 63.5 -21.5t46.5 -42.5q18 -25 18 -61q0 -30 -12.5 -55.5t-36.5 -40.5q-25 -15 -60 -15q-31 0 -58.5 11t-74.5 40q-40 25 -69 35q-22 8 -49 8q-29 0 -55 -10q-22 -40 -50 -62t-54 -22q-8 0 -11.5 2t-3.5 8q0 9 13.5 24.5t34.5 30.5t42 22q7 32 9 70t2 115
v39h-77v20h77v80h-77v20h77v22q0 297 221 297q59 0 95 -27q29 -23 29 -55q0 -21 -13.5 -35t-32.5 -14q-18 0 -32 13t-14 32q0 35 32 47q-1 10 -20.5 17t-41.5 7q-56 0 -86 -32.5t-37 -88.5q-7 -49 -7 -135v-48h145v-20h-145v-80h145v-20h-146q-1 -58 -16 -104t-48 -105
q43 20 86 20q34 0 77 -15q52 -18 75.5 -24t52.5 -6q33 0 50 15.5t17 41.5q0 33 -22.5 55.5t-61.5 30.5z" />
    <glyph glyph-name="currency" unicode="&#xa4;" horiz-adv-x="535" 
d="M415 419q42 -56 42 -119q0 -66 -42 -119l43 -43l-27 -29l-44 44q-54 -42 -119 -42q-67 0 -120 41l-43 -43l-28 29l43 43q-42 51 -42 119t43 120l-44 44l27 28l44 -44q52 42 120 42q67 0 119 -43l45 45l27 -28zM193.5 432.5q-34.5 -20.5 -54.5 -56.5q-20 -33 -20 -76
q0 -41 20 -76t54 -56q35 -20 75 -20t74 20.5t54 55.5t20 76q0 40 -20 75.5t-55 56.5q-34 21 -73 21q-40 0 -74.5 -20.5z" />
    <glyph glyph-name="yen" unicode="&#xa5;" horiz-adv-x="647" 
d="M427 708q57 -3 115 -3q45 0 75 3v-20q-20 -5 -39 -26t-41 -63l-153 -303h137v-20h-141v-80h141v-20h-141v-70q0 -38 6.5 -55t22.5 -23q14 -6 52 -8v-20q-46 3 -127 3q-86 0 -128 -3v20q37 2 53 8t22 23q6 18 6 55v70h-140v20h140v61l-10 19h-130v20h119l-182 335
q-18 34 -31 45q-16 11 -27 11v21q39 -3 88 -3q98 0 140 3v-21q-70 0 -70 -39q0 -12 10 -34l166 -318h1l127 253q28 56 28 86q0 27 -22 39.5t-67 13.5v20z" />
    <glyph glyph-name="brokenbar" unicode="&#xa6;" horiz-adv-x="224" 
d="M91 384v474h40v-474h-40zM91 -195v521h40v-521h-40z" />
    <glyph glyph-name="section" unicode="&#xa7;" horiz-adv-x="508" 
d="M405 44q18 -34 18 -75q0 -46 -21.5 -81.5t-61.5 -55.5q-42 -20 -92 -20q-47 0 -86 16t-60 41q-20 23 -20 50q0 24 14 39t38 15t39.5 -15t15.5 -38q0 -42 -43 -53q8 -18 36.5 -27t62.5 -9q36 0 61 14t37 38q11 24 11 47q0 61 -75 122l-91 65q-56 39 -86 66.5t-45 57.5
q-16 31 -16 71q0 109 114 173q-36 33 -53.5 66.5t-17.5 73.5q0 46 22 82t62 56q39 19 93 19q43 0 89 -17q35 -15 55.5 -39.5t20.5 -50.5q0 -24 -14 -39t-38 -15t-40 15t-16 38q0 19 11 33.5t32 19.5q-8 17 -36 26.5t-60 9.5q-38 0 -63 -14t-36 -38q-12 -22 -12 -47
q0 -34 21.5 -65.5t53.5 -56.5q47 -34 91 -65q57 -40 86.5 -66.5t44.5 -56.5q16 -31 16 -72q0 -106 -117 -171q37 -33 55 -67zM339 121q37 20 56 49t19 62q0 57 -67 112q-15 12 -77 56q-80 54 -102 74q-36 -20 -54.5 -49.5t-18.5 -62.5q0 -58 67 -111q23 -19 76 -57
q70 -47 101 -73z" />
    <glyph glyph-name="dieresis" unicode="&#xa8;" horiz-adv-x="390" 
d="M117 735q14 -8 22 -21q7 -13 7 -29t-8 -29.5t-21 -20.5q-12 -8 -29 -8q-23 0 -40.5 17t-17.5 41q0 15 8 28.5t22 21.5q11 8 28 8q15 0 29 -8zM329 735q14 -8 22 -21q7 -13 7 -29t-8 -29.5t-21 -20.5q-12 -8 -29 -8q-23 0 -40 17t-17 41q0 15 7.5 29t20.5 21q12 8 29 8
q15 0 29 -8z" />
    <glyph glyph-name="copyright" unicode="&#xa9;" horiz-adv-x="894" 
d="M646 729q92 -53 146 -145q53 -92 53 -200t-53 -199.5t-146 -144.5q-91 -54 -200 -54q-107 0 -198.5 53.5t-145.5 145.5t-54 199t53.5 199t145.5 146q90 53 199 53q108 0 200 -53zM267.5 701q-82.5 -49 -130.5 -134q-49 -83 -49 -183q0 -99 48 -183t131 -134
q84 -49 179 -49q97 0 179.5 49t131.5 134q48 84 48 183t-48 183t-131 134q-84 49 -180 49t-178.5 -49zM634 252q-11 -37 -35 -68.5t-60 -50.5q-38 -20 -87 -20q-63 0 -114 32t-79 92q-30 60 -30 141t29.5 144.5t83.5 98.5q53 35 121 35q35 0 67 -9t53 -26q42 -28 42 -74
q0 -26 -14 -41t-38 -15t-39.5 15t-15.5 39q0 20 11 33t31 18q-10 18 -36 30t-54 12q-49 0 -87 -39q-56 -62 -56 -209q0 -80 18.5 -133t51.5 -77q32 -24 73 -24q45 0 83.5 26t62.5 77z" />
    <glyph glyph-name="ordfeminine" unicode="&#xaa;" horiz-adv-x="463" 
d="M267 621q0 43 -17 62.5t-51 19.5q-42 0 -74 -21q15 -5 24.5 -17.5t9.5 -29.5q0 -19 -13 -31.5t-31 -12.5q-22 0 -35.5 12.5t-13.5 32.5q0 38 47.5 62t111.5 24q65 0 93.5 -30t28.5 -97v-163q0 -21 5.5 -29t19.5 -8q22 0 41 17l10 -15q-38 -37 -90 -37q-34 0 -49 11.5
t-17 35.5q-48 -47 -118 -47q-24 0 -45 9t-34 26q-13 16 -13 43q0 49 58 79q27 14 72 30q45 18 59 27q21 12 21 29v18zM267 572q-4 -9 -16 -16q-10 -7 -41 -21q-38 -18 -54.5 -35.5t-16.5 -43.5q0 -28 15 -44.5t39 -16.5q37 0 74 32v145z" />
    <glyph glyph-name="guillemotleft" unicode="&#xab;" horiz-adv-x="502" 
d="M278 522q-33 -91 -73.5 -151t-98.5 -110q55 -47 96 -110.5t76 -157.5l-16 -7q-44 97 -99 163t-131 108v1q76 42 131.5 108t98.5 163zM454 522q-34 -91 -74.5 -151t-97.5 -110q55 -47 95.5 -110.5t76.5 -157.5l-17 -7q-45 98 -99.5 163.5t-130.5 107.5v1q76 42 131 107.5
t99 163.5z" />
    <glyph glyph-name="logicalnot" unicode="&#xac;" horiz-adv-x="656" 
d="M546 165v175h-464v30h501v-205h-37z" />
    <glyph glyph-name="uni00AD" unicode="&#xad;" horiz-adv-x="499" 
 />
    <glyph glyph-name="registered" unicode="&#xae;" horiz-adv-x="678" 
d="M478 745q64 -37 102 -102t38 -140t-37.5 -139t-101.5 -102q-65 -38 -141 -38q-75 0 -139 37.5t-102 101.5q-37 64 -37 140q0 75 37 139.5t102 102.5q62 37 139 37q76 0 140 -37zM457 289q54 33 87 91q32 56 32 123q0 66 -31.5 123t-86.5 91q-55 33 -120 33
q-64 0 -118 -33t-87 -91q-31 -55 -31 -123q0 -66 31.5 -123t86.5 -90q53 -34 118 -34t119 33zM458 397l2 -14q4 -19 16 -19q6 0 11 8l11 -7q-6 -11 -16.5 -16t-27.5 -5q-25 0 -37.5 9.5t-18.5 31.5l-17 74q-5 20 -11.5 28.5t-22.5 12.5q-13 3 -54 5v-101q0 -13 2 -23
q1 -7 5.5 -9.5t15.5 -4.5v-15q-14 0 -22 1h-28h-31q-8 -1 -22 -1v15q11 2 15.5 4.5t6.5 9.5q1 5 1 23v219q0 19 -1 24q-2 7 -6.5 10t-15.5 4v15q9 -1 49 -1h54q14 1 32 1q55 0 85 -20.5t30 -58.5q0 -68 -96 -85q38 -4 55.5 -17.5t22.5 -40.5zM317 521q47 0 65.5 16t18.5 50
q0 39 -16 56.5t-53 17.5q-17 0 -25 -2.5t-11 -9.5q-3 -6 -3 -21v-107h24z" />
    <glyph glyph-name="macron" unicode="&#xaf;" horiz-adv-x="362" 
d="M24 687v25h312v-25h-312z" />
    <glyph glyph-name="degree" unicode="&#xb0;" horiz-adv-x="333" 
d="M227 805q28 -15 44 -42q17 -28 17 -63q0 -36 -16.5 -63.5t-44.5 -42.5q-29 -15 -61 -15q-33 0 -61 15.5t-44 42.5q-17 28 -17 63t16.5 62.5t44.5 42.5q29 15 61 15q33 0 61 -15zM119.5 790.5q-21.5 -12.5 -36.5 -35.5q-14 -25 -14 -56q0 -32 14 -55.5t37 -35.5
q21 -12 46 -12q24 0 46.5 12t36.5 35t14 56q0 31 -14.5 55.5t-37.5 36.5t-45 12q-25 0 -46.5 -12.5z" />
    <glyph glyph-name="plusminus" unicode="&#xb1;" horiz-adv-x="382" 
d="M35 417h129v128h55v-128h128v-55h-128v-129h-55v129h-129v55zM347 171v-55h-312v55h312z" />
    <glyph glyph-name="uni00B2" unicode="&#xb2;" horiz-adv-x="338" 
d="M36 675q20 37 55 58.5t82 21.5t73.5 -19.5t26.5 -55.5q0 -35 -22.5 -63t-75.5 -70q-44 -33 -64 -53h133q28 0 37 14l10 20l17 -3q-14 -49 -16 -90q-12 3 -38 3h-219v20q19 16 63 49q55 41 83.5 80t28.5 80q0 54 -64 54q-62 0 -96 -54z" />
    <glyph glyph-name="uni00B3" unicode="&#xb3;" horiz-adv-x="324" 
d="M27 676q20 36 55.5 58t84.5 22q47 0 74.5 -19.5t27.5 -53.5q0 -32 -25.5 -57.5t-68.5 -36.5q32 -1 58.5 -11.5t42.5 -30.5q16 -21 16 -48q0 -43 -38 -78t-100 -54q-58 -19 -122 -19v17q51 1 97 20t74 49q27 30 27 65q0 34 -19.5 56t-52.5 23l-13 -6.5t-13 -5.5
q-4 -2 -10 -2q-17 0 -17 12q0 9 12 12q7 2 32 2q29 12 43 32t14 42q0 26 -18.5 42t-49.5 16q-63 0 -96 -54z" />
    <glyph glyph-name="acute" unicode="&#xb4;" horiz-adv-x="223" 
d="M20 608q29 47 73 130q24 46 39 64t35 18q13 0 24 -9.5t11 -25.5q0 -15 -13.5 -33.5t-43.5 -43.5q-64 -56 -115 -109z" />
    <glyph glyph-name="paragraph" unicode="&#xb6;" horiz-adv-x="645" 
d="M434 -13q-204 0 -301.5 97t-97.5 276q0 103 42.5 182t123.5 123q82 44 192 44l78 -1q33 -2 72 -2q27 0 61 2v-19q-31 -1 -48 -8.5t-23 -21.5q-7 -14 -7 -38v-696q0 -38 6.5 -55t22.5 -23q14 -6 52 -8v-20q-45 3 -127 3q-99 0 -147 -3v20q42 1 63.5 10t29.5 29q8 21 8 57
v52zM435 656q-4 0 -11 -43q-8 -44 -14 -110.5t-7 -136.5q-148 0 -238 -10q-41 -3 -41 -5t40 -5q95 -9 239 -9q1 -72 7 -138.5t14 -109.5q8 -41 11 -41v608z" />
    <glyph glyph-name="periodcentered" unicode="&#xb7;" horiz-adv-x="0" 
 />
    <glyph glyph-name="cedilla" unicode="&#xb8;" horiz-adv-x="228" 
d="M85 -72q28 7 60 7q28 0 44.5 -12.5t16.5 -34.5q0 -25 -16.5 -42.5t-44.5 -25.5q-23 -8 -53 -8q-50 0 -83 11l5 18q20 -3 37 -3q40 0 65.5 11t25.5 34q0 28 -42 28q-30 0 -50 -7l34 102h27z" />
    <glyph glyph-name="uni00B9" unicode="&#xb9;" horiz-adv-x="263" 
d="M178 507q0 -19 6.5 -29.5t20.5 -15.5q12 -4 40 -4v-21q-52 2 -98 2q-52 0 -106 -2v21q38 0 56 11t18 38v129q0 29 -7 42.5t-24 18.5q-15 4 -50 4v21q53 2 85.5 8.5t58.5 22.5v-246z" />
    <glyph glyph-name="ordmasculine" unicode="&#xba;" horiz-adv-x="454" 
d="M313.5 700.5q40.5 -21.5 64.5 -61.5q25 -40 25 -98q0 -56 -24 -97t-66 -63q-40 -21 -86 -21q-47 0 -87.5 21.5t-64.5 61.5q-26 41 -26 98q0 56 24.5 97t67.5 63q39 21 86 21q46 0 86.5 -21.5zM145 633q-13 -39 -13 -92q0 -54 12.5 -91t34.5 -55q22 -17 48 -17
q27 0 48 17.5t33 53.5t12 92q0 110 -46 146q-22 17 -47 17q-57 0 -82 -71z" />
    <glyph glyph-name="guillemotright" unicode="&#xbb;" horiz-adv-x="501" 
d="M64 528q44 -98 99 -163.5t131 -107.5v-1q-76 -42 -130.5 -107.5t-99.5 -163.5l-17 7q34 91 74.5 150.5t98.5 110.5q-54 47 -95.5 110t-77.5 158zM240 528q43 -97 98 -163t132 -108v-1q-77 -42 -132 -108t-98 -163l-17 7q34 91 74 151t98 110q-55 47 -96 111t-76 157z" />
    <glyph glyph-name="onequarter" unicode="&#xbc;" horiz-adv-x="680" 
d="M244.5 477.5q6.5 -10.5 20.5 -15.5q12 -4 40 -4v-21q-52 2 -98 2q-52 0 -106 -2v21q38 0 56 11t18 38v64l-423 -626l-19 13l442 654v24q0 29 -7 42.5t-24 18.5q-15 4 -50 4v21q53 2 85.5 8.5t58.5 22.5v-47l80 118l19 -13l-99 -147v-157q0 -19 6.5 -29.5zM658 90
q-11 -37 -14 -75q-12 3 -37 3h-20v-117h-56v117h-194v21l229 264h21v-244h7q29 0 38 14q5 9 9 20zM531 238l-155 -179h155v179z" />
    <glyph glyph-name="onehalf" unicode="&#xbd;" horiz-adv-x="661" 
d="M238 664v-157q0 -19 6.5 -29.5t20.5 -15.5q12 -4 40 -4v-21q-52 2 -98 2q-52 0 -106 -2v21q38 0 56 11t18 38v64l-423 -626l-19 13l442 654v24q0 29 -7 42.5t-24 18.5q-15 4 -50 4v21q53 2 85.5 8.5t58.5 22.5v-47l80 118l19 -13zM631 88q-14 -49 -16 -90q-12 3 -38 3
h-219v20q19 17 63 49q55 41 83.5 80t28.5 80q0 54 -64 54q-61 0 -96 -54l-14 8q20 37 55 58.5t82 21.5t73.5 -19.5t26.5 -55.5q0 -35 -22.5 -63t-75.5 -70q-44 -33 -64 -53h133q28 0 37 14l10 20z" />
    <glyph glyph-name="threequarters" unicode="&#xbe;" horiz-adv-x="741" 
d="M293.5 577.5q26.5 -10.5 42.5 -30.5q16 -21 16 -48q0 -43 -38 -78t-100 -54q-58 -19 -122 -19v17q51 1 97 20t74 49q27 30 27 65q0 34 -19.5 56t-52.5 23l-13 -6.5t-13 -5.5q-4 -2 -10 -2q-5 0 -11 2l-419 -621l-19 13l508 753q-17 11 -43 11q-63 0 -96 -54l-15 8
q20 36 55.5 58t84.5 22q20 0 42 -5l49 73l19 -13l-46 -68q38 -19 38 -60q0 -32 -25.5 -57.5t-68.5 -36.5q32 -1 58.5 -11.5zM252 622q14 20 14 42q0 16 -8 30l-71 -104h22q29 12 43 32zM719 90q-11 -37 -14 -75q-12 3 -37 3h-20v-117h-56v117h-194v21l229 264h21v-244h7
q29 0 38 14q5 9 9 20zM592 238l-155 -179h155v179z" />
    <glyph glyph-name="questiondown" unicode="&#xbf;" horiz-adv-x="321" 
d="M145 645q-13 13 -13 32t13 32t32 13t32 -13t13 -32t-13 -32t-32 -13t-32 13zM212 200h74v-95q0 -54 -37 -85.5t-89 -31.5q-57 0 -91 32t-34 85q0 49 7.5 81t19 52.5t32.5 47.5q34 44 52 81q17 36 23 69.5t6 112.5v25h27v-25q0 -75 -8.5 -119t-26.5 -90q-7 -19 -15 -37
q-25 -60 -34.5 -95.5t-9.5 -86.5v-62q0 -21 16 -37t36 -16q21 0 36.5 15.5t15.5 37.5v141z" />
    <glyph glyph-name="Agrave" unicode="&#xc0;" horiz-adv-x="630" 
d="M567 84q24 -62 69 -64v-20q-40 3 -107 3q-86 0 -128 -3v20q39 2 55 9.5t16 27.5q0 17 -12 47l-62 164h-241l-41 -106q-20 -52 -20 -82q0 -31 21 -45t66 -15v-20q-57 3 -115 3q-45 0 -75 -3v20q50 11 79 87l235 606h16zM279 586l-114 -298h226zM369 772q-54 28 -138 60
q-39 15 -64 29q-26 18 -26 39q0 9 5 19q12 17 31 17q13 0 30 -10q19 -12 49 -39q27 -25 56 -50.5t63 -51.5z" />
    <glyph glyph-name="Aacute" unicode="&#xc1;" horiz-adv-x="630" 
d="M567 84q24 -62 69 -64v-20q-40 3 -107 3q-86 0 -128 -3v20q39 2 55 9.5t16 27.5q0 17 -12 47l-62 164h-241l-41 -106q-20 -52 -20 -82q0 -31 21 -45t66 -15v-20q-57 3 -115 3q-45 0 -75 -3v20q50 11 79 87l235 606h16zM279 586l-114 -298h226zM248 785q48 38 113 97
q32 29 55 44q17 10 30 10q19 0 31 -17q5 -10 5 -19q0 -21 -26 -39q-25 -15 -56 -26q-85 -33 -146 -63z" />
    <glyph glyph-name="Acircumflex" unicode="&#xc2;" horiz-adv-x="630" 
d="M567 84q24 -62 69 -64v-20q-40 3 -107 3q-86 0 -128 -3v20q39 2 55 9.5t16 27.5q0 17 -12 47l-62 164h-241l-41 -106q-20 -52 -20 -82q0 -31 21 -45t66 -15v-20q-57 3 -115 3q-45 0 -75 -3v20q50 11 79 87l235 606h16zM279 586l-114 -298h226zM318 916q24 -40 73.5 -75.5
t113.5 -56.5l-6 -14q-60 13 -118.5 32t-92.5 38q-27 -19 -74 -38t-96 -32l-5 14q63 21 113 56.5t74 75.5h18z" />
    <glyph glyph-name="Atilde" unicode="&#xc3;" horiz-adv-x="630" 
d="M567 84q24 -62 69 -64v-20q-40 3 -107 3q-86 0 -128 -3v20q39 2 55 9.5t16 27.5q0 17 -12 47l-62 164h-241l-41 -106q-20 -52 -20 -82q0 -31 21 -45t66 -15v-20q-57 3 -115 3q-45 0 -75 -3v20q50 11 79 87l235 606h16zM279 586l-114 -298h226zM116 796q3 32 18.5 56
t40.5 37q26 13 52 13q24 0 46 -9.5t69 -38.5q46 -29 80 -29q45 0 62 56l14 -3q-3 -32 -18.5 -56t-39.5 -37q-23 -13 -53 -13q-24 0 -44.5 9.5t-69.5 39.5q-46 28 -79 28q-47 0 -62 -56z" />
    <glyph glyph-name="Adieresis" unicode="&#xc4;" horiz-adv-x="630" 
d="M567 84q24 -62 69 -64v-20q-40 3 -107 3q-86 0 -128 -3v20q39 2 55 9.5t16 27.5q0 17 -12 47l-62 164h-241l-41 -106q-20 -52 -20 -82q0 -31 21 -45t66 -15v-20q-57 3 -115 3q-45 0 -75 -3v20q50 11 79 87l235 606h16zM279 586l-114 -298h226zM231.5 880
q13.5 -8 21.5 -21q8 -14 8 -29q0 -16 -8 -29t-22 -21q-12 -8 -28 -8q-24 0 -41.5 17t-17.5 41q0 15 8.5 29t21.5 21q12 8 29 8q15 0 28.5 -8zM443 880q14 -8 22 -21q8 -14 8 -29q0 -16 -8 -29t-22 -21q-12 -8 -29 -8q-23 0 -40.5 17t-17.5 41q0 15 8 29t22 21q11 8 28 8
q15 0 29 -8z" />
    <glyph glyph-name="Aring" unicode="&#xc5;" horiz-adv-x="630" 
d="M567 84q24 -62 69 -64v-20q-40 3 -107 3q-86 0 -128 -3v20q39 2 55 9.5t16 27.5q0 17 -12 47l-62 164h-241l-41 -106q-20 -52 -20 -82q0 -31 21 -45t66 -15v-20q-57 3 -115 3q-45 0 -75 -3v20q50 11 79 87l235 606h16zM279 586l-114 -298h226zM357 913.5
q22 -11.5 35 -31.5q14 -22 14 -48q0 -27 -13 -48t-36 -33q-24 -11 -49 -11q-26 0 -47.5 11.5t-34.5 32.5q-13 19 -13 48q0 27 12.5 47.5t35.5 32.5q24 11 47 11q27 0 49 -11.5zM275.5 895.5q-15.5 -8.5 -24.5 -24.5q-10 -16 -10 -38q0 -44 35 -62q16 -8 32 -8q18 0 34 8
t26 24q10 17 10 38t-10 37.5t-26 25.5q-18 8 -34 8q-17 0 -32.5 -8.5z" />
    <glyph glyph-name="AE" unicode="&#xc6;" horiz-adv-x="854" 
d="M802 200q-3 -27 -3 -72q0 -64 7 -128q-61 3 -209 3q-157 0 -240 -3v20q28 2 40.5 8.5t16.5 22.5t4 55v240h-175l-146 -242q-18 -31 -18 -49q0 -17 16.5 -25t52.5 -10v-20q-30 3 -91 3q-41 0 -67 -3v20q17 1 33 15.5t36 48.5l351 578q-7 13 -23 18.5t-50 7.5v20l99 -2
l40 66h24l-40 -66q27 -1 76 -1h61q133 0 189 3q-7 -59 -7 -118q0 -41 3 -62h-23q-6 60 -14 97q-9 32 -29.5 46t-60.5 14h-63q-37 0 -53 -6t-21 -22q-7 -15 -7 -55v-236h73q36 0 50.5 21.5t18.5 55.5l4 35h23q-4 -68 -4 -83l1 -39q0 -36 6 -122h-23q0 19 -5.5 49t-20.5 45
q-18 18 -50 18h-73v-240q0 -38 6.5 -54.5t22.5 -22.5q15 -6 52 -6h73q47 0 69.5 15.5t30.5 50.5q6 25 14 111h23zM418 602l-1 32l-162 -268h163v236z" />
    <glyph glyph-name="Ccedilla" unicode="&#xc7;" horiz-adv-x="688" 
d="M619 240q0 -180 4 -240h-23q-3 29 -8 45q-6 14 -17 14q-7 0 -20 -8q-32 -23 -57 -35.5t-56 -20.5q-28 -7 -64 -9l-20 -58q28 7 59 7q28 0 44.5 -12.5t16.5 -34.5q0 -25 -16.5 -42.5t-43.5 -25.5q-23 -8 -52 -8q-50 0 -83 11l4 18q20 -3 38 -3q39 0 64 11t25 34
q0 28 -42 28q-30 0 -48 -7l27 82q-89 5 -155.5 47.5t-103.5 120.5q-39 81 -39 194q0 110 40.5 195t112.5 132q70 47 165 47q56 0 98 -16t86 -49q11 -9 19 -9q20 0 26 60h23q-4 -57 -4 -230h-23q-8 46 -14 70.5t-14 41.5q-7 17 -23 36q-29 38 -75.5 58t-100.5 20
q-65 0 -114 -42.5t-76 -122.5q-27 -81 -27 -187q0 -107 29 -185.5t81 -120.5q52 -40 116 -40q53 0 99.5 19.5t71.5 56.5q20 27 29 57.5t18 100.5h23z" />
    <glyph glyph-name="Egrave" unicode="&#xc8;" horiz-adv-x="609" 
d="M557 200q-3 -27 -3 -72q0 -62 7 -128q-69 3 -229 3q-192 0 -290 -3v20q37 2 52.5 8t22.5 23q6 18 6 55v496q0 38 -6.5 55t-22.5 23q-14 6 -52 8v20q97 -3 290 -3q146 0 209 3q-7 -60 -7 -118q0 -39 3 -62h-23q-8 67 -19.5 98t-36.5 45q-26 14 -79 14h-83q-37 0 -53 -6
t-21 -22q-7 -15 -7 -55v-236h67q45 0 63.5 26t23.5 66l6 40h22q-3 -49 -3 -94l1 -48q0 -66 5 -142h-23l-5 48q-9 84 -90 84h-67v-240q0 -38 6.5 -54.5t22.5 -22.5q17 -6 52 -6h74q62 0 94.5 16.5t47.5 53.5q13 34 22 107h23zM366 772q-54 28 -138 60q-39 15 -64 29
q-26 18 -26 39q0 9 5 19q12 17 31 17q13 0 30 -10q19 -12 49 -39q27 -25 56 -50.5t63 -51.5z" />
    <glyph glyph-name="Eacute" unicode="&#xc9;" horiz-adv-x="609" 
d="M557 200q-3 -27 -3 -72q0 -62 7 -128q-69 3 -229 3q-192 0 -290 -3v20q37 2 52.5 8t22.5 23q6 18 6 55v496q0 38 -6.5 55t-22.5 23q-14 6 -52 8v20q97 -3 290 -3q146 0 209 3q-7 -60 -7 -118q0 -39 3 -62h-23q-8 67 -19.5 98t-36.5 45q-26 14 -79 14h-83q-37 0 -53 -6
t-21 -22q-7 -15 -7 -55v-236h67q45 0 63.5 26t23.5 66l6 40h22q-3 -49 -3 -94l1 -48q0 -66 5 -142h-23l-5 48q-9 84 -90 84h-67v-240q0 -38 6.5 -54.5t22.5 -22.5q17 -6 52 -6h74q62 0 94.5 16.5t47.5 53.5q13 34 22 107h23zM245 785q48 38 113 97q32 29 55 44q17 10 30 10
q19 0 31 -17q5 -10 5 -19q0 -21 -26 -39q-25 -15 -56 -26q-85 -33 -146 -63z" />
    <glyph glyph-name="Ecircumflex" unicode="&#xca;" horiz-adv-x="609" 
d="M557 200q-3 -27 -3 -72q0 -62 7 -128q-69 3 -229 3q-192 0 -290 -3v20q37 2 52.5 8t22.5 23q6 18 6 55v496q0 38 -6.5 55t-22.5 23q-14 6 -52 8v20q97 -3 290 -3q146 0 209 3q-7 -60 -7 -118q0 -39 3 -62h-23q-8 67 -19.5 98t-36.5 45q-26 14 -79 14h-83q-37 0 -53 -6
t-21 -22q-7 -15 -7 -55v-236h67q45 0 63.5 26t23.5 66l6 40h22q-3 -49 -3 -94l1 -48q0 -66 5 -142h-23l-5 48q-9 84 -90 84h-67v-240q0 -38 6.5 -54.5t22.5 -22.5q17 -6 52 -6h74q62 0 94.5 16.5t47.5 53.5q13 34 22 107h23zM315 916q24 -40 73.5 -75.5t113.5 -56.5l-6 -14
q-60 13 -118.5 32t-92.5 38q-27 -19 -74 -38t-96 -32l-5 14q63 21 113 56.5t74 75.5h18z" />
    <glyph glyph-name="Edieresis" unicode="&#xcb;" horiz-adv-x="609" 
d="M557 200q-3 -27 -3 -72q0 -62 7 -128q-69 3 -229 3q-192 0 -290 -3v20q37 2 52.5 8t22.5 23q6 18 6 55v496q0 38 -6.5 55t-22.5 23q-14 6 -52 8v20q97 -3 290 -3q146 0 209 3q-7 -60 -7 -118q0 -39 3 -62h-23q-8 67 -19.5 98t-36.5 45q-26 14 -79 14h-83q-37 0 -53 -6
t-21 -22q-7 -15 -7 -55v-236h67q45 0 63.5 26t23.5 66l6 40h22q-3 -49 -3 -94l1 -48q0 -66 5 -142h-23l-5 48q-9 84 -90 84h-67v-240q0 -38 6.5 -54.5t22.5 -22.5q17 -6 52 -6h74q62 0 94.5 16.5t47.5 53.5q13 34 22 107h23zM228.5 880q13.5 -8 21.5 -21q8 -14 8 -29
q0 -16 -8 -29t-22 -21q-12 -8 -28 -8q-24 0 -41.5 17t-17.5 41q0 15 8.5 29t21.5 21q12 8 29 8q15 0 28.5 -8zM440 880q14 -8 22 -21q8 -14 8 -29q0 -16 -8 -29t-22 -21q-12 -8 -29 -8q-23 0 -40.5 17t-17.5 41q0 15 8 29t22 21q11 8 28 8q15 0 29 -8z" />
    <glyph glyph-name="Igrave" unicode="&#xcc;" 
d="M296 688q-37 -2 -53 -8t-21 -23q-7 -15 -7 -55v-496q0 -38 6.5 -55t22.5 -23q14 -6 52 -8v-20q-45 3 -127 3q-86 0 -127 -3v20q37 2 52.5 8t22.5 23q6 18 6 55v496q0 38 -6.5 55t-22.5 23q-14 6 -52 8v20q40 -3 127 -3q82 0 127 3v-20zM230 772q-54 28 -138 60
q-39 15 -64 29q-26 18 -26 39q0 9 5 19q12 17 31 17q13 0 30 -10q19 -12 49 -39q27 -25 56 -50.5t63 -51.5z" />
    <glyph glyph-name="Iacute" unicode="&#xcd;" 
d="M296 688q-37 -2 -53 -8t-21 -23q-7 -15 -7 -55v-496q0 -38 6.5 -55t22.5 -23q14 -6 52 -8v-20q-45 3 -127 3q-86 0 -127 -3v20q37 2 52.5 8t22.5 23q6 18 6 55v496q0 38 -6.5 55t-22.5 23q-14 6 -52 8v20q40 -3 127 -3q82 0 127 3v-20zM109 785q48 38 113 97q32 29 55 44
q17 10 30 10q19 0 31 -17q5 -10 5 -19q0 -21 -26 -39q-25 -15 -56 -26q-85 -33 -146 -63z" />
    <glyph glyph-name="Icircumflex" unicode="&#xce;" 
d="M296 688q-37 -2 -53 -8t-21 -23q-7 -15 -7 -55v-496q0 -38 6.5 -55t22.5 -23q14 -6 52 -8v-20q-45 3 -127 3q-86 0 -127 -3v20q37 2 52.5 8t22.5 23q6 18 6 55v496q0 38 -6.5 55t-22.5 23q-14 6 -52 8v20q40 -3 127 -3q82 0 127 3v-20zM179 916q24 -40 73.5 -75.5
t113.5 -56.5l-6 -14q-60 13 -118.5 32t-92.5 38q-27 -19 -74 -38t-96 -32l-5 14q63 21 113 56.5t74 75.5h18z" />
    <glyph glyph-name="Idieresis" unicode="&#xcf;" 
d="M296 688q-37 -2 -53 -8t-21 -23q-7 -15 -7 -55v-496q0 -38 6.5 -55t22.5 -23q14 -6 52 -8v-20q-45 3 -127 3q-86 0 -127 -3v20q37 2 52.5 8t22.5 23q6 18 6 55v496q0 38 -6.5 55t-22.5 23q-14 6 -52 8v20q40 -3 127 -3q82 0 127 3v-20zM92.5 880q13.5 -8 21.5 -21
q8 -14 8 -29q0 -16 -8 -29t-22 -21q-12 -8 -28 -8q-24 0 -41.5 17t-17.5 41q0 15 8.5 29t21.5 21q12 8 29 8q15 0 28.5 -8zM304 880q14 -8 22 -21q8 -14 8 -29q0 -16 -8 -29t-22 -21q-12 -8 -29 -8q-23 0 -40.5 17t-17.5 41q0 15 8 29t22 21q11 8 28 8q15 0 29 -8z" />
    <glyph glyph-name="Eth" unicode="&#xd0;" horiz-adv-x="724" 
d="M42 708q54 -3 98 -3h25l150 3q176 0 264.5 -88t88.5 -258q0 -109 -43 -191t-124 -126q-81 -45 -194 -45l-65 1l-75 2q-83 0 -125 -3v20q38 2 53.5 8t22.5 23q6 18 6 55v240h-82v20h82v236q0 38 -6.5 55t-22.5 23q-14 6 -53 8v20zM216 104q0 -36 6 -54t22 -25q18 -7 48 -7
q104 0 165.5 38t86.5 113q24 75 24 189q0 117 -27 188.5t-87 107.5t-163 36q-32 0 -47.5 -7t-21.5 -25t-6 -54v-238h139v-20h-139v-242z" />
    <glyph glyph-name="Ntilde" unicode="&#xd1;" horiz-adv-x="706" 
d="M669 688q-35 -2 -51.5 -10.5t-22.5 -27.5q-7 -18 -7 -58v-597h-23l-419 649v-528q0 -39 7 -58t25 -28q17 -8 58 -10v-20q-36 3 -102 3q-60 0 -92 -3v20q35 2 51.5 10.5t22.5 27.5q7 18 7 58v486q0 38 -6.5 55t-22.5 23q-14 6 -52 8v20q32 -3 92 -3q45 0 78 3l353 -544
v428q0 40 -6.5 59t-25.5 27q-17 8 -58 10v20q36 -3 102 -3q59 0 92 3v-20zM181 796q3 32 18.5 56t40.5 37q26 13 52 13q24 0 46 -9.5t69 -38.5q46 -29 80 -29q45 0 62 56l14 -3q-3 -32 -18.5 -56t-39.5 -37q-23 -13 -53 -13q-24 0 -44.5 9.5t-69.5 39.5q-46 28 -79 28
q-47 0 -62 -56z" />
    <glyph glyph-name="Ograve" unicode="&#xd2;" horiz-adv-x="741" 
d="M538 679q71 -43 110 -124q40 -85 40 -195q0 -109 -40.5 -194.5t-113.5 -132.5q-70 -47 -164 -47q-96 0 -167 43t-111 125q-39 81 -39 194q0 110 40.5 195t112.5 132q70 47 165 47q96 0 167 -43zM254 660q-49 -44 -75 -125q-27 -79 -27 -183q0 -103 29 -182.5t81 -122.5
q49 -43 112 -43t112 44.5t75 124.5q26 78 26 183q0 103 -29 182t-79 123q-50 43 -112 43q-64 0 -113 -44zM429 772q-54 28 -138 60q-39 15 -64 29q-26 18 -26 39q0 9 5 19q12 17 31 17q13 0 30 -10q19 -12 49 -39q27 -25 56 -50.5t63 -51.5z" />
    <glyph glyph-name="Oacute" unicode="&#xd3;" horiz-adv-x="741" 
d="M538 679q71 -43 110 -124q40 -85 40 -195q0 -109 -40.5 -194.5t-113.5 -132.5q-70 -47 -164 -47q-96 0 -167 43t-111 125q-39 81 -39 194q0 110 40.5 195t112.5 132q70 47 165 47q96 0 167 -43zM254 660q-49 -44 -75 -125q-27 -79 -27 -183q0 -103 29 -182.5t81 -122.5
q49 -43 112 -43t112 44.5t75 124.5q26 78 26 183q0 103 -29 182t-79 123q-50 43 -112 43q-64 0 -113 -44zM308 785q48 38 113 97q32 29 55 44q17 10 30 10q19 0 31 -17q5 -10 5 -19q0 -21 -26 -39q-25 -15 -56 -26q-85 -33 -146 -63z" />
    <glyph glyph-name="Ocircumflex" unicode="&#xd4;" horiz-adv-x="741" 
d="M538 679q71 -43 110 -124q40 -85 40 -195q0 -109 -40.5 -194.5t-113.5 -132.5q-70 -47 -164 -47q-96 0 -167 43t-111 125q-39 81 -39 194q0 110 40.5 195t112.5 132q70 47 165 47q96 0 167 -43zM254 660q-49 -44 -75 -125q-27 -79 -27 -183q0 -103 29 -182.5t81 -122.5
q49 -43 112 -43t112 44.5t75 124.5q26 78 26 183q0 103 -29 182t-79 123q-50 43 -112 43q-64 0 -113 -44zM378 916q24 -40 73.5 -75.5t113.5 -56.5l-6 -14q-60 13 -118.5 32t-92.5 38q-27 -19 -74 -38t-96 -32l-5 14q63 21 113 56.5t74 75.5h18z" />
    <glyph glyph-name="Otilde" unicode="&#xd5;" horiz-adv-x="741" 
d="M538 679q71 -43 110 -124q40 -85 40 -195q0 -109 -40.5 -194.5t-113.5 -132.5q-70 -47 -164 -47q-96 0 -167 43t-111 125q-39 81 -39 194q0 110 40.5 195t112.5 132q70 47 165 47q96 0 167 -43zM254 660q-49 -44 -75 -125q-27 -79 -27 -183q0 -103 29 -182.5t81 -122.5
q49 -43 112 -43t112 44.5t75 124.5q26 78 26 183q0 103 -29 182t-79 123q-50 43 -112 43q-64 0 -113 -44zM176 796q3 32 18.5 56t40.5 37q26 13 52 13q24 0 46 -9.5t69 -38.5q46 -29 80 -29q45 0 62 56l14 -3q-3 -32 -18.5 -56t-39.5 -37q-23 -13 -53 -13q-24 0 -44.5 9.5
t-69.5 39.5q-46 28 -79 28q-47 0 -62 -56z" />
    <glyph glyph-name="Odieresis" unicode="&#xd6;" horiz-adv-x="741" 
d="M538 679q71 -43 110 -124q40 -85 40 -195q0 -109 -40.5 -194.5t-113.5 -132.5q-70 -47 -164 -47q-96 0 -167 43t-111 125q-39 81 -39 194q0 110 40.5 195t112.5 132q70 47 165 47q96 0 167 -43zM254 660q-49 -44 -75 -125q-27 -79 -27 -183q0 -103 29 -182.5t81 -122.5
q49 -43 112 -43t112 44.5t75 124.5q26 78 26 183q0 103 -29 182t-79 123q-50 43 -112 43q-64 0 -113 -44zM291.5 880q13.5 -8 21.5 -21q8 -14 8 -29q0 -16 -8 -29t-22 -21q-12 -8 -28 -8q-24 0 -41.5 17t-17.5 41q0 15 8.5 29t21.5 21q12 8 29 8q15 0 28.5 -8zM503 880
q14 -8 22 -21q8 -14 8 -29q0 -16 -8 -29t-22 -21q-12 -8 -29 -8q-23 0 -40.5 17t-17.5 41q0 15 8 29t22 21q11 8 28 8q15 0 29 -8z" />
    <glyph glyph-name="multiply" unicode="&#xd7;" horiz-adv-x="329" 
d="M73 484l92 -91l90 90l39 -38l-90 -91l90 -91l-39 -38l-90 90l-92 -91l-38 39l91 91l-91 91z" />
    <glyph glyph-name="Oslash" unicode="&#xd8;" horiz-adv-x="741" 
d="M583 645q51 -48 78 -120.5t27 -164.5q0 -109 -40.5 -194.5t-113.5 -132.5q-70 -47 -164 -47q-115 0 -195 62l-81 -121l-21 14l84 123q-51 48 -77.5 120t-26.5 164q0 110 40.5 195t112.5 132q70 47 165 47q116 0 194 -62l78 113l19 -13zM523 609q-29 46 -69.5 70.5
t-86.5 24.5q-64 0 -113 -44t-75 -125q-27 -79 -27 -183q0 -137 51 -230zM217 98q30 -46 70.5 -70t86.5 -24q63 0 112 44.5t75 124.5q26 78 26 183q0 139 -50 230z" />
    <glyph glyph-name="Ugrave" unicode="&#xd9;" horiz-adv-x="682" 
d="M654 688q-35 -2 -51.5 -10.5t-22.5 -27.5t-6 -58v-301q0 -73 -10 -124.5t-31 -87.5q-26 -43 -74.5 -68t-108.5 -25q-111 0 -168 54q-30 28 -46 59t-22 75q-7 41 -7 114v314q0 38 -6 55t-22 23q-14 6 -53 8v20q43 -3 128 -3q80 0 128 3v-20q-38 -2 -53.5 -8t-21.5 -23
q-6 -16 -6 -55v-331q0 -86 11.5 -136.5t44.5 -81.5q35 -32 101 -32q103 0 147.5 65.5t44.5 193.5v312q0 37 -8.5 57t-27.5 29q-18 8 -55 10v20q36 -3 103 -3q59 0 92 3v-20zM412 772q-54 28 -138 60q-39 15 -64 29q-26 18 -26 39q0 9 5 19q12 17 31 17q13 0 30 -10
q19 -12 49 -39q27 -25 56 -50.5t63 -51.5z" />
    <glyph glyph-name="Uacute" unicode="&#xda;" horiz-adv-x="682" 
d="M654 688q-35 -2 -51.5 -10.5t-22.5 -27.5t-6 -58v-301q0 -73 -10 -124.5t-31 -87.5q-26 -43 -74.5 -68t-108.5 -25q-111 0 -168 54q-30 28 -46 59t-22 75q-7 41 -7 114v314q0 38 -6 55t-22 23q-14 6 -53 8v20q43 -3 128 -3q80 0 128 3v-20q-38 -2 -53.5 -8t-21.5 -23
q-6 -16 -6 -55v-331q0 -86 11.5 -136.5t44.5 -81.5q35 -32 101 -32q103 0 147.5 65.5t44.5 193.5v312q0 37 -8.5 57t-27.5 29q-18 8 -55 10v20q36 -3 103 -3q59 0 92 3v-20zM291 785q48 38 113 97q32 29 55 44q17 10 30 10q19 0 31 -17q5 -10 5 -19q0 -21 -26 -39
q-25 -15 -56 -26q-85 -33 -146 -63z" />
    <glyph glyph-name="Ucircumflex" unicode="&#xdb;" horiz-adv-x="682" 
d="M654 688q-35 -2 -51.5 -10.5t-22.5 -27.5t-6 -58v-301q0 -73 -10 -124.5t-31 -87.5q-26 -43 -74.5 -68t-108.5 -25q-111 0 -168 54q-30 28 -46 59t-22 75q-7 41 -7 114v314q0 38 -6 55t-22 23q-14 6 -53 8v20q43 -3 128 -3q80 0 128 3v-20q-38 -2 -53.5 -8t-21.5 -23
q-6 -16 -6 -55v-331q0 -86 11.5 -136.5t44.5 -81.5q35 -32 101 -32q103 0 147.5 65.5t44.5 193.5v312q0 37 -8.5 57t-27.5 29q-18 8 -55 10v20q36 -3 103 -3q59 0 92 3v-20zM361 916q24 -40 73.5 -75.5t113.5 -56.5l-6 -14q-60 13 -118.5 32t-92.5 38q-27 -19 -74 -38
t-96 -32l-5 14q63 21 113 56.5t74 75.5h18z" />
    <glyph glyph-name="Udieresis" unicode="&#xdc;" horiz-adv-x="682" 
d="M654 688q-35 -2 -51.5 -10.5t-22.5 -27.5t-6 -58v-301q0 -73 -10 -124.5t-31 -87.5q-26 -43 -74.5 -68t-108.5 -25q-111 0 -168 54q-30 28 -46 59t-22 75q-7 41 -7 114v314q0 38 -6 55t-22 23q-14 6 -53 8v20q43 -3 128 -3q80 0 128 3v-20q-38 -2 -53.5 -8t-21.5 -23
q-6 -16 -6 -55v-331q0 -86 11.5 -136.5t44.5 -81.5q35 -32 101 -32q103 0 147.5 65.5t44.5 193.5v312q0 37 -8.5 57t-27.5 29q-18 8 -55 10v20q36 -3 103 -3q59 0 92 3v-20zM274.5 880q13.5 -8 21.5 -21q8 -14 8 -29q0 -16 -8 -29t-22 -21q-12 -8 -28 -8q-24 0 -41.5 17
t-17.5 41q0 15 8.5 29t21.5 21q12 8 29 8q15 0 28.5 -8zM486 880q14 -8 22 -21q8 -14 8 -29q0 -16 -8 -29t-22 -21q-12 -8 -29 -8q-23 0 -40.5 17t-17.5 41q0 15 8 29t22 21q11 8 28 8q15 0 29 -8z" />
    <glyph glyph-name="Yacute" unicode="&#xdd;" horiz-adv-x="591" 
d="M398 708q57 -3 115 -3q45 0 75 3v-20q-20 -5 -39 -26t-41 -63l-157 -311v-182q0 -38 6.5 -55t22.5 -23q14 -6 52 -8v-20q-46 3 -127 3q-86 0 -128 -3v20q37 2 53 8t22 23q6 18 6 55v151l-203 374q-18 32 -32 45q-14 11 -26 11v21q39 -3 88 -3q97 0 140 3v-21
q-70 0 -70 -39q0 -15 10 -34l167 -319l127 254q27 54 27 86q0 27 -21.5 39.5t-66.5 13.5v20zM243 785q48 38 113 97q32 29 55 44q17 10 30 10q19 0 31 -17q5 -10 5 -19q0 -21 -26 -39q-25 -15 -56 -26q-85 -33 -146 -63z" />
    <glyph glyph-name="Thorn" unicode="&#xde;" horiz-adv-x="580" 
d="M548 364q0 -61 -25.5 -111t-81.5 -81q-58 -34 -155 -34h-71v-32q0 -38 6.5 -55t22.5 -23q14 -6 52 -8v-20q-45 3 -127 3q-86 0 -127 -3v20q37 2 52.5 8t22.5 23q6 18 6 55v496q0 38 -6.5 55t-22.5 23q-14 6 -52 8v20q40 -3 127 -3q82 0 127 3v-20q-37 -2 -53 -8t-21 -23
q-7 -15 -7 -55v-44l94 1q76 0 130 -25t82 -70q27 -41 27 -100zM309 559h-1h1zM409 209q40 51 40 149q0 93 -39.5 137.5t-126.5 44.5q-38 0 -68 -1v-381h60q94 0 134 51z" />
    <glyph glyph-name="germandbls" unicode="&#xdf;" horiz-adv-x="584" 
d="M97 538q0 124 50.5 184t145.5 60q85 0 131.5 -37.5t46.5 -105.5q0 -45 -27.5 -87.5t-70.5 -75.5q-40 -29 -73 -43q67 -15 122 -51.5t87 -89.5q33 -52 33 -117q0 -56 -25 -99t-67 -67q-43 -23 -90 -23q-29 0 -57 10t-46 28q-19 22 -19 48q0 24 14.5 39t38.5 15
q23 0 38 -13.5t15 -35.5q0 -38 -44 -52q4 -9 19.5 -16.5t33.5 -7.5q26 0 48.5 16t36.5 49q15 35 15 90q0 60 -18.5 115t-55.5 95q-39 42 -92 58q-24 -15 -37 -15q-8 0 -14.5 5t-6.5 12q0 19 23 19q13 0 37 -8q48 38 69.5 85t21.5 113q0 64 -24.5 98t-72.5 34
q-43 0 -69.5 -33t-26.5 -110v-635q-42 14 -104 14q-30 0 -62 -3v21q42 0 59 20.5t17 67.5v429z" />
    <glyph glyph-name="agrave" unicode="&#xe0;" horiz-adv-x="498" 
d="M319 408q0 56 -22.5 78.5t-69.5 22.5q-71 0 -100 -36q21 -5 34 -21.5t13 -39.5q0 -25 -15.5 -39.5t-42.5 -14.5q-25 0 -39.5 17t-14.5 45q0 35 32 60t75 38q38 11 80 11q40 0 71.5 -10t49.5 -28q22 -23 31 -54t9 -86v-278q0 -25 7 -36t23 -11q12 0 22 5t23 16l12 -17
q-20 -15 -31.5 -22t-25.5 -10q-17 -5 -35 -5q-46 0 -66 23t-20 66q-28 -46 -68 -67.5t-85 -21.5q-36 0 -64.5 12.5t-45.5 36.5t-17 63q0 37 17.5 64t52.5 48q39 22 91 44q6 2 45.5 18t57.5 33q16 15 16 34v62zM319 305q-7 -10 -24 -21l-71 -36q-32 -15 -51 -29.5t-32 -37.5
q-15 -24 -15 -60q0 -43 21.5 -65.5t59.5 -22.5q66 0 112 76v196zM280 599q-24 26 -50 50.5t-58 52.5q-35 31 -49 49q-14 17 -14 34q0 16 11 25.5t24 9.5q20 0 35 -17.5t35 -56.5q17 -33 36 -68t42 -70z" />
    <glyph glyph-name="aacute" unicode="&#xe1;" horiz-adv-x="498" 
d="M319 408q0 56 -22.5 78.5t-69.5 22.5q-71 0 -100 -36q21 -5 34 -21.5t13 -39.5q0 -25 -15.5 -39.5t-42.5 -14.5q-25 0 -39.5 17t-14.5 45q0 35 32 60t75 38q38 11 80 11q40 0 71.5 -10t49.5 -28q22 -23 31 -54t9 -86v-278q0 -25 7 -36t23 -11q12 0 22 5t23 16l12 -17
q-20 -15 -31.5 -22t-25.5 -10q-17 -5 -35 -5q-46 0 -66 23t-20 66q-28 -46 -68 -67.5t-85 -21.5q-36 0 -64.5 12.5t-45.5 36.5t-17 63q0 37 17.5 64t52.5 48q39 22 91 44q6 2 45.5 18t57.5 33q16 15 16 34v62zM319 305q-7 -10 -24 -21l-71 -36q-32 -15 -51 -29.5t-32 -37.5
q-15 -24 -15 -60q0 -43 21.5 -65.5t59.5 -22.5q66 0 112 76v196zM184 608q29 47 73 130q24 46 39 64t35 18q13 0 24 -9.5t11 -25.5q0 -15 -13.5 -33.5t-43.5 -43.5q-64 -56 -115 -109z" />
    <glyph glyph-name="acircumflex" unicode="&#xe2;" horiz-adv-x="498" 
d="M319 408q0 56 -22.5 78.5t-69.5 22.5q-71 0 -100 -36q21 -5 34 -21.5t13 -39.5q0 -25 -15.5 -39.5t-42.5 -14.5q-25 0 -39.5 17t-14.5 45q0 35 32 60t75 38q38 11 80 11q40 0 71.5 -10t49.5 -28q22 -23 31 -54t9 -86v-278q0 -25 7 -36t23 -11q12 0 22 5t23 16l12 -17
q-20 -15 -31.5 -22t-25.5 -10q-17 -5 -35 -5q-46 0 -66 23t-20 66q-28 -46 -68 -67.5t-85 -21.5q-36 0 -64.5 12.5t-45.5 36.5t-17 63q0 37 17.5 64t52.5 48q39 22 91 44q6 2 45.5 18t57.5 33q16 15 16 34v62zM319 305q-7 -10 -24 -21l-71 -36q-32 -15 -51 -29.5t-32 -37.5
q-15 -24 -15 -60q0 -43 21.5 -65.5t59.5 -22.5q66 0 112 76v196zM254 802q21 -52 66 -98.5t101 -73.5l-7 -14q-55 19 -106 46t-82 54q-25 -27 -65.5 -54t-82.5 -46l-9 14q57 27 101.5 73.5t65.5 98.5h18z" />
    <glyph glyph-name="atilde" unicode="&#xe3;" horiz-adv-x="498" 
d="M319 408q0 56 -22.5 78.5t-69.5 22.5q-71 0 -100 -36q21 -5 34 -21.5t13 -39.5q0 -25 -15.5 -39.5t-42.5 -14.5q-25 0 -39.5 17t-14.5 45q0 35 32 60t75 38q38 11 80 11q40 0 71.5 -10t49.5 -28q22 -23 31 -54t9 -86v-278q0 -25 7 -36t23 -11q12 0 22 5t23 16l12 -17
q-20 -15 -31.5 -22t-25.5 -10q-17 -5 -35 -5q-46 0 -66 23t-20 66q-28 -46 -68 -67.5t-85 -21.5q-36 0 -64.5 12.5t-45.5 36.5t-17 63q0 37 17.5 64t52.5 48q39 22 91 44q6 2 45.5 18t57.5 33q16 15 16 34v62zM319 305q-7 -10 -24 -21l-71 -36q-32 -15 -51 -29.5t-32 -37.5
q-15 -24 -15 -60q0 -43 21.5 -65.5t59.5 -22.5q66 0 112 76v196zM52 665q15 51 46.5 77t73.5 26q24 0 41.5 -8.5t50.5 -33.5q32 -24 58 -24q46 0 78 53l14 -7q-15 -51 -46 -77t-72 -26q-25 0 -43 8.5t-51 34.5q-31 24 -58 24q-44 0 -77 -54z" />
    <glyph glyph-name="adieresis" unicode="&#xe4;" horiz-adv-x="498" 
d="M319 408q0 56 -22.5 78.5t-69.5 22.5q-71 0 -100 -36q21 -5 34 -21.5t13 -39.5q0 -25 -15.5 -39.5t-42.5 -14.5q-25 0 -39.5 17t-14.5 45q0 35 32 60t75 38q38 11 80 11q40 0 71.5 -10t49.5 -28q22 -23 31 -54t9 -86v-278q0 -25 7 -36t23 -11q12 0 22 5t23 16l12 -17
q-20 -15 -31.5 -22t-25.5 -10q-17 -5 -35 -5q-46 0 -66 23t-20 66q-28 -46 -68 -67.5t-85 -21.5q-36 0 -64.5 12.5t-45.5 36.5t-17 63q0 37 17.5 64t52.5 48q39 22 91 44q6 2 45.5 18t57.5 33q16 15 16 34v62zM319 305q-7 -10 -24 -21l-71 -36q-32 -15 -51 -29.5t-32 -37.5
q-15 -24 -15 -60q0 -43 21.5 -65.5t59.5 -22.5q66 0 112 76v196zM169 735q14 -8 22 -21q7 -13 7 -29t-8 -29.5t-21 -20.5q-12 -8 -29 -8q-23 0 -40.5 17t-17.5 41q0 15 8 28.5t22 21.5q11 8 28 8q15 0 29 -8zM381 735q14 -8 22 -21q7 -13 7 -29t-8 -29.5t-21 -20.5
q-12 -8 -29 -8q-23 0 -40 17t-17 41q0 15 7.5 29t20.5 21q12 8 29 8q15 0 29 -8z" />
    <glyph glyph-name="aring" unicode="&#xe5;" horiz-adv-x="498" 
d="M319 408q0 56 -22.5 78.5t-69.5 22.5q-71 0 -100 -36q21 -5 34 -21.5t13 -39.5q0 -25 -15.5 -39.5t-42.5 -14.5q-25 0 -39.5 17t-14.5 45q0 35 32 60t75 38q38 11 80 11q40 0 71.5 -10t49.5 -28q22 -23 31 -54t9 -86v-278q0 -25 7 -36t23 -11q12 0 22 5t23 16l12 -17
q-20 -15 -31.5 -22t-25.5 -10q-17 -5 -35 -5q-46 0 -66 23t-20 66q-28 -46 -68 -67.5t-85 -21.5q-36 0 -64.5 12.5t-45.5 36.5t-17 63q0 37 17.5 64t52.5 48q39 22 91 44q6 2 45.5 18t57.5 33q16 15 16 34v62zM319 305q-7 -10 -24 -21l-71 -36q-32 -15 -51 -29.5t-32 -37.5
q-15 -24 -15 -60q0 -43 21.5 -65.5t59.5 -22.5q66 0 112 76v196zM294 779.5q22 -11.5 35 -31.5q14 -22 14 -48q0 -27 -13.5 -48t-35.5 -33q-24 -11 -49 -11q-26 0 -47.5 11.5t-34.5 31.5q-13 22 -13 49t13 48t35 32q24 11 47 11q27 0 49 -11.5zM212.5 761.5
q-15.5 -8.5 -24.5 -24.5q-10 -14 -10 -38q0 -44 35 -62q16 -8 32 -8q18 0 34 8t26 24q10 17 10 38q0 42 -36 63q-18 8 -34 8q-17 0 -32.5 -8.5z" />
    <glyph glyph-name="ae" unicode="&#xe6;" horiz-adv-x="742" 
d="M408 309q-4 -23 -4 -64q0 -65 19.5 -114.5t53.5 -76.5q32 -26 68 -26q43 0 74.5 23.5t52.5 76.5l20 -8q-11 -36 -34 -66.5t-56 -48.5q-34 -19 -77 -19q-68 0 -115 32.5t-70 95.5q-57 -128 -172 -128q-35 0 -63.5 12t-45.5 36q-18 22 -18 62q0 75 70 120q36 23 85 44
q3 1 44.5 18t59.5 35q16 15 16 33v62q0 101 -97 101q-30 0 -55.5 -9t-40.5 -27q19 -5 30.5 -18t11.5 -33q0 -24 -16 -39t-40 -15q-23 0 -37.5 15t-14.5 38q0 27 22.5 52t64.5 40.5t97 15.5q51 0 85.5 -15t53.5 -49q52 64 141 64q87 0 132.5 -55t45.5 -165h-291zM603 328
q2 111 -37 157q-20 25 -48 25q-60 0 -91 -80q-16 -41 -21 -102h197zM316 305q-19 -22 -81 -51q-54 -27 -80.5 -59.5t-26.5 -81.5q0 -44 21.5 -65.5t57.5 -21.5q70 0 109 83v196z" />
    <glyph glyph-name="ccedilla" unicode="&#xe7;" horiz-adv-x="486" 
d="M257 -14l-19 -58q28 7 60 7q28 0 44.5 -12.5t16.5 -34.5q0 -25 -16.5 -42.5t-44.5 -25.5q-23 -8 -53 -8q-50 0 -83 11l5 18q19 -3 37 -3q40 0 65.5 11t25.5 34q0 28 -42 28q-30 0 -50 -7l28 85q-51 8 -91.5 39t-64.5 82q-30 60 -30 141t29.5 144.5t83.5 98.5
q53 35 120 35t117 -32q46 -31 46 -77q0 -26 -14.5 -41t-37.5 -15q-24 0 -40 13.5t-16 36.5q0 21 12 35.5t30 19.5q-10 18 -35.5 30t-53.5 12q-39 0 -71 -24.5t-51 -76.5q-21 -52 -21 -144q0 -120 38.5 -178.5t105.5 -58.5q44 0 82 26t63 77l19 -7q-12 -37 -36 -68.5
t-60 -50.5q-38 -20 -88 -20h-10z" />
    <glyph glyph-name="egrave" unicode="&#xe8;" horiz-adv-x="506" 
d="M462 120q-12 -36 -38 -66.5t-63 -48.5q-38 -19 -86 -19q-71 0 -123 32t-79 92q-28 61 -28 135q0 86 28 150.5t79 99.5q50 34 119 34q91 0 139 -55t48 -165h-312q-3 -25 -3 -64q0 -65 21 -114.5t57 -76.5q37 -26 74 -26q102 0 147 100zM362 328q2 51 -8 92t-32 65
q-23 25 -54 25t-57 -20t-44 -60q-18 -41 -22 -102h217zM305 599q-24 26 -50 50.5t-58 52.5q-35 31 -49 49q-14 17 -14 34q0 16 11 25.5t24 9.5q20 0 35 -17.5t35 -56.5q17 -33 36 -68t42 -70z" />
    <glyph glyph-name="eacute" unicode="&#xe9;" horiz-adv-x="506" 
d="M462 120q-12 -36 -38 -66.5t-63 -48.5q-38 -19 -86 -19q-71 0 -123 32t-79 92q-28 61 -28 135q0 86 28 150.5t79 99.5q50 34 119 34q91 0 139 -55t48 -165h-312q-3 -25 -3 -64q0 -65 21 -114.5t57 -76.5q37 -26 74 -26q102 0 147 100zM362 328q2 51 -8 92t-32 65
q-23 25 -54 25t-57 -20t-44 -60q-18 -41 -22 -102h217zM209 608q29 47 73 130q24 46 39 64t35 18q13 0 24 -9.5t11 -25.5q0 -15 -13.5 -33.5t-43.5 -43.5q-64 -56 -115 -109z" />
    <glyph glyph-name="ecircumflex" unicode="&#xea;" horiz-adv-x="506" 
d="M462 120q-12 -36 -38 -66.5t-63 -48.5q-38 -19 -86 -19q-71 0 -123 32t-79 92q-28 61 -28 135q0 86 28 150.5t79 99.5q50 34 119 34q91 0 139 -55t48 -165h-312q-3 -25 -3 -64q0 -65 21 -114.5t57 -76.5q37 -26 74 -26q102 0 147 100zM362 328q2 51 -8 92t-32 65
q-23 25 -54 25t-57 -20t-44 -60q-18 -41 -22 -102h217zM279 802q21 -52 66 -98.5t101 -73.5l-7 -14q-55 19 -106 46t-82 54q-25 -27 -65.5 -54t-82.5 -46l-9 14q57 27 101.5 73.5t65.5 98.5h18z" />
    <glyph glyph-name="edieresis" unicode="&#xeb;" horiz-adv-x="506" 
d="M462 120q-12 -36 -38 -66.5t-63 -48.5q-38 -19 -86 -19q-71 0 -123 32t-79 92q-28 61 -28 135q0 86 28 150.5t79 99.5q50 34 119 34q91 0 139 -55t48 -165h-312q-3 -25 -3 -64q0 -65 21 -114.5t57 -76.5q37 -26 74 -26q102 0 147 100zM362 328q2 51 -8 92t-32 65
q-23 25 -54 25t-57 -20t-44 -60q-18 -41 -22 -102h217zM194 735q14 -8 22 -21q7 -13 7 -29t-8 -29.5t-21 -20.5q-12 -8 -29 -8q-23 0 -40.5 17t-17.5 41q0 15 8 28.5t22 21.5q11 8 28 8q15 0 29 -8zM406 735q14 -8 22 -21q7 -13 7 -29t-8 -29.5t-21 -20.5q-12 -8 -29 -8
q-23 0 -40 17t-17 41q0 15 7.5 29t20.5 21q12 8 29 8q15 0 29 -8z" />
    <glyph glyph-name="igrave" unicode="&#xec;" horiz-adv-x="293" 
d="M194 93q0 -28 7.5 -43.5t24.5 -22.5q17 -6 45 -6v-21q-50 2 -64 2l-58 2l-59 -2q-14 0 -62 -2v21q29 0 45.5 6.5t23.5 21.5t7 44v313q0 47 -17 67.5t-59 20.5v21q31 -3 62 -3q62 0 104 14v-433zM175 599q-24 26 -50 50.5t-58 52.5q-35 31 -49 49q-14 17 -14 34
q0 16 11 25.5t24 9.5q20 0 35 -17.5t35 -56.5q17 -33 36 -68t42 -70z" />
    <glyph glyph-name="iacute" unicode="&#xed;" horiz-adv-x="293" 
d="M194 93q0 -28 7.5 -43.5t24.5 -22.5q17 -6 45 -6v-21q-50 2 -64 2l-58 2l-59 -2q-14 0 -62 -2v21q29 0 45.5 6.5t23.5 21.5t7 44v313q0 47 -17 67.5t-59 20.5v21q31 -3 62 -3q62 0 104 14v-433zM79 608q29 47 73 130q24 46 39 64t35 18q13 0 24 -9.5t11 -25.5
q0 -15 -13.5 -33.5t-43.5 -43.5q-64 -56 -115 -109z" />
    <glyph glyph-name="icircumflex" unicode="&#xee;" horiz-adv-x="293" 
d="M194 93q0 -28 7.5 -43.5t24.5 -22.5q17 -6 45 -6v-21q-50 2 -64 2l-58 2l-59 -2q-14 0 -62 -2v21q29 0 45.5 6.5t23.5 21.5t7 44v313q0 47 -17 67.5t-59 20.5v21q31 -3 62 -3q62 0 104 14v-433zM149 802q21 -52 66 -98.5t101 -73.5l-7 -14q-55 19 -106 46t-82 54
q-25 -27 -65.5 -54t-82.5 -46l-9 14q57 27 101.5 73.5t65.5 98.5h18z" />
    <glyph glyph-name="idieresis" unicode="&#xef;" horiz-adv-x="293" 
d="M194 93q0 -28 7.5 -43.5t24.5 -22.5q17 -6 45 -6v-21q-50 2 -64 2l-58 2l-59 -2q-14 0 -62 -2v21q29 0 45.5 6.5t23.5 21.5t7 44v313q0 47 -17 67.5t-59 20.5v21q31 -3 62 -3q62 0 104 14v-433zM64 735q14 -8 22 -21q7 -13 7 -29t-8 -29.5t-21 -20.5q-12 -8 -29 -8
q-23 0 -40.5 17t-17.5 41q0 15 8 28.5t22 21.5q11 8 28 8q15 0 29 -8zM276 735q14 -8 22 -21q7 -13 7 -29t-8 -29.5t-21 -20.5q-12 -8 -29 -8q-23 0 -40 17t-17 41q0 15 7.5 29t20.5 21q12 8 29 8q15 0 29 -8z" />
    <glyph glyph-name="eth" unicode="&#xf0;" horiz-adv-x="554" 
d="M312 687q186 -141 186 -385q0 -100 -31 -172.5t-85 -108.5q-52 -35 -112 -35q-67 0 -118 31t-78 90q-29 61 -29 148q0 71 26.5 133.5t74.5 100.5q47 40 118 40q80 0 119 -52q-29 120 -106 193l-180 -88l-10 18l174 85q-49 42 -132 80l9 17q86 -34 155 -82l142 69l8 -18z
M364 74q38 67 38 228q0 43 -2 64q-9 77 -43 109.5t-86 32.5q-59 0 -93 -61q-35 -58 -35 -194q0 -84 15.5 -140t44.5 -82q26 -25 62 -25q60 0 99 68z" />
    <glyph glyph-name="ntilde" unicode="&#xf1;" horiz-adv-x="597" 
d="M194 408q25 62 69 91.5t102 29.5q70 0 106 -38q19 -20 26.5 -50t7.5 -81v-267q0 -28 7.5 -43.5t24.5 -22.5q17 -6 45 -6v-21q-48 2 -62 2l-59 2l-54 -2q-13 0 -57 -2v21q25 0 38.5 6.5t20.5 21.5t7 44v289q0 38 -6.5 62t-22.5 38q-18 15 -53 15q-40 0 -72.5 -23.5
t-49.5 -65.5q-18 -42 -18 -93v-222q0 -53 28 -66q14 -6 39 -6v-21l-55 2l-58 2l-57 -2q-15 0 -63 -2v21q29 0 45.5 6.5t23.5 21.5t7 44v313q0 47 -17 67.5t-59 20.5v21q31 -3 62 -3q62 0 104 14v-118zM112 665q15 51 46.5 77t73.5 26q24 0 41.5 -8.5t50.5 -33.5
q32 -24 58 -24q46 0 78 53l14 -7q-15 -51 -46 -77t-72 -26q-25 0 -43 8.5t-51 34.5q-31 24 -58 24q-44 0 -77 -54z" />
    <glyph glyph-name="ograve" unicode="&#xf2;" horiz-adv-x="548" 
d="M391.5 499.5q50.5 -29.5 79.5 -88.5t29 -154q0 -91 -28.5 -152t-80.5 -90q-53 -29 -118 -29q-67 0 -117.5 29.5t-79.5 88.5q-30 60 -30 153q0 90 29 151.5t82 91.5q50 29 116 29q68 0 118.5 -29.5zM177.5 446q-33.5 -63 -33.5 -189t33.5 -188.5t95.5 -62.5t96 62.5
t34 188.5t-34 189t-96 63t-95.5 -63zM311 599q-24 26 -50 50.5t-58 52.5q-35 31 -49 49q-14 17 -14 34q0 16 11 25.5t24 9.5q20 0 35 -17.5t35 -56.5q17 -33 36 -68t42 -70z" />
    <glyph glyph-name="oacute" unicode="&#xf3;" horiz-adv-x="548" 
d="M391.5 499.5q50.5 -29.5 79.5 -88.5t29 -154q0 -91 -28.5 -152t-80.5 -90q-53 -29 -118 -29q-67 0 -117.5 29.5t-79.5 88.5q-30 60 -30 153q0 90 29 151.5t82 91.5q50 29 116 29q68 0 118.5 -29.5zM177.5 446q-33.5 -63 -33.5 -189t33.5 -188.5t95.5 -62.5t96 62.5
t34 188.5t-34 189t-96 63t-95.5 -63zM215 608q29 47 73 130q24 46 39 64t35 18q13 0 24 -9.5t11 -25.5q0 -15 -13.5 -33.5t-43.5 -43.5q-64 -56 -115 -109z" />
    <glyph glyph-name="ocircumflex" unicode="&#xf4;" horiz-adv-x="548" 
d="M391.5 499.5q50.5 -29.5 79.5 -88.5t29 -154q0 -91 -28.5 -152t-80.5 -90q-53 -29 -118 -29q-67 0 -117.5 29.5t-79.5 88.5q-30 60 -30 153q0 90 29 151.5t82 91.5q50 29 116 29q68 0 118.5 -29.5zM177.5 446q-33.5 -63 -33.5 -189t33.5 -188.5t95.5 -62.5t96 62.5
t34 188.5t-34 189t-96 63t-95.5 -63zM285 802q21 -52 66 -98.5t101 -73.5l-7 -14q-55 19 -106 46t-82 54q-25 -27 -65.5 -54t-82.5 -46l-9 14q57 27 101.5 73.5t65.5 98.5h18z" />
    <glyph glyph-name="otilde" unicode="&#xf5;" horiz-adv-x="548" 
d="M391.5 499.5q50.5 -29.5 79.5 -88.5t29 -154q0 -91 -28.5 -152t-80.5 -90q-53 -29 -118 -29q-67 0 -117.5 29.5t-79.5 88.5q-30 60 -30 153q0 90 29 151.5t82 91.5q50 29 116 29q68 0 118.5 -29.5zM177.5 446q-33.5 -63 -33.5 -189t33.5 -188.5t95.5 -62.5t96 62.5
t34 188.5t-34 189t-96 63t-95.5 -63zM83 665q15 51 46.5 77t73.5 26q24 0 41.5 -8.5t50.5 -33.5q32 -24 58 -24q46 0 78 53l14 -7q-15 -51 -46 -77t-72 -26q-25 0 -43 8.5t-51 34.5q-31 24 -58 24q-44 0 -77 -54z" />
    <glyph glyph-name="odieresis" unicode="&#xf6;" horiz-adv-x="548" 
d="M391.5 499.5q50.5 -29.5 79.5 -88.5t29 -154q0 -91 -28.5 -152t-80.5 -90q-53 -29 -118 -29q-67 0 -117.5 29.5t-79.5 88.5q-30 60 -30 153q0 90 29 151.5t82 91.5q50 29 116 29q68 0 118.5 -29.5zM177.5 446q-33.5 -63 -33.5 -189t33.5 -188.5t95.5 -62.5t96 62.5
t34 188.5t-34 189t-96 63t-95.5 -63zM200 735q14 -8 22 -21q7 -13 7 -29t-8 -29.5t-21 -20.5q-12 -8 -29 -8q-23 0 -40.5 17t-17.5 41q0 15 8 28.5t22 21.5q11 8 28 8q15 0 29 -8zM412 735q14 -8 22 -21q7 -13 7 -29t-8 -29.5t-21 -20.5q-12 -8 -29 -8q-23 0 -40 17t-17 41
q0 15 7.5 29t20.5 21q12 8 29 8q15 0 29 -8z" />
    <glyph glyph-name="divide" unicode="&#xf7;" horiz-adv-x="649" 
d="M363 538q16 -16 16 -39t-16 -39t-39 -16t-39 16t-16 39t16.5 39t38.5 16q23 0 39 -16zM73 340v30h501v-30h-501zM363 250q16 -16 16 -39t-16 -39.5t-39 -16.5t-39 16.5t-16 39.5t16 39t39 16t39 -16z" />
    <glyph glyph-name="oslash" unicode="&#xf8;" horiz-adv-x="547" 
d="M432 467q68 -69 68 -210q0 -91 -28.5 -152t-80.5 -90q-53 -29 -118 -29q-83 0 -139 43l-70 -102l-21 14l73 105q-70 70 -70 211q0 90 29 151.5t82 91.5q50 29 116 29q86 0 142 -46l70 104l19 -13zM374 437q-33 72 -101 72q-62 0 -95.5 -63t-33.5 -189q0 -97 20 -154z
M175 75q33 -69 98 -69q62 0 96 62.5t34 188.5q0 94 -19 152z" />
    <glyph glyph-name="ugrave" unicode="&#xf9;" horiz-adv-x="581" 
d="M482 108q0 -47 17.5 -67.5t59.5 -20.5v-21q-31 3 -62 3q-64 0 -104 -14v118q-24 -60 -67 -90t-97 -30q-68 0 -104 38q-18 19 -26 50.5t-8 80.5v251q0 47 -17 67.5t-58 20.5v21q31 -3 62 -3q60 0 104 14v-393q0 -42 5 -64t20 -36q17 -15 50 -15q39 0 70 23.5t48 65.5
q18 42 18 92v207q0 47 -17.5 67.5t-59.5 20.5v21q31 -3 62 -3q64 0 104 14v-418zM314 599q-24 26 -50 50.5t-58 52.5q-35 31 -49 49q-14 17 -14 34q0 16 11 25.5t24 9.5q20 0 35 -17.5t35 -56.5q17 -33 36 -68t42 -70z" />
    <glyph glyph-name="uacute" unicode="&#xfa;" horiz-adv-x="581" 
d="M482 108q0 -47 17.5 -67.5t59.5 -20.5v-21q-31 3 -62 3q-64 0 -104 -14v118q-24 -60 -67 -90t-97 -30q-68 0 -104 38q-18 19 -26 50.5t-8 80.5v251q0 47 -17 67.5t-58 20.5v21q31 -3 62 -3q60 0 104 14v-393q0 -42 5 -64t20 -36q17 -15 50 -15q39 0 70 23.5t48 65.5
q18 42 18 92v207q0 47 -17.5 67.5t-59.5 20.5v21q31 -3 62 -3q64 0 104 14v-418zM218 608q29 47 73 130q24 46 39 64t35 18q13 0 24 -9.5t11 -25.5q0 -15 -13.5 -33.5t-43.5 -43.5q-64 -56 -115 -109z" />
    <glyph glyph-name="ucircumflex" unicode="&#xfb;" horiz-adv-x="581" 
d="M482 108q0 -47 17.5 -67.5t59.5 -20.5v-21q-31 3 -62 3q-64 0 -104 -14v118q-24 -60 -67 -90t-97 -30q-68 0 -104 38q-18 19 -26 50.5t-8 80.5v251q0 47 -17 67.5t-58 20.5v21q31 -3 62 -3q60 0 104 14v-393q0 -42 5 -64t20 -36q17 -15 50 -15q39 0 70 23.5t48 65.5
q18 42 18 92v207q0 47 -17.5 67.5t-59.5 20.5v21q31 -3 62 -3q64 0 104 14v-418zM288 802q21 -52 66 -98.5t101 -73.5l-7 -14q-55 19 -106 46t-82 54q-25 -27 -65.5 -54t-82.5 -46l-9 14q57 27 101.5 73.5t65.5 98.5h18z" />
    <glyph glyph-name="udieresis" unicode="&#xfc;" horiz-adv-x="581" 
d="M482 108q0 -47 17.5 -67.5t59.5 -20.5v-21q-31 3 -62 3q-64 0 -104 -14v118q-24 -60 -67 -90t-97 -30q-68 0 -104 38q-18 19 -26 50.5t-8 80.5v251q0 47 -17 67.5t-58 20.5v21q31 -3 62 -3q60 0 104 14v-393q0 -42 5 -64t20 -36q17 -15 50 -15q39 0 70 23.5t48 65.5
q18 42 18 92v207q0 47 -17.5 67.5t-59.5 20.5v21q31 -3 62 -3q64 0 104 14v-418zM203 735q14 -8 22 -21q7 -13 7 -29t-8 -29.5t-21 -20.5q-12 -8 -29 -8q-23 0 -40.5 17t-17.5 41q0 15 8 28.5t22 21.5q11 8 28 8q15 0 29 -8zM415 735q14 -8 22 -21q7 -13 7 -29t-8 -29.5
t-21 -20.5q-12 -8 -29 -8q-23 0 -40 17t-17 41q0 15 7.5 29t20.5 21q12 8 29 8q15 0 29 -8z" />
    <glyph glyph-name="yacute" unicode="&#xfd;" horiz-adv-x="504" 
d="M334 515q53 -3 84 -3q44 0 76 3v-20q-21 -2 -36.5 -18t-28.5 -52l-164 -430l-34 -87q-19 -51 -46 -73.5t-75 -22.5q-31 0 -49.5 16t-18.5 44q0 24 14 38.5t39 14.5q23 0 37 -12.5t14 -34.5q0 -30 -27 -45l6 -1q55 0 85 78l36 91l-182 437q-16 32 -32.5 44t-35.5 12v21
q47 -6 98 -6q43 0 130 6v-21q-27 0 -39.5 -2t-20.5 -9q-10 -7 -10 -24q0 -15 13 -49l121 -299l110 290q11 30 11 46q0 23 -18 34.5t-57 13.5v20zM192 608q29 47 73 130q24 46 39 64t35 18q13 0 24 -9.5t11 -25.5q0 -15 -13.5 -33.5t-43.5 -43.5q-64 -56 -115 -109z" />
    <glyph glyph-name="thorn" unicode="&#xfe;" horiz-adv-x="559" 
d="M166 420q23 52 64.5 80.5t95.5 28.5t96 -29t66 -85q24 -57 24 -134q0 -79 -25 -145.5t-75 -107.5q-52 -42 -129 -42q-38 0 -69 14.5t-48 39.5v-128q0 -39 23 -55.5t73 -16.5v-21l-57 2q-30 2 -87 2q-43 0 -65 -2l-43 -2v21q25 0 39 6t21 19q6 13 6 37v761q0 47 -17 67.5
t-59 20.5v21q32 -3 62 -3q64 0 104 14v-363zM166 73q33 -64 106 -64q143 0 143 258q0 232 -116 232q-47 0 -82.5 -33t-50.5 -93v-300z" />
    <glyph glyph-name="ydieresis" unicode="&#xff;" horiz-adv-x="504" 
d="M334 515q53 -3 84 -3q44 0 76 3v-20q-21 -2 -36.5 -18t-28.5 -52l-164 -430l-34 -87q-19 -51 -46 -73.5t-75 -22.5q-31 0 -49.5 16t-18.5 44q0 24 14 38.5t39 14.5q23 0 37 -12.5t14 -34.5q0 -30 -27 -45l6 -1q55 0 85 78l36 91l-182 437q-16 32 -32.5 44t-35.5 12v21
q47 -6 98 -6q43 0 130 6v-21q-27 0 -39.5 -2t-20.5 -9q-10 -7 -10 -24q0 -15 13 -49l121 -299l110 290q11 30 11 46q0 23 -18 34.5t-57 13.5v20zM177 735q14 -8 22 -21q7 -13 7 -29t-8 -29.5t-21 -20.5q-12 -8 -29 -8q-23 0 -40.5 17t-17.5 41q0 15 8 28.5t22 21.5
q11 8 28 8q15 0 29 -8zM389 735q14 -8 22 -21q7 -13 7 -29t-8 -29.5t-21 -20.5q-12 -8 -29 -8q-23 0 -40 17t-17 41q0 15 7.5 29t20.5 21q12 8 29 8q15 0 29 -8z" />
    <glyph glyph-name="Amacron" unicode="&#x100;" horiz-adv-x="630" 
d="M567 84q24 -62 69 -64v-20q-40 3 -107 3q-86 0 -128 -3v20q39 2 55 9.5t16 27.5q0 17 -12 47l-62 164h-241l-41 -106q-20 -52 -20 -82q0 -31 21 -45t66 -15v-20q-57 3 -115 3q-45 0 -75 -3v20q50 11 79 87l235 606h16zM279 586l-114 -298h226zM132 819v25h352v-25h-352z
" />
    <glyph glyph-name="amacron" unicode="&#x101;" horiz-adv-x="498" 
d="M319 408q0 56 -22.5 78.5t-69.5 22.5q-71 0 -100 -36q21 -5 34 -21.5t13 -39.5q0 -25 -15.5 -39.5t-42.5 -14.5q-25 0 -39.5 17t-14.5 45q0 35 32 60t75 38q38 11 80 11q40 0 71.5 -10t49.5 -28q22 -23 31 -54t9 -86v-278q0 -25 7 -36t23 -11q12 0 22 5t23 16l12 -17
q-20 -15 -31.5 -22t-25.5 -10q-17 -5 -35 -5q-46 0 -66 23t-20 66q-28 -46 -68 -67.5t-85 -21.5q-36 0 -64.5 12.5t-45.5 36.5t-17 63q0 37 17.5 64t52.5 48q39 22 91 44q6 2 45.5 18t57.5 33q16 15 16 34v62zM319 305q-7 -10 -24 -21l-71 -36q-32 -15 -51 -29.5t-32 -37.5
q-15 -24 -15 -60q0 -43 21.5 -65.5t59.5 -22.5q66 0 112 76v196zM86 687v25h312v-25h-312z" />
    <glyph glyph-name="Abreve" unicode="&#x102;" horiz-adv-x="630" 
d="M567 84q24 -62 69 -64v-20q-40 3 -107 3q-86 0 -128 -3v20q39 2 55 9.5t16 27.5q0 17 -12 47l-62 164h-241l-41 -106q-20 -52 -20 -82q0 -31 21 -45t66 -15v-20q-57 3 -115 3q-45 0 -75 -3v20q50 11 79 87l235 606h16zM279 586l-114 -298h226zM507 898q-31 -51 -82 -83.5
t-116 -32.5q-66 0 -117 32.5t-83 83.5l14 10q29 -29 76.5 -46.5t109.5 -17.5t109.5 18t77.5 47z" />
    <glyph glyph-name="abreve" unicode="&#x103;" horiz-adv-x="498" 
d="M319 408q0 56 -22.5 78.5t-69.5 22.5q-71 0 -100 -36q21 -5 34 -21.5t13 -39.5q0 -25 -15.5 -39.5t-42.5 -14.5q-25 0 -39.5 17t-14.5 45q0 35 32 60t75 38q38 11 80 11q40 0 71.5 -10t49.5 -28q22 -23 31 -54t9 -86v-278q0 -25 7 -36t23 -11q12 0 22 5t23 16l12 -17
q-20 -15 -31.5 -22t-25.5 -10q-17 -5 -35 -5q-46 0 -66 23t-20 66q-28 -46 -68 -67.5t-85 -21.5q-36 0 -64.5 12.5t-45.5 36.5t-17 63q0 37 17.5 64t52.5 48q39 22 91 44q6 2 45.5 18t57.5 33q16 15 16 34v62zM319 305q-7 -10 -24 -21l-71 -36q-32 -15 -51 -29.5t-32 -37.5
q-15 -24 -15 -60q0 -43 21.5 -65.5t59.5 -22.5q66 0 112 76v196zM424 779q-27 -65 -73.5 -105.5t-106.5 -40.5q-59 0 -105 41t-73 105l16 9q58 -96 162 -96q106 0 162 96z" />
    <glyph glyph-name="Aogonek" unicode="&#x104;" horiz-adv-x="630" 
d="M639 -120q-43 -68 -112 -68q-36 0 -58 18t-22 47q0 39 35.5 71t101.5 54q-17 1 -55 1q-86 0 -128 -3v20q39 2 55 9.5t16 27.5q0 17 -12 47l-62 164h-241l-41 -106q-20 -52 -20 -82q0 -31 21 -45t66 -15v-20q-57 3 -115 3q-45 0 -75 -3v20q50 11 79 87l235 606h16
l244 -629q24 -62 69 -64v-20l-18 1q-49 -14 -73 -40t-24 -57q0 -20 11.5 -32t31.5 -12q17 0 33.5 9t27.5 24zM391 288l-112 298l-114 -298h226z" />
    <glyph glyph-name="aogonek" unicode="&#x105;" horiz-adv-x="498" 
d="M433.5 -131q16.5 9 27.5 24l14 -13q-43 -68 -112 -68q-36 0 -58 18t-22 47q0 35 29 64.5t83 51.5q-76 5 -76 89q-28 -46 -68 -67.5t-85 -21.5q-36 0 -64.5 12.5t-45.5 36.5t-17 63q0 37 17.5 64t52.5 48q39 22 91 44q6 2 45.5 18t57.5 33q16 15 16 34v62q0 56 -22.5 78.5
t-69.5 22.5q-71 0 -100 -36q21 -5 34 -21.5t13 -39.5q0 -25 -15.5 -39.5t-42.5 -14.5q-25 0 -39.5 17t-14.5 45q0 35 32 60t75 38q38 11 80 11q40 0 71.5 -10t49.5 -28q22 -23 31 -54t9 -86v-278q0 -25 7 -36t23 -11q12 0 22 5t23 16l12 -17q-13 -10 -24.5 -17.5
t-20.5 -10.5l-4 -2l-4 -2q-87 -37 -87 -94q0 -20 11.5 -32t31.5 -12q17 0 33.5 9zM319 305q-7 -10 -24 -21l-71 -36q-32 -15 -51 -29.5t-32 -37.5q-15 -24 -15 -60q0 -43 21.5 -65.5t59.5 -22.5q66 0 112 76v196z" />
    <glyph glyph-name="Cacute" unicode="&#x106;" horiz-adv-x="688" 
d="M600 0q-3 29 -8 45q-6 14 -17 14q-7 0 -20 -8q-32 -23 -57 -35.5t-56 -20.5q-31 -9 -72 -9q-96 0 -167 43t-111 125q-39 81 -39 194q0 110 40.5 195t112.5 132q70 47 165 47q56 0 98 -16t86 -49q11 -9 19 -9q20 0 26 60h23q-4 -57 -4 -230h-23q-8 46 -14 70.5t-14 41.5
q-7 17 -23 36q-29 38 -75.5 58t-100.5 20q-65 0 -114 -42.5t-76 -122.5q-27 -81 -27 -187q0 -107 29 -185.5t81 -120.5q52 -40 116 -40q53 0 99.5 19.5t71.5 56.5q20 27 29 57.5t18 100.5h23q0 -180 4 -240h-23zM303 785q48 38 113 97q32 29 55 44q17 10 30 10q19 0 31 -17
q5 -10 5 -19q0 -21 -26 -39q-25 -15 -56 -26q-85 -33 -146 -63z" />
    <glyph glyph-name="cacute" unicode="&#x107;" horiz-adv-x="486" 
d="M451 125q-12 -37 -36 -68.5t-60 -50.5q-38 -20 -88 -20q-63 0 -113.5 32t-78.5 92q-30 60 -30 141t29.5 144.5t83.5 98.5q53 35 120 35t117 -32q46 -31 46 -77q0 -26 -14.5 -41t-37.5 -15q-24 0 -40 13.5t-16 36.5q0 21 12 35.5t30 19.5q-10 18 -35.5 30t-53.5 12
q-39 0 -71 -24.5t-51 -76.5q-21 -52 -21 -144q0 -120 38.5 -178.5t105.5 -58.5q44 0 82 26t63 77zM201 608q29 47 73 130q24 46 39 64t35 18q13 0 24 -9.5t11 -25.5q0 -15 -13.5 -33.5t-43.5 -43.5q-64 -56 -115 -109z" />
    <glyph glyph-name="Ccircumflex" unicode="&#x108;" horiz-adv-x="688" 
d="M600 0q-3 29 -8 45q-6 14 -17 14q-7 0 -20 -8q-32 -23 -57 -35.5t-56 -20.5q-31 -9 -72 -9q-96 0 -167 43t-111 125q-39 81 -39 194q0 110 40.5 195t112.5 132q70 47 165 47q56 0 98 -16t86 -49q11 -9 19 -9q20 0 26 60h23q-4 -57 -4 -230h-23q-8 46 -14 70.5t-14 41.5
q-7 17 -23 36q-29 38 -75.5 58t-100.5 20q-65 0 -114 -42.5t-76 -122.5q-27 -81 -27 -187q0 -107 29 -185.5t81 -120.5q52 -40 116 -40q53 0 99.5 19.5t71.5 56.5q20 27 29 57.5t18 100.5h23q0 -180 4 -240h-23zM373 916q24 -40 73.5 -75.5t113.5 -56.5l-6 -14
q-60 13 -118.5 32t-92.5 38q-27 -19 -74 -38t-96 -32l-5 14q63 21 113 56.5t74 75.5h18z" />
    <glyph glyph-name="ccircumflex" unicode="&#x109;" horiz-adv-x="486" 
d="M451 125q-12 -37 -36 -68.5t-60 -50.5q-38 -20 -88 -20q-63 0 -113.5 32t-78.5 92q-30 60 -30 141t29.5 144.5t83.5 98.5q53 35 120 35t117 -32q46 -31 46 -77q0 -26 -14.5 -41t-37.5 -15q-24 0 -40 13.5t-16 36.5q0 21 12 35.5t30 19.5q-10 18 -35.5 30t-53.5 12
q-39 0 -71 -24.5t-51 -76.5q-21 -52 -21 -144q0 -120 38.5 -178.5t105.5 -58.5q44 0 82 26t63 77zM271 802q21 -52 66 -98.5t101 -73.5l-7 -14q-55 19 -106 46t-82 54q-25 -27 -65.5 -54t-82.5 -46l-9 14q57 27 101.5 73.5t65.5 98.5h18z" />
    <glyph glyph-name="Cdotaccent" unicode="&#x10a;" horiz-adv-x="688" 
d="M600 0q-3 29 -8 45q-6 14 -17 14q-7 0 -20 -8q-32 -23 -57 -35.5t-56 -20.5q-31 -9 -72 -9q-96 0 -167 43t-111 125q-39 81 -39 194q0 110 40.5 195t112.5 132q70 47 165 47q56 0 98 -16t86 -49q11 -9 19 -9q20 0 26 60h23q-4 -57 -4 -230h-23q-8 46 -14 70.5t-14 41.5
q-7 17 -23 36q-29 38 -75.5 58t-100.5 20q-65 0 -114 -42.5t-76 -122.5q-27 -81 -27 -187q0 -107 29 -185.5t81 -120.5q52 -40 116 -40q53 0 99.5 19.5t71.5 56.5q20 27 29 57.5t18 100.5h23q0 -180 4 -240h-23zM408.5 891.5q14.5 -8.5 23.5 -23.5t9 -32t-9 -32t-24 -23
q-14 -9 -31 -9t-32 8.5t-24 23.5q-8 16 -8 32q0 17 8.5 32t23.5 24q16 8 32 8q17 0 31.5 -8.5z" />
    <glyph glyph-name="cdotaccent" unicode="&#x10b;" horiz-adv-x="486" 
d="M451 125q-12 -37 -36 -68.5t-60 -50.5q-38 -20 -88 -20q-63 0 -113.5 32t-78.5 92q-30 60 -30 141t29.5 144.5t83.5 98.5q53 35 120 35t117 -32q46 -31 46 -77q0 -26 -14.5 -41t-37.5 -15q-24 0 -40 13.5t-16 36.5q0 21 12 35.5t30 19.5q-10 18 -35.5 30t-53.5 12
q-39 0 -71 -24.5t-51 -76.5q-21 -52 -21 -144q0 -120 38.5 -178.5t105.5 -58.5q44 0 82 26t63 77zM308.5 756.5q14.5 -8.5 23.5 -23.5t9 -32t-9 -32t-24 -23q-14 -9 -31 -9t-32 8.5t-24 23.5q-8 16 -8 32q0 17 8.5 32t23.5 23q15 9 32 9t31.5 -8.5z" />
    <glyph glyph-name="Ccaron" unicode="&#x10c;" horiz-adv-x="688" 
d="M600 0q-3 29 -8 45q-6 14 -17 14q-7 0 -20 -8q-32 -23 -57 -35.5t-56 -20.5q-31 -9 -72 -9q-96 0 -167 43t-111 125q-39 81 -39 194q0 110 40.5 195t112.5 132q70 47 165 47q56 0 98 -16t86 -49q11 -9 19 -9q20 0 26 60h23q-4 -57 -4 -230h-23q-8 46 -14 70.5t-14 41.5
q-7 17 -23 36q-29 38 -75.5 58t-100.5 20q-65 0 -114 -42.5t-76 -122.5q-27 -81 -27 -187q0 -107 29 -185.5t81 -120.5q52 -40 116 -40q53 0 99.5 19.5t71.5 56.5q20 27 29 57.5t18 100.5h23q0 -180 4 -240h-23zM557 912q-64 -22 -114 -57.5t-73 -74.5h-18q-24 39 -74 74.5
t-113 57.5l5 14q58 -12 116.5 -31.5t93.5 -38.5q30 19 77 38.5t94 31.5z" />
    <glyph glyph-name="ccaron" unicode="&#x10d;" horiz-adv-x="486" 
d="M451 125q-12 -37 -36 -68.5t-60 -50.5q-38 -20 -88 -20q-63 0 -113.5 32t-78.5 92q-30 60 -30 141t29.5 144.5t83.5 98.5q53 35 120 35t117 -32q46 -31 46 -77q0 -26 -14.5 -41t-37.5 -15q-24 0 -40 13.5t-16 36.5q0 21 12 35.5t30 19.5q-10 18 -35.5 30t-53.5 12
q-39 0 -71 -24.5t-51 -76.5q-21 -52 -21 -144q0 -120 38.5 -178.5t105.5 -58.5q44 0 82 26t63 77zM428 788q-57 -28 -101.5 -74.5t-65.5 -97.5h-18q-20 51 -65 97.5t-102 74.5l9 14q53 -19 104.5 -46t83.5 -54q24 27 64.5 54t83.5 46z" />
    <glyph glyph-name="Dcaron" unicode="&#x10e;" horiz-adv-x="723" 
d="M42 708q52 -3 97 -3h25l150 3q176 0 264.5 -88t88.5 -258q0 -109 -43 -191t-124 -126q-81 -45 -194 -45l-65 1l-75 2q-83 0 -124 -3v20q37 2 52.5 8t22.5 23q6 18 6 55v496q0 38 -6.5 55t-22.5 23q-14 6 -52 8v20zM215 104q0 -36 6 -54t22 -25q18 -7 48 -7
q104 0 165.5 38t86.5 113q24 75 24 189q0 117 -27 188.5t-87 107.5t-163 36q-32 0 -47.5 -7t-21.5 -25t-6 -54v-500zM508 912q-64 -22 -114 -57.5t-73 -74.5h-18q-24 39 -74 74.5t-113 57.5l5 14q58 -12 116.5 -31.5t93.5 -38.5q30 19 77 38.5t94 31.5z" />
    <glyph glyph-name="dcaron" unicode="&#x10f;" horiz-adv-x="581" 
d="M484 109q0 -47 17 -67.5t59 -20.5v-21q-31 3 -62 3q-64 0 -104 -14v89q-38 -92 -142 -92q-64 0 -109.5 30.5t-70.5 90.5q-24 62 -24 154q0 84 30 144.5t83 92.5q50 31 113 31q39 0 70.5 -15t49.5 -44v194q0 47 -17 67.5t-59 20.5v21q32 -3 62 -3q64 0 104 14v-675z
M394 429q-29 77 -112 77q-41 0 -71.5 -28t-48.5 -83q-17 -54 -17 -138q0 -241 136 -241q26 0 49 13.5t40 39.5q16 25 24 62v298zM543 773q4 -1 16 -1q29 0 59 12q2 -5 4 -17.5t2 -23.5q0 -26 -15 -64q-14 -34 -53 -116l-13 4q20 118 20 145q0 21 -4.5 30.5t-15.5 9.5v21z
" />
    <glyph glyph-name="Dcroat" unicode="&#x110;" horiz-adv-x="724" 
d="M42 708q54 -3 98 -3h25l150 3q176 0 264.5 -88t88.5 -258q0 -109 -43 -191t-124 -126q-81 -45 -194 -45l-65 1l-75 2q-83 0 -125 -3v20q38 2 53.5 8t22.5 23q6 18 6 55v240h-82v20h82v236q0 38 -6.5 55t-22.5 23q-14 6 -53 8v20zM216 104q0 -36 6 -54t22 -25q18 -7 48 -7
q104 0 165.5 38t86.5 113q24 75 24 189q0 117 -27 188.5t-87 107.5t-163 36q-32 0 -47.5 -7t-21.5 -25t-6 -54v-238h139v-20h-139v-242z" />
    <glyph glyph-name="dcroat" unicode="&#x111;" horiz-adv-x="581" 
d="M484 109q0 -47 17 -67.5t59 -20.5v-21q-31 3 -62 3q-64 0 -104 -14v89q-38 -92 -142 -92q-64 0 -109.5 30.5t-70.5 90.5q-24 62 -24 154q0 84 30 144.5t83 92.5q50 31 113 31q39 0 70.5 -15t49.5 -44v138h-178v20h178v36q0 47 -17 67.5t-59 20.5v21q32 -3 62 -3
q64 0 104 14v-156h86v-20h-86v-499zM394 429q-29 77 -112 77q-41 0 -71.5 -28t-48.5 -83q-17 -54 -17 -138q0 -241 136 -241q25 0 48.5 13.5t40.5 39.5q16 25 24 62v298z" />
    <glyph glyph-name="Emacron" unicode="&#x112;" horiz-adv-x="609" 
d="M557 200q-3 -27 -3 -72q0 -62 7 -128q-69 3 -229 3q-192 0 -290 -3v20q37 2 52.5 8t22.5 23q6 18 6 55v496q0 38 -6.5 55t-22.5 23q-14 6 -52 8v20q97 -3 290 -3q146 0 209 3q-7 -60 -7 -118q0 -39 3 -62h-23q-8 67 -19.5 98t-36.5 45q-26 14 -79 14h-83q-37 0 -53 -6
t-21 -22q-7 -15 -7 -55v-236h67q45 0 63.5 26t23.5 66l6 40h22q-3 -49 -3 -94l1 -48q0 -66 5 -142h-23l-5 48q-9 84 -90 84h-67v-240q0 -38 6.5 -54.5t22.5 -22.5q17 -6 52 -6h74q62 0 94.5 16.5t47.5 53.5q13 34 22 107h23zM129 819v25h352v-25h-352z" />
    <glyph glyph-name="emacron" unicode="&#x113;" horiz-adv-x="506" 
d="M462 120q-12 -36 -38 -66.5t-63 -48.5q-38 -19 -86 -19q-71 0 -123 32t-79 92q-28 61 -28 135q0 86 28 150.5t79 99.5q50 34 119 34q91 0 139 -55t48 -165h-312q-3 -25 -3 -64q0 -65 21 -114.5t57 -76.5q37 -26 74 -26q102 0 147 100zM362 328q2 51 -8 92t-32 65
q-23 25 -54 25t-57 -20t-44 -60q-18 -41 -22 -102h217zM111 687v25h312v-25h-312z" />
    <glyph glyph-name="Ebreve" unicode="&#x114;" horiz-adv-x="609" 
d="M557 200q-3 -27 -3 -72q0 -62 7 -128q-69 3 -229 3q-192 0 -290 -3v20q37 2 52.5 8t22.5 23q6 18 6 55v496q0 38 -6.5 55t-22.5 23q-14 6 -52 8v20q97 -3 290 -3q146 0 209 3q-7 -60 -7 -118q0 -39 3 -62h-23q-8 67 -19.5 98t-36.5 45q-26 14 -79 14h-83q-37 0 -53 -6
t-21 -22q-7 -15 -7 -55v-236h67q45 0 63.5 26t23.5 66l6 40h22q-3 -49 -3 -94l1 -48q0 -66 5 -142h-23l-5 48q-9 84 -90 84h-67v-240q0 -38 6.5 -54.5t22.5 -22.5q17 -6 52 -6h74q62 0 94.5 16.5t47.5 53.5q13 34 22 107h23zM504 898q-31 -51 -82 -83.5t-116 -32.5
q-66 0 -117 32.5t-83 83.5l14 10q29 -29 76.5 -46.5t109.5 -17.5t109.5 18t77.5 47z" />
    <glyph glyph-name="ebreve" unicode="&#x115;" horiz-adv-x="506" 
d="M462 120q-12 -36 -38 -66.5t-63 -48.5q-38 -19 -86 -19q-71 0 -123 32t-79 92q-28 61 -28 135q0 86 28 150.5t79 99.5q50 34 119 34q91 0 139 -55t48 -165h-312q-3 -25 -3 -64q0 -65 21 -114.5t57 -76.5q37 -26 74 -26q102 0 147 100zM362 328q2 51 -8 92t-32 65
q-23 25 -54 25t-57 -20t-44 -60q-18 -41 -22 -102h217zM449 779q-27 -65 -73.5 -105.5t-106.5 -40.5q-59 0 -105 41t-73 105l16 9q58 -96 162 -96q106 0 162 96z" />
    <glyph glyph-name="Edotaccent" unicode="&#x116;" horiz-adv-x="609" 
d="M557 200q-3 -27 -3 -72q0 -62 7 -128q-69 3 -229 3q-192 0 -290 -3v20q37 2 52.5 8t22.5 23q6 18 6 55v496q0 38 -6.5 55t-22.5 23q-14 6 -52 8v20q97 -3 290 -3q146 0 209 3q-7 -60 -7 -118q0 -39 3 -62h-23q-8 67 -19.5 98t-36.5 45q-26 14 -79 14h-83q-37 0 -53 -6
t-21 -22q-7 -15 -7 -55v-236h67q45 0 63.5 26t23.5 66l6 40h22q-3 -49 -3 -94l1 -48q0 -66 5 -142h-23l-5 48q-9 84 -90 84h-67v-240q0 -38 6.5 -54.5t22.5 -22.5q17 -6 52 -6h74q62 0 94.5 16.5t47.5 53.5q13 34 22 107h23zM350.5 891.5q14.5 -8.5 23.5 -23.5t9 -32t-9 -32
t-24 -23q-14 -9 -31 -9t-32 8.5t-24 23.5q-8 16 -8 32q0 17 8.5 32t23.5 24q16 8 32 8q17 0 31.5 -8.5z" />
    <glyph glyph-name="edotaccent" unicode="&#x117;" horiz-adv-x="506" 
d="M462 120q-12 -36 -38 -66.5t-63 -48.5q-38 -19 -86 -19q-71 0 -123 32t-79 92q-28 61 -28 135q0 86 28 150.5t79 99.5q50 34 119 34q91 0 139 -55t48 -165h-312q-3 -25 -3 -64q0 -65 21 -114.5t57 -76.5q37 -26 74 -26q102 0 147 100zM362 328q2 51 -8 92t-32 65
q-23 25 -54 25t-57 -20t-44 -60q-18 -41 -22 -102h217zM302.5 756.5q14.5 -8.5 23.5 -23.5t9 -32t-9 -32t-24 -23q-14 -9 -31 -9t-32 8.5t-24 23.5q-8 16 -8 32q0 17 8.5 32t23.5 23q15 9 32 9t31.5 -8.5z" />
    <glyph glyph-name="Eogonek" unicode="&#x118;" horiz-adv-x="609" 
d="M576 -120q-43 -68 -112 -68q-36 0 -58 18t-22 47q0 38 34.5 70t99.5 54q-90 2 -186 2q-192 0 -290 -3v20q37 2 52.5 8t22.5 23q6 18 6 55v496q0 38 -6.5 55t-22.5 23q-14 6 -52 8v20q97 -3 290 -3q146 0 209 3q-7 -60 -7 -118q0 -39 3 -62h-23q-8 67 -19.5 98t-36.5 45
q-26 14 -79 14h-83q-37 0 -53 -6t-21 -22q-7 -15 -7 -55v-236h67q45 0 63.5 26t23.5 66l6 40h22q-3 -49 -3 -94l1 -48q0 -66 5 -142h-23l-5 48q-9 84 -90 84h-67v-240q0 -38 6.5 -54.5t22.5 -22.5q17 -6 52 -6h74q62 0 94.5 16.5t47.5 53.5q13 34 22 107h23q-3 -27 -3 -72
q0 -61 7 -125v-3h-9q-47 -14 -70.5 -40t-23.5 -56q0 -20 11.5 -32t31.5 -12q17 0 33.5 9t27.5 24z" />
    <glyph glyph-name="eogonek" unicode="&#x119;" horiz-adv-x="506" 
d="M258 -96q0 -20 11.5 -32t31.5 -12q17 0 33.5 9t27.5 24l14 -13q-43 -68 -112 -68q-36 0 -58 18t-22 47q0 32 24.5 60t70.5 49h-4q-71 0 -123 32t-79 92q-28 61 -28 135q0 86 28 150.5t79 99.5q50 34 119 34q91 0 139 -55t48 -165h-312q-3 -25 -3 -64q0 -65 21 -114.5
t57 -76.5q37 -26 74 -26q102 0 147 100l20 -8q-12 -36 -38 -66.5t-63 -48.5q-3 -2 -16 -7q-87 -37 -87 -94zM145 328h217q2 51 -8 92t-32 65q-23 25 -54 25t-57 -20t-44 -60q-18 -41 -22 -102z" />
    <glyph glyph-name="Ecaron" unicode="&#x11a;" horiz-adv-x="609" 
d="M557 200q-3 -27 -3 -72q0 -62 7 -128q-69 3 -229 3q-192 0 -290 -3v20q37 2 52.5 8t22.5 23q6 18 6 55v496q0 38 -6.5 55t-22.5 23q-14 6 -52 8v20q97 -3 290 -3q146 0 209 3q-7 -60 -7 -118q0 -39 3 -62h-23q-8 67 -19.5 98t-36.5 45q-26 14 -79 14h-83q-37 0 -53 -6
t-21 -22q-7 -15 -7 -55v-236h67q45 0 63.5 26t23.5 66l6 40h22q-3 -49 -3 -94l1 -48q0 -66 5 -142h-23l-5 48q-9 84 -90 84h-67v-240q0 -38 6.5 -54.5t22.5 -22.5q17 -6 52 -6h74q62 0 94.5 16.5t47.5 53.5q13 34 22 107h23zM499 912q-64 -22 -114 -57.5t-73 -74.5h-18
q-24 39 -74 74.5t-113 57.5l5 14q58 -12 116.5 -31.5t93.5 -38.5q30 19 77 38.5t94 31.5z" />
    <glyph glyph-name="ecaron" unicode="&#x11b;" horiz-adv-x="506" 
d="M462 120q-12 -36 -38 -66.5t-63 -48.5q-38 -19 -86 -19q-71 0 -123 32t-79 92q-28 61 -28 135q0 86 28 150.5t79 99.5q50 34 119 34q91 0 139 -55t48 -165h-312q-3 -25 -3 -64q0 -65 21 -114.5t57 -76.5q37 -26 74 -26q102 0 147 100zM362 328q2 51 -8 92t-32 65
q-23 25 -54 25t-57 -20t-44 -60q-18 -41 -22 -102h217zM436 788q-57 -28 -101.5 -74.5t-65.5 -97.5h-18q-20 51 -65 97.5t-102 74.5l9 14q53 -19 104.5 -46t83.5 -54q24 27 64.5 54t83.5 46z" />
    <glyph glyph-name="Gcircumflex" unicode="&#x11c;" horiz-adv-x="703" 
d="M598 0q-2 22 -9.5 39.5t-18.5 17.5q-6 0 -12 -3t-20 -14q-36 -28 -73.5 -41t-83.5 -13q-102 0 -175.5 42.5t-112.5 122.5t-39 191q0 113 40.5 199.5t114.5 134.5q73 46 166 46q72 0 127 -30q20 -11 54 -35q11 -10 20 -10q19 0 25 61h23q-4 -57 -4 -230h-23
q-10 58 -20.5 91t-30.5 57q-29 36 -75.5 57t-96.5 21q-66 0 -116 -42.5t-77 -122.5q-28 -82 -28 -186q0 -120 25.5 -196.5t78.5 -113.5q52 -37 135 -37q60 0 104 31q17 12 22.5 23t5.5 32v96q0 42 -7.5 61t-28.5 26q-19 7 -65 9v20q49 -3 141 -3q71 0 104 3v-20
q-23 -2 -33 -8.5t-13 -22.5q-4 -15 -4 -55v-198h-20zM370 916q24 -40 73.5 -75.5t113.5 -56.5l-6 -14q-60 13 -118.5 32t-92.5 38q-27 -19 -74 -38t-96 -32l-5 14q63 21 113 56.5t74 75.5h18z" />
    <glyph glyph-name="gcircumflex" unicode="&#x11d;" horiz-adv-x="505" 
d="M339 646q-33 13 -64.5 32t-52.5 38q-25 -27 -65.5 -54t-82.5 -46l-9 14q57 27 101.5 73.5t65.5 98.5h18q12 -40 39 -78.5t61 -63.5zM371 110q116 0 116 -96q0 -51 -32 -97t-92 -75q-63 -30 -152 -30q-49 0 -91.5 11t-67.5 31q-26 20 -26 46q0 69 126 124h-4
q-41 0 -70.5 18.5t-29.5 58.5q0 34 25.5 63t83.5 62q-48 17 -74 53.5t-26 91.5q0 77 49.5 117.5t135.5 40.5q36 0 71 -8q8 44 31 78q14 21 32 34t40 13q23 0 38 -15t15 -38q0 -24 -15 -39.5t-39 -15.5q-21 0 -35 12.5t-17 34.5q-9 -3 -21 -29q-7 -20 -12 -41q46 -17 71 -53
t25 -91q0 -52 -23 -87.5t-66 -53.5q-42 -17 -95 -17q-37 0 -65 7q-29 -18 -41.5 -28t-19.5 -21q-9 -12 -9 -28q0 -20 12.5 -26.5t44.5 -6.5h207zM173 478.5q-23 -32.5 -23 -107.5t23 -107.5t69 -32.5t68.5 33t22.5 107t-22.5 107t-68.5 33t-69 -32.5zM178 24
q-33 -17 -51.5 -44t-18.5 -58q0 -30 18 -51t49 -32q33 -10 61 -10q47 0 91 17.5t73 49.5t29 76q0 28 -17 40t-59 12h-175z" />
    <glyph glyph-name="Gbreve" unicode="&#x11e;" horiz-adv-x="703" 
d="M598 0q-2 22 -9.5 39.5t-18.5 17.5q-6 0 -12 -3t-20 -14q-36 -28 -73.5 -41t-83.5 -13q-102 0 -175.5 42.5t-112.5 122.5t-39 191q0 113 40.5 199.5t114.5 134.5q73 46 166 46q72 0 127 -30q20 -11 54 -35q11 -10 20 -10q19 0 25 61h23q-4 -57 -4 -230h-23
q-10 58 -20.5 91t-30.5 57q-29 36 -75.5 57t-96.5 21q-66 0 -116 -42.5t-77 -122.5q-28 -82 -28 -186q0 -120 25.5 -196.5t78.5 -113.5q52 -37 135 -37q60 0 104 31q17 12 22.5 23t5.5 32v96q0 42 -7.5 61t-28.5 26q-19 7 -65 9v20q49 -3 141 -3q71 0 104 3v-20
q-23 -2 -33 -8.5t-13 -22.5q-4 -15 -4 -55v-198h-20zM559 898q-31 -51 -82 -83.5t-116 -32.5q-66 0 -117 32.5t-83 83.5l14 10q29 -29 76.5 -46.5t109.5 -17.5t109.5 18t77.5 47z" />
    <glyph glyph-name="gbreve" unicode="&#x11f;" horiz-adv-x="505" 
d="M419 779q-27 -64 -73 -105t-106 -41q-59 0 -105 41t-73 105l16 9q59 -96 162 -96q55 0 95.5 26t66.5 70zM371 110q116 0 116 -96q0 -51 -32 -97t-92 -75q-63 -30 -152 -30q-49 0 -91.5 11t-67.5 31q-26 20 -26 46q0 69 126 124h-4q-41 0 -70.5 18.5t-29.5 58.5
q0 34 25.5 63t83.5 62q-48 17 -74 53.5t-26 91.5q0 77 49.5 117.5t135.5 40.5q36 0 71 -8q8 44 31 78q14 21 32 34t40 13q23 0 38 -15t15 -38q0 -24 -15 -39.5t-39 -15.5q-21 0 -35 12.5t-17 34.5q-9 -3 -21 -29q-7 -20 -12 -41q46 -17 71 -53t25 -91q0 -52 -23 -87.5
t-66 -53.5q-42 -17 -95 -17q-37 0 -65 7q-29 -18 -41.5 -28t-19.5 -21q-9 -12 -9 -28q0 -20 12.5 -26.5t44.5 -6.5h207zM173 478.5q-23 -32.5 -23 -107.5t23 -107.5t69 -32.5t68.5 33t22.5 107t-22.5 107t-68.5 33t-69 -32.5zM178 24q-33 -17 -51.5 -44t-18.5 -58
q0 -30 18 -51t49 -32q33 -10 61 -10q47 0 91 17.5t73 49.5t29 76q0 28 -17 40t-59 12h-175z" />
    <glyph glyph-name="Gdotaccent" unicode="&#x120;" horiz-adv-x="703" 
d="M598 0q-2 22 -9.5 39.5t-18.5 17.5q-6 0 -12 -3t-20 -14q-36 -28 -73.5 -41t-83.5 -13q-102 0 -175.5 42.5t-112.5 122.5t-39 191q0 113 40.5 199.5t114.5 134.5q73 46 166 46q72 0 127 -30q20 -11 54 -35q11 -10 20 -10q19 0 25 61h23q-4 -57 -4 -230h-23
q-10 58 -20.5 91t-30.5 57q-29 36 -75.5 57t-96.5 21q-66 0 -116 -42.5t-77 -122.5q-28 -82 -28 -186q0 -120 25.5 -196.5t78.5 -113.5q52 -37 135 -37q60 0 104 31q17 12 22.5 23t5.5 32v96q0 42 -7.5 61t-28.5 26q-19 7 -65 9v20q49 -3 141 -3q71 0 104 3v-20
q-23 -2 -33 -8.5t-13 -22.5q-4 -15 -4 -55v-198h-20zM405.5 891.5q14.5 -8.5 23.5 -23.5t9 -32t-9 -32t-24 -23q-14 -9 -31 -9t-32 8.5t-24 23.5q-8 16 -8 32q0 17 8.5 32t23.5 24q16 8 32 8q17 0 31.5 -8.5z" />
    <glyph glyph-name="gdotaccent" unicode="&#x121;" horiz-adv-x="505" 
d="M210 645.5q-15 8.5 -23 23.5q-9 15 -9 32t8.5 32t23.5 23q15 9 32 9t31.5 -8.5t23.5 -23.5t9 -32t-9 -32t-24 -23q-13 -9 -31 -9q-17 0 -32 8.5zM371 110q116 0 116 -96q0 -51 -32 -97t-92 -75q-63 -30 -152 -30q-49 0 -91.5 11t-67.5 31q-26 20 -26 46q0 69 126 124h-4
q-41 0 -70.5 18.5t-29.5 58.5q0 34 25.5 63t83.5 62q-48 17 -74 53.5t-26 91.5q0 77 49.5 117.5t135.5 40.5q36 0 71 -8q8 44 31 78q14 21 32 34t40 13q23 0 38 -15t15 -38q0 -24 -15 -39.5t-39 -15.5q-21 0 -35 12.5t-17 34.5q-9 -3 -21 -29q-7 -20 -12 -41q46 -17 71 -53
t25 -91q0 -52 -23 -87.5t-66 -53.5q-42 -17 -95 -17q-37 0 -65 7q-29 -18 -41.5 -28t-19.5 -21q-9 -12 -9 -28q0 -20 12.5 -26.5t44.5 -6.5h207zM173 478.5q-23 -32.5 -23 -107.5t23 -107.5t69 -32.5t68.5 33t22.5 107t-22.5 107t-68.5 33t-69 -32.5zM178 24
q-33 -17 -51.5 -44t-18.5 -58q0 -30 18 -51t49 -32q33 -10 61 -10q47 0 91 17.5t73 49.5t29 76q0 28 -17 40t-59 12h-175z" />
    <glyph glyph-name="Gcommaaccent" unicode="&#x122;" horiz-adv-x="703" 
d="M598 0q-2 22 -9.5 39.5t-18.5 17.5q-6 0 -12 -3t-20 -14q-36 -28 -73.5 -41t-83.5 -13q-102 0 -175.5 42.5t-112.5 122.5t-39 191q0 113 40.5 199.5t114.5 134.5q73 46 166 46q72 0 127 -30q20 -11 54 -35q11 -10 20 -10q19 0 25 61h23q-4 -57 -4 -230h-23
q-10 58 -20.5 91t-30.5 57q-29 36 -75.5 57t-96.5 21q-66 0 -116 -42.5t-77 -122.5q-28 -82 -28 -186q0 -120 25.5 -196.5t78.5 -113.5q52 -37 135 -37q60 0 104 31q17 12 22.5 23t5.5 32v96q0 42 -7.5 61t-28.5 26q-19 7 -65 9v20q49 -3 141 -3q71 0 104 3v-20
q-23 -2 -33 -8.5t-13 -22.5q-4 -15 -4 -55v-198h-20zM347 -223q27 8 44.5 25t17.5 38q-19 -16 -42 -16q-24 0 -38.5 14.5t-14.5 39.5q0 22 16.5 37.5t40.5 15.5q28 0 46.5 -20t18.5 -50q0 -38 -18 -61.5t-64 -40.5z" />
    <glyph glyph-name="gcommaaccent" unicode="&#x123;" horiz-adv-x="505" 
d="M270 798q-28 -8 -45.5 -24.5t-16.5 -38.5q17 16 42 16q23 0 37.5 -14.5t14.5 -39.5q0 -22 -16.5 -37.5t-39.5 -15.5q-29 0 -47 20t-18 50q0 39 18 62t64 40zM371 110q116 0 116 -96q0 -51 -32 -97t-92 -75q-63 -30 -152 -30q-49 0 -91.5 11t-67.5 31q-26 20 -26 46
q0 69 126 124h-4q-41 0 -70.5 18.5t-29.5 58.5q0 34 25.5 63t83.5 62q-48 17 -74 53.5t-26 91.5q0 77 49.5 117.5t135.5 40.5q36 0 71 -8q8 44 31 78q14 21 32 34t40 13q23 0 38 -15t15 -38q0 -24 -15 -39.5t-39 -15.5q-21 0 -35 12.5t-17 34.5q-9 -3 -21 -29
q-7 -20 -12 -41q46 -17 71 -53t25 -91q0 -52 -23 -87.5t-66 -53.5q-42 -17 -95 -17q-37 0 -65 7q-29 -18 -41.5 -28t-19.5 -21q-9 -12 -9 -28q0 -20 12.5 -26.5t44.5 -6.5h207zM173 478.5q-23 -32.5 -23 -107.5t23 -107.5t69 -32.5t68.5 33t22.5 107t-22.5 107t-68.5 33
t-69 -32.5zM178 24q-33 -17 -51.5 -44t-18.5 -58q0 -30 18 -51t49 -32q33 -10 61 -10q47 0 91 17.5t73 49.5t29 76q0 28 -17 40t-59 12h-175z" />
    <glyph glyph-name="Hcircumflex" unicode="&#x124;" horiz-adv-x="757" 
d="M714 688q-37 -2 -53 -8t-21 -23q-7 -15 -7 -55v-496q0 -38 6.5 -55t22.5 -23q14 -6 52 -8v-20q-40 3 -128 3q-79 0 -127 -3v20q38 2 53.5 8t22.5 23q6 18 6 55v240h-326v-240q0 -38 6.5 -55t22.5 -23q14 -6 52 -8v-20q-45 3 -127 3q-86 0 -127 -3v20q37 2 52.5 8t22.5 23
q6 18 6 55v496q0 38 -6.5 55t-22.5 23q-14 6 -52 8v20q40 -3 127 -3q82 0 127 3v-20q-37 -2 -53 -8t-21 -23q-7 -15 -7 -55v-236h326v236q0 38 -6.5 55t-22.5 23q-14 6 -53 8v20q48 -3 127 -3q88 0 128 3v-20zM390 916q24 -40 73.5 -75.5t113.5 -56.5l-6 -14
q-60 13 -118.5 32t-92.5 38q-27 -19 -74 -38t-96 -32l-5 14q63 21 113 56.5t74 75.5h18z" />
    <glyph glyph-name="hcircumflex" unicode="&#x125;" horiz-adv-x="588" 
d="M186 409q24 62 67.5 91t101.5 29q71 0 106 -38q20 -20 28 -50t8 -81v-267q0 -28 7.5 -43.5t23.5 -22.5q17 -6 45 -6v-21q-54 2 -69 2l-51 2l-58 -2l-55 -2v21q26 0 40 6.5t20 21.5q7 15 7 44v289q0 39 -6.5 62.5t-23.5 37.5q-18 15 -51 15q-41 0 -73 -23t-49 -64
q-18 -39 -18 -94v-223q0 -28 6.5 -43.5t20.5 -22.5q14 -6 38 -6v-21q-44 2 -57 2l-54 2l-57 -2q-15 0 -63 -2v21q29 0 45 6.5t23 21.5q8 18 8 44v570q0 47 -17 67.5t-59 20.5v21q32 -3 62 -3q62 0 104 14v-374zM291 980q24 -40 73.5 -75.5t113.5 -56.5l-6 -14
q-60 13 -118.5 32t-92.5 38q-27 -19 -74 -38t-96 -32l-5 14q63 21 113 56.5t74 75.5h18z" />
    <glyph glyph-name="Hbar" unicode="&#x126;" horiz-adv-x="757" 
d="M714 688q-37 -2 -53 -8t-21 -23q-7 -15 -7 -55v-69h81v-20h-81v-407q0 -38 6.5 -55t22.5 -23q14 -6 52 -8v-20q-40 3 -128 3q-79 0 -127 -3v20q38 2 53.5 8t22.5 23q6 18 6 55v240h-326v-240q0 -38 6.5 -55t22.5 -23q14 -6 52 -8v-20q-45 3 -127 3q-86 0 -127 -3v20
q37 2 52.5 8t22.5 23q6 18 6 55v407h-81v20h81v69q0 38 -6.5 55t-22.5 23q-14 6 -52 8v20q40 -3 127 -3q82 0 127 3v-20q-37 -2 -53 -8t-21 -23q-7 -15 -7 -55v-69h326v69q0 38 -6.5 55t-22.5 23q-14 6 -53 8v20q48 -3 127 -3q88 0 128 3v-20zM215 513v-147h326v147h-326z
" />
    <glyph glyph-name="hbar" unicode="&#x127;" horiz-adv-x="588" 
d="M497 93q0 -28 7.5 -43.5t23.5 -22.5q17 -6 45 -6v-21q-54 2 -69 2l-51 2l-58 -2l-55 -2v21q26 0 40 6.5t20 21.5q7 15 7 44v289q0 39 -6.5 62.5t-23.5 37.5q-18 15 -51 15q-41 0 -73 -23t-49 -64q-18 -39 -18 -94v-223q0 -28 6.5 -43.5t20.5 -22.5q14 -6 38 -6v-21
q-44 2 -57 2l-54 2l-57 -2q-15 0 -63 -2v21q29 0 45 6.5t23 21.5q8 18 8 44v515h-87v20h87v35q0 47 -17 67.5t-59 20.5v21q32 -3 62 -3q62 0 104 14v-155h177v-20h-177v-199q24 62 67.5 91t101.5 29q71 0 106 -38q20 -20 28 -50t8 -81v-267z" />
    <glyph glyph-name="Itilde" unicode="&#x128;" 
d="M296 688q-37 -2 -53 -8t-21 -23q-7 -15 -7 -55v-496q0 -38 6.5 -55t22.5 -23q14 -6 52 -8v-20q-45 3 -127 3q-86 0 -127 -3v20q37 2 52.5 8t22.5 23q6 18 6 55v496q0 38 -6.5 55t-22.5 23q-14 6 -52 8v20q40 -3 127 -3q82 0 127 3v-20zM-23 796q3 32 18.5 56t40.5 37
q26 13 52 13q24 0 46 -9.5t69 -38.5q46 -29 80 -29q45 0 62 56l14 -3q-3 -32 -18.5 -56t-39.5 -37q-23 -13 -53 -13q-24 0 -44.5 9.5t-69.5 39.5q-46 28 -79 28q-47 0 -62 -56z" />
    <glyph glyph-name="itilde" unicode="&#x129;" horiz-adv-x="293" 
d="M194 93q0 -28 7.5 -43.5t24.5 -22.5q17 -6 45 -6v-21q-50 2 -64 2l-58 2l-59 -2q-14 0 -62 -2v21q29 0 45.5 6.5t23.5 21.5t7 44v313q0 47 -17 67.5t-59 20.5v21q31 -3 62 -3q62 0 104 14v-433zM-53 665q15 51 46.5 77t73.5 26q24 0 41.5 -8.5t50.5 -33.5q32 -24 58 -24
q46 0 78 53l14 -7q-15 -51 -46 -77t-72 -26q-25 0 -43 8.5t-51 34.5q-31 24 -58 24q-44 0 -77 -54z" />
    <glyph glyph-name="Imacron" unicode="&#x12a;" 
d="M296 688q-37 -2 -53 -8t-21 -23q-7 -15 -7 -55v-496q0 -38 6.5 -55t22.5 -23q14 -6 52 -8v-20q-45 3 -127 3q-86 0 -127 -3v20q37 2 52.5 8t22.5 23q6 18 6 55v496q0 38 -6.5 55t-22.5 23q-14 6 -52 8v20q40 -3 127 -3q82 0 127 3v-20zM-7 819v25h352v-25h-352z" />
    <glyph glyph-name="imacron" unicode="&#x12b;" horiz-adv-x="293" 
d="M-11 687v25h292v-25h-292zM195 93q0 -28 7.5 -43.5t24.5 -22.5q15 -6 44 -6v-21q-48 2 -62 2l-59 2l-59 -2q-14 0 -62 -2v21q29 0 45 6.5t24 21.5q7 15 7 44v313q0 47 -17 67.5t-59 20.5v21q32 -3 62 -3q62 0 104 14v-433z" />
    <glyph glyph-name="Ibreve" unicode="&#x12c;" 
d="M296 688q-37 -2 -53 -8t-21 -23q-7 -15 -7 -55v-496q0 -38 6.5 -55t22.5 -23q14 -6 52 -8v-20q-45 3 -127 3q-86 0 -127 -3v20q37 2 52.5 8t22.5 23q6 18 6 55v496q0 38 -6.5 55t-22.5 23q-14 6 -52 8v20q40 -3 127 -3q82 0 127 3v-20zM368 898q-31 -51 -82 -83.5
t-116 -32.5q-66 0 -117 32.5t-83 83.5l14 10q29 -29 76.5 -46.5t109.5 -17.5t109.5 18t77.5 47z" />
    <glyph glyph-name="ibreve" unicode="&#x12d;" horiz-adv-x="293" 
d="M194 93q0 -28 7.5 -43.5t24.5 -22.5q17 -6 45 -6v-21q-50 2 -64 2l-58 2l-59 -2q-14 0 -62 -2v21q29 0 45.5 6.5t23.5 21.5t7 44v313q0 47 -17 67.5t-59 20.5v21q31 -3 62 -3q62 0 104 14v-433zM319 779q-27 -65 -73.5 -105.5t-106.5 -40.5q-59 0 -105 41t-73 105l16 9
q58 -96 162 -96q106 0 162 96z" />
    <glyph glyph-name="Iogonek" unicode="&#x12e;" 
d="M312 -120q-43 -68 -112 -68q-36 0 -58 18t-22 47q0 38 35.5 70.5t100.5 54.5q-25 1 -87 1q-86 0 -127 -3v20q37 2 52.5 8t22.5 23q6 18 6 55v496q0 38 -6.5 55t-22.5 23q-14 6 -52 8v20q40 -3 127 -3q82 0 127 3v-20q-37 -2 -53 -8t-21 -23q-7 -15 -7 -55v-496
q0 -38 6.5 -55t22.5 -23q14 -6 52 -8v-17h1h-1v-3h-8q-47 -14 -70.5 -40t-23.5 -56q0 -20 11.5 -32t31.5 -12q17 0 33.5 9t27.5 24z" />
    <glyph glyph-name="iogonek" unicode="&#x12f;" horiz-adv-x="293" 
d="M109 645.5q-15 8.5 -24 23.5q-8 16 -8 32q0 17 8.5 32t23.5 23q15 9 32 9t31.5 -8.5t23.5 -23.5t9 -32t-9 -32t-24 -23q-14 -9 -31 -9t-32 8.5zM281 -120q-43 -68 -112 -68q-36 0 -58 18t-22 47q0 38 35 70.5t100 54.5l-75 2l-59 -2q-14 0 -62 -2v21q29 0 45.5 6.5
t23.5 21.5t7 44v313q0 47 -17 67.5t-59 20.5v21q31 -3 62 -3q62 0 104 14v-433q0 -28 7.5 -43.5t24.5 -22.5q17 -6 45 -6v-21q-10 0 -15 1l-6 -3q-87 -37 -87 -94q0 -20 11.5 -32t31.5 -12q17 0 33.5 9t27.5 24z" />
    <glyph glyph-name="Idotaccent" unicode="&#x130;" 
d="M296 688q-37 -2 -53 -8t-21 -23q-7 -15 -7 -55v-496q0 -38 6.5 -55t22.5 -23q14 -6 52 -8v-20q-45 3 -127 3q-86 0 -127 -3v20q37 2 52.5 8t22.5 23q6 18 6 55v496q0 38 -6.5 55t-22.5 23q-14 6 -52 8v20q40 -3 127 -3q82 0 127 3v-20zM201.5 950.5q14.5 -8.5 23.5 -23.5
t9 -32t-9 -32t-24 -23q-14 -9 -31 -9t-32 8.5t-24 23.5q-8 16 -8 32q0 17 8.5 32t23.5 23q15 9 32 9t31.5 -8.5z" />
    <glyph glyph-name="dotlessi" unicode="&#x131;" horiz-adv-x="293" 
d="M194 93q0 -28 7.5 -43.5t24.5 -22.5q17 -6 45 -6v-21q-50 2 -64 2l-58 2l-59 -2q-14 0 -62 -2v21q29 0 45.5 6.5t23.5 21.5t7 44v313q0 47 -17 67.5t-59 20.5v21q31 -3 62 -3q62 0 104 14v-433z" />
    <glyph glyph-name="IJ" unicode="&#x132;" horiz-adv-x="665" 
d="M296 688q-37 -2 -53 -8t-21 -23q-7 -15 -7 -55v-496q0 -38 6.5 -55t22.5 -23q14 -6 52 -8v-20q-45 3 -127 3q-86 0 -127 -3v20q37 2 52.5 8t22.5 23q6 18 6 55v496q0 38 -6.5 55t-22.5 23q-14 6 -52 8v20q40 -3 127 -3q82 0 127 3v-20zM630 688q-37 -2 -53 -8t-22 -23
q-6 -16 -6 -55v-366q0 -94 -3.5 -157t-13.5 -104q-11 -47 -39.5 -84t-71.5 -58q-45 -21 -100 -21q-53 0 -92.5 22.5t-39.5 64.5q0 23 15 38t38 15q24 0 39.5 -15t15.5 -39q0 -41 -42 -51q8 -8 26 -12t38 -4q43 0 74.5 22.5t45.5 62.5q9 27 14 78q3 47 3 151v457q0 38 -6 55
t-22 23q-14 6 -53 8v20q42 -3 128 -3q80 0 127 3v-20z" />
    <glyph glyph-name="ij" unicode="&#x133;" horiz-adv-x="562" 
d="M154.5 756.5q14.5 -8.5 23.5 -23.5t9 -32t-9 -32t-24 -23q-14 -9 -31 -9t-32 8.5t-24 23.5q-8 16 -8 32q0 17 8.5 32t23.5 23q15 9 32 9t31.5 -8.5zM458.5 756.5q14.5 -8.5 23.5 -23.5t9 -32t-9 -32t-24 -23q-13 -9 -31 -9q-17 0 -32 8.5t-23 23.5q-9 15 -9 32t8.5 32
t23.5 23q15 9 32 9t31.5 -8.5zM482 115q0 -96 -14.5 -160.5t-49.5 -102.5q-37 -40 -103 -40q-39 0 -60 15t-21 41q0 22 13.5 35.5t36.5 13.5q21 0 34 -12t13 -32q0 -31 -35 -45l17 -1q29 0 47 13t25 41q8 29 8 73v159q-19 -61 -61.5 -94t-102.5 -33q-68 0 -104 38
q-18 19 -26 50.5t-8 80.5v251q0 47 -17 67.5t-58 20.5v21q31 -3 62 -3q60 0 104 14v-393q0 -42 5 -64t20 -36q17 -15 50 -15q41 0 71.5 23.5t47.5 65.5t17 92v207q0 47 -17.5 67.5t-59.5 20.5v21q31 -3 62 -3q64 0 104 14v-411z" />
    <glyph glyph-name="Jcircumflex" unicode="&#x134;" horiz-adv-x="326" 
d="M291 688q-37 -2 -53 -8t-22 -23q-6 -16 -6 -55v-366q0 -94 -3.5 -157t-13.5 -104q-11 -47 -39.5 -84t-71.5 -58q-45 -21 -100 -21q-53 0 -92.5 22.5t-39.5 64.5q0 23 15 38t38 15q24 0 39.5 -15t15.5 -39q0 -41 -42 -51q8 -8 26 -12t38 -4q43 0 74.5 22.5t45.5 62.5
q9 27 14 78q3 47 3 151v457q0 38 -6 55t-22 23q-14 6 -53 8v20q42 -3 128 -3q80 0 127 3v-20zM173 916q24 -40 73.5 -75.5t113.5 -56.5l-6 -14q-60 13 -118.5 32t-92.5 38q-27 -19 -74 -38t-96 -32l-5 14q63 21 113 56.5t74 75.5h18z" />
    <glyph glyph-name="jcircumflex" unicode="&#x135;" horiz-adv-x="267" 
d="M188 115q0 -87 -12 -146t-41 -96q-23 -29 -55 -45t-66 -16q-36 0 -57 16t-21 45q0 23 14.5 37.5t37.5 14.5q25 0 38.5 -12.5t13.5 -36.5q0 -34 -38 -48l17 -1q35 0 56 23q23 29 23 85v471q0 47 -17 67.5t-59 20.5v21q31 -3 62 -3q62 0 104 14v-411zM142 802
q21 -52 66 -98.5t101 -73.5l-7 -14q-55 19 -106 46t-82 54q-25 -27 -65.5 -54t-82.5 -46l-9 14q57 27 101.5 73.5t65.5 98.5h18z" />
    <glyph glyph-name="Kcommaaccent" unicode="&#x136;" horiz-adv-x="655" 
d="M565 81q16 -25 37 -39t51 -22v-20q-46 3 -119 3q-55 0 -103 -3v20q27 2 34 6q12 5 12 15q0 8 -11 24l-146 220q-20 30 -34.5 45t-29.5 21q-19 6 -41 7v-252q0 -38 6.5 -55t22.5 -23q14 -6 52 -8v-20q-45 3 -127 3q-86 0 -127 -3v20q37 2 52.5 8t22.5 23q6 18 6 55v496
q0 38 -6.5 55t-22.5 23q-14 6 -52 8v20q40 -3 127 -3q82 0 127 3v-20q-37 -2 -53 -8t-21 -23q-7 -15 -7 -55v-224q74 3 115 56l95 122q52 67 52 96q0 34 -62 36v20q57 -3 114 -3q56 0 86 3v-20q-35 -5 -64 -22t-54 -51l-164 -209zM316 -223q27 8 44.5 25t17.5 38
q-19 -16 -42 -16q-24 0 -38.5 14.5t-14.5 39.5q0 22 16.5 37.5t40.5 15.5q28 0 46.5 -20t18.5 -50q0 -38 -18 -61.5t-64 -40.5z" />
    <glyph glyph-name="kcommaaccent" unicode="&#x137;" horiz-adv-x="550" 
d="M473 73q20 -26 34.5 -37.5t34.5 -14.5v-21l-39 2l-42 2l-52 -2q-14 0 -58 -2v21q14 0 22 5.5t8 13.5t-6 15l-114 168q-18 25 -33.5 34t-41.5 10v-174q0 -28 6.5 -43.5t20.5 -22.5q14 -6 38 -6v-21q-44 2 -58 2l-52 2l-59 -2q-14 0 -62 -2v21q29 0 45 6.5t23 21.5
q8 18 8 44v571q0 47 -17 67.5t-59 20.5v21q32 -3 62 -3q62 0 104 14v-496q29 4 48.5 13t36.5 28l75 77q31 32 31 55q0 17 -19 25.5t-54 8.5v20l25 -1q52 -3 88 -3q34 0 86 4v-20q-50 -5 -89 -47l-122 -128zM40 -223q27 8 45 25t17 38q-19 -16 -42 -16q-24 0 -38 14.5
t-14 39.5q0 22 16.5 37.5t39.5 15.5q29 0 47 -20t18 -50q0 -38 -18 -61.5t-64 -40.5z" />
    <glyph glyph-name="kgreenlandic" unicode="&#x138;" horiz-adv-x="563" 
d="M480 76q25 -27 40.5 -40t30.5 -15v-21l-37 2l-43 2l-53 -2q-13 0 -59 -2v21q15 0 23.5 5.5t8.5 14.5q0 8 -7 14l-134 148q-30 38 -56 41v-151q0 -53 28 -66q14 -6 39 -6v-21q-42 2 -56 2l-56 2l-59 -2q-14 0 -62 -2v21q29 0 45.5 6.5t23.5 21.5t7 44v313q0 47 -17 67.5
t-59 20.5v21q31 -3 62 -3q62 0 104 14v-261q25 4 41.5 14t36.5 30l120 131q14 16 14 28q0 13 -14 20t-39 7v20q53 -3 103 -3q41 0 66 3v-20q-29 -2 -47.5 -12t-41.5 -35l-146 -160z" />
    <glyph glyph-name="Lacute" unicode="&#x139;" horiz-adv-x="588" 
d="M296 688q-37 -2 -53 -8t-21 -23q-7 -15 -7 -55v-496q0 -38 6.5 -54.5t22.5 -22.5q17 -6 52 -6h74q62 0 94.5 17.5t47.5 56.5q13 37 22 113h23q-3 -31 -3 -82q0 -62 7 -128q-69 3 -229 3q-192 0 -290 -3v20q37 2 52.5 8t22.5 23q6 18 6 55v496q0 38 -6.5 55t-22.5 23
q-14 6 -52 8v20q40 -3 127 -3q82 0 127 3v-20zM109 785q48 38 113 97q32 29 55 44q17 10 30 10q19 0 31 -17q5 -10 5 -19q0 -21 -26 -39q-25 -15 -56 -26q-85 -33 -146 -63z" />
    <glyph glyph-name="lacute" unicode="&#x13a;" horiz-adv-x="286" 
d="M188 93q0 -28 7.5 -43.5t23.5 -22.5q17 -6 45 -6v-21q-48 2 -62 2l-59 2l-58 -2q-14 0 -64 -2v21q29 0 45.5 6.5t23.5 21.5q8 18 8 44v571q0 47 -17.5 67.5t-59.5 20.5v21q32 -3 62 -3q63 0 105 14v-691zM82 849q48 38 113 97q32 29 55 44q17 10 30 10q19 0 31 -17
q5 -10 5 -19q0 -21 -26 -39q-25 -15 -56 -26q-85 -33 -146 -63z" />
    <glyph glyph-name="Lcommaaccent" unicode="&#x13b;" horiz-adv-x="588" 
d="M296 688q-37 -2 -53 -8t-21 -23q-7 -15 -7 -55v-496q0 -38 6.5 -54.5t22.5 -22.5q17 -6 52 -6h74q62 0 94.5 17.5t47.5 56.5q13 37 22 113h23q-3 -31 -3 -82q0 -62 7 -128q-69 3 -229 3q-192 0 -290 -3v20q37 2 52.5 8t22.5 23q6 18 6 55v496q0 38 -6.5 55t-22.5 23
q-14 6 -52 8v20q40 -3 127 -3q82 0 127 3v-20zM302 -223q27 8 44.5 25t17.5 38q-19 -16 -42 -16q-24 0 -38.5 14.5t-14.5 39.5q0 22 16.5 37.5t40.5 15.5q28 0 46.5 -20t18.5 -50q0 -38 -18 -61.5t-64 -40.5z" />
    <glyph glyph-name="lcommaaccent" unicode="&#x13c;" horiz-adv-x="286" 
d="M188 93q0 -28 7.5 -43.5t23.5 -22.5q17 -6 45 -6v-21q-48 2 -62 2l-59 2l-58 -2q-14 0 -64 -2v21q29 0 45.5 6.5t23.5 21.5q8 18 8 44v571q0 47 -17.5 67.5t-59.5 20.5v21q32 -3 62 -3q63 0 105 14v-691zM-98 -223q27 8 45 25t17 38q-19 -16 -42 -16q-24 0 -38 14.5
t-14 39.5q0 22 16.5 37.5t39.5 15.5q29 0 47 -20t18 -50q0 -38 -18 -61.5t-64 -40.5z" />
    <glyph glyph-name="Lcaron" unicode="&#x13d;" horiz-adv-x="588" 
d="M296 688q-37 -2 -53 -8t-21 -23q-7 -15 -7 -55v-496q0 -38 6.5 -54.5t22.5 -22.5q17 -6 52 -6h74q62 0 94.5 17.5t47.5 56.5q13 37 22 113h23q-3 -31 -3 -82q0 -62 7 -128q-69 3 -229 3q-192 0 -290 -3v20q37 2 52.5 8t22.5 23q6 18 6 55v496q0 38 -6.5 55t-22.5 23
q-14 6 -52 8v20q40 -3 127 -3q82 0 127 3v-20zM332 708q28 -2 41 -2q37 0 65 8q5 -12 5 -36q0 -36 -36 -105l-51 -95l-15 4q20 120 20 165q0 22 -6 31t-23 9v21z" />
    <glyph glyph-name="lcaron" unicode="&#x13e;" horiz-adv-x="286" 
d="M188 93q0 -28 7.5 -43.5t23.5 -22.5q17 -6 45 -6v-21q-48 2 -62 2l-59 2l-58 -2q-14 0 -64 -2v21q29 0 45.5 6.5t23.5 21.5q8 18 8 44v571q0 47 -17.5 67.5t-59.5 20.5v21q32 -3 62 -3q63 0 105 14v-691zM250 773q4 -1 16 -1q29 0 59 12q2 -5 4 -17.5t2 -23.5
q0 -26 -15 -64q-14 -34 -53 -116l-13 4q20 118 20 145q0 21 -4.5 30.5t-15.5 9.5v21z" />
    <glyph glyph-name="Ldot" unicode="&#x13f;" horiz-adv-x="619" 
d="M296 688q-37 -2 -53 -8t-21 -23q-7 -15 -7 -55v-496q0 -38 6.5 -54.5t22.5 -22.5q17 -6 52 -6h74q62 0 94.5 17.5t47.5 56.5q13 37 22 113h23q-3 -31 -3 -82q0 -62 7 -128q-69 3 -229 3q-192 0 -290 -3v20q37 2 52.5 8t22.5 23q6 18 6 55v496q0 38 -6.5 55t-22.5 23
q-14 6 -52 8v20q40 -3 127 -3q82 0 127 3v-20zM450.5 307.5q-13.5 13.5 -13.5 32.5q0 18 13.5 31t32.5 13q18 0 31 -13t13 -31q0 -19 -13 -32.5t-31 -13.5q-19 0 -32.5 13.5z" />
    <glyph glyph-name="ldot" unicode="&#x140;" horiz-adv-x="426" 
d="M188 93q0 -28 7.5 -43.5t23.5 -22.5q17 -6 45 -6v-21q-48 2 -62 2l-59 2l-58 -2q-14 0 -64 -2v21q29 0 45.5 6.5t23.5 21.5q8 18 8 44v571q0 47 -17.5 67.5t-59.5 20.5v21q32 -3 62 -3q63 0 105 14v-691zM278.5 246.5q-13.5 13.5 -13.5 32.5q0 18 13.5 31t32.5 13
q18 0 31 -13t13 -31q0 -19 -13 -32.5t-31 -13.5q-19 0 -32.5 13.5z" />
    <glyph glyph-name="Lslash" unicode="&#x141;" horiz-adv-x="588" 
d="M557 210q-3 -31 -3 -82q0 -62 7 -128q-69 3 -229 3q-192 0 -290 -3v20q37 2 52.5 8t22.5 23q6 18 6 55v151l-81 -47v23l81 47v322q0 38 -6.5 55t-22.5 23q-14 6 -52 8v20q40 -3 127 -3q82 0 127 3v-20q-37 -2 -53 -8t-21 -23q-7 -15 -7 -55v-278l258 149v-23l-258 -149
v-195q0 -38 6.5 -54.5t22.5 -22.5q17 -6 52 -6h74q62 0 94.5 17.5t47.5 56.5q13 37 22 113h23z" />
    <glyph glyph-name="lslash" unicode="&#x142;" horiz-adv-x="286" 
d="M188 93q0 -28 7.5 -43.5t24.5 -22.5q15 -6 44 -6v-21q-48 2 -62 2l-59 2l-59 -2q-14 0 -62 -2v21q29 0 45.5 6.5t23.5 21.5t7 44v239l-113 -98v30l113 98v302q0 47 -17 67.5t-59 20.5v21q31 -3 62 -3q64 0 104 14v-353l113 98v-30l-113 -99v-307z" />
    <glyph glyph-name="Nacute" unicode="&#x143;" horiz-adv-x="706" 
d="M669 688q-35 -2 -51.5 -10.5t-22.5 -27.5q-7 -18 -7 -58v-597h-23l-419 649v-528q0 -39 7 -58t25 -28q17 -8 58 -10v-20q-36 3 -102 3q-60 0 -92 -3v20q35 2 51.5 10.5t22.5 27.5q7 18 7 58v486q0 38 -6.5 55t-22.5 23q-14 6 -52 8v20q32 -3 92 -3q45 0 78 3l353 -544
v428q0 40 -6.5 59t-25.5 27q-17 8 -58 10v20q36 -3 102 -3q59 0 92 3v-20zM313 785q48 38 113 97q32 29 55 44q17 10 30 10q19 0 31 -17q5 -10 5 -19q0 -21 -26 -39q-25 -15 -56 -26q-85 -33 -146 -63z" />
    <glyph glyph-name="nacute" unicode="&#x144;" horiz-adv-x="597" 
d="M194 408q25 62 69 91.5t102 29.5q70 0 106 -38q19 -20 26.5 -50t7.5 -81v-267q0 -28 7.5 -43.5t24.5 -22.5q17 -6 45 -6v-21q-48 2 -62 2l-59 2l-54 -2q-13 0 -57 -2v21q25 0 38.5 6.5t20.5 21.5t7 44v289q0 38 -6.5 62t-22.5 38q-18 15 -53 15q-40 0 -72.5 -23.5
t-49.5 -65.5q-18 -42 -18 -93v-222q0 -53 28 -66q14 -6 39 -6v-21l-55 2l-58 2l-57 -2q-15 0 -63 -2v21q29 0 45.5 6.5t23.5 21.5t7 44v313q0 47 -17 67.5t-59 20.5v21q31 -3 62 -3q62 0 104 14v-118zM244 608q29 47 73 130q24 46 39 64t35 18q13 0 24 -9.5t11 -25.5
q0 -15 -13.5 -33.5t-43.5 -43.5q-64 -56 -115 -109z" />
    <glyph glyph-name="Ncommaaccent" unicode="&#x145;" horiz-adv-x="706" 
d="M669 688q-35 -2 -51.5 -10.5t-22.5 -27.5q-7 -18 -7 -58v-597h-23l-419 649v-528q0 -39 7 -58t25 -28q17 -8 58 -10v-20q-36 3 -102 3q-60 0 -92 -3v20q35 2 51.5 10.5t22.5 27.5q7 18 7 58v486q0 38 -6.5 55t-22.5 23q-14 6 -52 8v20q32 -3 92 -3q45 0 78 3l353 -544
v428q0 40 -6.5 59t-25.5 27q-17 8 -58 10v20q36 -3 102 -3q59 0 92 3v-20zM337 -223q27 8 44.5 25t17.5 38q-19 -16 -42 -16q-24 0 -38.5 14.5t-14.5 39.5q0 22 16.5 37.5t40.5 15.5q28 0 46.5 -20t18.5 -50q0 -38 -18 -61.5t-64 -40.5z" />
    <glyph glyph-name="ncommaaccent" unicode="&#x146;" horiz-adv-x="597" 
d="M194 408q25 62 69 91.5t102 29.5q70 0 106 -38q19 -20 26.5 -50t7.5 -81v-267q0 -28 7.5 -43.5t24.5 -22.5q17 -6 45 -6v-21q-48 2 -62 2l-59 2l-54 -2q-13 0 -57 -2v21q25 0 38.5 6.5t20.5 21.5t7 44v289q0 38 -6.5 62t-22.5 38q-18 15 -53 15q-40 0 -72.5 -23.5
t-49.5 -65.5q-18 -42 -18 -93v-222q0 -53 28 -66q14 -6 39 -6v-21l-55 2l-58 2l-57 -2q-15 0 -63 -2v21q29 0 45.5 6.5t23.5 21.5t7 44v313q0 47 -17 67.5t-59 20.5v21q31 -3 62 -3q62 0 104 14v-118zM75 -223q27 8 45 25t17 38q-19 -16 -42 -16q-24 0 -38 14.5t-14 39.5
q0 22 16.5 37.5t39.5 15.5q29 0 47 -20t18 -50q0 -38 -18 -61.5t-64 -40.5z" />
    <glyph glyph-name="Ncaron" unicode="&#x147;" horiz-adv-x="706" 
d="M669 688q-35 -2 -51.5 -10.5t-22.5 -27.5q-7 -18 -7 -58v-597h-23l-419 649v-528q0 -39 7 -58t25 -28q17 -8 58 -10v-20q-36 3 -102 3q-60 0 -92 -3v20q35 2 51.5 10.5t22.5 27.5q7 18 7 58v486q0 38 -6.5 55t-22.5 23q-14 6 -52 8v20q32 -3 92 -3q45 0 78 3l353 -544
v428q0 40 -6.5 59t-25.5 27q-17 8 -58 10v20q36 -3 102 -3q59 0 92 3v-20zM567 912q-64 -22 -114 -57.5t-73 -74.5h-18q-24 39 -74 74.5t-113 57.5l5 14q58 -12 116.5 -31.5t93.5 -38.5q30 19 77 38.5t94 31.5z" />
    <glyph glyph-name="ncaron" unicode="&#x148;" horiz-adv-x="597" 
d="M194 408q25 62 69 91.5t102 29.5q70 0 106 -38q19 -20 26.5 -50t7.5 -81v-267q0 -28 7.5 -43.5t24.5 -22.5q17 -6 45 -6v-21q-48 2 -62 2l-59 2l-54 -2q-13 0 -57 -2v21q25 0 38.5 6.5t20.5 21.5t7 44v289q0 38 -6.5 62t-22.5 38q-18 15 -53 15q-40 0 -72.5 -23.5
t-49.5 -65.5q-18 -42 -18 -93v-222q0 -53 28 -66q14 -6 39 -6v-21l-55 2l-58 2l-57 -2q-15 0 -63 -2v21q29 0 45.5 6.5t23.5 21.5t7 44v313q0 47 -17 67.5t-59 20.5v21q31 -3 62 -3q62 0 104 14v-118zM471 788q-57 -28 -101.5 -74.5t-65.5 -97.5h-18q-20 51 -65 97.5
t-102 74.5l9 14q53 -19 104.5 -46t83.5 -54q24 27 64.5 54t83.5 46z" />
    <glyph glyph-name="napostrophe" unicode="&#x149;" horiz-adv-x="597" 
d="M194 408q25 62 69 91.5t102 29.5q70 0 106 -38q19 -20 26.5 -50t7.5 -81v-267q0 -28 7.5 -43.5t24.5 -22.5q17 -6 45 -6v-21q-48 2 -62 2l-59 2l-54 -2q-13 0 -57 -2v21q25 0 38.5 6.5t20.5 21.5t7 44v289q0 38 -6.5 62t-22.5 38q-18 15 -53 15q-40 0 -72.5 -23.5
t-49.5 -65.5q-18 -42 -18 -93v-222q0 -53 28 -66q14 -6 39 -6v-21l-55 2l-58 2l-57 -2q-15 0 -63 -2v21q29 0 45.5 6.5t23.5 21.5t7 44v313q0 47 -17 67.5t-59 20.5v21q31 -3 62 -3q62 0 104 14v-118zM-45.5 711q13.5 13 31.5 13q19 0 31.5 -13.5t12.5 -33.5
q0 -25 -15.5 -50.5t-38.5 -45.5l-12 11q20 19 34 43l-1 1q-8 -2 -12 -2q-20 0 -32 13.5t-12 30.5q0 20 13.5 33z" />
    <glyph glyph-name="Eng" unicode="&#x14a;" horiz-adv-x="705" 
d="M484 708q36 -3 93 -3q59 0 92 3v-20q-37 -2 -52.5 -8t-21.5 -23q-7 -15 -7 -55v-511q0 -114 -18 -171q-17 -59 -47.5 -83.5t-76.5 -24.5q-40 0 -65 16t-25 46q0 22 13.5 36t33.5 14q21 0 36 -14t15 -33q0 -13 -7.5 -26t-18.5 -20q16 -2 23 -2q100 0 112 169l-417 646
v-538q0 -38 6 -55t22 -23q14 -6 53 -8v-20q-36 3 -93 3q-60 0 -92 -3v20q37 2 52.5 8t22.5 23q6 18 6 55v496q0 38 -6.5 55t-22.5 23q-14 6 -52 8v20q32 -3 92 -3q55 0 93 3l338 -524v418q0 38 -6 55t-22 23q-14 6 -53 8v20z" />
    <glyph glyph-name="eng" unicode="&#x14b;" horiz-adv-x="579" 
d="M194 408q48 120 171 120q70 0 106 -38q19 -20 26.5 -50t7.5 -81v-244q0 -88 -11.5 -146.5t-40.5 -95.5q-23 -29 -55.5 -45t-65.5 -16q-32 0 -49.5 14.5t-17.5 38.5q0 21 12.5 34t34.5 13q19 0 31.5 -12.5t12.5 -32.5q0 -24 -16 -40q35 4 50.5 19t20.5 38q5 25 5 51v446
q0 38 -6.5 62t-22.5 38q-18 15 -53 15q-40 0 -72.5 -23.5t-49.5 -65.5q-18 -42 -18 -92v-222q0 -53 28 -66q14 -6 39 -6v-21l-55 2l-58 2l-57 -2q-15 0 -63 -2v21q29 0 45.5 6.5t23.5 21.5t7 44v313q0 47 -17 67.5t-59 20.5v21q31 -3 62 -3q62 0 104 14v-118z" />
    <glyph glyph-name="Omacron" unicode="&#x14c;" horiz-adv-x="741" 
d="M538 679q71 -43 110 -124q40 -85 40 -195q0 -109 -40.5 -194.5t-113.5 -132.5q-70 -47 -164 -47q-96 0 -167 43t-111 125q-39 81 -39 194q0 110 40.5 195t112.5 132q70 47 165 47q96 0 167 -43zM254 660q-49 -44 -75 -125q-27 -79 -27 -183q0 -103 29 -182.5t81 -122.5
q49 -43 112 -43t112 44.5t75 124.5q26 78 26 183q0 103 -29 182t-79 123q-50 43 -112 43q-64 0 -113 -44zM192 819v25h352v-25h-352z" />
    <glyph glyph-name="omacron" unicode="&#x14d;" horiz-adv-x="548" 
d="M391.5 499.5q50.5 -29.5 79.5 -88.5t29 -154q0 -91 -28.5 -152t-80.5 -90q-53 -29 -118 -29q-67 0 -117.5 29.5t-79.5 88.5q-30 60 -30 153q0 90 29 151.5t82 91.5q50 29 116 29q68 0 118.5 -29.5zM177.5 446q-33.5 -63 -33.5 -189t33.5 -188.5t95.5 -62.5t96 62.5
t34 188.5t-34 189t-96 63t-95.5 -63zM117 687v25h312v-25h-312z" />
    <glyph glyph-name="Obreve" unicode="&#x14e;" horiz-adv-x="741" 
d="M538 679q71 -43 110 -124q40 -85 40 -195q0 -109 -40.5 -194.5t-113.5 -132.5q-70 -47 -164 -47q-96 0 -167 43t-111 125q-39 81 -39 194q0 110 40.5 195t112.5 132q70 47 165 47q96 0 167 -43zM254 660q-49 -44 -75 -125q-27 -79 -27 -183q0 -103 29 -182.5t81 -122.5
q49 -43 112 -43t112 44.5t75 124.5q26 78 26 183q0 103 -29 182t-79 123q-50 43 -112 43q-64 0 -113 -44zM567 898q-31 -51 -82 -83.5t-116 -32.5q-66 0 -117 32.5t-83 83.5l14 10q29 -29 76.5 -46.5t109.5 -17.5t109.5 18t77.5 47z" />
    <glyph glyph-name="obreve" unicode="&#x14f;" horiz-adv-x="548" 
d="M391.5 499.5q50.5 -29.5 79.5 -88.5t29 -154q0 -91 -28.5 -152t-80.5 -90q-53 -29 -118 -29q-67 0 -117.5 29.5t-79.5 88.5q-30 60 -30 153q0 90 29 151.5t82 91.5q50 29 116 29q68 0 118.5 -29.5zM177.5 446q-33.5 -63 -33.5 -189t33.5 -188.5t95.5 -62.5t96 62.5
t34 188.5t-34 189t-96 63t-95.5 -63zM455 779q-27 -65 -73.5 -105.5t-106.5 -40.5q-59 0 -105 41t-73 105l16 9q58 -96 162 -96q106 0 162 96z" />
    <glyph glyph-name="Ohungarumlaut" unicode="&#x150;" horiz-adv-x="741" 
d="M538 679q71 -43 110 -124q40 -85 40 -195q0 -109 -40.5 -194.5t-113.5 -132.5q-70 -47 -164 -47q-96 0 -167 43t-111 125q-39 81 -39 194q0 110 40.5 195t112.5 132q70 47 165 47q96 0 167 -43zM254 660q-49 -44 -75 -125q-27 -79 -27 -183q0 -103 29 -182.5t81 -122.5
q49 -43 112 -43t112 44.5t75 124.5q26 78 26 183q0 103 -29 182t-79 123q-50 43 -112 43q-64 0 -113 -44zM221 784q17 17 47 54q21 28 38 50t31 34q18 15 34 15t26.5 -11t10.5 -25q0 -30 -52 -58q-15 -9 -58 -31q-39 -20 -69 -40zM408 784q17 17 47 54q21 28 38 50t31 34
q18 15 34 15t26.5 -11t10.5 -25q0 -30 -52 -58q-15 -9 -58 -31q-44 -23 -69 -40z" />
    <glyph glyph-name="ohungarumlaut" unicode="&#x151;" horiz-adv-x="548" 
d="M391.5 499.5q50.5 -29.5 79.5 -88.5t29 -154q0 -91 -28.5 -152t-80.5 -90q-53 -29 -118 -29q-67 0 -117.5 29.5t-79.5 88.5q-30 60 -30 153q0 90 29 151.5t82 91.5q50 29 116 29q68 0 118.5 -29.5zM177.5 446q-33.5 -63 -33.5 -189t33.5 -188.5t95.5 -62.5t96 62.5
t34 188.5t-34 189t-96 63t-95.5 -63zM144 608q30 47 74 130q23 46 38.5 64t35.5 18q13 0 24 -9.5t11 -25.5q0 -15 -13.5 -33t-43.5 -45q-28 -24 -56 -50t-58 -58zM323 608q29 47 73 130q24 46 39 64t35 18q14 0 24.5 -9.5t10.5 -25.5q0 -15 -13.5 -33.5t-43.5 -43.5
q-74 -66 -115 -109z" />
    <glyph glyph-name="OE" unicode="&#x152;" horiz-adv-x="928" 
d="M875 200q-2 -36 -2 -72q0 -57 6 -128q-61 3 -209 3q-114 0 -218 -2q-42 -15 -82 -15q-96 0 -167 43t-111 125q-39 81 -39 194q0 110 40.5 195t112.5 132q70 47 165 47q46 0 87 -15q108 -2 212 -2q133 0 189 3q-6 -64 -6 -118q0 -32 2 -62h-22q-8 67 -19.5 98t-36.5 45
q-26 14 -78 14h-33q-37 0 -53 -6t-22 -22q-7 -15 -7 -55v-236h43q45 0 63.5 21.5t24.5 55.5l6 35h23q-4 -36 -4 -78l1 -44q0 -42 6 -122h-23l-6 41q-11 71 -91 71h-43v-240q0 -38 6.5 -54.5t22.5 -22.5q17 -6 53 -6h22q62 0 95 16.5t48 53.5q13 34 22 107h22zM492 602
q0 50 -34 76t-91 26q-64 0 -113 -44t-75 -125q-27 -79 -27 -183q0 -103 29 -182.5t81 -122.5q49 -43 112 -43q29 0 56 11.5t44 33.5q18 23 18 57v496z" />
    <glyph glyph-name="oe" unicode="&#x153;" horiz-adv-x="835" 
d="M792 120q-13 -37 -37 -67t-59 -48q-37 -19 -81 -19q-62 0 -108 29.5t-73 84.5q-24 -57 -68 -85.5t-101 -28.5q-65 0 -113.5 29.5t-75.5 88.5q-29 63 -29 153t28 151.5t78 91.5q49 28 112 28q58 0 102.5 -29.5t68.5 -88.5q26 57 71 88t103 31q87 0 132.5 -55t45.5 -165
h-303q-4 -23 -4 -64q0 -64 21.5 -114t57.5 -77q35 -26 74 -26q46 0 80 23.5t57 76.5zM691 328q2 52 -7 93t-29 64q-20 25 -49 25q-64 0 -100 -80q-17 -42 -23 -102h208zM352 67q32 60 32 190t-32 190q-32 61 -87 61q-56 0 -88 -61q-32 -60 -32 -190t32 -190q31 -61 88 -61
q56 0 87 61z" />
    <glyph glyph-name="Racute" unicode="&#x154;" horiz-adv-x="648" 
d="M660 50q-25 -35 -48 -49.5t-59 -14.5q-43 0 -69 25t-39 83l-22 100q-12 57 -22.5 83t-30.5 42q-21 17 -59 17h-96v-230q0 -38 6.5 -55t22.5 -23q14 -6 52 -8v-20q-45 3 -127 3q-86 0 -127 -3v20q37 2 52.5 8t22.5 23q6 18 6 55v496q0 38 -6.5 55t-22.5 23q-14 6 -52 8v20
q40 -3 122 -3l86 1q31 1 64 1q77 0 131.5 -22t82.5 -62q28 -42 28 -90q0 -42 -19.5 -81t-60.5 -69q-45 -32 -115 -42l13 -2q45 -8 71.5 -22.5t42.5 -40.5q15 -23 26 -69l25 -102q11 -59 28 -74q10 -8 23 -8q16 0 27 8t28 30zM283 356q125 0 158 79q15 36 15 87
q0 83 -40 124.5t-126 41.5q-32 0 -47.5 -7t-21.5 -25t-6 -54v-246h68zM235 785q48 38 113 97q32 29 55 44q17 10 30 10q19 0 31 -17q5 -10 5 -19q0 -21 -26 -39q-25 -15 -56 -26q-85 -33 -146 -63z" />
    <glyph glyph-name="racute" unicode="&#x155;" horiz-adv-x="445" 
d="M194 401q12 32 33.5 61t49.5 48q32 19 62 19q27 0 47.5 -10.5t32.5 -28.5t12 -40q0 -27 -16 -45t-41 -18q-23 0 -38.5 14.5t-15.5 37.5q0 32 34 54q-6 10 -21 10q-38 0 -70 -29.5t-51 -75.5q-18 -45 -18 -83v-212q0 -45 25.5 -63.5t80.5 -18.5v-21l-92 3l-62 1l-53 -2
q-13 0 -65 -2v21q29 0 45.5 6.5t23.5 21.5t7 44v313q0 47 -17 67.5t-59 20.5v21q31 -3 62 -3q62 0 104 14v-125zM174 608q29 47 73 130q24 46 39 64t35 18q13 0 24 -9.5t11 -25.5q0 -15 -13.5 -33.5t-43.5 -43.5q-64 -56 -115 -109z" />
    <glyph glyph-name="Rcommaaccent" unicode="&#x156;" horiz-adv-x="648" 
d="M660 50q-25 -35 -48 -49.5t-59 -14.5q-43 0 -69 25t-39 83l-22 100q-12 57 -22.5 83t-30.5 42q-21 17 -59 17h-96v-230q0 -38 6.5 -55t22.5 -23q14 -6 52 -8v-20q-45 3 -127 3q-86 0 -127 -3v20q37 2 52.5 8t22.5 23q6 18 6 55v496q0 38 -6.5 55t-22.5 23q-14 6 -52 8v20
q40 -3 122 -3l86 1q31 1 64 1q77 0 131.5 -22t82.5 -62q28 -42 28 -90q0 -42 -19.5 -81t-60.5 -69q-45 -32 -115 -42l13 -2q45 -8 71.5 -22.5t42.5 -40.5q15 -23 26 -69l25 -102q11 -59 28 -74q10 -8 23 -8q16 0 27 8t28 30zM283 356q125 0 158 79q15 36 15 87
q0 83 -40 124.5t-126 41.5q-32 0 -47.5 -7t-21.5 -25t-6 -54v-246h68zM307 -223q27 8 44.5 25t17.5 38q-19 -16 -42 -16q-24 0 -38.5 14.5t-14.5 39.5q0 22 16.5 37.5t40.5 15.5q28 0 46.5 -20t18.5 -50q0 -38 -18 -61.5t-64 -40.5z" />
    <glyph glyph-name="rcommaaccent" unicode="&#x157;" horiz-adv-x="445" 
d="M194 401q12 32 33.5 61t49.5 48q32 19 62 19q27 0 47.5 -10.5t32.5 -28.5t12 -40q0 -27 -16 -45t-41 -18q-23 0 -38.5 14.5t-15.5 37.5q0 32 34 54q-6 10 -21 10q-38 0 -70 -29.5t-51 -75.5q-18 -45 -18 -83v-212q0 -45 25.5 -63.5t80.5 -18.5v-21l-92 3l-62 1l-53 -2
q-13 0 -65 -2v21q29 0 45.5 6.5t23.5 21.5t7 44v313q0 47 -17 67.5t-59 20.5v21q31 -3 62 -3q62 0 104 14v-125zM-72 -223q27 8 45 25t17 38q-19 -16 -42 -16q-24 0 -38 14.5t-14 39.5q0 22 16.5 37.5t39.5 15.5q29 0 47 -20t18 -50q0 -38 -18 -61.5t-64 -40.5z" />
    <glyph glyph-name="Rcaron" unicode="&#x158;" horiz-adv-x="648" 
d="M660 50q-25 -35 -48 -49.5t-59 -14.5q-43 0 -69 25t-39 83l-22 100q-12 57 -22.5 83t-30.5 42q-21 17 -59 17h-96v-230q0 -38 6.5 -55t22.5 -23q14 -6 52 -8v-20q-45 3 -127 3q-86 0 -127 -3v20q37 2 52.5 8t22.5 23q6 18 6 55v496q0 38 -6.5 55t-22.5 23q-14 6 -52 8v20
q40 -3 122 -3l86 1q31 1 64 1q77 0 131.5 -22t82.5 -62q28 -42 28 -90q0 -42 -19.5 -81t-60.5 -69q-45 -32 -115 -42l13 -2q45 -8 71.5 -22.5t42.5 -40.5q15 -23 26 -69l25 -102q11 -59 28 -74q10 -8 23 -8q16 0 27 8t28 30zM283 356q125 0 158 79q15 36 15 87
q0 83 -40 124.5t-126 41.5q-32 0 -47.5 -7t-21.5 -25t-6 -54v-246h68zM489 912q-64 -22 -114 -57.5t-73 -74.5h-18q-24 39 -74 74.5t-113 57.5l5 14q58 -12 116.5 -31.5t93.5 -38.5q30 19 77 38.5t94 31.5z" />
    <glyph glyph-name="rcaron" unicode="&#x159;" horiz-adv-x="445" 
d="M194 401q12 32 33.5 61t49.5 48q32 19 62 19q27 0 47.5 -10.5t32.5 -28.5t12 -40q0 -27 -16 -45t-41 -18q-23 0 -38.5 14.5t-15.5 37.5q0 32 34 54q-6 10 -21 10q-38 0 -70 -29.5t-51 -75.5q-18 -45 -18 -83v-212q0 -45 25.5 -63.5t80.5 -18.5v-21l-92 3l-62 1l-53 -2
q-13 0 -65 -2v21q29 0 45.5 6.5t23.5 21.5t7 44v313q0 47 -17 67.5t-59 20.5v21q31 -3 62 -3q62 0 104 14v-125zM401 788q-57 -28 -101.5 -74.5t-65.5 -97.5h-18q-20 51 -65 97.5t-102 74.5l9 14q53 -19 104.5 -46t83.5 -54q24 27 64.5 54t83.5 46z" />
    <glyph glyph-name="Sacute" unicode="&#x15a;" horiz-adv-x="540" 
d="M89 233q8 -107 52 -167t130 -60q36 0 65.5 14.5t46.5 43.5q18 28 18 75q0 70 -69 125q-27 21 -86 58q-65 38 -99 66t-56 66q-24 38 -24 92q0 56 25 95t70 59q41 19 93 19q54 0 90 -17q26 -15 32 -20q25 -14 35 -14q9 0 14 11q5 12 8 33h23q-5 -49 -5 -204h-23
q-10 115 -76 165q-36 27 -88 27q-35 0 -63 -14.5t-44 -40.5q-15 -27 -15 -61q0 -49 28.5 -82.5t80.5 -64.5q51 -31 59 -36q69 -43 103 -71.5t55 -64.5q22 -41 22 -89q0 -60 -28 -103.5t-77 -65.5q-48 -21 -108 -21q-45 0 -76 9t-60 28q-25 14 -35 14q-8 0 -14 -10
q-5 -12 -8 -34h-22q3 56 3 240h23zM214 785q48 38 113 97q32 29 55 44q17 10 30 10q19 0 31 -17q5 -10 5 -19q0 -21 -26 -39q-25 -15 -56 -26q-85 -33 -146 -63z" />
    <glyph glyph-name="sacute" unicode="&#x15b;" horiz-adv-x="446" 
d="M82 193q7 -65 21.5 -104t41.5 -61q28 -22 76 -22q23 0 43 10t32 30q14 23 14 55q0 49 -51 88q-20 16 -63 43q-54 34 -78 53.5t-41 46.5q-18 26 -18 68t19 71t54 44q34 14 75 14q32 0 60.5 -10.5t47.5 -26.5q13 -8 18 -8q17 0 22 44h23q-3 -49 -3 -170h-23
q-26 152 -137 152q-37 0 -59.5 -21t-22.5 -56q0 -31 20.5 -54t60.5 -48q33 -20 65 -41t57 -42q62 -52 62 -122q0 -43 -22.5 -75t-62.5 -49q-38 -16 -85 -16q-44 0 -80 14q-11 5 -41 27q-4 4 -9 4q-14 0 -20 -38h-23q4 76 4 200h23zM166 608q29 47 73 130q24 46 39 64t35 18
q13 0 24 -9.5t11 -25.5q0 -15 -13.5 -33.5t-43.5 -43.5q-64 -56 -115 -109z" />
    <glyph glyph-name="Scircumflex" unicode="&#x15c;" horiz-adv-x="540" 
d="M89 233q8 -107 52 -167t130 -60q36 0 65.5 14.5t46.5 43.5q18 28 18 75q0 70 -69 125q-27 21 -86 58q-65 38 -99 66t-56 66q-24 38 -24 92q0 56 25 95t70 59q41 19 93 19q54 0 90 -17q26 -15 32 -20q25 -14 35 -14q9 0 14 11q5 12 8 33h23q-5 -49 -5 -204h-23
q-10 115 -76 165q-36 27 -88 27q-35 0 -63 -14.5t-44 -40.5q-15 -27 -15 -61q0 -49 28.5 -82.5t80.5 -64.5q51 -31 59 -36q69 -43 103 -71.5t55 -64.5q22 -41 22 -89q0 -60 -28 -103.5t-77 -65.5q-48 -21 -108 -21q-45 0 -76 9t-60 28q-25 14 -35 14q-8 0 -14 -10
q-5 -12 -8 -34h-22q3 56 3 240h23zM284 916q24 -40 73.5 -75.5t113.5 -56.5l-6 -14q-60 13 -118.5 32t-92.5 38q-27 -19 -74 -38t-96 -32l-5 14q63 21 113 56.5t74 75.5h18z" />
    <glyph glyph-name="scircumflex" unicode="&#x15d;" horiz-adv-x="446" 
d="M82 193q7 -65 21.5 -104t41.5 -61q28 -22 76 -22q23 0 43 10t32 30q14 23 14 55q0 49 -51 88q-20 16 -63 43q-54 34 -78 53.5t-41 46.5q-18 26 -18 68t19 71t54 44q34 14 75 14q32 0 60.5 -10.5t47.5 -26.5q13 -8 18 -8q17 0 22 44h23q-3 -49 -3 -170h-23
q-26 152 -137 152q-37 0 -59.5 -21t-22.5 -56q0 -31 20.5 -54t60.5 -48q33 -20 65 -41t57 -42q62 -52 62 -122q0 -43 -22.5 -75t-62.5 -49q-38 -16 -85 -16q-44 0 -80 14q-11 5 -41 27q-4 4 -9 4q-14 0 -20 -38h-23q4 76 4 200h23zM236 802q21 -52 66 -98.5t101 -73.5
l-7 -14q-55 19 -106 46t-82 54q-25 -27 -65.5 -54t-82.5 -46l-9 14q57 27 101.5 73.5t65.5 98.5h18z" />
    <glyph glyph-name="Scedilla" unicode="&#x15e;" horiz-adv-x="540" 
d="M290 -14l-20 -58q28 7 59 7q28 0 44.5 -12.5t16.5 -34.5q0 -25 -16.5 -42.5t-43.5 -25.5q-23 -8 -52 -8q-50 0 -83 11l4 18q19 -3 38 -3q39 0 64 11t25 34q0 28 -42 28q-30 0 -48 -7l27 82q-39 1 -66.5 10.5t-54.5 26.5q-25 14 -35 14q-8 0 -14 -10q-5 -12 -8 -34h-22
q3 56 3 240h23q8 -107 52 -167t130 -60q36 0 65.5 14.5t46.5 43.5q18 28 18 75q0 70 -69 125q-27 21 -86 58q-65 38 -99 66t-56 66q-24 38 -24 92q0 56 25 95t70 59q41 19 93 19q54 0 90 -17q26 -15 32 -20q25 -14 35 -14q9 0 14 11q5 12 8 33h23q-5 -49 -5 -204h-23
q-10 115 -76 165q-36 27 -88 27q-35 0 -63 -14.5t-44 -40.5q-15 -27 -15 -61q0 -49 28.5 -82.5t80.5 -64.5q51 -31 59 -36q69 -43 103 -71.5t55 -64.5q22 -41 22 -89q0 -60 -28 -103.5t-77 -65.5q-40 -18 -96 -21z" />
    <glyph glyph-name="scedilla" unicode="&#x15f;" horiz-adv-x="446" 
d="M217 -14l-19 -58q28 7 60 7q28 0 44.5 -12.5t16.5 -34.5q0 -25 -16.5 -42.5t-44.5 -25.5q-23 -8 -53 -8q-50 0 -83 11l5 18q20 -3 37 -3q40 0 65.5 11t25.5 34q0 28 -42 28q-30 0 -50 -7l28 85q-22 3 -43 11q-11 5 -41 27q-4 4 -9 4q-14 0 -20 -38h-23q4 76 4 200h23
q7 -65 21.5 -104t41.5 -61q28 -22 76 -22q23 0 43 10t32 30q14 23 14 55q0 49 -51 88q-20 16 -63 43q-54 34 -78 53.5t-41 46.5q-18 26 -18 68t19 71t54 44q34 14 75 14q32 0 60.5 -10.5t47.5 -26.5q13 -8 18 -8q17 0 22 44h23q-3 -49 -3 -170h-23q-26 152 -137 152
q-37 0 -59.5 -21t-22.5 -56q0 -31 20.5 -54t60.5 -48q33 -20 65 -41t57 -42q62 -52 62 -122q0 -43 -22.5 -75t-62.5 -49q-38 -16 -85 -16h-11z" />
    <glyph glyph-name="Scaron" unicode="&#x160;" horiz-adv-x="540" 
d="M89 233q8 -107 52 -167t130 -60q36 0 65.5 14.5t46.5 43.5q18 28 18 75q0 70 -69 125q-27 21 -86 58q-65 38 -99 66t-56 66q-24 38 -24 92q0 56 25 95t70 59q41 19 93 19q54 0 90 -17q26 -15 32 -20q25 -14 35 -14q9 0 14 11q5 12 8 33h23q-5 -49 -5 -204h-23
q-10 115 -76 165q-36 27 -88 27q-35 0 -63 -14.5t-44 -40.5q-15 -27 -15 -61q0 -49 28.5 -82.5t80.5 -64.5q51 -31 59 -36q69 -43 103 -71.5t55 -64.5q22 -41 22 -89q0 -60 -28 -103.5t-77 -65.5q-48 -21 -108 -21q-45 0 -76 9t-60 28q-25 14 -35 14q-8 0 -14 -10
q-5 -12 -8 -34h-22q3 56 3 240h23zM468 912q-64 -22 -114 -57.5t-73 -74.5h-18q-24 39 -74 74.5t-113 57.5l5 14q58 -12 116.5 -31.5t93.5 -38.5q30 19 77 38.5t94 31.5z" />
    <glyph glyph-name="scaron" unicode="&#x161;" horiz-adv-x="446" 
d="M82 193q7 -65 21.5 -104t41.5 -61q28 -22 76 -22q23 0 43 10t32 30q14 23 14 55q0 49 -51 88q-20 16 -63 43q-54 34 -78 53.5t-41 46.5q-18 26 -18 68t19 71t54 44q34 14 75 14q32 0 60.5 -10.5t47.5 -26.5q13 -8 18 -8q17 0 22 44h23q-3 -49 -3 -170h-23
q-26 152 -137 152q-37 0 -59.5 -21t-22.5 -56q0 -31 20.5 -54t60.5 -48q33 -20 65 -41t57 -42q62 -52 62 -122q0 -43 -22.5 -75t-62.5 -49q-38 -16 -85 -16q-44 0 -80 14q-11 5 -41 27q-4 4 -9 4q-14 0 -20 -38h-23q4 76 4 200h23zM393 788q-57 -28 -101.5 -74.5
t-65.5 -97.5h-18q-20 51 -65 97.5t-102 74.5l9 14q53 -19 104.5 -46t83.5 -54q24 27 64.5 54t83.5 46z" />
    <glyph glyph-name="uni0162" unicode="&#x162;" horiz-adv-x="621" 
d="M584 580q0 -50 3 -82h-23q-8 82 -20 117.5t-41 52.5q-31 17 -92 17h-55v-569q0 -41 8 -60.5t29 -26.5q19 -7 65 -9v-20q-51 3 -137 3l-26 -75q28 7 59 7q28 0 44.5 -12.5t16.5 -34.5q0 -25 -16.5 -42.5t-43.5 -25.5q-23 -8 -52 -8q-50 0 -83 11l4 18q20 -3 38 -3
q39 0 64 11t25 34q0 28 -42 28q-30 0 -48 -7l32 99q-88 0 -130 -3v20q45 2 65.5 9.5t27.5 26.5q8 19 8 60v569h-55q-61 0 -91.5 -17t-41.5 -55q-12 -34 -20 -115h-23q3 32 3 82q0 54 -8 128q82 -3 283 -3q198 0 280 3q-7 -82 -7 -128z" />
    <glyph glyph-name="uni0163" unicode="&#x163;" horiz-adv-x="354" 
d="M308.5 -77.5q16.5 -12.5 16.5 -34.5q0 -25 -16.5 -42.5t-44.5 -25.5q-23 -8 -53 -8q-50 0 -83 11l5 18q19 -3 37 -3q40 0 65.5 11t25.5 34q0 28 -42 28q-30 0 -50 -7l28 85q-34 6 -58 30q-22 22 -30.5 53.5t-8.5 86.5v335h-96v20h96v153q54 1 90 14v-167h148v-20h-148
v-387q0 -45 15.5 -65t48.5 -20q31 0 53 25.5t37 81.5l20 -5q-24 -138 -130 -138h-11l-19 -58q28 7 60 7q28 0 44.5 -12.5z" />
    <glyph glyph-name="Tcaron" unicode="&#x164;" horiz-adv-x="621" 
d="M33 498q3 32 3 82q0 54 -8 128q82 -3 283 -3q198 0 280 3q-7 -82 -7 -128q0 -50 3 -82h-23q-8 82 -20 117.5t-41 52.5q-31 17 -92 17h-55v-569q0 -41 8 -60.5t29 -26.5q19 -7 65 -9v-20q-54 3 -147 3q-101 0 -148 -3v20q45 2 65.5 9.5t27.5 26.5q8 19 8 60v569h-55
q-61 0 -91.5 -17t-41.5 -55q-12 -34 -20 -115h-23zM504 912q-64 -22 -114 -57.5t-73 -74.5h-18q-24 39 -74 74.5t-113 57.5l5 14q58 -12 116.5 -31.5t93.5 -38.5q30 19 77 38.5t94 31.5z" />
    <glyph glyph-name="tcaron" unicode="&#x165;" horiz-adv-x="354" 
d="M338 514v-20h-148v-387q0 -45 15.5 -65t48.5 -20q31 0 53 25.5t37 81.5l20 -5q-24 -138 -130 -138q-33 0 -55.5 8t-39.5 25q-22 22 -30.5 53.5t-8.5 86.5v335h-96v20h96v153q54 1 90 14v-167h148zM258 772q4 -1 16 -1q29 0 59 12q2 -5 4 -17.5t2 -23.5q0 -26 -15 -64
q-14 -34 -53 -116l-13 4q20 118 20 145q0 21 -4.5 30.5t-15.5 9.5v21z" />
    <glyph glyph-name="Tbar" unicode="&#x166;" horiz-adv-x="627" 
d="M35 498q3 32 3 82q0 54 -8 128q83 -3 283 -3q197 0 280 3q-7 -82 -7 -128q0 -50 3 -82h-23q-8 82 -20 117.5t-41 52.5q-31 17 -92 17h-55v-319h161v-20h-161v-230q0 -41 8 -60.5t29 -26.5q19 -7 64 -9v-20q-52 3 -146 3q-101 0 -148 -3v20q45 2 65.5 9.5t27.5 26.5
q8 19 8 60v230h-162v20h162v319h-55q-61 0 -91.5 -17t-41.5 -55q-12 -34 -20 -115h-23z" />
    <glyph glyph-name="tbar" unicode="&#x167;" horiz-adv-x="376" 
d="M367 124q-24 -138 -130 -138q-33 0 -55.5 8t-39.5 25q-22 22 -30.5 53.5t-8.5 86.5v242h-96v20h96v73h-96v20h96v153q54 1 90 14v-167h148v-20h-148v-73h148v-20h-148v-294q0 -45 15.5 -65t48.5 -20q31 0 53 25.5t37 81.5z" />
    <glyph glyph-name="Utilde" unicode="&#x168;" horiz-adv-x="682" 
d="M654 688q-35 -2 -51.5 -10.5t-22.5 -27.5t-6 -58v-301q0 -73 -10 -124.5t-31 -87.5q-26 -43 -74.5 -68t-108.5 -25q-111 0 -168 54q-30 28 -46 59t-22 75q-7 41 -7 114v314q0 38 -6 55t-22 23q-14 6 -53 8v20q43 -3 128 -3q80 0 128 3v-20q-38 -2 -53.5 -8t-21.5 -23
q-6 -16 -6 -55v-331q0 -86 11.5 -136.5t44.5 -81.5q35 -32 101 -32q103 0 147.5 65.5t44.5 193.5v312q0 37 -8.5 57t-27.5 29q-18 8 -55 10v20q36 -3 103 -3q59 0 92 3v-20zM159 796q3 32 18.5 56t40.5 37q26 13 52 13q24 0 46 -9.5t69 -38.5q46 -29 80 -29q45 0 62 56
l14 -3q-3 -32 -18.5 -56t-39.5 -37q-23 -13 -53 -13q-24 0 -44.5 9.5t-69.5 39.5q-46 28 -79 28q-47 0 -62 -56z" />
    <glyph glyph-name="utilde" unicode="&#x169;" horiz-adv-x="581" 
d="M482 108q0 -47 17.5 -67.5t59.5 -20.5v-21q-31 3 -62 3q-64 0 -104 -14v118q-24 -60 -67 -90t-97 -30q-68 0 -104 38q-18 19 -26 50.5t-8 80.5v251q0 47 -17 67.5t-58 20.5v21q31 -3 62 -3q60 0 104 14v-393q0 -42 5 -64t20 -36q17 -15 50 -15q39 0 70 23.5t48 65.5
q18 42 18 92v207q0 47 -17.5 67.5t-59.5 20.5v21q31 -3 62 -3q64 0 104 14v-418zM86 665q15 51 46.5 77t73.5 26q24 0 41.5 -8.5t50.5 -33.5q32 -24 58 -24q46 0 78 53l14 -7q-15 -51 -46 -77t-72 -26q-25 0 -43 8.5t-51 34.5q-31 24 -58 24q-44 0 -77 -54z" />
    <glyph glyph-name="Umacron" unicode="&#x16a;" horiz-adv-x="682" 
d="M654 688q-35 -2 -51.5 -10.5t-22.5 -27.5t-6 -58v-301q0 -73 -10 -124.5t-31 -87.5q-26 -43 -74.5 -68t-108.5 -25q-111 0 -168 54q-30 28 -46 59t-22 75q-7 41 -7 114v314q0 38 -6 55t-22 23q-14 6 -53 8v20q43 -3 128 -3q80 0 128 3v-20q-38 -2 -53.5 -8t-21.5 -23
q-6 -16 -6 -55v-331q0 -86 11.5 -136.5t44.5 -81.5q35 -32 101 -32q103 0 147.5 65.5t44.5 193.5v312q0 37 -8.5 57t-27.5 29q-18 8 -55 10v20q36 -3 103 -3q59 0 92 3v-20zM175 819v25h352v-25h-352z" />
    <glyph glyph-name="umacron" unicode="&#x16b;" horiz-adv-x="581" 
d="M482 108q0 -47 17.5 -67.5t59.5 -20.5v-21q-31 3 -62 3q-64 0 -104 -14v118q-24 -60 -67 -90t-97 -30q-68 0 -104 38q-18 19 -26 50.5t-8 80.5v251q0 47 -17 67.5t-58 20.5v21q31 -3 62 -3q60 0 104 14v-393q0 -42 5 -64t20 -36q17 -15 50 -15q39 0 70 23.5t48 65.5
q18 42 18 92v207q0 47 -17.5 67.5t-59.5 20.5v21q31 -3 62 -3q64 0 104 14v-418zM120 687v25h312v-25h-312z" />
    <glyph glyph-name="Ubreve" unicode="&#x16c;" horiz-adv-x="682" 
d="M654 688q-35 -2 -51.5 -10.5t-22.5 -27.5t-6 -58v-301q0 -73 -10 -124.5t-31 -87.5q-26 -43 -74.5 -68t-108.5 -25q-111 0 -168 54q-30 28 -46 59t-22 75q-7 41 -7 114v314q0 38 -6 55t-22 23q-14 6 -53 8v20q43 -3 128 -3q80 0 128 3v-20q-38 -2 -53.5 -8t-21.5 -23
q-6 -16 -6 -55v-331q0 -86 11.5 -136.5t44.5 -81.5q35 -32 101 -32q103 0 147.5 65.5t44.5 193.5v312q0 37 -8.5 57t-27.5 29q-18 8 -55 10v20q36 -3 103 -3q59 0 92 3v-20zM550 898q-31 -51 -82 -83.5t-116 -32.5q-66 0 -117 32.5t-83 83.5l14 10q29 -29 76.5 -46.5
t109.5 -17.5t109.5 18t77.5 47z" />
    <glyph glyph-name="ubreve" unicode="&#x16d;" horiz-adv-x="581" 
d="M482 108q0 -47 17.5 -67.5t59.5 -20.5v-21q-31 3 -62 3q-64 0 -104 -14v118q-24 -60 -67 -90t-97 -30q-68 0 -104 38q-18 19 -26 50.5t-8 80.5v251q0 47 -17 67.5t-58 20.5v21q31 -3 62 -3q60 0 104 14v-393q0 -42 5 -64t20 -36q17 -15 50 -15q39 0 70 23.5t48 65.5
q18 42 18 92v207q0 47 -17.5 67.5t-59.5 20.5v21q31 -3 62 -3q64 0 104 14v-418zM458 779q-27 -65 -73.5 -105.5t-106.5 -40.5q-59 0 -105 41t-73 105l16 9q58 -96 162 -96q106 0 162 96z" />
    <glyph glyph-name="Uring" unicode="&#x16e;" horiz-adv-x="682" 
d="M654 688q-35 -2 -51.5 -10.5t-22.5 -27.5t-6 -58v-301q0 -73 -10 -124.5t-31 -87.5q-26 -43 -74.5 -68t-108.5 -25q-111 0 -168 54q-30 28 -46 59t-22 75q-7 41 -7 114v314q0 38 -6 55t-22 23q-14 6 -53 8v20q43 -3 128 -3q80 0 128 3v-20q-38 -2 -53.5 -8t-21.5 -23
q-6 -16 -6 -55v-331q0 -86 11.5 -136.5t44.5 -81.5q35 -32 101 -32q103 0 147.5 65.5t44.5 193.5v312q0 37 -8.5 57t-27.5 29q-18 8 -55 10v20q36 -3 103 -3q59 0 92 3v-20zM400 973.5q22 -11.5 35 -31.5q14 -22 14 -48q0 -27 -13.5 -48t-35.5 -33q-24 -11 -49 -11
q-26 0 -47.5 11.5t-34.5 31.5q-13 22 -13 49t13 48t35 32q24 11 47 11q27 0 49 -11.5zM318.5 955.5q-15.5 -8.5 -24.5 -24.5q-10 -14 -10 -38q0 -44 35 -62q16 -8 32 -8q18 0 34 8t26 24q10 17 10 38q0 42 -36 63q-18 8 -34 8q-17 0 -32.5 -8.5z" />
    <glyph glyph-name="uring" unicode="&#x16f;" horiz-adv-x="581" 
d="M482 108q0 -47 17.5 -67.5t59.5 -20.5v-21q-31 3 -62 3q-64 0 -104 -14v118q-24 -60 -67 -90t-97 -30q-68 0 -104 38q-18 19 -26 50.5t-8 80.5v251q0 47 -17 67.5t-58 20.5v21q31 -3 62 -3q60 0 104 14v-393q0 -42 5 -64t20 -36q17 -15 50 -15q39 0 70 23.5t48 65.5
q18 42 18 92v207q0 47 -17.5 67.5t-59.5 20.5v21q31 -3 62 -3q64 0 104 14v-418zM328 779.5q22 -11.5 35 -31.5q14 -22 14 -48q0 -27 -13.5 -48t-35.5 -33q-24 -11 -49 -11q-26 0 -47.5 11.5t-34.5 31.5q-13 22 -13 49t13 48t35 32q24 11 47 11q27 0 49 -11.5zM246.5 761.5
q-15.5 -8.5 -24.5 -24.5q-10 -14 -10 -38q0 -44 35 -62q16 -8 32 -8q18 0 34 8t26 24q10 17 10 38q0 42 -36 63q-18 8 -34 8q-17 0 -32.5 -8.5z" />
    <glyph glyph-name="Uhungarumlaut" unicode="&#x170;" horiz-adv-x="682" 
d="M654 688q-35 -2 -51.5 -10.5t-22.5 -27.5t-6 -58v-301q0 -73 -10 -124.5t-31 -87.5q-26 -43 -74.5 -68t-108.5 -25q-111 0 -168 54q-30 28 -46 59t-22 75q-7 41 -7 114v314q0 38 -6 55t-22 23q-14 6 -53 8v20q43 -3 128 -3q80 0 128 3v-20q-38 -2 -53.5 -8t-21.5 -23
q-6 -16 -6 -55v-331q0 -86 11.5 -136.5t44.5 -81.5q35 -32 101 -32q103 0 147.5 65.5t44.5 193.5v312q0 37 -8.5 57t-27.5 29q-18 8 -55 10v20q36 -3 103 -3q59 0 92 3v-20zM204 784q17 17 47 54q21 28 38 50t31 34q18 15 34 15t26.5 -11t10.5 -25q0 -30 -52 -58
q-15 -9 -58 -31q-39 -20 -69 -40zM391 784q17 17 47 54q21 28 38 50t31 34q18 15 34 15t26.5 -11t10.5 -25q0 -30 -52 -58q-15 -9 -58 -31q-44 -23 -69 -40z" />
    <glyph glyph-name="uhungarumlaut" unicode="&#x171;" horiz-adv-x="581" 
d="M482 108q0 -47 17.5 -67.5t59.5 -20.5v-21q-31 3 -62 3q-64 0 -104 -14v118q-24 -60 -67 -90t-97 -30q-68 0 -104 38q-18 19 -26 50.5t-8 80.5v251q0 47 -17 67.5t-58 20.5v21q31 -3 62 -3q60 0 104 14v-393q0 -42 5 -64t20 -36q17 -15 50 -15q39 0 70 23.5t48 65.5
q18 42 18 92v207q0 47 -17.5 67.5t-59.5 20.5v21q31 -3 62 -3q64 0 104 14v-418zM147 608q30 47 74 130q23 46 38.5 64t35.5 18q13 0 24 -9.5t11 -25.5q0 -15 -13.5 -33t-43.5 -45q-28 -24 -56 -50t-58 -58zM326 608q29 47 73 130q24 46 39 64t35 18q14 0 24.5 -9.5
t10.5 -25.5q0 -15 -13.5 -33.5t-43.5 -43.5q-74 -66 -115 -109z" />
    <glyph glyph-name="Uogonek" unicode="&#x172;" horiz-adv-x="682" 
d="M654 708v-20q-35 -2 -51.5 -10.5t-22.5 -27.5t-6 -58v-301q0 -73 -10 -124.5t-31 -87.5q-19 -31 -50 -53t-71 -32q-38 -16 -56.5 -39.5t-18.5 -50.5q0 -20 11.5 -32t31.5 -12q17 0 33.5 9t27.5 24l14 -13q-43 -68 -112 -68q-36 0 -58 18t-22 47q0 32 24.5 60t70.5 49h-8
q-111 0 -168 54q-30 28 -46 59t-22 75q-7 41 -7 114v314q0 38 -6 55t-22 23q-14 6 -53 8v20q43 -3 128 -3q80 0 128 3v-20q-38 -2 -53.5 -8t-21.5 -23q-6 -16 -6 -55v-331q0 -86 11.5 -136.5t44.5 -81.5q35 -32 101 -32q103 0 147.5 65.5t44.5 193.5v312q0 37 -8.5 57
t-27.5 29q-18 8 -55 10v20q36 -3 103 -3q59 0 92 3z" />
    <glyph glyph-name="uogonek" unicode="&#x173;" horiz-adv-x="581" 
d="M567 -120q-43 -68 -112 -68q-36 0 -58 18t-22 47q0 38 35.5 70.5t100.5 54.5h-14q-64 0 -104 -14v118q-24 -60 -67 -90t-97 -30q-68 0 -104 38q-18 19 -26 50.5t-8 80.5v251q0 47 -17 67.5t-58 20.5v21q31 -3 62 -3q60 0 104 14v-393q0 -42 5 -64t20 -36q17 -15 50 -15
q39 0 70 23.5t48 65.5q18 42 18 92v207q0 47 -17.5 67.5t-59.5 20.5v21q31 -3 62 -3q64 0 104 14v-418q0 -47 17.5 -67.5t59.5 -20.5v-21q-6 1 -18 1l-5 -2q-87 -37 -87 -94q0 -20 11.5 -32t31.5 -12q17 0 33.5 9t27.5 24z" />
    <glyph glyph-name="Wcircumflex" unicode="&#x174;" horiz-adv-x="905" 
d="M717 708q57 -3 115 -3q45 0 75 3v-20q-55 -12 -79 -87l-189 -606h-16l-174 515l-159 -515h-16l-212 629q-21 63 -69 64v20q41 -3 107 -3q72 0 108 3v-20q-26 -1 -37.5 -9.5t-11.5 -25.5q0 -14 11 -49l146 -446l122 387l-27 79q-21 63 -59 64v20q36 -3 97 -3q86 0 128 3
v-20q-27 -1 -40 -4t-20 -10q-8 -7 -8 -22q0 -18 10 -48l144 -445l123 387q16 49 16 80q0 33 -19.5 47t-65.5 15v20zM473 916q24 -40 73.5 -75.5t113.5 -56.5l-6 -14q-60 13 -118.5 32t-92.5 38q-27 -19 -74 -38t-96 -32l-5 14q63 21 113 56.5t74 75.5h18z" />
    <glyph glyph-name="wcircumflex" unicode="&#x175;" horiz-adv-x="770" 
d="M607 515q53 -3 84 -3q44 0 76 3v-20q-22 -2 -37.5 -18.5t-27.5 -51.5l-145 -430h-17l-159 402l-142 -402h-17l-164 443q-12 32 -26.5 44t-31.5 12v21q42 -6 88 -6q44 0 130 6v-21q-36 0 -50.5 -4.5t-18.5 -21.5q-1 -3 -1 -10q0 -19 10 -48l100 -287l144 396h23l153 -405
l94 287q9 29 9 45q0 24 -17 35.5t-57 13.5v20zM419 802q21 -52 66 -98.5t101 -73.5l-7 -14q-55 19 -106 46t-82 54q-25 -27 -65.5 -54t-82.5 -46l-9 14q57 27 101.5 73.5t65.5 98.5h18z" />
    <glyph glyph-name="Ycircumflex" unicode="&#x176;" horiz-adv-x="591" 
d="M398 708q57 -3 115 -3q45 0 75 3v-20q-20 -5 -39 -26t-41 -63l-157 -311v-182q0 -38 6.5 -55t22.5 -23q14 -6 52 -8v-20q-46 3 -127 3q-86 0 -128 -3v20q37 2 53 8t22 23q6 18 6 55v151l-203 374q-18 32 -32 45q-14 11 -26 11v21q39 -3 88 -3q97 0 140 3v-21
q-70 0 -70 -39q0 -15 10 -34l167 -319l127 254q27 54 27 86q0 27 -21.5 39.5t-66.5 13.5v20zM313 916q24 -40 73.5 -75.5t113.5 -56.5l-6 -14q-60 13 -118.5 32t-92.5 38q-27 -19 -74 -38t-96 -32l-5 14q63 21 113 56.5t74 75.5h18z" />
    <glyph glyph-name="ycircumflex" unicode="&#x177;" horiz-adv-x="504" 
d="M334 515q53 -3 84 -3q44 0 76 3v-20q-21 -2 -36.5 -18t-28.5 -52l-164 -430l-34 -87q-19 -51 -46 -73.5t-75 -22.5q-31 0 -49.5 16t-18.5 44q0 24 14 38.5t39 14.5q23 0 37 -12.5t14 -34.5q0 -30 -27 -45l6 -1q55 0 85 78l36 91l-182 437q-16 32 -32.5 44t-35.5 12v21
q47 -6 98 -6q43 0 130 6v-21q-27 0 -39.5 -2t-20.5 -9q-10 -7 -10 -24q0 -15 13 -49l121 -299l110 290q11 30 11 46q0 23 -18 34.5t-57 13.5v20zM262 802q21 -52 66 -98.5t101 -73.5l-7 -14q-55 19 -106 46t-82 54q-25 -27 -65.5 -54t-82.5 -46l-9 14q57 27 101.5 73.5
t65.5 98.5h18z" />
    <glyph glyph-name="Ydieresis" unicode="&#x178;" horiz-adv-x="591" 
d="M398 708q57 -3 115 -3q45 0 75 3v-20q-20 -5 -39 -26t-41 -63l-157 -311v-182q0 -38 6.5 -55t22.5 -23q14 -6 52 -8v-20q-46 3 -127 3q-86 0 -128 -3v20q37 2 53 8t22 23q6 18 6 55v151l-203 374q-18 32 -32 45q-14 11 -26 11v21q39 -3 88 -3q97 0 140 3v-21
q-70 0 -70 -39q0 -15 10 -34l167 -319l127 254q27 54 27 86q0 27 -21.5 39.5t-66.5 13.5v20zM226.5 880q13.5 -8 21.5 -21q8 -14 8 -29q0 -16 -8 -29t-22 -21q-12 -8 -28 -8q-24 0 -41.5 17t-17.5 41q0 15 8.5 29t21.5 21q12 8 29 8q15 0 28.5 -8zM438 880q14 -8 22 -21
q8 -14 8 -29q0 -16 -8 -29t-22 -21q-12 -8 -29 -8q-23 0 -40.5 17t-17.5 41q0 15 8 29t22 21q11 8 28 8q15 0 29 -8z" />
    <glyph glyph-name="Zacute" unicode="&#x179;" horiz-adv-x="594" 
d="M136 23h211q62 0 94.5 17.5t47.5 56.5q13 37 22 113h23q-4 -32 -4 -82q0 -46 8 -128q-75 3 -249 3q-172 0 -247 -3v20l416 665h-209q-62 0 -95 -17.5t-47 -56.5q-14 -36 -23 -113h-22q2 42 2 82q0 58 -6 128q74 -3 249 -3q170 0 242 3v-20zM234 785q48 38 113 97
q32 29 55 44q17 10 30 10q19 0 31 -17q5 -10 5 -19q0 -21 -26 -39q-25 -15 -56 -26q-85 -33 -146 -63z" />
    <glyph glyph-name="zacute" unicode="&#x17a;" horiz-adv-x="476" 
d="M259 15q128 0 139 161h23q0 -114 4 -180q-69 4 -185 4q-114 0 -202 -5l289 505h-111q-45 0 -73.5 -16.5t-44.5 -50.5q-15 -33 -20 -94h-23q0 127 -5 180q106 -4 186 -4q85 0 202 5l-289 -505h110zM192 608q29 47 73 130q24 46 39 64t35 18q13 0 24 -9.5t11 -25.5
q0 -15 -13.5 -33.5t-43.5 -43.5q-64 -56 -115 -109z" />
    <glyph glyph-name="Zdotaccent" unicode="&#x17b;" horiz-adv-x="594" 
d="M136 23h211q62 0 94.5 17.5t47.5 56.5q13 37 22 113h23q-4 -32 -4 -82q0 -46 8 -128q-75 3 -249 3q-172 0 -247 -3v20l416 665h-209q-62 0 -95 -17.5t-47 -56.5q-14 -36 -23 -113h-22q2 42 2 82q0 58 -6 128q74 -3 249 -3q170 0 242 3v-20zM326.5 950.5
q14.5 -8.5 23.5 -23.5t9 -32t-9 -32t-24 -23q-14 -9 -31 -9t-32 8.5t-24 23.5q-8 16 -8 32q0 17 8.5 32t23.5 23q15 9 32 9t31.5 -8.5z" />
    <glyph glyph-name="zdotaccent" unicode="&#x17c;" horiz-adv-x="476" 
d="M259 15q128 0 139 161h23q0 -114 4 -180q-69 4 -185 4q-114 0 -202 -5l289 505h-111q-45 0 -73.5 -16.5t-44.5 -50.5q-15 -33 -20 -94h-23q0 127 -5 180q106 -4 186 -4q85 0 202 5l-289 -505h110zM285.5 756.5q14.5 -8.5 23.5 -23.5t9 -32t-9 -32t-24 -23q-14 -9 -31 -9
t-32 8.5t-24 23.5q-8 16 -8 32q0 17 8.5 32t23.5 23q15 9 32 9t31.5 -8.5z" />
    <glyph glyph-name="Zcaron" unicode="&#x17d;" horiz-adv-x="594" 
d="M136 23h211q62 0 94.5 17.5t47.5 56.5q13 37 22 113h23q-4 -32 -4 -82q0 -46 8 -128q-75 3 -249 3q-172 0 -247 -3v20l416 665h-209q-62 0 -95 -17.5t-47 -56.5q-14 -36 -23 -113h-22q2 42 2 82q0 58 -6 128q74 -3 249 -3q170 0 242 3v-20zM488 912q-64 -22 -114 -57.5
t-73 -74.5h-18q-24 39 -74 74.5t-113 57.5l5 14q58 -12 116.5 -31.5t93.5 -38.5q30 19 77 38.5t94 31.5z" />
    <glyph glyph-name="zcaron" unicode="&#x17e;" horiz-adv-x="476" 
d="M259 15q128 0 139 161h23q0 -114 4 -180q-69 4 -185 4q-114 0 -202 -5l289 505h-111q-45 0 -73.5 -16.5t-44.5 -50.5q-15 -33 -20 -94h-23q0 127 -5 180q106 -4 186 -4q85 0 202 5l-289 -505h110zM419 788q-57 -28 -101.5 -74.5t-65.5 -97.5h-18q-20 51 -65 97.5
t-102 74.5l9 14q53 -19 104.5 -46t83.5 -54q24 27 64.5 54t83.5 46z" />
    <glyph glyph-name="florin" unicode="&#x192;" horiz-adv-x="459" 
d="M156 515q0 60 5 99.5t16 67.5q24 63 81 87q30 13 68 13q35 0 62 -11.5t41 -32.5q15 -21 15 -45q0 -22 -14 -36.5t-37 -14.5q-25 0 -39.5 13.5t-14.5 36.5q0 17 11 30.5t32 20.5q-3 9 -18.5 16.5t-34.5 7.5q-22 0 -39 -10t-26 -27q-8 -14 -11.5 -37.5t-5.5 -63.5l-1 -114
v-1h167v-20h-167v-379q0 -87 -12 -146t-41 -96q-23 -29 -55.5 -45t-65.5 -16q-32 0 -49.5 14.5t-17.5 38.5q0 21 12.5 34t34.5 13q20 0 32.5 -12.5t12.5 -32.5q0 -24 -16 -40q38 5 54 24q21 24 21 84v559h-120v20h120v1z" />
    <glyph glyph-name="uni01F4" unicode="&#x1f4;" horiz-adv-x="703" 
d="M598 0q-2 22 -9.5 39.5t-18.5 17.5q-6 0 -12 -3t-20 -14q-36 -28 -73.5 -41t-83.5 -13q-102 0 -175.5 42.5t-112.5 122.5t-39 191q0 113 40.5 199.5t114.5 134.5q73 46 166 46q72 0 127 -30q20 -11 54 -35q11 -10 20 -10q19 0 25 61h23q-4 -57 -4 -230h-23
q-10 58 -20.5 91t-30.5 57q-29 36 -75.5 57t-96.5 21q-66 0 -116 -42.5t-77 -122.5q-28 -82 -28 -186q0 -120 25.5 -196.5t78.5 -113.5q52 -37 135 -37q60 0 104 31q17 12 22.5 23t5.5 32v96q0 42 -7.5 61t-28.5 26q-19 7 -65 9v20q49 -3 141 -3q71 0 104 3v-20
q-23 -2 -33 -8.5t-13 -22.5q-4 -15 -4 -55v-198h-20zM300 785q48 38 113 97q32 29 55 44q17 10 30 10q19 0 31 -17q5 -10 5 -19q0 -21 -26 -39q-25 -15 -56 -26q-85 -33 -146 -63z" />
    <glyph glyph-name="uni01F5" unicode="&#x1f5;" horiz-adv-x="518" 
d="M382 110q55 0 86.5 -23t31.5 -70q0 -50 -32.5 -96.5t-92.5 -77.5q-63 -31 -155 -31q-54 0 -100 11t-73 31q-28 21 -28 50q0 33 34.5 65t90.5 57h-3q-44 0 -72 17.5t-28 58.5q0 35 29 66t96 61q-45 17 -69 53t-24 89q0 78 49 118t135 40q39 0 71 -9q9 55 35 89
q27 33 69 33q24 0 38 -14t14 -38q0 -20 -13.5 -34t-33.5 -14q-25 0 -36.5 14.5t-17.5 48.5q-13 -12 -23 -39.5t-14 -50.5q46 -17 71 -53t25 -91q0 -52 -23.5 -87.5t-65.5 -53.5q-43 -17 -96 -17q-40 0 -73 9q-44 -23 -64 -41t-20 -38q0 -33 47 -33h235zM189 478.5
q-22 -32.5 -22 -107.5q0 -74 22.5 -107t67.5 -33q46 0 69 32.5t23 107.5t-23 107.5t-69 32.5t-68 -32.5zM168 26q-31 -16 -49 -44t-18 -57q0 -31 20.5 -53t55.5 -33q38 -10 70 -10q46 0 88 16.5t68 47.5q28 33 28 77q0 20 -7 32t-23 18t-47 6h-186zM190 608q29 47 73 130
q24 46 39 64t35 18q13 0 24 -9.5t11 -25.5q0 -15 -13.5 -33.5t-43.5 -43.5q-64 -56 -115 -109z" />
    <glyph glyph-name="Scommaaccent" unicode="&#x218;" horiz-adv-x="540" 
d="M89 233q8 -107 52 -167t130 -60q36 0 65.5 14.5t46.5 43.5q18 28 18 75q0 70 -69 125q-27 21 -86 58q-65 38 -99 66t-56 66q-24 38 -24 92q0 56 25 95t70 59q41 19 93 19q54 0 90 -17q26 -15 32 -20q25 -14 35 -14q9 0 14 11q5 12 8 33h23q-5 -49 -5 -204h-23
q-10 115 -76 165q-36 27 -88 27q-35 0 -63 -14.5t-44 -40.5q-15 -27 -15 -61q0 -49 28.5 -82.5t80.5 -64.5q51 -31 59 -36q69 -43 103 -71.5t55 -64.5q22 -41 22 -89q0 -60 -28 -103.5t-77 -65.5q-48 -21 -108 -21q-45 0 -76 9t-60 28q-25 14 -35 14q-8 0 -14 -10
q-5 -12 -8 -34h-22q3 56 3 240h23zM256 -223q27 8 44.5 25t17.5 38q-19 -16 -42 -16q-24 0 -38.5 14.5t-14.5 39.5q0 22 16.5 37.5t40.5 15.5q28 0 46.5 -20t18.5 -50q0 -38 -18 -61.5t-64 -40.5z" />
    <glyph glyph-name="scommaaccent" unicode="&#x219;" horiz-adv-x="446" 
d="M82 193q7 -65 21.5 -104t41.5 -61q28 -22 76 -22q23 0 43 10t32 30q14 23 14 55q0 49 -51 88q-20 16 -63 43q-54 34 -78 53.5t-41 46.5q-18 26 -18 68t19 71t54 44q34 14 75 14q32 0 60.5 -10.5t47.5 -26.5q13 -8 18 -8q17 0 22 44h23q-3 -49 -3 -170h-23
q-26 152 -137 152q-37 0 -59.5 -21t-22.5 -56q0 -31 20.5 -54t60.5 -48q33 -20 65 -41t57 -42q62 -52 62 -122q0 -43 -22.5 -75t-62.5 -49q-38 -16 -85 -16q-44 0 -80 14q-11 5 -41 27q-4 4 -9 4q-14 0 -20 -38h-23q4 76 4 200h23zM-13 -223q27 8 45 25t17 38
q-19 -16 -42 -16q-24 0 -38 14.5t-14 39.5q0 22 16.5 37.5t39.5 15.5q29 0 47 -20t18 -50q0 -38 -18 -61.5t-64 -40.5z" />
    <glyph glyph-name="uni021A" unicode="&#x21a;" horiz-adv-x="621" 
d="M33 498q3 32 3 82q0 54 -8 128q82 -3 283 -3q198 0 280 3q-7 -82 -7 -128q0 -50 3 -82h-23q-8 82 -20 117.5t-41 52.5q-31 17 -92 17h-55v-569q0 -41 8 -60.5t29 -26.5q19 -7 65 -9v-20q-54 3 -147 3q-101 0 -148 -3v20q45 2 65.5 9.5t27.5 26.5q8 19 8 60v569h-55
q-61 0 -91.5 -17t-41.5 -55q-12 -34 -20 -115h-23zM281 -223q27 8 44.5 25t17.5 38q-19 -16 -42 -16q-24 0 -38.5 14.5t-14.5 39.5q0 22 16.5 37.5t40.5 15.5q28 0 46.5 -20t18.5 -50q0 -38 -18 -61.5t-64 -40.5z" />
    <glyph glyph-name="uni021B" unicode="&#x21b;" horiz-adv-x="354" 
d="M338 514v-20h-148v-387q0 -45 15.5 -65t48.5 -20q31 0 53 25.5t37 81.5l20 -5q-24 -138 -130 -138q-33 0 -55.5 8t-39.5 25q-22 22 -30.5 53.5t-8.5 86.5v335h-96v20h96v153q54 1 90 14v-167h148zM-7 -223q27 8 45 25t17 38q-19 -16 -42 -16q-24 0 -38 14.5t-14 39.5
q0 22 16.5 37.5t39.5 15.5q29 0 47 -20t18 -50q0 -38 -18 -61.5t-64 -40.5z" />
    <glyph glyph-name="uni0237" unicode="&#x237;" horiz-adv-x="267" 
d="M188 115q0 -87 -12 -146t-41 -96q-23 -29 -55 -45t-66 -16q-36 0 -57 16t-21 45q0 23 14.5 37.5t37.5 14.5q25 0 38.5 -12.5t13.5 -36.5q0 -34 -38 -48l17 -1q35 0 56 23q23 29 23 85v471q0 47 -17 67.5t-59 20.5v21q31 -3 62 -3q62 0 104 14v-411z" />
    <glyph glyph-name="circumflex" unicode="&#x2c6;" horiz-adv-x="402" 
d="M209 802q21 -52 66 -98.5t101 -73.5l-7 -14q-55 19 -106 46t-82 54q-25 -27 -65.5 -54t-82.5 -46l-9 14q57 27 101.5 73.5t65.5 98.5h18z" />
    <glyph glyph-name="caron" unicode="&#x2c7;" horiz-adv-x="402" 
d="M376 788q-57 -28 -101.5 -74.5t-65.5 -97.5h-18q-20 51 -65 97.5t-102 74.5l9 14q53 -19 104.5 -46t83.5 -54q24 27 64.5 54t83.5 46z" />
    <glyph glyph-name="breve" unicode="&#x2d8;" horiz-adv-x="428" 
d="M393 779q-27 -65 -73.5 -105.5t-106.5 -40.5q-59 0 -105 41t-73 105l16 9q58 -96 162 -96q106 0 162 96z" />
    <glyph glyph-name="dotaccent" unicode="&#x2d9;" horiz-adv-x="198" 
d="M130.5 756.5q14.5 -8.5 23.5 -23.5t9 -32t-9 -32t-24 -23q-14 -9 -31 -9t-32 8.5t-24 23.5q-8 16 -8 32q0 17 8.5 32t23.5 23q15 9 32 9t31.5 -8.5z" />
    <glyph glyph-name="ring" unicode="&#x2da;" horiz-adv-x="263" 
d="M179 779.5q22 -11.5 35 -31.5q14 -22 14 -48q0 -27 -13.5 -48t-35.5 -33q-24 -11 -49 -11q-26 0 -47.5 11.5t-34.5 31.5q-13 22 -13 49t13 48t35 32q24 11 47 11q27 0 49 -11.5zM97.5 761.5q-15.5 -8.5 -24.5 -24.5q-10 -14 -10 -38q0 -44 35 -62q16 -8 32 -8q18 0 34 8
t26 24q10 17 10 38q0 42 -36 63q-18 8 -34 8q-17 0 -32.5 -8.5z" />
    <glyph glyph-name="ogonek" unicode="&#x2db;" horiz-adv-x="242" 
d="M193 3q-1 -1 -4 -2.5l-5 -2.5q-87 -37 -87 -94q0 -20 11.5 -32t31.5 -12q17 0 33.5 9t27.5 24l14 -13q-43 -68 -112 -68q-36 0 -58 18t-22 47q0 39 36 71.5t103 54.5h31z" />
    <glyph glyph-name="tilde" unicode="&#x2dc;" horiz-adv-x="411" 
d="M24 665q15 51 46.5 77t73.5 26q24 0 41.5 -8.5t50.5 -33.5q32 -24 58 -24q46 0 78 53l14 -7q-15 -51 -46 -77t-72 -26q-25 0 -43 8.5t-51 34.5q-31 24 -58 24q-44 0 -77 -54z" />
    <glyph glyph-name="hungarumlaut" unicode="&#x2dd;" horiz-adv-x="411" 
d="M24 608q30 47 74 130q23 46 38.5 64t35.5 18q13 0 24 -9.5t11 -25.5q0 -15 -13.5 -33t-43.5 -45q-28 -24 -56 -50t-58 -58zM203 608q29 47 73 130q24 46 39 64t35 18q14 0 24.5 -9.5t10.5 -25.5q0 -15 -13.5 -33.5t-43.5 -43.5q-74 -66 -115 -109z" />
    <glyph glyph-name="uni0326" unicode="&#x326;" horiz-adv-x="0" 
d="M-135 -223q27 8 45 25t17 38q-19 -16 -42 -16q-24 0 -38 14.5t-14 39.5q0 22 16.5 37.5t39.5 15.5q29 0 47 -20t18 -50q0 -38 -18 -61.5t-64 -40.5z" />
    <glyph glyph-name="uni0394" unicode="&#x394;" horiz-adv-x="504" 
d="M470 0q-111 3 -220 3q-110 0 -223 -3l234 722h15zM361 30l-139 512l-164 -512h303z" />
    <glyph glyph-name="uni03A9" unicode="&#x3a9;" horiz-adv-x="714" 
d="M291 23q-32 59 -97 151q-49 69 -74.5 114t-38.5 88.5t-13 95.5q0 78 34 134.5t98 85.5q65 30 156 30q92 0 156.5 -29.5t98.5 -86.5t34 -134q0 -52 -13 -96t-39 -88.5t-74 -113.5q-65 -92 -97 -151h49q50 0 79 16t44 52t21 99h23q-4 -28 -4 -72q0 -43 8 -118q-30 3 -102 3
l-67 -1q-56 -2 -76 -2v16q64 95 105.5 206.5t41.5 229.5q0 127 -45 189.5t-143 62.5q-97 0 -142.5 -63t-45.5 -189q0 -117 41.5 -228.5t105.5 -207.5v-16q-19 0 -75 2l-67 1q-72 0 -102 -3q8 67 8 118q0 45 -3 72h23q5 -64 20.5 -99.5t44.5 -51.5q28 -16 79 -16h48z" />
    <glyph glyph-name="uni03BC" unicode="&#x3bc;" horiz-adv-x="664" 
d="M631 220q-21 -124 -75 -194q-32 -40 -75 -40q-63 0 -63 90q0 22 3 44l1 9q-28 -66 -69 -104.5t-92 -38.5q-73 0 -79 92q-23 -141 -58 -227q-8 -18 -23.5 -28.5t-35.5 -10.5q-19 0 -30 10.5t-11 27.5q0 15 8 28t28 39l25 33q41 54 66.5 123t34.5 169l1 108q1 43 1 90
q1 33 4.5 49.5t17.5 27.5q15 12 36 12q38 0 38 -42q0 -22 -18 -58q-22 -43 -34 -76t-23 -87l-10 -98q3 -38 24 -56.5t54 -18.5q57 0 95 31t63 100l3 24q0 60 1 103l1 90q1 31 5 48t17 28q17 12 36 12q38 0 38 -42q0 -19 -19 -59q-23 -45 -36 -80.5t-23 -93.5q-9 -67 -9 -96
q0 -36 11.5 -50.5t38.5 -14.5q41 0 67.5 30.5t45.5 100.5z" />
    <glyph glyph-name="pi" unicode="&#x3c0;" horiz-adv-x="603" 
d="M361 168l-1 -17q0 -58 51 -58q41 0 67.5 30.5t45.5 100.5l19 -4q-18 -98 -55.5 -166t-93.5 -68q-63 0 -63 90q0 14 2 44l40 310h-109q-26 -266 -81 -405q-8 -18 -23 -28.5t-35 -10.5q-19 0 -30.5 10.5t-11.5 27.5q0 20 23 51l23 29q32 40 53 79.5t39 98.5q19 66 25 148
h-38q-46 0 -74 -11t-51 -39q-24 -32 -41 -87l-18 4q19 74 48.5 120.5t78.5 71.5t127 25h288v-84h-174z" />
    <glyph glyph-name="uni0401" unicode="&#x401;" horiz-adv-x="609" 
d="M557 200q-3 -27 -3 -72q0 -62 7 -128q-69 3 -229 3q-192 0 -290 -3v20q37 2 52.5 8t22.5 23q6 18 6 55v496q0 38 -6.5 55t-22.5 23q-14 6 -52 8v20q97 -3 290 -3q146 0 209 3q-7 -60 -7 -118q0 -39 3 -62h-23q-8 67 -19.5 98t-36.5 45q-26 14 -79 14h-83q-37 0 -53 -6
t-21 -22q-7 -15 -7 -55v-236h67q45 0 63.5 26t23.5 66l6 40h22q-3 -49 -3 -94l1 -48q0 -66 5 -142h-23l-5 48q-9 84 -90 84h-67v-240q0 -38 6.5 -54.5t22.5 -22.5q17 -6 52 -6h74q62 0 94.5 16.5t47.5 53.5q13 34 22 107h23zM228.5 880q13.5 -8 21.5 -21q8 -14 8 -29
q0 -16 -8 -29t-22 -21q-12 -8 -28 -8q-24 0 -41.5 17t-17.5 41q0 15 8.5 29t21.5 21q12 8 29 8q15 0 28.5 -8zM440 880q14 -8 22 -21q8 -14 8 -29q0 -16 -8 -29t-22 -21q-12 -8 -29 -8q-23 0 -40.5 17t-17.5 41q0 15 8 29t22 21q11 8 28 8q15 0 29 -8z" />
    <glyph glyph-name="uni0402" unicode="&#x402;" horiz-adv-x="781" 
d="M356 349q32 30 81 48.5t102 18.5q62 0 109 -23.5t73 -70.5q27 -46 27 -117t-28.5 -121t-78.5 -75q-51 -23 -105 -23q-34 0 -63.5 10t-47.5 28q-18 20 -18 48q0 24 13.5 39t37.5 15t39 -13.5t15 -35.5q0 -39 -43 -52q3 -9 18.5 -16.5t35.5 -7.5q65 0 96 48.5t31 146.5
q0 64 -12 103t-43 61q-33 24 -92 24q-44 0 -84.5 -15.5t-62.5 -40.5v-339q-50 14 -131 14q-30 0 -62 -3v20q45 2 65.5 9.5t27.5 26.5q8 19 8 60v569h-55q-61 0 -91.5 -17t-41.5 -55q-12 -34 -20 -115h-23q3 32 3 82q0 54 -8 128q82 -3 283 -3q198 0 280 3q-7 -82 -7 -128
q0 -50 3 -82h-23q-8 82 -20 117.5t-41 52.5q-31 17 -92 17h-55v-336z" />
    <glyph glyph-name="uni0403" unicode="&#x403;" horiz-adv-x="528" 
d="M42 708q97 -3 290 -3q118 0 168 3q-6 -70 -6 -128q0 -50 3 -82h-23q-9 82 -21 117.5t-41 52.5q-31 17 -93 17h-23q-37 0 -53 -6t-21 -22q-7 -15 -7 -55v-496q0 -38 8 -55t28 -23q18 -6 65 -8v-20q-51 3 -147 3q-86 0 -127 -3v20q37 2 52.5 8t22.5 23q6 18 6 55v496
q0 38 -6.5 55t-22.5 23q-14 6 -52 8v20zM191 785q48 38 113 97q32 29 55 44q17 10 30 10q19 0 31 -17q5 -10 5 -19q0 -21 -26 -39q-25 -15 -56 -26q-85 -33 -146 -63z" />
    <glyph glyph-name="uni0404" unicode="&#x404;" horiz-adv-x="691" 
d="M619 240q0 -180 4 -240h-23q-3 29 -8 45q-6 14 -17 14q-7 0 -20 -8q-32 -23 -57 -35.5t-56 -20.5q-31 -9 -72 -9q-96 0 -167 43t-111 125q-39 81 -39 194q0 110 40.5 195t112.5 132q70 47 165 47q56 0 98 -16t86 -49q11 -9 19 -9q20 0 26 60h23q-4 -57 -4 -230h-23
q-8 46 -14 70.5t-14 41.5q-7 17 -23 36q-29 38 -75.5 58t-100.5 20q-65 0 -114 -42.5t-76 -122.5q-27 -81 -27 -187v-5q18 39 51.5 60.5t76.5 21.5q31 0 56.5 -10t79.5 -42q53 -30 93 -30q32 0 55.5 15t34.5 45l16 -7q-15 -53 -54.5 -82t-93.5 -29q-31 0 -57.5 10t-78.5 42
q-51 30 -95 30q-57 0 -83 -50q4 -98 34 -169.5t80 -108.5q49 -37 111 -37q53 0 99.5 19.5t71.5 56.5q20 27 29 57.5t18 100.5h23z" />
    <glyph glyph-name="uni0405" unicode="&#x405;" horiz-adv-x="540" 
d="M89 233q8 -107 52 -167t130 -60q36 0 65.5 14.5t46.5 43.5q18 28 18 75q0 70 -69 125q-27 21 -86 58q-65 38 -99 66t-56 66q-24 38 -24 92q0 56 25 95t70 59q41 19 93 19q54 0 90 -17q26 -15 32 -20q25 -14 35 -14q9 0 14 11q5 12 8 33h23q-5 -49 -5 -204h-23
q-10 115 -76 165q-36 27 -88 27q-35 0 -63 -14.5t-44 -40.5q-15 -27 -15 -61q0 -49 28.5 -82.5t80.5 -64.5q51 -31 59 -36q69 -43 103 -71.5t55 -64.5q22 -41 22 -89q0 -60 -28 -103.5t-77 -65.5q-48 -21 -108 -21q-45 0 -76 9t-60 28q-25 14 -35 14q-8 0 -14 -10
q-5 -12 -8 -34h-22q3 56 3 240h23z" />
    <glyph glyph-name="uni0406" unicode="&#x406;" 
d="M296 688q-37 -2 -53 -8t-21 -23q-7 -15 -7 -55v-496q0 -38 6.5 -55t22.5 -23q14 -6 52 -8v-20q-45 3 -127 3q-86 0 -127 -3v20q37 2 52.5 8t22.5 23q6 18 6 55v496q0 38 -6.5 55t-22.5 23q-14 6 -52 8v20q40 -3 127 -3q82 0 127 3v-20z" />
    <glyph glyph-name="uni0407" unicode="&#x407;" 
d="M296 688q-37 -2 -53 -8t-21 -23q-7 -15 -7 -55v-496q0 -38 6.5 -55t22.5 -23q14 -6 52 -8v-20q-45 3 -127 3q-86 0 -127 -3v20q37 2 52.5 8t22.5 23q6 18 6 55v496q0 38 -6.5 55t-22.5 23q-14 6 -52 8v20q40 -3 127 -3q82 0 127 3v-20zM92.5 880q13.5 -8 21.5 -21
q8 -14 8 -29q0 -16 -8 -29t-22 -21q-12 -8 -28 -8q-24 0 -41.5 17t-17.5 41q0 15 8.5 29t21.5 21q12 8 29 8q15 0 28.5 -8zM304 880q14 -8 22 -21q8 -14 8 -29q0 -16 -8 -29t-22 -21q-12 -8 -29 -8q-23 0 -40.5 17t-17.5 41q0 15 8 29t22 21q11 8 28 8q15 0 29 -8z" />
    <glyph glyph-name="uni0408" unicode="&#x408;" horiz-adv-x="326" 
d="M291 688q-37 -2 -53 -8t-22 -23q-6 -16 -6 -55v-366q0 -94 -3.5 -157t-13.5 -104q-11 -47 -39.5 -84t-71.5 -58q-45 -21 -100 -21q-53 0 -92.5 22.5t-39.5 64.5q0 23 15 38t38 15q24 0 39.5 -15t15.5 -39q0 -41 -42 -51q8 -8 26 -12t38 -4q43 0 74.5 22.5t45.5 62.5
q9 27 14 78q3 47 3 151v457q0 38 -6 55t-22 23q-14 6 -53 8v20q42 -3 128 -3q80 0 127 3v-20z" />
    <glyph glyph-name="uni0409" unicode="&#x409;" horiz-adv-x="928" 
d="M565 371q34 1 92 1q77 0 132 -23t82 -64q27 -42 27 -94q0 -113 -103 -162q-57 -28 -149 -29h-11q-10 0 -54 2l-63 1q-94 0 -147 -3v20q47 2 65 8q20 6 28 23t8 55v496q0 38 -6 55.5t-23 24.5q-16 6 -52 6h-13q-35 0 -51 -6.5t-21 -22.5q-6 -18 -9 -57q-3 -31 -15 -217
q-14 -187 -60 -293t-134 -106q-40 0 -65.5 17.5t-25.5 50.5q0 26 16.5 41.5t42.5 15.5q22 0 36.5 -12t14.5 -32q0 -21 -10 -34.5t-33 -26.5q6 -1 24 -1q67 0 106.5 79t54.5 207q15 134 25 311q0 6 -3 12q-3 5 -22 24q-37 34 -56 50v20q42 -3 103 -3l44 2q20 1 44 1
q40 0 70 -1q58 -2 73 -2q77 0 119 3v-20q-37 -2 -53 -8t-22 -23q-6 -16 -6 -55v-231zM565 106q0 -37 6 -54t22 -24t50 -8q114 3 142 84q13 37 13 86q0 58 -17 93t-55 52q-39 18 -103 18h-58v-247z" />
    <glyph glyph-name="uni040A" unicode="&#x40a;" horiz-adv-x="997" 
d="M633 371q44 1 93 1q77 0 131 -23t82 -64q27 -38 27 -94q0 -112 -102 -162q-58 -28 -150 -29h-10q-11 0 -55 2l-63 1q-79 0 -127 -3v20q38 2 53.5 8t22.5 23q6 18 6 55v240h-326v-240q0 -38 6.5 -55t22.5 -23q14 -6 52 -8v-20q-45 3 -127 3q-86 0 -127 -3v20q37 2 52.5 8
t22.5 23q6 18 6 55v496q0 38 -6.5 55t-22.5 23q-14 6 -52 8v20q40 -3 127 -3q82 0 127 3v-20q-37 -2 -53 -8t-21 -23q-7 -15 -7 -55v-236h326v236q0 38 -6.5 55t-22.5 23q-14 6 -53 8v20q48 -3 127 -3q88 0 128 3v-20q-37 -2 -53 -8t-21 -23q-7 -15 -7 -55v-231zM633 106
q0 -37 6 -54t22 -24t50 -8q114 3 143 83q13 39 13 87q0 57 -17.5 92.5t-55.5 52.5q-37 18 -103 18h-58v-247z" />
    <glyph glyph-name="uni040B" unicode="&#x40b;" horiz-adv-x="835" 
d="M754 93q0 -28 7.5 -43.5t24.5 -22.5q17 -6 45 -6v-21l-60 2l-63 2l-56 -2q-14 0 -56 -2v21q25 0 38.5 6.5t20.5 21.5t7 44v176q0 39 -9 62.5t-34 37.5q-27 15 -77 15q-59 0 -108.5 -22.5t-77.5 -59.5v-186q0 -41 8 -60.5t29 -26.5q19 -7 65 -9v-20q-54 3 -147 3
q-101 0 -148 -3v20q45 2 65.5 9.5t27.5 26.5q8 19 8 60v569h-55q-61 0 -91.5 -17t-41.5 -55q-12 -34 -20 -115h-23q3 32 3 82q0 54 -8 128q82 -3 283 -3q198 0 280 3q-7 -82 -7 -128q0 -50 3 -82h-23q-8 82 -20 117.5t-41 52.5q-31 17 -92 17h-55v-357q33 40 91 64t120 24
q81 0 132 -33q29 -19 42 -52t13 -84v-154z" />
    <glyph glyph-name="uni040C" unicode="&#x40c;" horiz-adv-x="678" 
d="M290 785q48 38 113 97q32 29 55 44q17 10 30 10q19 0 31 -17q5 -10 5 -19q0 -21 -26 -39q-25 -15 -56 -26q-85 -33 -146 -63zM660 50q-16 -23 -29.5 -36t-32.5 -20q-17 -8 -45 -8q-42 0 -68 24.5t-40 83.5l-28 124q-12 55 -24 80.5t-37 41.5q-24 17 -74 17h-67v-251
q0 -38 6.5 -55t22.5 -23q14 -6 52 -8v-20q-45 3 -127 3q-86 0 -127 -3v20q37 2 52.5 8t22.5 23q6 18 6 55v496q0 38 -6.5 55t-22.5 23q-14 6 -52 8v20q40 -3 127 -3q82 0 127 3v-20q-37 -2 -53 -8t-21 -23q-7 -15 -7 -55v-226q53 1 90.5 13.5t60.5 38.5q18 22 28.5 49
t26.5 93q14 60 37 98q33 54 96 54q34 0 51 -15.5t17 -42.5q0 -26 -16 -42.5t-42 -16.5q-27 0 -41.5 15t-14.5 40q0 13 1 17v8l-4 -2q-18 -9 -27 -22q-21 -25 -38 -91q-19 -76 -32 -108.5t-42 -58.5q-21 -18 -52 -28q83 -4 132 -37t66 -107l29 -126q9 -38 13 -50
q6 -17 14 -24.5t21 -7.5q17 0 28 8t28 30z" />
    <glyph glyph-name="uni040E" unicode="&#x40e;" horiz-adv-x="647" 
d="M466 708q57 -3 115 -3q45 0 75 3v-20q-20 -5 -39 -26t-41 -63l-219 -436l-40 -81q-22 -45 -44 -67q-15 -14 -35 -21.5t-40 -7.5q-31 0 -50.5 16t-19.5 44q0 24 15 38.5t38 14.5q22 0 36.5 -12.5t14.5 -34.5q0 -15 -7.5 -26.5t-19.5 -18.5q2 -1 6 -1q26 0 46.5 19t39.5 58
l27 56l-268 492q-18 32 -32 45q-14 11 -26 11v21q39 -3 88 -3q97 0 140 3v-21q-70 0 -70 -39q0 -17 10 -34l204 -380l157 315q27 54 27 86q0 27 -21.5 39.5t-66.5 13.5v20zM522 928q15 -15 15 -40q0 -21 -11.5 -37t-37.5 -31q-62 -38 -155 -38t-157 38q-25 15 -36 31t-11 37
q0 25 14.5 40t38.5 15t39 -15t15 -39q0 -20 -11 -33.5t-31 -17.5q20 -18 57.5 -27t81.5 -9q43 0 80 9t57 27q-19 4 -30.5 17.5t-11.5 33.5q0 24 16 39t40 15q23 0 38 -15z" />
    <glyph glyph-name="uni040F" unicode="&#x40f;" horiz-adv-x="757" 
d="M714 688q-37 -2 -53 -8t-21 -23q-7 -15 -7 -55v-496q0 -38 6.5 -55t22.5 -23q14 -6 52 -8v-20q-40 3 -128 3l-80 -1h1q-43 0 -65.5 -15.5t-32.5 -48.5q-11 -40 -15 -98h-23q-7 69 -16.5 100t-31.5 46q-22 16 -67 16h1l-88 1q-86 0 -127 -3v20q37 2 52.5 8t22.5 23
q6 18 6 55v496q0 38 -6.5 55t-22.5 23q-14 6 -52 8v20q40 -3 127 -3q82 0 127 3v-20q-37 -2 -53 -8t-21 -23q-7 -15 -7 -55v-496q0 -38 6.5 -55.5t23.5 -24.5q17 -6 51 -6h163q36 0 52.5 6.5t23.5 24.5q6 18 6 55v496q0 38 -6.5 55t-22.5 23q-14 6 -53 8v20q48 -3 127 -3
q88 0 128 3v-20z" />
    <glyph glyph-name="uni0410" unicode="&#x410;" horiz-adv-x="630" 
d="M567 84q24 -62 69 -64v-20q-40 3 -107 3q-86 0 -128 -3v20q39 2 55 9.5t16 27.5q0 17 -12 47l-62 164h-241l-41 -106q-20 -52 -20 -82q0 -31 21 -45t66 -15v-20q-57 3 -115 3q-45 0 -75 -3v20q50 11 79 87l235 606h16zM279 586l-114 -298h226z" />
    <glyph glyph-name="uni0411" unicode="&#x411;" horiz-adv-x="596" 
d="M548 211q0 -128 -106 -181q-58 -30 -156 -30q-28 0 -52 1q-50 2 -74 2q-77 0 -118 -3v20q37 2 52.5 8t22.5 23q6 18 6 55v496q0 38 -6.5 55t-22.5 23q-14 6 -52 8v20q97 -3 290 -3q125 0 179 3q-8 -67 -8 -118q0 -39 3 -62h-23q-7 67 -18 97.5t-36 45.5q-28 14 -79 14
h-54q-37 0 -53 -6t-21 -22q-7 -15 -7 -55v-183q45 1 68 1.5t25 0.5q77 0 131 -26.5t82 -74.5q27 -44 27 -109zM308 421zM449 210q0 67 -17.5 109t-55.5 62q-37 21 -103 21l-58 -1v-295q0 -35 5 -55q5 -17 19 -24t44 -7q63 0 100.5 23.5t51.5 66.5q14 44 14 100z" />
    <glyph glyph-name="uni0412" unicode="&#x412;" horiz-adv-x="623" 
d="M374 374q106 -14 155 -61t49 -119q0 -57 -29 -100.5t-84 -68.5q-53 -25 -128 -25q-36 0 -70 1q-68 2 -101 2q-83 0 -124 -3v20q37 2 52.5 8t22.5 23q6 18 6 55v496q0 38 -6.5 55t-22.5 23q-14 6 -52 8v20q40 -3 122 -3l86 1q31 1 64 1q68 0 115.5 -19.5t71.5 -55.5
q24 -34 24 -82q0 -60 -37.5 -105t-113.5 -69v-2zM283 376q78 0 112.5 42t34.5 121q0 76 -33.5 112.5t-106.5 36.5q-32 0 -47.5 -7t-21.5 -25t-6 -54v-226h68zM215 106q0 -36 6 -53t22 -24q15 -6 48 -6q187 0 187 175q0 80 -43.5 120.5t-135.5 40.5h-84v-253z" />
    <glyph glyph-name="uni0413" unicode="&#x413;" horiz-adv-x="528" 
d="M42 708q97 -3 290 -3q118 0 168 3q-6 -70 -6 -128q0 -50 3 -82h-23q-9 82 -21 117.5t-41 52.5q-31 17 -93 17h-23q-37 0 -53 -6t-21 -22q-7 -15 -7 -55v-496q0 -38 8 -55t28 -23q18 -6 65 -8v-20q-51 3 -147 3q-86 0 -127 -3v20q37 2 52.5 8t22.5 23q6 18 6 55v496
q0 38 -6.5 55t-22.5 23q-14 6 -52 8v20z" />
    <glyph glyph-name="uni0414" unicode="&#x414;" horiz-adv-x="629" 
d="M610 20q-7 -60 -7 -118q0 -40 3 -62h-23q-8 69 -19 100t-36 45q-27 15 -79 15h-285q-51 0 -77.5 -15t-38.5 -48q-10 -31 -18 -97h-23q3 22 3 62q0 43 -7 118h18q67 0 106.5 77.5t54.5 202.5q15 130 25 302q1 5 1 20q0 27 -7 40.5t-24 18.5q-15 5 -51 7v20q42 -3 103 -3
l44 2q20 1 44 1q39 0 69 -1q60 -2 74 -2q77 0 119 3v-20q-37 -2 -53 -8t-22 -23q-6 -16 -6 -55v-496q0 -38 6.5 -55.5t22.5 -24.5q18 -6 52 -6h31zM405 602q0 38 -6.5 55.5t-22.5 24.5q-16 6 -52 6h-13q-35 0 -50.5 -6.5t-21.5 -22.5q-7 -27 -9 -57l-14 -186
q-11 -161 -42 -261t-86 -135h236q36 0 52.5 6.5t22.5 24.5t6 55v496z" />
    <glyph glyph-name="uni0415" unicode="&#x415;" horiz-adv-x="609" 
d="M557 200q-3 -27 -3 -72q0 -62 7 -128q-69 3 -229 3q-192 0 -290 -3v20q37 2 52.5 8t22.5 23q6 18 6 55v496q0 38 -6.5 55t-22.5 23q-14 6 -52 8v20q97 -3 290 -3q146 0 209 3q-7 -60 -7 -118q0 -39 3 -62h-23q-8 67 -19.5 98t-36.5 45q-26 14 -79 14h-83q-37 0 -53 -6
t-21 -22q-7 -15 -7 -55v-236h67q45 0 63.5 26t23.5 66l6 40h22q-3 -49 -3 -94l1 -48q0 -66 5 -142h-23l-5 48q-9 84 -90 84h-67v-240q0 -38 6.5 -54.5t22.5 -22.5q17 -6 52 -6h74q62 0 94.5 16.5t47.5 53.5q13 34 22 107h23z" />
    <glyph glyph-name="uni0416" unicode="&#x416;" horiz-adv-x="975" 
d="M956 50q-24 -34 -47 -49t-60 -15q-42 0 -67.5 24.5t-39.5 83.5l-29 124q-12 57 -23 82t-33 40q-23 17 -70 17h-56v-251q0 -38 6.5 -55t22.5 -23q14 -6 52 -8v-20q-45 3 -127 3q-86 0 -128 -3v20q38 2 53.5 8t22.5 23q5 15 5 55v251h-56q-80 0 -103 -61q-10 -22 -23 -78
l-27 -124q-14 -59 -40 -83.5t-67 -24.5q-35 0 -58 15t-43 49l15 11q18 -23 28 -30.5t26 -7.5q26 0 36 32q1 4 14 50l30 126q15 71 58 104.5t114 39.5q-33 11 -54.5 31t-33.5 56q-15 46 -27 107q-15 72 -31 92q-10 15 -28 22q-1 1 -2 1.5l-1 0.5v-6q1 -3 1 -10
q0 -29 -16 -45.5t-43 -16.5q-26 0 -42 16t-16 41q0 27 18 42.5t55 15.5q57 0 83 -37.5t41 -109.5q16 -74 23 -99t22 -45q41 -53 147 -55v226q0 38 -6 55t-22 23q-14 6 -53 8v20q42 -3 128 -3q82 0 127 3v-20q-37 -2 -53 -8t-21 -23q-7 -15 -7 -55v-226q106 1 149 55
q14 18 21 45q6 17 15 59l7 33q16 77 42 115.5t84 38.5q35 0 53 -15.5t18 -42.5q0 -26 -16 -41.5t-42 -15.5t-41.5 16.5t-15.5 45.5v10l1 6l-1.5 -0.5t-3.5 -1.5q-14 -6 -28 -22q-16 -22 -29 -87q-16 -79 -27.5 -113.5t-35.5 -56.5q-22 -19 -53 -29q75 -6 119.5 -39
t60.5 -105l28 -126q13 -46 14 -50q10 -32 36 -32q16 0 26 7.5t28 30.5z" />
    <glyph glyph-name="uni0417" unicode="&#x417;" horiz-adv-x="549" 
d="M91 715q4 -23 9 -34q4 -10 15 -10q8 0 20.5 7t21 12.5t12.5 8.5q38 23 99 23q59 0 103.5 -18t69.5 -52t25 -80q0 -50 -29 -91t-78 -68q-45 -25 -95 -38q62 -1 117 -22.5t89 -61.5q34 -41 34 -100q0 -63 -37 -109.5t-101 -71.5q-63 -24 -137 -24q-88 0 -147 36
q-47 29 -47 71q0 23 14.5 38t37.5 15q24 0 40 -15t16 -39q0 -21 -11.5 -34t-30.5 -17q14 -20 75 -33q32 -5 56 -5q57 0 96 22.5t59 63.5q18 41 18 92q0 53 -18.5 94.5t-53.5 65.5q-35 23 -85 25q-25 -13 -43 -13q-21 0 -21 17q0 7 5.5 11.5t15.5 4.5q13 0 44 -6
q44 15 70 38.5t37 59.5q11 35 11 83q0 72 -27 107t-85 35q-46 0 -81.5 -26.5t-54.5 -71.5q-19 -42 -22 -94h-23q0 140 -6 204h23z" />
    <glyph glyph-name="uni0418" unicode="&#x418;" horiz-adv-x="777" 
d="M734 688q-37 -2 -53 -8t-21 -23q-7 -15 -7 -55v-496q0 -38 6.5 -55t22.5 -23q14 -6 52 -8v-20q-40 3 -128 3q-79 0 -127 -3v20q38 2 53.5 8t22.5 23q6 18 6 55v473l-346 -488q2 -31 8.5 -45t23.5 -19q13 -5 49 -7v-20q-45 3 -127 3q-86 0 -127 -3v20q37 2 52.5 8t22.5 23
q6 18 6 55v496q0 38 -6.5 55t-22.5 23q-14 6 -52 8v20q40 -3 127 -3q82 0 127 3v-20q-37 -2 -53 -8t-21 -23q-7 -15 -7 -55v-474l345 490q-1 29 -8 43.5t-23 19.5q-14 5 -50 7v20q48 -3 127 -3q87 0 128 3v-20z" />
    <glyph glyph-name="uni0419" unicode="&#x419;" horiz-adv-x="777" 
d="M734 688q-37 -2 -53 -8t-21 -23q-7 -15 -7 -55v-496q0 -38 6.5 -55t22.5 -23q14 -6 52 -8v-20q-40 3 -128 3q-79 0 -127 -3v20q38 2 53.5 8t22.5 23q6 18 6 55v473l-346 -488q2 -31 8.5 -45t23.5 -19q13 -5 49 -7v-20q-45 3 -127 3q-86 0 -127 -3v20q37 2 52.5 8t22.5 23
q6 18 6 55v496q0 38 -6.5 55t-22.5 23q-14 6 -52 8v20q40 -3 127 -3q82 0 127 3v-20q-37 -2 -53 -8t-21 -23q-7 -15 -7 -55v-474l345 490q-1 29 -8 43.5t-23 19.5q-14 5 -50 7v20q48 -3 127 -3q87 0 128 3v-20zM578 928q15 -15 15 -40q0 -21 -11.5 -37t-37.5 -31
q-62 -38 -155 -38t-157 38q-25 15 -36 31t-11 37q0 25 14.5 40t38.5 15t39 -15t15 -39q0 -20 -11 -33.5t-31 -17.5q20 -18 57.5 -27t81.5 -9q43 0 80 9t57 27q-19 4 -30.5 17.5t-11.5 33.5q0 24 16 39t40 15q23 0 38 -15z" />
    <glyph glyph-name="uni041A" unicode="&#x41a;" horiz-adv-x="678" 
d="M660 50q-16 -23 -29.5 -36t-32.5 -20q-17 -8 -45 -8q-42 0 -68 24.5t-40 83.5l-28 124q-12 55 -24 80.5t-37 41.5q-24 17 -74 17h-67v-251q0 -38 6.5 -55t22.5 -23q14 -6 52 -8v-20q-45 3 -127 3q-86 0 -127 -3v20q37 2 52.5 8t22.5 23q6 18 6 55v496q0 38 -6.5 55
t-22.5 23q-14 6 -52 8v20q40 -3 127 -3q82 0 127 3v-20q-37 -2 -53 -8t-21 -23q-7 -15 -7 -55v-226q53 1 90.5 13.5t60.5 38.5q18 22 28.5 49t26.5 93q14 60 37 98q33 54 96 54q34 0 51 -15.5t17 -42.5q0 -26 -16 -42.5t-42 -16.5q-27 0 -41.5 15t-14.5 40q0 13 1 17v8
l-4 -2q-18 -9 -27 -22q-21 -25 -38 -91q-19 -76 -32 -108.5t-42 -58.5q-21 -18 -52 -28q83 -4 132 -37t66 -107l29 -126q9 -38 13 -50q6 -17 14 -24.5t21 -7.5q17 0 28 8t28 30z" />
    <glyph glyph-name="uni041B" unicode="&#x41b;" horiz-adv-x="688" 
d="M646 688q-37 -2 -53 -8t-22 -23q-6 -16 -6 -55v-496q0 -38 6.5 -55t22.5 -23q13 -6 52 -8v-20q-42 3 -128 3q-94 0 -147 -3v20q47 2 65 8q20 6 28 23t8 55v496q0 38 -6 55.5t-23 24.5q-16 6 -52 6h-13q-35 0 -51 -6.5t-21 -22.5q-6 -18 -9 -57q-3 -31 -15 -217
q-14 -187 -60 -293t-134 -106q-40 0 -65.5 17.5t-25.5 50.5q0 26 16.5 41.5t42.5 15.5q22 0 36.5 -12t14.5 -32q0 -21 -10 -34.5t-33 -26.5q6 -1 24 -1q67 0 106.5 79t54.5 207q15 134 25 311l1 23q0 25 -7 38t-24 18q-16 5 -51 7v20q42 -3 103 -3l44 2q20 1 44 1
q40 0 70 -1q58 -2 73 -2q77 0 119 3v-20z" />
    <glyph glyph-name="uni041C" unicode="&#x41c;" horiz-adv-x="871" 
d="M829 688q-38 -2 -53.5 -8t-21.5 -23q-6 -16 -6 -55v-496q0 -38 6 -55t22 -23q14 -6 53 -8v-20q-48 3 -127 3q-86 0 -128 -3v20q37 2 52.5 8t21.5 23q6 18 6 55v535l-240 -646h-17l-251 649v-528q0 -39 7 -58t25 -28q17 -8 58 -10v-20q-36 3 -102 3q-60 0 -92 -3v20
q35 2 51.5 10.5t22.5 27.5q7 18 7 58v486q0 38 -6.5 55t-22.5 23q-14 6 -52 8v20q32 -3 92 -3q53 0 86 3l219 -580l215 577h48q79 0 127 3v-20z" />
    <glyph glyph-name="uni041D" unicode="&#x41d;" horiz-adv-x="757" 
d="M714 688q-37 -2 -53 -8t-21 -23q-7 -15 -7 -55v-496q0 -38 6.5 -55t22.5 -23q14 -6 52 -8v-20q-40 3 -128 3q-79 0 -127 -3v20q38 2 53.5 8t22.5 23q6 18 6 55v240h-326v-240q0 -38 6.5 -55t22.5 -23q14 -6 52 -8v-20q-45 3 -127 3q-86 0 -127 -3v20q37 2 52.5 8t22.5 23
q6 18 6 55v496q0 38 -6.5 55t-22.5 23q-14 6 -52 8v20q40 -3 127 -3q82 0 127 3v-20q-37 -2 -53 -8t-21 -23q-7 -15 -7 -55v-236h326v236q0 38 -6.5 55t-22.5 23q-14 6 -53 8v20q48 -3 127 -3q88 0 128 3v-20z" />
    <glyph glyph-name="uni041E" unicode="&#x41e;" horiz-adv-x="741" 
d="M538 679q71 -43 110 -124q40 -85 40 -195q0 -109 -40.5 -194.5t-113.5 -132.5q-70 -47 -164 -47q-96 0 -167 43t-111 125q-39 81 -39 194q0 110 40.5 195t112.5 132q70 47 165 47q96 0 167 -43zM254 660q-49 -44 -75 -125q-27 -79 -27 -183q0 -103 29 -182.5t81 -122.5
q49 -43 112 -43t112 44.5t75 124.5q26 78 26 183q0 103 -29 182t-79 123q-50 43 -112 43q-64 0 -113 -44z" />
    <glyph glyph-name="uni041F" unicode="&#x41f;" horiz-adv-x="757" 
d="M714 688q-37 -2 -53 -8t-21 -23q-7 -15 -7 -55v-496q0 -38 6.5 -55t22.5 -23q14 -6 52 -8v-20q-40 3 -128 3q-79 0 -127 -3v20q38 2 53.5 8t22.5 23q6 18 6 55v496q0 38 -6.5 55.5t-22.5 24.5q-18 6 -53 6h-163q-35 0 -52 -6.5t-22 -23.5q-7 -17 -7 -56v-496
q0 -38 6.5 -55t22.5 -23q14 -6 52 -8v-20q-45 3 -127 3q-86 0 -127 -3v20q37 2 52.5 8t22.5 23q6 18 6 55v496q0 38 -6.5 55t-22.5 23q-14 6 -52 8v20q40 -3 127 -3l90 1q9 1 27 1l93 1l92 -1q20 0 29 -1l86 -1q88 0 128 3v-20z" />
    <glyph glyph-name="uni0420" unicode="&#x420;" horiz-adv-x="585" 
d="M215 106q0 -38 8 -55t28 -23q18 -6 65 -8v-20q-51 3 -147 3q-86 0 -127 -3v20q37 2 52.5 8t22.5 23q6 18 6 55v496q0 38 -6.5 55t-22.5 23q-14 6 -52 8v20q40 -3 122 -3l86 1q31 1 64 1q78 0 133 -24.5t82 -69.5t27 -103q0 -59 -26 -108.5t-82 -81.5q-58 -34 -156 -34
h-77v-180zM283 306q93 0 133 49.5t40 143.5q0 65 -17 106.5t-53 61.5q-36 21 -96 21q-32 0 -47.5 -7t-21.5 -25t-6 -54v-296h68z" />
    <glyph glyph-name="uni0421" unicode="&#x421;" horiz-adv-x="688" 
d="M600 0q-3 29 -8 45q-6 14 -17 14q-7 0 -20 -8q-32 -23 -57 -35.5t-56 -20.5q-31 -9 -72 -9q-96 0 -167 43t-111 125q-39 81 -39 194q0 110 40.5 195t112.5 132q70 47 165 47q56 0 98 -16t86 -49q11 -9 19 -9q20 0 26 60h23q-4 -57 -4 -230h-23q-8 46 -14 70.5t-14 41.5
q-7 17 -23 36q-29 38 -75.5 58t-100.5 20q-65 0 -114 -42.5t-76 -122.5q-27 -81 -27 -187q0 -107 29 -185.5t81 -120.5q52 -40 116 -40q53 0 99.5 19.5t71.5 56.5q20 27 29 57.5t18 100.5h23q0 -180 4 -240h-23z" />
    <glyph glyph-name="uni0422" unicode="&#x422;" horiz-adv-x="621" 
d="M33 498q3 32 3 82q0 54 -8 128q82 -3 283 -3q198 0 280 3q-7 -82 -7 -128q0 -50 3 -82h-23q-8 82 -20 117.5t-41 52.5q-31 17 -92 17h-55v-569q0 -41 8 -60.5t29 -26.5q19 -7 65 -9v-20q-54 3 -147 3q-101 0 -148 -3v20q45 2 65.5 9.5t27.5 26.5q8 19 8 60v569h-55
q-61 0 -91.5 -17t-41.5 -55q-12 -34 -20 -115h-23z" />
    <glyph glyph-name="uni0423" unicode="&#x423;" horiz-adv-x="647" 
d="M466 708q57 -3 115 -3q45 0 75 3v-20q-20 -5 -39 -26t-41 -63l-219 -436l-40 -81q-22 -45 -44 -67q-15 -14 -35 -21.5t-40 -7.5q-31 0 -50.5 16t-19.5 44q0 24 15 38.5t38 14.5q22 0 36.5 -12.5t14.5 -34.5q0 -15 -7.5 -26.5t-19.5 -18.5q2 -1 6 -1q26 0 46.5 19t39.5 58
l27 56l-268 492q-18 32 -32 45q-14 11 -26 11v21q39 -3 88 -3q97 0 140 3v-21q-70 0 -70 -39q0 -17 10 -34l204 -380l157 315q27 54 27 86q0 27 -21.5 39.5t-66.5 13.5v20z" />
    <glyph glyph-name="uni0424" unicode="&#x424;" horiz-adv-x="849" 
d="M472 641q107 -7 185 -41.5t121 -95.5t43 -144q0 -80 -43.5 -143.5t-122.5 -102.5q-78 -38 -183 -46v-36q0 -38 6 -55t22 -23q18 -7 53 -8v-20q-45 3 -128 3q-87 0 -128 -3v20q37 2 53 8.5t23 23.5q5 18 5 54v35q-107 7 -186 43t-122 99q-44 64 -44 149q0 78 44 139.5
t125 99.5q77 36 183 44v35q0 39 -6 55.5t-22 22.5q-18 7 -53 8v20q41 -3 128 -3q83 0 128 3v-20q-37 -2 -53 -8.5t-22 -23.5q-6 -16 -6 -54v-35zM378 622q-75 -7 -132 -42t-88 -92q-32 -58 -32 -126q0 -74 32 -133.5t90 -96.5q57 -36 130 -45v535zM472 86q75 9 131.5 45
t87.5 95t31 130t-31.5 128t-89.5 93q-55 33 -129 44v-535z" />
    <glyph glyph-name="uni0425" unicode="&#x425;" horiz-adv-x="634" 
d="M560 71q13 -21 22 -31t19 -14q12 -5 25 -5v-21q-40 2 -50 2l-35 2l-68 -2q-16 0 -74 -2v21q40 0 56 3q16 5 16 13q0 7 -8 18l-171 262l-107 -161q-39 -57 -39 -88q0 -25 22 -36t67 -12v-20q-55 3 -134 3q-55 0 -85 -3v20q29 4 56 26.5t56 65.5l151 225l-196 300
q-13 21 -22 31t-19 14q-12 5 -25 5v21q38 -2 49 -2l37 -2q41 0 141 4v-21q-67 0 -67 -22q0 -8 9 -22l155 -238l98 147q44 65 44 96q0 21 -19 30t-59 10v20q57 -3 116 -3q54 0 84 3v-20q-30 -4 -57 -26.5t-55 -65.5l-140 -209z" />
    <glyph glyph-name="uni0426" unicode="&#x426;" horiz-adv-x="765" 
d="M714 688q-37 -2 -53 -8t-21 -23q-7 -15 -7 -55v-496q0 -38 6.5 -55.5t23.5 -24.5q17 -6 51 -6h32q-8 -75 -8 -118q0 -39 4 -62h-23q-8 68 -19.5 99.5t-36.5 45.5q-25 15 -79 15h-205l-93 1q-18 0 -27 1l-90 1q-86 0 -127 -3v20q37 2 52.5 8t22.5 23q6 18 6 55v496
q0 38 -6.5 55t-22.5 23q-14 6 -52 8v20q40 -3 127 -3q82 0 127 3v-20q-37 -2 -53 -8t-21 -23q-7 -15 -7 -55v-496q0 -38 6.5 -55.5t23.5 -24.5q17 -6 51 -6h163q36 0 52.5 6.5t23.5 24.5q6 18 6 55v496q0 38 -6.5 55t-22.5 23q-14 6 -53 8v20q48 -3 127 -3q88 0 128 3v-20z
" />
    <glyph glyph-name="uni0427" unicode="&#x427;" horiz-adv-x="673" 
d="M630 688q-37 -2 -53 -8t-21 -23q-7 -15 -7 -55v-496q0 -38 6.5 -55t22.5 -23q14 -6 52 -8v-20q-40 3 -128 3q-93 0 -147 -3v20q48 2 65 8q21 6 29 23t8 55v204q-32 -19 -86.5 -33.5t-101.5 -14.5q-82 0 -128 35q-28 21 -38.5 50.5t-10.5 83.5v184q0 28 -7.5 43.5
t-23.5 22.5q-17 6 -44 6v21l60 -2l63 -2l54 2q13 0 57 2v-21q-25 0 -38.5 -6.5t-20.5 -21.5q-6 -16 -6 -44v-206q0 -40 8.5 -63t32.5 -37q25 -15 73 -15q98 0 157 33v275q0 38 -6.5 55t-22.5 23q-14 6 -53 8v20q42 -3 128 -3q82 0 127 3v-20z" />
    <glyph glyph-name="uni0428" unicode="&#x428;" horiz-adv-x="957" 
d="M915 688q-38 -2 -53.5 -8t-21.5 -23q-7 -15 -7 -55v-496q0 -38 6.5 -55t22.5 -23q14 -6 53 -8v-20q-42 3 -128 3l-79 -2q-35 -1 -75 -1q-52 0 -86 1l-68 2l-68 -2q-36 -1 -90 -1q-40 0 -74 1l-78 2q-86 0 -127 -3v20q37 2 52.5 8t22.5 23q6 18 6 55v496q0 38 -6.5 55
t-22.5 23q-14 6 -52 8v20q40 -3 127 -3q73 0 118 3v-20q-33 -2 -47 -8t-19 -23q-6 -16 -6 -55v-496q0 -38 6.5 -55.5t23.5 -24.5q17 -6 51 -6h55q35 0 51.5 6.5t23.5 24.5q6 18 6 55v496q0 37 -5 55q-5 17 -19.5 23t-47.5 8v20q45 -3 118 -3q78 0 118 3v-20q-33 -2 -47 -8
t-19 -23q-6 -16 -6 -55v-496q0 -38 6.5 -55.5t23.5 -24.5q17 -6 51 -6h55q36 0 52.5 6.5t22.5 24.5t6 55v496q0 37 -5 55q-5 17 -19.5 23t-47.5 8v20q45 -3 118 -3q86 0 128 3v-20z" />
    <glyph glyph-name="uni0429" unicode="&#x429;" horiz-adv-x="965" 
d="M915 688q-38 -2 -53.5 -8t-21.5 -23q-7 -15 -7 -55v-496q0 -38 6.5 -55.5t23.5 -24.5q17 -6 52 -6h30q-7 -75 -7 -118q0 -40 3 -62h-23q-7 68 -18.5 99t-36.5 46t-78 15h-152q-52 0 -86 1l-68 2l-68 -2q-36 -1 -90 -1q-40 0 -74 1l-78 2q-86 0 -127 -3v20q37 2 52.5 8
t22.5 23q6 18 6 55v496q0 38 -6.5 55t-22.5 23q-14 6 -52 8v20q40 -3 127 -3q73 0 118 3v-20q-33 -2 -47 -8t-19 -23q-6 -16 -6 -55v-496q0 -38 6.5 -55.5t23.5 -24.5q17 -6 51 -6h55q35 0 51.5 6.5t23.5 24.5q6 18 6 55v496q0 37 -5 55q-5 17 -19.5 23t-47.5 8v20
q45 -3 118 -3q78 0 118 3v-20q-33 -2 -47 -8t-19 -23q-6 -16 -6 -55v-496q0 -38 6.5 -55.5t23.5 -24.5q17 -6 51 -6h55q36 0 52.5 6.5t22.5 24.5t6 55v496q0 37 -5 55q-5 17 -19.5 23t-47.5 8v20q45 -3 118 -3q86 0 128 3v-20z" />
    <glyph glyph-name="uni042A" unicode="&#x42a;" horiz-adv-x="730" 
d="M699 221q0 -59 -26 -107.5t-82 -80.5q-58 -33 -155 -33q-27 0 -53 1q-52 2 -64 2q-84 0 -128 -3v20q38 2 53.5 8t22.5 23q5 15 5 55v579h-64q-61 0 -91.5 -17t-41.5 -55q-12 -34 -20 -115h-23q3 32 3 82q0 54 -8 128q85 -3 292 -3q96 0 147 3v-20q-47 -2 -64 -8
q-20 -6 -28 -23t-8 -55v-183l92 2q77 0 131.5 -25t82.5 -71q27 -45 27 -104zM458 421zM561.5 68.5q37.5 48.5 37.5 141.5q0 98 -39.5 145t-126.5 47l-67 -1v-295q0 -41 5 -56q4 -17 18.5 -23.5t46.5 -6.5q88 0 125.5 48.5z" />
    </font>
</defs>
</svg>
