<?xml version="1.0" standalone="no"?>
<!DOCTYPE svg PUBLIC "-//W3C//DTD SVG 1.1//EN" "http://www.w3.org/Graphics/SVG/1.1/DTD/svg11.dtd" >
<svg xmlns="http://www.w3.org/2000/svg" xmlns:xlink="http://www.w3.org/1999/xlink" version="1.1">
<metadata>
Created by FontForge 20161013 at Sun Jun  4 15:26:31 2017
 By ,,,
Copyright (c) 2017 by Mihkeil Khiphiani, Zaza Chugoshvili, Akaki Razmadze. All rights reserved.
</metadata>
<defs>
<font id="GLVenuri-Heavy" horiz-adv-x="600" >
  <font-face 
    font-family="GL Venuri Heavy"
    font-weight="900"
    font-stretch="normal"
    units-per-em="1000"
    panose-1="0 0 10 0 0 0 0 0 0 0"
    ascent="800"
    descent="-200"
    cap-height="690"
    bbox="-550 -385 1062 794"
    underline-thickness="50"
    underline-position="-150"
    unicode-range="U+000D-F000"
  />
<missing-glyph horiz-adv-x="535" 
d="M439 -360h-339v1070h339v-1070zM180 638v-35h69v-40h-70v-35h177v35h-70v40h70v35h-176zM179 500v-111h177v36h-70v75h-107zM249 425h-35v39h35v-39zM179 360v-35h70v-40h-70v-35h107v75h70v35h-177zM321 296v-71h-142v-36h177v107h-35zM249 165v-60h37v25h35v-50h-107
v85h-35v-121h177v121h-107zM179 -20v-121h177v121h-177zM321 -105h-107v50h107v-50zM179 -165v-36h75l-75 -50v-35h177v35h-109l75 50h34v36h-177z" />
    <glyph glyph-name=".notdef" horiz-adv-x="535" 
d="M439 -360h-339v1070h339v-1070zM180 638v-35h69v-40h-70v-35h177v35h-70v40h70v35h-176zM179 500v-111h177v36h-70v75h-107zM249 425h-35v39h35v-39zM179 360v-35h70v-40h-70v-35h107v75h70v35h-177zM321 296v-71h-142v-36h177v107h-35zM249 165v-60h37v25h35v-50h-107
v85h-35v-121h177v121h-107zM179 -20v-121h177v121h-177zM321 -105h-107v50h107v-50zM179 -165v-36h75l-75 -50v-35h177v35h-109l75 50h34v36h-177z" />
    <glyph glyph-name=".null" 
 />
    <glyph glyph-name="nonmarkingreturn" unicode="&#xd;" 
 />
    <glyph glyph-name="space" unicode=" " horiz-adv-x="200" 
 />
    <glyph glyph-name="exclam" unicode="!" horiz-adv-x="282" 
d="M223 690l-16 -489h-133l-16 489h165zM87 12q-27 27 -27 64t27 64t64 27t64 -27t27 -64t-27 -64t-64 -27t-64 27z" />
    <glyph glyph-name="quotedbl" unicode="&#x22;" horiz-adv-x="508" 
d="M50 466h165v236h-165v-236zM293 466h165v236h-165v-236z" />
    <glyph glyph-name="numbersign" unicode="#" horiz-adv-x="685" 
d="M114 174h-64v133h85l13 84h-98v133h119l26 165h153l-26 -165h89l26 165h153l-26 -165h71v-133h-92l-13 -84h105v-133h-126l-27 -174h-153l27 174h-89l-27 -174h-153zM377 307l13 84h-89l-13 -84h89z" />
    <glyph glyph-name="dollar" unicode="$" horiz-adv-x="632" 
d="M403 776v-140h-156v140h156zM403 30v-140h-156v140h156z" />
    <glyph glyph-name="percent" unicode="%" horiz-adv-x="910" 
d="M76.5 347q-46.5 46 -46.5 118v76q0 72 46.5 118t118.5 46q47 0 84.5 -21t58.5 -58.5t21 -84.5v-76q0 -47 -21 -84.5t-58.5 -58.5t-84.5 -21q-72 0 -118.5 46zM563 690h136l-335 -690h-136zM231.5 421.5q11.5 14.5 11.5 47.5v68q0 33 -11.5 47.5t-36.5 14.5t-37 -15
t-12 -47v-68q0 -32 12 -47t37 -15t36.5 14.5zM597.5 31q-46.5 46 -46.5 118v76q0 72 46.5 118t118.5 46q47 0 84.5 -21t58.5 -58.5t21 -84.5v-76q0 -47 -21 -84.5t-58.5 -58.5t-84.5 -21q-72 0 -118.5 46zM752.5 105.5q11.5 14.5 11.5 47.5v68q0 33 -11.5 47.5t-36.5 14.5
t-37 -15t-12 -47v-68q0 -32 12 -47t37 -15t36.5 14.5z" />
    <glyph glyph-name="ampersand" unicode="&#x26;" 
 />
    <glyph glyph-name="quotesingle" unicode="'" horiz-adv-x="265" 
d="M50 466h165v236h-165v-236z" />
    <glyph glyph-name="parenleft" unicode="(" horiz-adv-x="368" 
d="M253 -118.5q38 -136.5 105 -241.5h-157q-73 99 -112 247t-39 278t39 278t112 247h157q-67 -105 -105 -241.5t-38 -283.5t38 -283.5z" />
    <glyph glyph-name="parenright" unicode=")" horiz-adv-x="368" 
d="M115 448.5q-38 136.5 -105 241.5h157q73 -99 112 -247t39 -278t-39 -278t-112 -247h-157q67 105 105 241.5t38 283.5t-38 283.5z" />
    <glyph glyph-name="asterisk" unicode="*" horiz-adv-x="513" 
d="M204 382l-101 -83l-73 128l121 45l-121 45l73 128l101 -83l-22 128h147l-22 -128l101 83l73 -128l-121 -45l121 -45l-73 -128l-101 83l22 -128h-147z" />
    <glyph glyph-name="plus" unicode="+" horiz-adv-x="507" 
d="M188 -19v138h-138v133h138v136h133v-136h136v-133h-136v-138h-133z" />
    <glyph glyph-name="comma" unicode="," horiz-adv-x="222" 
d="M89.5 -50.5q16.5 23.5 17.5 45.5q-35 0 -61 25t-26 63t26 62.5t61 24.5q40 0 67.5 -28.5t27.5 -75.5q0 -67 -24.5 -119t-86.5 -93l-41 53q23 19 39.5 42.5z" />
    <glyph glyph-name="hyphen" unicode="-" horiz-adv-x="440" 
d="M410 252v-132h-380v132h380z" />
    <glyph glyph-name="period" unicode="." horiz-adv-x="242" 
d="M57 12q-27 27 -27 64t27 64t64 27t64 -27t27 -64t-27 -64t-64 -27t-64 27z" />
    <glyph glyph-name="slash" unicode="/" horiz-adv-x="441" 
d="M285 690h156l-285 -1050h-156z" />
    <glyph glyph-name="zero" unicode="0" horiz-adv-x="566" 
d="M161 15q-53 30 -82 84t-29 126v240q0 72 29 126t82 84t122 30t122 -30t82 -84t29 -126v-240q0 -72 -29 -126t-82 -84t-122 -30t-122 30zM352 220v250q0 94 -69 94t-69 -94v-250q0 -94 69 -94t69 94z" />
    <glyph glyph-name="one" unicode="1" horiz-adv-x="393" 
d="M30 421v176l175 93h128v-690h-164v495z" />
    <glyph glyph-name="two" unicode="2" horiz-adv-x="545" 
d="M41 135l233 228q68 65 68 126q0 36 -19.5 55.5t-50.5 19.5q-30 0 -52 -20t-29 -53l-161 27q5 52 39 95t88 67.5t115 24.5q67 0 122.5 -25.5t88 -72.5t32.5 -107t-22.5 -112t-76.5 -105l-129 -125l1 -2h219v-156h-466v135z" />
    <glyph glyph-name="three" unicode="3" horiz-adv-x="553" 
d="M111.5 30.5q-65.5 45.5 -81.5 124.5l162 43q7 -33 29.5 -52.5t53.5 -19.5q35 0 55 23t20 61q0 39 -23.5 60.5t-58.5 21.5h-64v138h55q34 0 55.5 18.5t21.5 48.5t-19 48.5t-51 18.5q-31 0 -51.5 -15t-24.5 -37l-153 26q5 49 35.5 87t82.5 59t118 21q63 0 117 -21.5
t86.5 -63.5t32.5 -102q0 -54 -29.5 -94t-85.5 -55v-2q56 -16 92.5 -62.5t36.5 -109.5q0 -60 -33.5 -108t-91.5 -75t-128 -27q-93 0 -158.5 45.5z" />
    <glyph glyph-name="four" unicode="4" horiz-adv-x="606" 
d="M338 118h-288v130l200 442h182l-184 -426h90v146h164v-146h74v-146h-74v-118h-164v118z" />
    <glyph glyph-name="five" unicode="5" horiz-adv-x="573" 
d="M129 30.5q-63 45.5 -79 124.5l162 43q7 -34 27 -53t52 -19q35 0 56.5 21.5t21.5 58.5q0 41 -21 63.5t-57 22.5q-20 0 -38.5 -7.5t-31.5 -20.5l-158 21l54 405h391v-156h-250l-21 -141l2 -1q3 1 16 9.5t36.5 15t53.5 6.5q49 0 95 -27t74.5 -77t28.5 -115
q0 -68 -32.5 -117.5t-90 -75.5t-130.5 -26q-98 0 -161 45.5z" />
    <glyph glyph-name="six" unicode="6" horiz-adv-x="554" 
d="M153 14q-57 29 -90 80t-33 114q0 43 13.5 86t43.5 101l153 295h187l-153 -281l2 -2q27 16 57 16q48 0 92 -24.5t71.5 -71.5t27.5 -110q0 -68 -33 -121t-89 -82t-124 -29t-125 29zM331 148.5q20 22.5 20 60.5t-20 61t-54 23t-54 -23t-20 -61t20 -60.5t54 -22.5t54 22.5z
" />
    <glyph glyph-name="seven" unicode="7" horiz-adv-x="468" 
d="M248 534h-238v156h428v-110l-206 -580h-172z" />
    <glyph glyph-name="eight" unicode="8" horiz-adv-x="562" 
d="M154 11q-57 26 -90.5 75.5t-33.5 116.5q0 111 102 172v2q-37 27 -58.5 60t-21.5 78q0 53 30 96.5t82.5 68.5t116.5 25t116.5 -25t82.5 -68.5t30 -96.5q0 -45 -21.5 -78t-58.5 -60v-2q41 -20 71.5 -67.5t30.5 -104.5q0 -67 -33.5 -116.5t-90.5 -75.5t-127 -26t-127 26z
M323 452.5q16 17.5 16 47.5t-16 48t-42 18t-42 -18t-16 -48t16 -47.5t42 -17.5t42 17.5zM335 148.5q20 22.5 20 60.5t-20 61t-54 23t-54 -23t-20 -61t20 -60.5t54 -22.5t54 22.5z" />
    <glyph glyph-name="nine" unicode="9" horiz-adv-x="554" 
d="M401 676q57 -29 90 -80t33 -114q0 -43 -13.5 -86t-43.5 -101l-153 -295h-187l153 281l-2 2q-27 -16 -57 -16q-48 0 -92 24.5t-71.5 71.5t-27.5 110q0 68 33 121t89 82t124 29t125 -29zM223 541.5q-20 -22.5 -20 -60.5t20 -61t54 -23t54 23t20 61t-20 60.5t-54 22.5
t-54 -22.5z" />
    <glyph glyph-name="colon" unicode=":" horiz-adv-x="222" 
d="M57 12q-27 27 -27 64t27 64t64 27t64 -27t27 -64t-27 -64t-64 -27t-64 27zM57 230q-27 27 -27 64t27 64t64 27t64 -27t27 -64t-27 -64t-64 -27t-64 27z" />
    <glyph glyph-name="semicolon" unicode=";" horiz-adv-x="222" 
d="M87.5 -50.5q16.5 23.5 17.5 45.5q-35 0 -61 25t-26 63t26 62.5t61 24.5q40 0 67.5 -28.5t27.5 -75.5q0 -67 -24.5 -119t-86.5 -93l-41 53q23 19 39.5 42.5zM57 230q-27 27 -27 64t27 64t64 27t64 -27t27 -64t-27 -64t-64 -27t-64 27z" />
    <glyph glyph-name="less" unicode="&#x3c;" horiz-adv-x="504" 
d="M50 107v158l404 206v-155l-254 -130l254 -130v-155z" />
    <glyph glyph-name="equal" unicode="=" horiz-adv-x="500" 
d="M450 142v-132h-400v132h400zM450 362v-132h-400v132h400z" />
    <glyph glyph-name="greater" unicode="&#x3e;" horiz-adv-x="504" 
d="M50 56l254 130l-254 130v155l404 -206v-158l-404 -206v155z" />
    <glyph glyph-name="question" unicode="?" horiz-adv-x="585" 
d="M230.5 291q19.5 38 54.5 80l27 31q28 32 39 49.5t11 41.5q0 32 -20 51.5t-50 19.5t-52 -20t-29 -53l-161 27q5 52 38.5 94.5t88 67.5t118.5 25q65 0 120 -25.5t87.5 -72.5t32.5 -107q0 -38 -12.5 -67.5t-31 -51t-48.5 -50.5q-40 -39 -58 -65t-18 -63h-156q0 50 19.5 88z
M234 12q-27 27 -27 64t27 64t64 27t64 -27t27 -64t-27 -64t-64 -27t-64 27z" />
    <glyph glyph-name="I" unicode="I" horiz-adv-x="304" 
d="M70 690h164v-690h-164v690z" />
    <glyph glyph-name="bracketleft" unicode="[" horiz-adv-x="329" 
d="M319 690v-156h-113v-738h113v-156h-269v1050h269z" />
    <glyph glyph-name="backslash" unicode="\" horiz-adv-x="441" 
d="M285 -360l-285 1050h156l285 -1050h-156z" />
    <glyph glyph-name="bracketright" unicode="]" horiz-adv-x="329" 
d="M279 -360h-269v156h113v738h-113v156h269v-1050z" />
    <glyph glyph-name="asciicircum" unicode="^" 
d="M237 688h126l187 -227h-156l-94 101l-94 -101h-156z" />
    <glyph glyph-name="underscore" unicode="_" horiz-adv-x="766" 
d="M766 -27v-133h-766v133h766z" />
    <glyph glyph-name="grave" unicode="`" horiz-adv-x="332" 
d="M168 455l-118 167h165l86 -167h-133z" />
    <glyph glyph-name="braceleft" unicode="{" horiz-adv-x="395" 
d="M363 -360q-58 0 -116.5 23t-97 69t-38.5 110v183q0 43 -13.5 65t-47.5 32v86q34 10 47.5 32t13.5 65v183q0 64 38.5 110t97 69t116.5 23h22v-155q-40 -1 -63 -9t-34.5 -28.5t-11.5 -58.5v-155q0 -45 -14 -72.5t-51 -46.5q37 -19 51 -46.5t14 -72.5v-155q0 -38 11.5 -58.5
t34.5 -28.5t63 -9v-155h-22z" />
    <glyph glyph-name="bar" unicode="|" horiz-adv-x="256" 
d="M50 742h156v-816h-156v816z" />
    <glyph glyph-name="braceright" unicode="}" horiz-adv-x="395" 
d="M10 -205q40 1 63 9t34.5 28.5t11.5 58.5v155q0 45 14 72.5t51 46.5q-37 19 -51 46.5t-14 72.5v155q0 38 -11.5 58.5t-34.5 28.5t-63 9v155h22q58 0 116.5 -23t97 -69t38.5 -110v-183q0 -43 13.5 -65t47.5 -32v-86q-34 -10 -47.5 -32t-13.5 -65v-183q0 -64 -38.5 -110
t-97 -69t-116.5 -23h-22v155z" />
    <glyph glyph-name="asciitilde" unicode="~" horiz-adv-x="533" 
d="M50 182q42 49 78 71t78 22q26 0 42 -6.5t41 -21.5q28 -17 44 -17q19 0 36 16t26 29l88 -86q-42 -49 -78 -71t-78 -22q-26 0 -42 6.5t-41 21.5q-28 17 -44 17q-19 0 -36 -16t-26 -29z" />
    <glyph glyph-name="uni00A0" unicode="&#xa0;" 
 />
    <glyph glyph-name="exclamdown" unicode="&#xa1;" horiz-adv-x="242" 
d="M215 358q27 -27 27 -64t-27 -64t-64 -27t-64 27t-27 64t27 64t64 27t64 -27zM74 169h133l16 -489h-165z" />
    <glyph glyph-name="cent" unicode="&#xa2;" horiz-adv-x="601" 
d="M460 279l91 -85q-25 -33 -68 -64t-101 -43v-87h-101v85q-106 14 -168.5 89.5t-62.5 190.5t62.5 190.5t168.5 89.5v65h101v-67q58 -12 101 -43t68 -64l-91 -85q-38 44 -78 58v-288q40 14 78 58zM281 225v280q-71 -27 -71 -140t71 -140z" />
    <glyph glyph-name="sterling" unicode="&#xa3;" 
 />
    <glyph glyph-name="currency" unicode="&#xa4;" horiz-adv-x="721" 
d="M588 183l76 -77l-90 -89l-77 78q-63 -38 -137 -38q-77 0 -142 41l-78 -77l-88 90l78 77q-38 63 -38 137q0 75 40 141l-77 78l90 89l77 -78q63 38 138 38t141 -40l78 76l89 -89l-78 -77q38 -63 38 -138t-40 -142zM243 257q18 -31 49 -49t68 -18t68 18t49 49t18 68t-18 68
t-49 49t-68 18t-68 -18t-49 -49t-18 -68t18 -68z" />
    <glyph glyph-name="yen" unicode="&#xa5;" 
 />
    <glyph glyph-name="brokenbar" unicode="&#xa6;" horiz-adv-x="256" 
d="M50 742h156v-314h-156v314zM50 240h156v-314h-156v314z" />
    <glyph glyph-name="section" unicode="&#xa7;" horiz-adv-x="558" 
d="M117 -328.5q-59 46.5 -75 128.5l148 36q6 -38 29 -58t54 -20q35 0 52.5 18.5t17.5 45.5q0 30 -24.5 46.5t-79.5 36.5q-63 23 -105 47.5t-73 76t-31 136.5q0 54 21.5 98.5t58.5 72.5t84 33v3q-65 8 -104.5 48.5t-39.5 108.5q0 52 30 92t84 62t121 22q97 0 156 -46.5
t75 -128.5l-148 -36q-6 38 -29 58t-54 20q-35 0 -52.5 -18.5t-17.5 -45.5q0 -30 24.5 -46.5t79.5 -36.5q63 -23 105 -47.5t73 -76t31 -136.5q0 -54 -21.5 -98.5t-58.5 -72.5t-84 -33v-3q65 -8 104.5 -48.5t39.5 -108.5q0 -52 -30 -92t-84 -62t-121 -22q-97 0 -156 46.5z
M341.5 66.5q21.5 37.5 21.5 98.5t-21.5 98.5t-62.5 37.5t-62.5 -37.5t-21.5 -98.5t21.5 -98.5t62.5 -37.5t62.5 37.5z" />
    <glyph glyph-name="dieresis" unicode="&#xa8;" horiz-adv-x="474" 
d="M298 548q-27 27 -27 64t27 64t64 27t64 -27t27 -64t-27 -64t-64 -27t-64 27zM68 548q-27 27 -27 64t27 64t64 27t64 -27t27 -64t-27 -64t-64 -27t-64 27z" />
    <glyph glyph-name="copyright" unicode="&#xa9;" horiz-adv-x="934" 
d="M257.5 32q-95.5 47 -151.5 129.5t-56 183.5t56 183.5t151.5 129.5t209.5 47t209.5 -47t151.5 -129.5t56 -183.5t-56 -183.5t-151.5 -129.5t-209.5 -47t-209.5 47zM596 144.5q57 26.5 90 78t33 122.5t-33 122.5t-90 78t-129 26.5t-129 -26.5t-90 -78t-33 -122.5t33 -122.5
t90 -78t129 -26.5t129 26.5zM329 215.5q-52 46.5 -52 129.5t52 129.5t139 46.5q50 0 95.5 -24t71.5 -70l-111 -49q-20 26 -56 26q-27 0 -44.5 -14t-17.5 -45t17.5 -45t44.5 -14q36 0 56 26l111 -49q-26 -46 -71.5 -70t-95.5 -24q-87 0 -139 46.5z" />
    <glyph glyph-name="guillemotleft" unicode="&#xab;" horiz-adv-x="664" 
d="M50 184l214 215l90 -79l-139 -136l139 -136l-90 -76zM310 184l214 215l90 -79l-139 -136l139 -136l-90 -76z" />
    <glyph glyph-name="logicalnot" unicode="&#xac;" 
d="M50 120v133h487v-274h-133v141h-354z" />
    <glyph glyph-name="uni00AD" unicode="&#xad;" horiz-adv-x="618" 
d="M578 253v-133h-538v133h538z" />
    <glyph glyph-name="registered" unicode="&#xae;" horiz-adv-x="934" 
d="M257.5 32q-95.5 47 -151.5 129.5t-56 183.5t56 183.5t151.5 129.5t209.5 47t209.5 -47t151.5 -129.5t56 -183.5t-56 -183.5t-151.5 -129.5t-209.5 -47t-209.5 47zM596 144.5q57 26.5 90 78t33 122.5t-33 122.5t-90 78t-129 26.5t-129 -26.5t-90 -78t-33 -122.5t33 -122.5
t90 -78t129 -26.5t129 26.5zM326 522h164q53 0 91 -32t38 -83q0 -28 -16.5 -54.5t-42.5 -39.5l69 -130h-126l-59 112h-2v-112h-116v339zM479 383q11 0 19.5 6t8.5 18t-8.5 18t-19.5 6h-37v-48h37z" />
    <glyph glyph-name="macron" unicode="&#xaf;" horiz-adv-x="370" 
d="M340 702v-133h-310v133h310z" />
    <glyph glyph-name="degree" unicode="&#xb0;" horiz-adv-x="514" 
d="M148 311.5q-50 28.5 -79 76.5t-29 106t29 106t79 76.5t109 28.5t109 -28.5t79 -76.5t29 -106t-29 -106t-79 -76.5t-109 -28.5t-109 28.5zM311 432q21 24 21 62q0 36 -22 61t-54 25q-33 0 -53.5 -23.5t-20.5 -62.5q0 -38 21 -62t54 -24t54 24z" />
    <glyph glyph-name="plusminus" unicode="&#xb1;" horiz-adv-x="507" 
d="M188 81v138h-138v133h138v136h133v-136h136v-133h-136v-138h-133zM450 62v-132h-400v132h400z" />
    <glyph glyph-name="uni00B2" unicode="&#xb2;" horiz-adv-x="380" 
d="M40 360l141 122q43 38 43 73q0 18 -9.5 27.5t-23.5 9.5q-15 0 -27 -10.5t-15 -28.5l-119 20q2 34 25 62.5t59.5 44.5t76.5 16q67 0 113 -36.5t46 -95.5q0 -42 -13 -74.5t-52 -62.5l-62 -47l1 -2h123v-115h-307v97z" />
    <glyph glyph-name="uni00B3" unicode="&#xb3;" horiz-adv-x="380" 
d="M82.5 284q-42.5 28 -52.5 79l119 31q3 -16 14 -25.5t27 -9.5t25.5 11.5t9.5 28.5q0 16 -11.5 25.5t-25.5 9.5h-46v99h38q17 0 26 8.5t9 21.5q0 14 -8.5 22.5t-25.5 8.5q-16 0 -26 -7.5t-12 -17.5l-113 18q5 49 47.5 79t110.5 30q64 0 108.5 -29.5t44.5 -86.5
q0 -33 -16.5 -57.5t-50.5 -34.5v-1q33 -10 54.5 -37.5t21.5 -63.5q0 -37 -22 -67t-60 -46.5t-82 -16.5q-61 0 -103.5 28z" />
    <glyph glyph-name="acute" unicode="&#xb4;" horiz-adv-x="332" 
d="M117 622h165l-118 -167h-133z" />
    <glyph glyph-name="uni00B5" unicode="&#xb5;" horiz-adv-x="541" 
d="M30 370h156v-178q0 -38 13 -56t41 -18t41 17.5t13 56.5v178h156v-164q0 -33 8.5 -49t22 -20t36.5 -4h19v-133h-55q-43 0 -69.5 26.5t-36.5 64.5h-2q-6 -45 -30 -75.5t-66 -30.5q-35 0 -57.5 14t-31.5 40h-2v-304h-156v635z" />
    <glyph glyph-name="paragraph" unicode="&#xb6;" horiz-adv-x="621" 
d="M385 557v-917h-133v600q-63 0 -114 28.5t-79.5 80t-28.5 116.5q0 68 29.5 119t83 78.5t121.5 27.5h327v-1050h-133v917h-73z" />
    <glyph glyph-name="periodcentered" unicode="&#xb7;" horiz-adv-x="222" 
d="M57 171q-27 27 -27 64t27 64t64 27t64 -27t27 -64t-27 -64t-64 -27t-64 27z" />
    <glyph glyph-name="cedilla" unicode="&#xb8;" horiz-adv-x="332" 
d="M215 -145h-165l118 167h133z" />
    <glyph glyph-name="uni00B9" unicode="&#xb9;" horiz-adv-x="268" 
d="M30 498v132l116 60h92v-427h-122v281z" />
    <glyph glyph-name="guillemotright" unicode="&#xbb;" horiz-adv-x="664" 
d="M50 48l139 136l-139 136l90 79l214 -215l-214 -212zM310 48l139 136l-139 136l90 79l214 -215l-214 -212z" />
    <glyph glyph-name="onequarter" unicode="&#xbc;" horiz-adv-x="852" 
d="M30 498v132l116 60h92v-427h-122v281zM488 690h136l-335 -690h-136zM644 42h-193v83l121 287h131l-109 -259h50v75h120v-75h46v-111h-46v-57h-120v57z" />
    <glyph glyph-name="onehalf" unicode="&#xbd;" horiz-adv-x="849" 
d="M30 498v132l116 60h92v-427h-122v281zM488 690h136l-335 -690h-136zM492 82l141 122q43 38 43 73q0 18 -9.5 27.5t-23.5 9.5q-15 0 -27 -10.5t-15 -28.5l-119 20q2 34 25 62.5t59.5 44.5t76.5 16q67 0 113 -36.5t46 -95.5q0 -42 -13 -74.5t-52 -62.5l-62 -47l1 -2h123
v-115h-307v97z" />
    <glyph glyph-name="threequarters" unicode="&#xbe;" horiz-adv-x="928" 
d="M584 690h136l-335 -690h-136zM739 42h-193v83l121 287h131l-109 -259h50v75h120v-75h46v-111h-46v-57h-120v57zM82.5 293q-42.5 28 -52.5 79l119 31q3 -16 14 -25.5t27 -9.5t25.5 11.5t9.5 28.5q0 16 -11.5 25.5t-25.5 9.5h-46v99h38q17 0 26 8.5t9 21.5q0 14 -8.5 22.5
t-25.5 8.5q-16 0 -26 -7.5t-12 -17.5l-113 18q5 49 47.5 79t110.5 30q64 0 108.5 -29.5t44.5 -86.5q0 -33 -16.5 -57.5t-50.5 -34.5v-1q33 -10 54.5 -37.5t21.5 -63.5q0 -37 -22 -67t-60 -46.5t-82 -16.5q-61 0 -103.5 28z" />
    <glyph glyph-name="questiondown" unicode="&#xbf;" horiz-adv-x="585" 
d="M362 358q27 -27 27 -64t-27 -64t-64 -27t-64 27t-27 64t27 64t64 27t64 -27zM367 167q0 -37 18 -63t58 -65q30 -29 48.5 -50.5t31 -51t12.5 -67.5q0 -60 -32.5 -107t-87.5 -72.5t-120 -25.5q-64 0 -118.5 25t-88 67.5t-38.5 94.5l161 27q7 -33 29 -53t52 -20t50 19.5
t20 51.5q0 24 -11 41.5t-39 49.5l-27 31q-35 42 -54.5 80t-19.5 88h156z" />
    <glyph glyph-name="multiply" unicode="&#xd7;" horiz-adv-x="526" 
d="M50 66l120 120l-120 119l93 94l121 -120l118 120l94 -91l-120 -122l120 -118l-94 -94l-118 119l-121 -120z" />
    <glyph glyph-name="circumflex" unicode="&#x2c6;" 
d="M237 688h126l187 -227h-156l-94 101l-94 -101h-156z" />
    <glyph glyph-name="ring" unicode="&#x2da;" horiz-adv-x="510" 
d="M157 340.5q-45 26.5 -71 71.5t-26 98t26 98t71 71t98 26t98 -26t71 -71t26 -98t-26 -98t-71 -71.5t-98 -26.5t-98 26.5zM297.5 467q17.5 18 17.5 43t-17.5 42.5t-42.5 17.5t-42.5 -17.5t-17.5 -42.5t17.5 -43t42.5 -18t42.5 18z" />
    <glyph glyph-name="tilde" unicode="&#x2dc;" horiz-adv-x="533" 
d="M50 482q42 49 78 71t78 22q26 0 42 -6.5t41 -21.5q28 -17 44 -17q19 0 36 16t26 29l88 -86q-42 -49 -78 -71t-78 -22q-26 0 -42 6.5t-41 21.5q-28 17 -44 17q-19 0 -36 -16t-26 -29z" />
    <glyph glyph-name="acutecomb" unicode="&#x301;" horiz-adv-x="0" 
d="M-215 622h165l-118 -167h-133z" />
    <glyph glyph-name="uni0302" unicode="&#x302;" horiz-adv-x="0" 
d="M-363 688h126l187 -227h-156l-94 101l-94 -101h-156z" />
    <glyph glyph-name="uni0304" unicode="&#x304;" horiz-adv-x="0" 
d="M-30 605v-133h-310v133h310z" />
    <glyph glyph-name="uni0308" unicode="&#x308;" horiz-adv-x="0" 
d="M-186 468q-27 27 -27 64t27 64t64 27t64 -27t27 -64t-27 -64t-64 -27t-64 27zM-416 468q-27 27 -27 64t27 64t64 27t64 -27t27 -64t-27 -64t-64 -27t-64 27z" />
    <glyph glyph-name="uni10D0" unicode="&#x10d0;" horiz-adv-x="472" 
d="M125 6.5q-45 21.5 -72.5 59.5t-32.5 85l145 35q6 -34 23.5 -51t38.5 -17q23 0 36.5 14.5t13.5 31.5q0 26 -14.5 40.5t-34.5 26t-28 16.5q-34 21 -54 51t-20 86h156q4 -16 12.5 -25t31.5 -23q4 -2 9.5 -5.5t12.5 -8.5q29 -19 47.5 -35.5t32.5 -45t14 -68.5
q0 -52 -28.5 -95t-77.5 -68t-110 -25q-56 0 -101 21.5z" />
    <glyph glyph-name="uni10D1" unicode="&#x10d1;" horiz-adv-x="553" 
d="M172 14q-53 29 -82.5 79.5t-29.5 112.5q0 85 51.5 138.5t130.5 83.5v74q0 10 -3.5 16.5t-13.5 11.5l-36 16h-6l-2 -24q-2 -39 -5 -58h-146q7 51 12 117.5t5 128.5h98l166 -65q45 -18 66 -49.5t21 -78.5v-104q125 -82 125 -208q0 -63 -29.5 -113t-82 -78.5t-119.5 -28.5
t-120 29zM342 142.5q16 24.5 16 57.5q0 41 -21 69.5t-46 38.5q-24 -10 -45 -38t-21 -70q0 -33 15.5 -57.5t50.5 -24.5t51 24.5z" />
    <glyph glyph-name="uni10D2" unicode="&#x10d2;" horiz-adv-x="632" 
d="M198.5 -345q-58.5 31 -92 84.5t-33.5 119.5q0 98 64.5 154t151.5 92v98q0 22 -9.5 37.5t-29.5 15.5q-19 0 -29.5 -15.5t-10.5 -40.5q0 -24 14 -54l-124 -64q-23 25 -36.5 53.5t-13.5 66.5q0 51 25 93t71 66t106 24q88 0 140.5 -50t52.5 -130v-122q52 -34 94.5 -88
t42.5 -135q0 -67 -33.5 -121t-92 -84.5t-128.5 -30.5q-71 0 -129.5 31zM391.5 -214.5q25.5 28.5 25.5 72.5q0 41 -21.5 71t-54.5 56q-45 -21 -74 -49.5t-29 -77.5q0 -44 25 -72.5t64 -28.5t64.5 28.5z" />
    <glyph glyph-name="uni10D3" unicode="&#x10d3;" horiz-adv-x="771" 
d="M430.5 -272.5q-62.5 30.5 -130.5 30.5q-72 0 -151 -25v121q45 12 73 12h5v4q-177 81 -177 280q0 67 25.5 120t70.5 83.5t100 30.5q88 0 130 -56h3q21 26 57.5 41.5t79.5 15.5q56 0 103 -25t74.5 -70.5t27.5 -104.5t-28 -104.5t-76.5 -70.5t-107.5 -25q-58 0 -105 26
t-73.5 70t-26.5 94q0 36 12 60q-16 16 -40 16q-27 0 -44 -28t-17 -74q0 -93 51 -155t151 -98q58 -21 115.5 -57t97 -87.5t39.5 -111.5h-156q-20 57 -82.5 87.5zM547 134q13 19 13 51t-13 51t-36 19q-22 0 -35.5 -19.5t-13.5 -50.5t13.5 -50.5t35.5 -19.5q23 0 36 19z" />
    <glyph glyph-name="uni10D4" unicode="&#x10d4;" horiz-adv-x="541" 
d="M61.5 -92q21.5 43 57.5 73l111 -74q-25 -31 -25 -74q0 -32 16 -53.5t48 -21.5q31 0 48.5 20.5t17.5 58.5v354q0 31 -12 48t-32 17q-21 0 -31 -17t-10 -45q0 -45 24 -86l-119 -62q-65 63 -65 148q0 55 26 98.5t72.5 68t106.5 24.5q88 0 142 -51.5t54 -138.5v-364
q0 -59 -29 -106t-80.5 -73.5t-115.5 -26.5q-62 0 -114 25t-82 69t-30 99q0 47 21.5 90z" />
    <glyph glyph-name="uni10D5" unicode="&#x10d5;" horiz-adv-x="521" 
d="M50.5 -87q20.5 40 54.5 68l113 -74q-11 -13 -17 -33t-6 -38q0 -36 18.5 -57t50.5 -21t51.5 21t19.5 58v70q0 24 -16 41.5t-43 17.5h-26v133h19q28 0 40.5 22.5t12.5 56.5q0 35 -13.5 54.5t-39.5 19.5q-25 0 -39.5 -17.5t-14.5 -48.5q0 -24 14 -46l-120 -55
q-23 23 -35.5 54t-12.5 63q0 51 28.5 93t77.5 66t107 24q59 0 108 -25t77 -68t28 -96q0 -55 -24.5 -95.5t-53.5 -55.5v-3q32 -11 57 -41.5t25 -86.5v-83q0 -59 -30.5 -106t-82.5 -73.5t-115 -26.5t-116.5 26.5t-85 73t-31.5 103.5q0 45 20.5 85z" />
    <glyph glyph-name="uni10D6" unicode="&#x10d6;" horiz-adv-x="700" 
d="M352.5 10q-46.5 25 -73 70.5t-26.5 104.5v201h-3q-12 -14 -34 -22.5t-48 -8.5q-42 0 -75.5 22t-53 62.5t-19.5 94.5q0 90 53.5 140.5t141.5 50.5q91 0 142.5 -54t51.5 -146v-171h3q26 53 50 91.5t73 88.5l99 -78q-22 -20 -47.5 -47t-39.5 -45l1 -2h2q15 0 44 -19.5
t52.5 -59t23.5 -96.5q0 -61 -28 -106.5t-76 -70.5t-108 -25q-59 0 -105.5 25zM255 538q0 58 -35 58q-19 0 -27 -14t-8 -41q0 -60 36 -60q34 0 34 57zM492.5 137q12.5 19 12.5 49t-12.5 48.5t-35.5 18.5t-36.5 -18.5t-13.5 -48.5t13.5 -49t36.5 -19t35.5 19z" />
    <glyph glyph-name="uni10D7" unicode="&#x10d7;" horiz-adv-x="722" 
d="M133.5 10q-48.5 25 -76 70.5t-27.5 104.5t27.5 104.5t76 70.5t107.5 25q38 0 76 -15.5t61 -44.5h2q23 30 58 45t70 15q50 0 92.5 -25.5t67 -69t24.5 -97.5q0 -136 -124 -207l-97 84q31 27 45.5 54t14.5 62q0 37 -14.5 53.5t-35.5 16.5q-13 0 -23 -5t-21 -17
q4 -10 7 -23.5t3 -25.5q0 -59 -26.5 -104.5t-73.5 -70.5t-106 -25t-107.5 25zM275.5 133.5q12.5 19.5 12.5 51.5t-12.5 51.5t-36.5 19.5t-36.5 -19.5t-12.5 -51.5t12.5 -51.5t36.5 -19.5t36.5 19.5z" />
    <glyph glyph-name="uni10D8" unicode="&#x10d8;" horiz-adv-x="496" 
d="M30 180q0 52 26 99t75.5 76.5t116.5 29.5t116.5 -29.5t75.5 -76.5t26 -99q0 -127 -101 -195l-97 82q37 41 37 103q0 37 -15 60.5t-42 23.5t-42 -23.5t-15 -60.5q0 -62 37 -103l-97 -82q-101 68 -101 195z" />
    <glyph glyph-name="uni10D9" unicode="&#x10d9;" horiz-adv-x="511" 
d="M143 -348q-52 27 -82.5 73.5t-30.5 102.5q0 86 79 153l111 -74q-25 -31 -25 -74q0 -33 16 -54t49 -21q31 0 48 21t17 58v83q0 37 -21 62t-54 25h-54v133h20q30 0 49 21t19 56q0 29 -15 55.5t-43 48.5l116 64q54 -27 79.5 -69t25.5 -103q0 -38 -21.5 -70t-54.5 -47v-4
q49 -18 79.5 -61.5t30.5 -93.5v-106q0 -59 -29 -106t-80 -73.5t-113 -26.5q-64 0 -116 27z" />
    <glyph glyph-name="uni10DA" unicode="&#x10da;" horiz-adv-x="1029" 
d="M551 -283q-52 32 -114.5 48.5t-110.5 16.5q-89 0 -164 -24v121q43 12 71 12h7v4q-85 39 -137.5 105t-52.5 150q0 63 23.5 117t70 86t113.5 32q42 0 78.5 -22t59.5 -63h2q18 41 52 63t77 22q44 0 81 -22.5t48 -62.5h2q16 40 55 62.5t84 22.5q66 0 112 -29t68.5 -76
t22.5 -100q0 -49 -21.5 -95.5t-60.5 -81.5l-116 64q37 41 37 103q0 37 -15 60.5t-42 23.5q-20 0 -33.5 -20.5t-13.5 -56.5v-98h-156v98q0 38 -13.5 58.5t-38.5 20.5t-38.5 -20.5t-13.5 -58.5v-98h-156v98q0 38 -12.5 58.5t-34.5 20.5q-28 0 -42 -28t-14 -69q0 -92 58 -149.5
t177 -94.5q61 -19 135.5 -56t133 -93.5t58.5 -125.5h-156q-18 45 -70 77z" />
    <glyph glyph-name="uni10DB" unicode="&#x10db;" horiz-adv-x="511" 
d="M148.5 10q-48.5 25 -76.5 70.5t-28 104.5q0 58 24.5 104t66 71t91.5 25q21 0 42.5 -8.5t33.5 -22.5h3v163q0 35 -16.5 55t-43.5 20q-25 0 -40.5 -16.5t-15.5 -42.5q0 -17 4 -30.5t15 -33.5l-136 -61q-47 55 -47 131q0 51 29.5 93.5t80 67.5t110.5 25q61 0 110.5 -26.5
t77.5 -72.5t28 -103v-338q0 -59 -26.5 -104.5t-73 -70.5t-105.5 -25t-107.5 25zM293.5 137q13.5 19 13.5 48q0 31 -13 49.5t-36 18.5q-24 0 -36.5 -18.5t-12.5 -49.5q0 -30 13 -48.5t36 -18.5q22 0 35.5 19z" />
    <glyph glyph-name="uni10DC" unicode="&#x10dc;" horiz-adv-x="605" 
d="M149.5 10q-46.5 25 -73 70.5t-26.5 104.5v336q0 87 51 138t142 51q37 0 93 -12q43 -9 68 -9q34 0 56.5 6.5t49.5 29.5l85 -85q-25 -42 -72 -63t-105 -21q-39 0 -64.5 4.5t-57.5 12.5t-44 8q-23 0 -34.5 -13.5t-11.5 -43.5v-170h3q12 14 33.5 22.5t42.5 8.5q50 0 91.5 -25
t66 -71t24.5 -104q0 -59 -28 -104.5t-76.5 -70.5t-107.5 -25t-105.5 25zM289 136.5q13 18.5 13 48.5q0 31 -12.5 49.5t-36.5 18.5q-23 0 -36 -18.5t-13 -49.5q0 -29 13.5 -48t35.5 -19q23 0 36 18.5z" />
    <glyph glyph-name="uni10DD" unicode="&#x10dd;" horiz-adv-x="804" 
d="M775 9q-41 6 -70.5 14t-55.5 22q-28 -34 -72 -59l-97 84q31 27 45.5 54t14.5 62q0 37 -14.5 53.5t-35.5 16.5q-19 0 -33 -15t-14 -47v-63h-155v63q0 32 -13.5 47t-33.5 15q-21 0 -35.5 -16.5t-14.5 -53.5q0 -35 14.5 -62t45.5 -54l-97 -84q-124 71 -124 207q0 54 25.5 98
t69.5 69t96 25q57 0 93.5 -25t49.5 -60h2q11 32 53 58.5t91 26.5q52 0 96 -25t69.5 -69t25.5 -98q0 -13 -2 -37q22 -9 41 -14.5t54 -11.5z" />
    <glyph glyph-name="uni10DE" unicode="&#x10de;" horiz-adv-x="494" 
d="M104 29q-62 44 -74 122l145 35q6 -34 26.5 -51t43.5 -17q29 0 46.5 17.5t17.5 50.5q0 32 -19.5 49t-49.5 17h-46v133h37q24 0 44.5 13.5t20.5 43.5t-16.5 49t-50.5 42q-32 23 -52.5 42t-35 52.5t-14.5 82.5h154q0 -27 17.5 -46t55.5 -45q34 -23 55.5 -42t36.5 -49t15 -71
q0 -47 -24.5 -79t-64.5 -50v-2q102 -41 102 -147q0 -55 -30.5 -99.5t-82 -69.5t-112.5 -25q-83 0 -145 44z" />
    <glyph glyph-name="uni10DF" unicode="&#x10df;" horiz-adv-x="588" 
d="M167 -352q-56 23 -88 66t-32 102q0 67 41 121l135 -52q-11 -23 -11 -48q0 -35 23.5 -57t60.5 -22t61.5 22t24.5 62v406l-2 1q-12 -10 -46.5 -22t-58.5 -17v-2q24 -12 41.5 -38.5t17.5 -61.5q0 -56 -45 -89.5t-115 -33.5q-69 0 -113.5 34t-50.5 91l116 32q8 -47 46 -47
q19 0 29 11.5t10 30.5q0 20 -10.5 32.5t-21 17.5t-40.5 17l31 90q66 6 115.5 23.5t94.5 52.5h158v-534q0 -99 -67 -155t-178 -56q-70 0 -126 23z" />
    <glyph glyph-name="uni10E0" unicode="&#x10e0;" horiz-adv-x="731" 
d="M61 77q-31 54 -31 134q0 51 16.5 97.5t41 84t63.5 89.5q36 48 53.5 73.5t29.5 54.5q15 33 22 55.5t8 45.5h156q-3 -76 -33 -134q-29 -56 -64 -92t-86 -75l-44 -36l2 -2q22 13 52 13q42 0 73 -25.5t44 -59.5h2q19 40 59 62.5t85 22.5q52 0 96 -25t69.5 -69t25.5 -98
q0 -136 -124 -207l-97 84q31 27 45.5 54t14.5 62q0 37 -14.5 53.5t-35.5 16.5q-19 0 -33 -15t-14 -47v-63h-155v63q0 32 -13.5 47t-33.5 15q-21 0 -35.5 -16.5t-14.5 -53.5q0 -35 14.5 -62t45.5 -54l-97 -84q-62 37 -93 91z" />
    <glyph glyph-name="uni10E1" unicode="&#x10e1;" horiz-adv-x="509" 
d="M160.5 10q-47.5 25 -74 70.5t-26.5 104.5v525h156v-535q0 -25 13.5 -41t35.5 -16q24 0 36.5 17.5t12.5 49.5q0 26 -5.5 44t-16.5 42q-16 28 -16 50q0 33 16 64h152q-9 -33 -9 -54q0 -16 4.5 -27.5t13.5 -28.5q13 -26 19.5 -46.5t6.5 -53.5q0 -54 -28 -97.5t-76.5 -68
t-107.5 -24.5t-106.5 25z" />
    <glyph glyph-name="uni10E2" unicode="&#x10e2;" horiz-adv-x="818" 
d="M223.5 -327q-84.5 48 -134 130.5t-49.5 182.5q0 130 72.5 223t194.5 126v3q-7 4 -15.5 22.5t-8.5 48.5q0 28 15 54.5t44 43t67 16.5t66.5 -16.5t43.5 -43t15 -54.5q0 -30 -8 -48.5t-15 -22.5v-3q122 -33 194.5 -126t72.5 -223q0 -100 -49.5 -182.5t-134 -130.5
t-185.5 -48t-185.5 48zM434.5 346.5q9.5 13.5 9.5 34.5t-9.5 33.5t-25.5 12.5t-25.5 -12.5t-9.5 -33.5t9.5 -34.5t25.5 -13.5t25.5 13.5zM435 131.5q9 14.5 9 35.5q0 20 -9.5 34t-25.5 14t-25.5 -14t-9.5 -34q0 -21 9 -35.5t26 -14.5t26 14.5zM518 -211.5q46 30.5 70.5 84.5
t24.5 123q0 73 -25.5 127t-76.5 84l-2 -2q20 -25 20 -69q0 -50 -36 -81t-84 -31t-84 31t-36 81q0 44 20 69l-2 2q-51 -30 -76.5 -84t-25.5 -127q0 -69 24.5 -123t70.5 -84.5t109 -30.5t109 30.5z" />
    <glyph glyph-name="uni10E3" unicode="&#x10e3;" horiz-adv-x="824" 
d="M341 -347.5q-65 27.5 -101.5 75.5t-36.5 108q0 48 21.5 91t57.5 74l111 -74q-12 -15 -18.5 -34.5t-6.5 -36.5q0 -39 34.5 -68.5t89.5 -29.5q57 0 91.5 31.5t34.5 87.5v324q0 23 -10.5 37t-26.5 14q-17 0 -27 -13t-10 -36v-143h-136v168q0 12 -4 18t-15 6t-17.5 -10.5
t-16.5 -35.5q-14 -36 -29.5 -61.5t-49.5 -44.5t-90 -19q-48 0 -83.5 25.5t-54 68t-18.5 91.5q0 48 23 104h146q-11 -26 -18 -56t-7 -53q0 -47 20 -47q11 0 17 11t16 37q13 36 27 61t42.5 43.5t74.5 18.5q71 0 104 -75h2q16 35 49 55t79 20q85 0 127 -49t42 -130v-335
q0 -115 -73 -180.5t-213 -65.5q-82 0 -147 27.5z" />
    <glyph glyph-name="uni10E4" unicode="&#x10e4;" horiz-adv-x="727" 
d="M294.5 -351.5q-57.5 23.5 -88.5 65t-31 92.5q0 30 7 55.5t28 50.5l132 -40q-6 -20 -6 -37q0 -36 23.5 -56.5t69.5 -20.5q48 0 74.5 22.5t26.5 67.5v79q0 28 -12.5 43.5t-36.5 15.5h-16v123h13q48 0 48 70q0 38 -13 57.5t-33 19.5q-28 0 -47 -22q4 -10 7 -23.5t3 -25.5
q0 -90 -54.5 -145t-144.5 -55q-59 0 -105.5 25t-72.5 70t-26 105t26 105t72.5 70t105.5 25q37 0 72 -15.5t58 -44.5h2q47 60 132 60q55 0 95.5 -24.5t62 -64.5t21.5 -86q0 -67 -20.5 -105.5t-62.5 -59.5v-3q30 -10 56 -44t26 -84v-70q0 -68 -33.5 -117.5t-92 -75.5
t-132.5 -26q-76 0 -133.5 23.5zM275 133q12 19 12 52t-12 52t-33 19t-33 -19t-12 -52t12 -52t33 -19t33 19z" />
    <glyph glyph-name="uni10E5" unicode="&#x10e5;" horiz-adv-x="531" 
d="M142 -350q-52 25 -82 69t-30 99q0 47 21.5 90t57.5 73l111 -74q-25 -31 -25 -74q0 -32 16 -53.5t48 -21.5q31 0 48.5 20.5t17.5 58.5v330h-33q-22 0 -35.5 -6t-13.5 -29q0 -20 14 -37l-112 -55q-29 21 -44 53t-15 65q0 37 18.5 70t52.5 52.5t78 19.5h90v191l-2 1l-97 -79
h-8l-81 107l228 190h116v-879q0 -59 -29 -106t-80.5 -73.5t-115.5 -26.5q-62 0 -114 25z" />
    <glyph glyph-name="uni10E6" unicode="&#x10e6;" horiz-adv-x="733" 
d="M422 -288q-30 32 -73 50t-86 18q-75 0 -144 -22v121q39 12 73 12h5v4q-86 43 -126.5 107.5t-40.5 157.5q0 66 26 117t70 79.5t96 28.5q57 0 93.5 -25t49.5 -60h2q11 32 52.5 58.5t90.5 26.5q52 0 96 -25t70.5 -71.5t26.5 -108.5q0 -50 -19.5 -96.5t-57.5 -80.5l-121 64
q36 40 36 103q0 44 -15 65t-36 21q-19 0 -32.5 -15t-13.5 -47v-115h-155v115q0 32 -13.5 47t-33.5 15q-21 0 -34 -25t-13 -74q0 -63 20 -105.5t57 -71.5t98 -59q245 -121 245 -281h-156q-7 40 -37 72z" />
    <glyph glyph-name="uni10E7" unicode="&#x10e7;" horiz-adv-x="529" 
d="M142.5 -348.5q-52.5 26.5 -82.5 73.5t-30 106q0 85 77 150l109 -74q-11 -13 -17 -33t-6 -38q0 -36 18 -59t48 -23t47 23.5t17 60.5v265h-3q-12 -16 -37 -26.5t-50 -10.5q-45 0 -85.5 22.5t-66 65t-25.5 98.5q0 36 11 68t26 50h151q-6 -10 -14.5 -38.5t-8.5 -61.5
q0 -36 15 -55.5t38 -19.5t37 19.5t14 55.5v100h154v-537q0 -60 -28.5 -107.5t-79 -74t-113.5 -26.5t-115.5 26.5z" />
    <glyph glyph-name="uni10E8" unicode="&#x10e8;" horiz-adv-x="661" 
d="M298.5 10q-48.5 25 -76.5 70.5t-28 104.5q0 58 24.5 104t66 71t91.5 25q21 0 42.5 -8.5t33.5 -22.5h3v181q0 29 -10 45t-27 16q-18 0 -27.5 -15t-9.5 -44v-63h-136v63q0 59 -37 59t-37 -56q0 -37 24 -73l-115 -66q-32 28 -51 69t-19 85q0 42 20.5 81.5t60.5 64t97 24.5
q91 0 124 -75h2q16 35 49 55t79 20q85 0 127 -49t42 -130v-361q0 -59 -26.5 -104.5t-73 -70.5t-105.5 -25t-107.5 25zM443.5 137q13.5 19 13.5 48q0 31 -13 49.5t-36 18.5q-24 0 -36.5 -18.5t-12.5 -49.5q0 -30 13 -48.5t36 -18.5q22 0 35.5 19z" />
    <glyph glyph-name="uni10E9" unicode="&#x10e9;" horiz-adv-x="497" 
d="M50 535q0 91 48.5 140.5t140.5 49.5q85 0 133 -40.5t48 -109.5q0 -65 -39.5 -101.5t-78.5 -48t-98 -22.5v-53h4q12 15 38.5 25t55.5 10q44 0 82 -25t60.5 -71.5t22.5 -108.5q0 -52 -14 -93.5t-38 -86.5h-150q19 44 28 88.5t9 82.5q0 42 -11.5 62t-35.5 20
q-25 0 -38 -18.5t-13 -49.5v-185h-154v535zM249 523q15 15 15 41q0 38 -29 38q-16 0 -23.5 -12.5t-7.5 -29.5v-62q30 10 45 25z" />
    <glyph glyph-name="uni10EA" unicode="&#x10ea;" horiz-adv-x="772" 
d="M230 -326.5q-84 48.5 -132 138t-48 206.5q0 111 44 206.5t121 160.5l116 -84q-56 -56 -86 -132.5t-30 -154.5q0 -74 27 -132.5t74 -91t106 -32.5t97 32t38 89q0 48 -25.5 70t-54.5 22h-38v133h64q21 0 35.5 9.5t14.5 29.5q0 22 -12.5 36.5t-39.5 33.5q-17 11 -19 13
q-34 25 -51.5 60t-17.5 84h156q2 -22 15 -37.5t39 -33.5q34 -23 62 -59t28 -82q0 -49 -25 -77.5t-66 -40.5v-2q100 -45 100 -156q0 -71 -38.5 -129.5t-108 -93t-157.5 -34.5q-104 0 -188 48.5z" />
    <glyph glyph-name="uni10EB" unicode="&#x10eb;" horiz-adv-x="497" 
d="M134.5 10q-48.5 25 -76.5 70.5t-28 104.5q0 58 24.5 104t66 71t91.5 25q21 0 42.5 -8.5t33.5 -22.5h3v356h156v-525q0 -59 -26.5 -104.5t-73 -70.5t-105.5 -25t-107.5 25zM279.5 137q13.5 19 13.5 48q0 31 -13 49.5t-36 18.5q-24 0 -36.5 -18.5t-12.5 -49.5
q0 -30 13 -48.5t36 -18.5q22 0 35.5 19z" />
    <glyph glyph-name="uni10EC" unicode="&#x10ec;" horiz-adv-x="641" 
d="M159 -118q-27 124 -76 312q-38 147 -55.5 224.5t-17.5 127.5q0 81 42 130t127 49q46 0 79 -20t49 -55h2q33 75 124 75q57 0 97 -24.5t60.5 -64t20.5 -81.5q0 -44 -19 -85t-51 -69l-115 66q24 36 24 73q0 56 -37 56t-37 -59v-63h-136v63q0 29 -9.5 44t-27.5 15
q-17 0 -27 -16t-10 -45q0 -30 8 -88.5t20 -96.5h338q0 -161 -26 -293.5t-58.5 -219t-75.5 -177.5l-10 -20h-165q-11 118 -38 242zM303 -197q18 67 36 171q13 73 22 141t10 101h-139q34 -151 50 -252q14 -89 17 -161h4z" />
    <glyph glyph-name="uni10ED" unicode="&#x10ed;" horiz-adv-x="651" 
d="M104 -324q-64 51 -64 140q0 48 21.5 91t57.5 74l111 -74q-12 -15 -18.5 -34.5t-6.5 -36.5q0 -36 18 -59t54 -23q35 0 55 22.5t20 60.5q0 39 -13 96.5t-38 148.5q-18 -16 -40 -24.5t-45 -8.5q-33 0 -67 14.5t-58 49t-24 90.5t24 92t58 52t67 16q22 0 45 -8t40 -22
q3 27 11 67q1 7 7 38.5t6 51.5q0 32 -21 41l-33 15h-6l-2 -24q-2 -39 -5 -58h-146q7 51 12 117.5t5 128.5h98l166 -65q45 -18 66 -49.5t21 -78.5q0 -24 -5.5 -53t-16.5 -72q-21 -85 -27 -130h4q34 25 66.5 59.5t37.5 44.5l102 -83q-12 -12 -43.5 -35t-71.5 -43
q24 -22 58.5 -44.5t56.5 -35.5l-102 -83q-56 43 -104 103h-4q4 -23 14 -53t21 -60q24 -64 37 -109.5t13 -91.5q0 -96 -66 -151t-176 -55q-106 0 -170 51zM266.5 173q12.5 5 20.5 12v42q-8 7 -20.5 12t-22.5 5q-21 0 -32 -10t-11 -28t11 -28t32 -10q10 0 22.5 5z" />
    <glyph glyph-name="uni10EE" unicode="&#x10ee;" horiz-adv-x="497" 
d="M149.5 10q-46.5 25 -73 70.5t-26.5 104.5v525h156v-356h3q26 53 50 91.5t73 88.5l99 -78q-22 -20 -47.5 -47t-39.5 -45l1 -2h2q46 -16 83 -62t37 -115q0 -59 -28 -104.5t-76.5 -70.5t-107.5 -25t-105.5 25zM289 136.5q13 18.5 13 48.5q0 31 -12.5 49.5t-36.5 18.5
q-23 0 -36 -18.5t-13 -49.5q0 -29 13.5 -48t35.5 -19q23 0 36 18.5z" />
    <glyph glyph-name="uni10EF" unicode="&#x10ef;" horiz-adv-x="812" 
d="M765 -78q17 -35 17 -72q0 -68 -47.5 -110t-119.5 -42q-50 0 -87.5 22t-57.5 62l-77 151l-90 -60q39 -10 62.5 -43.5t23.5 -74.5q0 -42 -24 -74t-63 -49t-84 -17q-72 0 -120 42.5t-48 117.5l135 8q0 -21 8.5 -33t23.5 -12q11 0 18.5 6.5t7.5 19.5q0 24 -22.5 39t-58.5 15
l-49 97l216 145l-89 176q-10 21 -28 21q-9 0 -15.5 -5.5t-6.5 -17.5q0 -10 9 -24.5t38 -44.5l-102 -70q-46 31 -63 66t-17 72q0 68 47.5 110t119.5 42q49 0 87 -22t58 -62l82 -162l101 68q22 15 22 32q0 5 -2.5 9t-8.5 4q-14 0 -30 -24l-112 63q14 42 60.5 68t99.5 26
q39 0 73 -21t55 -55.5t21 -71.5t-13 -67t-46 -52l-156 -105l84 -166q11 -21 28 -21q9 0 15.5 5.5t6.5 17.5q0 10 -9 24.5t-38 44.5l102 70q46 -31 63 -66z" />
    <glyph glyph-name="uni10F0" unicode="&#x10f0;" horiz-adv-x="544" 
d="M121 26.5q-59 41.5 -71 115.5l145 35q7 -30 27 -45t43 -15q29 0 46.5 14t17.5 40q0 19 -13.5 31t-36.5 12h-57v123h67q14 0 22.5 7.5t8.5 19.5t-8.5 19.5t-22.5 7.5h-67v123h67q10 0 18 5.5t8 16.5t-12 17t-40 14q-39 11 -66 23.5t-47 41.5t-20 78h154q7 -16 25.5 -26
t51.5 -21q36 -13 58.5 -24.5t38.5 -32.5t16 -54q0 -34 -19.5 -58.5t-52.5 -36.5v-2q36 -12 56.5 -33t20.5 -58q0 -69 -75 -95v-2q37 -13 63.5 -44t26.5 -83q0 -46 -30.5 -81t-81.5 -54.5t-111 -19.5q-91 0 -150 41.5z" />
    <glyph glyph-name="uni10F1" unicode="&#x10f1;" horiz-adv-x="732" 
d="M218 30.5q-84 45.5 -136 136.5t-52 221q0 103 29.5 179.5t77 117t99.5 40.5q61 0 96 -40.5t35 -106.5q0 -95 -45.5 -185t-127.5 -144q32 -63 89.5 -97t118.5 -34q58 0 96.5 30.5t38.5 80.5q0 48 -24.5 65t-55.5 17h-38v133h64q21 0 35.5 9.5t14.5 29.5q0 22 -12.5 36.5
t-39.5 33.5q-17 11 -19 13q-34 25 -51.5 60t-17.5 84h156q2 -22 15 -37.5t39 -33.5q34 -23 62 -59t28 -82q0 -49 -25 -77.5t-66 -40.5v-2q27 -12 46.5 -24.5t36.5 -42.5t17 -79q0 -66 -39 -122.5t-108 -90.5t-157 -34q-96 0 -180 45.5zM223 462q16 63 16 108q0 22 -13 22
q-8 0 -23 -23.5t-27.5 -70.5t-12.5 -113q0 -13 2 -39q42 53 58 116z" />
    <glyph glyph-name="uni10F2" unicode="&#x10f2;" horiz-adv-x="608" 
d="M30 10l44 109q21 -12 47 -20q27 -8 54 -8v3q-31 15 -57.5 50.5t-26.5 75.5q0 76 58 120.5t155 44.5t155 -44.5t58 -120.5q0 -40 -26.5 -75.5t-57.5 -50.5v-3q27 0 54 8q26 8 47 20l44 -109q-48 -25 -111 -25q-49 0 -93 11.5t-70 25.5q-26 -14 -70 -25.5t-93 -11.5
q-63 0 -111 25zM338.5 162q13.5 19 13.5 41q0 28 -14 42t-34 14t-34 -14t-14 -42q0 -22 13.5 -41t34.5 -28q21 9 34.5 28z" />
    <glyph glyph-name="uni10F3" unicode="&#x10f3;" horiz-adv-x="541" 
d="M146.5 -348.5q-53.5 26.5 -85 73t-31.5 103.5q0 45 20.5 85t54.5 68l113 -74q-11 -13 -17 -33t-6 -38q0 -36 18.5 -57t50.5 -21t51.5 21t19.5 58v87q0 48 -17 65t-62 17h-81v104l99 127h-191v133h397v-103l-138 -163l1 -1q67 0 107.5 -50t40.5 -128v-94q0 -59 -30.5 -106
t-82.5 -73.5t-115 -26.5t-116.5 26.5z" />
    <glyph glyph-name="uni10F4" unicode="&#x10f4;" horiz-adv-x="511" 
d="M143 -348q-52 27 -82.5 73.5t-30.5 102.5q0 73 54 129l122 -73q-11 -22 -11 -51q0 -33 16 -54t49 -21q31 0 48 21t17 58v43q0 37 -21 62t-54 25h-74v133h40q30 0 49 21t19 56q0 27 -21 42t-68 32q-45 18 -71.5 33t-46.5 44t-20 75q0 48 24.5 85t68 57.5t98.5 20.5
q61 0 116 -31t81 -81l-123 -60q-20 21 -37.5 30t-37.5 9q-18 0 -26 -7t-8 -21q0 -18 18 -30t60 -29q48 -20 80 -38.5t55 -52t23 -82.5q0 -38 -22.5 -70t-55.5 -47v-4q49 -18 79.5 -61.5t30.5 -93.5v-66q0 -59 -29 -106t-80 -73.5t-113 -26.5q-64 0 -116 27z" />
    <glyph glyph-name="uni10F5" unicode="&#x10f5;" horiz-adv-x="587" 
d="M103.5 35.5q-53.5 50.5 -53.5 140.5q0 52 24 88t62 53t82 17h65v42h-65q-44 0 -82 17t-62 53t-24 88q0 90 53.5 140.5t141.5 50.5q91 0 142.5 -54t51.5 -146v-44h118v-105h-118v-42h118v-105h-118v-44q0 -92 -51.5 -146t-142.5 -54q-88 0 -141.5 50.5zM285 481v57
q0 58 -35 58q-19 0 -27 -14t-8 -41q0 -60 36 -60h34zM285 172v57h-34q-36 0 -36 -60q0 -27 8 -41t27 -14q35 0 35 58z" />
    <glyph glyph-name="uni10F6" unicode="&#x10f6;" horiz-adv-x="738" 
d="M165.5 -354.5q-42.5 20.5 -66.5 56.5t-24 81q0 49 19 104l148 -37q-9 -45 -9 -62q0 -15 9.5 -22.5t20.5 -7.5t19.5 9t8.5 29v198l-2 1q-33 -35 -85 -35q-45 0 -85 26.5t-64.5 76.5t-24.5 117t24.5 117t64.5 76.5t85 26.5q52 0 85 -35l2 1v199q0 71 50.5 115.5t133.5 44.5
q55 0 97.5 -20.5t66.5 -56.5t24 -81q0 -49 -19 -104l-148 37q9 45 9 62q0 15 -9.5 22.5t-20.5 7.5t-19.5 -9t-8.5 -29v-188l2 -1q33 35 85 35q45 0 85 -26.5t64.5 -76.5t24.5 -117t-24.5 -117t-64.5 -76.5t-85 -26.5q-52 0 -85 35l-2 -1v-209q0 -71 -50.5 -115.5
t-133.5 -44.5q-55 0 -97.5 20.5zM276.5 117q14.5 23 14.5 63t-14.5 63t-33.5 23t-33.5 -23t-14.5 -63t14.5 -63t33.5 -23t33.5 23zM528.5 117q14.5 23 14.5 63t-14.5 63t-34.5 23q-19 0 -33 -22.5t-14 -63.5t14 -63.5t33 -22.5q20 0 34.5 23z" />
    <glyph glyph-name="uni10F7" unicode="&#x10f7;" horiz-adv-x="578" 
d="M102.5 -319.5q-72.5 55.5 -72.5 158.5q0 66 42.5 122.5t105.5 95.5l36 22q61 36 89 59.5t28 50.5q0 32 -15 47.5t-40 15.5q-23 0 -39 -15t-16 -44q0 -14 3 -26l-148 -44q-15 41 -15 73q0 53 29.5 96t79.5 68t109 25q63 0 112 -23t77 -65.5t28 -100.5q0 -53 -28.5 -94.5
t-67.5 -70.5t-98 -63q-52 -31 -79.5 -60t-27.5 -69q0 -39 26.5 -60t67.5 -21q39 0 66.5 21t27.5 60q0 33 -17 71l148 60q34 -62 34 -131q0 -63 -35.5 -111.5t-94.5 -75.5t-129 -27q-114 0 -186.5 55.5z" />
    <glyph glyph-name="uni10F8" unicode="&#x10f8;" horiz-adv-x="529" 
d="M157.5 -348.5q-50.5 26.5 -79 74t-28.5 107.5v537h154v-100q0 -36 14 -55.5t37 -19.5q24 0 38.5 19.5t14.5 55.5q0 33 -8.5 61.5t-14.5 38.5h151q15 -18 26 -50t11 -68q0 -56 -25.5 -98.5t-66 -65t-85.5 -22.5q-25 0 -50 10.5t-37 26.5h-3v-265q0 -37 17 -60.5t47 -23.5
t48 23t18 59q0 18 -6 38t-17 33l109 74q77 -65 77 -150q0 -59 -30 -106t-82.5 -73.5t-115.5 -26.5t-113.5 26.5z" />
    <glyph glyph-name="uni10F9" unicode="&#x10f9;" horiz-adv-x="608" 
d="M409.5 354q58.5 -31 92 -84.5t33.5 -119.5q0 -98 -64.5 -154t-151.5 -92v-98q0 -22 9.5 -37.5t29.5 -15.5q19 0 29.5 15.5t10.5 40.5q0 24 -14 54l124 64q23 -25 36.5 -53.5t13.5 -66.5q0 -51 -25 -93t-71 -66t-106 -24q-88 0 -140.5 50t-52.5 130v122q-52 34 -94.5 88
t-42.5 135q0 67 33.5 121t92 84.5t128.5 30.5q71 0 129.5 -31zM216.5 223.5q-25.5 -28.5 -25.5 -72.5q0 -41 21.5 -71t54.5 -56q45 21 74 49.5t29 77.5q0 44 -25 72.5t-64 28.5t-64.5 -28.5z" />
    <glyph glyph-name="uni10FA" unicode="&#x10fa;" horiz-adv-x="462" 
d="M50 106h40q-27 17 -43.5 47.5t-16.5 66.5q0 46 27 84t73 59.5t100 21.5q70 0 121.5 -35.5t70.5 -90.5l-136 -46q-15 45 -49 45q-21 0 -34 -16.5t-13 -49.5t20.5 -50.5t56.5 -17.5h142v-124h-359v106z" />
    <glyph glyph-name="uni10FB" unicode="&#x10fb;" horiz-adv-x="442" 
d="M247 122q-27 27 -27 64t27 64t64 27t64 -27t27 -64t-27 -64t-64 -27t-64 27zM57 12q-27 27 -27 64t27 64t64 27t64 -27t27 -64t-27 -64t-64 -27t-64 27zM57 232q-27 27 -27 64t27 64t64 27t64 -27t27 -64t-27 -64t-64 -27t-64 27z" />
    <glyph glyph-name="uni10FC" unicode="&#x10fc;" horiz-adv-x="341" 
d="M72 397.5q-42 27.5 -42 86.5v141q0 51 32.5 75.5t83.5 24.5q19 0 51 -4q28 -4 38 -4q11 0 22.5 2t18.5 5l20 -81q-23 -14 -48 -14q-14 0 -40 6q-20 5 -33 5q-18 0 -27 -9.5t-9 -21.5v-38h2q22 25 64 25q41 0 73.5 -26t32.5 -86t-43 -87t-98 -27q-56 0 -98 27.5z
M190.5 457.5q7.5 10.5 7.5 25.5t-7.5 26t-22.5 11t-22.5 -11t-7.5 -26t7.5 -25.5t22.5 -10.5t22.5 10.5z" />
    <glyph glyph-name="uni10FD" unicode="&#x10fd;" horiz-adv-x="578" 
d="M160 12q-59 27 -94.5 75.5t-35.5 111.5q0 69 34 131l148 -60q-17 -38 -17 -71q0 -39 27.5 -60t66.5 -21q41 0 67.5 21t26.5 60q0 27 -13.5 47t-33.5 34.5t-60 37.5q-69 40 -103.5 63.5t-62.5 62.5t-28 92q0 58 28 100.5t77 65.5t112 23q59 0 109 -25t79.5 -68t29.5 -96
q0 -32 -15 -73l-148 44q3 12 3 26q0 29 -16 44t-39 15q-25 0 -40 -15.5t-15 -47.5q0 -24 23 -42.5t74 -46.5q31 -17 56 -33q148 -91 148 -208q0 -103 -72.5 -158.5t-186.5 -55.5q-70 0 -129 27z" />
    <glyph glyph-name="uni10FE" unicode="&#x10fe;" horiz-adv-x="608" 
d="M234 373.5q44 -11.5 70 -25.5q26 14 70 25.5t93 11.5q63 0 111 -25l-44 -109q-21 12 -47 20q-27 8 -54 8v-3q31 -15 57.5 -50.5t26.5 -75.5q0 -76 -58 -120.5t-155 -44.5t-155 44.5t-58 120.5q0 40 26.5 75.5t57.5 50.5v3q-27 0 -54 -8q-26 -8 -47 -20l-44 109
q48 25 111 25q49 0 93 -11.5zM269.5 208q-13.5 -19 -13.5 -41q0 -28 14 -42t34 -14t34 14t14 42q0 22 -13.5 41t-34.5 28q-21 -9 -34.5 -28z" />
    <glyph glyph-name="uni10FF" unicode="&#x10ff;" horiz-adv-x="488" 
d="M136 10q-49 25 -77.5 70.5t-28.5 104.5t28.5 104.5t77.5 70.5t108 25t108 -25t77.5 -70.5t28.5 -104.5t-28.5 -104.5t-77.5 -70.5t-108 -25t-108 25zM280 136.5q13 18.5 13 48.5t-13 48.5t-36 18.5t-36 -18.5t-13 -48.5t13 -48.5t36 -18.5t36 18.5z" />
    <glyph glyph-name="endash" unicode="&#x2013;" horiz-adv-x="618" 
d="M578 252v-132h-538v132h538z" />
    <glyph glyph-name="emdash" unicode="&#x2014;" horiz-adv-x="672" 
d="M665 252v-132h-658v132h658z" />
    <glyph glyph-name="quoteleft" unicode="&#x2018;" horiz-adv-x="301" 
d="M171.5 619.5q-16.5 -23.5 -17.5 -45.5q35 0 61 -25t26 -63t-26 -62.5t-61 -24.5q-40 0 -67.5 28.5t-27.5 75.5q0 67 24.5 119t86.5 93l41 -53q-23 -19 -39.5 -42.5z" />
    <glyph glyph-name="quoteright" unicode="&#x2019;" horiz-adv-x="301" 
d="M129.5 484.5q16.5 23.5 17.5 45.5q-35 0 -61 25t-26 63t26 62.5t61 24.5q40 0 67.5 -28.5t27.5 -75.5q0 -67 -24.5 -119t-86.5 -93l-41 53q23 19 39.5 42.5z" />
    <glyph glyph-name="quotesinglbase" unicode="&#x201a;" horiz-adv-x="221" 
d="M89.5 -50.5q16.5 23.5 17.5 45.5q-35 0 -61 25t-26 63t26 62.5t61 24.5q40 0 67.5 -28.5t27.5 -75.5q0 -67 -24.5 -119t-86.5 -93l-41 53q23 19 39.5 42.5z" />
    <glyph glyph-name="quotedblleft" unicode="&#x201c;" horiz-adv-x="514" 
d="M161.5 619.5q-16.5 -23.5 -17.5 -45.5q35 0 61 -25t26 -63t-26 -62.5t-61 -24.5q-40 0 -67.5 28.5t-27.5 75.5q0 67 24.5 119t86.5 93l41 -53q-23 -19 -39.5 -42.5zM394.5 619.5q-16.5 -23.5 -17.5 -45.5q35 0 61 -25t26 -63t-26 -62.5t-61 -24.5q-40 0 -67.5 28.5
t-27.5 75.5q0 67 24.5 119t86.5 93l41 -53q-23 -19 -39.5 -42.5z" />
    <glyph glyph-name="quotedblright" unicode="&#x201d;" horiz-adv-x="514" 
d="M119.5 485.5q16.5 23.5 17.5 45.5q-35 0 -61 25t-26 63t26 62.5t61 24.5q40 0 67.5 -28.5t27.5 -75.5q0 -67 -24.5 -119t-86.5 -93l-41 53q23 19 39.5 42.5zM352.5 485.5q16.5 23.5 17.5 45.5q-35 0 -61 25t-26 63t26 62.5t61 24.5q40 0 67.5 -28.5t27.5 -75.5
q0 -67 -24.5 -119t-86.5 -93l-41 53q23 19 39.5 42.5z" />
    <glyph glyph-name="quotedblbase" unicode="&#x201e;" horiz-adv-x="523" 
d="M99.5 -50.5q16.5 23.5 17.5 45.5q-35 0 -61 25t-26 63t26 62.5t61 24.5q40 0 67.5 -28.5t27.5 -75.5q0 -67 -24.5 -119t-86.5 -93l-41 53q23 19 39.5 42.5zM321.5 -50.5q16.5 23.5 17.5 45.5q-35 0 -61 25t-26 63t26 62.5t61 24.5q40 0 67.5 -28.5t27.5 -75.5
q0 -67 -24.5 -119t-86.5 -93l-41 53q23 19 39.5 42.5z" />
    <glyph glyph-name="bullet" unicode="&#x2022;" horiz-adv-x="436" 
d="M363 151.5q-23 -38.5 -61.5 -61.5t-83.5 -23t-83.5 23t-61.5 61.5t-23 83.5t23 83.5t61.5 61.5t83.5 23t83.5 -23t61.5 -61.5t23 -83.5t-23 -83.5z" />
    <glyph glyph-name="ellipsis" unicode="&#x2026;" horiz-adv-x="722" 
d="M57 12q-27 27 -27 64t27 64t64 27t64 -27t27 -64t-27 -64t-64 -27t-64 27zM277 12q-27 27 -27 64t27 64t64 27t64 -27t27 -64t-27 -64t-64 -27t-64 27zM497 12q-27 27 -27 64t27 64t64 27t64 -27t27 -64t-27 -64t-64 -27t-64 27z" />
    <glyph glyph-name="guilsinglleft" unicode="&#x2039;" horiz-adv-x="404" 
d="M50 184l214 215l90 -79l-139 -136l139 -136l-90 -76z" />
    <glyph glyph-name="guilsinglright" unicode="&#x203a;" horiz-adv-x="404" 
d="M50 48l139 136l-139 136l90 79l214 -215l-214 -212z" />
    <glyph glyph-name="fraction" unicode="&#x2044;" horiz-adv-x="521" 
d="M285 690h156l-285 -1050h-156z" />
    <glyph glyph-name="uni2070" unicode="&#x2070;" horiz-adv-x="356" 
d="M71.5 299q-41.5 42 -41.5 111v132q0 70 41.5 112t109.5 42q67 0 109 -42.5t42 -111.5v-132q0 -69 -42 -111t-109 -42q-68 0 -109.5 42zM205 370.5q8 10.5 8 35.5v140q0 25 -8 35.5t-24 10.5t-24.5 -10.5t-8.5 -35.5v-140q0 -25 8.5 -35.5t24.5 -10.5t24 10.5z" />
    <glyph glyph-name="uni2074" unicode="&#x2074;" horiz-adv-x="419" 
d="M223 320h-193v83l121 287h131l-109 -259h50v75h120v-75h46v-111h-46v-57h-120v57z" />
    <glyph glyph-name="uni2075" unicode="&#x2075;" horiz-adv-x="384" 
d="M82 284.5q-41 28.5 -52 79.5l120 33q5 -18 13.5 -27.5t24.5 -9.5t27 10t11 26q0 20 -10 30t-28 10q-24 0 -35 -14l-116 15l34 253h260v-115h-156l-11 -60h2q1 0 14.5 8.5t48.5 8.5q30 0 59 -16.5t47.5 -48t18.5 -73.5q0 -66 -47 -102t-120 -36q-64 0 -105 28.5z" />
    <glyph glyph-name="uni2076" unicode="&#x2076;" horiz-adv-x="423" 
d="M131.5 274.5q-37.5 18.5 -59.5 50.5t-22 72q0 29 9 58t31 69l90 166h138l-94 -164l1 -1q13 7 29 7q29 0 56.5 -15t45 -44t17.5 -69q0 -44 -21.5 -77.5t-58.5 -52t-80 -18.5q-44 0 -81.5 18.5zM236.5 370q9.5 10 9.5 27q0 19 -9 29t-26 10q-16 0 -25 -10t-9 -29
q0 -17 9 -27t25 -10t25.5 10z" />
    <glyph glyph-name="uni2077" unicode="&#x2077;" horiz-adv-x="380" 
d="M190 575h-140v115h280v-79l-125 -348h-128z" />
    <glyph glyph-name="uni2078" unicode="&#x2078;" horiz-adv-x="414" 
d="M87 292q-47 36 -47 99q0 39 23 66.5t52 39.5v1q-25 9 -42.5 32t-17.5 52q0 50 42.5 83t109.5 33t109.5 -33t42.5 -83q0 -29 -17.5 -52t-42.5 -32v-1q29 -12 52 -39.5t23 -66.5q0 -63 -47 -99t-120 -36t-120 36zM233 542.5q10 9.5 10 24.5q0 14 -10 23.5t-26 9.5t-26 -9.5
t-10 -23.5q0 -15 10 -24.5t26 -9.5t26 9.5zM237 373q10 12 10 29t-10 29t-30 12t-30 -12t-10 -29t10 -29t30 -12t30 12z" />
    <glyph glyph-name="uni2079" unicode="&#x2079;" horiz-adv-x="423" 
d="M291.5 672.5q37.5 -18.5 59.5 -50.5t22 -72q0 -29 -9 -58t-31 -69l-90 -166h-138l94 164l-1 1q-13 -7 -29 -7q-29 0 -56.5 15t-45 44t-17.5 69q0 44 21.5 77.5t58.5 52t80 18.5q44 0 81.5 -18.5zM186.5 577q-9.5 -10 -9.5 -27q0 -19 9 -29t26 -10q16 0 25 10t9 29
q0 17 -9 27t-25 10t-25.5 -10z" />
    <glyph glyph-name="uni20BE" unicode="&#x20be;" horiz-adv-x="873" 
d="M247.5 249q32.5 -45 87.5 -69t122 -24h273v-156h-637v146l106 6v2q-23 5 -57.5 27t-63 69.5t-28.5 119.5q0 116 72.5 195.5t189.5 109.5v101h101v-87q8 1 24 1q23 0 34 -1v87h101v-108q110 -37 180 -127.5t70 -220.5h-165q0 152 -85 206v-206h-101v236q-11 1 -34 1
q-16 0 -24 -1v-236h-101v217q-48 -21 -72.5 -65t-24.5 -117q0 -61 32.5 -106z" />
    <glyph glyph-name="uni2153" unicode="&#x2153;" horiz-adv-x="879" 
d="M30 498v132l116 60h92v-427h-122v281zM488 690h136l-335 -690h-136zM581.5 3q-42.5 28 -52.5 79l119 31q3 -16 14 -25.5t27 -9.5t25.5 11.5t9.5 28.5q0 16 -11.5 25.5t-25.5 9.5h-46v99h38q17 0 26 8.5t9 21.5q0 14 -8.5 22.5t-25.5 8.5q-16 0 -26 -7.5t-12 -17.5
l-113 18q5 49 47.5 79t110.5 30q64 0 108.5 -29.5t44.5 -86.5q0 -33 -16.5 -57.5t-50.5 -34.5v-1q33 -10 54.5 -37.5t21.5 -63.5q0 -37 -22 -67t-60 -46.5t-82 -16.5q-61 0 -103.5 28z" />
    <glyph glyph-name="uni2154" unicode="&#x2154;" horiz-adv-x="979" 
d="M593 690h136l-335 -690h-136zM641.5 3q-42.5 28 -52.5 79l119 31q3 -16 14 -25.5t27 -9.5t25.5 11.5t9.5 28.5q0 16 -11.5 25.5t-25.5 9.5h-46v99h38q17 0 26 8.5t9 21.5q0 14 -8.5 22.5t-25.5 8.5q-16 0 -26 -7.5t-12 -17.5l-113 18q5 49 47.5 79t110.5 30
q64 0 108.5 -29.5t44.5 -86.5q0 -33 -16.5 -57.5t-50.5 -34.5v-1q33 -10 54.5 -37.5t21.5 -63.5q0 -37 -22 -67t-60 -46.5t-82 -16.5q-61 0 -103.5 28zM40 369l141 122q43 38 43 73q0 18 -9.5 27.5t-23.5 9.5q-15 0 -27 -10.5t-15 -28.5l-119 20q2 34 25 62.5t59.5 44.5
t76.5 16q67 0 113 -36.5t46 -95.5q0 -42 -13 -74.5t-52 -62.5l-62 -47l1 -2h123v-115h-307v97z" />
    <glyph glyph-name="minus" unicode="&#x2212;" horiz-adv-x="500" 
d="M450 252v-132h-400v132h400z" />
    <glyph glyph-name="uni2215" unicode="&#x2215;" horiz-adv-x="471" 
d="M285 690h156l-285 -1050h-156z" />
    <glyph glyph-name="uniEFFD" unicode="&#xeffd;" 
 />
    <glyph glyph-name="uniF000" unicode="&#xf000;" 
 />
    <glyph glyph-name="uni10D0.case" horiz-adv-x="555" 
d="M70.5 62.5q-50.5 77.5 -50.5 173.5v70h164v-63q0 -54 22.5 -86t63.5 -32q40 0 61 32t21 86q0 47 -12.5 82.5t-31 61t-49.5 58.5q-35 39 -55.5 68t-35 73t-14.5 104h164q0 -41 19.5 -73t61.5 -81q40 -45 65 -81t43 -88.5t18 -120.5q0 -56 -19.5 -114.5t-76.5 -102.5
t-159 -44q-149 0 -199.5 77.5z" />
    <glyph glyph-name="uni10D1.case" horiz-adv-x="580" 
d="M180 14q-56 29 -87.5 79t-31.5 109q0 144 194 216v69q0 17 -19 23l-37 12h-6q-1 -10 -2.5 -31t-4.5 -40h-156q18 122 18 240h106l171 -62q92 -33 92 -126v-100q56 -37 94.5 -83t38.5 -119q0 -59 -31.5 -108.5t-87.5 -78.5t-125 -29q-70 0 -126 29zM359.5 148
q17.5 22 17.5 48q0 37 -22.5 63t-49.5 35q-25 -9 -47.5 -34.5t-22.5 -63.5q0 -26 17 -48t53 -22q37 0 54.5 22z" />
    <glyph glyph-name="uni10D2.case" horiz-adv-x="606" 
d="M183.5 15q-57.5 30 -88 83t-30.5 118q0 91 62 142t150 86v77q0 17 -10 30t-31 13t-32 -13.5t-11 -32.5q0 -11 4.5 -23.5t10.5 -25.5l-150 -59q-13 16 -25.5 46t-12.5 71q0 52 27.5 92.5t77.5 63t113 22.5q92 0 147.5 -48.5t55.5 -127.5v-108q130 -84 130 -204
q0 -67 -30.5 -119.5t-87.5 -82.5t-134 -30q-78 0 -135.5 30zM377.5 147.5q20.5 24.5 20.5 62.5q0 33 -17 57t-49 47q-41 -12 -67.5 -37.5t-26.5 -66.5q0 -39 20 -63t60 -24q39 0 59.5 24.5z" />
    <glyph glyph-name="uni10D3.case" horiz-adv-x="770" 
d="M284 91q-77 0 -159 -25v125q51 11 77 11h6v4q-98 41 -143 110.5t-45 159.5q0 64 27.5 116t74.5 82t105 30q44 0 79.5 -14.5t57.5 -39.5h3q21 24 62 39.5t86 15.5q63 0 114 -23.5t81 -68.5t30 -107q0 -61 -30 -106t-81 -68.5t-114 -23.5t-114.5 23t-81.5 66t-30 100
q0 18 4 34.5t8 22.5q-14 12 -43 12q-28 0 -46.5 -25.5t-18.5 -65.5q0 -174 213 -242q107 -34 186 -91t80 -142h-164q-33 91 -224 91zM553.5 465q13.5 16 13.5 41q0 26 -13.5 42t-38.5 16q-24 0 -38.5 -16.5t-14.5 -41.5t14.5 -41t38.5 -16q25 0 38.5 16z" />
    <glyph glyph-name="uni10D4.case" horiz-adv-x="524" 
d="M130.5 11q-52.5 26 -81.5 71t-29 100q0 75 53 145l146 -63q-10 -15 -18 -37.5t-8 -39.5q0 -26 16.5 -44t44.5 -18q33 0 49.5 18t16.5 57v312q0 30 -13 44t-35 14t-33.5 -15.5t-11.5 -36.5q0 -37 23 -77l-147 -59q-18 19 -33.5 52.5t-15.5 84.5q0 53 29 95.5t79.5 66.5
t113.5 24q93 0 150.5 -51.5t57.5 -138.5v-321q0 -63 -30 -110t-83 -73t-121 -26q-67 0 -119.5 26z" />
    <glyph glyph-name="uni10D5.case" horiz-adv-x="534" 
d="M97 36.5q-67 51.5 -67 145.5q0 85 50 145l144 -71q-9 -16 -15 -35t-6 -34q0 -27 17 -44.5t51 -17.5q33 0 51 17t18 48v48q0 20 -15.5 32.5t-44.5 12.5h-27v156h20q30 0 43 16t13 45q0 31 -14.5 47.5t-42.5 16.5q-27 0 -42 -14.5t-15 -42.5q0 -16 9 -33l-132 -63
q-24 22 -37 52t-13 61q0 51 31 92t83.5 65t115.5 24q64 0 116.5 -24.5t82 -66.5t29.5 -94q0 -55 -25.5 -94t-56.5 -53v-3q34 -10 60 -39.5t26 -84.5v-62q0 -58 -30.5 -103t-84.5 -70.5t-122 -25.5q-103 0 -170 51.5z" />
    <glyph glyph-name="uni10D6.case" horiz-adv-x="723" 
d="M364.5 10q-50.5 25 -79.5 72t-29 112v164h-3q-13 -14 -36 -22t-50 -8q-44 0 -79.5 22.5t-56.5 63t-21 94.5q0 94 56.5 145.5t149.5 51.5q95 0 149.5 -55t54.5 -147v-127h3q50 100 133 182l110 -90q-24 -20 -50.5 -45t-41.5 -41l1 -2q18 -8 27 -13q45 -25 73 -69t28 -104
q0 -97 -61.5 -153t-161.5 -56q-65 0 -115.5 25zM258 513q0 25 -8.5 38t-28.5 13q-38 0 -38 -51t39 -51q36 0 36 51zM515.5 144.5q14.5 18.5 14.5 49.5q0 33 -14.5 51t-40.5 18q-25 0 -40 -18.5t-15 -50.5q0 -30 15.5 -49t39.5 -19q26 0 40.5 18.5z" />
    <glyph glyph-name="uni10D7.case" horiz-adv-x="837" 
d="M807 345q0 -84 -11 -158.5t-25 -124t-21 -62.5h-163q5 14 16.5 73.5t21 134t9.5 137.5q0 81 -4 123.5t-21.5 69t-55.5 26.5q-36 0 -68 -25q25 -79 25 -194q0 -360 -240 -360t-240 360t240 360q97 0 153 -58q32 28 69.5 43t74.5 15q240 0 240 -360zM315.5 152.5
q14.5 26.5 18 69.5t3.5 123t-3.5 123t-18 69.5t-45.5 26.5t-45.5 -26.5t-18 -69.5t-3.5 -123t3.5 -123t18 -69.5t45.5 -26.5t45.5 26.5z" />
    <glyph glyph-name="uni10D8.case" horiz-adv-x="560" 
d="M76 62.5q-14 49.5 -25 124t-11 158.5q0 360 240 360t240 -360q0 -84 -11 -158.5t-25 -124t-21 -62.5h-163q5 14 16.5 73.5t21 134t9.5 137.5q0 80 -3.5 123t-18 69.5t-45.5 26.5t-45.5 -26.5t-18 -69.5t-3.5 -123q0 -63 9.5 -137.5t21 -134t16.5 -73.5h-163
q-7 13 -21 62.5z" />
    <glyph glyph-name="uni10D9.case" horiz-adv-x="544" 
d="M140.5 11q-52.5 26 -81.5 71t-29 100q0 75 53 145l146 -63q-10 -15 -18 -37.5t-8 -39.5q0 -26 16.5 -44t44.5 -18q33 0 49.5 18t16.5 57v63q0 33 -22 55.5t-57 22.5h-57v133h21q32 0 52 18t20 49q0 26 -15.5 51t-45.5 46l121 64q53 -25 82 -66.5t29 -86.5
q0 -37 -20.5 -68.5t-60.5 -50.5v-4q52 -18 84.5 -59t32.5 -86v-86q0 -63 -30 -110.5t-83 -73.5t-121 -26q-67 0 -119.5 26z" />
    <glyph glyph-name="uni10DA.case" horiz-adv-x="1092" 
d="M591 67q-63 25 -137 35t-133 10q-53 0 -104.5 -6.5t-86.5 -17.5v124q19 5 47 8.5t47 3.5h8v4q-92 28 -147 88.5t-55 155.5q0 62 26 115.5t77 85.5t121 32q47 0 86 -21.5t64 -60.5h2q19 39 56 60.5t84 21.5q48 0 88.5 -22t52.5 -60h2q17 38 59 60t92 22q72 0 122 -28
t75 -76.5t25 -108.5q0 -56 -21.5 -100.5t-43.5 -63.5l-146 56q11 12 25 44t14 64q0 33 -18.5 52.5t-47.5 19.5q-23 0 -38.5 -16.5t-15.5 -48.5v-92h-164v92q0 33 -16 49t-44 16t-43.5 -16t-15.5 -49v-92h-164v92q0 33 -15 49t-40 16q-30 0 -47.5 -24t-17.5 -58
q0 -85 62 -141t186 -91q96 -27 170.5 -53.5t144.5 -77.5t70 -119h-164q-18 42 -81 67z" />
    <glyph glyph-name="uni10DB.case" horiz-adv-x="530" 
d="M149 10q-51 25 -79.5 72t-28.5 112q0 64 27.5 111.5t73 73t98.5 25.5q23 0 45.5 -7.5t35.5 -20.5h3v123q0 32 -17 48.5t-47 16.5q-26 0 -41.5 -14t-15.5 -37q0 -19 8 -37l-153 -58q-28 47 -28 101q0 51 31 93.5t84 67.5t115 25q64 0 116.5 -26t83 -71.5t30.5 -102.5v-311
q0 -64 -29 -111.5t-80 -72.5t-115 -25q-66 0 -117 25zM308.5 145q15.5 19 15.5 49q0 32 -15 50.5t-40 18.5q-26 0 -40.5 -18t-14.5 -51q0 -31 14.5 -49.5t40.5 -18.5q24 0 39.5 19z" />
    <glyph glyph-name="uni10DC.case" horiz-adv-x="537" 
d="M149 10q-51 25 -80 72.5t-29 111.5v332q0 83 49 131t146 48q36 0 82 -8q42 -6 62 -6q22 0 47 3.5t40 10.5l41 -125q-20 -14 -52 -22t-66 -8q-21 0 -39 3.5t-44 9.5q-36 9 -54 9q-48 0 -48 -42v-154h3q12 12 36 20t47 8q53 0 98 -25.5t72 -73t27 -111.5q0 -65 -28.5 -112
t-79 -72t-115.5 -25q-64 0 -115 25zM299.5 144.5q14.5 18.5 14.5 49.5q0 33 -14.5 51t-40.5 18q-25 0 -40 -18.5t-15 -50.5q0 -30 15.5 -49t39.5 -19q26 0 40.5 18.5z" />
    <glyph glyph-name="uni10DD.case" horiz-adv-x="942" 
d="M918 39q-64 3 -142 38q-16 -61 -25 -77h-163q5 14 16.5 73.5t21 134t9.5 137.5q0 80 -3.5 123t-18 69.5t-45.5 26.5t-45.5 -27t-18 -70t-3.5 -122v-141h-164v141q0 79 -3.5 122t-18 70t-45.5 27t-45.5 -26.5t-18 -69.5t-3.5 -123q0 -63 9.5 -137.5t21 -134t16.5 -73.5
h-163q-7 13 -21 62.5t-25 124t-11 158.5q0 161 52.5 260.5t177.5 99.5q60 0 99 -24.5t59 -58.5h2q20 34 59 58.5t99 24.5q125 0 177.5 -99.5t52.5 -260.5q0 -74 -10 -147q65 -22 139 -28z" />
    <glyph glyph-name="uni10DE.case" horiz-adv-x="556" 
d="M143.5 7.5q-56.5 22.5 -90 67t-33.5 107.5q0 65 32 105l155 -46q-14 -30 -14 -54q0 -27 17 -44t51 -17q33 0 52 21t19 60q0 94 -98 94h-39v156h53q28 0 44 4.5t16 20.5q0 11 -10.5 17t-35.5 16q-25 9 -44 19q-38 21 -63 59t-25 97h164q0 -23 17.5 -34.5t55.5 -25.5
q36 -13 58.5 -25.5t39 -36.5t16.5 -62q0 -43 -21.5 -72.5t-73.5 -45.5v-2q47 -17 83.5 -62t36.5 -123q0 -62 -31 -111.5t-85.5 -77t-122.5 -27.5q-67 0 -123.5 22.5z" />
    <glyph glyph-name="uni10DF.case" horiz-adv-x="604" 
d="M174.5 7q-57.5 22 -90.5 64.5t-33 100.5q0 54 30 104l151 -38q-8 -21 -8 -43q0 -33 24 -51t64 -18q88 0 88 91v371l-2 1q-12 -8 -49.5 -19.5t-61.5 -15.5v-2q25 -11 43.5 -37t18.5 -60q0 -56 -47 -88.5t-121 -32.5q-73 0 -119 32.5t-52 91.5l121 33q8 -44 48 -44
q20 0 31 11t11 28q0 28 -19.5 40.5t-56.5 21.5l32 93q70 6 123 22t100 49h164v-501q0 -111 -70 -168.5t-188 -57.5q-74 0 -131.5 22z" />
    <glyph glyph-name="uni10E0.case" horiz-adv-x="768" 
d="M54.5 78q-28.5 57 -28.5 138q0 48 18 91.5t43.5 78t68.5 84.5q37 43 57.5 70t34.5 56q25 53 28 96h164q-4 -72 -35 -130q-28 -51 -57.5 -77t-72.5 -52q-34 -20 -55 -36l2 -2q15 10 37 10q44 0 77 -25t47 -57h2q20 39 61.5 60.5t89.5 21.5q54 0 101.5 -29.5t76 -77.5
t28.5 -102q0 -70 -30 -124t-90 -86l-117 86q31 25 47.5 57t16.5 64q0 34 -16.5 52.5t-37.5 18.5q-19 0 -34 -17t-15 -47v-78h-163v78q0 30 -15 47t-35 17q-21 0 -37.5 -18.5t-16.5 -51.5t16.5 -65t47.5 -57l-117 -86q-63 35 -91.5 92z" />
    <glyph glyph-name="uni10E1.case" horiz-adv-x="523" 
d="M153 8.5q-52 23.5 -82.5 69t-30.5 108.5v504h164v-498q0 -32 18 -49t45 -17t45 17t18 49q0 23 -5 38.5t-16 38.5q-10 21 -15 35t-5 33q0 43 16 75h160q-9 -34 -9 -65q0 -21 5.5 -37.5t16.5 -38.5q13 -27 19 -46t6 -48q0 -59 -32 -102.5t-85.5 -66.5t-116.5 -23
q-64 0 -116 23.5z" />
    <glyph glyph-name="uni10E2.case" horiz-adv-x="774" 
d="M215.5 19.5q-79.5 34.5 -127.5 97.5t-48 144q0 199 231 262v3q-10 8 -17.5 26t-7.5 42q0 27 16.5 52.5t48.5 42t76 16.5t76 -16.5t48.5 -42t16.5 -52.5q0 -24 -7 -42t-18 -26v-3q231 -63 231 -262q0 -81 -48 -144t-127.5 -97.5t-171.5 -34.5t-171.5 34.5zM413.5 543.5
q10.5 12.5 10.5 30.5t-10 30t-27 12t-27 -12t-10 -30t10.5 -30.5t26.5 -12.5t26.5 12.5zM414 349q10 13 10 32q0 17 -10 29.5t-27 12.5t-27 -12.5t-10 -29.5q0 -19 10 -32t27 -13t27 13zM514 157.5q47 41.5 47 118.5q0 44 -14.5 76t-52.5 60l-4 -3q22 -24 22 -63
q0 -44 -37.5 -72.5t-87.5 -28.5t-87.5 28.5t-37.5 72.5q0 39 22 63l-4 3q-38 -28 -52.5 -60t-14.5 -76q0 -77 47 -118.5t127 -41.5t127 41.5z" />
    <glyph glyph-name="uni10E3.case" horiz-adv-x="839" 
d="M333.5 13q-65.5 28 -101.5 78t-36 114t41 137l144 -66q-12 -25 -12 -50q0 -43 32 -71.5t87 -28.5q63 0 100 30t37 94v271q0 18 -11 30.5t-28 12.5q-18 0 -28.5 -12t-10.5 -30v-112h-142v139q0 6 -5.5 10.5t-15.5 4.5q-15 0 -22.5 -11t-18.5 -37q-6 -14 -14 -30.5
t-18 -28.5q-44 -55 -139 -55q-55 0 -92.5 25t-56 64.5t-18.5 85.5q0 57 24 113h156q-12 -26 -19 -54t-7 -51q0 -42 21 -42q11 0 18.5 11t16.5 35q17 39 31 60q40 56 120 56q73 0 109 -73h2q17 33 51.5 53t82.5 20q89 0 133.5 -48t44.5 -128v-284q0 -127 -77.5 -193.5
t-227.5 -66.5q-85 0 -150.5 28z" />
    <glyph glyph-name="uni10E4.case" horiz-adv-x="782" 
d="M270.5 35.5q-73.5 50.5 -73.5 137.5q0 41 20 92l158 -36q-5 -14 -5 -30q0 -34 27.5 -53.5t73.5 -19.5q49 0 75.5 21t26.5 59v44q0 25 -13 38.5t-39 13.5h-17v141h14q51 0 51 60q0 34 -13.5 51t-35.5 17q-18 0 -29.5 -3.5t-21.5 -13.5q4 -6 8 -22.5t4 -34.5
q0 -57 -30 -100t-81.5 -66t-114.5 -23t-114 23.5t-81 68.5t-30 106q0 62 30 107t81 68.5t114 23.5q45 0 86 -15.5t62 -39.5h3q45 55 143 55q58 0 102 -24t67.5 -63t23.5 -83q0 -46 -13.5 -77t-32 -48.5t-47.5 -35.5v-3q32 -9 60 -41t28 -80v-39q0 -110 -74 -168t-194 -58
q-125 0 -198.5 50.5zM293.5 465q14.5 16 14.5 41t-14.5 41.5t-38.5 16.5q-25 0 -38.5 -16t-13.5 -42q0 -25 13.5 -41t38.5 -16q24 0 38.5 16z" />
    <glyph glyph-name="uni10E5.case" horiz-adv-x="544" 
d="M78 36q-68 51 -68 148q0 52 27 92l157 -40q-11 -27 -11 -49q0 -26 20.5 -44t57.5 -18q79 0 79 84v129l-60 15q-26 6 -39 6q-9 0 -18 -6t-9 -19q0 -10 4 -20l-117 -11q-28 36 -28 91q0 45 37 67t91 22q48 0 116 -20l23 -7v108h-7l-123 -31l-36 107l187 50h143v-492
q0 -65 -31 -113t-87 -74t-129 -26q-111 0 -179 51z" />
    <glyph glyph-name="uni10E6.case" horiz-adv-x="773" 
d="M413 83.5q-59 26.5 -137 26.5q-82 0 -151 -21v124q41 12 77 12h5v4q-90 42 -133.5 104t-43.5 152q0 64 27.5 114t74 78t101.5 28q59 0 98 -25t52 -58h3q7 19 29 38.5t54 32t67 12.5q55 0 102.5 -24.5t76 -70.5t28.5 -108q0 -49 -15 -96t-40 -78l-151 62q33 54 33 102
q0 38 -16 55t-39 17q-20 0 -34 -14.5t-14 -44.5v-102h-165v102q0 30 -13.5 44.5t-34.5 14.5q-23 0 -37 -20.5t-14 -62.5q0 -61 21.5 -101t60 -67t103.5 -56q79 -36 126 -62.5t89.5 -76t42.5 -118.5h-162q-12 57 -71 83.5z" />
    <glyph glyph-name="uni10E7.case" horiz-adv-x="544" 
d="M96.5 37.5q-66.5 52.5 -66.5 154.5q0 52 18 86.5t32 48.5l149 -63q-10 -15 -18 -37.5t-8 -39.5q0 -27 17 -44.5t51 -17.5q33 0 51 17t18 48v226h-3q-10 -10 -37 -19.5t-58 -9.5q-96 0 -150 49t-54 137q0 36 10 68t23 49h164q-5 -5 -14.5 -35t-9.5 -63t19 -52t45 -19
q28 0 47.5 22t19.5 68v79h162v-506q0 -58 -30.5 -103t-84.5 -70.5t-122 -25.5q-104 0 -170.5 52.5z" />
    <glyph glyph-name="uni10E8.case" horiz-adv-x="713" 
d="M332 10q-51 25 -79.5 72t-28.5 112q0 64 27.5 111.5t73 73t98.5 25.5q23 0 47 -8t36 -20h3v141q0 26 -11.5 40.5t-29.5 14.5q-19 0 -30.5 -13t-11.5 -39v-60h-155v60q0 26 -11.5 39t-31.5 13q-40 0 -40 -50q0 -33 25 -69l-141 -69q-24 25 -40.5 59.5t-16.5 94.5
q0 42 21 80.5t64.5 63t106.5 24.5q52 0 88.5 -19.5t52.5 -52.5h2q17 32 56 52t88 20q89 0 134 -48.5t45 -128.5v-335q0 -64 -29 -111.5t-80 -72.5t-115 -25q-66 0 -117 25zM493.5 145q15.5 19 15.5 49q0 32 -15 50.5t-40 18.5q-26 0 -40.5 -18t-14.5 -51q0 -31 14.5 -49.5
t40.5 -18.5q24 0 39.5 19z" />
    <glyph glyph-name="uni10E9.case" horiz-adv-x="502" 
d="M40 515q0 91 52 140.5t149 49.5q90 0 145 -40.5t55 -107.5q0 -65 -43.5 -100.5t-86 -46t-107.5 -20.5v-46h4q13 13 41 22.5t58 9.5q47 0 87 -24.5t64 -70.5t24 -106q0 -96 -48 -175h-164q20 41 29.5 83t9.5 78q0 37 -12 55.5t-38 18.5q-27 0 -41 -16t-14 -42v-177h-164
v515zM251.5 510.5q16.5 13.5 16.5 35.5q0 12 -6.5 22.5t-24.5 10.5q-17 0 -25 -11.5t-8 -25.5v-56q31 11 47.5 24.5z" />
    <glyph glyph-name="uni10EA.case" horiz-adv-x="748" 
d="M205.5 32.5q-87.5 47.5 -136.5 135t-49 202.5q0 200 162 335l132 -93q-61 -59 -91 -119t-30 -127q0 -72 26.5 -126t75 -84t114.5 -30t106 28t40 79q0 44 -26 60t-59 16h-40v156h67q24 0 37.5 7.5t13.5 26.5q0 16 -9.5 24.5t-32.5 20.5q-16 7 -30 16q-38 23 -55.5 51.5
t-17.5 78.5h164q0 -13 14.5 -31.5t42.5 -37.5q17 -11 19 -13q39 -24 58.5 -45t19.5 -58q0 -47 -28 -75t-72 -40v-2q43 -20 75 -52.5t32 -99.5q0 -69 -40.5 -126.5t-114 -91t-168.5 -33.5q-112 0 -199.5 47.5z" />
    <glyph glyph-name="uni10EB.case" horiz-adv-x="519" 
d="M138 10q-51 25 -79.5 72t-28.5 112q0 64 27.5 111.5t73 73t98.5 25.5q23 0 47 -8t36 -20h3v314h164v-496q0 -64 -29 -111.5t-80 -72.5t-115 -25q-66 0 -117 25zM299.5 145q15.5 19 15.5 49q0 32 -15 50.5t-40 18.5q-26 0 -40.5 -18t-14.5 -51q0 -31 14.5 -49.5
t40.5 -18.5q24 0 39.5 19z" />
    <glyph glyph-name="uni10EC.case" horiz-adv-x="713" 
d="M101 298q-81 153 -81 225q0 89 52.5 135.5t137.5 46.5q108 0 147 -76h2q16 33 53 54.5t91 21.5q57 0 100.5 -24t66.5 -63t23 -81q0 -28 -9 -58.5t-23 -52.5l-156 43q1 2 8 14.5t7 29.5q0 24 -11.5 37.5t-30.5 13.5t-30.5 -14t-11.5 -40v-52h-156v52q0 26 -12.5 40
t-30.5 14t-31 -14.5t-13 -40.5q0 -45 33 -106l7 -13h430v-17l-197 -373h-206zM370 113l76 154h-160l80 -154h4z" />
    <glyph glyph-name="uni10ED.case" horiz-adv-x="649" 
d="M98 28q-69 43 -69 121q0 29 9 54t18 39l155 -26q-9 -22 -9 -43q0 -23 20 -38.5t54 -15.5t54 15.5t20 38.5q0 22 -3.5 35t-15.5 39l-10 25q-17 -10 -45 -16t-52 -6q-55 0 -100.5 26.5t-45.5 85.5q0 60 45.5 86t100.5 26q23 0 51 -5t44 -14q4 27 4 72q0 20 -21 27l-33 10
h-6q-1 -7 -2.5 -23.5t-4.5 -29.5h-146q7 29 12 83t5 96h98l166 -43q96 -25 96 -82q0 -31 -8.5 -67.5t-27.5 -88.5h4q34 16 61 33.5t31 23.5l102 -53q-10 -7 -42.5 -22t-72.5 -29q33 -19 72.5 -35t42.5 -17l-102 -54q-51 24 -92 56h-4q6 -20 29 -63q17 -30 25.5 -52.5
t8.5 -47.5q0 -47 -29.5 -84.5t-83.5 -58.5t-125 -21q-109 0 -178 43zM305 356v13q-22 19 -48 19q-38 0 -38 -26q0 -24 38 -24q24 0 48 18z" />
    <glyph glyph-name="uni10EE.case" horiz-adv-x="519" 
d="M149 10q-51 25 -80 72.5t-29 111.5v496h164v-314h3q48 96 135 182l110 -90q-24 -20 -50.5 -45t-41.5 -41l1 -2q18 -8 27 -13q46 -26 73.5 -69.5t27.5 -103.5q0 -97 -62 -153t-163 -56q-64 0 -115 25zM299.5 144.5q14.5 18.5 14.5 49.5q0 33 -14.5 51t-40.5 18
q-25 0 -40 -18.5t-15 -50.5q0 -30 15.5 -49t39.5 -19q26 0 40.5 18.5z" />
    <glyph glyph-name="uni10EF.case" horiz-adv-x="855" 
d="M819 288q21 -37 21 -71q0 -45 -27 -82t-72.5 -58t-99.5 -21q-55 0 -97.5 22t-65.5 61l-88 150l-74 -30q40 -12 67 -49.5t27 -77.5q0 -65 -50.5 -106t-136.5 -41q-85 0 -136.5 44.5t-51.5 115.5l140 17q0 -18 12 -31t30 -13q17 0 27 10t10 27q0 23 -21.5 41t-58.5 18
l-50 114l195 83l-79 134q-11 18 -30 18q-9 0 -15.5 -6t-6.5 -17q0 -26 36 -62l-135 -70q-74 57 -74 145q0 41 25 75.5t70 55t102 20.5q136 0 190 -97l73 -130l135 57q17 7 17 21q0 7 -6 11t-14 4q-9 0 -22.5 -5.5t-23.5 -16.5l-93 87q31 37 70 53.5t89 16.5q48 0 88 -21.5
t62.5 -57.5t22.5 -77q0 -48 -28.5 -84t-103.5 -66l-122 -49l76 -136q6 -10 13 -14t18 -4q9 0 15.5 6.5t6.5 16.5q0 12 -8.5 26.5t-32.5 38.5l116 75q48 -34 69 -71z" />
    <glyph glyph-name="uni10F0.case" horiz-adv-x="532" 
d="M96.5 26q-63.5 41 -76.5 113l157 36q7 -27 27.5 -38t46.5 -11q31 0 49.5 11t18.5 33q0 16 -14.5 26t-39.5 10h-70v124h73q15 0 24.5 6.5t9.5 17.5q0 12 -9.5 18.5t-24.5 6.5h-73v121h73q11 0 19.5 5t8.5 15t-11.5 15.5t-34.5 10.5q-39 10 -64.5 22t-45.5 41.5t-20 80.5
h164q7 -15 25 -24.5t50 -20.5q36 -13 57.5 -24t37 -31.5t15.5 -52.5q0 -33 -20.5 -57t-54.5 -36v-2q38 -12 59.5 -32t21.5 -56q0 -66 -79 -92v-2q39 -13 67.5 -43t28.5 -80q0 -46 -32 -80.5t-86 -53t-117 -18.5q-97 0 -160.5 41z" />
    <glyph glyph-name="uni10F1.case" horiz-adv-x="801" 
d="M236.5 27.5q-92.5 42.5 -149.5 130t-57 216.5q0 101 37 176t93 115t111 40q65 0 105 -40.5t40 -105.5q0 -98 -45.5 -197.5t-125.5 -154.5q34 -41 81 -61t114 -20q68 0 113 26.5t45 71.5q0 37 -26 50.5t-59 13.5h-40v156h67q21 0 35 8.5t14 26.5q0 19 -9.5 29t-30.5 22
l-30 18q-36 25 -54.5 59.5t-18.5 83.5h164q2 -21 15.5 -36.5t41.5 -32.5q34 -22 64.5 -58t30.5 -81q0 -46 -31 -74t-77 -41v-2q34 -9 58.5 -22.5t41.5 -44t17 -82.5q0 -60 -43 -113.5t-119.5 -86t-172.5 -32.5q-107 0 -199.5 42.5zM261 438q16 62 16 107q0 19 -16 19
q-12 0 -28 -21.5t-27.5 -61t-11.5 -91.5q0 -42 6 -66q45 52 61 114z" />
    <glyph glyph-name="uni10F2.case" horiz-adv-x="638" 
d="M77 -7.5q-42 7.5 -62 17.5l40 136q12 -7 35 -14t50.5 -12t46.5 -5v3q-40 33 -72 104.5t-32 177.5q0 69 23.5 139t76.5 118t136 48t136 -48t76.5 -118t23.5 -139q0 -106 -32 -177.5t-72 -104.5v-3q18 0 45 5t52 12q23 7 35 14l40 -136q-20 -10 -62 -17.5t-79 -7.5
q-50 0 -94.5 14t-68.5 33q-24 -19 -68.5 -33t-94.5 -14q-37 0 -79 7.5zM363.5 244q18.5 55 18.5 139q0 56 -14 118.5t-49 62.5t-49 -62.5t-14 -118.5q0 -84 18.5 -139t44.5 -76q26 21 44.5 76z" />
    <glyph glyph-name="uni10F3.case" horiz-adv-x="544" 
d="M96.5 37.5q-66.5 52.5 -66.5 154.5q0 52 18 86.5t32 48.5l149 -63q-10 -15 -18 -37.5t-8 -39.5q0 -27 17 -44.5t51 -17.5q33 0 51 17t18 48v71q0 44 -18 59.5t-66 15.5h-85v107l105 106h-202v141h416v-109l-145 -144l1 -1q71 0 114.5 -49t43.5 -125v-78q0 -58 -30.5 -103
t-84.5 -70.5t-122 -25.5q-104 0 -170.5 52.5z" />
    <glyph glyph-name="uni10F4.case" horiz-adv-x="534" 
d="M145 8q-52 23 -83.5 69.5t-31.5 114.5q0 25 4 42l171 -29q-2 -12 -2 -18q0 -26 16.5 -43.5t44.5 -17.5q66 0 66 54v9q0 22 -14 36.5t-39 14.5h-60v124h63q13 0 18.5 3.5t5.5 10.5q0 9 -12 13t-39 9q-45 8 -76.5 20t-55.5 42.5t-24 86.5q0 45 25 80.5t70 55.5t102 20
q80 0 148 -45l-79 -106q-31 17 -70 17q-18 0 -27 -8t-9 -17q0 -15 17 -22.5t56 -16.5q45 -10 74.5 -21t51 -35.5t21.5 -66.5q0 -62 -79 -88v-2q43 -14 69.5 -37.5t26.5 -72.5v-20q0 -86 -64 -132.5t-170 -46.5q-63 0 -115 23z" />
    <glyph glyph-name="uni10F5.case" horiz-adv-x="607" 
d="M97.5 33.5q-57.5 48.5 -57.5 129.5q0 79 52.5 119t125.5 40h69v46h-69q-73 0 -125.5 40t-52.5 119q0 81 57.5 129.5t148.5 48.5q95 0 151 -55t56 -145v-20h124v-117h-124v-46h124v-117h-124v-20q0 -90 -56 -145t-151 -55q-91 0 -148.5 48.5zM289 485v35q0 51 -38 51
t-38 -43q0 -20 10.5 -31.5t29.5 -11.5h36zM289 170v35h-36q-19 0 -29.5 -11.5t-10.5 -31.5q0 -43 38 -43t38 51z" />
    <glyph glyph-name="uni10F6.case" horiz-adv-x="776" 
d="M306 182l-2 1q-36 -32 -89 -32q-47 0 -89.5 27t-69 77t-26.5 115q0 66 26 116.5t69 77.5t90 27q54 0 89 -33l2 1v131h164v-131l2 -1q35 33 89 33q47 0 90 -27t69 -77.5t26 -116.5q0 -65 -26.5 -115t-69 -77t-89.5 -27q-53 0 -89 32l-2 -1v-182h-164v182zM291 313
q15 21 15 57q0 38 -15 59t-36 21t-36.5 -21t-15.5 -59q0 -36 15.5 -57t36.5 -21t36 21zM557.5 313q15.5 21 15.5 57q0 38 -15.5 59t-36.5 21t-36 -21t-15 -59q0 -36 15 -57t36 -21t36.5 21z" />
    <glyph glyph-name="uni10F7.case" horiz-adv-x="596" 
d="M154 11q-62 26 -98 74.5t-36 114.5q0 60 44 108.5t113 86.5q16 9 30 16l24 12q57 30 82 47.5t25 38.5q0 55 -59 55q-25 0 -41.5 -13t-16.5 -39q0 -12 3 -23l-160 -38q-16 43 -16 71q0 51 32 93t86 66t116 24q100 0 163.5 -49t63.5 -133q0 -50 -29.5 -89.5t-72 -68
t-101.5 -59.5q-44 -23 -64.5 -35.5t-34.5 -30t-14 -41.5q0 -34 29 -53.5t71 -19.5q41 0 70 20t29 54q0 33 -17 67l154 52q17 -29 26.5 -56t9.5 -64q0 -60 -37.5 -109t-100 -77t-134.5 -28q-77 0 -139 26z" />
    <glyph glyph-name="uni10F8.case" horiz-adv-x="544" 
d="M155 10.5q-54 25.5 -84.5 70.5t-30.5 103v506h162v-79q0 -46 19.5 -68t47.5 -22q26 0 45 19t19 52t-9.5 63t-14.5 35h164q13 -17 23 -49t10 -68q0 -88 -54 -137t-150 -49q-31 0 -58 9.5t-37 19.5h-3v-226q0 -31 18 -48t51 -17q34 0 51 17.5t17 44.5q0 17 -8 39.5
t-18 37.5l149 63q14 -14 32 -48.5t18 -86.5q0 -102 -66.5 -154.5t-170.5 -52.5q-68 0 -122 25.5z" />
    <glyph glyph-name="uni10F9.case" horiz-adv-x="606" 
d="M422.5 675q57.5 -30 88 -83t30.5 -118q0 -91 -62 -142t-150 -86v-77q0 -17 10 -30t31 -13t32 13.5t11 32.5q0 11 -4.5 23.5t-10.5 25.5l150 59q13 -16 25.5 -46t12.5 -71q0 -52 -27.5 -92.5t-77.5 -63t-113 -22.5q-92 0 -147.5 48.5t-55.5 127.5v108q-130 84 -130 204
q0 67 30.5 119.5t87.5 82.5t134 30q78 0 135.5 -30zM228.5 542.5q-20.5 -24.5 -20.5 -62.5q0 -33 17 -57t49 -47q41 12 67.5 37.5t26.5 66.5q0 39 -20 63t-60 24q-39 0 -59.5 -24.5z" />
    <glyph glyph-name="uni10FA.case" horiz-adv-x="609" 
d="M80 142h90v4q-67 34 -103.5 90.5t-36.5 158.5q0 145 76 227.5t214 82.5q112 0 177 -55t82 -155l-152 -39q-10 55 -36.5 81.5t-70.5 26.5q-117 0 -117 -183q0 -118 45.5 -171.5t124.5 -53.5h174v-156h-467v142z" />
    <glyph glyph-name="uni10FD.case" horiz-adv-x="596" 
d="M168.5 13q-62.5 28 -100 77t-37.5 109q0 37 9.5 64t26.5 56l154 -52q-17 -34 -17 -67q0 -34 29 -54t70 -20q42 0 71 19.5t29 53.5q0 24 -14 41.5t-34.5 30t-64.5 35.5q-59 31 -101.5 59.5t-72 68t-29.5 89.5q0 84 63.5 133t163.5 49q62 0 116 -24t86 -66t32 -93
q0 -28 -16 -71l-160 38q3 11 3 23q0 26 -16.5 39t-41.5 13q-59 0 -59 -55q0 -21 25 -38.5t82 -47.5l24 -12t30 -16q69 -38 113 -86.5t44 -108.5q0 -66 -36 -114.5t-98 -74.5t-139 -26q-72 0 -134.5 28z" />
    <glyph glyph-name="uni10FE.case" horiz-adv-x="638" 
d="M250.5 691q44.5 -14 68.5 -33q24 19 68.5 33t94.5 14q37 0 79 -7.5t62 -17.5l-40 -136q-12 7 -35 14q-25 7 -52 12t-45 5v-3q40 -33 72 -104.5t32 -177.5q0 -69 -23.5 -139t-76.5 -118t-136 -48t-136 48t-76.5 118t-23.5 139q0 106 32 177.5t72 104.5v3q-19 0 -46.5 -5
t-50.5 -12t-35 -14l-40 136q20 10 62 17.5t79 7.5q50 0 94.5 -14zM274.5 446q-18.5 -55 -18.5 -139q0 -56 14 -118.5t49 -62.5t49 62.5t14 118.5q0 84 -18.5 139t-44.5 76q-26 -21 -44.5 -76z" />
    <glyph glyph-name="uni10FF.case" horiz-adv-x="572" 
d="M92 82.5q-62 97.5 -62 262.5t62 262.5t194 97.5t194 -97.5t62 -262.5t-62 -262.5t-194 -97.5t-194 97.5zM350.5 181q18.5 55 18.5 164t-18.5 164t-64.5 55t-64.5 -55t-18.5 -164t18.5 -164t64.5 -55t64.5 55z" />
    <glyph glyph-name="uni10DC.uc" horiz-adv-x="506" 
d="M149.5 10q-46.5 25 -73 70.5t-26.5 104.5v361q0 82 47 130.5t139 48.5q34 0 78 -8q35 -7 59 -7q36 0 64 14l39 -121q-19 -13 -43.5 -21t-49.5 -8q-20 0 -37.5 3.5t-42.5 9.5q-32 9 -50 9q-23 0 -35 -12t-12 -34v-196h3q12 14 33.5 22.5t42.5 8.5q50 0 91.5 -25t66 -71
t24.5 -104q0 -59 -28 -104.5t-76.5 -70.5t-107.5 -25t-105.5 25zM289 136.5q13 18.5 13 48.5q0 31 -12.5 49.5t-36.5 18.5q-23 0 -36 -18.5t-13 -49.5q0 -29 13.5 -48t35.5 -19q23 0 36 18.5z" />
    <glyph glyph-name="uni10E8.uc" horiz-adv-x="569" 
d="M206.5 10q-48.5 25 -76.5 70.5t-28 104.5q0 58 24.5 104t66 71t91.5 25q21 0 42.5 -8.5t33.5 -22.5h3v181q0 29 -10 45t-27 16q-18 0 -27.5 -15t-9.5 -44v-63h-136v63q0 59 -37 59q-9 0 -17.5 -5.5t-12.5 -10.5l-76 117q9 7 34.5 17.5t51.5 10.5q91 0 124 -75h2
q16 35 49 55t79 20q85 0 127 -49t42 -130v-361q0 -59 -26.5 -104.5t-73 -70.5t-105.5 -25t-107.5 25zM351.5 137q13.5 19 13.5 48q0 31 -13 49.5t-36 18.5q-24 0 -36.5 -18.5t-12.5 -49.5q0 -30 13 -48.5t36 -18.5q22 0 35.5 19z" />
    <glyph glyph-name="zero.tf" horiz-adv-x="560" 
d="M158 15q-53 30 -82 84t-29 126v240q0 72 29 126t82 84t122 30t122 -30t82 -84t29 -126v-240q0 -72 -29 -126t-82 -84t-122 -30t-122 30zM349 220v250q0 94 -69 94t-69 -94v-250q0 -94 69 -94t69 94z" />
    <glyph glyph-name="one.tf" horiz-adv-x="560" 
d="M128 421v176l175 93h128v-690h-164v495z" />
    <glyph glyph-name="two.tf" horiz-adv-x="560" 
d="M48 135l233 228q68 65 68 126q0 36 -19.5 55.5t-50.5 19.5q-30 0 -52 -20t-29 -53l-161 27q5 52 39 95t88 67.5t115 24.5q67 0 122.5 -25.5t88 -72.5t32.5 -107t-22.5 -112t-76.5 -105l-129 -125l1 -2h219v-156h-466v135z" />
    <glyph glyph-name="three.tf" horiz-adv-x="560" 
d="M114.5 30.5q-65.5 45.5 -81.5 124.5l162 43q7 -33 29.5 -52.5t53.5 -19.5q35 0 55 23t20 61q0 39 -23.5 60.5t-58.5 21.5h-64v138h55q34 0 55.5 18.5t21.5 48.5t-19 48.5t-51 18.5q-31 0 -51.5 -15t-24.5 -37l-153 26q5 49 35.5 87t82.5 59t118 21q63 0 117 -21.5
t86.5 -63.5t32.5 -102q0 -54 -29.5 -94t-85.5 -55v-2q56 -16 92.5 -62.5t36.5 -109.5q0 -60 -33.5 -108t-91.5 -75t-128 -27q-93 0 -158.5 45.5z" />
    <glyph glyph-name="four.tf" horiz-adv-x="560" 
d="M305 118h-288v130l200 442h182l-184 -426h90v146h164v-146h74v-146h-74v-118h-164v118z" />
    <glyph glyph-name="five.tf" horiz-adv-x="560" 
d="M112 30.5q-63 45.5 -79 124.5l162 43q7 -34 27 -53t52 -19q35 0 56.5 21.5t21.5 58.5q0 41 -21 63.5t-57 22.5q-20 0 -38.5 -7.5t-31.5 -20.5l-158 21l54 405h391v-156h-250l-21 -141l2 -1q3 1 16 9.5t36.5 15t53.5 6.5q49 0 95 -27t74.5 -77t28.5 -115
q0 -68 -32.5 -117.5t-90 -75.5t-130.5 -26q-98 0 -161 45.5z" />
    <glyph glyph-name="six.tf" horiz-adv-x="560" 
d="M156 14q-57 29 -90 80t-33 114q0 43 13.5 86t43.5 101l153 295h187l-153 -281l2 -2q27 16 57 16q48 0 92 -24.5t71.5 -71.5t27.5 -110q0 -68 -33 -121t-89 -82t-124 -29t-125 29zM334 148.5q20 22.5 20 60.5t-20 61t-54 23t-54 -23t-20 -61t20 -60.5t54 -22.5t54 22.5z
" />
    <glyph glyph-name="seven.tf" horiz-adv-x="560" 
d="M304 534h-238v156h428v-110l-206 -580h-172z" />
    <glyph glyph-name="eight.tf" horiz-adv-x="560" 
d="M153 11q-57 26 -90.5 75.5t-33.5 116.5q0 111 102 172v2q-37 27 -58.5 60t-21.5 78q0 53 30 96.5t82.5 68.5t116.5 25t116.5 -25t82.5 -68.5t30 -96.5q0 -45 -21.5 -78t-58.5 -60v-2q41 -20 71.5 -67.5t30.5 -104.5q0 -67 -33.5 -116.5t-90.5 -75.5t-127 -26t-127 26z
M322 452.5q16 17.5 16 47.5t-16 48t-42 18t-42 -18t-16 -48t16 -47.5t42 -17.5t42 17.5zM334 148.5q20 22.5 20 60.5t-20 61t-54 23t-54 -23t-20 -61t20 -60.5t54 -22.5t54 22.5z" />
    <glyph glyph-name="nine.tf" horiz-adv-x="560" 
d="M404 676q57 -29 90 -80t33 -114q0 -43 -13.5 -86t-43.5 -101l-153 -295h-187l153 281l-2 2q-27 -16 -57 -16q-48 0 -92 24.5t-71.5 71.5t-27.5 110q0 68 33 121t89 82t124 29t125 -29zM226 541.5q-20 -22.5 -20 -60.5t20 -61t54 -23t54 23t20 61t-20 60.5t-54 22.5
t-54 -22.5z" />
    <glyph glyph-name="backslash.uc" horiz-adv-x="441" 
d="M285 -74l-285 816h160l281 -816h-156z" />
    <glyph glyph-name="periodcentered.uc" horiz-adv-x="222" 
d="M57 291q-27 27 -27 64t27 64t64 27t64 -27t27 -64t-27 -64t-64 -27t-64 27z" />
    <glyph glyph-name="bullet.uc" horiz-adv-x="436" 
d="M363 256.5q-23 -38.5 -61.5 -61.5t-83.5 -23t-83.5 23t-61.5 61.5t-23 83.5t23 83.5t61.5 61.5t83.5 23t83.5 -23t61.5 -61.5t23 -83.5t-23 -83.5z" />
    <glyph glyph-name="colon.uc" horiz-adv-x="222" 
d="M57 155q-27 27 -27 64t27 64t64 27t64 -27t27 -64t-27 -64t-64 -27t-64 27zM57 398q-27 27 -27 64t27 64t64 27t64 -27t27 -64t-27 -64t-64 -27t-64 27z" />
    <glyph glyph-name="semicolon.uc" horiz-adv-x="224" 
d="M59 398q-27 27 -27 64t27 64t64 27t64 -27t27 -64t-27 -64t-64 -27t-64 27zM89.5 89.5q16.5 23.5 17.5 45.5q-35 0 -61 25t-26 63t26 62.5t61 24.5q40 0 67.5 -28.5t27.5 -75.5q0 -67 -24.5 -119t-86.5 -93l-41 53q23 19 39.5 42.5z" />
    <glyph glyph-name="slash.uc" horiz-adv-x="441" 
d="M281 742h160l-285 -816h-156z" />
    <glyph glyph-name="braceleft.uc" horiz-adv-x="405" 
d="M88.5 424q12.5 19 12.5 66v82q0 69 38.5 119.5t97 76.5t116.5 26h22v-155q-40 -1 -63 -9t-34.5 -28.5t-11.5 -58.5v-74q0 -45 -14 -72.5t-51 -46.5q37 -19 51 -46.5t14 -72.5v-74q0 -38 11.5 -58.5t34.5 -28.5t63 -9v-155h-22q-58 0 -116.5 26t-97 76.5t-38.5 119.5v82
q0 47 -12.5 66t-48.5 31v86q36 12 48.5 31z" />
    <glyph glyph-name="braceright.uc" horiz-adv-x="405" 
d="M355 307q-36 -12 -48.5 -31t-12.5 -66v-82q0 -69 -38.5 -119.5t-97 -76.5t-116.5 -26h-22v155q40 1 63 9t34.5 28.5t11.5 58.5v74q0 45 14 72.5t51 46.5q-37 19 -51 46.5t-14 72.5v74q0 38 -11.5 58.5t-34.5 28.5t-63 9v155h22q58 0 116.5 -26t97 -76.5t38.5 -119.5v-82
q0 -47 12.5 -66t48.5 -31v-86z" />
    <glyph glyph-name="bracketleft.uc" horiz-adv-x="329" 
d="M319 794v-156h-113v-576h113v-156h-269v888h269z" />
    <glyph glyph-name="bracketright.uc" horiz-adv-x="329" 
d="M279 -94h-269v156h113v576h-113v156h269v-888z" />
    <glyph glyph-name="parenleft.uc" horiz-adv-x="329" 
d="M319 0h-160q-58 79 -83.5 163.5t-25.5 181.5t25.5 181.5t83.5 163.5h160q-104 -166 -104 -345t104 -345z" />
    <glyph glyph-name="parenright.uc" horiz-adv-x="329" 
d="M10 690h160q58 -79 83.5 -163.5t25.5 -181.5t-25.5 -181.5t-83.5 -163.5h-160q104 166 104 345t-104 345z" />
    <glyph glyph-name="emdash.uc" horiz-adv-x="672" 
d="M665 390v-132h-658v132h658z" />
    <glyph glyph-name="endash.uc" horiz-adv-x="618" 
d="M578 390v-132h-538v132h538z" />
    <glyph glyph-name="hyphen.uc" horiz-adv-x="440" 
d="M410 390v-132h-380v132h380z" />
    <glyph glyph-name="uni00AD.uc" horiz-adv-x="618" 
d="M578 391v-133h-538v133h538z" />
    <glyph glyph-name="guillemotleft.uc" horiz-adv-x="664" 
d="M50 322l214 215l90 -79l-139 -136l139 -136l-90 -76zM310 322l214 215l90 -79l-139 -136l139 -136l-90 -76z" />
    <glyph glyph-name="guillemotright.uc" horiz-adv-x="664" 
d="M50 186l139 136l-139 136l90 79l214 -215l-214 -212zM310 186l139 136l-139 136l90 79l214 -215l-214 -212z" />
    <glyph glyph-name="guilsinglleft.uc" horiz-adv-x="404" 
d="M50 322l214 215l90 -79l-139 -136l139 -136l-90 -76z" />
    <glyph glyph-name="guilsinglright.uc" horiz-adv-x="404" 
d="M50 186l139 136l-139 136l90 79l214 -215l-214 -212z" />
    <glyph glyph-name="plus.uc" horiz-adv-x="507" 
d="M188 120v138h-138v133h138v136h133v-136h136v-133h-136v-138h-133z" />
    <glyph glyph-name="minus.uc" horiz-adv-x="500" 
d="M450 390v-132h-400v132h400z" />
    <glyph glyph-name="multiply.uc" horiz-adv-x="526" 
d="M50 204l120 120l-120 119l93 94l121 -120l118 120l94 -91l-120 -122l120 -118l-94 -94l-118 119l-121 -120z" />
    <glyph glyph-name="equal.uc" horiz-adv-x="500" 
d="M450 280v-132h-400v132h400zM450 500v-132h-400v132h400z" />
    <glyph glyph-name="greater.uc" horiz-adv-x="504" 
d="M50 194l254 130l-254 130v155l404 -206v-158l-404 -206v155z" />
    <glyph glyph-name="less.uc" horiz-adv-x="504" 
d="M50 245v158l404 206v-155l-254 -130l254 -130v-155z" />
    <glyph glyph-name="plusminus.uc" horiz-adv-x="507" 
d="M188 196v138h-138v133h138v136h133v-136h136v-133h-136v-138h-133zM450 177v-132h-400v132h400z" />
    <glyph glyph-name="asciitilde.uc" horiz-adv-x="533" 
d="M50 320q42 49 78 71t78 22q26 0 42 -6.5t41 -21.5q28 -17 44 -17q19 0 36 16t26 29l88 -86q-42 -49 -78 -71t-78 -22q-26 0 -42 6.5t-41 21.5q-28 17 -44 17q-19 0 -36 -16t-26 -29z" />
    <glyph glyph-name="logicalnot.uc" 
d="M50 258v133h487v-274h-133v141h-354z" />
    <glyph glyph-name="uniEOFF" 
 />
    <glyph glyph-name="halfSlash" horiz-adv-x="468" 
d="M335 690h136l-335 -690h-136z" />
    </font>
</defs>
</svg>
