<?xml version="1.0" standalone="no"?>
<!DOCTYPE svg PUBLIC "-//W3C//DTD SVG 1.1//EN" "http://www.w3.org/Graphics/SVG/1.1/DTD/svg11.dtd" >
<svg xmlns="http://www.w3.org/2000/svg" xmlns:xlink="http://www.w3.org/1999/xlink" version="1.1">
<metadata>
Created by FontForge 20161013 at Sun Jun  4 15:28:53 2017
 By ,,,
Copyright (c) 2016 by Beno Gordeziani, Aleksandre Charkviani. All rights reserved.
</metadata>
<defs>
<font id="GLGordeziani-UltraLight" horiz-adv-x="333" >
  <font-face 
    font-family="GL Gordeziani UltraLight"
    font-weight="250"
    font-stretch="normal"
    units-per-em="1000"
    panose-1="0 0 3 0 0 0 0 0 0 0"
    ascent="800"
    descent="-200"
    x-height="710"
    cap-height="710"
    bbox="-49 -320 726 811"
    underline-thickness="50"
    underline-position="-150"
    unicode-range="U+0020-2248"
  />
<missing-glyph horiz-adv-x="510" 
d="M418 -310h-323v1020h323v-1020zM171 642v-34h67v-38h-68v-33h170v33h-68v38h68v34h-169zM170 510v-106h170v35h-68v71h-102zM238 439h-34v36h34v-36zM170 376v-33h68v-38h-68v-34h102v72h68v33h-170zM306 315v-67h-136v-35h170v102h-34zM238 191v-57h34v23h34v-48h-102
v82h-34v-115h170v115h-102zM170 14v-115h170v115h-170zM306 -67h-102v48h102v-48zM170 -124v-34h72l-72 -48v-34h170v34h-104l71 48h33v34h-170z" />
    <glyph glyph-name=".notdef" horiz-adv-x="510" 
d="M418 -310h-323v1020h323v-1020zM171 642v-34h67v-38h-68v-33h170v33h-68v38h68v34h-169zM170 510v-106h170v35h-68v71h-102zM238 439h-34v36h34v-36zM170 376v-33h68v-38h-68v-34h102v72h68v33h-170zM306 315v-67h-136v-35h170v102h-34zM238 191v-57h34v23h34v-48h-102
v82h-34v-115h170v115h-102zM170 14v-115h170v115h-170zM306 -67h-102v48h102v-48zM170 -124v-34h72l-72 -48v-34h170v34h-104l71 48h33v34h-170z" />
    <glyph glyph-name=".null" horiz-adv-x="0" 
 />
    <glyph glyph-name="nonmarkingreturn" 
 />
    <glyph glyph-name="space" unicode=" " horiz-adv-x="179" 
 />
    <glyph glyph-name="exclam" unicode="!" horiz-adv-x="83" 
d="M30 309v392h23v-392l-3 -154h-17zM30 80h23v-80h-23v80z" />
    <glyph glyph-name="quotedbl" unicode="&#x22;" horiz-adv-x="143" 
d="M30 701h23l-2 -162h-19zM91 701h22l-2 -162h-18z" />
    <glyph glyph-name="numbersign" unicode="#" horiz-adv-x="402" 
d="M102 231h-72l1 17h73l25 244h-73l1 17h74l19 192h21l-20 -192h136l20 192h21l-20 -192h64l-2 -17h-64l-25 -244h64l-2 -17h-64l-24 -231h-21l25 231h-137l-24 -231h-21zM260 248l26 244h-137l-25 -244h136z" />
    <glyph glyph-name="dollar" unicode="$" horiz-adv-x="393" 
d="M188 -4q-71 3 -104.5 50.5t-33.5 123.5v35h23v-36q0 -68 29.5 -109.5t93.5 -41.5q65 0 94.5 41t29.5 110q0 41 -17.5 71t-43 51t-68.5 50q-46 30 -73 53t-46 57t-19 80q0 77 33 123t102 50v63h20v-63q69 -4 101.5 -51.5t32.5 -122.5v-13h-22v14q0 68 -29 109.5t-93 41.5
t-93 -41t-29 -109q0 -42 17.5 -73t44 -52.5t69.5 -49.5q45 -30 72 -53t45.5 -56t18.5 -78q0 -75 -32.5 -122.5t-102.5 -51.5v-57h-20v57z" />
    <glyph glyph-name="percent" unicode="%" horiz-adv-x="620" 
d="M71.5 299q-21.5 32 -21.5 82v206q0 50 21.5 82t68.5 32q48 0 69.5 -32t21.5 -82v-206q0 -50 -21.5 -82t-69.5 -32q-47 0 -68.5 32zM438 701h18l-276 -701h-18zM196 310.5q17 27.5 17 69.5v207q0 43 -17 70t-56 27t-55.5 -27t-16.5 -70v-207q0 -42 16.5 -69.5t55.5 -27.5
t56 27.5zM409.5 31.5q-21.5 32.5 -21.5 82.5v203q0 49 22 81.5t69 32.5t69 -32.5t22 -81.5v-203q0 -50 -21.5 -82.5t-69.5 -32.5t-69.5 32.5zM535 44q17 27 17 69v204q0 43 -17 70t-56 27t-55.5 -27t-16.5 -70v-204q0 -42 16.5 -69t55.5 -27t56 27z" />
    <glyph glyph-name="ampersand" unicode="&#x26;" horiz-adv-x="424" 
d="M83.5 39q-33.5 44 -33.5 118v64q0 51 25 91t72 54q-48 11 -72.5 50.5t-24.5 90.5v19q0 84 42.5 129t126.5 45h89v-22h-89q-73 0 -109.5 -38.5t-36.5 -112.5v-23q0 -52 28.5 -88.5t78.5 -39.5h129v78h23v-78h42v-22h-42v-259q0 -34 3.5 -54.5t16.5 -40.5h-26
q-16 31 -16 71q-15 -37 -48 -56.5t-75 -19.5q-70 0 -103.5 44zM275.5 46.5q32.5 30.5 33.5 80.5v227h-123q-53 -4 -83 -40.5t-30 -91.5v-64q0 -65 29 -103.5t90 -38.5q51 0 83.5 30.5z" />
    <glyph glyph-name="quotesingle" unicode="'" horiz-adv-x="82" 
d="M30 701h22l-2 -162h-19z" />
    <glyph glyph-name="parenleft" unicode="(" horiz-adv-x="207" 
d="M58 39.5q-28 39.5 -28 116.5v389q0 76 28 116t100 40h19v-21h-18q-61 0 -83.5 -34t-22.5 -101v-389q0 -67 22 -101t84 -34h18v-21h-19q-72 0 -100 39.5z" />
    <glyph glyph-name="parenright" unicode=")" horiz-adv-x="207" 
d="M30 21h17q61 0 83.5 34t22.5 101v389q0 66 -23 100.5t-83 34.5h-17v21h17q72 0 101 -40t29 -116v-389q0 -76 -28.5 -116t-101.5 -40h-17v21z" />
    <glyph glyph-name="asterisk" unicode="*" horiz-adv-x="366" 
d="M193 693l-3 -148l140 42l6 -20l-143 -34l87 -119l-15 -12l-82 122l-81 -121l-17 11l87 119l-142 37l6 20l140 -45l-4 148h21z" />
    <glyph glyph-name="plus" unicode="+" horiz-adv-x="410" 
d="M196 341h-146v18h146v147h19v-147h145v-18h-145v-149h-19v149z" />
    <glyph glyph-name="comma" unicode="," horiz-adv-x="94" 
d="M41 0v81h23v-80l-22 -68h-12z" />
    <glyph glyph-name="hyphen" unicode="-" horiz-adv-x="238" 
d="M208 361v-22h-178v22h178z" />
    <glyph glyph-name="period" unicode="." horiz-adv-x="83" 
d="M30 81h23v-81h-23v81z" />
    <glyph glyph-name="slash" unicode="/" horiz-adv-x="357" 
d="M306 700h21l-276 -700h-21z" />
    <glyph glyph-name="zero" unicode="0" horiz-adv-x="398" 
d="M86.5 44q-36.5 49 -36.5 128v356q0 80 36.5 128.5t112.5 48.5t112.5 -48.5t36.5 -128.5v-356q0 -79 -36.5 -128t-112.5 -49t-112.5 49zM294.5 58.5q30.5 42.5 30.5 113.5v357q0 70 -30.5 112.5t-95.5 42.5t-95.5 -42.5t-30.5 -112.5v-357q0 -71 30.5 -113.5t95.5 -42.5
t95.5 42.5z" />
    <glyph glyph-name="one" unicode="1" horiz-adv-x="257" 
d="M154 656q-35 -68 -116 -77v21q44 4 73.5 31t44.5 70h22v-701h-24v656z" />
    <glyph glyph-name="two" unicode="2" horiz-adv-x="392" 
d="M50 16q0 66 21 118.5t51.5 91.5t78.5 89q40 42 63.5 70.5t39 64t15.5 75.5q0 159 -124 159q-65 0 -94 -44.5t-29 -114.5v-38h-22v37q0 80 35 130.5t111 50.5q77 0 111.5 -49t34.5 -130q0 -43 -16 -80.5t-40.5 -67.5t-65.5 -74q-48 -51 -76.5 -87t-49 -85.5t-21.5 -109.5
h265v-22h-288v16z" />
    <glyph glyph-name="three" unicode="3" horiz-adv-x="393" 
d="M85.5 43.5q-35.5 48.5 -35.5 128.5v33h23v-33q0 -71 29 -113.5t94 -42.5t94.5 43t29.5 114v53q0 58 -30 92t-85 36h-51v22h52q52 4 83 41t31 91v20q0 71 -29.5 113.5t-94.5 42.5t-94 -42.5t-29 -112.5v-21h-23v20q0 80 35.5 128.5t111.5 48.5t111 -48.5t35 -128.5v-17
q0 -51 -26.5 -90.5t-72.5 -54.5q49 -12 74 -49.5t25 -90.5v-54q0 -80 -35 -128.5t-111 -48.5t-111.5 48.5z" />
    <glyph glyph-name="four" unicode="4" horiz-adv-x="439" 
d="M305 164h-248v24l243 513h28v-514h61v-23h-61v-164h-23v164zM305 187v473l-226 -473h226z" />
    <glyph glyph-name="five" unicode="5" horiz-adv-x="393" 
d="M86 44q-36 49 -36 128v30h23v-30q0 -70 29.5 -112.5t93.5 -42.5q65 0 94.5 42.5t29.5 112.5v106q0 68 -29.5 110.5t-94.5 42.5q-42 0 -71.5 -21.5t-43.5 -61.5v-9h-22l18 362h253v-22h-232l-14 -287q20 31 49 46t70 15q72 0 106 -48.5t34 -125.5v-107q0 -79 -35.5 -128
t-110.5 -49t-111 49z" />
    <glyph glyph-name="six" unicode="6" horiz-adv-x="399" 
d="M86.5 44q-36.5 49 -36.5 128v356q0 80 36.5 128.5t113.5 48.5q75 0 110.5 -47t35.5 -126v-5h-22v6q0 69 -29.5 110t-94.5 41q-66 0 -96.5 -43t-30.5 -114v-192q21 45 51.5 64t81.5 19q73 0 108 -48.5t35 -126.5v-71q0 -79 -36.5 -128t-112.5 -49q-77 0 -113.5 49z
M295.5 59.5q30.5 42.5 30.5 112.5v70q0 68 -30.5 110.5t-95.5 42.5t-96 -43t-31 -110v-70q0 -70 30.5 -112.5t96.5 -42.5q65 0 95.5 42.5z" />
    <glyph glyph-name="seven" unicode="7" horiz-adv-x="362" 
d="M308 679h-269v22h293v-22l-208 -679h-24z" />
    <glyph glyph-name="eight" unicode="8" horiz-adv-x="408" 
d="M88.5 41.5q-38.5 46.5 -38.5 125.5v47q0 62 24 100.5t79 51.5q-103 23 -103 149v23q0 77 39.5 122t114.5 45q76 0 115 -45t39 -122v-23q0 -58 -24.5 -98t-75.5 -51q100 -23 100 -152v-47q0 -79 -38.5 -125.5t-115.5 -46.5t-115.5 46.5zM302 411q33 35 33 102v25
q0 68 -33.5 107t-97.5 39t-97.5 -39t-33.5 -107v-25q0 -67 33 -102t98 -35t98 35zM302.5 56.5q32.5 40.5 32.5 110.5v49q0 69 -32 103.5t-99 34.5q-131 0 -131 -138v-49q0 -70 33 -110.5t98 -40.5q66 0 98.5 40.5z" />
    <glyph glyph-name="nine" unicode="9" horiz-adv-x="398" 
d="M86.5 43q-36.5 48 -36.5 127v5h22v-6q0 -69 31 -111t96 -42t95.5 43t30.5 115v194q-14 -42 -47.5 -63.5t-83.5 -21.5q-74 0 -109 48.5t-35 126.5v70q0 80 36.5 129t112.5 49t112.5 -49t36.5 -129v-355q0 -80 -36 -129t-113 -49q-76 0 -112.5 48zM294.5 347.5
q30.5 42.5 30.5 111.5v70q0 70 -30.5 112.5t-95.5 42.5t-95.5 -42.5t-30.5 -112.5v-70q0 -69 30.5 -111.5t95.5 -42.5t95.5 42.5z" />
    <glyph glyph-name="colon" unicode=":" horiz-adv-x="83" 
d="M30 462h23v-81h-23v81zM30 81h23v-81h-23v81z" />
    <glyph glyph-name="semicolon" unicode=";" horiz-adv-x="94" 
d="M41 462h23v-81h-23v81zM41 0v81h23v-80l-22 -68h-12z" />
    <glyph glyph-name="less" unicode="&#x3c;" horiz-adv-x="383" 
d="M50 341v18l283 139v-21l-259 -127l259 -127v-21z" />
    <glyph glyph-name="equal" unicode="=" horiz-adv-x="295" 
d="M50 432h195v-18h-195v18zM50 324h195v-18h-195v18z" />
    <glyph glyph-name="greater" unicode="&#x3e;" horiz-adv-x="383" 
d="M50 223l259 127l-259 127v21l283 -139v-18l-283 -139v21z" />
    <glyph glyph-name="question" unicode="?" horiz-adv-x="349" 
d="M146 194q0 36 10.5 65.5t25 51.5t40.5 56q36 44 54.5 78.5t18.5 81.5q0 157 -121 157q-65 0 -93.5 -44.5t-28.5 -114.5v-38h-22v37q0 80 34 130.5t110 50.5q77 0 111 -49t34 -130q0 -49 -19 -85t-57 -83q-38 -46 -57 -81.5t-19 -83.5q0 -18 5 -36h-21q-5 20 -5 37z
M149 80h23v-80h-23v80z" />
    <glyph glyph-name="at" unicode="@" horiz-adv-x="713" 
d="M125.5 42q-75.5 84 -75.5 242q0 119 36.5 219t115.5 161.5t199 61.5q133 0 197.5 -73t64.5 -205q0 -67 -16.5 -135.5t-53 -116t-93.5 -47.5q-30 0 -45.5 20t-16.5 51q-16 -39 -44 -60.5t-68 -21.5q-52 1 -75.5 35.5t-23.5 87.5q0 10 2 30l10 98q6 63 38.5 103t89.5 40
q76 -2 94 -74l7 68h22l-30 -284q-3 -29 7 -50.5t37 -21.5q51 0 82.5 45.5t44.5 108t13 118.5q0 127 -60 195.5t-184 68.5q-113 0 -187 -58.5t-108 -154t-34 -210.5q0 -149 70.5 -227t216.5 -78q50 0 97 13.5t83 41.5l-1 -24q-76 -51 -180 -51q-156 0 -231.5 84zM411 196.5
q27 37.5 32 94.5l11 97q1 8 1 24q0 44 -20 71t-64 27q-51 0 -77.5 -34t-33.5 -89l-10 -98q-1 -8 -1 -25q0 -46 19.5 -75.5t63.5 -29.5q52 0 79 37.5z" />
    <glyph glyph-name="A" unicode="A" horiz-adv-x="392" 
d="M279 219h-165l-42 -219h-23l135 710h24l135 -710h-22zM275 241l-75 391l-3 21h-2l-3 -21l-74 -391h157z" />
    <glyph glyph-name="B" unicode="B" 
d="M50 710h114q48 0 81.5 -33.5t33.5 -80.5v-128q0 -34 -18.5 -61t-48.5 -41v-2q31 -13 51 -41t20 -63v-146q0 -47 -33.5 -80t-81.5 -34h-118v710zM164 375q38 0 65.5 27t27.5 65v130q0 38 -27.5 65t-65.5 27h-92v-314h92zM168 21q38 0 65.5 27t27.5 65v148q0 38 -29 65.5
t-68 27.5h-92v-333h96z" />
    <glyph glyph-name="C" unicode="C" horiz-adv-x="328" 
d="M83.5 23.5q-33.5 33.5 -33.5 80.5v502q0 47 33.5 80.5t80.5 33.5t81 -33.5t34 -80.5v-116h-22v117q0 38 -27.5 65t-65.5 27q-37 0 -64.5 -27t-27.5 -65v-504q0 -37 27.5 -64.5t64.5 -27.5q38 0 65.5 27t27.5 65v137h22v-136q0 -47 -34 -80.5t-81 -33.5t-80.5 33.5z" />
    <glyph glyph-name="D" unicode="D" horiz-adv-x="329" 
d="M50 710h114q31 0 57.5 -15t42 -39t15.5 -50v-492q0 -47 -33.5 -80.5t-81.5 -33.5h-114v710zM164 21q38 0 65.5 27t27.5 65v494q0 31 -28 56.5t-65 25.5h-92v-668h92z" />
    <glyph glyph-name="E" unicode="E" 
d="M50 710h233v-22h-211v-321h171v-22h-171v-323h211v-22h-233v710z" />
    <glyph glyph-name="F" unicode="F" 
d="M50 710h233v-22h-211v-321h171v-22h-171v-345h-22v710z" />
    <glyph glyph-name="G" unicode="G" horiz-adv-x="328" 
d="M50 606q0 47 33.5 80.5t80.5 33.5t81 -33.5t34 -80.5v-67h-22v68q0 38 -27.5 65t-65.5 27q-37 0 -64.5 -27t-27.5 -65v-504q0 -37 27.5 -64.5t64.5 -27.5q38 0 65.5 27t27.5 65v246h-69v21h91v-266q0 -47 -34 -80.5t-81 -33.5t-80.5 33.5t-33.5 80.5v502z" />
    <glyph glyph-name="H" unicode="H" horiz-adv-x="346" 
d="M50 710h22v-343h202v343h22v-710h-22v345h-202v-345h-22v710z" />
    <glyph glyph-name="I" unicode="I" horiz-adv-x="122" 
d="M50 710h22v-710h-22v710z" />
    <glyph glyph-name="J" unicode="J" horiz-adv-x="328" 
d="M83.5 23.5q-33.5 33.5 -33.5 80.5v136h22v-137q0 -38 27 -65t65 -27t65 27t27 65v607h22v-606q0 -47 -33.5 -80.5t-80.5 -33.5t-80.5 33.5z" />
    <glyph glyph-name="K" unicode="K" horiz-adv-x="374" 
d="M50 710h22v-405l1 2l6 12l207 391h26l-164 -311l177 -399h-24l-167 373l-62 -117v-256h-22v710z" />
    <glyph glyph-name="L" unicode="L" 
d="M50 710h22v-688h211v-22h-233v710z" />
    <glyph glyph-name="M" unicode="M" horiz-adv-x="513" 
d="M50 710h28l155 -643q1 -4 2 -10.5t1 -10.5h2q0 4 1 10.5t2 10.5l155 643h27v-710h-22v613v18v2l-5 -20l-148 -613h-23l-148 613l-5 19v-2v-17v-613h-22v710z" />
    <glyph glyph-name="N" unicode="N" horiz-adv-x="396" 
d="M50 710h27l210 -628l8 -21v5v17v627h22v-710h-26l-210 628l-9 21v-5v-17v-627h-22v710z" />
    <glyph glyph-name="O" unicode="O" horiz-adv-x="328" 
d="M50 606q0 47 33.5 80.5t80.5 33.5t81 -33.5t34 -80.5v-502q0 -47 -34 -80.5t-81 -33.5t-80.5 33.5t-33.5 80.5v502zM99.5 38.5q27.5 -27.5 64.5 -27.5q38 0 65.5 27t27.5 65v504q0 38 -27.5 65t-65.5 27q-37 0 -64.5 -27t-27.5 -65v-504q0 -37 27.5 -64.5z" />
    <glyph glyph-name="P" unicode="P" horiz-adv-x="328" 
d="M50 710h114q48 0 81.5 -33.5t33.5 -80.5v-128q0 -58 -31.5 -91t-83.5 -33h-92v-344h-22v710zM164 364q45 0 69 28t24 75v130q0 38 -27.5 65t-65.5 27h-92v-325h92z" />
    <glyph glyph-name="Q" unicode="Q" horiz-adv-x="377" 
d="M83.5 33.5q-33.5 33.5 -33.5 80.5v492q0 47 33.5 80.5t80.5 33.5t81 -33.5t34 -80.5v-492q0 -28 -13 -52.5t-36 -40.5h9h88v-21h-163q-47 0 -80.5 33.5zM229.5 48q27.5 27 27.5 65v494q0 38 -27.5 65t-65.5 27q-37 0 -64.5 -27t-27.5 -65v-494q0 -37 27.5 -64.5
t64.5 -27.5q38 0 65.5 27z" />
    <glyph glyph-name="R" unicode="R" horiz-adv-x="343" 
d="M50 710h114q48 0 81.5 -33.5t33.5 -80.5v-128q0 -34 -18.5 -61t-48.5 -41v-2q31 -13 51 -41t20 -63v-212q0 -34 10 -48h-22q-10 14 -10 48v213q0 38 -29 65.5t-68 27.5h-92v-354h-22v710zM164 375q38 0 65.5 27t27.5 65v130q0 38 -27.5 65t-65.5 27h-92v-314h92z" />
    <glyph glyph-name="S" unicode="S" horiz-adv-x="328" 
d="M50 240h22v-137q0 -38 27 -65t65 -27t65 27t27 65v101q0 36 -24 69.5t-74 85.5q-54 55 -81 93.5t-27 81.5v72q0 47 33.5 80.5t80.5 33.5t80.5 -33.5t33.5 -80.5v-116h-22v117q0 38 -27 65t-65 27t-65 -27t-27 -65v-78q0 -36 24 -69.5t74 -85.5q54 -55 81 -93.5t27 -81.5
v-95q0 -47 -33.5 -80.5t-80.5 -33.5t-80.5 33.5t-33.5 80.5v136z" />
    <glyph glyph-name="T" unicode="T" horiz-adv-x="338" 
d="M50 710h238v-22h-108v-688h-23v688h-107v22z" />
    <glyph glyph-name="U" unicode="U" horiz-adv-x="328" 
d="M83.5 23.5q-33.5 33.5 -33.5 80.5v606h22v-607q0 -37 27.5 -64.5t64.5 -27.5q38 0 65.5 27t27.5 65v607h22v-606q0 -47 -34 -80.5t-81 -33.5t-80.5 33.5z" />
    <glyph glyph-name="V" unicode="V" horiz-adv-x="392" 
d="M72 710l120 -632l3 -20h2l3 20l120 632h23l-135 -710h-24l-135 710h23z" />
    <glyph glyph-name="W" unicode="W" horiz-adv-x="563" 
d="M49 710h23l96 -631l3 -22h2l3 22l95 631h21l95 -631l3 -22h2l3 22l96 631h23l-111 -710h-23l-95 619q-1 5 -1 11t-1 11h-2l-3 -22l-95 -619h-22z" />
    <glyph glyph-name="X" unicode="X" horiz-adv-x="369" 
d="M171 354l-122 356h23l105 -303q5 -12 6 -20h2q1 8 6 20l106 303h23l-123 -356l123 -354h-24l-105 304q-5 13 -6 19h-2q-1 -10 -5 -19l-105 -304h-24z" />
    <glyph glyph-name="Y" unicode="Y" horiz-adv-x="392" 
d="M71 710l121 -323q3 -9 3 -20h2q0 11 3 20l120 323h22l-136 -366v-344h-22v344l-135 366h22z" />
    <glyph glyph-name="Z" unicode="Z" horiz-adv-x="348" 
d="M50 22l224 666h-224v22h248v-22l-225 -666h225v-22h-248v22z" />
    <glyph glyph-name="bracketleft" unicode="[" horiz-adv-x="207" 
d="M30 701h147v-21h-124v-659h124v-21h-147v701z" />
    <glyph glyph-name="backslash" unicode="\" horiz-adv-x="357" 
d="M30 700h21l276 -700h-21z" />
    <glyph glyph-name="bracketright" unicode="]" horiz-adv-x="207" 
d="M30 21h124v659h-124v21h147v-701h-147v21z" />
    <glyph glyph-name="asciicircum" unicode="^" horiz-adv-x="438" 
d="M209 700h21l158 -309h-22l-147 286l-147 -286h-22z" />
    <glyph glyph-name="underscore" unicode="_" horiz-adv-x="500" 
d="M30 -10h440v-19h-440v19z" />
    <glyph glyph-name="a" unicode="a" horiz-adv-x="392" 
d="M279 219h-165l-42 -219h-23l135 710h24l135 -710h-22zM275 241l-75 391l-3 21h-2l-3 -21l-74 -391h157z" />
    <glyph glyph-name="b" unicode="b" 
d="M50 710h114q48 0 81.5 -33.5t33.5 -80.5v-128q0 -34 -18.5 -61t-48.5 -41v-2q31 -13 51 -41t20 -63v-146q0 -47 -33.5 -80t-81.5 -34h-118v710zM164 375q38 0 65.5 27t27.5 65v130q0 38 -27.5 65t-65.5 27h-92v-314h92zM168 21q38 0 65.5 27t27.5 65v148q0 38 -29 65.5
t-68 27.5h-92v-333h96z" />
    <glyph glyph-name="c" unicode="c" horiz-adv-x="328" 
d="M83.5 23.5q-33.5 33.5 -33.5 80.5v502q0 47 33.5 80.5t80.5 33.5t81 -33.5t34 -80.5v-116h-22v117q0 38 -27.5 65t-65.5 27q-37 0 -64.5 -27t-27.5 -65v-504q0 -37 27.5 -64.5t64.5 -27.5q38 0 65.5 27t27.5 65v137h22v-136q0 -47 -34 -80.5t-81 -33.5t-80.5 33.5z" />
    <glyph glyph-name="d" unicode="d" horiz-adv-x="329" 
d="M50 710h114q31 0 57.5 -15t42 -39t15.5 -50v-492q0 -47 -33.5 -80.5t-81.5 -33.5h-114v710zM164 21q38 0 65.5 27t27.5 65v494q0 31 -28 56.5t-65 25.5h-92v-668h92z" />
    <glyph glyph-name="e" unicode="e" 
d="M50 710h233v-22h-211v-321h171v-22h-171v-323h211v-22h-233v710z" />
    <glyph glyph-name="f" unicode="f" 
d="M50 710h233v-22h-211v-321h171v-22h-171v-345h-22v710z" />
    <glyph glyph-name="g" unicode="g" horiz-adv-x="328" 
d="M50 606q0 47 33.5 80.5t80.5 33.5t81 -33.5t34 -80.5v-67h-22v68q0 38 -27.5 65t-65.5 27q-37 0 -64.5 -27t-27.5 -65v-504q0 -37 27.5 -64.5t64.5 -27.5q38 0 65.5 27t27.5 65v246h-69v21h91v-266q0 -47 -34 -80.5t-81 -33.5t-80.5 33.5t-33.5 80.5v502z" />
    <glyph glyph-name="h" unicode="h" horiz-adv-x="346" 
d="M50 710h22v-343h202v343h22v-710h-22v345h-202v-345h-22v710z" />
    <glyph glyph-name="i" unicode="i" horiz-adv-x="122" 
d="M50 710h22v-710h-22v710z" />
    <glyph glyph-name="j" unicode="j" horiz-adv-x="328" 
d="M83.5 23.5q-33.5 33.5 -33.5 80.5v136h22v-137q0 -38 27 -65t65 -27t65 27t27 65v607h22v-606q0 -47 -33.5 -80.5t-80.5 -33.5t-80.5 33.5z" />
    <glyph glyph-name="k" unicode="k" horiz-adv-x="374" 
d="M50 710h22v-405l1 2l6 12l207 391h26l-164 -311l177 -399h-24l-167 373l-62 -117v-256h-22v710z" />
    <glyph glyph-name="l" unicode="l" 
d="M50 710h22v-688h211v-22h-233v710z" />
    <glyph glyph-name="m" unicode="m" horiz-adv-x="513" 
d="M50 710h28l155 -643q1 -4 2 -10.5t1 -10.5h2q0 4 1 10.5t2 10.5l155 643h27v-710h-22v613v18v2l-5 -20l-148 -613h-23l-148 613l-5 19v-2v-17v-613h-22v710z" />
    <glyph glyph-name="n" unicode="n" horiz-adv-x="396" 
d="M50 710h27l210 -628l8 -21v5v17v627h22v-710h-26l-210 628l-9 21v-5v-17v-627h-22v710z" />
    <glyph glyph-name="o" unicode="o" horiz-adv-x="328" 
d="M50 606q0 47 33.5 80.5t80.5 33.5t81 -33.5t34 -80.5v-502q0 -47 -34 -80.5t-81 -33.5t-80.5 33.5t-33.5 80.5v502zM99.5 38.5q27.5 -27.5 64.5 -27.5q38 0 65.5 27t27.5 65v504q0 38 -27.5 65t-65.5 27q-37 0 -64.5 -27t-27.5 -65v-504q0 -37 27.5 -64.5z" />
    <glyph glyph-name="p" unicode="p" horiz-adv-x="328" 
d="M50 710h114q48 0 81.5 -33.5t33.5 -80.5v-128q0 -58 -31.5 -91t-83.5 -33h-92v-344h-22v710zM164 364q45 0 69 28t24 75v130q0 38 -27.5 65t-65.5 27h-92v-325h92z" />
    <glyph glyph-name="q" unicode="q" horiz-adv-x="377" 
d="M83.5 33.5q-33.5 33.5 -33.5 80.5v492q0 47 33.5 80.5t80.5 33.5t81 -33.5t34 -80.5v-492q0 -28 -13 -52.5t-36 -40.5h9h88v-21h-163q-47 0 -80.5 33.5zM229.5 48q27.5 27 27.5 65v494q0 38 -27.5 65t-65.5 27q-37 0 -64.5 -27t-27.5 -65v-494q0 -37 27.5 -64.5
t64.5 -27.5q38 0 65.5 27z" />
    <glyph glyph-name="r" unicode="r" horiz-adv-x="343" 
d="M50 710h114q48 0 81.5 -33.5t33.5 -80.5v-128q0 -34 -18.5 -61t-48.5 -41v-2q31 -13 51 -41t20 -63v-212q0 -34 10 -48h-22q-10 14 -10 48v213q0 38 -29 65.5t-68 27.5h-92v-354h-22v710zM164 375q38 0 65.5 27t27.5 65v130q0 38 -27.5 65t-65.5 27h-92v-314h92z" />
    <glyph glyph-name="s" unicode="s" horiz-adv-x="328" 
d="M50 240h22v-137q0 -38 27 -65t65 -27t65 27t27 65v101q0 36 -24 69.5t-74 85.5q-54 55 -81 93.5t-27 81.5v72q0 47 33.5 80.5t80.5 33.5t80.5 -33.5t33.5 -80.5v-116h-22v117q0 38 -27 65t-65 27t-65 -27t-27 -65v-78q0 -36 24 -69.5t74 -85.5q54 -55 81 -93.5t27 -81.5
v-95q0 -47 -33.5 -80.5t-80.5 -33.5t-80.5 33.5t-33.5 80.5v136z" />
    <glyph glyph-name="t" unicode="t" horiz-adv-x="338" 
d="M50 710h238v-22h-108v-688h-23v688h-107v22z" />
    <glyph glyph-name="u" unicode="u" horiz-adv-x="328" 
d="M83.5 23.5q-33.5 33.5 -33.5 80.5v606h22v-607q0 -37 27.5 -64.5t64.5 -27.5q38 0 65.5 27t27.5 65v607h22v-606q0 -47 -34 -80.5t-81 -33.5t-80.5 33.5z" />
    <glyph glyph-name="v" unicode="v" horiz-adv-x="392" 
d="M72 710l120 -632l3 -20h2l3 20l120 632h23l-135 -710h-24l-135 710h23z" />
    <glyph glyph-name="w" unicode="w" horiz-adv-x="563" 
d="M49 710h23l96 -631l3 -22h2l3 22l95 631h21l95 -631l3 -22h2l3 22l96 631h23l-111 -710h-23l-95 619q-1 5 -1 11t-1 11h-2l-3 -22l-95 -619h-22z" />
    <glyph glyph-name="x" unicode="x" horiz-adv-x="369" 
d="M171 354l-122 356h23l105 -303q5 -12 6 -20h2q1 8 6 20l106 303h23l-123 -356l123 -354h-24l-105 304q-5 13 -6 19h-2q-1 -10 -5 -19l-105 -304h-24z" />
    <glyph glyph-name="y" unicode="y" horiz-adv-x="392" 
d="M71 710l121 -323q3 -9 3 -20h2q0 11 3 20l120 323h22l-136 -366v-344h-22v344l-135 366h22z" />
    <glyph glyph-name="z" unicode="z" horiz-adv-x="348" 
d="M50 22l224 666h-224v22h248v-22l-225 -666h225v-22h-248v22z" />
    <glyph glyph-name="braceleft" unicode="{" horiz-adv-x="243" 
d="M122.5 26.5q-16.5 26.5 -19.5 74.5l-7 139q-1 33 -5.5 50.5t-18 30t-42.5 17.5v24q29 6 42.5 18t18 30t5.5 51l7 139q3 48 19.5 74.5t59.5 26.5h31v-21h-25q-36 0 -48 -22t-15 -65l-7 -135q-2 -46 -14 -71t-51 -37q39 -11 51 -36.5t14 -71.5l7 -134q3 -44 15 -65.5
t48 -21.5h25v-21h-31q-43 0 -59.5 26.5z" />
    <glyph glyph-name="bar" unicode="|" horiz-adv-x="121" 
d="M50 710h21v-719h-21v719z" />
    <glyph glyph-name="braceright" unicode="}" horiz-adv-x="244" 
d="M30 21h25q36 0 48 21.5t15 65.5l7 134q2 46 14 71.5t51 36.5q-39 12 -51 37t-14 71l-7 135q-3 43 -15 65t-48 22h-25v21h30q43 0 60 -26.5t20 -74.5l7 -139q1 -33 5.5 -51t18.5 -30t43 -18v-24q-29 -5 -43 -17.5t-18.5 -30t-5.5 -50.5l-7 -139q-3 -48 -19.5 -74.5
t-60.5 -26.5h-30v21z" />
    <glyph glyph-name="asciitilde" unicode="~" horiz-adv-x="426" 
d="M260 316q-16 7 -45 24q-24 15 -41.5 23t-36.5 8q-41 0 -73 -53l-14 10q35 61 90 61q20 0 39 -8t44 -24q25 -15 40.5 -22t32.5 -7q21 0 36 14.5t29 39.5l15 -12q-18 -29 -37 -45t-44 -16q-19 0 -35 7z" />
    <glyph glyph-name="exclamdown" unicode="&#xa1;" horiz-adv-x="83" 
d="M30 701h23v-81h-23v81zM30 338l3 208h17l3 -208v-338h-23v338z" />
    <glyph glyph-name="currency" unicode="&#xa4;" horiz-adv-x="355" 
d="M50 235l44 43q-26 33 -26 72q0 40 26 71l-44 44l11 12l46 -45q30 27 70 27q41 0 71 -27l45 45l12 -12l-45 -44q27 -30 27 -71t-27 -71l45 -44l-12 -12l-45 44q-31 -26 -71 -26q-39 0 -70 26l-46 -44zM242 285q27 27 27 65t-27 65t-65 27t-65 -27t-27 -65t27 -65t65 -27
t65 27z" />
    <glyph glyph-name="section" unicode="&#xa7;" horiz-adv-x="392" 
d="M92.5 -32q-42.5 33 -42.5 92v27h22v-25q0 -51 36.5 -78.5t88.5 -27.5q47 0 85 25.5t38 69.5q0 31 -16.5 52.5t-41.5 36t-67 32.5q-47 21 -75.5 37.5t-48 44t-19.5 68.5q0 49 34.5 84t84.5 49q-40 20 -64 35.5t-40 38.5t-16 56q0 58 43 89t105 31q60 -1 100 -35t40 -90
v-12h-23v10q0 48 -33.5 77t-83.5 30q-51 0 -88 -25.5t-37 -74.5q0 -29 16 -50t40 -35t66 -33q47 -21 76 -38t49 -45.5t20 -69.5q0 -49 -29 -82.5t-77 -53.5q51 -23 79 -51t28 -74q0 -55 -43.5 -86.5t-101.5 -31.5q-62 0 -104.5 33zM289 236q30 31 30 77q0 48 -31.5 75.5
t-90.5 54.5q-49 -8 -86 -40t-37 -80q0 -36 20 -60.5t45 -38.5t73 -35q47 16 77 47z" />
    <glyph glyph-name="copyright" unicode="&#xa9;" horiz-adv-x="776" 
d="M214 48.5q-77 45.5 -120.5 124.5t-43.5 177t43.5 177t120.5 124.5t174 45.5t174 -45.5t120.5 -124.5t43.5 -177t-43.5 -177t-120.5 -124.5t-174 -45.5t-174 45.5zM553.5 63.5q73.5 43.5 114.5 119t41 167.5t-41 167.5t-114.5 118.5t-165.5 43t-165 -43t-114 -118.5
t-41 -167.5t41 -167.5t114 -119t165 -43.5t165.5 43.5zM306.5 164.5q-25.5 34.5 -25.5 89.5v192q0 55 25 89t78 34q52 0 76.5 -34t24.5 -89v-19h-17v20q0 47 -20 75.5t-64 28.5t-64 -28.5t-20 -75.5v-194q0 -47 20 -76t64 -29t64 29t20 76v29h17v-28q0 -55 -24.5 -89.5
t-76.5 -34.5t-77.5 34.5z" />
    <glyph glyph-name="guillemotleft" unicode="&#xab;" horiz-adv-x="247" 
d="M30 351l67 240h21l-66 -240l66 -241h-21zM129 351l66 240h22l-66 -240l66 -241h-22z" />
    <glyph glyph-name="uni00AD" unicode="&#xad;" horiz-adv-x="238" 
d="M208 361v-22h-178v22h178z" />
    <glyph glyph-name="registered" unicode="&#xae;" horiz-adv-x="776" 
d="M214 48.5q-77 45.5 -120.5 124.5t-43.5 177t43.5 177t120.5 124.5t174 45.5t174 -45.5t120.5 -124.5t43.5 -177t-43.5 -177t-120.5 -124.5t-174 -45.5t-174 45.5zM553.5 63.5q73.5 43.5 114.5 119t41 167.5t-41 167.5t-114.5 118.5t-165.5 43t-165 -43t-114 -118.5
t-41 -167.5t41 -167.5t114 -119t165 -43.5t165.5 43.5zM294 564h97q102 0 102 -111v-14q0 -85 -67 -102q35 -10 51.5 -34t16.5 -63v-46q0 -43 13 -58h-21q-10 21 -10 58v46q0 51 -27.5 70t-80.5 19h-55v-193h-19v428zM379 346q49 0 72.5 21t23.5 70v15q0 46 -19.5 70
t-64.5 24h-78v-200h66z" />
    <glyph glyph-name="degree" unicode="&#xb0;" horiz-adv-x="230" 
d="M69 598.5q-19 18.5 -19 46.5q0 27 19 45t46 18t46 -18t19 -45q0 -28 -19 -46.5t-46 -18.5t-46 18.5zM150.5 610q14.5 14 14.5 35q0 20 -15 34t-35 14q-21 0 -35.5 -14t-14.5 -34q0 -21 14.5 -35t35.5 -14t35.5 14z" />
    <glyph glyph-name="periodcentered" unicode="&#xb7;" horiz-adv-x="83" 
d="M30 404h23v-81h-23v81z" />
    <glyph glyph-name="guillemotright" unicode="&#xbb;" horiz-adv-x="247" 
d="M96 351l-66 240h22l66 -240l-66 -241h-22zM195 351l-66 240h22l66 -240l-66 -241h-22z" />
    <glyph glyph-name="questiondown" unicode="&#xbf;" horiz-adv-x="349" 
d="M178 700h22v-80h-22v80zM64 44q-34 49 -34 130q0 49 19 85t57 83q38 46 57 81.5t19 83.5q0 18 -5 36h22q5 -20 5 -37q-1 -52 -20.5 -89t-57.5 -83q-37 -46 -55 -80t-18 -81q0 -157 122 -157q65 0 93.5 44.5t28.5 114.5v38h22v-37q0 -80 -34.5 -130.5t-109.5 -50.5
q-77 0 -111 49z" />
    <glyph glyph-name="multiply" unicode="&#xd7;" horiz-adv-x="336" 
d="M50 244l105 105l-105 105l13 14l106 -105l105 105l12 -14l-105 -105l105 -105l-12 -14l-105 106l-106 -106z" />
    <glyph glyph-name="divide" unicode="&#xf7;" horiz-adv-x="297" 
d="M136 479h23v-81h-23v81zM50 359h197v-17h-197v17zM136 303h23v-82h-23v82z" />
    <glyph glyph-name="uni0401" unicode="&#x401;" 
d="M123 808h21v-58h-21v58zM190 808h21v-58h-21v58zM50 710h233v-22h-211v-321h171v-22h-171v-323h211v-22h-233v710z" />
    <glyph glyph-name="uni0410" unicode="&#x410;" horiz-adv-x="393" 
d="M279 219h-165l-42 -219h-22l135 710h23l135 -710h-22zM275 241l-74 391l-3 21h-2l-3 -21l-75 -391h157z" />
    <glyph glyph-name="uni0411" unicode="&#x411;" 
d="M50 710h198v-21h-176v-314h92q49 0 84 -34t35 -81v-146q0 -47 -33.5 -80t-81.5 -34h-118v710zM168 21q38 0 65.5 27t27.5 65v148q0 38 -29 65.5t-68 27.5h-92v-333h96z" />
    <glyph glyph-name="uni0412" unicode="&#x412;" 
d="M50 710h114q48 0 81.5 -33.5t33.5 -80.5v-128q0 -34 -18.5 -61t-48.5 -41v-2q31 -13 51 -41t20 -63v-146q0 -47 -33.5 -80t-81.5 -34h-118v710zM164 375q38 0 65.5 27t27.5 65v130q0 38 -27.5 65t-65.5 27h-92v-314h92zM168 21q38 0 65.5 27t27.5 65v148q0 38 -29 65.5
t-68 27.5h-92v-333h96z" />
    <glyph glyph-name="uni0413" unicode="&#x413;" 
d="M50 710h233v-22h-211v-688h-22v710z" />
    <glyph glyph-name="uni0414" unicode="&#x414;" horiz-adv-x="421" 
d="M-49 22h38q47 0 62.5 40.5t18.5 106.5l22 541h224v-688h55v-121h-22v99h-376v-99h-22v121zM294 22v666h-181l-22 -520q-2 -50 -15.5 -94.5t-37.5 -51.5h256z" />
    <glyph glyph-name="uni0415" unicode="&#x415;" 
d="M50 710h233v-22h-211v-321h171v-22h-171v-323h211v-22h-233v710z" />
    <glyph glyph-name="uni0416" unicode="&#x416;" horiz-adv-x="581" 
d="M545 0h-24l-185 341h-34v-341h-22v341h-35l-185 -341h-24l187 345v13l-177 352h23l175 -347h36v347h22v-347h35l175 347h23l-177 -352v-13z" />
    <glyph glyph-name="uni0417" unicode="&#x417;" horiz-adv-x="329" 
d="M50 240h22v-137q0 -37 27.5 -64.5t64.5 -27.5q38 0 65.5 27t27.5 65v158q0 38 -27.5 65.5t-65.5 27.5h-66v21h66q38 0 65.5 27t27.5 65v140q0 38 -27.5 65t-65.5 27q-37 0 -64.5 -27t-27.5 -65v-117h-22v116q0 47 33.5 80.5t80.5 33.5q48 0 81.5 -33.5t33.5 -80.5v-138
q0 -34 -18.5 -61t-48.5 -41v-2q31 -13 49 -41t18 -63v-156q0 -47 -33.5 -80.5t-81.5 -33.5q-47 0 -80.5 33.5t-33.5 80.5v136z" />
    <glyph glyph-name="uni0418" unicode="&#x418;" horiz-adv-x="397" 
d="M325 0v628v16v4l-9 -20l-244 -628h-22v710h22v-628v-16v-5l8 21l245 628h22v-710h-22z" />
    <glyph glyph-name="uni0419" unicode="&#x419;" horiz-adv-x="397" 
d="M129 759q-27 19 -28 52h22q1 -24 21 -37.5t49 -13.5t49.5 13.5t21.5 37.5h22q-1 -33 -28.5 -52t-64.5 -19t-64 19zM50 710h22v-628v-16v-5l8 21l245 628h22v-710h-22v628v16v4l-9 -20l-244 -628h-22v710z" />
    <glyph glyph-name="uni041A" unicode="&#x41a;" horiz-adv-x="375" 
d="M50 710h22v-405l1 2l6 12l207 391h26l-164 -311l177 -399h-24l-167 373l-62 -117v-256h-22v710z" />
    <glyph glyph-name="uni041B" unicode="&#x41b;" horiz-adv-x="442" 
d="M50 21q40 0 61 21t27.5 52t8.5 75l22 541h223v-710h-22v688h-180l-22 -520q-3 -75 -26 -121.5t-87 -46.5h-5v21z" />
    <glyph glyph-name="uni041C" unicode="&#x41c;" horiz-adv-x="513" 
d="M50 710h23l179 -644q1 -4 2 -10.5t1 -9.5h2q0 3 1 9.5t2 10.5l180 644h23v-710h-22v613v18v1l-5 -19l-168 -613h-23l-168 613l-5 19v-2v-17v-613h-22v710z" />
    <glyph glyph-name="uni041D" unicode="&#x41d;" horiz-adv-x="347" 
d="M50 710h22v-343h203v343h22v-710h-22v345h-203v-345h-22v710z" />
    <glyph glyph-name="uni041E" unicode="&#x41e;" horiz-adv-x="329" 
d="M50 606q0 47 33.5 80.5t80.5 33.5q48 0 81.5 -33.5t33.5 -80.5v-502q0 -47 -33.5 -80.5t-81.5 -33.5q-47 0 -80.5 33.5t-33.5 80.5v502zM99.5 38.5q27.5 -27.5 64.5 -27.5q38 0 65.5 27t27.5 65v504q0 38 -27.5 65t-65.5 27q-37 0 -64.5 -27t-27.5 -65v-504
q0 -37 27.5 -64.5z" />
    <glyph glyph-name="uni041F" unicode="&#x41f;" horiz-adv-x="347" 
d="M50 710h247v-710h-22v688h-203v-688h-22v710z" />
    <glyph glyph-name="uni0420" unicode="&#x420;" horiz-adv-x="329" 
d="M50 710h114q48 0 81.5 -33.5t33.5 -80.5v-128q0 -58 -31.5 -91t-83.5 -33h-92v-344h-22v710zM164 364q45 0 69 28t24 75v130q0 38 -27.5 65t-65.5 27h-92v-325h92z" />
    <glyph glyph-name="uni0421" unicode="&#x421;" horiz-adv-x="329" 
d="M83.5 23.5q-33.5 33.5 -33.5 80.5v502q0 47 33.5 80.5t80.5 33.5q48 0 81.5 -33.5t33.5 -80.5v-116h-22v117q0 38 -27.5 65t-65.5 27q-37 0 -64.5 -27t-27.5 -65v-504q0 -37 27.5 -64.5t64.5 -27.5q38 0 65.5 27t27.5 65v137h22v-136q0 -47 -33.5 -80.5t-81.5 -33.5
q-47 0 -80.5 33.5z" />
    <glyph glyph-name="uni0422" unicode="&#x422;" horiz-adv-x="339" 
d="M50 710h239v-22h-109v-688h-22v688h-108v22z" />
    <glyph glyph-name="uni0423" unicode="&#x423;" horiz-adv-x="390" 
d="M58 22h34q33 0 59 20t33 51l16 75l-151 542h23l139 -495l106 495h23l-133 -620q-10 -41 -41 -65.5t-72 -24.5h-36v22z" />
    <glyph glyph-name="uni0424" unicode="&#x424;" horiz-adv-x="390" 
d="M307.5 616.5q32.5 -33.5 32.5 -80.5v-362q0 -47 -32.5 -80.5t-78.5 -33.5h-24v-60h-22v60h-24q-45 0 -77 34t-32 80v362q0 46 32 80t77 34h24v60h22v-60h24q46 0 78.5 -33.5zM183 81v548h-24q-36 0 -61.5 -28t-25.5 -64v-364q0 -36 26 -64t61 -28h24zM318 537
q0 37 -26.5 64.5t-62.5 27.5h-24v-548h24q36 0 62.5 27.5t26.5 64.5v364z" />
    <glyph glyph-name="uni0425" unicode="&#x425;" horiz-adv-x="369" 
d="M171 354l-122 356h23l105 -303q5 -12 6 -20h2q1 8 6 20l105 303h23l-123 -356l123 -354h-23l-105 304q-5 13 -6 19h-2q-1 -10 -5 -19l-105 -304h-24z" />
    <glyph glyph-name="uni0426" unicode="&#x426;" horiz-adv-x="402" 
d="M330 0h-280v710h22v-688h203v688h22v-688h55v-121h-22v99z" />
    <glyph glyph-name="uni0427" unicode="&#x427;" horiz-adv-x="330" 
d="M258 329h-1q-16 -22 -40.5 -35.5t-52.5 -13.5q-47 0 -80.5 33.5t-33.5 80.5v316h22v-317q0 -37 27.5 -64.5t64.5 -27.5q38 0 65.5 27t27.5 65v317h23v-710h-22v329z" />
    <glyph glyph-name="uni0428" unicode="&#x428;" horiz-adv-x="532" 
d="M50 710h22v-688h183v688h22v-688h183v688h22v-710h-432v710z" />
    <glyph glyph-name="uni0429" unicode="&#x429;" horiz-adv-x="587" 
d="M50 710h22v-688h183v688h22v-688h183v688h22v-688h55v-121h-22v99h-465v710z" />
    <glyph glyph-name="uni042A" unicode="&#x42a;" horiz-adv-x="383" 
d="M0 710h122v-335h92q49 0 84 -34t35 -81v-146q0 -47 -33.5 -80t-81.5 -34h-118v689h-100v21zM218 21q38 0 65.5 27t27.5 65v148q0 38 -29 65.5t-68 27.5h-92v-333h96z" />
    <glyph glyph-name="uni042B" unicode="&#x42b;" horiz-adv-x="423" 
d="M50 710h22v-335h92q49 0 84 -34t35 -81v-146q0 -47 -33.5 -80t-81.5 -34h-118v710zM351 710h22v-710h-22v710zM168 21q38 0 65.5 27t27.5 65v148q0 38 -29 65.5t-68 27.5h-92v-333h96z" />
    <glyph glyph-name="uni042C" unicode="&#x42c;" 
d="M50 710h22v-335h92q49 0 84 -34t35 -81v-146q0 -47 -33.5 -80t-81.5 -34h-118v710zM168 21q38 0 65.5 27t27.5 65v148q0 38 -29 65.5t-68 27.5h-92v-333h96z" />
    <glyph glyph-name="uni042D" unicode="&#x42d;" horiz-adv-x="329" 
d="M50 240h22v-137q0 -37 27.5 -64.5t64.5 -27.5q38 0 65.5 27t27.5 65v242h-142v22h142v240q0 38 -27.5 65t-65.5 27q-37 0 -64.5 -27t-27.5 -65v-117h-22v116q0 47 33.5 80.5t80.5 33.5q48 0 81.5 -33.5t33.5 -80.5v-502q0 -47 -33.5 -80.5t-81.5 -33.5q-47 0 -80.5 33.5
t-33.5 80.5v136z" />
    <glyph glyph-name="uni042E" unicode="&#x42e;" horiz-adv-x="494" 
d="M50 710h22v-343h143v239q0 47 33.5 80.5t81.5 33.5q47 0 80.5 -33.5t33.5 -80.5v-502q0 -47 -33.5 -80.5t-80.5 -33.5q-48 0 -81.5 33.5t-33.5 80.5v241h-143v-345h-22v710zM264.5 38q27.5 -27 65.5 -27t65 27.5t27 64.5v504q0 38 -27 65t-65 27t-65.5 -27t-27.5 -65
v-504q0 -38 27.5 -65z" />
    <glyph glyph-name="uni042F" unicode="&#x42f;" horiz-adv-x="343" 
d="M271 0v354h-93q-38 0 -67 -27.5t-29 -65.5v-213q0 -34 -10 -48h-22q10 14 10 48v212q0 35 20 63t51 41v2q-30 14 -48.5 41t-18.5 61v128q0 47 33.5 80.5t80.5 33.5h115v-710h-22zM271 689h-93q-37 0 -64.5 -27t-27.5 -65v-130q0 -38 27 -65t65 -27h93v314z" />
    <glyph glyph-name="uni0430" unicode="&#x430;" horiz-adv-x="393" 
d="M279 219h-165l-42 -219h-22l135 710h23l135 -710h-22zM275 241l-74 391l-3 21h-2l-3 -21l-75 -391h157z" />
    <glyph glyph-name="uni0431" unicode="&#x431;" 
d="M50 710h198v-21h-176v-314h92q49 0 84 -34t35 -81v-146q0 -47 -33.5 -80t-81.5 -34h-118v710zM168 21q38 0 65.5 27t27.5 65v148q0 38 -29 65.5t-68 27.5h-92v-333h96z" />
    <glyph glyph-name="uni0432" unicode="&#x432;" 
d="M50 710h114q48 0 81.5 -33.5t33.5 -80.5v-128q0 -34 -18.5 -61t-48.5 -41v-2q31 -13 51 -41t20 -63v-146q0 -47 -33.5 -80t-81.5 -34h-118v710zM164 375q38 0 65.5 27t27.5 65v130q0 38 -27.5 65t-65.5 27h-92v-314h92zM168 21q38 0 65.5 27t27.5 65v148q0 38 -29 65.5
t-68 27.5h-92v-333h96z" />
    <glyph glyph-name="uni0433" unicode="&#x433;" 
d="M50 710h233v-22h-211v-688h-22v710z" />
    <glyph glyph-name="uni0434" unicode="&#x434;" horiz-adv-x="421" 
d="M-49 22h38q47 0 62.5 40.5t18.5 106.5l22 541h224v-688h55v-121h-22v99h-376v-99h-22v121zM294 22v666h-181l-22 -520q-2 -50 -15.5 -94.5t-37.5 -51.5h256z" />
    <glyph glyph-name="uni0435" unicode="&#x435;" 
d="M50 710h233v-22h-211v-321h171v-22h-171v-323h211v-22h-233v710z" />
    <glyph glyph-name="uni0436" unicode="&#x436;" horiz-adv-x="581" 
d="M545 0h-24l-185 341h-34v-341h-22v341h-35l-185 -341h-24l187 345v13l-177 352h23l175 -347h36v347h22v-347h35l175 347h23l-177 -352v-13z" />
    <glyph glyph-name="uni0437" unicode="&#x437;" horiz-adv-x="329" 
d="M50 240h22v-137q0 -37 27.5 -64.5t64.5 -27.5q38 0 65.5 27t27.5 65v158q0 38 -27.5 65.5t-65.5 27.5h-66v21h66q38 0 65.5 27t27.5 65v140q0 38 -27.5 65t-65.5 27q-37 0 -64.5 -27t-27.5 -65v-117h-22v116q0 47 33.5 80.5t80.5 33.5q48 0 81.5 -33.5t33.5 -80.5v-138
q0 -34 -18.5 -61t-48.5 -41v-2q31 -13 49 -41t18 -63v-156q0 -47 -33.5 -80.5t-81.5 -33.5q-47 0 -80.5 33.5t-33.5 80.5v136z" />
    <glyph glyph-name="uni0438" unicode="&#x438;" horiz-adv-x="397" 
d="M325 0v628v16v4l-9 -20l-244 -628h-22v710h22v-628v-16v-5l8 21l245 628h22v-710h-22z" />
    <glyph glyph-name="uni0439" unicode="&#x439;" horiz-adv-x="397" 
d="M129 759q-27 19 -28 52h22q1 -24 21 -37.5t49 -13.5t49.5 13.5t21.5 37.5h22q-1 -33 -28.5 -52t-64.5 -19t-64 19zM50 710h22v-628v-16v-5l8 21l245 628h22v-710h-22v628v16v4l-9 -20l-244 -628h-22v710z" />
    <glyph glyph-name="uni043A" unicode="&#x43a;" horiz-adv-x="375" 
d="M50 710h22v-405l1 2l6 12l207 391h26l-164 -311l177 -399h-24l-167 373l-62 -117v-256h-22v710z" />
    <glyph glyph-name="uni043B" unicode="&#x43b;" horiz-adv-x="442" 
d="M50 21q40 0 61 21t27.5 52t8.5 75l22 541h223v-710h-22v688h-180l-22 -520q-3 -75 -26 -121.5t-87 -46.5h-5v21z" />
    <glyph glyph-name="uni043C" unicode="&#x43c;" horiz-adv-x="513" 
d="M50 710h23l179 -644q1 -4 2 -10.5t1 -9.5h2q0 3 1 9.5t2 10.5l180 644h23v-710h-22v613v18v1l-5 -19l-168 -613h-23l-168 613l-5 19v-2v-17v-613h-22v710z" />
    <glyph glyph-name="uni043D" unicode="&#x43d;" horiz-adv-x="347" 
d="M50 710h22v-343h203v343h22v-710h-22v345h-203v-345h-22v710z" />
    <glyph glyph-name="uni043E" unicode="&#x43e;" horiz-adv-x="329" 
d="M50 606q0 47 33.5 80.5t80.5 33.5q48 0 81.5 -33.5t33.5 -80.5v-502q0 -47 -33.5 -80.5t-81.5 -33.5q-47 0 -80.5 33.5t-33.5 80.5v502zM99.5 38.5q27.5 -27.5 64.5 -27.5q38 0 65.5 27t27.5 65v504q0 38 -27.5 65t-65.5 27q-37 0 -64.5 -27t-27.5 -65v-504
q0 -37 27.5 -64.5z" />
    <glyph glyph-name="uni043F" unicode="&#x43f;" horiz-adv-x="347" 
d="M50 710h247v-710h-22v688h-203v-688h-22v710z" />
    <glyph glyph-name="uni0440" unicode="&#x440;" horiz-adv-x="329" 
d="M50 710h114q48 0 81.5 -33.5t33.5 -80.5v-128q0 -58 -31.5 -91t-83.5 -33h-92v-344h-22v710zM164 364q45 0 69 28t24 75v130q0 38 -27.5 65t-65.5 27h-92v-325h92z" />
    <glyph glyph-name="uni0441" unicode="&#x441;" horiz-adv-x="329" 
d="M83.5 23.5q-33.5 33.5 -33.5 80.5v502q0 47 33.5 80.5t80.5 33.5q48 0 81.5 -33.5t33.5 -80.5v-116h-22v117q0 38 -27.5 65t-65.5 27q-37 0 -64.5 -27t-27.5 -65v-504q0 -37 27.5 -64.5t64.5 -27.5q38 0 65.5 27t27.5 65v137h22v-136q0 -47 -33.5 -80.5t-81.5 -33.5
q-47 0 -80.5 33.5z" />
    <glyph glyph-name="uni0442" unicode="&#x442;" horiz-adv-x="339" 
d="M50 710h239v-22h-109v-688h-22v688h-108v22z" />
    <glyph glyph-name="uni0443" unicode="&#x443;" horiz-adv-x="390" 
d="M58 22h34q33 0 59 20t33 51l16 75l-151 542h23l139 -495l106 495h23l-133 -620q-10 -41 -41 -65.5t-72 -24.5h-36v22z" />
    <glyph glyph-name="uni0444" unicode="&#x444;" horiz-adv-x="390" 
d="M307.5 616.5q32.5 -33.5 32.5 -80.5v-362q0 -47 -32.5 -80.5t-78.5 -33.5h-24v-60h-22v60h-24q-45 0 -77 34t-32 80v362q0 46 32 80t77 34h24v60h22v-60h24q46 0 78.5 -33.5zM183 81v548h-24q-36 0 -61.5 -28t-25.5 -64v-364q0 -36 26 -64t61 -28h24zM318 537
q0 37 -26.5 64.5t-62.5 27.5h-24v-548h24q36 0 62.5 27.5t26.5 64.5v364z" />
    <glyph glyph-name="uni0445" unicode="&#x445;" horiz-adv-x="369" 
d="M171 354l-122 356h23l105 -303q5 -12 6 -20h2q1 8 6 20l105 303h23l-123 -356l123 -354h-23l-105 304q-5 13 -6 19h-2q-1 -10 -5 -19l-105 -304h-24z" />
    <glyph glyph-name="uni0446" unicode="&#x446;" horiz-adv-x="402" 
d="M330 0h-280v710h22v-688h203v688h22v-688h55v-121h-22v99z" />
    <glyph glyph-name="uni0447" unicode="&#x447;" horiz-adv-x="330" 
d="M258 329h-1q-16 -22 -40.5 -35.5t-52.5 -13.5q-47 0 -80.5 33.5t-33.5 80.5v316h22v-317q0 -37 27.5 -64.5t64.5 -27.5q38 0 65.5 27t27.5 65v317h23v-710h-22v329z" />
    <glyph glyph-name="uni0448" unicode="&#x448;" horiz-adv-x="532" 
d="M50 710h22v-688h183v688h22v-688h183v688h22v-710h-432v710z" />
    <glyph glyph-name="uni0449" unicode="&#x449;" horiz-adv-x="587" 
d="M50 710h22v-688h183v688h22v-688h183v688h22v-688h55v-121h-22v99h-465v710z" />
    <glyph glyph-name="uni044A" unicode="&#x44a;" horiz-adv-x="383" 
d="M0 710h122v-335h92q49 0 84 -34t35 -81v-146q0 -47 -33.5 -80t-81.5 -34h-118v689h-100v21zM218 21q38 0 65.5 27t27.5 65v148q0 38 -29 65.5t-68 27.5h-92v-333h96z" />
    <glyph glyph-name="uni044B" unicode="&#x44b;" horiz-adv-x="423" 
d="M50 710h22v-335h92q49 0 84 -34t35 -81v-146q0 -47 -33.5 -80t-81.5 -34h-118v710zM351 710h22v-710h-22v710zM168 21q38 0 65.5 27t27.5 65v148q0 38 -29 65.5t-68 27.5h-92v-333h96z" />
    <glyph glyph-name="uni044C" unicode="&#x44c;" 
d="M50 710h22v-335h92q49 0 84 -34t35 -81v-146q0 -47 -33.5 -80t-81.5 -34h-118v710zM168 21q38 0 65.5 27t27.5 65v148q0 38 -29 65.5t-68 27.5h-92v-333h96z" />
    <glyph glyph-name="uni044D" unicode="&#x44d;" horiz-adv-x="329" 
d="M50 240h22v-137q0 -37 27.5 -64.5t64.5 -27.5q38 0 65.5 27t27.5 65v242h-142v22h142v240q0 38 -27.5 65t-65.5 27q-37 0 -64.5 -27t-27.5 -65v-117h-22v116q0 47 33.5 80.5t80.5 33.5q48 0 81.5 -33.5t33.5 -80.5v-502q0 -47 -33.5 -80.5t-81.5 -33.5q-47 0 -80.5 33.5
t-33.5 80.5v136z" />
    <glyph glyph-name="uni044E" unicode="&#x44e;" horiz-adv-x="494" 
d="M50 710h22v-343h143v239q0 47 33.5 80.5t81.5 33.5q47 0 80.5 -33.5t33.5 -80.5v-502q0 -47 -33.5 -80.5t-80.5 -33.5q-48 0 -81.5 33.5t-33.5 80.5v241h-143v-345h-22v710zM264.5 38q27.5 -27 65.5 -27t65 27.5t27 64.5v504q0 38 -27 65t-65 27t-65.5 -27t-27.5 -65
v-504q0 -38 27.5 -65z" />
    <glyph glyph-name="uni044F" unicode="&#x44f;" horiz-adv-x="343" 
d="M271 0v354h-93q-38 0 -67 -27.5t-29 -65.5v-213q0 -34 -10 -48h-22q10 14 10 48v212q0 35 20 63t51 41v2q-30 14 -48.5 41t-18.5 61v128q0 47 33.5 80.5t80.5 33.5h115v-710h-22zM271 689h-93q-37 0 -64.5 -27t-27.5 -65v-130q0 -38 27 -65t65 -27h93v314z" />
    <glyph glyph-name="uni0451" unicode="&#x451;" 
d="M123 808h21v-58h-21v58zM190 808h21v-58h-21v58zM50 710h233v-22h-211v-321h171v-22h-171v-323h211v-22h-233v710z" />
    <glyph glyph-name="uni10D0" unicode="&#x10d0;" horiz-adv-x="283" 
d="M72 281v-198q0 -29 21 -50.5t51 -21.5t51 21.5t21 50.5v383q0 30 -3.5 46.5t-18.5 37.5l-47 67q-16 23 -23 40.5t-7 38.5v14h21v-11q0 -22 6 -36t20 -33l45 -65q18 -25 23.5 -42.5t5.5 -54.5v-384q0 -39 -27.5 -66.5t-66.5 -27.5t-66.5 27.5t-27.5 66.5v197h22z" />
    <glyph glyph-name="uni10D1" unicode="&#x10d1;" horiz-adv-x="285" 
d="M222.5 371.5q22.5 -27.5 22.5 -63.5v-216q0 -42 -30 -72t-73 -30q-42 0 -72 30t-30 72v216q0 42 30 72t72 30h1v180q0 14 -4 21.5t-19 14.5l-27 13q-17 8 -26.5 18t-9.5 29v24h22v-21q0 -14 4.5 -19.5t17.5 -11.5l31 -15q19 -9 26 -21t7 -30v-185q35 -8 57.5 -35.5z
M223 309q0 33 -23.5 56.5t-57.5 23.5q-33 0 -56.5 -23.5t-23.5 -56.5v-218q0 -33 23.5 -56.5t56.5 -23.5q34 0 57.5 23.5t23.5 56.5v218z" />
    <glyph glyph-name="uni10D2" unicode="&#x10d2;" horiz-adv-x="309" 
d="M40 306q0 47 33.5 80.5t80.5 33.5q14 0 26 -4.5t14 -4.5q5 1 5 8v212q0 28 -20.5 48t-48.5 20q-27 0 -45.5 -20t-18.5 -48v-91h-22v90q0 38 24.5 64t61.5 26q38 0 64.5 -26t26.5 -64v-219q0 -8 14 -24q16 -17 25 -34.5t9 -46.5v-202q0 -47 -33.5 -80.5t-81.5 -33.5
q-47 0 -80.5 33.5t-33.5 80.5v202zM89.5 38.5q27.5 -27.5 64.5 -27.5q38 0 65.5 27t27.5 65v204q0 38 -27.5 65t-65.5 27t-65 -27t-27 -65v-204q0 -37 27.5 -64.5z" />
    <glyph glyph-name="uni10D3" unicode="&#x10d3;" horiz-adv-x="421" 
d="M329 71q0 43 -20 66t-52 35q-34 13 -85 13h-101v21h80q18 0 36 -5l1 1l-20 6l-4 1q-24 6 -51.5 24.5t-47.5 51t-20 77.5v271q0 36 25 61.5t61 25.5q28 0 49.5 -15.5t28.5 -34.5h2q7 19 28 34.5t49 15.5q36 0 62 -25.5t26 -61.5v-225q0 -36 -26.5 -62t-62.5 -26
q-37 0 -62 25.5t-25 62.5v225q0 27 -19.5 46.5t-47.5 19.5q-27 0 -46.5 -19.5t-19.5 -46.5v-263q0 -59 30 -94t71 -50l74 -27q62 -22 85 -50t23 -79v-70h-21v71zM334.5 360.5q19.5 19.5 19.5 46.5v226q0 27 -19.5 46.5t-47.5 19.5q-27 0 -46.5 -19.5t-19.5 -46.5v-226
q0 -27 19.5 -46.5t46.5 -19.5q28 0 47.5 19.5z" />
    <glyph glyph-name="uni10D4" unicode="&#x10d4;" horiz-adv-x="297" 
d="M67 281v-196q0 -30 22 -52t52 -22q31 0 53 22t22 52v542q0 29 -21.5 50.5t-51.5 21.5q-29 0 -50.5 -21.5t-21.5 -50.5v-87h-22v86q0 39 27.5 66.5t66.5 27.5t67 -27.5t28 -66.5v-540q0 -40 -28.5 -68t-68.5 -28t-68 28t-28 68v195h22z" />
    <glyph glyph-name="uni10D5" unicode="&#x10d5;" horiz-adv-x="292" 
d="M45 281h22v-196q0 -30 22 -52t52 -22q31 0 53 22t22 52v288q0 57 -57 57h-20v20h17q58 0 58 64v114q0 29 -21 50t-51 21q-29 0 -50 -21t-21 -50v-88h-22v87q0 38 27.5 65.5t65.5 27.5t66 -27.5t28 -65.5v-119q0 -28 -13.5 -45t-28.5 -21v-2q17 -3 30.5 -20t13.5 -45v-289
q0 -40 -28.5 -68t-68.5 -28t-68 28t-28 68v195z" />
    <glyph glyph-name="uni10D6" unicode="&#x10d6;" horiz-adv-x="381" 
d="M317.5 384.5q24.5 -25.5 24.5 -60.5v-247q0 -36 -26 -61.5t-62 -25.5t-61.5 25.5t-25.5 61.5v368h-2q-8 -13 -25.5 -20.5t-32.5 -7.5q-34 0 -58 24t-24 58v140q0 34 24 57.5t58 23.5t58 -23.5t24 -57.5v-261h1q3 9 12 24l60 91l17 -9l-52 -78q16 4 27 4q39 0 63.5 -25.5z
M167 640q0 24 -17.5 41.5t-42.5 17.5t-42.5 -17.5t-17.5 -41.5v-142q0 -25 17.5 -42.5t42.5 -17.5t42.5 17.5t17.5 42.5v142zM320 324q0 26 -19.5 45.5t-46.5 19.5q-26 0 -45.5 -19.5t-19.5 -45.5v-248q0 -26 19.5 -45.5t45.5 -19.5q27 0 46.5 19.5t19.5 45.5v248z" />
    <glyph glyph-name="uni10D7" unicode="&#x10d7;" horiz-adv-x="440" 
d="M76 15.5q-26 25.5 -26 62.5v555q0 36 26 61.5t61 25.5q29 0 49.5 -15.5t27.5 -34.5h2q7 19 28.5 34.5t49.5 15.5q36 0 61.5 -25.5t25.5 -61.5v-633h-22v633q0 27 -19.5 46.5t-47.5 19.5t-47 -19.5t-19 -46.5v-555q0 -37 -25.5 -62.5t-62.5 -25.5q-36 0 -62 25.5z
M185.5 30.5q19.5 19.5 19.5 46.5v556q0 27 -19.5 46.5t-47.5 19.5q-27 0 -46.5 -19.5t-19.5 -46.5v-556q0 -27 19.5 -46.5t46.5 -19.5q28 0 47.5 19.5z" />
    <glyph glyph-name="uni10D8" unicode="&#x10d8;" horiz-adv-x="312" 
d="M60 624q0 40 28 68t68 28t68 -28t28 -68v-624h-22v625q0 30 -21.5 52t-52.5 22t-52.5 -22t-21.5 -52v-625h-22v624z" />
    <glyph glyph-name="uni10D9" unicode="&#x10d9;" horiz-adv-x="258" 
d="M47 241v-156q0 -30 22 -52t52 -22q31 0 53 22t22 52v288q0 57 -57 57h-40v21h37q58 0 58 63v114q0 48 -26 80v2h23q25 -33 25 -83v-119q0 -28 -13.5 -45t-28.5 -21v-2q17 -3 30.5 -20t13.5 -45v-289q0 -40 -28.5 -68t-68.5 -28t-68 28t-28 68v155h22z" />
    <glyph glyph-name="uni10DA" unicode="&#x10da;" horiz-adv-x="550" 
d="M429 61q0 39 -15.5 62.5t-40.5 35.5t-65 22q-44 14 -115 14h-122v20h100q18 0 36 -5l1 1l-20 6l-4 1q-50 14 -94.5 47.5t-44.5 97.5v275q0 34 24 58t58 24q27 0 47 -15t27 -34h2q7 19 27 34t47 15t47 -15t27 -34h2q7 19 27 34t47 15q34 0 58.5 -24t24.5 -58v-238h-22v237
q0 26 -18.5 44t-44.5 18q-27 0 -45 -18t-18 -44v-187h-21v186q0 26 -19 44.5t-45 18.5q-25 0 -44 -18.5t-19 -44.5v-186h-21v187q0 26 -18.5 44t-44.5 18t-44.5 -18t-18.5 -44v-267q0 -59 37.5 -89.5t96.5 -46.5l92 -25q61 -17 95 -36.5t48 -46t14 -66.5v-60h-21v61z" />
    <glyph glyph-name="uni10DB" unicode="&#x10db;" horiz-adv-x="302" 
d="M45 316q0 39 27.5 66.5t67.5 27.5q25 0 44.5 -11t29.5 -27h2v255q0 29 -21.5 50.5t-51.5 21.5q-29 0 -50.5 -21.5t-21.5 -50.5v-117h-22v116q0 39 27.5 66.5t66.5 27.5t67 -27.5t28 -66.5v-540q0 -40 -28.5 -68t-68.5 -28t-68 28t-28 68v230zM89 33q22 -22 52 -22
q31 0 53 22t22 52v230q0 30 -22 52t-53 22q-30 0 -52 -22t-22 -52v-230q0 -30 22 -52z" />
    <glyph glyph-name="uni10DC" unicode="&#x10dc;" horiz-adv-x="293" 
d="M88 18q-28 28 -28 68v582q0 18 13 35t42 17q14 0 36 -6q21 -7 40 -7q28 0 60 13h2v-21q-7 -4 -25 -8.5t-38 -4.5q-10 0 -38 7q-24 6 -31 6q-22 0 -30.5 -10.5t-8.5 -34.5v-282h2q10 15 29.5 26.5t43.5 11.5q40 0 67.5 -27.5t27.5 -66.5v-230q0 -40 -28 -68t-68 -28
t-68 28zM208.5 33q21.5 22 21.5 52v230q0 30 -21.5 52t-52.5 22t-52.5 -22t-21.5 -52v-230q0 -30 21.5 -52t52.5 -22t52.5 22z" />
    <glyph glyph-name="uni10DD" unicode="&#x10dd;" horiz-adv-x="450" 
d="M60 633q0 36 25 61.5t61 25.5q28 0 49.5 -15.5t28.5 -34.5h2q7 19 27.5 34.5t49.5 15.5q35 0 61 -25.5t26 -61.5v-633h-22v633q0 27 -19 46.5t-47 19.5t-47 -19.5t-19 -46.5v-276h-21v276q0 27 -19.5 46.5t-47.5 19.5t-47 -19.5t-19 -46.5v-633h-22v633z" />
    <glyph glyph-name="uni10DE" unicode="&#x10de;" horiz-adv-x="282" 
d="M40 241h22v-156q0 -30 22 -52t52 -22q31 0 52.5 22t21.5 52v288q0 57 -56 57h-40v21h31q31 0 48 19t17 43q0 21 -7.5 36.5t-28.5 36.5l-52 52q-22 22 -32.5 35t-10.5 25v12h22v-7q0 -10 8 -20.5t29 -31.5l52 -53q42 -40 42 -83q0 -25 -13 -44.5t-33 -28.5v-2
q18 -4 32.5 -20.5t14.5 -44.5v-289q0 -40 -28.5 -68t-68.5 -28t-68 28t-28 68v155z" />
    <glyph glyph-name="uni10DF" unicode="&#x10df;" horiz-adv-x="367" 
d="M146.5 17.5q-27.5 27.5 -27.5 66.5v157h22v-158q0 -29 21.5 -50.5t50.5 -21.5q30 0 51.5 21.5t21.5 50.5v602h-3l-97 -67v-138q0 -33 -24 -56.5t-57 -23.5t-56.5 23.5t-23.5 56.5v65h22v-66q0 -24 17 -41t41 -17q25 0 42 17t17 41v147l120 84h24v-626q0 -39 -28 -66.5
t-67 -27.5t-66.5 27.5z" />
    <glyph glyph-name="uni10E0" unicode="&#x10e0;" horiz-adv-x="446" 
d="M55 384q0 41 19 70t55 58l134 113q27 22 38.5 37t11.5 35v13h22v-10q0 -21 -7.5 -38.5t-31.5 -37.5l-147 -123q-27 -22 -41 -36.5t-22.5 -34.5t-8.5 -49v-8h2q7 14 23.5 25.5t41.5 11.5q21 0 42 -13t31 -38h2q9 25 31 38t47 13q35 0 59.5 -24.5t24.5 -59.5v-326h-22v324
q0 26 -19 45.5t-46 19.5t-46 -19.5t-19 -45.5v-154h-21v154q0 26 -19.5 45.5t-46.5 19.5t-46 -19.5t-19 -45.5v-324h-22v384z" />
    <glyph glyph-name="uni10E1" unicode="&#x10e1;" horiz-adv-x="279" 
d="M87.5 17.5q-27.5 27.5 -27.5 66.5v626h22v-627q0 -29 21 -50.5t51 -21.5t51 21.5t21 50.5v238h22v-237q0 -39 -27.5 -66.5t-66.5 -27.5t-66.5 27.5z" />
    <glyph glyph-name="uni10E2" unicode="&#x10e2;" horiz-adv-x="437" 
d="M141 12q-37 22 -59 59t-22 81v558h22v-559q0 -38 18.5 -70t51 -51t70.5 -19t70 19t50 51t18 70v181q0 39 -6.5 60t-24.5 40l-48 47h-2l-35 -42q-14 -17 -19 -32t-5 -40v-35h-21v46q0 21 6.5 39t24.5 39l35 42l-35 35q-29 29 -40.5 47t-11.5 46q0 41 28 68.5t68 27.5
q41 0 68.5 -27.5t27.5 -68.5q0 -25 -7.5 -39t-28.5 -39l-40 -50l49 -50q20 -20 29.5 -45t9.5 -58v-191q0 -44 -21.5 -81t-58.5 -59t-81 -22q-43 0 -80 22zM207.5 587.5q8.5 -13.5 31.5 -37.5l39 -38l33 39q4 5 15 17t17.5 26t6.5 29q0 31 -23 53.5t-54 22.5q-30 0 -52 -22.5
t-22 -53.5q0 -22 8.5 -35.5z" />
    <glyph glyph-name="uni10E3" unicode="&#x10e3;" horiz-adv-x="342" 
d="M90 281h22v-196q0 -30 22 -52t52 -22q31 0 53 22t22 52v552q0 26 -18.5 44t-44.5 18q-27 0 -45 -18t-18 -44v-187h-22v196q0 24 -11.5 38.5t-34.5 14.5q-8 0 -22 -4t-20 -4q-10 0 -17 3t-8 5v21h2q3 -3 10 -5t15 -2t20 3.5t21 3.5q24 0 38.5 -12.5t18.5 -30.5h2
q11 20 30 31.5t42 11.5q35 0 59.5 -24t24.5 -59v-551q0 -40 -28.5 -68t-68.5 -28t-68 28t-28 68v195z" />
    <glyph glyph-name="uni10E4" unicode="&#x10e4;" horiz-adv-x="406" 
d="M160 23q-33 33 -33 79v179h22v-180q0 -37 26.5 -63.5t63.5 -26.5t64 26.5t27 63.5v229q0 38 -18.5 50t-38.5 12h-30v20h27q29 0 42.5 19t13.5 43v157q0 28 -18.5 48t-46.5 20t-48 -20t-20 -48v-113q0 -37 -26 -62.5t-63 -25.5t-62.5 25.5t-25.5 62.5v116q0 37 25.5 61.5
t62.5 24.5q27 0 47.5 -14t30.5 -35h2q9 20 29.5 34.5t47.5 14.5q36 0 61.5 -25.5t25.5 -60.5v-163q0 -20 -10.5 -39.5t-29.5 -28.5v-2q17 -3 30.5 -21.5t13.5 -47.5v-230q0 -46 -33 -79t-80 -33q-46 0 -79 33zM151.5 469.5q19.5 19.5 19.5 46.5v117q0 27 -19.5 46.5
t-47.5 19.5t-47 -18.5t-19 -47.5v-117q0 -27 19.5 -46.5t46.5 -19.5q28 0 47.5 19.5z" />
    <glyph glyph-name="uni10E5" unicode="&#x10e5;" horiz-adv-x="297" 
d="M45 281h22v-196q0 -30 22 -52t52 -22q31 0 52.5 22t21.5 52v400q0 30 -21.5 52t-52.5 22q-29 0 -49.5 -22t-20.5 -52v-35h-22v36q0 39 26.5 66.5t64.5 27.5q25 0 44.5 -11.5t28.5 -26.5h2v168h22v-624q0 -40 -28 -68t-68 -28t-68 28t-28 68v195z" />
    <glyph glyph-name="uni10E6" unicode="&#x10e6;" horiz-adv-x="415" 
d="M329 71q0 43 -19.5 65.5t-52.5 35.5q-34 13 -85 13h-101v21h80q18 0 36 -5l1 1l-20 6l-4 1q-24 6 -51.5 24.5t-47.5 51t-20 77.5v271q0 36 25 61.5t61 25.5q28 0 49.5 -15.5t28.5 -34.5h2q7 19 27.5 34.5t49.5 15.5q36 0 62 -25.5t26 -61.5v-233h-22v233q0 27 -19.5 46.5
t-47.5 19.5t-47 -19.5t-19 -46.5v-183h-21v183q0 27 -19.5 46.5t-47.5 19.5q-27 0 -46.5 -19.5t-19.5 -46.5v-263q0 -59 30 -94t71 -50l74 -27q62 -22 85 -50t23 -79v-70h-21v71z" />
    <glyph glyph-name="uni10E7" unicode="&#x10e7;" horiz-adv-x="297" 
d="M45 241h22v-156q0 -30 22 -52t52 -22q31 0 52.5 22t21.5 52v353h-2q-10 -16 -29 -27t-44 -11q-39 0 -65 27.5t-26 66.5v216h22v-215q0 -30 20 -52t50 -22q31 0 52.5 22t21.5 52v215h22v-624q0 -40 -28 -68t-68 -28t-68 28t-28 68v155z" />
    <glyph glyph-name="uni10E8" unicode="&#x10e8;" horiz-adv-x="327" 
d="M103 18q-28 28 -28 68v230q0 39 27.5 66.5t67.5 27.5q25 0 44.5 -11t29.5 -27h2v269q0 23 -17.5 40.5t-41.5 17.5t-41.5 -17t-17.5 -41v-131h-21v130q0 24 -17.5 41.5t-41.5 17.5q-16 0 -36 -10h-2v21q16 10 39 10q20 0 40 -12t28 -33h2q9 22 29 33.5t42 11.5
q32 0 55 -22.5t23 -54.5v-557q0 -40 -28.5 -68t-68.5 -28t-68 28zM224 33q22 22 22 52v230q0 30 -22 52t-53 22q-30 0 -52 -22t-22 -52v-230q0 -30 22 -52t52 -22q31 0 53 22z" />
    <glyph glyph-name="uni10E9" unicode="&#x10e9;" horiz-adv-x="292" 
d="M60 628q0 38 27 65t65 27t65 -27t27 -65v-71q0 -37 -26 -63.5t-64 -26.5q-24 0 -42.5 11t-27.5 25h-2v-152h2q7 15 28 27t46 12q39 0 66.5 -27.5t27.5 -66.5v-296h-22v295q0 31 -21.5 52.5t-52.5 21.5t-52.5 -21.5t-21.5 -52.5v-295h-22v628zM103.5 506.5
q20.5 -20.5 49.5 -20.5t49 20.5t20 49.5v74q0 28 -20.5 48.5t-48.5 20.5q-29 0 -49.5 -20.5t-20.5 -48.5v-74q0 -29 20.5 -49.5z" />
    <glyph glyph-name="uni10EA" unicode="&#x10ea;" horiz-adv-x="373" 
d="M60 710h21v-588q0 -46 32.5 -78.5t78.5 -32.5t78 32.5t32 76.5v243q0 28 -19 47.5t-47 19.5h-49v21h33q32 0 54.5 22.5t22.5 55.5q0 12 -6 29.5t-19 36.5l-30 41q-14 19 -20 31.5t-6 27.5v15h22v-11q0 -23 17 -45l32 -45q16 -22 24 -40t8 -40q0 -33 -15.5 -52.5
t-37.5 -31.5v-2q22 -7 39.5 -29t17.5 -54v-238q0 -36 -17.5 -66.5t-48 -48t-65.5 -17.5q-36 0 -66.5 17.5t-48 48t-17.5 66.5v588z" />
    <glyph glyph-name="uni10EB" unicode="&#x10eb;" horiz-adv-x="292" 
d="M68 18q-28 28 -28 68v230q0 39 27.5 66.5t67.5 27.5q25 0 44 -11t29 -27h2v338h22v-624q0 -40 -28 -68t-68 -28t-68 28zM188.5 33q21.5 22 21.5 52v230q0 30 -21.5 52t-52.5 22t-52.5 -22t-21.5 -52v-230q0 -30 21.5 -52t52.5 -22t52.5 22z" />
    <glyph glyph-name="uni10EC" unicode="&#x10ec;" horiz-adv-x="372" 
d="M127 138l-82 345q-20 87 -20 144q0 41 24 67t59 26q31 0 52 -18.5t26 -36.5h2q4 18 24.5 36.5t51.5 18.5q35 0 59.5 -26t24.5 -67q0 -22 -5 -48t-12 -45h-21q6 16 11 45t5 46q0 33 -18.5 53.5t-46.5 20.5q-27 0 -45.5 -19t-18.5 -45v-75h-21v75q0 26 -19 45t-46 19
t-45.5 -20.5t-18.5 -53.5q0 -23 5.5 -64t16.5 -90l6 -25h180q28 0 37 -3t9 -16t-9 -42l-69 -247q-23 -84 -39 -138h-22zM174 22q8 35 14 54q8 28 11 40l80 309h-199l74 -312q8 -37 18 -91h2z" />
    <glyph glyph-name="uni10ED" unicode="&#x10ed;" horiz-adv-x="316" 
d="M45 241h22v-156q0 -30 21.5 -52t52.5 -22t52.5 22t21.5 52v315h-2q-8 -9 -26.5 -19.5t-43.5 -10.5q-40 0 -67.5 27.5t-27.5 67.5q0 41 27.5 68.5t68.5 27.5q23 0 41.5 -11.5t28.5 -25.5h2v186h21v-254h2q3 4 23 27t42 59h2v-35q-17 -27 -69 -84v-337q0 -40 -28 -68
t-68 -28t-68 28t-28 68v155zM90.5 412q20.5 -21 51.5 -21q27 0 45 13t26 27v39q0 27 -19.5 48.5t-51.5 21.5q-33 0 -52.5 -21t-19.5 -54q0 -32 20.5 -53z" />
    <glyph glyph-name="uni10EE" unicode="&#x10ee;" horiz-adv-x="297" 
d="M224.5 382.5q27.5 -27.5 27.5 -66.5v-230q0 -40 -28 -68t-68 -28t-68 28t-28 68v624h22v-338h2q2 6 13 28l51 93l16 -9l-47 -83q20 9 40 9q40 0 67.5 -27.5zM230 315q0 30 -21.5 52t-52.5 22t-52.5 -22t-21.5 -52v-230q0 -30 21.5 -52t52.5 -22t52.5 22t21.5 52v230z" />
    <glyph glyph-name="uni10EF" unicode="&#x10ef;" horiz-adv-x="499" 
d="M30 12h38q38 0 66 28t28 66q0 40 -28 68t-67 28v28l186 186l-27 216q-4 30 -21.5 48.5t-44.5 18.5q-33 0 -51 -21t-18 -54t18 -69h-20q-20 34 -20 71q0 40 25.5 67t65.5 27q36 0 61 -24.5t29 -59.5l25 -204l94 95q7 7 24.5 23.5t26 32.5t8.5 35q0 33 -23 56.5t-56 23.5
h-27v18q17 4 32 4q39 0 68.5 -30t29.5 -72q0 -28 -14 -49t-41 -48l-119 -119l42 -333q4 -26 21.5 -42t40.5 -16q33 0 49.5 20.5t16.5 50.5q0 21 -3 34l-6 34h20q10 -42 10 -72q0 -37 -24 -62.5t-63 -25.5q-34 0 -58 21t-28 53l-40 322l-162 -163v-3q36 -6 65 -37.5t29 -76.5
q0 -48 -34 -82t-82 -34q-32 0 -42 3v19z" />
    <glyph glyph-name="uni10F0" unicode="&#x10f0;" horiz-adv-x="277" 
d="M30 150h22v-65q0 -30 22 -52t52 -22q31 0 53 22t22 52v135q0 31 -17 48t-48 17h-33v20h29q27 0 46 19t19 46t-19 46t-46 19h-29v20h13q32 0 54.5 22.5t22.5 54.5q0 20 -8.5 35t-28.5 32l-41 35q-38 33 -38 65v11h20v-7q1 -15 5.5 -26t19.5 -24l47 -39q26 -21 36 -41
t10 -43q0 -34 -14 -51t-32 -30v-2q16 -5 33 -25.5t17 -51.5q0 -30 -15.5 -48t-29.5 -24v-2q19 -5 34 -24.5t15 -50.5v-135q0 -40 -28.5 -68t-68.5 -28t-68 28t-28 68v64z" />
    <glyph glyph-name="uni10FB" unicode="&#x10fb;" horiz-adv-x="600" 
 />
    <glyph glyph-name="figuredash" unicode="&#x2012;" horiz-adv-x="464" 
d="M434 360v-19h-404v19h404z" />
    <glyph glyph-name="endash" unicode="&#x2013;" horiz-adv-x="379" 
d="M349 360v-19h-319v19h319z" />
    <glyph glyph-name="emdash" unicode="&#x2014;" horiz-adv-x="544" 
d="M514 360v-19h-484v19h484z" />
    <glyph glyph-name="quoteleft" unicode="&#x2018;" horiz-adv-x="94" 
d="M30 631l22 69h12l-11 -67v-82h-23v80z" />
    <glyph glyph-name="quoteright" unicode="&#x2019;" horiz-adv-x="94" 
d="M41 619v81h23v-80l-22 -69h-12z" />
    <glyph glyph-name="quotesinglbase" unicode="&#x201a;" horiz-adv-x="94" 
d="M41 0v81h23v-80l-22 -68h-12z" />
    <glyph glyph-name="quotedblleft" unicode="&#x201c;" horiz-adv-x="148" 
d="M30 631l22 69h12l-11 -67v-82h-23v80zM84 631l22 69h12l-12 -67v-82h-22v80z" />
    <glyph glyph-name="quotedblright" unicode="&#x201d;" horiz-adv-x="148" 
d="M42 619v81h22v-80l-21 -69h-13zM96 619l-1 1v80h23v-80l-22 -69h-12z" />
    <glyph glyph-name="quotedblbase" unicode="&#x201e;" horiz-adv-x="154" 
d="M41 0v81h23v-80l-22 -68h-12zM103 0l-1 1v80h22v-80l-21 -68h-13z" />
    <glyph glyph-name="bullet" unicode="&#x2022;" horiz-adv-x="156" 
d="M44 316q-14 14 -14 34t14 34t33 14q20 0 34.5 -14t14.5 -34t-14.5 -34t-34.5 -14q-19 0 -33 14z" />
    <glyph glyph-name="ellipsis" unicode="&#x2026;" horiz-adv-x="194" 
d="M30 81h23v-81h-23v81zM85 81h22v-81h-22v81zM142 81h22v-81h-22v81z" />
    <glyph glyph-name="guilsinglleft" unicode="&#x2039;" horiz-adv-x="149" 
d="M30 350l66 241h23l-66 -241l66 -243h-23z" />
    <glyph glyph-name="guilsinglright" unicode="&#x203a;" horiz-adv-x="149" 
d="M96 351l-66 241h22l67 -241l-67 -243h-22z" />
    <glyph glyph-name="Euro" unicode="&#x20ac;" horiz-adv-x="430" 
d="M128.5 44.5q-34.5 49.5 -34.5 127.5v118h-44v16h44v92h-44v16h44v114q0 79 34.5 128t109.5 49q73 0 107.5 -49t34.5 -128v-33h-22v34q0 69 -28.5 112t-91.5 43t-92 -43t-29 -112v-115h206v-16h-206v-92h206v-16h-206v-119q0 -69 28.5 -111.5t92.5 -42.5q63 0 91.5 42.5
t28.5 111.5v40h22v-39q0 -78 -34.5 -127.5t-107.5 -49.5q-75 0 -109.5 49.5z" />
    <glyph glyph-name="uni20BE" unicode="&#x20be;" horiz-adv-x="476" 
d="M404 370v163q0 56 -26.5 98.5t-79.5 58.5v-320h-17v325q-17 4 -44 4q-25 0 -42 -4v-325h-18v321q-52 -17 -78.5 -59.5t-26.5 -98.5v-368q0 -75 52 -109.5t144 -34.5h158v-21h-376v21h93v2q-19 3 -41 20.5t-37 48.5t-15 75v360q0 71 33 120t94 65v50h18v-46q17 4 42 4
t44 -4v46h17v-50q61 -16 94.5 -65t33.5 -120v-157h-22z" />
    <glyph glyph-name="minus" unicode="&#x2212;" horiz-adv-x="410" 
d="M50 359h310v-18h-310v18z" />
    <glyph glyph-name="approxequal" unicode="&#x2248;" horiz-adv-x="426" 
d="M262 395.5q-17 7.5 -45 23.5q-24 15 -41.5 23t-35.5 8q-43 0 -75 -52l-15 10q19 30 40 46t48 16q21 0 39 -8t47 -25q23 -14 39 -21.5t32 -7.5q21 0 36.5 14t29.5 39l15 -11q-17 -30 -35.5 -46t-43.5 -16q-18 0 -35 7.5zM262 236q-16 7 -45 24q-25 16 -42.5 23.5
t-36.5 7.5q-41 0 -73 -53l-15 11q19 29 40 45t48 16q21 0 39 -8t47 -25q23 -14 39 -21.5t32 -7.5q21 0 36.5 14t29.5 39l15 -10q-17 -30 -35.5 -46t-43.5 -16q-19 0 -35 7z" />
    <glyph glyph-name="uni10D0.ss01" horiz-adv-x="278" 
d="M47 160v-77q0 -29 21 -50.5t51 -21.5t51 21.5t21 50.5v119q0 32 -4.5 48t-24.5 36l-40 41q-17 17 -23.5 30t-6.5 29v14h21v-11q0 -16 4.5 -24.5t20.5 -24.5l39 -39q23 -23 29.5 -40.5t6.5 -56.5v-120q0 -39 -27.5 -66.5t-66.5 -27.5t-66.5 27.5t-27.5 66.5v76h22z" />
    <glyph glyph-name="uni10D1.ss01" horiz-adv-x="294" 
d="M206.5 372q22.5 -28 22.5 -64v-216q0 -42 -30 -72t-72 -30t-72 30t-30 72v216q0 42 30 72t72 30h1v180q0 13 -4.5 21t-18.5 15l-28 13q-16 8 -25.5 18t-9.5 29v24h22v-21q0 -14 4.5 -19.5t17.5 -11.5l31 -15q19 -9 25.5 -21t6.5 -30v-184q35 -8 57.5 -36zM207 309
q0 33 -23 56.5t-57 23.5t-57 -23.5t-23 -56.5v-218q0 -33 23 -56.5t57 -23.5t57 23.5t23 56.5v218z" />
    <glyph glyph-name="uni10D2.ss01" horiz-adv-x="318" 
d="M25 -4q0 47 33 80.5t80 33.5q14 0 26.5 -4.5t13.5 -4.5q5 1 5 8v212q0 28 -20 48t-48 20t-46 -20t-18 -48v-91h-22v90q0 38 24.5 64t61.5 26q38 0 64 -26t26 -64v-218q0 -5 4 -11.5t10 -13.5q16 -17 25 -34.5t9 -46.5v-202q0 -47 -33.5 -80.5t-80.5 -33.5t-80.5 33.5
t-33.5 80.5v202zM74 -272q27 -27 65 -27t65 27t27 65v204q0 38 -27 65t-65 27t-65 -27t-27 -65v-204q0 -38 27 -65z" />
    <glyph glyph-name="uni10D3.ss01" horiz-adv-x="375" 
d="M309 -239q0 43 -20 66t-52 35q-34 13 -85 13h-102v21h81q19 0 36 -6l1 1l-20 7l-4 1q-24 6 -51.5 24.5t-47.5 51t-20 77.5v271q0 36 25 61.5t61 25.5q28 0 49.5 -15.5t28.5 -34.5h2q7 19 27.5 34.5t49.5 15.5q35 0 61 -25.5t26 -61.5v-225q0 -37 -26 -62.5t-62 -25.5
q-37 0 -62 25.5t-25 62.5v225q0 27 -19.5 46.5t-47.5 19.5t-47 -19.5t-19 -46.5v-263q0 -59 29.5 -94t70.5 -50l75 -27q62 -23 85 -50.5t23 -78.5v-70h-21v71zM314 50.5q19 19.5 19 46.5v226q0 27 -19 46.5t-47 19.5t-47 -19.5t-19 -46.5v-226q0 -27 19 -46.5t47 -19.5
t47 19.5z" />
    <glyph glyph-name="uni10D4.ss01" horiz-adv-x="288" 
d="M47 -29v-196q0 -30 21.5 -52t52.5 -22t52.5 22t21.5 52v542q0 29 -21 50.5t-51 21.5t-51 -21.5t-21 -50.5v-87h-22v86q0 39 27.5 66.5t66.5 27.5t66.5 -27.5t27.5 -66.5v-540q0 -40 -28 -68t-68 -28t-68 28t-28 68v195h22z" />
    <glyph glyph-name="uni10D5.ss01" horiz-adv-x="292" 
d="M25 -29h22v-196q0 -30 21.5 -52t52.5 -22t52.5 22t21.5 52v288q0 59 -56 59h-20v20h17q22 0 39.5 11t17.5 51v114q0 29 -20.5 50t-50.5 21t-50.5 -21t-20.5 -50v-88h-22v87q0 38 27.5 65.5t65.5 27.5t65.5 -27.5t27.5 -65.5v-119q0 -28 -13.5 -44.5t-28.5 -20.5v-2
q17 -3 30.5 -20.5t13.5 -45.5v-289q0 -40 -28 -68t-68 -28t-68 28t-28 68v195z" />
    <glyph glyph-name="uni10D6.ss01" horiz-adv-x="337" 
d="M257.5 384.5q24.5 -25.5 24.5 -60.5v-247q0 -36 -25.5 -61.5t-61.5 -25.5t-62 25.5t-26 61.5v368h-2q-8 -13 -25 -20.5t-32 -7.5q-34 0 -58 24t-24 58v140q0 34 24 57.5t58 23.5t57.5 -23.5t23.5 -57.5v-261h1q2 4 5.5 10t6.5 14l51 91l17 -9l-46 -80q14 6 31 6
q38 0 62.5 -25.5zM107 640q0 24 -17 41.5t-42 17.5t-42.5 -17.5t-17.5 -41.5v-142q0 -25 17.5 -42.5t42.5 -17.5t42 17.5t17 42.5v142zM260 324q0 26 -19.5 45.5t-45.5 19.5q-27 0 -46.5 -19.5t-19.5 -45.5v-248q0 -26 19.5 -45.5t46.5 -19.5q26 0 45.5 19.5t19.5 45.5v248z
" />
    <glyph glyph-name="uni10D7.ss01" horiz-adv-x="440" 
d="M51 15.5q-26 25.5 -26 62.5v245q0 36 26 61.5t61 25.5q29 0 49.5 -15.5t27.5 -34.5h2q7 19 28.5 34.5t49.5 15.5q36 0 61 -25.5t25 -61.5v-323h-22v323q0 27 -19 46.5t-47 19.5t-47 -19.5t-19 -46.5v-245q0 -37 -25.5 -62.5t-62.5 -25.5q-36 0 -62 25.5zM160.5 30.5
q19.5 19.5 19.5 46.5v246q0 27 -19.5 46.5t-47.5 19.5t-47 -19.5t-19 -46.5v-246q0 -27 19 -46.5t47 -19.5t47.5 19.5z" />
    <glyph glyph-name="uni10D8.ss01" horiz-adv-x="257" 
d="M25 314q0 40 28 68t68 28t68 -28t28 -68v-314h-22v315q0 30 -21.5 52t-52.5 22t-52.5 -22t-21.5 -52v-315h-22v314z" />
    <glyph glyph-name="uni10D9.ss01" horiz-adv-x="257" 
d="M47 -69v-156q0 -30 21.5 -52t52.5 -22t52.5 22t21.5 52v288q0 59 -56 59h-40v21h37q23 0 40 11t17 50v114q0 48 -26 80v2h23q25 -33 25 -83v-119q0 -28 -13.5 -44.5t-28.5 -20.5v-2q17 -3 30.5 -20.5t13.5 -45.5v-289q0 -40 -28 -68t-68 -28t-68 28t-28 68v155h22z" />
    <glyph glyph-name="uni10DA.ss01" horiz-adv-x="522" 
d="M409 -249q0 39 -16 62.5t-41 35.5t-64 22q-44 14 -115 14h-123v20h101q19 0 36 -5l1 1l-20 6l-4 1q-50 14 -94.5 47.5t-44.5 97.5v275q0 34 24 58t58 24q27 0 47 -15t27 -34h2q7 19 27 34t47 15t47 -15t27 -34h2q7 19 27 34t47 15q34 0 58 -24t24 -58v-238h-22v237
q0 26 -18 44t-44 18q-27 0 -45.5 -18t-18.5 -44v-197h-21v196q0 26 -18.5 44.5t-44.5 18.5t-44.5 -18.5t-18.5 -44.5v-196h-21v197q0 26 -18.5 44t-44.5 18q-27 0 -45 -18t-18 -44v-267q0 -59 37.5 -89.5t96.5 -46.5l91 -25q61 -17 95 -36.5t48.5 -46t14.5 -66.5v-60h-21v61
z" />
    <glyph glyph-name="uni10DB.ss01" horiz-adv-x="282" 
d="M25 316q0 39 27.5 66.5t67.5 27.5q25 0 44 -11t29 -27h2v255q0 29 -21 50.5t-51 21.5t-51 -21.5t-21 -50.5v-117h-22v116q0 39 27.5 66.5t66.5 27.5t66.5 -27.5t27.5 -66.5v-540q0 -40 -28 -68t-68 -28t-68 28t-28 68v230zM68.5 33q21.5 -22 52.5 -22t52.5 22t21.5 52
v230q0 30 -21.5 52t-52.5 22t-52.5 -22t-21.5 -52v-230q0 -30 21.5 -52z" />
    <glyph glyph-name="uni10DC.ss01" horiz-adv-x="282" 
d="M53 18q-28 28 -28 68v582q0 18 13 35t42 17q14 0 36 -6q21 -7 40 -7q28 0 60 13h2v-21q-7 -4 -25 -8.5t-38 -4.5q-10 0 -22.5 3t-16.5 4q-22 6 -31 6q-21 0 -29.5 -10.5t-8.5 -34.5v-282h2q10 16 29 27t44 11q40 0 67.5 -27.5t27.5 -66.5v-230q0 -40 -28 -68t-68 -28
t-68 28zM173.5 33q21.5 22 21.5 52v230q0 30 -21.5 52t-52.5 22t-52.5 -22t-21.5 -52v-230q0 -30 21.5 -52t52.5 -22t52.5 22z" />
    <glyph glyph-name="uni10DD.ss01" horiz-adv-x="418" 
d="M25 323q0 36 25 61.5t61 25.5q28 0 49.5 -15.5t28.5 -34.5h2q7 19 27.5 34.5t49.5 15.5q35 0 61 -25.5t26 -61.5v-323h-22v323q0 27 -19 46.5t-47 19.5t-47.5 -19.5t-19.5 -46.5v-153h-21v153q0 27 -19 46.5t-47 19.5t-47 -19.5t-19 -46.5v-323h-22v323z" />
    <glyph glyph-name="uni10DE.ss01" horiz-adv-x="257" 
d="M25 273h22v-188q0 -30 21.5 -52t52.5 -22t52.5 22t21.5 52v288q0 59 -56 59h-41v21h35q32 0 47 16t15 40q0 20 -9 34t-37 43l-62 62q-19 19 -26 28t-7 22v12h22v-7q0 -11 4.5 -17.5t22.5 -24.5l62 -63q24 -24 38 -44t14 -43q0 -51 -46 -68v-2q18 -4 32 -21t14 -45v-289
q0 -40 -28 -68t-68 -28t-68 28t-28 68v187z" />
    <glyph glyph-name="uni10DF.ss01" horiz-adv-x="372" 
d="M146.5 -292.5q-27.5 27.5 -27.5 66.5v189h22v-190q0 -29 21 -50.5t51 -21.5t51 21.5t21 50.5v602h-3l-97 -67v-138q0 -33 -23.5 -56.5t-56.5 -23.5t-56.5 23.5t-23.5 56.5v71h22v-72q0 -24 16.5 -41t41.5 -17t41.5 17t16.5 41v147l120 84h24v-626q0 -39 -27.5 -66.5
t-66.5 -27.5t-66.5 27.5z" />
    <glyph glyph-name="uni10E0.ss01" horiz-adv-x="416" 
d="M25 384q0 41 19 70t55 58l134 113q27 22 38.5 37t11.5 35v13h22v-10q0 -21 -7.5 -38.5t-31.5 -37.5l-147 -123q-27 -22 -41 -36.5t-22.5 -34.5t-8.5 -49v-8h2q7 14 23.5 25.5t41.5 11.5q21 0 42 -13t31 -38h2q9 25 31 38t47 13q35 0 59.5 -24.5t24.5 -59.5v-326h-22v324
q0 26 -19 45.5t-46 19.5t-46.5 -19.5t-19.5 -45.5v-164h-20v164q0 26 -19.5 45.5t-46.5 19.5t-46 -19.5t-19 -45.5v-324h-22v384z" />
    <glyph glyph-name="uni10E1.ss01" horiz-adv-x="283" 
d="M52.5 17.5q-27.5 27.5 -27.5 66.5v626h22v-627q0 -29 21 -50.5t51 -21.5t51 21.5t21 50.5v317h22v-316q0 -39 -27.5 -66.5t-66.5 -27.5t-66.5 27.5z" />
    <glyph glyph-name="uni10E2.ss01" horiz-adv-x="412" 
d="M106 -298q-37 22 -59 59t-22 81v558h22v-559q0 -38 18.5 -70t51 -51t70.5 -19t70 19t50 51t18 70v181q0 39 -6.5 60t-24.5 40l-48 47h-2l-35 -42q-14 -17 -19 -32t-5 -40v-45h-21v56q0 21 6.5 39t24.5 39l35 42l-35 35q-29 29 -40.5 47t-11.5 46q0 41 28 68.5t68 27.5
q41 0 68.5 -27.5t27.5 -68.5q0 -25 -7.5 -39t-28.5 -39l-40 -50l49 -50q20 -20 29.5 -45t9.5 -58v-191q0 -44 -21.5 -81t-58.5 -59t-81 -22q-43 0 -80 22zM172.5 277.5q8.5 -13.5 31.5 -37.5l39 -38l33 39q3 4 14 16.5t17.5 26t6.5 29.5q0 31 -22.5 53.5t-53.5 22.5
t-52.5 -22.5t-21.5 -53.5q0 -22 8.5 -35.5z" />
    <glyph glyph-name="uni10E3.ss01" horiz-adv-x="347" 
d="M90 -29h22v-196q0 -30 21.5 -52t52.5 -22t52.5 22t21.5 52v552q0 26 -18 44t-44 18q-27 0 -45.5 -18t-18.5 -44v-172h-21v181q0 24 -11.5 38.5t-34.5 14.5q-8 0 -22 -4t-20 -4q-10 0 -17 3t-8 5v21h2q3 -3 10 -5t15 -2t20 3.5t21 3.5q24 0 38.5 -12.5t18.5 -30.5h2
q11 20 30 31.5t42 11.5q35 0 59 -24t24 -59v-551q0 -40 -28 -68t-68 -28t-68 28t-28 68v195z" />
    <glyph glyph-name="uni10E4.ss01" horiz-adv-x="416" 
d="M160 -287.5q-33 32.5 -33 79.5v183h22v-184q0 -37 26.5 -63.5t63.5 -26.5t63.5 26.5t26.5 63.5v229q0 38 -18 50t-38 12h-30v20h27q29 0 42 19t13 43v157q0 28 -18 48t-46 20t-48 -20t-20 -48v-113q0 -37 -26 -62.5t-63 -25.5t-62.5 25.5t-25.5 62.5v116q0 37 25.5 61.5
t62.5 24.5q27 0 47.5 -14t30.5 -35h2q9 20 29.5 34.5t47.5 14.5q35 0 60.5 -25.5t25.5 -60.5v-163q0 -20 -10.5 -39.5t-29.5 -28.5v-2q17 -3 30.5 -21.5t13.5 -47.5v-230q0 -47 -32.5 -79.5t-79.5 -32.5q-46 0 -79 32.5zM151.5 159.5q19.5 19.5 19.5 46.5v117
q0 27 -19.5 46.5t-47.5 19.5t-47 -18.5t-19 -47.5v-117q0 -27 19.5 -46.5t46.5 -19.5q28 0 47.5 19.5z" />
    <glyph glyph-name="uni10E5.ss01" horiz-adv-x="282" 
d="M25 -25h22v-200q0 -30 21.5 -52t52.5 -22t52.5 22t21.5 52v540q0 30 -21.5 52t-52.5 22q-29 0 -49.5 -22t-20.5 -52v-102h-22v103q0 39 26.5 66.5t64.5 27.5q24 0 44 -11.5t29 -26.5h2v338h22v-934q0 -40 -28 -68t-68 -28t-68 28t-28 68v199z" />
    <glyph glyph-name="uni10E6.ss01" horiz-adv-x="420" 
d="M309 -239q0 43 -19.5 65.5t-52.5 35.5q-34 13 -85 13h-102v21h81q19 0 36 -6l1 1l-20 7l-4 1q-24 6 -51.5 24.5t-47.5 51t-20 77.5v271q0 36 25 61.5t61 25.5q28 0 49.5 -15.5t28.5 -34.5h2q7 19 27.5 34.5t49.5 15.5q35 0 61 -25.5t26 -61.5v-213h-22v213q0 27 -19 46.5
t-47 19.5t-47.5 -19.5t-19.5 -46.5v-173h-21v173q0 27 -19 46.5t-47 19.5t-47 -19.5t-19 -46.5v-263q0 -59 29.5 -94t70.5 -50l75 -27q62 -23 85 -50.5t23 -78.5v-70h-21v71z" />
    <glyph glyph-name="uni10E7.ss01" horiz-adv-x="282" 
d="M25 -37h22v-188q0 -30 21.5 -52t52.5 -22t52.5 22t21.5 52v353h-2q-10 -15 -29.5 -26.5t-43.5 -11.5q-39 0 -65 27.5t-26 66.5v216h22v-215q0 -31 20 -52.5t50 -21.5q31 0 52.5 22t21.5 52v215h22v-624q0 -40 -28 -68t-68 -28t-68 28t-28 68v187z" />
    <glyph glyph-name="uni10E8.ss01" horiz-adv-x="283" 
d="M68 18q-28 28 -28 68v230q0 39 27.5 66.5t67.5 27.5q25 0 44.5 -11.5t28.5 -26.5h2v269q0 23 -17 40.5t-41 17.5q-25 0 -42.5 -17.5t-17.5 -40.5v-131h-20v130q0 24 -17.5 41.5t-41.5 17.5q-16 0 -36 -10h-2v21q16 10 39 10q20 0 40 -12t28 -33h2q9 22 29 33.5t42 11.5
q32 0 54.5 -22.5t22.5 -54.5v-557q0 -40 -28 -68t-68 -28t-68 28zM188.5 33q21.5 22 21.5 52v230q0 30 -21.5 52t-52.5 22q-30 0 -52 -22t-22 -52v-230q0 -30 22 -52t52 -22q31 0 52.5 22z" />
    <glyph glyph-name="uni10E9.ss01" horiz-adv-x="282" 
d="M25 628q0 38 27 65t65 27t65 -27t27 -65v-71q0 -37 -26 -63.5t-64 -26.5q-24 0 -42.5 11t-27.5 25h-2v-152h2q7 15 28 27t46 12q39 0 66.5 -27.5t27.5 -66.5v-296h-22v295q0 31 -21.5 52.5t-52.5 21.5t-52.5 -21.5t-21.5 -52.5v-295h-22v628zM68.5 506.5
q20.5 -20.5 49.5 -20.5t49 20.5t20 49.5v74q0 28 -20.5 48.5t-48.5 20.5q-29 0 -49.5 -20.5t-20.5 -48.5v-74q0 -29 20.5 -49.5z" />
    <glyph glyph-name="uni10EA.ss01" horiz-adv-x="353" 
d="M25 400h21v-588q0 -46 32.5 -78.5t78.5 -32.5t78 32t32 77v243q0 28 -19.5 48.5t-46.5 20.5h-49v21h33q32 0 54.5 21.5t22.5 54.5q0 12 -6 29.5t-20 36.5l-29 41q-14 19 -20 31.5t-6 27.5v15h22v-11q0 -22 16 -45l32 -45q17 -23 25 -41t8 -39q0 -33 -17.5 -53t-36.5 -30
v-2q22 -7 40 -29.5t18 -54.5v-238q0 -36 -17.5 -66.5t-48 -48t-65.5 -17.5q-36 0 -66.5 17.5t-48 48t-17.5 66.5v588z" />
    <glyph glyph-name="uni10EB.ss01" horiz-adv-x="282" 
d="M53 18q-28 28 -28 68v230q0 39 27.5 66.5t67.5 27.5q25 0 44 -11t29 -27h2v338h22v-624q0 -40 -28 -68t-68 -28t-68 28zM173.5 33q21.5 22 21.5 52v230q0 30 -21.5 52t-52.5 22t-52.5 -22t-21.5 -52v-230q0 -30 21.5 -52t52.5 -22t52.5 22z" />
    <glyph glyph-name="uni10EC.ss01" horiz-adv-x="398" 
d="M151 -247q-42 250 -44 264l-67 465q-15 103 -15 145q0 41 23.5 67t59.5 26q31 0 52 -18.5t26 -36.5h2q4 18 24.5 36.5t51.5 18.5q36 0 59.5 -27.5t23.5 -75.5q0 -30 -10.5 -79.5t-23.5 -83.5h-21q11 32 22 84.5t11 76.5q0 40 -18 62t-46 22q-27 0 -46 -19t-19 -45v-115
h-20v115q0 26 -19 45t-46 19q-28 0 -46 -20.5t-18 -53.5q0 -14 11 -104l6 -50l18 -145h172q28 0 37 -2.5t9 -12.5q0 -8 -4.5 -26.5t-5.5 -27.5l-44 -240l-21 -111q-6 -30 -20.5 -110.5t-20.5 -105.5h-22zM174 -268q24 118 48 262l57 311h-192l41 -285q2 -14 32 -211l12 -77
h2z" />
    <glyph glyph-name="uni10ED.ss01" horiz-adv-x="341" 
d="M25 -9h22v-216q0 -30 21.5 -52t52.5 -22t52.5 22t21.5 52v424h-2q-8 -9 -26.5 -19t-43.5 -10q-40 0 -67.5 27.5t-27.5 67.5q0 41 27.5 68.5t68.5 27.5q23 0 41.5 -11.5t28.5 -26.5h2v387h21v-454h2q4 5 23.5 27.5t41.5 58.5h2v-35q-17 -27 -69 -84v-447q0 -40 -28 -68
t-68 -28t-68 28t-28 68v215zM70.5 212q20.5 -21 51.5 -21q27 0 45 13t26 27v39q0 27 -19.5 48.5t-51.5 21.5t-52 -21.5t-20 -53.5t20.5 -53z" />
    <glyph glyph-name="uni10EE.ss01" horiz-adv-x="262" 
d="M189.5 382.5q27.5 -27.5 27.5 -66.5v-230q0 -40 -28 -68t-68 -28t-68 28t-28 68v624h22v-338h2q2 6 13 28l50 93l17 -9l-47 -83q20 9 40 9q40 0 67.5 -27.5zM195 315q0 30 -21.5 52t-52.5 22t-52.5 -22t-21.5 -52v-230q0 -30 21.5 -52t52.5 -22t52.5 22t21.5 52v230z" />
    <glyph glyph-name="uni10EF.ss01" horiz-adv-x="443" 
d="M0 -298h38q39 0 66.5 28t27.5 66q0 40 -27.5 68t-67.5 28v28l186 186l-26 216q-4 30 -22 48.5t-45 18.5q-32 0 -50 -21t-18 -54t18 -69h-20q-20 34 -20 71q0 40 25 67t65 27q36 0 61 -24.5t29 -59.5l25 -204l94 95q6 6 24 22.5t26.5 33t8.5 35.5q0 33 -23 56.5t-56 23.5
h-27v18q17 4 32 4q39 0 68.5 -30t29.5 -72q0 -28 -14 -49t-41 -48l-119 -119l42 -333q4 -26 21.5 -42t40.5 -16q33 0 49.5 20.5t16.5 50.5q0 20 -3 34l-6 36h20q10 -42 10 -74q0 -37 -24 -62.5t-63 -25.5q-33 0 -57.5 21t-28.5 53l-39 322l-163 -163v-3q37 -6 65.5 -37.5
t28.5 -76.5q0 -48 -34 -82t-82 -34q-32 0 -42 3v19z" />
    <glyph glyph-name="uni10F0.ss01" horiz-adv-x="282" 
d="M25 155h22v-70q0 -30 21.5 -52t52.5 -22t52.5 22t21.5 52v135q0 31 -16.5 48t-47.5 17h-33v20h29q27 0 45.5 19t18.5 46t-18.5 46t-45.5 19h-29v20h13q32 0 54 22.5t22 54.5q0 20 -8.5 35t-27.5 32l-42 35q-14 12 -25.5 29t-11.5 36v11h20v-7q0 -15 5 -26t20 -24l46 -39
q26 -21 36 -41t10 -43q0 -34 -14 -52t-32 -29v-2q17 -5 33.5 -25.5t16.5 -51.5q0 -30 -15.5 -48.5t-29.5 -23.5v-2q19 -5 34 -24t15 -51v-135q0 -40 -28 -68t-68 -28t-68 28t-28 68v69z" />
    <glyph glyph-name="brevecombcy" horiz-adv-x="0" 
 />
    </font>
</defs>
</svg>
