<?xml version="1.0" standalone="no"?>
<!DOCTYPE svg PUBLIC "-//W3C//DTD SVG 1.1//EN" "http://www.w3.org/Graphics/SVG/1.1/DTD/svg11.dtd" >
<svg xmlns="http://www.w3.org/2000/svg" xmlns:xlink="http://www.w3.org/1999/xlink" version="1.1">
<metadata>
Created by FontForge 20161013 at Sun Jun  4 15:28:53 2017
 By ,,,
Copyright (c) 2016 by Beno Gordeziani, Aleksandre Charkviani. All rights reserved.
</metadata>
<defs>
<font id="GLGordeziani-Light" horiz-adv-x="337" >
  <font-face 
    font-family="GL Gordeziani Light"
    font-weight="300"
    font-stretch="normal"
    units-per-em="1000"
    panose-1="0 0 4 0 0 0 0 0 0 0"
    ascent="800"
    descent="-200"
    x-height="710"
    cap-height="710"
    bbox="-41 -320 730 818"
    underline-thickness="50"
    underline-position="-150"
    unicode-range="U+0020-2248"
  />
<missing-glyph horiz-adv-x="510" 
d="M418 -310h-323v1020h323v-1020zM171 642v-34h67v-38h-68v-33h170v33h-68v38h68v34h-169zM170 510v-106h170v35h-68v71h-102zM238 439h-34v36h34v-36zM170 376v-33h68v-38h-68v-34h102v72h68v33h-170zM306 315v-67h-136v-35h170v102h-34zM238 191v-57h34v23h34v-48h-102
v82h-34v-115h170v115h-102zM170 14v-115h170v115h-170zM306 -67h-102v48h102v-48zM170 -124v-34h72l-72 -48v-34h170v34h-104l71 48h33v34h-170z" />
    <glyph glyph-name=".notdef" horiz-adv-x="510" 
d="M418 -310h-323v1020h323v-1020zM171 642v-34h67v-38h-68v-33h170v33h-68v38h68v34h-169zM170 510v-106h170v35h-68v71h-102zM238 439h-34v36h34v-36zM170 376v-33h68v-38h-68v-34h102v72h68v33h-170zM306 315v-67h-136v-35h170v102h-34zM238 191v-57h34v23h34v-48h-102
v82h-34v-115h170v115h-102zM170 14v-115h170v115h-170zM306 -67h-102v48h102v-48zM170 -124v-34h72l-72 -48v-34h170v34h-104l71 48h33v34h-170z" />
    <glyph glyph-name=".null" horiz-adv-x="0" 
 />
    <glyph glyph-name="nonmarkingreturn" horiz-adv-x="333" 
 />
    <glyph glyph-name="space" unicode=" " horiz-adv-x="173" 
 />
    <glyph glyph-name="exclam" unicode="!" horiz-adv-x="98" 
d="M30 326v375h38v-375l-5 -171h-28zM30 85h38v-85h-38v85z" />
    <glyph glyph-name="quotedbl" unicode="&#x22;" horiz-adv-x="171" 
d="M30 701h37l-4 -169h-29zM104 701h37l-5 -169h-27z" />
    <glyph glyph-name="numbersign" unicode="#" horiz-adv-x="408" 
d="M98 225h-68l2 28h69l24 233h-69l2 28h70l19 187h32l-19 -187h124l19 187h33l-20 -187h62l-2 -28h-63l-24 -233h62l-2 -28h-63l-23 -225h-33l24 225h-124l-24 -225h-32zM257 253l24 233h-124l-24 -233h124z" />
    <glyph glyph-name="dollar" unicode="$" horiz-adv-x="399" 
d="M185 -2q-69 4 -102 51t-33 122v38h37v-40q0 -63 27 -99.5t85 -36.5t85 36.5t27 99.5q0 39 -16.5 68t-40.5 50t-66 49q-45 31 -71.5 54.5t-45 57.5t-18.5 81q0 77 32.5 122t99.5 51v61h31v-61q68 -5 100 -52t32 -121v-15h-36v17q0 62 -26.5 99.5t-83.5 37.5
q-58 0 -84.5 -37t-26.5 -100q0 -39 16.5 -69t41 -51t66.5 -49q45 -31 71 -54t44.5 -57t18.5 -80q0 -75 -32.5 -121.5t-100.5 -51.5v-56h-31v56z" />
    <glyph glyph-name="percent" unicode="%" horiz-adv-x="626" 
d="M73 296q-23 32 -23 82v210q0 50 23 82t70 32q48 0 71 -31.5t23 -82.5v-210q0 -51 -23 -82.5t-71 -31.5q-47 0 -70 32zM437 701h26l-276 -701h-26zM194 313q15 24 15 63v213q0 88 -66 88t-66 -88v-213q0 -39 15 -63t51 -24t51 24zM412.5 30q-22.5 32 -22.5 83v208
q0 50 22.5 81.5t70.5 31.5q49 0 71 -31.5t22 -81.5v-208q0 -51 -22 -83t-71 -32q-48 0 -70.5 32zM534.5 48q15.5 24 15.5 63v211q0 39 -15.5 63t-51.5 24t-51 -24t-15 -63v-211q0 -39 15 -63t51 -24t51.5 24z" />
    <glyph glyph-name="ampersand" unicode="&#x26;" horiz-adv-x="430" 
d="M83 37.5q-33 43.5 -33 118.5v65q0 52 23.5 91.5t69.5 54.5q-46 12 -69.5 50.5t-23.5 90.5v18q0 84 42 129t126 45h96v-35h-96q-130 0 -130 -137v-27q0 -49 26.5 -82.5t72.5 -36.5h116v78h38v-78h39v-34h-39v-255q0 -33 3 -53.5t15 -39.5h-40q-15 29 -15 68
q-15 -36 -47 -55t-73 -19q-68 0 -101 43.5zM272.5 56.5q29.5 27.5 30.5 75.5v216h-110q-50 -4 -77.5 -37.5t-27.5 -87.5v-64q0 -60 27 -95t82 -35q46 0 75.5 27.5z" />
    <glyph glyph-name="quotesingle" unicode="'" horiz-adv-x="96" 
d="M30 701h36l-4 -169h-28z" />
    <glyph glyph-name="parenleft" unicode="(" horiz-adv-x="214" 
d="M59 39q-29 39 -29 116v390q0 78 29.5 117t103.5 39h21v-33h-19q-56 0 -76.5 -30.5t-20.5 -92.5v-390q0 -61 20.5 -91.5t76.5 -30.5h19v-33h-21q-75 0 -104 39z" />
    <glyph glyph-name="parenright" unicode=")" horiz-adv-x="214" 
d="M30 33h19q55 0 76 30.5t21 91.5v390q0 61 -21 92t-76 31h-19v33h20q74 0 104 -39t30 -117v-390q0 -77 -30 -116t-104 -39h-20v33z" />
    <glyph glyph-name="asterisk" unicode="*" horiz-adv-x="381" 
d="M206 694l-7 -151l142 48l10 -31l-147 -33l92 -119l-25 -19l-81 127l-80 -126l-26 18l92 119l-146 36l10 31l142 -51l-8 151h32z" />
    <glyph glyph-name="plus" unicode="+" horiz-adv-x="416" 
d="M194 336h-144v28h144v145h29v-145h143v-28h-143v-147h-29v147z" />
    <glyph glyph-name="comma" unicode="," horiz-adv-x="106" 
d="M47 0l-8 1v85h37v-83l-27 -76h-17z" />
    <glyph glyph-name="hyphen" unicode="-" horiz-adv-x="242" 
d="M212 367v-34h-182v34h182z" />
    <glyph glyph-name="period" unicode="." horiz-adv-x="97" 
d="M30 86h37v-86h-37v86z" />
    <glyph glyph-name="slash" unicode="/" horiz-adv-x="370" 
d="M306 700h34l-276 -700h-34z" />
    <glyph glyph-name="zero" unicode="0" horiz-adv-x="401" 
d="M85.5 42.5q-37.5 48.5 -37.5 128.5v358q0 80 37.5 128.5t114.5 48.5t115 -48.5t38 -128.5v-358q0 -80 -38 -128.5t-115 -48.5t-114.5 48.5zM287 67.5q28 38.5 28 102.5v361q0 64 -28 102t-87 38q-58 0 -86 -38.5t-28 -101.5v-361q0 -64 28 -102.5t86 -38.5q59 0 87 38.5z
" />
    <glyph glyph-name="one" unicode="1" horiz-adv-x="262" 
d="M146 636q-36 -56 -112 -64v30q47 4 75 29.5t44 69.5h31v-701h-38v636z" />
    <glyph glyph-name="two" unicode="2" horiz-adv-x="395" 
d="M48 28q0 63 20 113t48.5 86.5t75.5 86.5q41 44 63.5 71.5t38 63t15.5 77.5q0 145 -113 145q-58 0 -85 -39.5t-27 -103.5v-45h-36v42q0 81 36 131t113 50q78 0 114 -48.5t36 -130.5q0 -46 -16.5 -84.5t-41 -69t-66.5 -75.5q-46 -50 -72 -83.5t-45 -79t-20 -100.5h256v-35
h-294v28z" />
    <glyph glyph-name="three" unicode="3" horiz-adv-x="396" 
d="M85 42.5q-37 48.5 -37 128.5v38h37v-39q0 -64 26.5 -102.5t85.5 -38.5t86 39t27 105v53q0 56 -28 88t-80 34h-49v34h50q49 4 78 37.5t29 85.5v23q0 66 -27 104.5t-86 38.5t-85.5 -38t-26.5 -102v-26h-37v24q0 80 37 128.5t113 48.5t113 -48.5t37 -128.5v-17
q0 -52 -25.5 -91t-70.5 -54q48 -14 72 -51.5t24 -90.5v-54q0 -80 -37 -128.5t-113 -48.5t-113 48.5z" />
    <glyph glyph-name="four" unicode="4" horiz-adv-x="441" 
d="M296 158h-242v36l236 507h44v-508h59v-35h-59v-158h-38v158zM296 193v438l-207 -438h207z" />
    <glyph glyph-name="five" unicode="5" horiz-adv-x="396" 
d="M85 43q-37 49 -37 128v35h37v-36q0 -64 27 -102t85 -38t85.5 38t27.5 102v114q0 63 -27.5 101t-85.5 38q-40 0 -67 -20.5t-38 -60.5v-10h-36l18 369h260v-35h-226l-13 -267q38 60 115 60q70 0 104 -47.5t34 -125.5v-115q0 -80 -37 -128.5t-113 -48.5t-113 49z" />
    <glyph glyph-name="six" unicode="6" horiz-adv-x="402" 
d="M86 42.5q-38 48.5 -38 128.5v357q0 81 37.5 129.5t115.5 48.5q77 0 113.5 -47t36.5 -127v-7h-36v9q0 64 -27 100.5t-86 36.5q-60 0 -88 -39t-28 -106v-181q20 42 49.5 60.5t77.5 18.5q72 0 106.5 -47t34.5 -125v-81q0 -80 -38 -128.5t-115 -48.5t-115 48.5zM288 68
q28 38 28 102v79q0 64 -28 102t-87 38t-87 -39t-28 -101v-79q0 -64 28 -102t87 -38t87 38z" />
    <glyph glyph-name="seven" unicode="7" horiz-adv-x="362" 
d="M295 666h-261v35h300v-35l-201 -666h-38z" />
    <glyph glyph-name="eight" unicode="8" horiz-adv-x="411" 
d="M88 41q-40 47 -40 126v49q0 60 23 98.5t75 52.5q-98 25 -98 147v23q0 78 40.5 123.5t116.5 45.5q78 0 118 -45t40 -124v-23q0 -57 -23 -96t-72 -51q95 -26 95 -151v-49q0 -79 -40 -126t-118 -47q-77 0 -117 47zM295 414q30 32 30 95v27q0 64 -30.5 99.5t-89.5 35.5
q-58 0 -88.5 -35.5t-30.5 -99.5v-27q0 -62 30.5 -94.5t88.5 -32.5q60 0 90 32zM295 66q30 37 30 102v52q0 128 -120 128q-119 0 -119 -128v-52q0 -65 30 -102t89 -37q60 0 90 37z" />
    <glyph glyph-name="nine" unicode="9" horiz-adv-x="401" 
d="M86.5 41.5q-37.5 47.5 -37.5 128.5v7h36v-9q0 -64 28 -101.5t87 -37.5t87 39t28 107v183q-28 -81 -127 -81q-71 0 -105.5 47t-34.5 125v80q0 80 37.5 128.5t114.5 48.5t115 -48.5t38 -128.5v-356q0 -81 -37.5 -130t-115.5 -49q-76 0 -113.5 47.5zM287 349.5
q28 38.5 28 102.5v79q0 64 -28 102t-87 38q-58 0 -86 -38.5t-28 -101.5v-79q0 -64 28 -102.5t86 -38.5q59 0 87 38.5z" />
    <glyph glyph-name="colon" unicode=":" horiz-adv-x="97" 
d="M30 467h37v-86h-37v86zM30 86h37v-86h-37v86z" />
    <glyph glyph-name="semicolon" unicode=";" horiz-adv-x="106" 
d="M39 467h37v-86h-37v86zM47 0l-8 1v85h37v-83l-27 -76h-17z" />
    <glyph glyph-name="less" unicode="&#x3c;" horiz-adv-x="390" 
d="M50 336v28l290 136v-31l-253 -119l253 -119v-31z" />
    <glyph glyph-name="equal" unicode="=" horiz-adv-x="317" 
d="M50 438h217v-28h-217v28zM50 321h217v-28h-217v28z" />
    <glyph glyph-name="greater" unicode="&#x3e;" horiz-adv-x="390" 
d="M50 231l253 119l-253 119v31l290 -136v-28l-290 -136v31z" />
    <glyph glyph-name="question" unicode="?" horiz-adv-x="355" 
d="M142 195q0 51 18 86.5t55 82.5q36 46 54 81t18 84q0 142 -110 142q-59 0 -85 -39.5t-26 -103.5v-45h-36v42q0 81 35.5 131t111.5 50q78 0 113 -48.5t35 -130.5q0 -52 -19 -88.5t-58 -85.5q-36 -45 -54 -79t-18 -81q0 -18 5 -36h-34q-5 20 -5 38zM145 85h37v-85h-37v85z
" />
    <glyph glyph-name="at" unicode="@" horiz-adv-x="719" 
d="M126.5 41q-76.5 86 -76.5 244q0 120 37.5 220.5t117 162t199.5 61.5q135 0 200 -74.5t65 -206.5q0 -74 -19 -143.5t-57.5 -114.5t-92.5 -45q-31 0 -48 19.5t-18 50.5q-15 -37 -43 -57.5t-67 -20.5q-50 1 -73.5 34t-23.5 87q0 10 2 32l10 99q6 65 38 104.5t89 39.5
q72 -2 92 -72l6 66h35l-30 -285q-3 -26 6.5 -45t33.5 -19q48 0 77 44.5t41 106t12 117.5q0 120 -58.5 186t-177.5 66q-109 0 -180.5 -56.5t-105.5 -150t-34 -208.5q0 -144 69 -221t209 -77q113 0 184 58l-2 -36q-75 -52 -183 -52q-157 0 -233.5 86zM410 204q25 34 29 87
l11 96q1 8 1 22q0 40 -18.5 64.5t-58.5 24.5q-46 0 -70.5 -31t-31.5 -82l-9 -95q-1 -8 -1 -24q0 -43 18 -69.5t58 -26.5q47 0 72 34z" />
    <glyph glyph-name="A" unicode="A" horiz-adv-x="393" 
d="M275 214h-157l-40 -214h-35l135 712h36l136 -712h-35zM269 247l-69 367l-3 26h-2q0 -15 -3 -26l-68 -367h145z" />
    <glyph glyph-name="B" unicode="B" horiz-adv-x="339" 
d="M50 710h119q49 0 83.5 -35t34.5 -84v-123q0 -35 -18 -62t-47 -40v-2q31 -13 50 -41t19 -63v-141q0 -49 -34.5 -83.5t-84.5 -35.5h-122v710zM169 381q35 0 59 24.5t24 58.5v129q0 35 -24 59.5t-59 24.5h-84v-296h84zM172 33q35 0 59.5 24.5t24.5 59.5v147q0 34 -26 59
t-61 25h-84v-315h87z" />
    <glyph glyph-name="C" unicode="C" horiz-adv-x="334" 
d="M83 25q-35 35 -35 84v492q0 50 35 84.5t84 34.5t83.5 -35t34.5 -84v-111h-34v113q0 35 -24.5 59.5t-59.5 24.5t-59.5 -24.5t-24.5 -59.5v-496q0 -35 24.5 -59.5t59.5 -24.5t59.5 24.5t24.5 59.5v133h34v-131q0 -49 -34.5 -84t-83.5 -35t-84 35z" />
    <glyph glyph-name="D" unicode="D" horiz-adv-x="335" 
d="M50 710h119q32 0 59 -15.5t43 -41t16 -53.5v-481q0 -49 -34.5 -84t-83.5 -35h-119v710zM169 33q35 0 59 24.5t24 59.5v485q0 29 -24.5 52t-58.5 23h-84v-644h84z" />
    <glyph glyph-name="E" unicode="E" horiz-adv-x="334" 
d="M50 710h238v-33h-203v-303h163v-34h-163v-307h203v-33h-238v710z" />
    <glyph glyph-name="F" unicode="F" horiz-adv-x="334" 
d="M50 710h238v-33h-203v-303h163v-34h-163v-340h-35v710z" />
    <glyph glyph-name="G" unicode="G" horiz-adv-x="333" 
d="M48 601q0 50 35 84.5t84 34.5t83.5 -35t34.5 -84v-70h-34v72q0 35 -24.5 59.5t-59.5 24.5t-59.5 -24.5t-24.5 -59.5v-496q0 -35 24.5 -59.5t59.5 -24.5t59.5 24.5t24.5 59.5v230h-64v33h98v-261q0 -49 -34.5 -84t-83.5 -35t-84 35t-35 84v492z" />
    <glyph glyph-name="H" unicode="H" horiz-adv-x="351" 
d="M50 710h35v-336h182v336h34v-710h-34v340h-182v-340h-35v710z" />
    <glyph glyph-name="I" unicode="I" horiz-adv-x="138" 
d="M52 710h34v-710h-34v710z" />
    <glyph glyph-name="J" unicode="J" horiz-adv-x="332" 
d="M81 25q-35 35 -35 84v131h35v-133q0 -35 24.5 -59.5t59.5 -24.5t59.5 24.5t24.5 59.5v603h34v-601q0 -49 -34.5 -84t-83.5 -35t-84 35z" />
    <glyph glyph-name="K" unicode="K" horiz-adv-x="378" 
d="M50 710h35v-382l1 2q1 6 7 18l190 362h40l-164 -311l177 -399h-39l-159 359l-53 -101v-258h-35v710z" />
    <glyph glyph-name="L" unicode="L" horiz-adv-x="332" 
d="M50 710h35v-677h203v-33h-238v710z" />
    <glyph glyph-name="M" unicode="M" horiz-adv-x="521" 
d="M50 710h45l144 -603q4 -12 4 -42h2q3 35 5 42l145 603h44v-710h-34v589q0 10 1 18.5t1 14.5v1l-7 -29l-142 -594h-27l-142 594l-7 29v-2q0 -5 1 -13.5t1 -18.5v-589h-34v710z" />
    <glyph glyph-name="N" unicode="N" horiz-adv-x="401" 
d="M50 710h39l195 -591q3 -7 5.5 -19t5.5 -20v4q-2 18 -2 42v584h34v-710h-38l-195 591l-6 20t-6 19v-4q0 -6 1 -16t1 -26v-584h-34v710z" />
    <glyph glyph-name="O" unicode="O" horiz-adv-x="333" 
d="M48 601q0 50 35 84.5t84 34.5t83.5 -35t34.5 -84v-492q0 -49 -34.5 -84t-83.5 -35t-84 35t-35 84v492zM107.5 47.5q24.5 -24.5 59.5 -24.5t59.5 24.5t24.5 59.5v496q0 35 -24.5 59.5t-59.5 24.5t-59.5 -24.5t-24.5 -59.5v-496q0 -35 24.5 -59.5z" />
    <glyph glyph-name="P" unicode="P" horiz-adv-x="333" 
d="M50 710h119q49 0 83.5 -35t34.5 -84v-127q0 -58 -33 -92t-85 -34h-84v-338h-35v710zM169 370q40 0 61.5 25t21.5 67v131q0 35 -24 59.5t-59 24.5h-84v-307h84z" />
    <glyph glyph-name="Q" unicode="Q" horiz-adv-x="376" 
d="M82.5 34q-34.5 34 -34.5 83v484q0 50 35 84.5t84 34.5t83.5 -35t34.5 -84v-484q0 -26 -12 -49.5t-33 -38.5l10 2h82v-31h-165q-50 0 -84.5 34zM226.5 56q24.5 25 24.5 59v488q0 35 -24.5 59.5t-59.5 24.5t-59.5 -24.5t-24.5 -59.5v-488q0 -34 25 -59t59 -25q35 0 59.5 25
z" />
    <glyph glyph-name="R" unicode="R" horiz-adv-x="349" 
d="M50 710h119q49 0 83.5 -35t34.5 -84v-123q0 -35 -18 -62t-47 -40v-2q30 -13 49 -41t19 -63v-212q0 -32 10 -48h-34q-10 13 -10 48v216q0 34 -26 59t-61 25h-84v-348h-35v710zM169 381q35 0 59 24.5t24 58.5v129q0 35 -24 59.5t-59 24.5h-84v-296h84z" />
    <glyph glyph-name="S" unicode="S" horiz-adv-x="330" 
d="M46 240h35v-133q0 -35 24.5 -59.5t59.5 -24.5t59.5 24.5t24.5 59.5v101q0 35 -23.5 67.5t-72.5 81.5q-53 53 -80 91t-27 81v72q0 50 35 84.5t84 34.5t83.5 -35t34.5 -84v-111h-34v113q0 35 -24.5 59.5t-59.5 24.5t-59.5 -24.5t-24.5 -59.5v-77q0 -35 24 -67.5t72 -81.5
q53 -54 79.5 -91.5t26.5 -80.5v-96q0 -49 -34.5 -84t-83.5 -35t-84 35t-35 84v131z" />
    <glyph glyph-name="T" unicode="T" horiz-adv-x="338" 
d="M45 710h248v-33h-107v-677h-35v677h-106v33z" />
    <glyph glyph-name="U" unicode="U" horiz-adv-x="333" 
d="M83 25q-35 35 -35 84v601h35v-603q0 -35 24.5 -59.5t59.5 -24.5t59.5 24.5t24.5 59.5v603h34v-601q0 -49 -34.5 -84t-83.5 -35t-84 35z" />
    <glyph glyph-name="V" unicode="V" horiz-adv-x="392" 
d="M78 710l114 -604l3 -26h2l3 26l114 604h35l-135 -710h-36l-135 710h35z" />
    <glyph glyph-name="W" unicode="W" horiz-adv-x="563" 
d="M43 710h35l89 -595q4 -26 4 -40h2l4 40l89 595h31l89 -595q2 -13 4 -40h2l4 40l89 595h36l-112 -710h-34l-89 582q-1 6 -1.5 21t-1.5 23h-2l-3 -44l-90 -582h-33z" />
    <glyph glyph-name="X" unicode="X" horiz-adv-x="369" 
d="M165 354l-122 356h34l100 -290q5 -14 6 -26h2q1 12 6 26l101 290h34l-123 -356l123 -354h-35l-100 291q-4 11 -6 24h-2q-2 -17 -5 -24l-100 -291h-35z" />
    <glyph glyph-name="Y" unicode="Y" horiz-adv-x="388" 
d="M76 710l113 -307q4 -8 4 -26h2q0 18 4 26l113 307h33l-134 -367v-343h-35v343l-133 367h33z" />
    <glyph glyph-name="Z" unicode="Z" horiz-adv-x="342" 
d="M45 34l216 644h-216v32h252v-33l-217 -644h217v-33h-252v34z" />
    <glyph glyph-name="bracketleft" unicode="[" horiz-adv-x="213" 
d="M30 701h153v-33h-115v-635h115v-33h-153v701z" />
    <glyph glyph-name="backslash" unicode="\" horiz-adv-x="370" 
d="M30 700h34l276 -700h-34z" />
    <glyph glyph-name="bracketright" unicode="]" horiz-adv-x="213" 
d="M30 33h115v635h-115v33h153v-701h-153v33z" />
    <glyph glyph-name="asciicircum" unicode="^" horiz-adv-x="441" 
d="M205 700h31l155 -309h-33l-137 273l-138 -273h-33z" />
    <glyph glyph-name="underscore" unicode="_" horiz-adv-x="510" 
d="M30 -10h450v-29h-450v29z" />
    <glyph glyph-name="a" unicode="a" horiz-adv-x="393" 
d="M275 214h-157l-40 -214h-35l135 712h36l136 -712h-35zM269 247l-69 367l-3 26h-2q0 -15 -3 -26l-68 -367h145z" />
    <glyph glyph-name="b" unicode="b" horiz-adv-x="339" 
d="M50 710h119q49 0 83.5 -35t34.5 -84v-123q0 -35 -18 -62t-47 -40v-2q31 -13 50 -41t19 -63v-141q0 -49 -34.5 -83.5t-84.5 -35.5h-122v710zM169 381q35 0 59 24.5t24 58.5v129q0 35 -24 59.5t-59 24.5h-84v-296h84zM172 33q35 0 59.5 24.5t24.5 59.5v147q0 34 -26 59
t-61 25h-84v-315h87z" />
    <glyph glyph-name="c" unicode="c" horiz-adv-x="334" 
d="M83 25q-35 35 -35 84v492q0 50 35 84.5t84 34.5t83.5 -35t34.5 -84v-111h-34v113q0 35 -24.5 59.5t-59.5 24.5t-59.5 -24.5t-24.5 -59.5v-496q0 -35 24.5 -59.5t59.5 -24.5t59.5 24.5t24.5 59.5v133h34v-131q0 -49 -34.5 -84t-83.5 -35t-84 35z" />
    <glyph glyph-name="d" unicode="d" horiz-adv-x="335" 
d="M50 710h119q32 0 59 -15.5t43 -41t16 -53.5v-481q0 -49 -34.5 -84t-83.5 -35h-119v710zM169 33q35 0 59 24.5t24 59.5v485q0 29 -24.5 52t-58.5 23h-84v-644h84z" />
    <glyph glyph-name="e" unicode="e" horiz-adv-x="334" 
d="M50 710h238v-33h-203v-303h163v-34h-163v-307h203v-33h-238v710z" />
    <glyph glyph-name="f" unicode="f" horiz-adv-x="334" 
d="M50 710h238v-33h-203v-303h163v-34h-163v-340h-35v710z" />
    <glyph glyph-name="g" unicode="g" horiz-adv-x="333" 
d="M48 601q0 50 35 84.5t84 34.5t83.5 -35t34.5 -84v-70h-34v72q0 35 -24.5 59.5t-59.5 24.5t-59.5 -24.5t-24.5 -59.5v-496q0 -35 24.5 -59.5t59.5 -24.5t59.5 24.5t24.5 59.5v230h-64v33h98v-261q0 -49 -34.5 -84t-83.5 -35t-84 35t-35 84v492z" />
    <glyph glyph-name="h" unicode="h" horiz-adv-x="351" 
d="M50 710h35v-336h182v336h34v-710h-34v340h-182v-340h-35v710z" />
    <glyph glyph-name="i" unicode="i" horiz-adv-x="138" 
d="M52 710h34v-710h-34v710z" />
    <glyph glyph-name="j" unicode="j" horiz-adv-x="332" 
d="M81 25q-35 35 -35 84v131h35v-133q0 -35 24.5 -59.5t59.5 -24.5t59.5 24.5t24.5 59.5v603h34v-601q0 -49 -34.5 -84t-83.5 -35t-84 35z" />
    <glyph glyph-name="k" unicode="k" horiz-adv-x="378" 
d="M50 710h35v-382l1 2q1 6 7 18l190 362h40l-164 -311l177 -399h-39l-159 359l-53 -101v-258h-35v710z" />
    <glyph glyph-name="l" unicode="l" horiz-adv-x="332" 
d="M50 710h35v-677h203v-33h-238v710z" />
    <glyph glyph-name="m" unicode="m" horiz-adv-x="522" 
d="M50 710h45l144 -603q4 -12 4 -42h2q3 35 5 42l145 603h44v-710h-34v589q0 10 1 18.5t1 14.5v1l-7 -29l-142 -594h-27l-142 594l-7 29v-2q0 -5 1 -13.5t1 -18.5v-589h-34v710z" />
    <glyph glyph-name="n" unicode="n" horiz-adv-x="401" 
d="M50 710h39l195 -591q3 -7 5.5 -19t5.5 -20v4q-2 18 -2 42v584h34v-710h-38l-195 591l-6 20t-6 19v-4q0 -6 1 -16t1 -26v-584h-34v710z" />
    <glyph glyph-name="o" unicode="o" horiz-adv-x="333" 
d="M48 601q0 50 35 84.5t84 34.5t83.5 -35t34.5 -84v-492q0 -49 -34.5 -84t-83.5 -35t-84 35t-35 84v492zM107.5 47.5q24.5 -24.5 59.5 -24.5t59.5 24.5t24.5 59.5v496q0 35 -24.5 59.5t-59.5 24.5t-59.5 -24.5t-24.5 -59.5v-496q0 -35 24.5 -59.5z" />
    <glyph glyph-name="p" unicode="p" horiz-adv-x="333" 
d="M50 710h119q49 0 83.5 -35t34.5 -84v-127q0 -58 -33 -92t-85 -34h-84v-338h-35v710zM169 370q40 0 61.5 25t21.5 67v131q0 35 -24 59.5t-59 24.5h-84v-307h84z" />
    <glyph glyph-name="q" unicode="q" horiz-adv-x="376" 
d="M82.5 34q-34.5 34 -34.5 83v484q0 50 35 84.5t84 34.5t83.5 -35t34.5 -84v-484q0 -26 -12 -49.5t-33 -38.5l10 2h82v-31h-165q-50 0 -84.5 34zM226.5 56q24.5 25 24.5 59v488q0 35 -24.5 59.5t-59.5 24.5t-59.5 -24.5t-24.5 -59.5v-488q0 -34 25 -59t59 -25q35 0 59.5 25
z" />
    <glyph glyph-name="r" unicode="r" horiz-adv-x="349" 
d="M50 710h119q49 0 83.5 -35t34.5 -84v-123q0 -35 -18 -62t-47 -40v-2q30 -13 49 -41t19 -63v-212q0 -32 10 -48h-34q-10 13 -10 48v216q0 34 -26 59t-61 25h-84v-348h-35v710zM169 381q35 0 59 24.5t24 58.5v129q0 35 -24 59.5t-59 24.5h-84v-296h84z" />
    <glyph glyph-name="s" unicode="s" horiz-adv-x="330" 
d="M46 240h35v-133q0 -35 24.5 -59.5t59.5 -24.5t59.5 24.5t24.5 59.5v101q0 35 -23.5 67.5t-72.5 81.5q-53 53 -80 91t-27 81v72q0 50 35 84.5t84 34.5t83.5 -35t34.5 -84v-111h-34v113q0 35 -24.5 59.5t-59.5 24.5t-59.5 -24.5t-24.5 -59.5v-77q0 -35 24 -67.5t72 -81.5
q53 -54 79.5 -91.5t26.5 -80.5v-96q0 -49 -34.5 -84t-83.5 -35t-84 35t-35 84v131z" />
    <glyph glyph-name="t" unicode="t" horiz-adv-x="338" 
d="M45 710h248v-33h-107v-677h-35v677h-106v33z" />
    <glyph glyph-name="u" unicode="u" horiz-adv-x="333" 
d="M83 25q-35 35 -35 84v601h35v-603q0 -35 24.5 -59.5t59.5 -24.5t59.5 24.5t24.5 59.5v603h34v-601q0 -49 -34.5 -84t-83.5 -35t-84 35z" />
    <glyph glyph-name="v" unicode="v" horiz-adv-x="392" 
d="M78 710l114 -604l3 -26h2l3 26l114 604h35l-135 -710h-36l-135 710h35z" />
    <glyph glyph-name="w" unicode="w" horiz-adv-x="563" 
d="M43 710h35l89 -595q4 -26 4 -40h2l4 40l89 595h31l89 -595q2 -13 4 -40h2l4 40l89 595h36l-112 -710h-34l-89 582q-1 6 -1.5 21t-1.5 23h-2l-3 -44l-90 -582h-33z" />
    <glyph glyph-name="x" unicode="x" horiz-adv-x="369" 
d="M165 354l-122 356h34l100 -290q5 -14 6 -26h2q1 12 6 26l101 290h34l-123 -356l123 -354h-35l-100 291q-4 11 -6 24h-2q-2 -17 -5 -24l-100 -291h-35z" />
    <glyph glyph-name="y" unicode="y" horiz-adv-x="388" 
d="M76 710l113 -307q4 -8 4 -26h2q0 18 4 26l113 307h33l-134 -367v-343h-35v343l-133 367h33z" />
    <glyph glyph-name="z" unicode="z" horiz-adv-x="342" 
d="M45 34l216 644h-216v32h252v-33l-217 -644h217v-33h-252v34z" />
    <glyph glyph-name="braceleft" unicode="{" horiz-adv-x="251" 
d="M123 26.5q-19 26.5 -22 76.5l-7 138q-1 31 -5.5 48t-18 28t-40.5 15v36q28 5 41 16t17.5 28t5.5 48l7 138q3 49 22.5 76t62.5 27h35v-33h-24q-34 0 -46 -21t-15 -63l-7 -129q-2 -44 -14.5 -69t-50.5 -36q38 -10 50.5 -35t14.5 -70l7 -128q3 -43 15 -63.5t46 -20.5h24v-33
h-35q-44 0 -63 26.5z" />
    <glyph glyph-name="bar" unicode="|" horiz-adv-x="133" 
d="M50 719h33v-737h-33v737z" />
    <glyph glyph-name="braceright" unicode="}" horiz-adv-x="251" 
d="M30 33h23q35 0 47 20.5t15 63.5l6 128q2 45 14.5 70t50.5 35q-38 11 -50.5 36t-14.5 69l-6 129q-3 42 -15 63t-47 21h-23v33h35q44 0 63 -27t21 -76l8 -138q1 -31 5.5 -48t17.5 -28t41 -16v-36q-27 -4 -40.5 -15t-18 -28t-5.5 -48l-8 -138q-2 -50 -21 -76.5t-63 -26.5
h-35v33z" />
    <glyph glyph-name="asciitilde" unicode="~" horiz-adv-x="435" 
d="M261.5 311q-17.5 8 -43.5 24q-23 15 -40.5 22.5t-34.5 7.5q-22 0 -39.5 -13.5t-33.5 -39.5l-20 17q22 34 44.5 50t51.5 16q20 0 38 -8t44 -24q23 -14 39 -21.5t32 -7.5q19 0 33 13t32 41l21 -19q-20 -33 -40.5 -49.5t-46.5 -16.5q-19 0 -36.5 8z" />
    <glyph glyph-name="exclamdown" unicode="&#xa1;" horiz-adv-x="98" 
d="M30 701h38v-86h-38v86zM30 331l5 215h28l5 -215v-331h-38v331z" />
    <glyph glyph-name="currency" unicode="&#xa4;" horiz-adv-x="368" 
d="M50 234l46 45q-25 33 -25 71t25 70l-46 46l17 17l47 -46q31 26 69 26q40 0 71 -26l46 46l18 -17l-47 -46q26 -31 26 -70t-26 -70l47 -46l-18 -17l-46 45q-32 -25 -71 -25q-37 0 -69 25l-47 -45zM245.5 288.5q25.5 25.5 25.5 61.5t-25.5 61.5t-62.5 25.5q-35 0 -61 -25.5
t-26 -61.5t26 -61.5t61 -25.5q37 0 62.5 25.5z" />
    <glyph glyph-name="section" unicode="&#xa7;" horiz-adv-x="398" 
d="M92.5 -32.5q-42.5 33.5 -42.5 93.5v31h36v-27q0 -47 32.5 -73t80.5 -26q43 0 76.5 23t35.5 65q0 29 -15 49t-38 33t-63 31q-46 20 -74.5 37t-48.5 45.5t-20 70.5q0 47 31.5 82t78.5 50q-53 26 -82 54t-29 74q0 60 42.5 93t107.5 33q63 -1 103.5 -35.5t40.5 -91.5v-17h-36
v12q0 45 -30.5 72t-76.5 28q-47 0 -80 -24t-33 -70q0 -37 27.5 -59.5t85.5 -48.5q46 -20 75.5 -38t49.5 -47.5t20 -71.5q0 -46 -27.5 -80t-72.5 -53q48 -23 74.5 -51.5t26.5 -73.5q0 -56 -43.5 -89.5t-104.5 -33.5q-65 0 -107.5 33.5zM283 241q28 30 28 73q0 44 -29 70
t-83 51q-45 -7 -78 -37.5t-33 -75.5q0 -33 18 -56t42 -36.5t65 -31.5q42 13 70 43z" />
    <glyph glyph-name="copyright" unicode="&#xa9;" horiz-adv-x="780" 
d="M215 46.5q-78 45.5 -121.5 125.5t-43.5 178t43.5 178t121.5 125.5t175 45.5t174.5 -45.5t121.5 -125.5t44 -178t-44 -178t-121.5 -125.5t-174.5 -45.5t-175 45.5zM550.5 69.5q71.5 42.5 112 116t40.5 164.5t-40.5 164.5t-111.5 115.5t-161 42t-161.5 -42t-111.5 -115.5
t-40 -164.5t40 -164.5t111.5 -116t161.5 -42.5q89 0 160.5 42.5zM307 164q-26 34 -26 90v192q0 56 26 89.5t79 33.5q52 0 77.5 -33.5t25.5 -89.5v-22h-27v24q0 43 -18 69t-58 26t-58.5 -26t-18.5 -69v-196q0 -43 18.5 -69t58.5 -26t58 26t18 69v35h27v-33q0 -56 -25.5 -90
t-77.5 -34q-53 0 -79 34z" />
    <glyph glyph-name="guillemotleft" unicode="&#xab;" horiz-adv-x="270" 
d="M30 351l66 243h34l-65 -243l65 -247h-34zM140 351l65 243h35l-65 -243l65 -247h-35z" />
    <glyph glyph-name="uni00AD" unicode="&#xad;" horiz-adv-x="242" 
d="M212 367v-34h-182v34h182z" />
    <glyph glyph-name="registered" unicode="&#xae;" horiz-adv-x="780" 
d="M215 46.5q-78 45.5 -121.5 125.5t-43.5 178t43.5 178t121.5 125.5t175 45.5t174.5 -45.5t121.5 -125.5t44 -178t-44 -178t-121.5 -125.5t-174.5 -45.5t-175 45.5zM550.5 69.5q71.5 42.5 112 116t40.5 164.5t-40.5 164.5t-111.5 115.5t-161 42t-161.5 -42t-111.5 -115.5
t-40 -164.5t40 -164.5t111.5 -116t161.5 -42.5q89 0 160.5 42.5zM293 564h100q104 0 104 -111v-13q0 -41 -15 -66.5t-50 -35.5q66 -18 66 -98v-46q0 -42 12 -58h-30q-10 20 -10 58v46q0 48 -25 66t-73 18h-51v-188h-28v428zM382 351q44 0 65.5 19.5t21.5 64.5v15
q0 43 -17.5 65t-58.5 22h-72v-186h61z" />
    <glyph glyph-name="degree" unicode="&#xb0;" horiz-adv-x="241" 
d="M71 588.5q-21 20.5 -21 50.5q0 29 21 49t50 20t49.5 -20t20.5 -49q0 -30 -20.5 -50.5t-49.5 -20.5t-50 20.5zM156.5 604q14.5 14 14.5 35q0 20 -15 34t-35 14q-21 0 -35.5 -14t-14.5 -34q0 -21 14.5 -35t35.5 -14t35.5 14z" />
    <glyph glyph-name="periodcentered" unicode="&#xb7;" horiz-adv-x="97" 
d="M30 404h37v-86h-37v86z" />
    <glyph glyph-name="guillemotright" unicode="&#xbb;" horiz-adv-x="270" 
d="M95 351l-65 243h35l65 -243l-65 -247h-35zM205 351l-65 243h35l65 -243l-65 -247h-35z" />
    <glyph glyph-name="questiondown" unicode="&#xbf;" horiz-adv-x="355" 
d="M173 700h37v-85h-37v85zM65.5 42.5q-35.5 48.5 -35.5 130.5q0 52 19 89t57 85q36 45 54 79t18 81q0 18 -5 36h35q5 -20 5 -38q-1 -51 -19 -87t-54 -82t-54 -81t-18 -84q0 -142 111 -142q58 0 84 39.5t26 103.5v45h36v-42q0 -81 -35.5 -131t-111.5 -50q-77 0 -112.5 48.5z
" />
    <glyph glyph-name="multiply" unicode="&#xd7;" horiz-adv-x="350" 
d="M50 244l105 105l-105 105l20 20l106 -105l105 106l19 -21l-105 -105l105 -105l-19 -20l-105 106l-107 -106z" />
    <glyph glyph-name="divide" unicode="&#xf7;" horiz-adv-x="322" 
d="M142 492h36v-86h-36v86zM50 364h222v-28h-222v28zM142 294h36v-86h-36v86z" />
    <glyph glyph-name="uni0401" unicode="&#x401;" horiz-adv-x="338" 
d="M117 812h29v-60h-29v60zM194 812h29v-60h-29v60zM50 710h238v-33h-203v-303h163v-34h-163v-307h203v-33h-238v710z" />
    <glyph glyph-name="uni0410" unicode="&#x410;" horiz-adv-x="407" 
d="M282 214h-157l-40 -214h-35l136 712h36l135 -712h-35zM276 247l-68 367q-3 11 -3 26h-2l-3 -26l-69 -367h145z" />
    <glyph glyph-name="uni0411" unicode="&#x411;" horiz-adv-x="341" 
d="M50 710h205v-33h-170v-296h84q50 0 86 -35t36 -84v-143q0 -49 -34.5 -83.5t-84.5 -35.5h-122v710zM172 33q35 0 59.5 24.5t24.5 59.5v147q0 34 -26 59t-61 25h-84v-315h87z" />
    <glyph glyph-name="uni0412" unicode="&#x412;" horiz-adv-x="341" 
d="M50 710h119q49 0 83.5 -35t34.5 -84v-123q0 -35 -18 -62t-47 -40v-2q31 -13 50 -41t19 -63v-141q0 -49 -34.5 -83.5t-84.5 -35.5h-122v710zM169 381q35 0 59 24.5t24 58.5v129q0 35 -24 59.5t-59 24.5h-84v-296h84zM172 33q35 0 59.5 24.5t24.5 59.5v147q0 34 -26 59
t-61 25h-84v-315h87z" />
    <glyph glyph-name="uni0413" unicode="&#x413;" horiz-adv-x="338" 
d="M50 710h238v-33h-203v-677h-35v710z" />
    <glyph glyph-name="uni0414" unicode="&#x414;" horiz-adv-x="434" 
d="M-41 33h35q45 0 60.5 37t18.5 99l21 541h234v-677h56v-132h-34v99h-356v-99h-35v132zM294 33v644h-167l-20 -507q-2 -46 -13.5 -87t-32.5 -50h233z" />
    <glyph glyph-name="uni0415" unicode="&#x415;" horiz-adv-x="338" 
d="M50 710h238v-33h-203v-303h163v-34h-163v-307h203v-33h-238v710z" />
    <glyph glyph-name="uni0416" unicode="&#x416;" horiz-adv-x="584" 
d="M340 337h-31v-337h-34v337h-31l-179 -337h-38l186 348v11l-175 351h37l169 -339h31v339h34v-339h31l169 339h37l-175 -351v-11l187 -348h-39z" />
    <glyph glyph-name="uni0417" unicode="&#x417;" 
d="M50 240h35v-133q0 -35 24.5 -59.5t59.5 -24.5t59 24.5t24 59.5v157q0 35 -24.5 59.5t-59.5 24.5h-61v33h61q35 0 59.5 24.5t24.5 58.5v139q0 35 -24.5 59.5t-59.5 24.5t-59 -24.5t-24 -59.5v-113h-35v111q0 49 34.5 84t83.5 35t83.5 -34.5t34.5 -84.5v-133q0 -35 -18 -62
t-47 -40v-2q30 -13 48 -40.5t18 -63.5v-151q0 -49 -34.5 -84t-83.5 -35t-84 35t-35 84v131z" />
    <glyph glyph-name="uni0418" unicode="&#x418;" horiz-adv-x="405" 
d="M320 0v595q1 6 1 19v4l-9 -25l-227 -593h-35v710h35v-597q-2 -16 -2 -22v-5q2 6 4.5 14t4.5 14l228 596h35v-710h-35z" />
    <glyph glyph-name="uni0419" unicode="&#x419;" horiz-adv-x="405" 
d="M131 761.5q-27 20.5 -28 56.5h29q1 -24 20 -37t47 -13t47 13t20 37h29q-1 -36 -28.5 -56.5t-67.5 -20.5q-41 0 -68 20.5zM50 710h35v-597q-2 -16 -2 -22v-5q2 6 4.5 14t4.5 14l228 596h35v-710h-35v595q1 6 1 19v4l-9 -25l-227 -593h-35v710z" />
    <glyph glyph-name="uni041A" unicode="&#x41a;" horiz-adv-x="386" 
d="M50 710h35v-382l1 2q1 6 7 18l190 362h40l-164 -311l177 -399h-39l-159 359l-53 -101v-258h-35v710z" />
    <glyph glyph-name="uni041B" unicode="&#x41b;" horiz-adv-x="447" 
d="M50 34q54 0 71.5 35.5t20.5 99.5l21 541h234v-710h-34v677h-167l-20 -507q-3 -78 -28 -124t-91 -46h-7v34z" />
    <glyph glyph-name="uni041C" unicode="&#x41c;" horiz-adv-x="521" 
d="M50 710h45l162 -615q1 -6 3 -30h2q2 24 3 30l161 615h45v-710h-36v589l1 24v1l-5 -21l-152 -593h-37l-153 593l-5 21l-1 -2q2 -14 2 -23v-589h-35v710z" />
    <glyph glyph-name="uni041D" unicode="&#x41d;" horiz-adv-x="355" 
d="M50 710h35v-336h185v336h35v-710h-35v340h-185v-340h-35v710z" />
    <glyph glyph-name="uni041E" unicode="&#x41e;" 
d="M50 601q0 50 35 84.5t84 34.5t83.5 -35t34.5 -84v-492q0 -49 -34.5 -84t-83.5 -35t-84 35t-35 84v492zM109.5 47.5q24.5 -24.5 59.5 -24.5t59 24.5t24 59.5v496q0 35 -24 59.5t-59 24.5t-59.5 -24.5t-24.5 -59.5v-496q0 -35 24.5 -59.5z" />
    <glyph glyph-name="uni041F" unicode="&#x41f;" horiz-adv-x="355" 
d="M50 710h255v-710h-35v677h-185v-677h-35v710z" />
    <glyph glyph-name="uni0420" unicode="&#x420;" 
d="M50 710h119q49 0 83.5 -35t34.5 -84v-127q0 -58 -33 -92t-85 -34h-84v-338h-35v710zM169 370q40 0 61.5 25t21.5 67v131q0 35 -24 59.5t-59 24.5h-84v-307h84z" />
    <glyph glyph-name="uni0421" unicode="&#x421;" 
d="M85 25q-35 35 -35 84v492q0 50 35 84.5t84 34.5t83.5 -35t34.5 -84v-111h-35v113q0 35 -24 59.5t-59 24.5t-59.5 -24.5t-24.5 -59.5v-496q0 -35 24.5 -59.5t59.5 -24.5t59 24.5t24 59.5v133h35v-131q0 -49 -34.5 -84t-83.5 -35t-84 35z" />
    <glyph glyph-name="uni0422" unicode="&#x422;" horiz-adv-x="349" 
d="M50 710h249v-33h-108v-677h-34v677h-107v33z" />
    <glyph glyph-name="uni0423" unicode="&#x423;" horiz-adv-x="389" 
d="M54 33h30q35 0 60.5 18t33.5 50l14 67l-151 542h36l131 -477l101 477h36l-131 -605q-11 -51 -43.5 -78t-84.5 -27h-32v33z" />
    <glyph glyph-name="uni0424" unicode="&#x424;" horiz-adv-x="411" 
d="M328 615q33 -35 33 -84v-352q0 -49 -33 -84t-81 -35h-24v-60h-35v60h-25q-47 0 -80 35.5t-33 83.5v352q0 48 33 83.5t80 35.5h25v60h35v-60h24q48 0 81 -35zM188 93v524h-25q-33 0 -55.5 -25t-22.5 -59v-356q0 -34 23 -59t55 -25h25zM327 533q0 34 -23.5 59t-56.5 25h-24
v-524h24q33 0 56.5 25t23.5 59v356z" />
    <glyph glyph-name="uni0425" unicode="&#x425;" horiz-adv-x="366" 
d="M163 354l-122 356h34l101 -290q5 -15 5 -26h2q1 12 6 26l101 290h35l-124 -356l124 -354h-35l-101 291q-4 11 -6 24h-2q0 -11 -5 -24l-100 -291h-35z" />
    <glyph glyph-name="uni0426" unicode="&#x426;" horiz-adv-x="411" 
d="M326 0h-276v710h35v-677h185v677h35v-677h56v-132h-35v99z" />
    <glyph glyph-name="uni0427" unicode="&#x427;" horiz-adv-x="338" 
d="M253 324h-1q-14 -19 -37.5 -31.5t-49.5 -12.5q-47 0 -81 35t-34 84v311h35v-313q0 -35 24.5 -59.5t59.5 -24.5t59 24.5t24 59.5v313h36v-710h-35v324z" />
    <glyph glyph-name="uni0428" unicode="&#x428;" horiz-adv-x="539" 
d="M50 710h35v-677h167v677h35v-677h168v677h34v-710h-439v710z" />
    <glyph glyph-name="uni0429" unicode="&#x429;" horiz-adv-x="595" 
d="M50 710h35v-677h167v677h35v-677h168v677h34v-677h56v-132h-35v99h-460v710z" />
    <glyph glyph-name="uni042A" unicode="&#x42a;" horiz-adv-x="391" 
d="M0 710h135v-329h84q50 0 86 -35t36 -84v-143q0 -49 -34.5 -83.5t-84.5 -35.5h-122v677h-100v33zM222 33q35 0 59.5 24.5t24.5 59.5v147q0 34 -26 59t-61 25h-84v-315h87z" />
    <glyph glyph-name="uni042B" unicode="&#x42b;" horiz-adv-x="445" 
d="M50 710h35v-329h84q50 0 86 -35t36 -84v-143q0 -49 -34.5 -83.5t-84.5 -35.5h-122v710zM361 710h34v-710h-34v710zM172 33q35 0 59.5 24.5t24.5 59.5v147q0 34 -26 59t-61 25h-84v-315h87z" />
    <glyph glyph-name="uni042C" unicode="&#x42c;" horiz-adv-x="341" 
d="M50 710h35v-329h84q50 0 86 -35t36 -84v-143q0 -49 -34.5 -83.5t-84.5 -35.5h-122v710zM172 33q35 0 59.5 24.5t24.5 59.5v147q0 34 -26 59t-61 25h-84v-315h87z" />
    <glyph glyph-name="uni042D" unicode="&#x42d;" 
d="M50 240h35v-133q0 -35 24.5 -59.5t59.5 -24.5t59 24.5t24 59.5v233h-131v34h131v229q0 35 -24 59.5t-59 24.5t-59.5 -24.5t-24.5 -59.5v-113h-35v111q0 50 35 84.5t84 34.5t83.5 -35t34.5 -84v-492q0 -49 -34.5 -84t-83.5 -35t-84 35t-35 84v131z" />
    <glyph glyph-name="uni042E" unicode="&#x42e;" horiz-adv-x="505" 
d="M50 710h35v-336h133v227q0 49 34.5 84t83.5 35q50 0 84.5 -34.5t34.5 -84.5v-492q0 -49 -34.5 -84t-84.5 -35q-49 0 -83.5 35t-34.5 84v231h-133v-340h-35v710zM276.5 47.5q24.5 -24.5 59.5 -24.5t59.5 24.5t24.5 59.5v496q0 35 -24.5 59.5t-59.5 24.5t-59.5 -24.5
t-24.5 -59.5v-496q0 -35 24.5 -59.5z" />
    <glyph glyph-name="uni042F" unicode="&#x42f;" horiz-adv-x="350" 
d="M266 0v348h-84q-35 0 -61 -25t-26 -59v-216q0 -35 -10 -48h-35q10 16 10 48v212q0 35 19 63t49 41v2q-29 13 -47 40t-18 62v123q0 50 35 84.5t84 34.5h118v-710h-34zM266 677h-84q-35 0 -59.5 -24.5t-24.5 -59.5v-129q0 -34 24.5 -58.5t59.5 -24.5h84v296z" />
    <glyph glyph-name="uni0430" unicode="&#x430;" horiz-adv-x="407" 
d="M282 214h-157l-40 -214h-35l136 712h36l135 -712h-35zM276 247l-68 367q-3 11 -3 26h-2l-3 -26l-69 -367h145z" />
    <glyph glyph-name="uni0431" unicode="&#x431;" horiz-adv-x="341" 
d="M50 710h205v-33h-170v-296h84q50 0 86 -35t36 -84v-143q0 -49 -34.5 -83.5t-84.5 -35.5h-122v710zM172 33q35 0 59.5 24.5t24.5 59.5v147q0 34 -26 59t-61 25h-84v-315h87z" />
    <glyph glyph-name="uni0432" unicode="&#x432;" horiz-adv-x="341" 
d="M50 710h119q49 0 83.5 -35t34.5 -84v-123q0 -35 -18 -62t-47 -40v-2q31 -13 50 -41t19 -63v-141q0 -49 -34.5 -83.5t-84.5 -35.5h-122v710zM169 381q35 0 59 24.5t24 58.5v129q0 35 -24 59.5t-59 24.5h-84v-296h84zM172 33q35 0 59.5 24.5t24.5 59.5v147q0 34 -26 59
t-61 25h-84v-315h87z" />
    <glyph glyph-name="uni0433" unicode="&#x433;" horiz-adv-x="338" 
d="M50 710h238v-33h-203v-677h-35v710z" />
    <glyph glyph-name="uni0434" unicode="&#x434;" horiz-adv-x="434" 
d="M-41 33h35q45 0 60.5 37t18.5 99l21 541h234v-677h56v-132h-34v99h-356v-99h-35v132zM294 33v644h-167l-20 -507q-2 -46 -13.5 -87t-32.5 -50h233z" />
    <glyph glyph-name="uni0435" unicode="&#x435;" horiz-adv-x="338" 
d="M50 710h238v-33h-203v-303h163v-34h-163v-307h203v-33h-238v710z" />
    <glyph glyph-name="uni0436" unicode="&#x436;" horiz-adv-x="584" 
d="M340 337h-31v-337h-34v337h-31l-179 -337h-38l186 348v11l-175 351h37l169 -339h31v339h34v-339h31l169 339h37l-175 -351v-11l187 -348h-39z" />
    <glyph glyph-name="uni0437" unicode="&#x437;" 
d="M50 240h35v-133q0 -35 24.5 -59.5t59.5 -24.5t59 24.5t24 59.5v157q0 35 -24.5 59.5t-59.5 24.5h-61v33h61q35 0 59.5 24.5t24.5 58.5v139q0 35 -24.5 59.5t-59.5 24.5t-59 -24.5t-24 -59.5v-113h-35v111q0 49 34.5 84t83.5 35t83.5 -34.5t34.5 -84.5v-133q0 -35 -18 -62
t-47 -40v-2q30 -13 48 -40.5t18 -63.5v-151q0 -49 -34.5 -84t-83.5 -35t-84 35t-35 84v131z" />
    <glyph glyph-name="uni0438" unicode="&#x438;" horiz-adv-x="405" 
d="M320 0v595q1 6 1 19v4l-9 -25l-227 -593h-35v710h35v-597q-2 -16 -2 -22v-5q2 6 4.5 14t4.5 14l228 596h35v-710h-35z" />
    <glyph glyph-name="uni0439" unicode="&#x439;" horiz-adv-x="405" 
d="M131 761.5q-27 20.5 -28 56.5h29q1 -24 20 -37t47 -13t47 13t20 37h29q-1 -36 -28.5 -56.5t-67.5 -20.5q-41 0 -68 20.5zM50 710h35v-597q-2 -16 -2 -22v-5q2 6 4.5 14t4.5 14l228 596h35v-710h-35v595q1 6 1 19v4l-9 -25l-227 -593h-35v710z" />
    <glyph glyph-name="uni043A" unicode="&#x43a;" horiz-adv-x="386" 
d="M50 710h35v-382l1 2q1 6 7 18l190 362h40l-164 -311l177 -399h-39l-159 359l-53 -101v-258h-35v710z" />
    <glyph glyph-name="uni043B" unicode="&#x43b;" horiz-adv-x="447" 
d="M50 34q54 0 71.5 35.5t20.5 99.5l21 541h234v-710h-34v677h-167l-20 -507q-3 -78 -28 -124t-91 -46h-7v34z" />
    <glyph glyph-name="uni043C" unicode="&#x43c;" horiz-adv-x="521" 
d="M50 710h45l162 -615q1 -6 3 -30h2q2 24 3 30l161 615h45v-710h-36v589l1 24v1l-5 -21l-152 -593h-37l-153 593l-5 21l-1 -2q2 -14 2 -23v-589h-35v710z" />
    <glyph glyph-name="uni043D" unicode="&#x43d;" horiz-adv-x="355" 
d="M50 710h35v-336h185v336h35v-710h-35v340h-185v-340h-35v710z" />
    <glyph glyph-name="uni043E" unicode="&#x43e;" 
d="M50 601q0 50 35 84.5t84 34.5t83.5 -35t34.5 -84v-492q0 -49 -34.5 -84t-83.5 -35t-84 35t-35 84v492zM109.5 47.5q24.5 -24.5 59.5 -24.5t59 24.5t24 59.5v496q0 35 -24 59.5t-59 24.5t-59.5 -24.5t-24.5 -59.5v-496q0 -35 24.5 -59.5z" />
    <glyph glyph-name="uni043F" unicode="&#x43f;" horiz-adv-x="355" 
d="M50 710h255v-710h-35v677h-185v-677h-35v710z" />
    <glyph glyph-name="uni0440" unicode="&#x440;" 
d="M50 710h119q49 0 83.5 -35t34.5 -84v-127q0 -58 -33 -92t-85 -34h-84v-338h-35v710zM169 370q40 0 61.5 25t21.5 67v131q0 35 -24 59.5t-59 24.5h-84v-307h84z" />
    <glyph glyph-name="uni0441" unicode="&#x441;" 
d="M85 25q-35 35 -35 84v492q0 50 35 84.5t84 34.5t83.5 -35t34.5 -84v-111h-35v113q0 35 -24 59.5t-59 24.5t-59.5 -24.5t-24.5 -59.5v-496q0 -35 24.5 -59.5t59.5 -24.5t59 24.5t24 59.5v133h35v-131q0 -49 -34.5 -84t-83.5 -35t-84 35z" />
    <glyph glyph-name="uni0442" unicode="&#x442;" horiz-adv-x="349" 
d="M50 710h249v-33h-108v-677h-34v677h-107v33z" />
    <glyph glyph-name="uni0443" unicode="&#x443;" horiz-adv-x="389" 
d="M54 33h30q35 0 60.5 18t33.5 50l14 67l-151 542h36l131 -477l101 477h36l-131 -605q-11 -51 -43.5 -78t-84.5 -27h-32v33z" />
    <glyph glyph-name="uni0444" unicode="&#x444;" horiz-adv-x="411" 
d="M328 615q33 -35 33 -84v-352q0 -49 -33 -84t-81 -35h-24v-60h-35v60h-25q-47 0 -80 35.5t-33 83.5v352q0 48 33 83.5t80 35.5h25v60h35v-60h24q48 0 81 -35zM188 93v524h-25q-33 0 -55.5 -25t-22.5 -59v-356q0 -34 23 -59t55 -25h25zM327 533q0 34 -23.5 59t-56.5 25h-24
v-524h24q33 0 56.5 25t23.5 59v356z" />
    <glyph glyph-name="uni0445" unicode="&#x445;" horiz-adv-x="366" 
d="M163 354l-122 356h34l101 -290q5 -15 5 -26h2q1 12 6 26l101 290h35l-124 -356l124 -354h-35l-101 291q-4 11 -6 24h-2q0 -11 -5 -24l-100 -291h-35z" />
    <glyph glyph-name="uni0446" unicode="&#x446;" horiz-adv-x="411" 
d="M326 0h-276v710h35v-677h185v677h35v-677h56v-132h-35v99z" />
    <glyph glyph-name="uni0447" unicode="&#x447;" horiz-adv-x="338" 
d="M253 324h-1q-14 -19 -37.5 -31.5t-49.5 -12.5q-47 0 -81 35t-34 84v311h35v-313q0 -35 24.5 -59.5t59.5 -24.5t59 24.5t24 59.5v313h36v-710h-35v324z" />
    <glyph glyph-name="uni0448" unicode="&#x448;" horiz-adv-x="539" 
d="M50 710h35v-677h167v677h35v-677h168v677h34v-710h-439v710z" />
    <glyph glyph-name="uni0449" unicode="&#x449;" horiz-adv-x="595" 
d="M50 710h35v-677h167v677h35v-677h168v677h34v-677h56v-132h-35v99h-460v710z" />
    <glyph glyph-name="uni044A" unicode="&#x44a;" horiz-adv-x="391" 
d="M0 710h135v-329h84q50 0 86 -35t36 -84v-143q0 -49 -34.5 -83.5t-84.5 -35.5h-122v677h-100v33zM222 33q35 0 59.5 24.5t24.5 59.5v147q0 34 -26 59t-61 25h-84v-315h87z" />
    <glyph glyph-name="uni044B" unicode="&#x44b;" horiz-adv-x="445" 
d="M50 710h35v-329h84q50 0 86 -35t36 -84v-143q0 -49 -34.5 -83.5t-84.5 -35.5h-122v710zM361 710h34v-710h-34v710zM172 33q35 0 59.5 24.5t24.5 59.5v147q0 34 -26 59t-61 25h-84v-315h87z" />
    <glyph glyph-name="uni044C" unicode="&#x44c;" horiz-adv-x="341" 
d="M50 710h35v-329h84q50 0 86 -35t36 -84v-143q0 -49 -34.5 -83.5t-84.5 -35.5h-122v710zM172 33q35 0 59.5 24.5t24.5 59.5v147q0 34 -26 59t-61 25h-84v-315h87z" />
    <glyph glyph-name="uni044D" unicode="&#x44d;" 
d="M50 240h35v-133q0 -35 24.5 -59.5t59.5 -24.5t59 24.5t24 59.5v233h-131v34h131v229q0 35 -24 59.5t-59 24.5t-59.5 -24.5t-24.5 -59.5v-113h-35v111q0 50 35 84.5t84 34.5t83.5 -35t34.5 -84v-492q0 -49 -34.5 -84t-83.5 -35t-84 35t-35 84v131z" />
    <glyph glyph-name="uni044E" unicode="&#x44e;" horiz-adv-x="505" 
d="M50 710h35v-336h133v227q0 49 34.5 84t83.5 35q50 0 84.5 -34.5t34.5 -84.5v-492q0 -49 -34.5 -84t-84.5 -35q-49 0 -83.5 35t-34.5 84v231h-133v-340h-35v710zM276.5 47.5q24.5 -24.5 59.5 -24.5t59.5 24.5t24.5 59.5v496q0 35 -24.5 59.5t-59.5 24.5t-59.5 -24.5
t-24.5 -59.5v-496q0 -35 24.5 -59.5z" />
    <glyph glyph-name="uni044F" unicode="&#x44f;" horiz-adv-x="350" 
d="M266 0v348h-84q-35 0 -61 -25t-26 -59v-216q0 -35 -10 -48h-35q10 16 10 48v212q0 35 19 63t49 41v2q-29 13 -47 40t-18 62v123q0 50 35 84.5t84 34.5h118v-710h-34zM266 677h-84q-35 0 -59.5 -24.5t-24.5 -59.5v-129q0 -34 24.5 -58.5t59.5 -24.5h84v296z" />
    <glyph glyph-name="uni0451" unicode="&#x451;" horiz-adv-x="338" 
d="M117 812h29v-60h-29v60zM194 812h29v-60h-29v60zM50 710h238v-33h-203v-303h163v-34h-163v-307h203v-33h-238v710z" />
    <glyph glyph-name="uni10D0" unicode="&#x10d0;" horiz-adv-x="288" 
d="M81 287v-200q0 -27 19 -45.5t45 -18.5t45 18.5t19 45.5v377q0 32 -3.5 48t-17.5 36l-48 68q-16 24 -23 40.5t-7 37.5v16h34v-11q0 -22 5.5 -35.5t20.5 -34.5l45 -63q17 -24 22.5 -42t5.5 -54v-381q0 -41 -28.5 -70t-69.5 -29t-70 29t-29 70v198h35z" />
    <glyph glyph-name="uni10D1" unicode="&#x10d1;" horiz-adv-x="293" 
d="M231 368q22 -29 22 -65v-206q0 -44 -31 -75.5t-75 -31.5t-75.5 31.5t-31.5 75.5v206q0 43 29.5 74t71.5 33v176q0 15 -4.5 23t-18.5 14l-28 14q-16 8 -25 17.5t-9 27.5v28h34v-20q0 -13 4.5 -18.5t17.5 -11.5l30 -14q19 -9 26 -21t7 -31v-188q34 -9 56 -38zM218 305
q0 30 -21 51t-50 21q-30 0 -51 -21t-21 -51v-210q0 -30 21 -51t51 -21q29 0 50 21t21 51v210z" />
    <glyph glyph-name="uni10D2" unicode="&#x10d2;" horiz-adv-x="317" 
d="M40 303q0 48 31.5 81.5t78.5 37.5q10 1 23 -2t15 -3q7 1 7 12v198q0 25 -17.5 42.5t-42.5 17.5t-41.5 -17.5t-16.5 -42.5v-89h-34v87q0 40 26.5 67.5t65.5 27.5t66.5 -27.5t27.5 -67.5v-208q0 -6 3.5 -12t6.5 -9.5t5 -5.5q16 -19 24.5 -37t8.5 -48v-196q0 -49 -34.5 -84
t-83.5 -35t-84 35t-35 84v194zM99.5 47.5q24.5 -24.5 59.5 -24.5t59 24.5t24 59.5v200q0 35 -24.5 59.5t-58.5 24.5q-35 0 -59.5 -24.5t-24.5 -59.5v-200q0 -35 24.5 -59.5z" />
    <glyph glyph-name="uni10D3" unicode="&#x10d3;" horiz-adv-x="427" 
d="M328 71q0 71 -70 96q-32 13 -88 13h-104v32h73q20 0 36 -5h1q-12 5 -19 7l-4 1q-23 6 -48 24t-43 49t-18 73v269q0 38 26.5 64t63.5 26q27 0 48.5 -14.5t29.5 -33.5h2q9 20 29.5 34t48.5 14q38 0 64.5 -26.5t26.5 -64.5v-216q0 -39 -27.5 -66t-65.5 -27q-39 0 -66 27
t-27 66v215q0 25 -17 42t-42 17t-42 -17t-17 -42v-258q0 -57 28 -91t70 -49l78 -28q58 -21 82 -50t24 -80v-72h-33v71zM331.5 370q17.5 17 17.5 42v216q0 25 -17.5 42t-41.5 17q-25 0 -42.5 -17t-17.5 -42v-216q0 -25 17.5 -42t42.5 -17q24 0 41.5 17z" />
    <glyph glyph-name="uni10D4" unicode="&#x10d4;" horiz-adv-x="302" 
d="M79 287v-198q0 -28 19 -47t47 -19q27 0 46.5 19t19.5 47v534q0 27 -19 45.5t-45 18.5q-27 0 -45.5 -18.5t-18.5 -45.5v-85h-35v83q0 41 29 70t70 29t69.5 -29t28.5 -70v-530q0 -42 -29.5 -71.5t-70.5 -29.5q-42 0 -71.5 29.5t-29.5 71.5v196h35z" />
    <glyph glyph-name="uni10D5" unicode="&#x10d5;" horiz-adv-x="297" 
d="M44 287h35v-198q0 -28 19 -47t47 -19q27 0 46.5 19t19.5 47v284q0 52 -52 52h-22v30h20q52 0 52 57v112q0 26 -18.5 44.5t-45.5 18.5q-26 0 -44.5 -18.5t-18.5 -44.5v-86h-34v85q0 40 29 68.5t69 28.5t68.5 -28.5t28.5 -68.5v-115q0 -28 -13.5 -45t-29.5 -21v-2
q18 -3 31.5 -20t13.5 -45v-284q0 -42 -29.5 -71.5t-70.5 -29.5q-42 0 -71.5 29.5t-29.5 71.5v196z" />
    <glyph glyph-name="uni10D6" unicode="&#x10d6;" horiz-adv-x="387" 
d="M324 384q25 -26 25 -62v-239q0 -39 -27 -66t-65 -27q-39 0 -66 27t-27 66v358h-2q-8 -11 -23.5 -17.5t-29.5 -6.5q-35 0 -60 25t-25 61v130q0 36 25.5 61.5t62.5 25.5q35 0 60.5 -25.5t25.5 -61.5v-251h2q3 12 12 27l56 86l28 -15l-45 -70h9q39 0 64 -26zM164 635
q0 22 -15.5 37t-37.5 15t-37.5 -15t-15.5 -37v-132q0 -22 15.5 -37.5t37.5 -15.5t37.5 15.5t15.5 37.5v132zM315 319q0 23 -17.5 40.5t-40.5 17.5q-24 0 -41.5 -17t-17.5 -41v-238q0 -24 17.5 -41t41.5 -17q23 0 40.5 17t17.5 41v238z" />
    <glyph glyph-name="uni10D7" unicode="&#x10d7;" horiz-adv-x="444" 
d="M76 17.5q-28 27.5 -28 66.5v545q0 37 27 64t64 27q28 0 49 -14.5t29 -33.5h2q8 19 30 33.5t49 14.5q37 0 63 -26t26 -64v-630h-34v628q0 25 -17.5 42t-41.5 17q-25 0 -42 -17t-17 -42v-544q0 -39 -27 -66.5t-66 -27.5q-38 0 -66 27.5zM184.5 40q17.5 17 17.5 42v546
q0 25 -17.5 42t-42.5 17t-42 -17t-17 -42v-546q0 -25 17 -42t42 -17t42.5 17z" />
    <glyph glyph-name="uni10D8" unicode="&#x10d8;" horiz-adv-x="314" 
d="M56 619q0 42 29.5 71.5t71.5 29.5q41 0 70.5 -29.5t29.5 -71.5v-619h-34v621q0 28 -19.5 47t-46.5 19t-46.5 -19t-19.5 -47v-621h-35v619z" />
    <glyph glyph-name="uni10D9" unicode="&#x10d9;" horiz-adv-x="267" 
d="M60 247v-158q0 -28 19.5 -47t46.5 -19q28 0 47 19t19 47v284q0 52 -51 52h-40v32h37q53 0 53 58v111q0 51 -26 82v2h34q26 -31 26 -88v-113q0 -28 -14 -45t-29 -21v-2q17 -5 31 -21.5t14 -45.5v-283q0 -42 -29.5 -71.5t-71.5 -29.5q-41 0 -70.5 29.5t-29.5 71.5v156h34z
" />
    <glyph glyph-name="uni10DA" unicode="&#x10da;" horiz-adv-x="557" 
d="M434 63q0 51 -28.5 74t-82.5 38q-46 14 -115 14h-142v32h93q17 0 36 -6l1 1l-19 6l-5 2q-46 13 -87 47.5t-41 98.5v264q0 35 25.5 60.5t60.5 25.5q26 0 47 -14t27 -33h2q7 19 27.5 33t47.5 14q26 0 46.5 -14t27.5 -33h2q7 19 27.5 33t46.5 14q35 0 60.5 -25.5t25.5 -60.5
v-234h-34v232q0 23 -16.5 39t-39.5 16q-24 0 -40.5 -16t-16.5 -39v-184h-33v183q0 23 -16.5 39.5t-39.5 16.5t-40 -16.5t-17 -39.5v-183h-33v184q0 23 -16.5 39t-39.5 16q-24 0 -40 -16t-16 -39v-259q0 -57 35.5 -87t92.5 -45l105 -28q88 -24 121.5 -59.5t33.5 -93.5v-60
h-33v63z" />
    <glyph glyph-name="uni10DB" unicode="&#x10db;" horiz-adv-x="306" 
d="M44 314q0 40 28.5 68t68.5 28q22 0 40 -9.5t28 -23.5h2v246q0 27 -19 45.5t-45 18.5q-27 0 -45.5 -18.5t-18.5 -45.5v-117h-35v115q0 41 29 70t70 29t69.5 -29t28.5 -70v-530q0 -42 -29.5 -71.5t-70.5 -29.5q-42 0 -71.5 29.5t-29.5 71.5v223zM98 42q19 -19 47 -19
q27 0 46.5 19t19.5 47v222q0 28 -19.5 47t-46.5 19q-28 0 -47 -19t-19 -47v-222q0 -28 19 -47z" />
    <glyph glyph-name="uni10DC" unicode="&#x10dc;" horiz-adv-x="298" 
d="M85.5 19.5q-29.5 29.5 -29.5 71.5v571q0 21 15.5 39.5t46.5 18.5q14 0 36 -6q24 -6 42 -6q29 0 60 12h2v-32q-29 -13 -63 -13q-17 0 -38 7q-5 1 -14.5 3t-15.5 2q-19 0 -27.5 -9.5t-8.5 -31.5v-269h2q9 14 27 23.5t41 9.5q40 0 68 -28t28 -68v-223q0 -42 -29.5 -71.5
t-70.5 -29.5q-42 0 -71.5 29.5zM203.5 42q19.5 19 19.5 47v222q0 28 -19.5 47t-46.5 19t-46.5 -19t-19.5 -47v-222q0 -28 19.5 -47t46.5 -19t46.5 19z" />
    <glyph glyph-name="uni10DD" unicode="&#x10dd;" horiz-adv-x="451" 
d="M56 630q0 37 26.5 63.5t63.5 26.5q27 0 49 -14.5t30 -33.5h2q7 19 28 33.5t49 14.5q37 0 64 -26.5t27 -63.5v-630h-35v628q0 25 -17 42t-42 17t-42 -17t-17 -42v-277h-33v277q0 25 -17 42t-42 17t-42 -17t-17 -42v-628h-35v630z" />
    <glyph glyph-name="uni10DE" unicode="&#x10de;" horiz-adv-x="287" 
d="M38 247h35v-159q0 -27 19 -46t46 -19t46.5 19t19.5 46v285q0 52 -51 52h-44v32h34q29 0 45 18t16 41q0 19 -8 33.5t-28 34.5l-52 52q-18 17 -29.5 32t-11.5 28v14h35v-8q0 -10 7.5 -19.5t27.5 -29.5l51 -51q42 -40 42 -84q0 -27 -14 -47t-32 -28v-2q18 -5 32.5 -22
t14.5 -45v-284q0 -41 -29.5 -70.5t-71.5 -29.5q-41 0 -70.5 29.5t-29.5 70.5v157z" />
    <glyph glyph-name="uni10DF" unicode="&#x10df;" horiz-adv-x="371" 
d="M146 19q-29 29 -29 70v158h35v-160q0 -27 19 -45.5t45 -18.5t45 18.5t19 45.5v584h-3l-85 -59v-128q0 -35 -24.5 -59.5t-59.5 -24.5q-34 0 -59 25t-25 59v63h33v-63q0 -22 15 -36.5t36 -14.5q22 0 36.5 14.5t14.5 36.5v142l121 84h34v-621q0 -41 -28.5 -70t-69.5 -29
t-70 29z" />
    <glyph glyph-name="uni10E0" unicode="&#x10e0;" horiz-adv-x="444" 
d="M50 384q0 42 19 72t56 61l130 108q27 22 38.5 37t11.5 36v12h33v-11q0 -24 -9 -43t-35 -41l-136 -114q-42 -34 -58 -56t-16 -60v-8h2q8 13 23.5 23t38.5 10q22 0 41.5 -13t28.5 -36h2q10 24 32 36.5t47 12.5q35 0 61 -25.5t26 -61.5v-323h-35v319q0 24 -17 41t-41 17
t-41.5 -17t-17.5 -41v-151h-33v151q0 24 -17 41t-41 17t-41 -17t-17 -41v-319h-35v384z" />
    <glyph glyph-name="uni10E1" unicode="&#x10e1;" horiz-adv-x="285" 
d="M85 19q-29 29 -29 70v621h35v-623q0 -27 19 -45.5t45 -18.5t45 18.5t19 45.5v240h34v-238q0 -41 -28.5 -70t-69.5 -29t-70 29z" />
    <glyph glyph-name="uni10E2" unicode="&#x10e2;" horiz-adv-x="438" 
d="M139 12.5q-38 22.5 -60.5 60.5t-22.5 83v554h35v-556q0 -35 17.5 -65.5t48 -48t66.5 -17.5q35 0 65 17.5t47.5 48t17.5 65.5v184q0 37 -6 57t-23 37l-40 41h-3l-30 -37q-14 -15 -18.5 -29.5t-4.5 -37.5v-41h-32v49q0 23 7.5 42t25.5 41l31 37l-32 31q-27 27 -39 46.5
t-12 46.5q0 42 28.5 70.5t70.5 28.5t70.5 -28.5t28.5 -70.5q0 -25 -8.5 -40.5t-28.5 -39.5l-36 -44l47 -46q20 -20 29 -44.5t9 -59.5v-191q0 -45 -22 -83t-60 -60.5t-83 -22.5t-83 22.5zM216 588.5q8 -12.5 29 -34.5l34 -34l29 35q3 3 13.5 14.5t16.5 24.5t6 27
q0 28 -20.5 48.5t-48.5 20.5q-27 0 -47 -20.5t-20 -48.5q0 -20 8 -32.5z" />
    <glyph glyph-name="uni10E3" unicode="&#x10e3;" horiz-adv-x="347" 
d="M89 287h35v-198q0 -28 19 -47t47 -19q27 0 46.5 19t19.5 47v543q0 23 -16.5 39t-39.5 16q-24 0 -40.5 -16t-16.5 -39v-184h-34v192q0 22 -10 34.5t-30 12.5q-8 0 -21.5 -4t-19.5 -4q-10 0 -16.5 3t-7.5 5v33h2q3 -3 10 -5t15 -2t20 3.5t21 3.5q23 0 38 -12t20 -30h2
q11 20 30.5 31t41.5 11q36 0 61 -25t25 -61v-543q0 -42 -29.5 -71.5t-70.5 -29.5q-42 0 -71.5 29.5t-29.5 71.5v196z" />
    <glyph glyph-name="uni10E4" unicode="&#x10e4;" horiz-adv-x="411" 
d="M160 24q-34 34 -34 82v181h35v-183q0 -34 23.5 -57.5t57.5 -23.5t58 23.5t24 57.5v227q0 33 -16.5 44t-34.5 11h-30v31h24q27 0 40.5 18t13.5 41v150q0 26 -16 43.5t-41 17.5q-26 0 -44 -18t-18 -43v-103q0 -39 -27 -66t-65 -27q-39 0 -66 27t-27 66v107q0 38 26.5 64
t64.5 26q26 0 47.5 -13.5t31.5 -33.5h2q10 20 30.5 33.5t46.5 13.5q37 0 63 -26t26 -63v-159q0 -22 -11 -41t-30 -28v-2q18 -4 31 -22t13 -46v-227q0 -48 -33.5 -82t-82.5 -34q-48 0 -82 34zM151.5 479q17.5 17 17.5 42v107q0 25 -17.5 42t-41.5 17q-25 0 -42 -16.5
t-17 -42.5v-107q0 -25 17 -42t42 -17q24 0 41.5 17z" />
    <glyph glyph-name="uni10E5" unicode="&#x10e5;" horiz-adv-x="300" 
d="M42 287h35v-198q0 -28 19.5 -47t46.5 -19t46.5 19t19.5 47v392q0 28 -19.5 47t-46.5 19q-26 0 -44.5 -19t-18.5 -47v-33h-34v37q0 40 27 67.5t66 27.5q22 0 40 -9.5t28 -23.5h2v163h34v-619q0 -42 -29.5 -71.5t-70.5 -29.5q-42 0 -71.5 29.5t-29.5 71.5v196z" />
    <glyph glyph-name="uni10E6" unicode="&#x10e6;" horiz-adv-x="421" 
d="M328 71q0 40 -19 62t-51 34q-32 13 -88 13h-104v32h73q20 0 36 -5h1q-12 5 -19 7l-4 1q-23 6 -48 24t-43 49t-18 73v269q0 37 26.5 63.5t63.5 26.5q27 0 48.5 -14.5t29.5 -33.5h2q8 19 29 33.5t49 14.5q37 0 63.5 -26.5t26.5 -63.5v-230h-34v228q0 25 -17.5 42t-41.5 17
q-25 0 -42 -17t-17 -42v-180h-33v180q0 25 -17.5 42t-41.5 17q-25 0 -42 -17t-17 -42v-258q0 -57 28 -91t70 -49l78 -28q58 -21 82 -50t24 -80v-72h-33v71z" />
    <glyph glyph-name="uni10E7" unicode="&#x10e7;" horiz-adv-x="300" 
d="M42 247h35v-158q0 -28 19.5 -47t46.5 -19t46.5 19t19.5 47v344h-2q-10 -14 -28 -23.5t-40 -9.5q-40 0 -66.5 27.5t-26.5 67.5v215h34v-211q0 -28 18 -47t45 -19t46.5 19t19.5 47v211h34v-619q0 -42 -29.5 -71.5t-70.5 -29.5q-42 0 -71.5 29.5t-29.5 71.5v156z" />
    <glyph glyph-name="uni10E8" unicode="&#x10e8;" horiz-adv-x="332" 
d="M104.5 19.5q-29.5 29.5 -29.5 71.5v223q0 40 28.5 68t68.5 28q22 0 40 -9.5t27 -23.5h2v258q0 21 -15 36.5t-37 15.5t-37.5 -15.5t-15.5 -36.5v-129h-33v127q0 22 -16 38t-38 16q-16 0 -37 -9h-2v32q19 10 40 10t41 -11.5t29 -32.5h2q11 21 31 32.5t42 11.5q33 0 57 -24
t24 -57v-548q0 -42 -29.5 -71.5t-70.5 -29.5q-42 0 -71.5 29.5zM222 42q19 19 19 47v222q0 28 -19 47t-46 19q-28 0 -47 -19t-19 -47v-222q0 -28 19 -47t47 -19q27 0 46 19z" />
    <glyph glyph-name="uni10E9" unicode="&#x10e9;" horiz-adv-x="296" 
d="M56 624q0 40 28.5 68t68.5 28t68 -28t28 -68v-67q0 -39 -27 -66t-65 -27q-22 0 -39.5 9.5t-25.5 22.5h-2v-137h2q8 14 27.5 24.5t42.5 10.5q40 0 67.5 -28t27.5 -67v-299h-34v295q0 27 -19.5 46.5t-46.5 19.5t-46.5 -19.5t-19.5 -46.5v-295h-35v624zM109.5 511.5
q18.5 -18.5 44.5 -18.5q25 0 43.5 18.5t18.5 44.5v69q0 25 -18.5 43.5t-43.5 18.5q-26 0 -44.5 -18t-18.5 -44v-69q0 -26 18.5 -44.5z" />
    <glyph glyph-name="uni10EA" unicode="&#x10ea;" horiz-adv-x="375" 
d="M56 710h34v-585q0 -43 30 -72.5t73 -29.5q42 0 72 29.5t30 71.5v238q0 26 -18 44.5t-44 18.5h-49v32h34q29 0 50.5 21.5t21.5 51.5q0 11 -6 27.5t-18 33.5l-31 43q-13 19 -19 31.5t-6 28.5v16h33v-11q0 -21 18 -45l32 -46q17 -23 24.5 -40t7.5 -38q0 -55 -53 -85v-2
q22 -7 39.5 -28.5t17.5 -52.5v-235q0 -37 -18.5 -68.5t-50 -50t-67.5 -18.5q-37 0 -68.5 18.5t-50 50t-18.5 68.5v583z" />
    <glyph glyph-name="uni10EB" unicode="&#x10eb;" horiz-adv-x="294" 
d="M65.5 19.5q-29.5 29.5 -29.5 71.5v223q0 40 28.5 68t68.5 28q23 0 40.5 -9.5t27.5 -23.5h2v333h34v-619q0 -42 -29.5 -71.5t-70.5 -29.5q-42 0 -71.5 29.5zM183.5 42q19.5 19 19.5 47v222q0 28 -19.5 47t-46.5 19t-46.5 -19t-19.5 -47v-222q0 -28 19.5 -47t46.5 -19
t46.5 19z" />
    <glyph glyph-name="uni10EC" unicode="&#x10ec;" horiz-adv-x="378" 
d="M148 47q-15 55 -27 108l-77 322q-20 91 -20 144q0 44 24 71.5t63 27.5q29 0 50.5 -17t27.5 -35h2q5 18 26 35t50 17q37 0 62 -27t25 -68q0 -22 -5 -49t-12 -46h-32q5 17 9.5 45.5t4.5 44.5q0 31 -16 49t-41 18q-24 0 -40.5 -16.5t-16.5 -40.5v-72h-32v72q0 24 -16.5 40.5
t-40.5 16.5q-25 0 -41 -18t-16 -49q0 -23 5 -63t15 -83l6 -24h177q26 0 36 -4.5t10 -19.5q0 -11 -9 -43l-62 -228q-13 -53 -44 -155h-33zM178 33q8 40 13 55q1 7 3.5 14.5t4.5 16.5l74 298h-181l68 -300q10 -40 16 -84h2z" />
    <glyph glyph-name="uni10ED" unicode="&#x10ed;" horiz-adv-x="319" 
d="M40 247h35v-158q0 -28 19.5 -47t46.5 -19t46.5 19t19.5 47v305h-2q-8 -8 -25 -17t-39 -9q-40 0 -68 28t-28 68q0 42 28 70.5t71 28.5q20 0 36.5 -9.5t26.5 -22.5h2v179h33v-245h2q36 41 63 82h2v-48q-23 -32 -67 -79v-329q0 -42 -29.5 -71.5t-71.5 -29.5t-71.5 29.5
t-29.5 71.5v156zM96.5 418q18.5 -19 46.5 -19q23 0 39 11.5t24 24.5v34q0 24 -17.5 43.5t-45.5 19.5q-29 0 -47 -19t-18 -48q0 -28 18.5 -47z" />
    <glyph glyph-name="uni10EE" unicode="&#x10ee;" horiz-adv-x="300" 
d="M229 382q28 -28 28 -68v-223q0 -42 -29.5 -71.5t-70.5 -29.5q-42 0 -71.5 29.5t-29.5 71.5v619h35v-333h2l1 1q6 18 12 29l48 88l28 -15l-41 -72q14 2 20 2q40 0 68 -28zM223 311q0 28 -19.5 47t-46.5 19t-46.5 -19t-19.5 -47v-222q0 -28 19.5 -47t46.5 -19t46.5 19
t19.5 47v222z" />
    <glyph glyph-name="uni10EF" unicode="&#x10ef;" horiz-adv-x="496" 
d="M26 23h36q36 0 62 26.5t26 62.5q0 37 -25.5 62.5t-62.5 27.5v35l181 183l-26 207q-3 27 -19 43.5t-40 16.5q-28 0 -44.5 -18.5t-16.5 -47.5t16 -66h-32q-18 30 -18 68q0 42 26.5 69.5t68.5 27.5q38 0 64.5 -26t30.5 -64l23 -185l87 89q6 6 21.5 20.5t23 29t7.5 31.5
q0 29 -21 50.5t-51 21.5h-23v29q16 4 30 4q41 0 71 -30.5t30 -73.5q0 -27 -13 -48t-38 -47l-119 -120l40 -325q4 -24 19.5 -38.5t36.5 -14.5q29 0 44 18t15 45l-2 28l-6 38h32q10 -46 10 -70q0 -38 -26 -65t-66 -27q-36 0 -62 23t-30 56l-38 306l-148 -148v-3
q35 -9 61.5 -40t26.5 -74q0 -49 -35 -84.5t-85 -35.5q-29 0 -42 4v29z" />
    <glyph glyph-name="uni10F0" unicode="&#x10f0;" horiz-adv-x="280" 
d="M28 152h35v-63q0 -28 19.5 -47t46.5 -19t46.5 19t19.5 47v131q0 28 -15.5 43.5t-43.5 15.5h-34v32h31q24 0 41 17t17 42t-17 42t-41 17h-31v32h14q30 0 50.5 21t20.5 51q0 19 -8 33t-26 30l-42 36q-15 13 -26 30.5t-11 36.5v11h31v-7q1 -13 6.5 -24.5t20.5 -24.5l43 -36
q26 -21 36 -41t10 -44q0 -33 -13.5 -51.5t-31.5 -31.5v-2q17 -6 33 -27t16 -50t-15 -47t-30 -26v-2q19 -5 34 -24.5t15 -50.5v-131q0 -41 -29.5 -70.5t-70.5 -29.5t-71 29.5t-30 70.5v62z" />
    <glyph glyph-name="uni10FB" unicode="&#x10fb;" horiz-adv-x="600" 
 />
    <glyph glyph-name="figuredash" unicode="&#x2012;" horiz-adv-x="463" 
d="M433 366v-31h-403v31h403z" />
    <glyph glyph-name="endash" unicode="&#x2013;" horiz-adv-x="409" 
d="M379 366v-31h-349v31h349z" />
    <glyph glyph-name="emdash" unicode="&#x2014;" horiz-adv-x="631" 
d="M601 366v-31h-571v31h571z" />
    <glyph glyph-name="quoteleft" unicode="&#x2018;" horiz-adv-x="106" 
d="M30 624l27 76h17l-14 -73l7 -1v-84h-37v82z" />
    <glyph glyph-name="quoteright" unicode="&#x2019;" horiz-adv-x="106" 
d="M47 614l-8 1v85h37v-83l-27 -75h-17z" />
    <glyph glyph-name="quotesinglbase" unicode="&#x201a;" horiz-adv-x="106" 
d="M47 0l-8 1v85h37v-83l-27 -76h-17z" />
    <glyph glyph-name="quotedblleft" unicode="&#x201c;" horiz-adv-x="176" 
d="M30 624l27 76h17l-14 -73l7 -1v-84h-37v82zM100 624l26 76h18l-15 -73l7 -1v-84h-36v82z" />
    <glyph glyph-name="quotedblright" unicode="&#x201d;" horiz-adv-x="176" 
d="M47 614l-7 1v85h36v-83l-26 -75h-18zM116 614l-7 1v85h37v-83l-27 -75h-17z" />
    <glyph glyph-name="quotedblbase" unicode="&#x201e;" horiz-adv-x="181" 
d="M47 0l-8 1v85h37v-83l-27 -76h-17zM122 0l-7 1v85h36v-83l-26 -76h-18z" />
    <glyph glyph-name="bullet" unicode="&#x2022;" horiz-adv-x="186" 
d="M48.5 305q-18.5 19 -18.5 45t18.5 45t44.5 19t44.5 -19t18.5 -45t-18.5 -45t-44.5 -19t-44.5 19z" />
    <glyph glyph-name="ellipsis" unicode="&#x2026;" horiz-adv-x="238" 
d="M30 86h37v-86h-37v86zM101 86h36v-86h-36v86zM172 86h36v-86h-36v86z" />
    <glyph glyph-name="guilsinglleft" unicode="&#x2039;" horiz-adv-x="162" 
d="M30 350l65 246h37l-65 -246l65 -249h-37z" />
    <glyph glyph-name="guilsinglright" unicode="&#x203a;" horiz-adv-x="162" 
d="M95 351l-65 246h36l66 -246l-66 -249h-36z" />
    <glyph glyph-name="Euro" unicode="&#x20ac;" horiz-adv-x="434" 
d="M127 43q-36 49 -36 128v115h-41v23h41v86h-41v23h41v111q0 80 36 128.5t111 48.5t110.5 -48.5t35.5 -128.5v-37h-36v39q0 63 -26 101.5t-83 38.5t-83.5 -38.5t-26.5 -101.5v-113h197v-23h-197v-86h197v-23h-197v-117q0 -63 26 -101t84 -38q57 0 83 38t26 101v44h36v-42
q0 -79 -35.5 -128t-110.5 -49t-111 49z" />
    <glyph glyph-name="uni20BE" unicode="&#x20be;" horiz-adv-x="484" 
d="M400 365v164q0 51 -24.5 91t-71.5 57v-312h-22v318q-16 4 -40 4t-40 -4v-318h-22v312q-47 -16 -71.5 -56t-24.5 -92v-349q0 -75 51.5 -111t140.5 -36h158v-33h-384v33h92v2q-20 3 -41 21t-36 50t-15 76v341q0 71 34.5 121t95.5 68v54h22v-49q20 3 40 3t40 -3v49h22v-54
q61 -18 95.5 -68t34.5 -121v-158h-34z" />
    <glyph glyph-name="minus" unicode="&#x2212;" horiz-adv-x="416" 
d="M50 364h316v-28h-316v28z" />
    <glyph glyph-name="approxequal" unicode="&#x2248;" horiz-adv-x="435" 
d="M262 391q-18 8 -42 24q-26 15 -42 22.5t-33 7.5q-23 0 -40 -13.5t-34 -39.5l-21 17q22 34 44 50.5t50 16.5q21 0 39.5 -8.5t43.5 -24.5q23 -14 39 -21.5t32 -7.5q20 0 34.5 13t31.5 40l21 -18q-19 -33 -39.5 -49.5t-46.5 -16.5q-19 0 -37 8zM262.5 231q-17.5 8 -43.5 24
q-23 15 -40.5 22.5t-34.5 7.5q-22 0 -39 -13.5t-34 -39.5l-21 17q22 33 44 49.5t50 16.5q21 0 39 -8t45 -25q23 -14 39 -21.5t32 -7.5q20 0 35 13.5t30 40.5l21 -18q-19 -33 -39.5 -49.5t-46.5 -16.5q-19 0 -36.5 8z" />
    <glyph glyph-name="uni10D0.ss01" horiz-adv-x="280" 
d="M55 160v-74q0 -26 19 -45t45 -19t45 19t19 45v115q0 32 -4.5 49t-22.5 35l-41 41q-18 18 -24 30.5t-6 28.5v15h33v-12q0 -14 5 -23.5t20 -25.5l39 -38q22 -21 28.5 -39t6.5 -55v-118q0 -41 -28.5 -70t-69.5 -29t-69.5 29t-28.5 70v71h34z" />
    <glyph glyph-name="uni10D1.ss01" horiz-adv-x="296" 
d="M211 368q22 -29 22 -65v-206q0 -44 -31 -75.5t-75 -31.5t-75 31.5t-31 75.5v206q0 43 29 74t72 33v176q0 15 -4.5 23t-18.5 15l-29 13q-16 8 -24.5 17.5t-8.5 27.5v28h33v-20q0 -13 4.5 -18.5t17.5 -11.5l31 -15q19 -9 25.5 -20.5t6.5 -30.5v-188q34 -9 56 -38zM199 306
q0 30 -21 51t-51 21t-51 -21t-21 -51v-212q0 -30 21 -51t51 -21t51 21t21 51v212z" />
    <glyph glyph-name="uni10D2.ss01" horiz-adv-x="320" 
d="M21 -7q0 48 31.5 81.5t77.5 37.5q11 1 23 -2t15 -3q8 1 8 12v198q0 25 -18 43t-43 18t-41 -17.5t-16 -43.5v-89h-34v87q0 40 26 67.5t65 27.5q40 0 67 -27.5t27 -67.5v-207q0 -7 4.5 -14t10.5 -13q15 -19 24 -37.5t9 -48.5v-196q0 -50 -34.5 -84.5t-83.5 -34.5
t-83.5 34.5t-34.5 84.5v194zM80 -263.5q25 -24.5 59 -24.5q35 0 59.5 24.5t24.5 59.5v201q0 35 -24.5 59.5t-59.5 24.5q-34 0 -59 -24.5t-25 -59.5v-201q0 -35 25 -59.5z" />
    <glyph glyph-name="uni10D3.ss01" horiz-adv-x="383" 
d="M305 -239q0 71 -70 96q-33 13 -88 13h-104v32h73q20 0 36 -6l1 1q-15 6 -20 7l-4 1q-22 6 -47 24t-43 49t-18 73v269q0 38 26 64t63 26q27 0 49 -14.5t30 -33.5h2q8 19 29 33.5t49 14.5q37 0 63.5 -27t26.5 -64v-216q0 -39 -27.5 -66t-65.5 -27q-39 0 -65.5 27t-26.5 66
v215q0 25 -17.5 42.5t-41.5 17.5q-25 0 -42.5 -17.5t-17.5 -42.5v-258q0 -57 28 -91t70 -49l78 -29q59 -21 82.5 -49.5t23.5 -79.5v-72h-32v71zM307.5 59.5q17.5 17.5 17.5 41.5v218q0 24 -17.5 41.5t-41.5 17.5q-25 0 -42 -17.5t-17 -41.5v-218q0 -24 17 -41.5t42 -17.5
q24 0 41.5 17.5z" />
    <glyph glyph-name="uni10D4.ss01" horiz-adv-x="289" 
d="M55 -23v-199q0 -27 19.5 -46.5t46.5 -19.5t46.5 19.5t19.5 46.5v536q0 26 -19 45t-45 19t-45 -19t-19 -45v-86h-34v83q0 41 28.5 70t69.5 29t69.5 -29t28.5 -70v-530q0 -42 -29 -71.5t-71 -29.5t-71 29.5t-29 71.5v196h34z" />
    <glyph glyph-name="uni10D5.ss01" horiz-adv-x="292" 
d="M20 -23h35v-199q0 -27 19.5 -46.5t46.5 -19.5t46.5 19.5t19.5 46.5v285q0 53 -51 53h-22v31h19q21 0 36.5 10t15.5 45v112q0 27 -18.5 45.5t-44.5 18.5t-45 -18.5t-19 -45.5v-86h-33v85q0 40 28.5 68.5t68.5 28.5t68 -28.5t28 -68.5v-115q0 -28 -13 -44.5t-28 -20.5v-2
q18 -4 31 -21t13 -45v-284q0 -42 -29 -71.5t-71 -29.5t-71.5 29.5t-29.5 71.5v196z" />
    <glyph glyph-name="uni10D6.ss01" horiz-adv-x="350" 
d="M271 384q25 -26 25 -62v-239q0 -39 -27 -66t-65 -27t-65 27t-27 66v358h-2q-8 -11 -23.5 -17.5t-29.5 -6.5q-35 0 -59.5 24.5t-24.5 61.5v130q0 36 25 61.5t62 25.5q35 0 60.5 -25.5t25.5 -61.5v-251h1q2 5 5.5 11.5t6.5 15.5l48 86l28 -15l-40 -71q4 1 12 1q39 0 64 -26
zM112 635q0 22 -15.5 37.5t-37.5 15.5t-37.5 -15.5t-15.5 -37.5v-132q0 -22 15.5 -38t37.5 -16t37.5 16t15.5 38v132zM262 320q0 23 -17.5 40.5t-40.5 17.5q-24 0 -41 -17.5t-17 -40.5v-240q0 -24 17 -41t41 -17q23 0 40.5 17t17.5 41v240z" />
    <glyph glyph-name="uni10D7.ss01" horiz-adv-x="439" 
d="M48.5 17.5q-27.5 27.5 -27.5 66.5v235q0 37 26.5 64t63.5 27q28 0 49 -14.5t29 -33.5h2q9 19 30.5 33.5t48.5 14.5q37 0 63 -26t26 -64v-320h-34v319q0 24 -17.5 41.5t-41.5 17.5q-25 0 -42 -17.5t-17 -41.5v-235q0 -39 -27 -66.5t-66 -27.5q-38 0 -65.5 27.5z
M156.5 39.5q17.5 17.5 17.5 42.5v236q0 25 -17.5 42.5t-41.5 17.5q-25 0 -42.5 -17.5t-17.5 -42.5v-236q0 -25 17.5 -42.5t42.5 -17.5q24 0 41.5 17.5z" />
    <glyph glyph-name="uni10D8.ss01" horiz-adv-x="263" 
d="M21 309q0 42 29 71.5t71 29.5t71 -29.5t29 -71.5v-309h-34v312q0 27 -19.5 46.5t-46.5 19.5t-46.5 -19.5t-19.5 -46.5v-312h-34v309z" />
    <glyph glyph-name="uni10D9.ss01" horiz-adv-x="263" 
d="M55 -63v-159q0 -27 19.5 -46.5t46.5 -19.5t46.5 19.5t19.5 46.5v285q0 53 -51 53h-41v33h37q21 0 37 10.5t16 45.5v111q0 26 -5.5 45.5t-19.5 36.5v2h34q24 -30 24 -88v-113q0 -28 -13.5 -44.5t-28.5 -20.5v-2q18 -4 31.5 -21.5t13.5 -46.5v-283q0 -42 -29.5 -71.5
t-70.5 -29.5q-42 0 -71 29.5t-29 71.5v156h34z" />
    <glyph glyph-name="uni10DA.ss01" horiz-adv-x="529" 
d="M410 -247q0 51 -28.5 74t-82.5 38q-46 14 -115 14h-141v32h93q17 0 36 -6l1 1l-20 6l-5 2q-46 13 -86.5 47.5t-40.5 98.5v264q0 35 25 60.5t60 25.5q27 0 47 -14t27 -33h2q8 19 28 33t47 14q26 0 46.5 -14t27.5 -33h2q7 19 27.5 33t46.5 14q35 0 60 -25.5t25 -60.5v-234
h-34v232q0 23 -16.5 39.5t-39.5 16.5t-39.5 -16.5t-16.5 -39.5v-192h-33v191q0 23 -16.5 40t-39.5 17t-40 -17t-17 -40v-191h-33v192q0 23 -16 39.5t-39 16.5q-24 0 -40.5 -16.5t-16.5 -39.5v-259q0 -57 35.5 -87t92.5 -45l105 -28q88 -24 121 -59.5t33 -93.5v-60h-32v63z
" />
    <glyph glyph-name="uni10DB.ss01" horiz-adv-x="284" 
d="M21 314q0 40 28 68t68 28q23 0 41 -9.5t27 -23.5h2v247q0 26 -19 45t-45 19t-45 -19t-19 -45v-118h-34v115q0 41 28.5 70t69.5 29t69.5 -29t28.5 -70v-530q0 -42 -29 -71.5t-71 -29.5t-71 29.5t-29 71.5v223zM74.5 41.5q19.5 -19.5 46.5 -19.5t46.5 19.5t19.5 46.5v224
q0 27 -19.5 46.5t-46.5 19.5t-46.5 -19.5t-19.5 -46.5v-224q0 -27 19.5 -46.5z" />
    <glyph glyph-name="uni10DC.ss01" horiz-adv-x="284" 
d="M50 19.5q-29 29.5 -29 71.5v571q0 21 15 39.5t46 18.5q14 0 36 -6q24 -6 42 -6q28 0 59 12h2v-32q-27 -12 -61 -12q-18 0 -39 7q-5 1 -14.5 3t-15.5 2q-19 0 -27.5 -10t-8.5 -31v-270h2q9 14 27 23.5t41 9.5q40 0 68 -28t28 -68v-223q0 -42 -29 -71.5t-71 -29.5t-71 29.5
zM167.5 41.5q19.5 19.5 19.5 46.5v224q0 27 -19.5 46.5t-46.5 19.5t-46.5 -19.5t-19.5 -46.5v-224q0 -27 19.5 -46.5t46.5 -19.5t46.5 19.5z" />
    <glyph glyph-name="uni10DD.ss01" horiz-adv-x="419" 
d="M21 320q0 37 26 63.5t63 26.5q27 0 49 -14.5t30 -33.5h2q7 19 28 33.5t49 14.5q37 0 63.5 -26.5t26.5 -63.5v-320h-34v319q0 24 -17 41.5t-42 17.5t-42 -17.5t-17 -41.5v-151h-33v151q0 24 -17 41.5t-42 17.5q-24 0 -41.5 -17.5t-17.5 -41.5v-319h-34v320z" />
    <glyph glyph-name="uni10DE.ss01" horiz-adv-x="263" 
d="M21 274h34v-186q0 -27 19.5 -46.5t46.5 -19.5t46 19.5t19 46.5v285q0 53 -51 53h-44v33h36q30 0 44.5 15.5t14.5 38.5q0 19 -8.5 32t-34.5 39l-61 60q-17 17 -24.5 28t-7.5 24v14h34v-8q0 -10 4.5 -16.5t22.5 -24.5l59 -59q22 -21 35.5 -42t13.5 -45q0 -28 -12.5 -45.5
t-32.5 -25.5v-2q18 -4 32 -21.5t14 -46.5v-284q0 -41 -29 -70.5t-70 -29.5q-42 0 -71 29.5t-29 70.5v184z" />
    <glyph glyph-name="uni10DF.ss01" horiz-adv-x="374" 
d="M143.5 -291q-28.5 29 -28.5 70v185h34v-188q0 -26 19 -45t45 -19t45 19t19 45v585h-3l-84 -59v-128q0 -35 -25 -59.5t-60 -24.5q-34 0 -59 25t-25 59v73h33v-74q0 -21 15 -36t36 -15q22 0 36.5 15t14.5 36v143l121 84h34v-621q0 -41 -28.5 -70t-69.5 -29t-69.5 29z" />
    <glyph glyph-name="uni10E0.ss01" horiz-adv-x="418" 
d="M21 384q0 42 18.5 72t55.5 61l130 108q27 22 38.5 37t11.5 36v12h33v-11q0 -24 -9 -43t-35 -41l-136 -114q-42 -34 -58 -56t-16 -60v-8h2q8 13 23.5 23t38.5 10q22 0 41.5 -13t28.5 -36h2q10 24 31.5 36.5t46.5 12.5q36 0 61 -25.5t25 -61.5v-323h-33v319
q0 24 -17.5 41.5t-41.5 17.5q-23 0 -40.5 -17.5t-17.5 -41.5v-159h-32v159q0 24 -17.5 41.5t-41.5 17.5t-41 -17.5t-17 -41.5v-319h-34v384z" />
    <glyph glyph-name="uni10E1.ss01" horiz-adv-x="284" 
d="M49.5 19q-28.5 29 -28.5 70v621h34v-624q0 -26 19 -45t45 -19t45 19t19 45v314h34v-311q0 -41 -28.5 -70t-69.5 -29t-69.5 29z" />
    <glyph glyph-name="uni10E2.ss01" horiz-adv-x="414" 
d="M103 -297.5q-38 22.5 -60 60.5t-22 83v554h34v-556q0 -35 18 -65.5t48 -48.5t66 -18t65.5 18t47 48t17.5 66v184q0 37 -6 57t-23 37l-40 41h-3l-30 -37q-14 -15 -18.5 -29.5t-4.5 -37.5v-49h-31v57q0 23 7 42t25 41l31 37l-32 31q-27 27 -38.5 46.5t-11.5 46.5
q0 42 28 70.5t70 28.5t70.5 -28.5t28.5 -70.5q0 -26 -8.5 -41.5t-28.5 -38.5l-36 -44l47 -46q20 -20 29 -44.5t9 -59.5v-191q0 -45 -22 -83t-60 -60.5t-83 -22.5t-83 22.5zM180 278.5q8 -12.5 29 -34.5l35 -34l28 35q3 3 13.5 14.5t16.5 24.5t6 27q0 28 -20.5 48.5
t-48.5 20.5q-27 0 -47 -20.5t-20 -48.5q0 -20 8 -32.5z" />
    <glyph glyph-name="uni10E3.ss01" horiz-adv-x="349" 
d="M86 -23h34v-199q0 -27 19.5 -46.5t46.5 -19.5t46.5 19.5t19.5 46.5v544q0 23 -16.5 39.5t-39.5 16.5q-24 0 -40 -16.5t-16 -39.5v-172h-34v180q0 22 -10 35t-30 13q-8 0 -21.5 -4t-19.5 -4q-10 0 -16.5 3t-7.5 5v32h2q3 -3 10 -5t15 -2t20 3.5t21 3.5q23 0 37.5 -12
t19.5 -30h2q12 20 31.5 31t41.5 11q35 0 60 -25t25 -61v-543q0 -42 -29 -71.5t-71 -29.5t-71 29.5t-29 71.5v196z" />
    <glyph glyph-name="uni10E4.ss01" horiz-adv-x="418" 
d="M156.5 -286q-33.5 34 -33.5 82v185h34v-187q0 -34 24 -58t58 -24q33 0 57 24t24 58v227q0 33 -16 44t-35 11h-30v31h25q27 0 40.5 18t13.5 41v151q0 25 -16.5 43t-41.5 18t-43 -18t-18 -43v-104q0 -39 -27 -66t-66 -27q-38 0 -65 27t-27 66v107q0 38 26.5 64t64.5 26
q26 0 47 -13.5t31 -33.5h2q10 20 30.5 33.5t46.5 13.5q37 0 63 -26t26 -63v-159q0 -22 -11 -41t-30 -28v-2q18 -4 31 -22t13 -46v-227q0 -48 -33.5 -82t-81.5 -34q-49 0 -82.5 34zM148 168.5q17 17.5 17 42.5v108q0 24 -17 41.5t-42 17.5t-42 -16.5t-17 -42.5v-108
q0 -25 17.5 -42.5t41.5 -17.5q25 0 42 17.5z" />
    <glyph glyph-name="uni10E5.ss01" horiz-adv-x="284" 
d="M21 -19h34v-203q0 -27 19.5 -46.5t46.5 -19.5t46.5 19.5t19.5 46.5v534q0 27 -19.5 46.5t-46.5 19.5q-26 0 -44.5 -19.5t-18.5 -46.5v-101h-33v104q0 40 26.5 67.5t65.5 27.5q22 0 40.5 -10t27.5 -23h2v333h34v-929q0 -42 -29 -71.5t-71 -29.5t-71 29.5t-29 71.5v200z
" />
    <glyph glyph-name="uni10E6.ss01" horiz-adv-x="421" 
d="M304 -239q0 40 -18.5 62t-50.5 34q-33 13 -88 13h-104v32h73q20 0 36 -6l1 1q-15 6 -20 7l-4 1q-22 6 -47 24t-43 49t-18 73v269q0 37 26 63.5t63 26.5q28 0 49.5 -14.5t28.5 -33.5h2q8 19 29 33.5t49 14.5q37 0 63.5 -26.5t26.5 -63.5v-214h-34v213q0 24 -17 41.5
t-42 17.5t-42 -17.5t-17 -41.5v-173h-33v173q0 24 -17 41.5t-42 17.5t-42 -17.5t-17 -41.5v-259q0 -57 28 -91t70 -49l78 -28q58 -21 82 -50t24 -80v-72h-33v71z" />
    <glyph glyph-name="uni10E7.ss01" horiz-adv-x="284" 
d="M21 -36h34v-186q0 -27 19.5 -46.5t46.5 -19.5t46.5 19.5t19.5 46.5v345h-2q-10 -14 -28 -23.5t-40 -9.5q-39 0 -65.5 27.5t-26.5 67.5v215h33v-212q0 -27 18 -46.5t45 -19.5t46.5 19.5t19.5 46.5v212h34v-619q0 -42 -29 -71.5t-71 -29.5t-71 29.5t-29 71.5v183z" />
    <glyph glyph-name="uni10E8.ss01" horiz-adv-x="289" 
d="M67 19.5q-29 29.5 -29 71.5v223q0 40 28 68t68 28q23 0 41 -9.5t27 -23.5h2v258q0 21 -15.5 36.5t-37.5 15.5t-37.5 -15.5t-15.5 -36.5v-129h-32v127q0 22 -16 38t-38 16q-15 0 -37 -9h-2v32q19 10 40 10t41 -11.5t29 -32.5h2q10 21 30 32.5t42 11.5q34 0 57.5 -24
t23.5 -57v-548q0 -42 -29 -71.5t-71 -29.5t-71 29.5zM184.5 42q19.5 19 19.5 47v222q0 28 -19.5 47t-46.5 19t-46.5 -19t-19.5 -47v-222q0 -28 19.5 -47t46.5 -19t46.5 19z" />
    <glyph glyph-name="uni10E9.ss01" horiz-adv-x="284" 
d="M21 624q0 40 28 68t68 28t68 -28t28 -68v-67q0 -39 -27 -66t-65 -27q-22 0 -39.5 9.5t-25.5 22.5h-2v-137h2q8 14 27.5 24.5t42.5 10.5q40 0 67.5 -28t27.5 -67v-299h-34v295q0 27 -19.5 46.5t-46.5 19.5t-46.5 -19.5t-19.5 -46.5v-295h-34v624zM73.5 511
q18.5 -18 44.5 -18q25 0 43.5 18.5t18.5 43.5v71q0 25 -18.5 43.5t-43.5 18.5q-26 0 -44.5 -18t-18.5 -44v-71q0 -26 18.5 -44z" />
    <glyph glyph-name="uni10EA.ss01" horiz-adv-x="355" 
d="M21 400h33v-585q0 -43 30 -73t73 -30q42 0 72 30t30 71v239q0 26 -18.5 45t-43.5 19h-49v33h34q30 0 51 20.5t21 50.5q0 11 -6 27.5t-18 33.5l-31 43q-13 19 -19 31.5t-6 28.5v16h32v-11q0 -19 18 -45l32 -46q17 -23 24.5 -40t7.5 -38q0 -33 -17 -54t-35 -30v-2
q21 -7 38.5 -28.5t17.5 -53.5v-235q0 -37 -18 -68.5t-49 -50t-68 -18.5t-68 18.5t-49.5 50t-18.5 68.5v583z" />
    <glyph glyph-name="uni10EB.ss01" horiz-adv-x="284" 
d="M50 19.5q-29 29.5 -29 71.5v223q0 40 28 68t68 28q23 0 41 -9.5t27 -23.5h2v333h34v-619q0 -42 -29 -71.5t-71 -29.5t-71 29.5zM167.5 41.5q19.5 19.5 19.5 46.5v224q0 27 -19.5 46.5t-46.5 19.5t-46.5 -19.5t-19.5 -46.5v-224q0 -27 19.5 -46.5t46.5 -19.5t46.5 19.5z
" />
    <glyph glyph-name="uni10EC.ss01" horiz-adv-x="394" 
d="M137 -197q-33 192 -36 217l-63 435q-17 130 -17 166q0 44 23.5 71.5t62.5 27.5q30 0 50.5 -16.5t27.5 -35.5h2q6 18 26.5 35t50.5 17q37 0 61.5 -28t24.5 -75q0 -29 -9.5 -80.5t-21.5 -81.5h-33q10 28 20 81t10 76q0 36 -16 56t-42 20q-23 0 -40 -17t-17 -41v-108h-31
v108q0 24 -17 41t-41 17q-25 0 -41 -18.5t-16 -49.5q0 -22 15 -146l18 -144h170q26 0 36.5 -3.5t10.5 -16.5q0 -8 -6 -36l-5 -23l-42 -229l-13 -72q-35 -203 -49 -260h-34zM174 -260l41 225l54 333h-175l41 -311l18 -123q10 -62 19 -124h2z" />
    <glyph glyph-name="uni10ED.ss01" horiz-adv-x="343" 
d="M21 -3h34v-219q0 -27 19.5 -46.5t46.5 -19.5t46.5 19.5t19.5 46.5v414h-2q-8 -8 -25 -17t-39 -9q-40 0 -68 28t-28 69q0 42 28.5 70t70.5 28q20 0 36.5 -9.5t26.5 -22.5h2v381h32v-447h2q3 4 21.5 25.5t40.5 57.5h2v-49q-11 -17 -30 -39.5t-36 -39.5v-437
q0 -42 -29 -71.5t-71 -29.5t-71 29.5t-29 71.5v216zM76.5 216q18.5 -19 46.5 -19q24 0 39.5 12t23.5 25v33q0 24 -17.5 43.5t-45.5 19.5q-29 0 -47 -19t-18 -48q0 -28 18.5 -47z" />
    <glyph glyph-name="uni10EE.ss01" horiz-adv-x="267" 
d="M193 382q28 -28 28 -68v-223q0 -42 -29 -71.5t-71 -29.5t-71 29.5t-29 71.5v619h34v-333h2l1 1q6 19 12 29l48 88l28 -15l-41 -72q14 2 20 2q40 0 68 -28zM187 312q0 27 -19.5 46.5t-46.5 19.5t-46.5 -19.5t-19.5 -46.5v-224q0 -27 19.5 -46.5t46.5 -19.5t46.5 19.5
t19.5 46.5v224z" />
    <glyph glyph-name="uni10EF.ss01" horiz-adv-x="447" 
d="M0 -287h36q36 0 62 26.5t26 62.5q0 37 -25.5 62.5t-62.5 27.5v35l181 183l-26 207q-3 27 -19.5 44t-40.5 17q-28 0 -44 -18.5t-16 -48.5q0 -33 16 -66h-32q-18 30 -18 68q0 42 26.5 69.5t68.5 27.5q38 0 64 -26t30 -64l23 -185l87 89q5 4 21 19.5t23.5 30t7.5 31.5
q0 30 -20.5 51t-50.5 21h-24v29q17 4 30 4q41 0 71 -30.5t30 -73.5q0 -28 -13 -48.5t-38 -45.5l-120 -121l42 -326q3 -24 19 -38.5t36 -14.5q29 0 44 18t16 45q0 17 -3 29l-6 39h32q10 -44 10 -71q0 -38 -26 -65t-66 -27q-36 0 -61.5 23t-29.5 56l-38 307l-148 -149v-3
q35 -9 61.5 -40t26.5 -74q0 -50 -35 -85t-85 -35q-29 0 -42 4v29z" />
    <glyph glyph-name="uni10F0.ss01" horiz-adv-x="284" 
d="M21 156h34v-68q0 -27 19.5 -46.5t46.5 -19.5t46.5 19.5t19.5 46.5v132q0 28 -15.5 43.5t-43.5 15.5h-34v32h31q25 0 42 17t17 42t-17 42t-42 17h-31v32h14q30 0 51 21t21 51q0 20 -8 33.5t-27 29.5l-42 36q-14 12 -25 29.5t-11 37.5v11h31v-7q0 -13 5.5 -24.5t20.5 -24.5
l43 -36q26 -21 36 -41t10 -44q0 -52 -45 -83v-2q17 -6 33 -26.5t16 -50.5q0 -29 -15 -47t-30 -26v-2q19 -5 34 -24.5t15 -50.5v-131q0 -41 -29 -70.5t-71 -29.5q-41 0 -70.5 29.5t-29.5 70.5v66z" />
    <glyph glyph-name="brevecombcy" horiz-adv-x="0" 
 />
    </font>
</defs>
</svg>
