<?xml version="1.0" standalone="no"?>
<!DOCTYPE svg PUBLIC "-//W3C//DTD SVG 1.1//EN" "http://www.w3.org/Graphics/SVG/1.1/DTD/svg11.dtd" >
<svg xmlns="http://www.w3.org/2000/svg" xmlns:xlink="http://www.w3.org/1999/xlink" version="1.1">
<metadata>
Created by FontForge 20161013 at Sun Jun  4 15:28:53 2017
 By ,,,
Copyright (c) 2016 by Beno Gordeziani, Aleksandre Charkviani. All rights reserved.
</metadata>
<defs>
<font id="GLGordeziani-Bold" horiz-adv-x="358" >
  <font-face 
    font-family="GL Gordeziani Bold"
    font-weight="700"
    font-stretch="normal"
    units-per-em="1000"
    panose-1="0 0 8 0 0 0 0 0 0 0"
    ascent="800"
    descent="-200"
    x-height="710"
    cap-height="710"
    bbox="-35 -320 1030 856"
    underline-thickness="50"
    underline-position="-150"
    unicode-range="U+0020-2248"
  />
<missing-glyph horiz-adv-x="510" 
d="M418 -310h-323v1020h323v-1020zM171 642v-34h67v-38h-68v-33h170v33h-68v38h68v34h-169zM170 510v-106h170v35h-68v71h-102zM238 439h-34v36h34v-36zM170 376v-33h68v-38h-68v-34h102v72h68v33h-170zM306 315v-67h-136v-35h170v102h-34zM238 191v-57h34v23h34v-48h-102
v82h-34v-115h170v115h-102zM170 14v-115h170v115h-170zM306 -67h-102v48h102v-48zM170 -124v-34h72l-72 -48v-34h170v34h-104l71 48h33v34h-170z" />
    <glyph glyph-name=".notdef" horiz-adv-x="510" 
d="M418 -310h-323v1020h323v-1020zM171 642v-34h67v-38h-68v-33h170v33h-68v38h68v34h-169zM170 510v-106h170v35h-68v71h-102zM238 439h-34v36h34v-36zM170 376v-33h68v-38h-68v-34h102v72h68v33h-170zM306 315v-67h-136v-35h170v102h-34zM238 191v-57h34v23h34v-48h-102
v82h-34v-115h170v115h-102zM170 14v-115h170v115h-170zM306 -67h-102v48h102v-48zM170 -124v-34h72l-72 -48v-34h170v34h-104l71 48h33v34h-170z" />
    <glyph glyph-name=".null" horiz-adv-x="0" 
 />
    <glyph glyph-name="nonmarkingreturn" horiz-adv-x="333" 
 />
    <glyph glyph-name="space" unicode=" " horiz-adv-x="140" 
 />
    <glyph glyph-name="exclam" unicode="!" horiz-adv-x="170" 
d="M30 408v292h110v-292l-14 -253h-82zM32 106h106v-106h-106v106z" />
    <glyph glyph-name="quotedbl" unicode="&#x22;" horiz-adv-x="305" 
d="M30 700h106l-16 -206h-75zM169 700h106l-16 -206h-75z" />
    <glyph glyph-name="numbersign" unicode="#" horiz-adv-x="440" 
d="M79 200h-49l8 78h49l19 183h-50l8 78h50l17 161h90l-17 -161h65l17 161h90l-17 -161h51l-8 -78h-51l-19 -183h51l-8 -78h-51l-21 -200h-90l21 200h-65l-21 -200h-90zM242 278l19 183h-65l-19 -183h65z" />
    <glyph glyph-name="dollar" unicode="$" horiz-adv-x="428" 
d="M169 6q-59 12 -89 56t-30 116v48h104v-55q0 -68 57 -68t57 68q0 31 -12.5 55.5t-30.5 43t-51 45.5q-39 31 -63 56.5t-41 63t-17 87.5q0 71 29.5 114.5t86.5 56.5v52h90v-52q58 -12 88 -55.5t30 -115.5v-22h-104v29q0 36 -14 52.5t-41 16.5t-41 -16.5t-14 -52.5
q0 -31 12.5 -55.5t30.5 -43t51 -45.5q39 -31 63 -56.5t41 -63t17 -87.5q0 -72 -30.5 -116t-88.5 -56v-51h-90v51z" />
    <glyph glyph-name="percent" unicode="%" horiz-adv-x="659" 
d="M77 280q-27 29 -27 83v230q0 54 27 83t79 29t79 -29t27 -83v-230q0 -54 -27 -83t-79 -29t-79 29zM432 700h65l-276 -700h-65zM192 358v240q0 44 -36 44t-36 -44v-240q0 -44 36 -44t36 44zM424 24q-27 29 -27 83v230q0 54 27 83t79 29t79 -29t27 -83v-230q0 -54 -27 -83
t-79 -29t-79 29zM539 102v240q0 44 -36 44t-36 -44v-240q0 -44 36 -44t36 44z" />
    <glyph glyph-name="ampersand" unicode="&#x26;" horiz-adv-x="463" 
d="M81 33q-31 41 -31 119v71q0 113 76 147q-39 16 -57.5 51.5t-18.5 92.5v13q0 85 41 129t123 44h126v-100h-124q-27 0 -41.5 -16t-14.5 -52v-43q0 -40 16.5 -57t49.5 -17h48v78h110v-78h29v-100h-29v-230q0 -30 2 -48.5t10 -36.5h-112q-8 22 -10 55q-29 -63 -102 -63
q-60 0 -91 41zM274 153v162h-42q-38 0 -55 -20.5t-17 -68.5v-65q0 -69 57 -69q54 0 57 61z" />
    <glyph glyph-name="quotesingle" unicode="'" horiz-adv-x="166" 
d="M30 700h106l-16 -206h-75z" />
    <glyph glyph-name="parenleft" unicode="(" horiz-adv-x="248" 
d="M65.5 35q-35.5 35 -35.5 118v394q0 83 35.5 118t118.5 35h34v-90h-27q-27 0 -39 -13.5t-12 -49.5v-394q0 -36 12 -49.5t39 -13.5h27v-90h-34q-83 0 -118.5 35z" />
    <glyph glyph-name="parenright" unicode=")" horiz-adv-x="248" 
d="M30 90h27q27 0 39 13.5t12 49.5v394q0 36 -12 49.5t-39 13.5h-27v90h34q83 0 118.5 -35t35.5 -118v-394q0 -83 -35.5 -118t-118.5 -35h-34v90z" />
    <glyph glyph-name="asterisk" unicode="*" horiz-adv-x="452" 
d="M271 700l-26 -165l149 75l28 -85l-164 -28l117 -117l-72 -53l-77 148l-77 -148l-72 53l117 117l-164 28l28 85l149 -75l-26 165h90z" />
    <glyph glyph-name="plus" unicode="+" horiz-adv-x="446" 
d="M184 311h-134v78h134v135h78v-135h134v-78h-134v-137h-78v137z" />
    <glyph glyph-name="comma" unicode="," horiz-adv-x="166" 
d="M72 0h-42v106h106v-95l-48 -111h-45z" />
    <glyph glyph-name="hyphen" unicode="-" horiz-adv-x="260" 
d="M230 400v-100h-200v100h200z" />
    <glyph glyph-name="period" unicode="." horiz-adv-x="166" 
d="M30 106h106v-106h-106v106z" />
    <glyph glyph-name="slash" unicode="/" horiz-adv-x="431" 
d="M306 700h95l-276 -700h-95z" />
    <glyph glyph-name="zero" unicode="0" horiz-adv-x="414" 
d="M83 38q-43 46 -43 130v364q0 84 43 130t124 46t124 -46t43 -130v-364q0 -84 -43 -130t-124 -46t-124 46zM264 161v378q0 69 -57 69t-57 -69v-378q0 -69 57 -69t57 69z" />
    <glyph glyph-name="one" unicode="1" horiz-adv-x="283" 
d="M103 534h-85v78q40 0 63.5 11.5t35 29.5t22.5 47h74v-700h-110v534z" />
    <glyph glyph-name="two" unicode="2" horiz-adv-x="408" 
d="M40 86q0 49 15 87.5t37 67.5t58 68q37 41 58 68.5t35.5 65.5t14.5 85q0 45 -14.5 62.5t-42.5 17.5q-57 0 -57 -69v-75h-104v68q0 85 42 130.5t122 45.5t122 -45.5t42 -130.5q0 -59 -18 -107t-43.5 -82t-66.5 -79q-46 -51 -68 -86t-22 -78h208v-100h-318v86z" />
    <glyph glyph-name="three" unicode="3" horiz-adv-x="408" 
d="M82 37.5q-42 45.5 -42 130.5v58h104v-65q0 -69 57 -69q28 0 42.5 17.5t14.5 61.5v55q0 48 -17 68.5t-55 20.5h-37v100h43q33 0 49.5 17t16.5 57v39q0 45 -14.5 62.5t-42.5 17.5q-57 0 -57 -69v-45h-104v38q0 85 42 130.5t122 45.5t122 -45.5t42 -130.5v-18
q0 -57 -19 -92.5t-58 -51.5q77 -34 77 -147v-55q0 -85 -42 -130.5t-122 -45.5t-122 45.5z" />
    <glyph glyph-name="four" unicode="4" horiz-adv-x="452" 
d="M252 127h-212v100l200 473h120v-473h52v-100h-52v-127h-108v127zM252 227v263l-111 -263h111z" />
    <glyph glyph-name="five" unicode="5" horiz-adv-x="408" 
d="M82 37.5q-42 45.5 -42 130.5v58h104v-65q0 -68 57 -68t57 68v154q0 69 -57 69t-57 -69v-21h-104l20 406h290v-100h-191l-9 -167q31 51 96 51q60 0 91 -41t31 -119v-156q0 -85 -42 -130.5t-122 -45.5t-122 45.5z" />
    <glyph glyph-name="six" unicode="6" horiz-adv-x="414" 
d="M83 38q-43 46 -43 130v358q0 182 168 182q80 0 122 -45.5t42 -130.5v-18h-104v25q0 69 -57 69q-31 0 -46 -19t-15 -67v-128q29 62 102 62q60 0 91 -41t31 -119v-128q0 -84 -43 -130t-124 -46t-124 46zM264 161v126q0 69 -57 69t-57 -69v-126q0 -68 57 -68t57 68z" />
    <glyph glyph-name="seven" unicode="7" horiz-adv-x="363" 
d="M232 600h-219v100h330v-96l-162 -604h-110z" />
    <glyph glyph-name="eight" unicode="8" horiz-adv-x="424" 
d="M84.5 38q-44.5 46 -44.5 130v55q0 108 68 146q-68 37 -68 141v22q0 84 44.5 130t127.5 46t127.5 -46t44.5 -130v-22q0 -103 -68 -141q68 -38 68 -146v-55q0 -84 -44.5 -130t-127.5 -46t-127.5 46zM274 489v39q0 44 -16.5 62t-45.5 18t-45.5 -18t-16.5 -62v-39
q0 -74 62 -74t62 74zM257 109.5q16 17.5 17 61.5v65q0 79 -62 79t-62 -79v-65q0 -43 16.5 -61t45.5 -18t45 17.5z" />
    <glyph glyph-name="nine" unicode="9" horiz-adv-x="414" 
d="M84 37.5q-42 45.5 -42 130.5v18h104v-25q0 -69 57 -69q31 0 46 19t15 67v128q-29 -62 -102 -62q-60 0 -91 41t-31 119v128q0 84 43 130t124 46t124 -46t43 -130v-358q0 -182 -168 -182q-80 0 -122 45.5zM264 413v126q0 68 -57 68t-57 -68v-126q0 -69 57 -69t57 69z" />
    <glyph glyph-name="colon" unicode=":" horiz-adv-x="166" 
d="M30 487h106v-106h-106v106zM30 106h106v-106h-106v106z" />
    <glyph glyph-name="semicolon" unicode=";" horiz-adv-x="166" 
d="M30 487h106v-106h-106v106zM72 0h-42v106h106v-95l-48 -111h-45z" />
    <glyph glyph-name="less" unicode="&#x3c;" horiz-adv-x="426" 
d="M50 311v78l326 120v-79l-224 -80l224 -80v-79z" />
    <glyph glyph-name="equal" unicode="=" horiz-adv-x="426" 
d="M50 470h326v-78h-326v78zM50 308h326v-78h-326v78z" />
    <glyph glyph-name="greater" unicode="&#x3e;" horiz-adv-x="426" 
d="M50 270l224 80l-224 80v79l326 -120v-78l-326 -120v79z" />
    <glyph glyph-name="question" unicode="?" horiz-adv-x="384" 
d="M124 198q0 50 14.5 83.5t42.5 74.5q31 47 47 85t16 98q0 36 -14 52.5t-41 16.5t-41 -16.5t-14 -52.5v-76h-104v69q0 85 41 130.5t121 45.5t121 -45.5t41 -130.5q0 -66 -19 -109t-55 -92q-29 -40 -42.5 -69t-13.5 -68q0 -22 4 -39h-98q-6 18 -6 43zM125 106h106v-106h-106
v106z" />
    <glyph glyph-name="at" unicode="@" horiz-adv-x="747" 
d="M129 33.5q-79 93.5 -79 256.5q0 127 41.5 229t125 161.5t202.5 59.5q148 0 213 -80t65 -214q0 -114 -31 -185.5t-75.5 -102.5t-88.5 -31q-82 0 -88 66q-29 -60 -91 -60q-49 0 -73.5 30.5t-24.5 89.5q0 10 2 34l11 101q8 72 37.5 110t78.5 38q67 0 88 -62l6 58h96
l-30 -289v-6q0 -19 20 -19q39 0 59.5 69.5t20.5 156.5q0 98 -49 154.5t-150 56.5q-132 0 -201.5 -98t-69.5 -272q0 -124 58.5 -192.5t174.5 -68.5q60 0 108.5 15t98.5 53l-8 -96q-47 -31 -96 -43.5t-109 -12.5q-163 0 -242 93.5zM423 289l10 95q3 29 -10 42.5t-36 13.5
q-47 0 -54 -63l-9 -85q-1 -5 -1 -15q0 -51 46 -51q47 0 54 63z" />
    <glyph glyph-name="A" unicode="A" horiz-adv-x="396" 
d="M255 190h-114l-30 -190l-101 2l138 718h100l138 -718l-101 -2zM241 280l-39 245q-3 15 -3 54h-2q0 -39 -3 -54l-39 -245h86z" />
    <glyph glyph-name="B" unicode="B" horiz-adv-x="372" 
d="M50 710h139q38 0 70 -18.5t50.5 -50.5t18.5 -70v-102q0 -40 -15 -65.5t-41 -37.5v-2q26 -12 43 -38t17 -65v-122q0 -38 -19.5 -70t-52.5 -50.5t-71 -18.5h-139v710zM189 410q18 0 30.5 12.5t12.5 30.5v124q0 18 -12.5 30.5t-30.5 12.5h-43v-210h43zM189 90
q18 0 32.5 12.5t14.5 30.5v144q0 18 -13.5 30.5t-31.5 12.5h-45v-230h43z" />
    <glyph glyph-name="C" unicode="C" horiz-adv-x="359" 
d="M109 8.5q-32 18.5 -50.5 50.5t-18.5 70v452q0 38 18.5 70t50.5 50.5t70 18.5t70 -18.5t50.5 -50.5t18.5 -70v-91h-96v97q0 18 -12.5 30.5t-30.5 12.5t-30.5 -12.5t-12.5 -30.5v-464q0 -18 12.5 -30.5t30.5 -12.5t30.5 12.5t12.5 30.5v117h96v-111q0 -38 -18.5 -70
t-50.5 -50.5t-70 -18.5t-70 18.5z" />
    <glyph glyph-name="D" unicode="D" horiz-adv-x="368" 
d="M50 710h139q38 0 70 -18.5t50.5 -50.5t18.5 -70v-432q0 -38 -18.5 -70t-50.5 -50.5t-70 -18.5h-139v710zM189 90q18 0 30.5 12.5t12.5 30.5v444q0 18 -12.5 30.5t-30.5 12.5h-43v-530h43z" />
    <glyph glyph-name="E" unicode="E" horiz-adv-x="338" 
d="M50 710h258v-90h-162v-210h122v-90h-122v-230h162v-90h-258v710z" />
    <glyph glyph-name="F" unicode="F" horiz-adv-x="338" 
d="M50 710h258v-90h-162v-210h122v-90h-122v-320h-96v710z" />
    <glyph glyph-name="G" unicode="G" 
d="M40 581q0 38 18.5 70t50.5 50.5t70 18.5t70 -18.5t50.5 -50.5t18.5 -70v-91h-96v97q0 18 -12.5 30.5t-30.5 12.5t-30.5 -12.5t-12.5 -30.5v-464q0 -18 12.5 -30.5t30.5 -12.5t30.5 12.5t12.5 30.5v157h-39v90h135v-241q0 -38 -18.5 -70t-50.5 -50.5t-70 -18.5t-70 18.5
t-50.5 50.5t-18.5 70v452z" />
    <glyph glyph-name="H" unicode="H" horiz-adv-x="376" 
d="M50 710h96v-300h84v300h96v-710h-96v320h-84v-320h-96v710z" />
    <glyph glyph-name="I" unicode="I" horiz-adv-x="216" 
d="M60 710h96v-710h-96v710z" />
    <glyph glyph-name="J" unicode="J" horiz-adv-x="348" 
d="M99 8.5q-32 18.5 -50.5 50.5t-18.5 70v111h96v-117q0 -18 12.5 -30.5t30.5 -12.5t30.5 12.5t12.5 30.5v587h96v-581q0 -38 -18.5 -70t-50.5 -50.5t-70 -18.5t-70 18.5z" />
    <glyph glyph-name="K" unicode="K" horiz-adv-x="398" 
d="M50 710h96v-268h2q0 15 2.5 25t8.5 23l109 220h110l-163 -311l173 -399h-110l-121 292l-11 -26v-266h-96v710z" />
    <glyph glyph-name="L" unicode="L" horiz-adv-x="328" 
d="M50 710h96v-620h162v-90h-258v710z" />
    <glyph glyph-name="M" unicode="M" horiz-adv-x="562" 
d="M50 710h125l96 -407q4 -18 7.5 -63.5t3.5 -76.5h2q0 31 3.5 76.5t7.5 63.5l93 407h128v-710h-91v473q0 42 11 101l-2 1l-17 -77l-109 -498h-50l-109 498l-17 77l-2 -1q11 -59 11 -101v-473h-91v710z" />
    <glyph glyph-name="N" unicode="N" horiz-adv-x="426" 
d="M50 710h96l124 -409q6 -22 11.5 -51.5t6.5 -37.5l6 -37h2q-11 74 -11 164v371h91v-710h-96l-124 409q-8 34 -16 84l-8 42h-2q11 -74 11 -164v-371h-91v710z" />
    <glyph glyph-name="O" unicode="O" 
d="M40 581q0 38 18.5 70t50.5 50.5t70 18.5t70 -18.5t50.5 -50.5t18.5 -70v-452q0 -38 -18.5 -70t-50.5 -50.5t-70 -18.5t-70 18.5t-50.5 50.5t-18.5 70v452zM148.5 92.5q12.5 -12.5 30.5 -12.5t30.5 12.5t12.5 30.5v464q0 18 -12.5 30.5t-30.5 12.5t-30.5 -12.5
t-12.5 -30.5v-464q0 -18 12.5 -30.5z" />
    <glyph glyph-name="P" unicode="P" 
d="M50 710h139q38 0 70 -18.5t50.5 -50.5t18.5 -70v-123q0 -38 -18.5 -70t-50.5 -50.5t-70 -18.5h-43v-309h-96v710zM189 399q18 0 30.5 12.5t12.5 30.5v135q0 18 -12.5 30.5t-30.5 12.5h-43v-221h43z" />
    <glyph glyph-name="Q" unicode="Q" horiz-adv-x="372" 
d="M80 36q-40 36 -40 93v452q0 38 18.5 70t50.5 50.5t70 18.5t70 -18.5t50.5 -50.5t18.5 -70v-452q0 -17 -7 -33t-21 -26q8 4 13 10h49v-80h-173q-59 0 -99 36zM209.5 92.5q12.5 12.5 12.5 30.5v464q0 18 -12.5 30.5t-30.5 12.5t-30.5 -12.5t-12.5 -30.5v-464
q0 -18 12.5 -30.5t30.5 -12.5t30.5 12.5z" />
    <glyph glyph-name="R" unicode="R" horiz-adv-x="378" 
d="M50 710h139q38 0 70 -18.5t50.5 -50.5t18.5 -70v-102q0 -40 -15 -65.5t-41 -37.5v-2q25 -12 40.5 -38t15.5 -65v-212q0 -30 10 -49h-96q-10 11 -10 49v228q0 18 -12.5 30.5t-30.5 12.5h-43v-320h-96v710zM189 410q18 0 30.5 12.5t12.5 30.5v124q0 18 -12.5 30.5
t-30.5 12.5h-43v-210h43z" />
    <glyph glyph-name="S" unicode="S" horiz-adv-x="338" 
d="M30 240h96v-117q0 -18 12.5 -30.5t30.5 -12.5t30.5 12.5t12.5 30.5v104q0 30 -20.5 57t-62.5 67q-49 46 -74 80.5t-25 77.5v72q0 38 18.5 70t50.5 50.5t70 18.5t70 -18.5t50.5 -50.5t18.5 -70v-91h-96v97q0 18 -12.5 30.5t-30.5 12.5t-30.5 -12.5t-12.5 -30.5v-74
q0 -30 20.5 -57t62.5 -67q49 -46 74 -80.5t25 -77.5v-102q0 -38 -18.5 -70t-50.5 -50.5t-70 -18.5t-70 18.5t-50.5 50.5t-18.5 70v111z" />
    <glyph glyph-name="T" unicode="T" horiz-adv-x="338" 
d="M20 710h298v-90h-101v-620h-96v620h-101v90z" />
    <glyph glyph-name="U" unicode="U" 
d="M109 8.5q-32 18.5 -50.5 50.5t-18.5 70v581h96v-587q0 -18 12.5 -30.5t30.5 -12.5t30.5 12.5t12.5 30.5v587h96v-581q0 -38 -18.5 -70t-50.5 -50.5t-70 -18.5t-70 18.5z" />
    <glyph glyph-name="V" unicode="V" horiz-adv-x="392" 
d="M111 710l81 -466q3 -15 3 -54h2q0 39 3 54l81 466h101l-136 -710h-100l-136 710h101z" />
    <glyph glyph-name="W" unicode="W" horiz-adv-x="565" 
d="M10 710h101l53 -420q9 -67 9 -130h2q0 65 9 130l59 420h79l60 -420q8 -56 8 -130h2q0 51 9 130l53 420h101l-116 -710h-87l-63 402q-5 34 -5 150h-2q0 -40 -1.5 -85.5t-4.5 -64.5l-63 -402h-87z" />
    <glyph glyph-name="X" unicode="X" horiz-adv-x="370" 
d="M134 355l-124 355h90l79 -228q2 -8 3.5 -22t1.5 -28h2q0 14 1.5 28t3.5 22l79 228h90l-124 -355l124 -355h-90l-79 229q-2 8 -3.5 21t-1.5 26h-2q0 -13 -1.5 -26t-3.5 -21l-79 -229h-90z" />
    <glyph glyph-name="Y" unicode="Y" horiz-adv-x="370" 
d="M100 710l78 -230q2 -6 4 -22t2 -29h2q0 13 2 29t4 22l78 230h90l-127 -369v-341h-96v341l-127 369h90z" />
    <glyph glyph-name="Z" unicode="Z" horiz-adv-x="313" 
d="M20 94l178 532h-178v84h273v-88l-179 -532h179v-90h-273v94z" />
    <glyph glyph-name="bracketleft" unicode="[" horiz-adv-x="242" 
d="M30 700h182v-90h-72v-520h72v-90h-182v700z" />
    <glyph glyph-name="backslash" unicode="\" horiz-adv-x="431" 
d="M30 700h95l276 -700h-95z" />
    <glyph glyph-name="bracketright" unicode="]" horiz-adv-x="242" 
d="M30 90h72v520h-72v90h182v-700h-182v90z" />
    <glyph glyph-name="asciicircum" unicode="^" horiz-adv-x="456" 
d="M189 700h78l139 -310h-88l-90 210l-90 -210h-88z" />
    <glyph glyph-name="underscore" unicode="_" horiz-adv-x="560" 
d="M30 -10h500v-80h-500v80z" />
    <glyph glyph-name="a" unicode="a" horiz-adv-x="396" 
d="M255 190h-114l-30 -190l-101 2l138 718h100l138 -718l-101 -2zM241 280l-39 245q-3 15 -3 54h-2q0 -39 -3 -54l-39 -245h86z" />
    <glyph glyph-name="b" unicode="b" horiz-adv-x="372" 
d="M50 710h139q38 0 70 -18.5t50.5 -50.5t18.5 -70v-102q0 -40 -15 -65.5t-41 -37.5v-2q26 -12 43 -38t17 -65v-122q0 -38 -19.5 -70t-52.5 -50.5t-71 -18.5h-139v710zM189 410q18 0 30.5 12.5t12.5 30.5v124q0 18 -12.5 30.5t-30.5 12.5h-43v-210h43zM189 90
q18 0 32.5 12.5t14.5 30.5v144q0 18 -13.5 30.5t-31.5 12.5h-45v-230h43z" />
    <glyph glyph-name="c" unicode="c" horiz-adv-x="359" 
d="M109 8.5q-32 18.5 -50.5 50.5t-18.5 70v452q0 38 18.5 70t50.5 50.5t70 18.5t70 -18.5t50.5 -50.5t18.5 -70v-91h-96v97q0 18 -12.5 30.5t-30.5 12.5t-30.5 -12.5t-12.5 -30.5v-464q0 -18 12.5 -30.5t30.5 -12.5t30.5 12.5t12.5 30.5v117h96v-111q0 -38 -18.5 -70
t-50.5 -50.5t-70 -18.5t-70 18.5z" />
    <glyph glyph-name="d" unicode="d" horiz-adv-x="368" 
d="M50 710h139q38 0 70 -18.5t50.5 -50.5t18.5 -70v-432q0 -38 -18.5 -70t-50.5 -50.5t-70 -18.5h-139v710zM189 90q18 0 30.5 12.5t12.5 30.5v444q0 18 -12.5 30.5t-30.5 12.5h-43v-530h43z" />
    <glyph glyph-name="e" unicode="e" horiz-adv-x="338" 
d="M50 710h258v-90h-162v-210h122v-90h-122v-230h162v-90h-258v710z" />
    <glyph glyph-name="f" unicode="f" horiz-adv-x="338" 
d="M50 710h258v-90h-162v-210h122v-90h-122v-320h-96v710z" />
    <glyph glyph-name="g" unicode="g" 
d="M40 581q0 38 18.5 70t50.5 50.5t70 18.5t70 -18.5t50.5 -50.5t18.5 -70v-91h-96v97q0 18 -12.5 30.5t-30.5 12.5t-30.5 -12.5t-12.5 -30.5v-464q0 -18 12.5 -30.5t30.5 -12.5t30.5 12.5t12.5 30.5v157h-39v90h135v-241q0 -38 -18.5 -70t-50.5 -50.5t-70 -18.5t-70 18.5
t-50.5 50.5t-18.5 70v452z" />
    <glyph glyph-name="h" unicode="h" horiz-adv-x="376" 
d="M50 710h96v-300h84v300h96v-710h-96v320h-84v-320h-96v710z" />
    <glyph glyph-name="i" unicode="i" horiz-adv-x="216" 
d="M60 710h96v-710h-96v710z" />
    <glyph glyph-name="j" unicode="j" horiz-adv-x="348" 
d="M99 8.5q-32 18.5 -50.5 50.5t-18.5 70v111h96v-117q0 -18 12.5 -30.5t30.5 -12.5t30.5 12.5t12.5 30.5v587h96v-581q0 -38 -18.5 -70t-50.5 -50.5t-70 -18.5t-70 18.5z" />
    <glyph glyph-name="k" unicode="k" horiz-adv-x="398" 
d="M50 710h96v-268h2q0 15 2.5 25t8.5 23l109 220h110l-163 -311l173 -399h-110l-121 292l-11 -26v-266h-96v710z" />
    <glyph glyph-name="l" unicode="l" horiz-adv-x="328" 
d="M50 710h96v-620h162v-90h-258v710z" />
    <glyph glyph-name="m" unicode="m" horiz-adv-x="566" 
d="M50 710h125l96 -407q4 -18 7.5 -63.5t3.5 -76.5h2q0 31 3.5 76.5t7.5 63.5l93 407h128v-710h-91v473q0 42 11 101l-2 1l-17 -77l-109 -498h-50l-109 498l-17 77l-2 -1q11 -59 11 -101v-473h-91v710z" />
    <glyph glyph-name="n" unicode="n" horiz-adv-x="426" 
d="M50 710h96l124 -409q6 -22 11.5 -51.5t6.5 -37.5l6 -37h2q-11 74 -11 164v371h91v-710h-96l-124 409q-8 34 -16 84l-8 42h-2q11 -74 11 -164v-371h-91v710z" />
    <glyph glyph-name="o" unicode="o" 
d="M40 581q0 38 18.5 70t50.5 50.5t70 18.5t70 -18.5t50.5 -50.5t18.5 -70v-452q0 -38 -18.5 -70t-50.5 -50.5t-70 -18.5t-70 18.5t-50.5 50.5t-18.5 70v452zM148.5 92.5q12.5 -12.5 30.5 -12.5t30.5 12.5t12.5 30.5v464q0 18 -12.5 30.5t-30.5 12.5t-30.5 -12.5
t-12.5 -30.5v-464q0 -18 12.5 -30.5z" />
    <glyph glyph-name="p" unicode="p" 
d="M50 710h139q38 0 70 -18.5t50.5 -50.5t18.5 -70v-123q0 -38 -18.5 -70t-50.5 -50.5t-70 -18.5h-43v-309h-96v710zM189 399q18 0 30.5 12.5t12.5 30.5v135q0 18 -12.5 30.5t-30.5 12.5h-43v-221h43z" />
    <glyph glyph-name="q" unicode="q" horiz-adv-x="372" 
d="M80 36q-40 36 -40 93v452q0 38 18.5 70t50.5 50.5t70 18.5t70 -18.5t50.5 -50.5t18.5 -70v-452q0 -17 -7 -33t-21 -26q8 4 13 10h49v-80h-173q-59 0 -99 36zM209.5 92.5q12.5 12.5 12.5 30.5v464q0 18 -12.5 30.5t-30.5 12.5t-30.5 -12.5t-12.5 -30.5v-464
q0 -18 12.5 -30.5t30.5 -12.5t30.5 12.5z" />
    <glyph glyph-name="r" unicode="r" horiz-adv-x="378" 
d="M50 710h139q38 0 70 -18.5t50.5 -50.5t18.5 -70v-102q0 -40 -15 -65.5t-41 -37.5v-2q25 -12 40.5 -38t15.5 -65v-212q0 -30 10 -49h-96q-10 11 -10 49v228q0 18 -12.5 30.5t-30.5 12.5h-43v-320h-96v710zM189 410q18 0 30.5 12.5t12.5 30.5v124q0 18 -12.5 30.5
t-30.5 12.5h-43v-210h43z" />
    <glyph glyph-name="s" unicode="s" horiz-adv-x="338" 
d="M30 240h96v-117q0 -18 12.5 -30.5t30.5 -12.5t30.5 12.5t12.5 30.5v104q0 30 -20.5 57t-62.5 67q-49 46 -74 80.5t-25 77.5v72q0 38 18.5 70t50.5 50.5t70 18.5t70 -18.5t50.5 -50.5t18.5 -70v-91h-96v97q0 18 -12.5 30.5t-30.5 12.5t-30.5 -12.5t-12.5 -30.5v-74
q0 -30 20.5 -57t62.5 -67q49 -46 74 -80.5t25 -77.5v-102q0 -38 -18.5 -70t-50.5 -50.5t-70 -18.5t-70 18.5t-50.5 50.5t-18.5 70v111z" />
    <glyph glyph-name="t" unicode="t" horiz-adv-x="338" 
d="M20 710h298v-90h-101v-620h-96v620h-101v90z" />
    <glyph glyph-name="u" unicode="u" 
d="M109 8.5q-32 18.5 -50.5 50.5t-18.5 70v581h96v-587q0 -18 12.5 -30.5t30.5 -12.5t30.5 12.5t12.5 30.5v587h96v-581q0 -38 -18.5 -70t-50.5 -50.5t-70 -18.5t-70 18.5z" />
    <glyph glyph-name="v" unicode="v" horiz-adv-x="392" 
d="M111 710l81 -466q3 -15 3 -54h2q0 39 3 54l81 466h101l-136 -710h-100l-136 710h101z" />
    <glyph glyph-name="w" unicode="w" horiz-adv-x="565" 
d="M10 710h101l53 -420q9 -67 9 -130h2q0 65 9 130l59 420h79l60 -420q8 -56 8 -130h2q0 51 9 130l53 420h101l-116 -710h-87l-63 402q-5 34 -5 150h-2q0 -40 -1.5 -85.5t-4.5 -64.5l-63 -402h-87z" />
    <glyph glyph-name="x" unicode="x" horiz-adv-x="370" 
d="M134 355l-124 355h90l79 -228q2 -8 3.5 -22t1.5 -28h2q0 14 1.5 28t3.5 22l79 228h90l-124 -355l124 -355h-90l-79 229q-2 8 -3.5 21t-1.5 26h-2q0 -13 -1.5 -26t-3.5 -21l-79 -229h-90z" />
    <glyph glyph-name="y" unicode="y" horiz-adv-x="370" 
d="M100 710l78 -230q2 -6 4 -22t2 -29h2q0 13 2 29t4 22l78 230h90l-127 -369v-341h-96v341l-127 369h90z" />
    <glyph glyph-name="z" unicode="z" horiz-adv-x="313" 
d="M20 94l178 532h-178v84h273v-88l-179 -532h179v-90h-273v94z" />
    <glyph glyph-name="braceleft" unicode="{" horiz-adv-x="290" 
d="M126.5 28q-29.5 28 -33.5 83l-8 134q-2 35 -13 47.5t-42 12.5v90q31 0 42 12.5t13 47.5l8 134q4 55 33.5 83t77.5 28h56v-90h-16q-27 0 -39 -15.5t-14 -55.5l-5 -100q-2 -33 -16 -56.5t-49 -32.5q35 -9 49 -32.5t16 -56.5l5 -100q2 -40 14 -55.5t39 -15.5h16v-90h-56
q-48 0 -77.5 28z" />
    <glyph glyph-name="bar" unicode="|" horiz-adv-x="190" 
d="M50 765h90v-830h-90v830z" />
    <glyph glyph-name="braceright" unicode="}" horiz-adv-x="290" 
d="M30 90h16q27 0 39 15.5t14 55.5l5 100q2 33 16 56.5t49 32.5q-35 9 -49 32.5t-16 56.5l-5 100q-2 40 -14 55.5t-39 15.5h-16v90h56q48 0 77.5 -28t33.5 -83l8 -134q2 -35 13 -47.5t42 -12.5v-90q-31 0 -42 -12.5t-13 -47.5l-8 -134q-4 -55 -33.5 -83t-77.5 -28h-56v90z
" />
    <glyph glyph-name="asciitilde" unicode="~" horiz-adv-x="480" 
d="M274.5 286q-17.5 8 -43.5 25q-22 14 -36 21t-27 7q-17 0 -29.5 -11.5t-36.5 -45.5l-52 50q34 51 61.5 70.5t57.5 19.5q19 0 36.5 -8t43.5 -25q22 -14 36 -21t27 -7q16 0 28.5 11.5t37.5 45.5l52 -54q-34 -50 -61 -68t-58 -18q-19 0 -36.5 8z" />
    <glyph glyph-name="exclamdown" unicode="&#xa1;" horiz-adv-x="170" 
d="M32 700h106v-106h-106v106zM30 292l14 253h82l14 -253v-292h-110v292z" />
    <glyph glyph-name="currency" unicode="&#xa4;" horiz-adv-x="432" 
d="M50 227l55 55q-18 30 -18 68q0 39 18 67l-55 56l43 43l56 -56q30 19 67 19q35 0 67 -19l56 56l43 -43l-56 -56q19 -32 19 -67q0 -37 -19 -67l56 -56l-43 -43l-56 55q-28 -18 -67 -18q-38 0 -68 18l-55 -55zM261 305q19 19 19 45t-19 45t-45 19t-45 -19t-19 -45t19 -45
t45 -19t45 19z" />
    <glyph glyph-name="section" unicode="&#xa7;" horiz-adv-x="425" 
d="M93 -36q-42 37 -42 99v50h104v-35q0 -27 14.5 -43.5t40.5 -16.5t40.5 14.5t14.5 41.5q0 22 -18 36t-58 32q-43 19 -71 37.5t-48 51.5t-20 83q0 39 17.5 71t51.5 51q-32 21 -50.5 51.5t-18.5 78.5q0 63 42 102.5t120 39.5t120 -37t42 -99v-36h-104v21q0 27 -14.5 43.5
t-40.5 16.5t-40.5 -14.5t-14.5 -41.5q0 -22 18 -36t58 -32q43 -19 71 -37.5t48 -51.5t20 -83q0 -39 -18 -71.5t-52 -51.5q33 -20 51.5 -50.5t18.5 -78.5q0 -63 -42 -102.5t-120 -39.5t-120 37zM255 266.5q15 21.5 15 50.5q0 27 -16 44t-46 32q-24 -4 -38.5 -25t-14.5 -50
q0 -28 15.5 -45t45.5 -32q24 4 39 25.5z" />
    <glyph glyph-name="copyright" unicode="&#xa9;" horiz-adv-x="796" 
d="M220.5 38q-79.5 46 -125 128t-45.5 184t45.5 184t125 128t177.5 46t177.5 -46t125 -128t45.5 -184t-45.5 -184t-125 -128t-177.5 -46t-177.5 46zM539 99q63 37 99 103t36 148t-36 148t-99 103t-141 37t-141 -37t-99 -103t-36 -148t36 -148t99 -103t141 -37t141 37z
M309.5 161.5q-28.5 31.5 -28.5 90.5v194q0 60 28.5 92t84.5 32t84.5 -32t28.5 -92v-36h-72v42q0 48 -39 48t-39 -48v-204q0 -47 39 -47t39 47v60h72v-56q0 -59 -28.5 -90.5t-84.5 -31.5t-84.5 31.5z" />
    <glyph glyph-name="guillemotleft" unicode="&#xab;" horiz-adv-x="383" 
d="M30 351l62 257h99l-61 -257l61 -273h-99zM192 351l62 257h99l-61 -257l61 -273h-99z" />
    <glyph glyph-name="uni00AD" unicode="&#xad;" horiz-adv-x="260" 
d="M230 400v-100h-200v100h200z" />
    <glyph glyph-name="registered" unicode="&#xae;" horiz-adv-x="796" 
d="M220.5 38q-79.5 46 -125 128t-45.5 184t45.5 184t125 128t177.5 46t177.5 -46t125 -128t45.5 -184t-45.5 -184t-125 -128t-177.5 -46t-177.5 46zM539 99q63 37 99 103t36 148t-36 148t-99 103t-141 37t-141 -37t-99 -103t-36 -148t36 -148t99 -103t141 -37t141 37z
M288 564h116q58 0 85.5 -27.5t27.5 -84.5v-9q0 -39 -12.5 -63t-39.5 -36q28 -12 40 -37.5t12 -65.5v-46q0 -39 9 -59h-78q-4 11 -5.5 21.5t-1.5 38.5v46q0 34 -12 48t-39 14h-26v-168h-76v428zM395 374q22 0 34 11.5t12 39.5v18q0 26 -9.5 38.5t-31.5 12.5h-36v-120h31z" />
    <glyph glyph-name="degree" unicode="&#xb0;" horiz-adv-x="298" 
d="M79 539q-29 29 -29 70t29 70t70 29t70 -29t29 -70t-29 -70t-70 -29t-70 29zM183.5 574.5q14.5 14.5 14.5 34.5t-14.5 34.5t-34.5 14.5t-34.5 -14.5t-14.5 -34.5t14.5 -34.5t34.5 -14.5t34.5 14.5z" />
    <glyph glyph-name="periodcentered" unicode="&#xb7;" horiz-adv-x="166" 
d="M30 403h106v-106h-106v106z" />
    <glyph glyph-name="guillemotright" unicode="&#xbb;" horiz-adv-x="383" 
d="M91 351l-61 257h99l62 -257l-62 -273h-99zM253 351l-61 257h99l62 -257l-62 -273h-99z" />
    <glyph glyph-name="questiondown" unicode="&#xbf;" horiz-adv-x="384" 
d="M153 700h106v-106h-106v106zM71 37.5q-41 45.5 -41 130.5q0 66 19 109t55 92q29 40 42.5 69t13.5 68q0 22 -4 39h98q6 -18 6 -43q0 -50 -14.5 -83.5t-42.5 -74.5q-31 -47 -47 -85t-16 -98q0 -36 14 -52.5t41 -16.5t41 16.5t14 52.5v76h104v-69q0 -85 -41 -130.5
t-121 -45.5t-121 45.5z" />
    <glyph glyph-name="multiply" unicode="&#xd7;" horiz-adv-x="419" 
d="M50 244l106 106l-105 105l53 53l106 -105l106 106l53 -53l-106 -106l106 -106l-53 -53l-106 106l-107 -106z" />
    <glyph glyph-name="divide" unicode="&#xf7;" horiz-adv-x="446" 
d="M170 555h106v-106h-106v106zM50 389h346v-78h-346v78zM170 250h106v-106h-106v106z" />
    <glyph glyph-name="uni0401" unicode="&#x401;" 
d="M84 830h70v-70h-70v70zM214 830h70v-70h-70v70zM50 710h258v-90h-162v-210h122v-90h-122v-230h162v-90h-258v710z" />
    <glyph glyph-name="uni0410" unicode="&#x410;" horiz-adv-x="476" 
d="M295 190h-114l-30 -190l-101 2l138 718h100l138 -718l-101 -2zM281 280l-39 245q-3 15 -3 54h-2q0 -39 -3 -54l-39 -245h86z" />
    <glyph glyph-name="uni0411" unicode="&#x411;" horiz-adv-x="382" 
d="M50 710h242v-90h-146v-210h43q38 0 71 -18.5t52.5 -50.5t19.5 -70v-132q0 -38 -19.5 -70t-52.5 -50.5t-71 -18.5h-139v710zM189 90q18 0 32.5 12.5t14.5 30.5v144q0 18 -13.5 30.5t-31.5 12.5h-45v-230h43z" />
    <glyph glyph-name="uni0412" unicode="&#x412;" horiz-adv-x="382" 
d="M50 710h139q38 0 70 -18.5t50.5 -50.5t18.5 -70v-102q0 -40 -15 -65.5t-41 -37.5v-2q26 -12 43 -38t17 -65v-122q0 -38 -19.5 -70t-52.5 -50.5t-71 -18.5h-139v710zM189 410q18 0 30.5 12.5t12.5 30.5v124q0 18 -12.5 30.5t-30.5 12.5h-43v-210h43zM189 90
q18 0 32.5 12.5t14.5 30.5v144q0 18 -13.5 30.5t-31.5 12.5h-45v-230h43z" />
    <glyph glyph-name="uni0413" unicode="&#x413;" 
d="M50 710h258v-90h-162v-620h-96v710z" />
    <glyph glyph-name="uni0414" unicode="&#x414;" horiz-adv-x="498" 
d="M0 90h17q38 0 52.5 16.5t15.5 64.5l16 539h287v-620h60v-190h-96v100h-256v-100h-96v190zM292 90v530h-96l-12 -443q-2 -55 -11 -87h119z" />
    <glyph glyph-name="uni0415" unicode="&#x415;" 
d="M50 710h258v-90h-162v-210h122v-90h-122v-230h162v-90h-258v710z" />
    <glyph glyph-name="uni0416" unicode="&#x416;" horiz-adv-x="600" 
d="M358 320h-10v-320h-96v320h-10l-154 -320h-109l185 364v2l-167 344h106l138 -300h11v300h96v-300h11l138 300h106l-167 -344v-2l185 -364h-109z" />
    <glyph glyph-name="uni0417" unicode="&#x417;" horiz-adv-x="378" 
d="M50 240h96v-117q0 -18 12.5 -30.5t30.5 -12.5t30.5 12.5t12.5 30.5v154q0 18 -13.5 30.5t-31.5 12.5h-37v90h35q18 0 30.5 12.5t12.5 30.5v134q0 18 -11.5 30.5t-29.5 12.5t-29.5 -12.5t-11.5 -30.5v-97h-96v91q0 38 18 70t49.5 50.5t69.5 18.5t69.5 -18.5t49.5 -50.5
t18 -70v-112q0 -40 -15 -65.5t-41 -37.5v-2q26 -12 43 -38t17 -65v-132q0 -38 -18.5 -70t-50.5 -50.5t-70 -18.5t-70 18.5t-50.5 50.5t-18.5 70v111z" />
    <glyph glyph-name="uni0418" unicode="&#x418;" horiz-adv-x="446" 
d="M300 0v431l5 39h-2q0 -6 -3.5 -22.5t-5.5 -25.5l-148 -422h-96v710h96v-444l-10 -55h2q0 5 5 27t9 34l148 438h96v-710h-96z" />
    <glyph glyph-name="uni0419" unicode="&#x419;" horiz-adv-x="446" 
d="M141.5 774q-28.5 29 -30.5 82h68q2 -27 13 -36.5t34 -9.5q24 0 36 10t14 36h67q0 -52 -30 -81.5t-87 -29.5q-56 0 -84.5 29zM50 710h96v-444l-10 -55h2q0 5 5 27t9 34l148 438h96v-710h-96v431l5 39h-2q0 -6 -3.5 -22.5t-5.5 -25.5l-148 -422h-96v710z" />
    <glyph glyph-name="uni041A" unicode="&#x41a;" horiz-adv-x="438" 
d="M50 710h96v-268h2q0 15 2.5 25t8.5 23l109 220h110l-163 -311l173 -399h-110l-121 292l-11 -26v-266h-96v710z" />
    <glyph glyph-name="uni041B" unicode="&#x41b;" horiz-adv-x="471" 
d="M50 99q27 0 40.5 4.5t20 20t7.5 47.5l16 539h287v-710h-96v620h-96l-12 -443q-2 -97 -36.5 -137.5t-116.5 -40.5h-14v100z" />
    <glyph glyph-name="uni041C" unicode="&#x41c;" horiz-adv-x="562" 
d="M50 710h153l76 -476q3 -18 3.5 -32.5t0.5 -38.5h2q0 46 3 71l71 476h153v-710h-104v473q0 19 6 51l-2 1l-6 -33l-74 -492h-104l-80 492l-6 33l-2 -1q6 -32 6 -51v-473h-96v710z" />
    <glyph glyph-name="uni041D" unicode="&#x41d;" horiz-adv-x="396" 
d="M50 710h96v-300h104v300h96v-710h-96v320h-104v-320h-96v710z" />
    <glyph glyph-name="uni041E" unicode="&#x41e;" horiz-adv-x="378" 
d="M50 581q0 38 18.5 70t50.5 50.5t70 18.5t70 -18.5t50.5 -50.5t18.5 -70v-452q0 -38 -18.5 -70t-50.5 -50.5t-70 -18.5t-70 18.5t-50.5 50.5t-18.5 70v452zM158.5 92.5q12.5 -12.5 30.5 -12.5t30.5 12.5t12.5 30.5v464q0 18 -12.5 30.5t-30.5 12.5t-30.5 -12.5
t-12.5 -30.5v-464q0 -18 12.5 -30.5z" />
    <glyph glyph-name="uni041F" unicode="&#x41f;" horiz-adv-x="396" 
d="M50 710h296v-710h-96v620h-104v-620h-96v710z" />
    <glyph glyph-name="uni0420" unicode="&#x420;" horiz-adv-x="378" 
d="M50 710h139q38 0 70 -18.5t50.5 -50.5t18.5 -70v-123q0 -38 -18.5 -70t-50.5 -50.5t-70 -18.5h-43v-309h-96v710zM189 399q18 0 30.5 12.5t12.5 30.5v135q0 18 -12.5 30.5t-30.5 12.5h-43v-221h43z" />
    <glyph glyph-name="uni0421" unicode="&#x421;" horiz-adv-x="378" 
d="M119 8.5q-32 18.5 -50.5 50.5t-18.5 70v452q0 38 18.5 70t50.5 50.5t70 18.5t70 -18.5t50.5 -50.5t18.5 -70v-91h-96v97q0 18 -12.5 30.5t-30.5 12.5t-30.5 -12.5t-12.5 -30.5v-464q0 -18 12.5 -30.5t30.5 -12.5t30.5 12.5t12.5 30.5v117h96v-111q0 -38 -18.5 -70
t-50.5 -50.5t-70 -18.5t-70 18.5z" />
    <glyph glyph-name="uni0422" unicode="&#x422;" horiz-adv-x="398" 
d="M50 710h298v-90h-101v-620h-96v620h-101v90z" />
    <glyph glyph-name="uni0423" unicode="&#x423;" horiz-adv-x="387" 
d="M35 89h9q34 0 51.5 2.5t30 13.5t19.5 35l8 26l-153 544h99l94 -387l76 387h98l-118 -532q-16 -71 -34 -107t-57 -53.5t-114 -17.5h-9v89z" />
    <glyph glyph-name="uni0424" unicode="&#x424;" horiz-adv-x="518" 
d="M401.5 631q30.5 -19 48.5 -51t18 -69v-312q0 -37 -18 -69t-48.5 -51t-66.5 -19h-28v-60h-96v60h-28q-36 0 -66.5 19t-48.5 51t-18 69v312q0 37 18 69t48.5 51t66.5 19h28v60h96v-60h28q36 0 66.5 -19zM211 150v410h-28q-15 0 -26 -13t-11 -30v-324q0 -17 11 -30t26 -13
h28zM372 517q0 17 -11 30t-26 13h-28v-410h28q15 0 26 13t11 30v324z" />
    <glyph glyph-name="uni0425" unicode="&#x425;" horiz-adv-x="350" 
d="M124 355l-124 355h90l79 -228q2 -8 3.5 -22t1.5 -28h2q0 14 1.5 28t3.5 22l79 228h90l-124 -355l124 -355h-90l-79 229q-2 8 -3.5 21t-1.5 26h-2q0 -13 -1.5 -26t-3.5 -21l-79 -229h-90z" />
    <glyph glyph-name="uni0426" unicode="&#x426;" horiz-adv-x="456" 
d="M310 0h-260v710h96v-620h104v620h96v-620h60v-190h-96v100z" />
    <glyph glyph-name="uni0427" unicode="&#x427;" horiz-adv-x="378" 
d="M232 302h-2q-8 -9 -24.5 -15.5t-35.5 -6.5q-31 0 -59 18.5t-44.5 50.5t-16.5 70v291h96v-297q0 -18 12.5 -30.5t30.5 -12.5t30.5 12.5t12.5 30.5v297h96v-710h-96v302z" />
    <glyph glyph-name="uni0428" unicode="&#x428;" horiz-adv-x="576" 
d="M50 710h96v-620h94v620h96v-620h94v620h96v-710h-476v710z" />
    <glyph glyph-name="uni0429" unicode="&#x429;" horiz-adv-x="636" 
d="M50 710h96v-620h94v620h96v-620h94v620h96v-620h60v-190h-96v100h-440v710z" />
    <glyph glyph-name="uni042A" unicode="&#x42a;" horiz-adv-x="432" 
d="M0 710h196v-300h43q38 0 71 -18.5t52.5 -50.5t19.5 -70v-132q0 -38 -19.5 -70t-52.5 -50.5t-71 -18.5h-139v620h-100v90zM239 90q18 0 32.5 12.5t14.5 30.5v144q0 18 -13.5 30.5t-31.5 12.5h-45v-230h43z" />
    <glyph glyph-name="uni042B" unicode="&#x42b;" horiz-adv-x="556" 
d="M50 710h96v-300h43q38 0 71 -18.5t52.5 -50.5t19.5 -70v-132q0 -38 -19.5 -70t-52.5 -50.5t-71 -18.5h-139v710zM410 710h96v-710h-96v710zM189 90q18 0 32.5 12.5t14.5 30.5v144q0 18 -13.5 30.5t-31.5 12.5h-45v-230h43z" />
    <glyph glyph-name="uni042C" unicode="&#x42c;" horiz-adv-x="382" 
d="M50 710h96v-300h43q38 0 71 -18.5t52.5 -50.5t19.5 -70v-132q0 -38 -19.5 -70t-52.5 -50.5t-71 -18.5h-139v710zM189 90q18 0 32.5 12.5t14.5 30.5v144q0 18 -13.5 30.5t-31.5 12.5h-45v-230h43z" />
    <glyph glyph-name="uni042D" unicode="&#x42d;" horiz-adv-x="378" 
d="M50 240h96v-117q0 -18 12.5 -30.5t30.5 -12.5t30.5 12.5t12.5 30.5v197h-82v90h82v177q0 18 -12.5 30.5t-30.5 12.5t-30.5 -12.5t-12.5 -30.5v-97h-96v91q0 38 18.5 70t50.5 50.5t70 18.5t70 -18.5t50.5 -50.5t18.5 -70v-452q0 -38 -18.5 -70t-50.5 -50.5t-70 -18.5
t-70 18.5t-50.5 50.5t-18.5 70v111z" />
    <glyph glyph-name="uni042E" unicode="&#x42e;" horiz-adv-x="558" 
d="M50 710h96v-300h84v171q0 38 18.5 70t50.5 50.5t70 18.5t70 -18.5t50.5 -50.5t18.5 -70v-452q0 -38 -18.5 -70t-50.5 -50.5t-70 -18.5t-70 18.5t-50.5 50.5t-18.5 70v191h-84v-320h-96v710zM338.5 92.5q12.5 -12.5 30.5 -12.5t30.5 12.5t12.5 30.5v464q0 18 -12.5 30.5
t-30.5 12.5t-30.5 -12.5t-12.5 -30.5v-464q0 -18 12.5 -30.5z" />
    <glyph glyph-name="uni042F" unicode="&#x42f;" horiz-adv-x="388" 
d="M242 0v320h-43q-18 0 -30.5 -12.5t-12.5 -30.5v-228q0 -38 -10 -49h-96q10 19 10 49v212q0 39 15.5 65t40.5 38v2q-26 12 -41 37.5t-15 65.5v102q0 38 18.5 70t50.5 50.5t70 18.5h139v-710h-96zM242 620h-43q-18 0 -30.5 -12.5t-12.5 -30.5v-124q0 -18 12.5 -30.5
t30.5 -12.5h43v210z" />
    <glyph glyph-name="uni0430" unicode="&#x430;" horiz-adv-x="476" 
d="M295 190h-114l-30 -190l-101 2l138 718h100l138 -718l-101 -2zM281 280l-39 245q-3 15 -3 54h-2q0 -39 -3 -54l-39 -245h86z" />
    <glyph glyph-name="uni0431" unicode="&#x431;" horiz-adv-x="382" 
d="M50 710h242v-90h-146v-210h43q38 0 71 -18.5t52.5 -50.5t19.5 -70v-132q0 -38 -19.5 -70t-52.5 -50.5t-71 -18.5h-139v710zM189 90q18 0 32.5 12.5t14.5 30.5v144q0 18 -13.5 30.5t-31.5 12.5h-45v-230h43z" />
    <glyph glyph-name="uni0432" unicode="&#x432;" horiz-adv-x="382" 
d="M50 710h139q38 0 70 -18.5t50.5 -50.5t18.5 -70v-102q0 -40 -15 -65.5t-41 -37.5v-2q26 -12 43 -38t17 -65v-122q0 -38 -19.5 -70t-52.5 -50.5t-71 -18.5h-139v710zM189 410q18 0 30.5 12.5t12.5 30.5v124q0 18 -12.5 30.5t-30.5 12.5h-43v-210h43zM189 90
q18 0 32.5 12.5t14.5 30.5v144q0 18 -13.5 30.5t-31.5 12.5h-45v-230h43z" />
    <glyph glyph-name="uni0433" unicode="&#x433;" 
d="M50 710h258v-90h-162v-620h-96v710z" />
    <glyph glyph-name="uni0434" unicode="&#x434;" horiz-adv-x="498" 
d="M0 90h17q38 0 52.5 16.5t15.5 64.5l16 539h287v-620h60v-190h-96v100h-256v-100h-96v190zM292 90v530h-96l-12 -443q-2 -55 -11 -87h119z" />
    <glyph glyph-name="uni0435" unicode="&#x435;" 
d="M50 710h258v-90h-162v-210h122v-90h-122v-230h162v-90h-258v710z" />
    <glyph glyph-name="uni0436" unicode="&#x436;" horiz-adv-x="600" 
d="M358 320h-10v-320h-96v320h-10l-154 -320h-109l185 364v2l-167 344h106l138 -300h11v300h96v-300h11l138 300h106l-167 -344v-2l185 -364h-109z" />
    <glyph glyph-name="uni0437" unicode="&#x437;" horiz-adv-x="378" 
d="M50 240h96v-117q0 -18 12.5 -30.5t30.5 -12.5t30.5 12.5t12.5 30.5v154q0 18 -13.5 30.5t-31.5 12.5h-37v90h35q18 0 30.5 12.5t12.5 30.5v134q0 18 -11.5 30.5t-29.5 12.5t-29.5 -12.5t-11.5 -30.5v-97h-96v91q0 38 18 70t49.5 50.5t69.5 18.5t69.5 -18.5t49.5 -50.5
t18 -70v-112q0 -40 -15 -65.5t-41 -37.5v-2q26 -12 43 -38t17 -65v-132q0 -38 -18.5 -70t-50.5 -50.5t-70 -18.5t-70 18.5t-50.5 50.5t-18.5 70v111z" />
    <glyph glyph-name="uni0438" unicode="&#x438;" horiz-adv-x="446" 
d="M300 0v431l5 39h-2q0 -6 -3.5 -22.5t-5.5 -25.5l-148 -422h-96v710h96v-444l-10 -55h2q0 5 5 27t9 34l148 438h96v-710h-96z" />
    <glyph glyph-name="uni0439" unicode="&#x439;" horiz-adv-x="446" 
d="M141.5 774q-28.5 29 -30.5 82h68q2 -27 13 -36.5t34 -9.5q24 0 36 10t14 36h67q0 -52 -30 -81.5t-87 -29.5q-56 0 -84.5 29zM50 710h96v-444l-10 -55h2q0 5 5 27t9 34l148 438h96v-710h-96v431l5 39h-2q0 -6 -3.5 -22.5t-5.5 -25.5l-148 -422h-96v710z" />
    <glyph glyph-name="uni043A" unicode="&#x43a;" horiz-adv-x="438" 
d="M50 710h96v-268h2q0 15 2.5 25t8.5 23l109 220h110l-163 -311l173 -399h-110l-121 292l-11 -26v-266h-96v710z" />
    <glyph glyph-name="uni043B" unicode="&#x43b;" horiz-adv-x="471" 
d="M50 99q27 0 40.5 4.5t20 20t7.5 47.5l16 539h287v-710h-96v620h-96l-12 -443q-2 -97 -36.5 -137.5t-116.5 -40.5h-14v100z" />
    <glyph glyph-name="uni043C" unicode="&#x43c;" horiz-adv-x="562" 
d="M50 710h153l76 -476q3 -18 3.5 -32.5t0.5 -38.5h2q0 46 3 71l71 476h153v-710h-104v473q0 19 6 51l-2 1l-6 -33l-74 -492h-104l-80 492l-6 33l-2 -1q6 -32 6 -51v-473h-96v710z" />
    <glyph glyph-name="uni043D" unicode="&#x43d;" horiz-adv-x="396" 
d="M50 710h96v-300h104v300h96v-710h-96v320h-104v-320h-96v710z" />
    <glyph glyph-name="uni043E" unicode="&#x43e;" horiz-adv-x="378" 
d="M50 581q0 38 18.5 70t50.5 50.5t70 18.5t70 -18.5t50.5 -50.5t18.5 -70v-452q0 -38 -18.5 -70t-50.5 -50.5t-70 -18.5t-70 18.5t-50.5 50.5t-18.5 70v452zM158.5 92.5q12.5 -12.5 30.5 -12.5t30.5 12.5t12.5 30.5v464q0 18 -12.5 30.5t-30.5 12.5t-30.5 -12.5
t-12.5 -30.5v-464q0 -18 12.5 -30.5z" />
    <glyph glyph-name="uni043F" unicode="&#x43f;" horiz-adv-x="396" 
d="M50 710h296v-710h-96v620h-104v-620h-96v710z" />
    <glyph glyph-name="uni0440" unicode="&#x440;" horiz-adv-x="378" 
d="M50 710h139q38 0 70 -18.5t50.5 -50.5t18.5 -70v-123q0 -38 -18.5 -70t-50.5 -50.5t-70 -18.5h-43v-309h-96v710zM189 399q18 0 30.5 12.5t12.5 30.5v135q0 18 -12.5 30.5t-30.5 12.5h-43v-221h43z" />
    <glyph glyph-name="uni0441" unicode="&#x441;" horiz-adv-x="378" 
d="M119 8.5q-32 18.5 -50.5 50.5t-18.5 70v452q0 38 18.5 70t50.5 50.5t70 18.5t70 -18.5t50.5 -50.5t18.5 -70v-91h-96v97q0 18 -12.5 30.5t-30.5 12.5t-30.5 -12.5t-12.5 -30.5v-464q0 -18 12.5 -30.5t30.5 -12.5t30.5 12.5t12.5 30.5v117h96v-111q0 -38 -18.5 -70
t-50.5 -50.5t-70 -18.5t-70 18.5z" />
    <glyph glyph-name="uni0442" unicode="&#x442;" horiz-adv-x="398" 
d="M50 710h298v-90h-101v-620h-96v620h-101v90z" />
    <glyph glyph-name="uni0443" unicode="&#x443;" horiz-adv-x="387" 
d="M35 89h9q34 0 51.5 2.5t30 13.5t19.5 35l8 26l-153 544h99l94 -387l76 387h98l-118 -532q-16 -71 -34 -107t-57 -53.5t-114 -17.5h-9v89z" />
    <glyph glyph-name="uni0444" unicode="&#x444;" horiz-adv-x="518" 
d="M401.5 631q30.5 -19 48.5 -51t18 -69v-312q0 -37 -18 -69t-48.5 -51t-66.5 -19h-28v-60h-96v60h-28q-36 0 -66.5 19t-48.5 51t-18 69v312q0 37 18 69t48.5 51t66.5 19h28v60h96v-60h28q36 0 66.5 -19zM211 150v410h-28q-15 0 -26 -13t-11 -30v-324q0 -17 11 -30t26 -13
h28zM372 517q0 17 -11 30t-26 13h-28v-410h28q15 0 26 13t11 30v324z" />
    <glyph glyph-name="uni0445" unicode="&#x445;" horiz-adv-x="350" 
d="M124 355l-124 355h90l79 -228q2 -8 3.5 -22t1.5 -28h2q0 14 1.5 28t3.5 22l79 228h90l-124 -355l124 -355h-90l-79 229q-2 8 -3.5 21t-1.5 26h-2q0 -13 -1.5 -26t-3.5 -21l-79 -229h-90z" />
    <glyph glyph-name="uni0446" unicode="&#x446;" horiz-adv-x="456" 
d="M310 0h-260v710h96v-620h104v620h96v-620h60v-190h-96v100z" />
    <glyph glyph-name="uni0447" unicode="&#x447;" horiz-adv-x="378" 
d="M232 302h-2q-8 -9 -24.5 -15.5t-35.5 -6.5q-31 0 -59 18.5t-44.5 50.5t-16.5 70v291h96v-297q0 -18 12.5 -30.5t30.5 -12.5t30.5 12.5t12.5 30.5v297h96v-710h-96v302z" />
    <glyph glyph-name="uni0448" unicode="&#x448;" horiz-adv-x="576" 
d="M50 710h96v-620h94v620h96v-620h94v620h96v-710h-476v710z" />
    <glyph glyph-name="uni0449" unicode="&#x449;" horiz-adv-x="636" 
d="M50 710h96v-620h94v620h96v-620h94v620h96v-620h60v-190h-96v100h-440v710z" />
    <glyph glyph-name="uni044A" unicode="&#x44a;" horiz-adv-x="432" 
d="M0 710h196v-300h43q38 0 71 -18.5t52.5 -50.5t19.5 -70v-132q0 -38 -19.5 -70t-52.5 -50.5t-71 -18.5h-139v620h-100v90zM239 90q18 0 32.5 12.5t14.5 30.5v144q0 18 -13.5 30.5t-31.5 12.5h-45v-230h43z" />
    <glyph glyph-name="uni044B" unicode="&#x44b;" horiz-adv-x="556" 
d="M50 710h96v-300h43q38 0 71 -18.5t52.5 -50.5t19.5 -70v-132q0 -38 -19.5 -70t-52.5 -50.5t-71 -18.5h-139v710zM410 710h96v-710h-96v710zM189 90q18 0 32.5 12.5t14.5 30.5v144q0 18 -13.5 30.5t-31.5 12.5h-45v-230h43z" />
    <glyph glyph-name="uni044C" unicode="&#x44c;" horiz-adv-x="382" 
d="M50 710h96v-300h43q38 0 71 -18.5t52.5 -50.5t19.5 -70v-132q0 -38 -19.5 -70t-52.5 -50.5t-71 -18.5h-139v710zM189 90q18 0 32.5 12.5t14.5 30.5v144q0 18 -13.5 30.5t-31.5 12.5h-45v-230h43z" />
    <glyph glyph-name="uni044D" unicode="&#x44d;" horiz-adv-x="378" 
d="M50 240h96v-117q0 -18 12.5 -30.5t30.5 -12.5t30.5 12.5t12.5 30.5v197h-82v90h82v177q0 18 -12.5 30.5t-30.5 12.5t-30.5 -12.5t-12.5 -30.5v-97h-96v91q0 38 18.5 70t50.5 50.5t70 18.5t70 -18.5t50.5 -50.5t18.5 -70v-452q0 -38 -18.5 -70t-50.5 -50.5t-70 -18.5
t-70 18.5t-50.5 50.5t-18.5 70v111z" />
    <glyph glyph-name="uni044E" unicode="&#x44e;" horiz-adv-x="558" 
d="M50 710h96v-300h84v171q0 38 18.5 70t50.5 50.5t70 18.5t70 -18.5t50.5 -50.5t18.5 -70v-452q0 -38 -18.5 -70t-50.5 -50.5t-70 -18.5t-70 18.5t-50.5 50.5t-18.5 70v191h-84v-320h-96v710zM338.5 92.5q12.5 -12.5 30.5 -12.5t30.5 12.5t12.5 30.5v464q0 18 -12.5 30.5
t-30.5 12.5t-30.5 -12.5t-12.5 -30.5v-464q0 -18 12.5 -30.5z" />
    <glyph glyph-name="uni044F" unicode="&#x44f;" horiz-adv-x="388" 
d="M242 0v320h-43q-18 0 -30.5 -12.5t-12.5 -30.5v-228q0 -38 -10 -49h-96q10 19 10 49v212q0 39 15.5 65t40.5 38v2q-26 12 -41 37.5t-15 65.5v102q0 38 18.5 70t50.5 50.5t70 18.5h139v-710h-96zM242 620h-43q-18 0 -30.5 -12.5t-12.5 -30.5v-124q0 -18 12.5 -30.5
t30.5 -12.5h43v210z" />
    <glyph glyph-name="uni0451" unicode="&#x451;" 
d="M84 830h70v-70h-70v70zM214 830h70v-70h-70v70zM50 710h258v-90h-162v-210h122v-90h-122v-230h162v-90h-258v710z" />
    <glyph glyph-name="uni10D0" unicode="&#x10d0;" horiz-adv-x="308" 
d="M126 320v-217q0 -10 6.5 -16.5t16.5 -6.5t16.5 6.5t6.5 16.5v353q0 35 -3 50.5t-14 31.5l-53 75q-14 20 -20.5 35.5t-6.5 34.5v27h96v-11q0 -20 5 -32t26 -41l38 -54q16 -23 22 -41.5t6 -50.5v-371q0 -49 -34.5 -84t-84.5 -35q-49 0 -84 35t-35 84v211h96z" />
    <glyph glyph-name="uni10D1" unicode="&#x10d1;" horiz-adv-x="334" 
d="M275.5 349q18.5 -30 18.5 -66v-166q0 -34 -17 -63.5t-46.5 -46.5t-63.5 -17t-63.5 17t-46.5 46.5t-17 63.5v166q0 42 25.5 76t64.5 45v164q0 20 -4 29t-15 14l-36 17q-13 6 -18.5 13.5t-5.5 22.5v46h96v-17q0 -15 17 -23l29 -13q18 -8 25.5 -20t7.5 -33v-209
q31 -16 49.5 -46zM198 289q0 13 -9 22t-22 9t-22 -9t-9 -22v-178q0 -13 9 -22t22 -9t22 9t9 22v178z" />
    <glyph glyph-name="uni10D2" unicode="&#x10d2;" 
d="M40 291q0 52 23.5 85t66.5 54l30 15q10 5 14 12.5t4 23.5v126q0 10 -6.5 16.5t-16.5 6.5t-16.5 -6.5t-6.5 -16.5v-77h-92v75q0 48 33.5 81.5t81.5 33.5t81.5 -33.5t33.5 -81.5v-157q0 -13 4 -21.5t13 -21.5q15 -20 23 -42t8 -62v-172q0 -38 -18.5 -70t-50.5 -50.5
t-70 -18.5t-70 18.5t-50.5 50.5t-18.5 70v162zM148.5 92.5q12.5 -12.5 30.5 -12.5t30.5 12.5t12.5 30.5v184q0 18 -12.5 30.5t-30.5 12.5t-30.5 -12.5t-12.5 -30.5v-184q0 -18 12.5 -30.5z" />
    <glyph glyph-name="uni10D3" unicode="&#x10d3;" horiz-adv-x="460" 
d="M324 70q0 55 -59 76q-39 14 -102 14h-119v86h38q20 0 36 -10l1 1q-7 4 -18 9l-5 2q-23 9 -39.5 38.5t-16.5 72.5v255q0 44 31 75t75 31q24 0 46 -10.5t35 -29.5h2q15 20 37.5 30t45.5 10q45 0 76.5 -31.5t31.5 -77.5v-174q0 -49 -34 -83t-83 -34t-83 34t-34 83v168
q0 11 -7 18t-18 7q-10 0 -17.5 -7t-7.5 -18v-233q0 -50 19.5 -78.5t66.5 -45.5l96 -35q43 -16 70.5 -47.5t27.5 -84.5v-81h-92v70zM317.5 416.5q6.5 6.5 6.5 16.5v174q0 10 -6.5 16.5t-16.5 6.5t-16.5 -6.5t-6.5 -16.5v-174q0 -10 6.5 -16.5t16.5 -6.5t16.5 6.5z" />
    <glyph glyph-name="uni10D4" unicode="&#x10d4;" horiz-adv-x="322" 
d="M136 320v-215q0 -10 7.5 -17.5t17.5 -7.5q11 0 18 7.5t7 17.5v502q0 10 -6.5 16.5t-16.5 6.5t-16.5 -6.5t-6.5 -16.5v-77h-96v71q0 50 35 84.5t84 34.5q50 0 84.5 -34.5t34.5 -84.5v-490q0 -50 -35.5 -85.5t-85.5 -35.5t-85.5 35.5t-35.5 85.5v209h96z" />
    <glyph glyph-name="uni10D5" unicode="&#x10d5;" horiz-adv-x="322" 
d="M40 320h96v-215q0 -10 7.5 -17.5t17.5 -7.5q11 0 18 7.5t7 17.5v270q0 11 -7 18t-18 7h-32v80h32q11 0 18 7.5t7 17.5v100q0 11 -7 18t-18 7q-10 0 -17.5 -7t-7.5 -18v-75h-92v75q0 48 35.5 81.5t83.5 33.5t81.5 -33.5t33.5 -81.5v-97q0 -28 -13 -44.5t-32 -20.5v-2
q21 -6 35 -23t14 -43v-264q0 -50 -35.5 -85.5t-85.5 -35.5t-85.5 35.5t-35.5 85.5v209z" />
    <glyph glyph-name="uni10D6" unicode="&#x10d6;" horiz-adv-x="416" 
d="M374.5 357q11.5 -21 11.5 -46v-202q0 -51 -34.5 -85t-83.5 -34q-50 0 -84 34t-34 85v314h-2q-12 -6 -29 -6q-41 0 -70 29.5t-29 76.5v84q0 29 16 55t42 42t55 16t55 -16t42 -42t16 -55v-207h2q4 24 15 45l33 59l83 -44l-35 -68q19 -14 30.5 -35zM150 611q0 8 -5.5 13.5
t-13.5 5.5q-7 0 -13 -5.5t-6 -13.5v-85q0 -7 6 -13t13 -6q8 0 13.5 6t5.5 13v85zM290 298q0 9 -6.5 15.5t-15.5 6.5t-15.5 -6.5t-6.5 -15.5v-196q0 -10 6.5 -16t15.5 -6t15.5 6t6.5 16v196z" />
    <glyph glyph-name="uni10D7" unicode="&#x10d7;" horiz-adv-x="460" 
d="M75 25q-35 35 -35 84v502q0 46 32 77.5t76 31.5q24 0 46.5 -10t36.5 -30h2q14 20 35.5 30t45.5 10q44 0 75 -31t31 -75v-614h-96v607q0 10 -6.5 16.5t-16.5 6.5t-16.5 -6.5t-6.5 -16.5v-498q0 -49 -34.5 -84t-84.5 -35q-49 0 -84 35zM179 87.5q7 7.5 7 17.5v500
q0 11 -7 18t-18 7q-10 0 -17.5 -7t-7.5 -18v-500q0 -10 7.5 -17.5t17.5 -7.5q11 0 18 7.5z" />
    <glyph glyph-name="uni10D8" unicode="&#x10d8;" horiz-adv-x="322" 
d="M40 599q0 51 35.5 86t85.5 35t85.5 -35t35.5 -86v-599h-96v605q0 11 -7 18t-18 7q-10 0 -17.5 -7t-7.5 -18v-605h-96v599z" />
    <glyph glyph-name="uni10D9" unicode="&#x10d9;" horiz-adv-x="312" 
d="M126 280v-175q0 -10 7.5 -17.5t17.5 -7.5q11 0 18 7.5t7 17.5v270q0 11 -7 18t-18 7h-43v90h38q14 0 22 8.5t8 21.5v98q0 32 -4 51t-20 39v2h88q19 -20 23.5 -45.5t4.5 -62.5v-88q0 -27 -15.5 -45.5t-30.5 -22.5v-2q17 -6 33.5 -25.5t16.5 -48.5v-259q0 -51 -35.5 -86
t-85.5 -35t-85.5 35t-35.5 86v169h96z" />
    <glyph glyph-name="uni10DA" unicode="&#x10da;" horiz-adv-x="594" 
d="M458 73q0 28 -17.5 46t-43.5 26q-52 15 -116 15h-237v86h58q20 0 36 -10l1 1q-7 4 -18 9l-9 4q-72 35 -72 154v212q0 44 30.5 74t73.5 30q26 0 46 -10.5t29 -29.5h2q11 19 31 29.5t45 10.5t45 -10.5t31 -29.5h2q9 19 29 29.5t46 10.5q43 0 73.5 -30.5t30.5 -73.5v-216
h-96v207q0 10 -7 16.5t-16 6.5q-10 0 -16.5 -6.5t-6.5 -16.5v-167h-92v167q0 10 -7 16.5t-16 6.5q-10 0 -16.5 -6.5t-6.5 -16.5v-167h-92v167q0 10 -7 16.5t-16 6.5q-10 0 -16.5 -6.5t-6.5 -16.5v-219q0 -53 25 -76t73 -36l175 -47q81 -22 111 -68.5t30 -99.5v-61h-92v73z
" />
    <glyph glyph-name="uni10DB" unicode="&#x10db;" horiz-adv-x="322" 
d="M40 306q0 44 30.5 74t73.5 30q25 0 40 -10h2v207q0 10 -6.5 16.5t-16.5 6.5t-16.5 -6.5t-6.5 -16.5v-117h-96v111q0 50 35 84.5t84 34.5q50 0 84.5 -34.5t34.5 -84.5v-490q0 -50 -35.5 -85.5t-85.5 -35.5t-85.5 35.5t-35.5 85.5v195zM143.5 87.5q7.5 -7.5 17.5 -7.5
q11 0 18 7.5t7 17.5v190q0 11 -7 18t-18 7q-10 0 -17.5 -7t-7.5 -18v-190q0 -10 7.5 -17.5z" />
    <glyph glyph-name="uni10DC" unicode="&#x10dc;" horiz-adv-x="322" 
d="M75.5 25.5q-35.5 35.5 -35.5 85.5v519q0 38 26.5 64t63.5 26q21 0 41 -5q3 -1 15.5 -3t29.5 -2q23 0 60 10h2v-86q-31 -12 -58 -12q-13 0 -35 4q-18 4 -26 4q-10 0 -16.5 -6.5t-6.5 -16.5v-207h2q15 10 40 10q44 0 74 -30t30 -74v-195q0 -50 -35.5 -85.5t-85.5 -35.5
t-85.5 35.5zM179 87.5q7 7.5 7 17.5v190q0 11 -7 18t-18 7q-10 0 -17.5 -7t-7.5 -18v-190q0 -10 7.5 -17.5t17.5 -7.5q11 0 18 7.5z" />
    <glyph glyph-name="uni10DD" unicode="&#x10dd;" horiz-adv-x="456" 
d="M40 614q0 44 31 75t75 31q24 0 46 -10.5t35 -29.5h2q13 19 35 29.5t46 10.5q44 0 75 -31t31 -75v-614h-96v607q0 10 -6.5 16.5t-16.5 6.5t-16.5 -6.5t-6.5 -16.5v-287h-92v287q0 10 -6.5 16.5t-16.5 6.5t-16.5 -6.5t-6.5 -16.5v-607h-96v614z" />
    <glyph glyph-name="uni10DE" unicode="&#x10de;" horiz-adv-x="308" 
d="M30 280h96v-177q0 -10 6.5 -16.5t16.5 -6.5t16.5 6.5t6.5 16.5v272q0 11 -7 18t-18 7h-63v90h48q17 0 28.5 11.5t11.5 28.5q0 13 -6 22.5t-24 24.5l-54 49q-11 10 -20.5 27t-9.5 36v21h96v-10q0 -7 5.5 -14t21.5 -23l43 -43q20 -20 30 -40t10 -46q0 -33 -15 -55.5
t-31 -32.5v-2q17 -6 33.5 -25.5t16.5 -48.5v-261q0 -49 -34.5 -84t-84.5 -35q-49 0 -84 35t-35 84v171z" />
    <glyph glyph-name="uni10DF" unicode="&#x10df;" horiz-adv-x="388" 
d="M145 25q-35 35 -35 84v171h96v-177q0 -10 6.5 -16.5t16.5 -6.5t16.5 6.5t6.5 16.5v498h-3l-23 -16v-82q0 -43 -30 -73t-73 -30t-73 30t-30 73v52h88v-50q0 -6 4.5 -10.5t10.5 -4.5t10.5 4.5t4.5 10.5v120l122 85h88v-601q0 -49 -34.5 -84t-84.5 -35q-49 0 -84 35z" />
    <glyph glyph-name="uni10E0" unicode="&#x10e0;" horiz-adv-x="436" 
d="M30 384q0 48 15.5 81t61.5 72l107 89q28 23 39 37t11 37v10h90v-16q0 -40 -14.5 -64t-55.5 -58l-82 -69q-38 -32 -54 -47.5t-21 -26.5t-5 -28v-8h2q7 8 18.5 12.5t24.5 4.5q21 0 37 -11.5t21 -28.5h2q12 17 33 28.5t46 11.5q41 0 70.5 -29.5t29.5 -70.5v-310h-96v297
q0 9 -6.5 16t-16.5 7t-16.5 -7t-6.5 -16v-137h-92v137q0 9 -6.5 16t-16.5 7t-16.5 -7t-6.5 -16v-297h-96v384z" />
    <glyph glyph-name="uni10E1" unicode="&#x10e1;" horiz-adv-x="318" 
d="M75 25q-35 35 -35 84v601h96v-607q0 -10 6.5 -16.5t16.5 -6.5t16.5 6.5t6.5 16.5v257h96v-251q0 -49 -34.5 -84t-84.5 -35q-49 0 -84 35z" />
    <glyph glyph-name="uni10E2" unicode="&#x10e2;" horiz-adv-x="442" 
d="M133 15q-43 25 -68 68t-25 93v534h96v-540q0 -37 26.5 -63.5t63.5 -26.5t63.5 26.5t26.5 63.5v194q0 31 -2 45t-12 24l-7 7h-3l-7 -9q-9 -12 -13 -21t-4 -24v-66h-84v61q0 33 9 57t29 47l13 15l-16 16q-20 20 -32.5 44t-12.5 48q0 47 32 79.5t80 32.5t80 -32.5t32 -79.5
q0 -45 -40 -90l-13 -15l30 -30q22 -22 29.5 -45t7.5 -65v-187q0 -50 -25 -93t-68 -68t-93 -25t-93 25zM274 574l12 -12l8 9q12 14 18 23.5t6 18.5q0 12 -9.5 21.5t-22.5 9.5t-22.5 -9.5t-9.5 -21.5q0 -19 20 -39z" />
    <glyph glyph-name="uni10E3" unicode="&#x10e3;" horiz-adv-x="367" 
d="M85 320h96v-215q0 -10 7.5 -17.5t17.5 -7.5q11 0 18 7.5t7 17.5v502q0 10 -6.5 16.5t-16.5 6.5t-16.5 -6.5t-6.5 -16.5v-167h-92v173q0 7 -5 12t-12 5q-5 0 -16 -4t-18 -4q-9 0 -15 3t-7 5v90h2q3 -3 10 -5.5t15 -2.5t20 4q14 4 24 4q18 0 35.5 -10t24.5 -30h2
q13 21 33 30.5t43 9.5q41 0 69.5 -28.5t28.5 -68.5v-512q0 -50 -35.5 -85.5t-85.5 -35.5t-85.5 35.5t-35.5 85.5v209z" />
    <glyph glyph-name="uni10E4" unicode="&#x10e4;" horiz-adv-x="432" 
d="M189.5 8q-31.5 18 -49.5 49.5t-18 67.5v195h96v-201q0 -16 11.5 -27.5t27.5 -11.5t27.5 11.5t11.5 27.5v216q0 11 -7 18t-18 7h-29v80h14q18 0 31 12.5t13 31.5v121q0 11 -7 18t-18 7q-10 0 -17.5 -7t-7.5 -18v-60q0 -48 -33.5 -81.5t-81.5 -33.5t-81.5 33.5t-33.5 81.5
v69q0 45 30 75.5t76 30.5q26 0 47 -10.5t34 -29.5h2q13 19 34 29.5t45 10.5q43 0 73.5 -30.5t30.5 -73.5v-142q0 -29 -16 -47.5t-33 -23.5v-2q21 -6 35 -23t14 -43v-210q0 -36 -18 -67t-49 -49.5t-67 -18.5q-37 0 -68.5 18zM151.5 526.5q6.5 6.5 6.5 16.5v64q0 10 -6.5 16.5
t-16.5 6.5t-16.5 -6.5t-6.5 -16.5v-64q0 -10 6.5 -16.5t16.5 -6.5t16.5 6.5z" />
    <glyph glyph-name="uni10E5" unicode="&#x10e5;" horiz-adv-x="312" 
d="M30 320h96v-215q0 -10 7.5 -17.5t17.5 -7.5q11 0 18 7.5t7 17.5v360q0 11 -7 18t-18 7q-10 0 -17.5 -7t-7.5 -18v-25h-92v42q0 41 29 69.5t69 28.5q23 0 42 -10h2v140h96v-599q0 -50 -35.5 -85.5t-85.5 -35.5t-85.5 35.5t-35.5 85.5v209z" />
    <glyph glyph-name="uni10E6" unicode="&#x10e6;" horiz-adv-x="446" 
d="M324 70q0 55 -59 76q-39 14 -102 14h-119v86h38q20 0 36 -10l1 1q-7 4 -18 9l-5 2q-23 9 -39.5 38.5t-16.5 72.5v255q0 44 31 75t75 31q24 0 46 -10.5t35 -29.5h2q13 19 35 29.5t46 10.5q44 0 75 -31t31 -75v-214h-96v207q0 10 -6.5 16.5t-16.5 6.5t-16.5 -6.5
t-6.5 -16.5v-167h-92v167q0 10 -6.5 16.5t-16.5 6.5t-16.5 -6.5t-6.5 -16.5v-235q0 -50 19.5 -78.5t66.5 -45.5l96 -35q43 -16 70.5 -47.5t27.5 -84.5v-81h-92v70z" />
    <glyph glyph-name="uni10E7" unicode="&#x10e7;" horiz-adv-x="312" 
d="M30 280h96v-175q0 -10 7.5 -17.5t17.5 -7.5q11 0 18 7.5t7 17.5v305h-2q-19 -10 -42 -10q-40 0 -69 29t-29 69v212h92v-195q0 -10 7.5 -17.5t17.5 -7.5q11 0 18 7.5t7 17.5v195h96v-599q0 -50 -35.5 -85.5t-85.5 -35.5t-85.5 35.5t-35.5 85.5v169z" />
    <glyph glyph-name="uni10E8" unicode="&#x10e8;" horiz-adv-x="357" 
d="M110.5 25.5q-35.5 35.5 -35.5 85.5v195q0 44 30.5 74t73.5 30q25 0 40 -10h2v207q0 10 -6.5 16.5t-16.5 6.5t-16.5 -6.5t-6.5 -16.5v-117h-92v109q0 13 -9 22t-22 9q-14 0 -40 -8h-2v87q24 11 46 11q49 0 79 -40h2q31 40 80 40q41 0 70.5 -29.5t29.5 -70.5v-509
q0 -50 -35.5 -85.5t-85.5 -35.5t-85.5 35.5zM214 87.5q7 7.5 7 17.5v190q0 11 -7 18t-18 7q-10 0 -17.5 -7t-7.5 -18v-190q0 -10 7.5 -17.5t17.5 -7.5q11 0 18 7.5z" />
    <glyph glyph-name="uni10E9" unicode="&#x10e9;" horiz-adv-x="312" 
d="M40 606q0 29 16.5 55.5t43.5 42.5t57 16t57 -16t43.5 -42.5t16.5 -55.5v-50q0 -44 -30.5 -75t-74.5 -31q-20 0 -35 7h-2v-59h2q21 12 48 12q41 0 70.5 -29.5t29.5 -70.5v-310h-96v295q0 11 -7 18t-18 7q-10 0 -17.5 -7t-7.5 -18v-295h-96v606zM139.5 537.5
q7.5 -7.5 17.5 -7.5q11 0 18 7.5t7 17.5v50q0 11 -7 18t-18 7q-10 0 -17.5 -7t-7.5 -18v-50q0 -10 7.5 -17.5z" />
    <glyph glyph-name="uni10EA" unicode="&#x10ea;" horiz-adv-x="384" 
d="M40 710h96v-569q0 -25 18 -43t43 -18q26 0 43.5 18t17.5 43v219q0 17 -11.5 28.5t-28.5 11.5h-48v90h38q19 0 32 13.5t13 32.5q0 9 -3.5 16.5t-11.5 19.5l-38 54q-11 16 -17.5 29.5t-6.5 33.5v21h90v-11q0 -8 5 -16.5t10 -16t9 -12.5l34 -48q15 -21 20.5 -36t5.5 -36
q0 -33 -15 -55.5t-31 -32.5v-2q18 -7 34 -26t16 -48v-223q0 -42 -21.5 -78t-57.5 -57.5t-78 -21.5t-78 21.5t-57.5 57.5t-21.5 78v563z" />
    <glyph glyph-name="uni10EB" unicode="&#x10eb;" horiz-adv-x="302" 
d="M55.5 25.5q-35.5 35.5 -35.5 85.5v195q0 44 30.5 74t73.5 30q25 0 40 -10h2v310h96v-599q0 -50 -35.5 -85.5t-85.5 -35.5t-85.5 35.5zM159 87.5q7 7.5 7 17.5v190q0 11 -7 18t-18 7q-10 0 -17.5 -7t-7.5 -18v-190q0 -10 7.5 -17.5t17.5 -7.5q11 0 18 7.5z" />
    <glyph glyph-name="uni10EC" unicode="&#x10ec;" horiz-adv-x="406" 
d="M91 235l-49 211q-22 94 -22 148q0 126 104 126q24 0 45.5 -10.5t32.5 -29.5h2q11 19 32 29.5t46 10.5q44 0 74 -30t30 -74q0 -18 -6.5 -52.5t-13.5 -53.5h-86q4 20 7 45t3 42q0 33 -23 33q-10 0 -16.5 -6.5t-6.5 -16.5v-57h-82v57q0 10 -6.5 16.5t-16.5 6.5
q-23 0 -23 -33q0 -22 4 -55.5t9 -56.5l4 -19h163q24 0 36.5 -9t12.5 -33q0 -11 -3.5 -27t-4.5 -21l-33 -141q-19 -82 -64 -235h-90q-30 112 -59 235zM196 90q0 29 3 44l42 242h-92l42 -242q3 -15 3 -44h2z" />
    <glyph glyph-name="uni10ED" unicode="&#x10ed;" horiz-adv-x="331" 
d="M20 280h96v-175q0 -10 7.5 -17.5t17.5 -7.5q11 0 18 7.5t7 17.5v261h-2q-12 -6 -31 -6q-42 0 -71.5 28.5t-29.5 73.5q0 46 31.5 77t78.5 31q16 0 26 -5h2v145h92v-201h2q25 22 55 63h2v-113q-23 -26 -59 -53v-294q0 -50 -35.5 -86t-85.5 -36t-85.5 36t-35.5 86v168z
M127.5 447.5q7.5 -7.5 17.5 -7.5q16 0 25 15v10q0 10 -7.5 17.5t-17.5 7.5t-17.5 -7t-7.5 -18q0 -10 7.5 -17.5z" />
    <glyph glyph-name="uni10EE" unicode="&#x10ee;" horiz-adv-x="312" 
d="M269 355.5q13 -23.5 13 -50.5v-193q0 -50 -35.5 -86t-85.5 -36t-85.5 36t-35.5 86v598h96v-310h2q4 24 15 45l33 59l83 -44l-35 -67q22 -14 35 -37.5zM186 295q0 11 -7 18t-18 7q-10 0 -17.5 -7t-7.5 -18v-190q0 -10 7.5 -17.5t17.5 -7.5q11 0 18 7.5t7 17.5v190z" />
    <glyph glyph-name="uni10EF" unicode="&#x10ef;" horiz-adv-x="482" 
d="M10 80h24q25 0 42 17.5t17 42.5q0 23 -14.5 39t-38.5 22v72l153 165l-20 165q-1 13 -8 20t-17 7t-17 -7t-7 -17q0 -14 3 -30t4 -21h-91q-10 21 -10 53q0 50 33.5 81t85.5 31q48 0 80 -33.5t38 -87.5l11 -92l55 61q9 10 12.5 16.5t3.5 14.5q0 13 -9 22t-22 9h-8v88
q18 2 20 2q48 0 81.5 -33.5t33.5 -80.5t-34 -83l-119 -126l35 -286q3 -31 26 -31q9 0 16 6t8 16v5l-5 53h92q8 -48 8 -61q0 -28 -15.5 -53.5t-41.5 -40.5t-57 -15q-48 0 -82.5 31t-39.5 73l-28 227l-74 -77v-3q26 -24 40 -51t14 -61q0 -38 -18.5 -70t-50.5 -50.5t-70 -18.5
q-9 0 -20.5 2t-18.5 5v83z" />
    <glyph glyph-name="uni10F0" unicode="&#x10f0;" horiz-adv-x="292" 
d="M20 160h96v-55q0 -10 7.5 -17.5t17.5 -7.5q11 0 18 7.5t7 17.5v115q0 13 -8.5 21.5t-21.5 8.5h-38v90h38q13 0 21.5 8.5t8.5 21.5t-8.5 21.5t-21.5 8.5h-38v90h16q20 0 34 14.5t14 34.5q0 23 -23 42l-48 43q-14 12 -21.5 31t-7.5 42v13h85v-6q0 -10 10 -23t24 -25l25 -21
q27 -23 37.5 -43.5t10.5 -47.5t-11.5 -50t-31.5 -39v-2q20 -10 33.5 -32t13.5 -48q0 -48 -46 -77v-2q17 -6 33.5 -25.5t16.5 -48.5v-111q0 -49 -34.5 -84t-84.5 -35q-33 0 -61 16t-45 43.5t-17 59.5v51z" />
    <glyph glyph-name="uni10FB" unicode="&#x10fb;" horiz-adv-x="600" 
 />
    <glyph glyph-name="figuredash" unicode="&#x2012;" horiz-adv-x="456" 
d="M426 395v-90h-396v90h396z" />
    <glyph glyph-name="endash" unicode="&#x2013;" horiz-adv-x="560" 
d="M530 395v-90h-500v90h500z" />
    <glyph glyph-name="emdash" unicode="&#x2014;" horiz-adv-x="1060" 
d="M1030 395v-90h-1000v90h1000z" />
    <glyph glyph-name="quoteleft" unicode="&#x2018;" horiz-adv-x="166" 
d="M30 589l48 111h45l-29 -100h42v-106h-106v95z" />
    <glyph glyph-name="quoteright" unicode="&#x2019;" horiz-adv-x="166" 
d="M72 594h-42v106h106v-95l-48 -111h-45z" />
    <glyph glyph-name="quotesinglbase" unicode="&#x201a;" horiz-adv-x="166" 
d="M72 0h-42v106h106v-95l-48 -111h-45z" />
    <glyph glyph-name="quotedblleft" unicode="&#x201c;" horiz-adv-x="312" 
d="M30 589l48 111h45l-29 -100h42v-106h-106v95zM176 589l48 111h45l-29 -100h42v-106h-106v95z" />
    <glyph glyph-name="quotedblright" unicode="&#x201d;" horiz-adv-x="312" 
d="M72 594h-42v106h106v-95l-48 -111h-45zM218 594h-42v106h106v-95l-48 -111h-45z" />
    <glyph glyph-name="quotedblbase" unicode="&#x201e;" horiz-adv-x="312" 
d="M72 0h-42v106h106v-95l-48 -111h-45zM218 0h-42v106h106v-95l-48 -111h-45z" />
    <glyph glyph-name="bullet" unicode="&#x2022;" horiz-adv-x="338" 
d="M99 229.5q-32 18.5 -50.5 50.5t-18.5 70t18.5 70t50.5 50.5t70 18.5t70 -18.5t50.5 -50.5t18.5 -70t-18.5 -70t-50.5 -50.5t-70 -18.5t-70 18.5z" />
    <glyph glyph-name="ellipsis" unicode="&#x2026;" horiz-adv-x="458" 
d="M30 106h106v-106h-106v106zM176 106h106v-106h-106v106zM322 106h106v-106h-106v106z" />
    <glyph glyph-name="guilsinglleft" unicode="&#x2039;" horiz-adv-x="224" 
d="M30 351l60 266h104l-59 -266l59 -282h-104z" />
    <glyph glyph-name="guilsinglright" unicode="&#x203a;" horiz-adv-x="224" 
d="M89 351l-59 266h104l60 -266l-60 -282h-104z" />
    <glyph glyph-name="Euro" unicode="&#x20ac;" horiz-adv-x="450" 
d="M118.5 37.5q-40.5 45.5 -40.5 130.5v102h-28v55h28v55h-28v55h28v97q0 85 40.5 130.5t120.5 45.5t120.5 -45.5t40.5 -130.5v-51h-104v58q0 37 -13.5 53t-40.5 16t-40.5 -16t-13.5 -53v-104h154v-55h-154v-55h154v-55h-154v-109q0 -36 13.5 -52t40.5 -16t40.5 16t13.5 52
v63h104v-56q0 -85 -40.5 -130.5t-120.5 -45.5t-120.5 45.5z" />
    <glyph glyph-name="uni20BE" unicode="&#x20be;" horiz-adv-x="525" 
d="M380 340v173q0 28 -12.5 52.5t-34.5 40.5v-266h-47v288q-16 2 -24 2q-9 0 -23 -2v-288h-47v266q-22 -16 -34.5 -40.5t-12.5 -52.5v-261q0 -77 48 -119.5t125 -42.5h157v-90h-425v90h87v2q-20 3 -40 23t-33.5 55.5t-13.5 81.5v255q0 68 39.5 123.5t102.5 77.5v74h47v-63
q8 1 23 1q16 0 24 -1v63h47v-74q63 -22 102.5 -77.5t39.5 -123.5v-167h-95z" />
    <glyph glyph-name="minus" unicode="&#x2212;" horiz-adv-x="446" 
d="M50 389h346v-78h-346v78z" />
    <glyph glyph-name="approxequal" unicode="&#x2248;" horiz-adv-x="480" 
d="M274.5 369q-17.5 8 -43.5 25q-22 14 -36 21t-27 7q-17 0 -29.5 -11.5t-36.5 -45.5l-52 50q34 51 61.5 70.5t57.5 19.5q19 0 36.5 -8t43.5 -25q22 -14 36 -21t27 -7q16 0 28.5 11.5t37.5 45.5l52 -54q-34 -50 -61 -68t-58 -18q-19 0 -36.5 8zM274.5 203q-17.5 8 -43.5 25
q-22 14 -36 21t-27 7q-17 0 -29.5 -11.5t-36.5 -45.5l-52 50q34 51 61.5 70.5t57.5 19.5q19 0 36.5 -8t43.5 -25q22 -14 36 -21t27 -7q16 0 28.5 11.5t37.5 45.5l52 -54q-34 -50 -61 -68t-58 -18q-19 0 -36.5 8z" />
    <glyph glyph-name="uni10D0.ss01" horiz-adv-x="288" 
d="M96 160v-59q0 -10 6.5 -16.5t16.5 -6.5t16.5 6.5t6.5 16.5v95q0 32 -3.5 51t-16.5 31l-46 45q-17 17 -22 28.5t-5 31.5v17h92v-15q0 -25 27 -49l38 -34q17 -16 22.5 -34t5.5 -48v-111q0 -50 -33 -84.5t-82 -34.5t-82 34.5t-33 84.5v51h92z" />
    <glyph glyph-name="uni10D1.ss01" horiz-adv-x="304" 
d="M231.5 350.5q18.5 -30.5 18.5 -67.5v-166q0 -53 -35.5 -90t-87.5 -37t-87.5 37t-35.5 90v166q0 43 25 77t64 45v163q0 19 -5 29.5t-17 15.5l-36 17q-12 5 -16.5 12t-4.5 22v46h90v-17q0 -7 5.5 -14t14.5 -11l29 -13q18 -8 24 -19t6 -32v-207q30 -16 48.5 -46.5zM158 291
q0 13 -9 22t-22 9t-22 -9t-9 -22v-182q0 -13 9 -22t22 -9t22 9t9 22v182z" />
    <glyph glyph-name="uni10D2.ss01" horiz-adv-x="328" 
d="M4 -19q0 53 22 85.5t64 53.5l30 15q10 5 14 12.5t4 23.5v128q0 10 -6.5 16.5t-16.5 6.5t-16.5 -6.5t-6.5 -16.5v-79h-90v75q0 48 32.5 81.5t80.5 33.5t80.5 -33.5t32.5 -81.5v-157q0 -13 4 -21.5t13 -21.5q14 -20 21.5 -42t7.5 -62v-172q0 -38 -17.5 -70t-48.5 -50.5
t-69 -18.5t-69 18.5t-48.5 50.5t-17.5 70v162zM108.5 -219.5q12.5 -12.5 30.5 -12.5t30.5 12.5t12.5 30.5v188q0 18 -12.5 30.5t-30.5 12.5t-30.5 -12.5t-12.5 -30.5v-188q0 -18 12.5 -30.5z" />
    <glyph glyph-name="uni10D3.ss01" horiz-adv-x="426" 
d="M286 -240q0 55 -61 76q-39 14 -101 14h-115v86h34q20 0 36 -10l1 1q-7 4 -18 9l-5 2q-22 9 -37 38t-15 73v255q0 45 29 75.5t73 30.5q24 0 45.5 -10.5t34.5 -29.5h2q15 20 37 30t45 10q44 0 74 -31.5t30 -77.5v-174q0 -49 -32.5 -83t-80.5 -34q-49 0 -82 34t-33 83v170
q0 11 -7 18t-18 7q-10 0 -17.5 -7t-7.5 -18v-235q0 -50 19.5 -79.5t65.5 -46.5l96 -35q98 -35 98 -130v-81h-90v70zM276.5 104.5q6.5 6.5 6.5 16.5v178q0 10 -6.5 16.5t-16.5 6.5t-16.5 -6.5t-6.5 -16.5v-178q0 -10 6.5 -16.5t16.5 -6.5t16.5 6.5z" />
    <glyph glyph-name="uni10D4.ss01" horiz-adv-x="292" 
d="M96 10v-217q0 -11 7.5 -18t17.5 -7q11 0 18 7t7 18v506q0 10 -6.5 16.5t-16.5 6.5t-16.5 -6.5t-6.5 -16.5v-79h-92v71q0 50 33 84.5t82 34.5t82 -34.5t33 -84.5v-490q0 -51 -33.5 -86t-83.5 -35t-83.5 35t-33.5 86v209h92z" />
    <glyph glyph-name="uni10D5.ss01" horiz-adv-x="292" 
d="M0 10h96v-217q0 -11 7.5 -18t17.5 -7q11 0 18 7t7 18v272q0 11 -7 18t-18 7h-32v80h32q11 0 18 7.5t7 17.5v102q0 11 -7 18t-18 7q-10 0 -17.5 -7t-7.5 -18v-77h-88v75q0 48 33.5 81.5t81.5 33.5t79.5 -33.5t31.5 -81.5v-97q0 -29 -11.5 -45t-29.5 -20v-2
q20 -6 32.5 -22.5t12.5 -43.5v-264q0 -51 -33.5 -86t-83.5 -35t-85.5 35.5t-35.5 85.5v209z" />
    <glyph glyph-name="uni10D6.ss01" horiz-adv-x="416" 
d="M351.5 357q10.5 -21 10.5 -46v-202q0 -51 -32.5 -85t-81.5 -34t-81.5 34t-32.5 85v314h-2q-12 -6 -29 -6q-41 0 -68 29.5t-27 76.5v84q0 29 15 55t40 42t54 16t54 -16t40 -42t15 -55v-207h2q4 24 15 45l33 59l83 -44l-36 -68q18 -14 28.5 -35zM134 613q0 8 -5.5 13.5
t-13.5 5.5q-7 0 -13 -5.5t-6 -13.5v-89q0 -7 6 -13t13 -6q8 0 13.5 6t5.5 13v89zM270 300q0 9 -6.5 15.5t-15.5 6.5t-15.5 -6.5t-6.5 -15.5v-200q0 -10 6.5 -16t15.5 -6t15.5 6t6.5 16v200z" />
    <glyph glyph-name="uni10D7.ss01" horiz-adv-x="432" 
d="M38 24.5q-33 34.5 -33 84.5v192q0 46 30 77.5t74 31.5q24 0 46 -10t36 -30h2q14 20 35 30t45 10q44 0 73 -30.5t29 -75.5v-304h-92v299q0 10 -6.5 16.5t-16.5 6.5t-16.5 -6.5t-6.5 -16.5v-190q0 -50 -34 -84.5t-83 -34.5t-82 34.5zM140 85.5q7 7.5 7 17.5v194q0 11 -7 18
t-18 7q-10 0 -17.5 -7t-7.5 -18v-194q0 -10 7.5 -17.5t17.5 -7.5q11 0 18 7.5z" />
    <glyph glyph-name="uni10D8.ss01" horiz-adv-x="292" 
d="M4 289q0 51 33.5 86t83.5 35t83.5 -35t33.5 -86v-289h-92v297q0 11 -7 18t-18 7q-10 0 -17.5 -7t-7.5 -18v-297h-92v289z" />
    <glyph glyph-name="uni10D9.ss01" horiz-adv-x="292" 
d="M96 -30v-177q0 -11 7.5 -18t17.5 -7q11 0 18 7t7 18v272q0 11 -7 18t-18 7h-43v90h38q14 0 22 8.5t8 21.5v98q0 32 -4 51t-20 39v2h88q16 -18 20 -44t4 -64v-88q0 -28 -14 -46t-28 -22v-2q16 -6 31 -25t15 -49v-259q0 -51 -34 -86t-83 -35q-50 0 -83.5 35t-33.5 86v169
h92z" />
    <glyph glyph-name="uni10DA.ss01" horiz-adv-x="564" 
d="M414 -237q0 28 -17.5 46t-43.5 26q-26 7 -51 11t-63 4h-231v86h54q20 0 36 -10l1 1q-7 4 -18 9l-9 4q-68 33 -68 154v212q0 44 28.5 74t71.5 30q26 0 45.5 -10.5t28.5 -29.5h2q11 19 30.5 29.5t44.5 10.5t44.5 -10.5t30.5 -29.5h2q9 19 28.5 29.5t45.5 10.5
q43 0 71.5 -30t28.5 -74v-216h-92v209q0 10 -7 16.5t-16 6.5q-10 0 -16.5 -6.5t-6.5 -16.5v-169h-90v169q0 10 -7 16.5t-16 6.5q-10 0 -16.5 -6.5t-6.5 -16.5v-169h-90v169q0 10 -7 16.5t-16 6.5q-10 0 -16.5 -6.5t-6.5 -16.5v-221q0 -53 25 -76t72 -36l172 -47
q137 -37 137 -168v-61h-88v73z" />
    <glyph glyph-name="uni10DB.ss01" horiz-adv-x="292" 
d="M4 306q0 44 28.5 74t71.5 30q25 0 40 -10h2v209q0 10 -6.5 16.5t-16.5 6.5t-16.5 -6.5t-6.5 -16.5v-119h-92v111q0 50 33 84.5t82 34.5t82 -34.5t33 -84.5v-490q0 -51 -33.5 -86t-83.5 -35t-83.5 35t-33.5 86v195zM103.5 85.5q7.5 -7.5 17.5 -7.5q11 0 18 7.5t7 17.5v194
q0 11 -7 18t-18 7q-10 0 -17.5 -7t-7.5 -18v-194q0 -10 7.5 -17.5z" />
    <glyph glyph-name="uni10DC.ss01" horiz-adv-x="292" 
d="M37.5 25q-33.5 35 -33.5 86v519q0 38 24.5 64t61.5 26q21 0 41 -5q3 -1 15.5 -3t29.5 -2q20 0 57 10h2v-84q-16 -6 -27.5 -9t-27.5 -3q-13 0 -35 4q-18 4 -26 4q-10 0 -16.5 -6.5t-6.5 -16.5v-209h2q15 10 40 10q43 0 72 -30t29 -74v-195q0 -51 -34 -86t-84 -35t-83.5 35
zM139 85.5q7 7.5 7 17.5v194q0 11 -7 18t-18 7q-10 0 -17.5 -7t-7.5 -18v-194q0 -10 7.5 -17.5t17.5 -7.5q11 0 18 7.5z" />
    <glyph glyph-name="uni10DD.ss01" horiz-adv-x="426" 
d="M5 304q0 44 29 75t73 31q24 0 45.5 -10.5t34.5 -29.5h2q13 19 34.5 29.5t45.5 10.5q43 0 72.5 -31t29.5 -75v-304h-92v299q0 10 -6.5 16.5t-16.5 6.5t-16.5 -6.5t-6.5 -16.5v-139h-90v139q0 10 -6.5 16.5t-16.5 6.5t-16.5 -6.5t-6.5 -16.5v-299h-92v304z" />
    <glyph glyph-name="uni10DE.ss01" horiz-adv-x="288" 
d="M4 280h92v-179q0 -10 6.5 -16.5t16.5 -6.5t16.5 6.5t6.5 16.5v274q0 11 -7 18t-18 7h-63v90h48q17 0 28.5 11.5t11.5 28.5q0 13 -5.5 22.5t-22.5 24.5l-54 49q-11 10 -20.5 27t-9.5 36v21h94v-10q0 -7 5.5 -14t21.5 -23l43 -43q19 -19 27.5 -39t8.5 -47
q0 -33 -13.5 -55.5t-28.5 -32.5v-2q16 -6 31 -25t15 -49v-261q0 -50 -33 -84.5t-82 -34.5t-82 34.5t-33 84.5v171z" />
    <glyph glyph-name="uni10DF.ss01" horiz-adv-x="382" 
d="M131 -285.5q-33 34.5 -33 84.5v171h92v-179q0 -10 6.5 -16.5t16.5 -6.5t16.5 6.5t6.5 16.5v500h-3l-23 -16v-82q0 -43 -30 -73t-73 -30t-73 30t-30 73v87h88v-87q0 -6 4.5 -10.5t10.5 -4.5t10.5 4.5t4.5 10.5v122l122 85h84v-601q0 -50 -33 -84.5t-82 -34.5t-82 34.5z
" />
    <glyph glyph-name="uni10E0.ss01" horiz-adv-x="426" 
d="M4 384q0 49 15 82t60 71l107 89q28 23 39 37t11 37v10h88v-16q0 -40 -14.5 -64t-55.5 -58l-82 -69q-38 -32 -54 -47.5t-21 -26.5t-5 -28v-8h2q7 8 18.5 12.5t24.5 4.5q21 0 36.5 -11.5t20.5 -28.5h2q12 18 32.5 29t45.5 11q41 0 68.5 -29t27.5 -71v-310h-92v299
q0 9 -6.5 16t-16.5 7t-16.5 -7t-6.5 -16v-139h-90v139q0 9 -6.5 16t-16.5 7t-16.5 -7t-6.5 -16v-299h-92v384z" />
    <glyph glyph-name="uni10E1.ss01" horiz-adv-x="288" 
d="M37 24.5q-33 34.5 -33 84.5v601h92v-609q0 -10 6.5 -16.5t16.5 -6.5t16.5 6.5t6.5 16.5v299h92v-291q0 -50 -33 -84.5t-82 -34.5t-82 34.5z" />
    <glyph glyph-name="uni10E2.ss01" horiz-adv-x="422" 
d="M94 -295q-42 25 -66 68t-24 93v534h92v-540q0 -37 26.5 -64.5t63.5 -27.5t63.5 27.5t26.5 64.5v194q0 31 -2 45t-12 24l-7 7h-3l-7 -9q-10 -13 -14 -21.5t-4 -23.5v-66h-82v61q0 34 9 58t28 46l13 15l-16 16q-20 20 -32 44t-12 48q0 47 31.5 79.5t79.5 32.5t79.5 -32.5
t31.5 -79.5q0 -46 -39 -90l-13 -15l30 -30q21 -21 27 -43.5t6 -66.5v-187q0 -50 -24 -93t-66 -68t-92 -25t-92 25zM234 264l12 -12l8 9q12 14 18 23.5t6 18.5q0 12 -9.5 22.5t-22.5 10.5t-22.5 -10.5t-9.5 -22.5q0 -19 20 -39z" />
    <glyph glyph-name="uni10E3.ss01" horiz-adv-x="357" 
d="M69 10h92v-217q0 -11 7.5 -18t17.5 -7q11 0 18 7t7 18v506q0 10 -6.5 16.5t-16.5 6.5t-16.5 -6.5t-6.5 -16.5v-169h-88v175q0 7 -5 12t-12 5q-5 0 -16 -4t-18 -4q-9 0 -15 3t-7 5v88h2q3 -3 10 -5.5t15 -2.5t20 4q14 4 24 4q17 0 33 -9.5t23 -30.5h2q13 21 33 30.5
t43 9.5q41 0 67.5 -28.5t26.5 -68.5v-512q0 -51 -33.5 -86t-83.5 -35t-83.5 35t-33.5 86v209z" />
    <glyph glyph-name="uni10E4.ss01" horiz-adv-x="426" 
d="M170.5 -302q-30.5 18 -47.5 49t-17 68v195h92v-203q0 -16 11.5 -27.5t27.5 -11.5t27.5 11.5t11.5 27.5v218q0 11 -7 18t-18 7h-29v80h14q18 0 31 12.5t13 31.5v123q0 11 -7 18t-18 7q-10 0 -17.5 -7t-7.5 -18v-62q0 -48 -32.5 -81.5t-80.5 -33.5t-80.5 33.5t-32.5 81.5
v69q0 45 29.5 75.5t74.5 30.5q53 0 79 -40h2q13 19 34 29.5t45 10.5q43 0 72.5 -30.5t29.5 -73.5v-142q0 -30 -15 -48t-32 -23v-2q20 -6 32.5 -22.5t12.5 -43.5v-210q0 -37 -17 -68t-47 -49t-66 -18q-37 0 -67.5 18zM133.5 214.5q6.5 6.5 6.5 16.5v68q0 10 -6.5 16.5
t-16.5 6.5t-16.5 -6.5t-6.5 -16.5v-68q0 -10 6.5 -16.5t16.5 -6.5t16.5 6.5z" />
    <glyph glyph-name="uni10E5.ss01" horiz-adv-x="292" 
d="M4 10h92v-217q0 -11 7.5 -18t17.5 -7q11 0 18 7t7 18v504q0 12 -7 18.5t-18 6.5t-18 -6.5t-7 -18.5v-97h-90v112q0 41 28 69.5t68 28.5q23 0 42 -10h2v310h92v-909q0 -51 -33.5 -86t-83.5 -35t-83.5 35t-33.5 86v209z" />
    <glyph glyph-name="uni10E6.ss01" horiz-adv-x="426" 
d="M282 -240q0 56 -57 76q-39 14 -102 14h-115v86h34q20 0 36 -10l1 1q-7 4 -18 9l-5 2q-22 9 -37 38t-15 73v255q0 44 29 75t73 31q24 0 45.5 -10.5t34.5 -29.5h2q13 19 34.5 29.5t45.5 10.5q43 0 72.5 -31t29.5 -75v-214h-92v209q0 10 -6.5 16.5t-16.5 6.5t-16.5 -6.5
t-6.5 -16.5v-169h-90v169q0 10 -6.5 16.5t-16.5 6.5t-16.5 -6.5t-6.5 -16.5v-237q0 -50 19.5 -78.5t66.5 -45.5l96 -35q40 -15 67 -47.5t27 -84.5v-81h-90v70z" />
    <glyph glyph-name="uni10E7.ss01" horiz-adv-x="292" 
d="M4 -30h92v-177q0 -11 7.5 -18t17.5 -7q11 0 18 7t7 18v307h-2q-19 -10 -42 -10q-40 0 -68 28.5t-28 69.5v212h90v-197q0 -10 7.5 -17.5t17.5 -7.5q11 0 18 7.5t7 17.5v197h92v-599q0 -51 -33.5 -86t-83.5 -35t-83.5 35t-33.5 86v169z" />
    <glyph glyph-name="uni10E8.ss01" horiz-adv-x="318" 
d="M63.5 25q-33.5 35 -33.5 86v195q0 44 28.5 74t71.5 30q25 0 40 -10h2v207q0 10 -6.5 16.5t-16.5 6.5t-16.5 -6.5t-6.5 -16.5v-117h-90v109q0 13 -9 22t-22 9q-12 0 -38 -8h-2v87q24 11 44 11q47 0 77 -40h2q31 40 80 40q41 0 68.5 -29t27.5 -71v-509q0 -51 -33.5 -86
t-83.5 -35t-83.5 35zM165 87.5q7 7.5 7 17.5v190q0 11 -7 18t-18 7q-10 0 -17.5 -7t-7.5 -18v-190q0 -10 7.5 -17.5t17.5 -7.5q11 0 18 7.5z" />
    <glyph glyph-name="uni10E9.ss01" horiz-adv-x="292" 
d="M4 606q0 30 15.5 56t41.5 42t56 16t56.5 -16t42.5 -42t16 -56v-50q0 -44 -30 -75t-73 -31q-20 0 -35 7h-2v-59h2q21 12 48 12q41 0 68.5 -29t27.5 -71v-310h-92v297q0 11 -7 18t-18 7q-10 0 -17.5 -7t-7.5 -18v-297h-92v606zM99.5 535.5q7.5 -7.5 17.5 -7.5q11 0 18 7.5
t7 17.5v54q0 11 -7 18t-18 7q-10 0 -17.5 -7t-7.5 -18v-54q0 -10 7.5 -17.5z" />
    <glyph glyph-name="uni10EA.ss01" horiz-adv-x="363" 
d="M4 400h92v-571q0 -26 18 -43.5t43 -17.5q26 0 43.5 17.5t17.5 43.5v221q0 17 -11.5 28.5t-28.5 11.5h-48v90h38q19 0 32 13.5t13 32.5q0 9 -3.5 16.5t-11.5 19.5l-38 54q-11 16 -17.5 29.5t-6.5 33.5v21h86v-11q0 -8 5 -16.5t10 -16t9 -12.5l34 -48q14 -20 19.5 -35
t5.5 -37q0 -33 -13 -56t-28 -32v-2q17 -7 31.5 -26t14.5 -48v-223q0 -42 -20.5 -78.5t-55.5 -57.5t-77 -21t-77 21t-55.5 57.5t-20.5 78.5v563z" />
    <glyph glyph-name="uni10EB.ss01" horiz-adv-x="292" 
d="M37.5 25q-33.5 35 -33.5 86v195q0 44 28.5 74t71.5 30q25 0 40 -10h2v310h92v-599q0 -51 -33.5 -86t-83.5 -35t-83.5 35zM139 85.5q7 7.5 7 17.5v194q0 11 -7 18t-18 7q-10 0 -17.5 -7t-7.5 -18v-194q0 -10 7.5 -17.5t17.5 -7.5q11 0 18 7.5z" />
    <glyph glyph-name="uni10EC.ss01" horiz-adv-x="374" 
d="M100.5 -147q-19.5 111 -29.5 182l-41 291q-8 57 -18 148t-10 120q0 59 23 92.5t79 33.5q24 0 45.5 -10.5t32.5 -29.5h2q11 19 32 29.5t46 10.5q43 0 72.5 -30t29.5 -74q0 -23 -6 -81t-12 -75h-86q4 18 7 65t3 74q0 33 -23 33q-10 0 -16.5 -6.5t-6.5 -16.5v-79h-82v79
q0 10 -6.5 16.5t-16.5 6.5q-23 0 -23 -33q0 -39 7 -114l14 -135h159q24 0 36.5 -9t12.5 -33q0 -9 -9 -61l-5 -25l-29 -177l-12 -76q-12 -76 -26.5 -160t-24.5 -119h-88q-11 52 -30.5 163zM176 -220q0 22 1.5 31.5t1.5 12.5l42 438h-92l42 -438q0 -3 1.5 -12.5t1.5 -31.5h2z
" />
    <glyph glyph-name="uni10ED.ss01" horiz-adv-x="351" 
d="M4 30h92v-237q0 -11 7.5 -18t17.5 -7q11 0 18 7t7 18v363h-2q-12 -6 -31 -6q-42 0 -71.5 28.5t-29.5 73.5q0 46 31.5 77t78.5 31q16 0 26 -5h2v355h88v-411h2q17 14 38 45l13 18h2v-113q-16 -19 -26.5 -29.5t-28.5 -23.5v-394q0 -51 -33.5 -86.5t-83.5 -35.5t-83.5 35.5
t-33.5 86.5v228zM107.5 237.5q7.5 -7.5 17.5 -7.5q16 0 25 15v10q0 10 -7.5 17.5t-17.5 7.5t-17.5 -7t-7.5 -18q0 -10 7.5 -17.5z" />
    <glyph glyph-name="uni10EE.ss01" horiz-adv-x="292" 
d="M226.5 355.5q11.5 -23.5 11.5 -50.5v-193q0 -51 -33.5 -86.5t-83.5 -35.5t-83.5 35.5t-33.5 86.5v598h92v-310h2q4 24 15 45l33 59l83 -44l-35 -67q21 -14 32.5 -37.5zM146 297q0 11 -7 18t-18 7q-10 0 -17.5 -7t-7.5 -18v-194q0 -10 7.5 -17.5t17.5 -7.5q11 0 18 7.5
t7 17.5v194z" />
    <glyph glyph-name="uni10EF.ss01" horiz-adv-x="465" 
d="M2 -232h24q24 0 41.5 18.5t17.5 43.5q0 23 -14.5 39t-38.5 22v72l153 163l-20 169q-1 13 -9 20t-18 7t-17 -7t-7 -17q0 -13 7 -53h-89q-10 21 -10 53q0 50 33 81t84 31q48 0 79 -33.5t37 -87.5l11 -92l57 61q16 17 16 33q0 13 -9 22t-22 9h-8v86q18 2 20 2q48 0 80.5 -33
t32.5 -81q0 -45 -34 -81l-121 -126l37 -290q2 -14 9 -22.5t19 -8.5q9 0 16 6t8 16v5l-5 55h90q8 -48 8 -61q0 -44 -32.5 -76.5t-79.5 -32.5q-48 0 -81 31t-39 73l-30 231l-76 -79v-3q56 -51 56 -114q0 -38 -18 -70t-49.5 -50.5t-69.5 -18.5q-9 0 -20.5 2t-18.5 5v81z" />
    <glyph glyph-name="uni10F0.ss01" horiz-adv-x="292" 
d="M4 160h92v-57q0 -10 7.5 -17.5t17.5 -7.5q11 0 18 7.5t7 17.5v117q0 13 -8.5 21.5t-21.5 8.5h-38v90h38q13 0 21.5 8.5t8.5 21.5t-8.5 21.5t-21.5 8.5h-38v90h16q20 0 34 14.5t14 34.5q0 23 -23 42l-48 43q-14 12 -21.5 31t-7.5 42v13h85v-6q0 -10 10 -23t24 -25l25 -21
q26 -22 35 -42t9 -49q0 -28 -10 -51t-29 -38v-2q19 -10 31 -31.5t12 -48.5q0 -51 -42 -77v-2q16 -6 31 -25t15 -49v-111q0 -50 -33 -84.5t-82 -34.5t-84 35t-35 84v51z" />
    <glyph glyph-name="brevecombcy" horiz-adv-x="0" 
 />
    </font>
</defs>
</svg>
