<?xml version="1.0" standalone="no"?>
<!DOCTYPE svg PUBLIC "-//W3C//DTD SVG 1.1//EN" "http://www.w3.org/Graphics/SVG/1.1/DTD/svg11.dtd" >
<svg xmlns="http://www.w3.org/2000/svg" xmlns:xlink="http://www.w3.org/1999/xlink" version="1.1">
<metadata>
Created by FontForge 20161013 at Sat Jun 10 16:15:40 2017
 By ,,,
Copyright (c) 2017 by Anton Dumbadze, Givi Berdzenishvili. All rights reserved.
</metadata>
<defs>
<font id="GLUniversiteti-Regular" horiz-adv-x="397" >
  <font-face 
    font-family="GL Universiteti"
    font-weight="400"
    font-stretch="normal"
    units-per-em="1000"
    panose-1="2 1 5 3 2 2 2 6 0 3"
    ascent="800"
    descent="-200"
    x-height="378"
    cap-height="585"
    bbox="-110 -310 823 818"
    underline-thickness="50"
    underline-position="-150"
    unicode-range="U+000D-FB02"
  />
<missing-glyph horiz-adv-x="272" 
d="M46 92l64 97l-64 97q-4 5 -4 12q0 9 7 15t17 6t17 -9l53 -84l54 84q6 9 16 9t17 -6t7 -15q0 -7 -4 -12l-64 -97l64 -97q4 -8 4 -12q0 -9 -7 -15t-17 -6q-11 0 -17 9l-53 83l-53 -83q-7 -9 -17 -9t-17 6t-7 15q0 7 4 12z" />
    <glyph glyph-name=".notdef" horiz-adv-x="272" 
d="M46 92l64 97l-64 97q-4 5 -4 12q0 9 7 15t17 6t17 -9l53 -84l54 84q6 9 16 9t17 -6t7 -15q0 -7 -4 -12l-64 -97l64 -97q4 -8 4 -12q0 -9 -7 -15t-17 -6q-11 0 -17 9l-53 83l-53 -83q-7 -9 -17 -9t-17 6t-7 15q0 7 4 12z" />
    <glyph glyph-name=".null" horiz-adv-x="0" 
 />
    <glyph glyph-name="uni000D" unicode="&#xd;" horiz-adv-x="266" 
 />
    <glyph glyph-name="NULL" horiz-adv-x="0" 
 />
    <glyph glyph-name="NULL" horiz-adv-x="0" 
 />
    <glyph glyph-name="space" unicode=" " horiz-adv-x="160" 
 />
    <glyph glyph-name="exclam" unicode="!" horiz-adv-x="164" 
d="M60 586.5q9 8.5 22 8.5q12 0 21 -8.5t9 -22.5l-2 -133l-2 -73q-5 -158 -5 -208q0 -8 -6.5 -13t-14.5 -5q-21 0 -21 18q0 50 -5 208q-5 155 -5 206q0 14 9 22.5zM56 59.5q10 10.5 26 10.5q15 0 25.5 -11t10.5 -27q0 -15 -10.5 -26t-25.5 -11t-25.5 11t-10.5 26
q0 17 10 27.5z" />
    <glyph glyph-name="quotedbl" unicode="&#x22;" horiz-adv-x="216" 
d="M30 597q0 7 8 12t17 5q10 0 18.5 -5t8.5 -12l-8 -118q0 -18 -19 -18q-17 0 -17 18zM134 597q0 7 8 12t17 5q10 0 18.5 -5t8.5 -12l-8 -118q0 -18 -19 -18q-17 0 -17 18z" />
    <glyph glyph-name="numbersign" unicode="#" horiz-adv-x="466" 
d="M25.5 237q4.5 6 11.5 6h88l19 128h-77q-19 0 -19 21q0 20 16 20h88l23 146q3 12 20 12q26 0 26 -23l-22 -135h102l23 146q3 12 20 12q26 0 26 -23l-22 -135h78q8 0 14 -5.5t6 -14.5q0 -8 -5 -14.5t-11 -6.5h-88l-21 -128h78q8 0 14 -6t6 -15q0 -8 -5 -14t-12 -6h-88
l-25 -159q-5 -16 -23 -16q-10 0 -17 6t-7 17l23 152h-100l-25 -158q-1 -7 -7.5 -12t-14.5 -5q-10 0 -17 6t-7 17l22 152h-76q-19 0 -19 20q0 9 4.5 15zM172 243h101l20 128h-101z" />
    <glyph glyph-name="dollar" unicode="$" horiz-adv-x="399" 
d="M38.5 108.5q7.5 9.5 16.5 9.5q6 0 15 -9l23 -23q13 -13 39.5 -22.5t58.5 -10.5v233l-21 8l-20 7l-22 9l-18 10q-14 7 -18 12l-15 14q-9 8 -14 18l-9 20q-8 20 -8 53q0 66 39.5 99.5t105.5 37.5v25q0 7 5.5 11t13.5 4q6 0 12 -5t6 -10v-23q48 -2 85 -16t37 -33
q0 -10 -7.5 -19.5t-16.5 -9.5q-4 0 -32 14q-30 13 -66 15v-198q32 -12 51.5 -22.5t40.5 -28.5q44 -38 44 -116q0 -69 -36 -109t-100 -48v-31q0 -6 -6 -11t-12 -5q-8 0 -13.5 4.5t-5.5 11.5v28q-44 0 -80.5 14t-58 34.5t-21.5 38.5q0 10 7.5 19.5zM118.5 380.5
q22.5 -21.5 74.5 -39.5v185q-97 -7 -97 -84q0 -40 22.5 -61.5zM226 54q87 14 87 103q0 46 -21 72t-66 44v-219z" />
    <glyph glyph-name="percent" unicode="%" horiz-adv-x="606" 
d="M135 8l305 598q3 9 16 9q8 0 15 -6t7 -15q0 -8 -2 -11l-303 -593q-6 -12 -19 -12q-8 0 -14.5 6t-6.5 14q0 4 2 10zM32 494q0 46 26 68.5t73 22.5t73 -22.5t26 -68.5v-122q0 -46 -26 -68.5t-73 -22.5t-73 22.5t-26 68.5v122zM73 372q0 -55 58 -55q59 0 59 55v122
q0 55 -59 55q-58 0 -58 -55v-122zM375 210q0 45 26.5 68.5t72.5 23.5t73 -23.5t27 -68.5v-121q0 -46 -26.5 -68.5t-73.5 -22.5t-73 22.5t-26 68.5v121zM416 89q0 -55 58 -55q60 0 60 55v121q0 56 -60 56q-58 0 -58 -56v-121z" />
    <glyph glyph-name="ampersand" unicode="&#x26;" horiz-adv-x="488" 
d="M57 258.5q30 41.5 79 63.5q-34 39 -49.5 70.5t-15.5 69.5q0 62 41 99t104 37q37 0 66.5 -12.5t46.5 -30.5t17 -33q0 -10 -7 -17t-17 -7q-6 0 -14.5 9t-17.5 19q-9 12 -28.5 20t-43.5 8q-43 0 -67.5 -25.5t-24.5 -69.5q0 -24 11 -50t26 -45q23 -28 37 -43l162 -178
q23 51 28 146q0 12 5 16.5t19 4.5q22 0 22 -28q0 -95 -40 -175l74 -79q4 -5 4 -11q0 -9 -7.5 -16t-16.5 -7q-7 0 -15 8l-65 69q-58 -79 -160 -79q-55 0 -96.5 22.5t-64 61t-22.5 86.5q0 55 30 96.5zM118.5 76.5q37.5 -36.5 99.5 -36.5q79 0 120 65l-172 183
q-19 -11 -30.5 -19.5t-24.5 -22.5q-30 -30 -30 -79q0 -54 37.5 -90.5z" />
    <glyph glyph-name="quotesingle" unicode="'" horiz-adv-x="112" 
d="M30 597q0 7 8 12t17 5q10 0 18.5 -5t8.5 -12l-8 -118q0 -18 -19 -18q-17 0 -17 18z" />
    <glyph glyph-name="parenleft" unicode="(" horiz-adv-x="239" 
d="M50 467q0 40 20 73.5t54 53.5t74 20q26 0 26 -23q0 -10 -6 -17.5t-13 -7.5q-45 0 -74 -29.5t-29 -69.5v-346q0 -32 16 -54t40 -29q19 -6 47 -6q19 0 19 -24t-26 -24q-67 0 -107.5 36.5t-40.5 100.5v346z" />
    <glyph glyph-name="parenright" unicode=")" horiz-adv-x="239" 
d="M15 8q0 24 19 24q30 0 50.5 7t35.5 27q17 20 17 55v346q0 40 -29 69.5t-74 29.5q-8 0 -13.5 7t-5.5 18q0 23 26 23q40 0 74.5 -20t54.5 -53.5t20 -73.5v-346q0 -64 -41 -100.5t-107 -36.5q-27 0 -27 24z" />
    <glyph glyph-name="asterisk" unicode="*" horiz-adv-x="345" 
d="M32.5 490q6.5 7 16.5 7q4 0 5 -1l101 -35l-4 104q2 20 22 20q21 0 21 -20l-4 -105l101 36q2 1 7 1q8 0 14 -7.5t6 -16.5q0 -15 -13 -19l-100 -28l65 -88q3 -3 3 -11q0 -10 -7 -16t-17 -6q-11 0 -15 8l-61 89l-61 -90q-4 -7 -14 -7q-8 0 -16.5 6.5t-8.5 14.5t5 13l64 85
l-102 30q-14 5 -14 20q0 9 6.5 16z" />
    <glyph glyph-name="plus" unicode="+" horiz-adv-x="345" 
d="M30.5 209q5.5 7 13.5 7h106v104q0 8 7 14.5t16 6.5t16 -6.5t7 -14.5v-104h104q8 0 14.5 -7.5t6.5 -16.5t-6.5 -15.5t-14.5 -6.5h-104v-106q0 -9 -6.5 -14t-16.5 -5t-16.5 5.5t-6.5 13.5v106h-106q-19 0 -19 22q0 10 5.5 17z" />
    <glyph glyph-name="comma" unicode="," horiz-adv-x="137" 
d="M42.5 59q10.5 11 25.5 11t26 -11t11 -27q0 -9 -31 -90q-4 -9 -16 -9q-7 0 -13 4.5t-6 10.5t1 8l16 42q-24 9 -24 34q0 16 10.5 27z" />
    <glyph glyph-name="hyphen" unicode="-" horiz-adv-x="330" 
d="M47.5 209.5q5.5 6.5 14.5 6.5h208q8 0 14 -7t6 -17q0 -9 -6 -15.5t-14 -6.5h-208q-20 0 -20 22q0 11 5.5 17.5z" />
    <glyph glyph-name="period" unicode="." horiz-adv-x="137" 
d="M42.5 59.5q10.5 10.5 26.5 10.5q14 0 25 -11.5t11 -26.5q0 -14 -11 -25.5t-25 -11.5q-16 0 -26.5 11t-10.5 26q0 17 10.5 27.5z" />
    <glyph glyph-name="slash" unicode="/" horiz-adv-x="379" 
d="M18 8l305 598q5 9 16 9q9 0 16 -6t7 -15q0 -8 -3 -11l-303 -593q-5 -12 -19 -12q-8 0 -14.5 6t-6.5 14q0 4 2 10z" />
    <glyph glyph-name="zero" unicode="0" horiz-adv-x="454" 
d="M88 62.5q48 -74.5 139 -74.5t139 74.5t48 215.5t-48 215t-139 74t-139 -74t-48 -215t48 -215.5zM134 455.5q32 61.5 93 61.5t93 -61.5t32 -177.5t-32 -178t-93 -62t-93 62t-32 178t32 177.5z" />
    <glyph glyph-name="one" unicode="1" horiz-adv-x="308" 
d="M279.5 43.5q8.5 -8.5 8.5 -21.5v-2q0 -13 -8.5 -21.5t-21.5 -8.5h-198q-13 0 -21.5 8.5t-8.5 21.5v2q0 13 8.5 21.5t21.5 8.5h78v404l-46 -22q-20 -9 -30 -9q-13 0 -22 9t-9 22q0 12 8.5 21.5t20.5 13.5q26 8 42.5 20.5t34.5 31.5q12 14 20 20t19 6q13 0 22.5 -9t9.5 -22
q0 -8 -2 -34q-6 -46 -6 -112v-340h58q13 0 21.5 -8.5z" />
    <glyph glyph-name="two" unicode="2" horiz-adv-x="444" 
d="M173.5 115.5q34.5 32.5 82.5 70.5q51 42 79.5 69.5t47.5 62t19 75.5q0 83 -50 129.5t-132 46.5q-53 0 -93.5 -23.5t-62.5 -64t-22 -90.5q0 -16 8 -25.5t22 -9.5q15 0 23.5 9.5t8.5 25.5q0 20 1 33q2 22 18 44t42 36.5t55 14.5q50 0 85 -35.5t35 -89.5q0 -32 -11 -55
t-30.5 -41.5t-58.5 -50.5q-53 -43 -99 -86t-99 -109q-12 -15 -12 -28q0 -15 9.5 -24.5t24.5 -9.5h238q16 0 31.5 7t25.5 21l39 56q6 9 6 22q0 12 -7 21t-20 9q-21 0 -35 -22l-18 -27q-14 -21 -21.5 -27t-23.5 -6h-169q29 39 63.5 71.5z" />
    <glyph glyph-name="three" unicode="3" horiz-adv-x="458" 
d="M296 496q-31 23 -71 23q-34 0 -57 -13.5t-36 -33.5l-13 -21q-12 -21 -20.5 -28.5t-25.5 -7.5q-12 0 -19.5 9t-7.5 24q0 18 12 38.5t34 39.5q25 21 59 32t74 11q73 0 118.5 -36t45.5 -97q0 -37 -19.5 -67.5t-62.5 -58.5q50 -16 80.5 -56.5t30.5 -87.5q0 -71 -55 -124
q-28 -27 -61.5 -40t-79.5 -13q-42 0 -81 15t-65 42q-21 22 -33.5 47t-12.5 45q0 17 9 26.5t26 9.5q12 0 19.5 -7t10.5 -16q17 -59 51 -85.5t83 -26.5q32 0 61 16t47.5 43t18.5 60q0 59 -38 89.5t-102 30.5q-24 0 -37 -2q-17 -2 -27 7t-10 24q0 13 10.5 22.5t26.5 8.5
q9 -1 25 -1q63 0 93 23t30 70q0 43 -31 66z" />
    <glyph glyph-name="four" unicode="4" horiz-adv-x="442" 
d="M20 151q0 9 6 21l248 384q8 13 26 13h2q14 0 22 -8t8 -22v-358h60q14 0 22 -8t8 -22v-2q0 -14 -8 -22t-22 -8h-60v-99q0 -14 -8 -22t-22 -8h-2q-14 0 -22 8t-8 22v99h-220q-14 0 -22 8t-8 22v2zM270 181v278l-178 -278h178z" />
    <glyph glyph-name="five" unicode="5" horiz-adv-x="466" 
d="M115 331q50 45 132 45q34 0 68 -14.5t59 -39.5q25 -24 38.5 -58t13.5 -71q0 -58 -26.5 -104t-73.5 -72t-107 -26t-105.5 22.5t-66.5 61.5q-17 28 -17 53q0 12 10.5 22t23.5 10q14 0 24.5 -9t14.5 -25q9 -38 43 -61.5t74 -23.5q49 0 81.5 21.5t47.5 54.5t15 66
q0 36 -17 68t-47 51.5t-66 19.5q-30 0 -54.5 -11.5t-55.5 -32.5q-30 -21 -42 -21q-15 0 -26.5 10.5t-11.5 24.5l4 26l35 196q4 26 17 41t32 15l8 -1q69 -12 122 -12q54 0 125 12q14 2 23.5 -5.5t9.5 -21.5q0 -21 -32 -29.5t-89 -8.5q-28 0 -68 2t-56 3l-30 2z" />
    <glyph glyph-name="six" unicode="6" horiz-adv-x="463" 
d="M162.5 335.5q44.5 22.5 94.5 22.5q48 0 86 -23.5t59 -64.5t21 -91q0 -84 -48 -136.5t-130 -52.5q-100 0 -152.5 73.5t-52.5 203.5q0 135 50 218.5t151 83.5q44 0 80.5 -17t58.5 -48q18 -25 18 -50q0 -13 -9 -22t-22 -9q-25 0 -36 32q-10 28 -37 46t-57 18
q-69 0 -102 -69.5t-33 -181.5q16 45 60.5 67.5zM299.5 59q27.5 19 44.5 50.5t17 67.5q0 37 -17 67t-44.5 47t-57.5 17q-50 0 -85 -36.5t-35 -88.5q0 -39 16 -71.5t43.5 -52t59.5 -19.5q31 0 58.5 19z" />
    <glyph glyph-name="seven" unicode="7" horiz-adv-x="363" 
d="M347 514q-60 -105 -100 -228h43q11 0 19 -8t8 -19t-8 -19t-19 -8h-60q-30 -105 -47 -211q-5 -31 -31 -31q-12 0 -21.5 9.5t-9.5 21.5q0 15 16.5 74t41.5 137h-45q-11 0 -19 8t-8 19t8 19t19 8h64q49 141 89 226q-94 -9 -154 -9q-123 0 -123 39q0 11 8.5 19t20.5 8
q10 0 32 -5q42 -11 80 -11q46 0 125 12q36 4 38 4q16 0 27.5 -10t11.5 -25q0 -9 -6 -20z" />
    <glyph glyph-name="eight" unicode="8" horiz-adv-x="455" 
d="M104.5 532q44.5 37 119.5 37q81 0 125.5 -36.5t44.5 -105.5q0 -44 -23 -74.5t-74 -48.5q46 -11 74.5 -32.5t43.5 -56.5q10 -21 10 -57q0 -52 -26.5 -90t-71.5 -58t-98 -20q-90 0 -144.5 45t-54.5 122q0 60 32 96t97 52q-54 17 -76.5 46.5t-22.5 76.5q0 67 44.5 104z
M152 491q-30 -28 -30 -70q0 -39 31 -65.5t74 -26.5q27 0 51 14t39 35.5t15 43.5q0 44 -32 70.5t-74 26.5q-44 0 -74 -28zM342.5 222q-20.5 27 -53 41.5t-64.5 14.5q-33 0 -63.5 -15t-50 -42t-19.5 -60q0 -61 41.5 -91t94.5 -30q55 0 95 30t40 91q0 34 -20.5 61z" />
    <glyph glyph-name="nine" unicode="9" horiz-adv-x="463" 
d="M300.5 223.5q-44.5 -22.5 -94.5 -22.5q-48 0 -86 23.5t-59 64.5t-21 91q0 84 48 136.5t130 52.5q100 0 152.5 -73.5t52.5 -203.5q0 -135 -50 -218.5t-151 -83.5q-44 0 -80.5 17t-58.5 48q-18 26 -18 50q0 13 9 22t22 9q25 0 36 -32q10 -28 37 -46t57 -18q69 0 102 69.5
t33 181.5q-16 -45 -60.5 -67.5zM163.5 500q-27.5 -19 -44.5 -50.5t-17 -67.5q0 -37 17 -67t44.5 -47t57.5 -17q50 0 85 36.5t35 88.5q0 39 -16 71.5t-43.5 52t-59.5 19.5q-31 0 -58.5 -19z" />
    <glyph glyph-name="colon" unicode=":" horiz-adv-x="162" 
d="M55.5 327.5q10.5 10.5 26.5 10.5q14 0 25 -11t11 -26q0 -14 -11 -25.5t-25 -11.5q-16 0 -26.5 11t-10.5 26q0 16 10.5 26.5zM55.5 59.5q10.5 10.5 26.5 10.5q14 0 25 -11.5t11 -26.5q0 -14 -11 -25.5t-25 -11.5q-16 0 -26.5 11t-10.5 26q0 17 10.5 27.5z" />
    <glyph glyph-name="semicolon" unicode=";" horiz-adv-x="167" 
d="M59.5 327.5q10.5 10.5 26.5 10.5q14 0 25 -11t11 -26q0 -14 -11 -25.5t-25 -11.5q-16 0 -26.5 11t-10.5 26q0 16 10.5 26.5zM56.5 59q10.5 11 25.5 11t26 -11t11 -27q0 -12 -30 -90q-4 -9 -16 -9q-8 0 -13.5 4t-5.5 11v8l16 42q-24 9 -24 34q0 16 10.5 27z" />
    <glyph glyph-name="less" unicode="&#x3c;" horiz-adv-x="320" 
d="M33 200q-13 9 -13 22t13 22l215 142q3 4 10 4q9 0 16.5 -7.5t7.5 -17.5q0 -11 -8 -17l-191 -126l191 -126q8 -6 8 -17q0 -10 -7.5 -17.5t-16.5 -7.5q-7 0 -10 4z" />
    <glyph glyph-name="equal" unicode="=" horiz-adv-x="347" 
d="M58.5 311.5q5.5 6.5 13.5 6.5h202q8 0 14 -6.5t6 -16.5t-6 -16.5t-14 -6.5h-202q-9 0 -14 6.5t-5 16.5t5.5 16.5zM58.5 149.5q5.5 6.5 13.5 6.5h202q8 0 14 -6.5t6 -16.5t-6 -16.5t-14 -6.5h-202q-9 0 -14 6t-5 17q0 10 5.5 16.5z" />
    <glyph glyph-name="greater" unicode="&#x3e;" horiz-adv-x="319" 
d="M46 96l191 126l-191 126q-8 6 -8 17q0 10 7.5 17.5t16.5 7.5q7 0 10 -4l215 -142q13 -9 13 -22t-13 -22l-215 -142q-3 -4 -10 -4q-9 0 -16.5 7.5t-7.5 17.5q0 11 8 17z" />
    <glyph glyph-name="question" unicode="?" horiz-adv-x="318" 
d="M35 562.5q17 14.5 45.5 23.5t60.5 9q71 0 111 -39t40 -103q0 -32 -12.5 -63.5t-28.5 -51.5q-21 -23 -37 -37q-28 -27 -37.5 -39.5t-14.5 -34.5q-4 -23 -4 -77q0 -18 -22 -18t-22 23q0 59 8.5 89t26.5 50q21 21 29 28q26 25 36 37t21 35q11 27 11 55q0 48 -28 75t-80 27
q-48 0 -82 -29q-10 -10 -18 -10q-7 0 -13.5 6.5t-6.5 15.5q0 14 17 28.5zM110 58.5q11 11.5 26 11.5t26 -11.5t11 -26.5q0 -14 -11 -25.5t-26 -11.5t-26 11.5t-11 25.5q0 15 11 26.5z" />
    <glyph glyph-name="at" unicode="@" horiz-adv-x="573" 
d="M106.5 372q64.5 74 187.5 74q118 0 182 -66.5t64 -190.5q0 -49 -9 -82.5t-30 -56.5q-22 -24 -58 -24q-29 0 -50.5 15t-26.5 37q-25 -25 -46 -35t-53 -10q-47 0 -73.5 21.5t-26.5 65.5q0 50 38 70t119 20h34v16q0 35 -19 51.5t-59 16.5q-29 0 -52 -10q-20 -10 -24 -10
q-7 0 -12 7t-5 15q0 16 31.5 27.5t69.5 11.5q53 0 83.5 -27t30.5 -75v-133q2 -17 15 -28.5t29 -11.5q54 0 54 123q0 109 -52.5 166.5t-155.5 57.5q-57 0 -99 -18.5t-66 -52.5q-45 -63 -45 -162q0 -91 40 -151q21 -32 59 -50t87 -18q44 0 77 13l36 12q7 0 12 -6t5 -12
q0 -16 -43.5 -30t-92.5 -14q-63 0 -113 29.5t-78.5 87t-28.5 139.5q0 124 64.5 198zM228.5 81.5q16.5 -13.5 44.5 -13.5q36 0 61.5 20.5t25.5 45.5v44h-33q-61 0 -88 -12.5t-27 -45.5q0 -25 16.5 -38.5z" />
    <glyph glyph-name="A" unicode="A" horiz-adv-x="432" 
d="M18 28l167 543q6 19 31 19q26 0 32 -19l166 -543q0 -2 1 -2v-3q0 -9 -10 -16t-22 -7q-15 0 -20 14l-37 123h-221l-37 -123q-3 -14 -21 -14q-11 0 -20.5 6.5t-9.5 15.5q0 5 1 6zM118 182h195l-97 323z" />
    <glyph glyph-name="B" unicode="B" horiz-adv-x="430" 
d="M61 565q0 9 7 14.5t17 5.5h131q37 0 64 -6t51 -20q48 -29 48 -110q0 -50 -18 -84t-50 -48q42 -17 62.5 -49.5t20.5 -88.5v-14q0 -83 -42 -124t-117 -41h-150q-11 0 -17.5 6t-6.5 14v545zM113 340h105q57 0 82.5 24t25.5 79q0 51 -27.5 72t-84.5 21h-101v-196zM113 49h116
q112 0 112 118v14q0 113 -112 113h-116v-245z" />
    <glyph glyph-name="C" unicode="C" horiz-adv-x="418" 
d="M54 414q0 84 45.5 127.5t122.5 43.5q75 0 120 -38t45 -96q0 -18 -5.5 -25t-20.5 -7q-25 0 -27 20q0 24 -12 49q-16 29 -52 42q-19 6 -48 6q-115 0 -115 -122v-248q0 -122 119 -122q33 0 55.5 9.5t32.5 26.5q10 16 14 28.5t6 33.5q3 21 27 21q15 0 20.5 -7t5.5 -26
q0 -58 -46 -96.5t-121 -38.5q-76 0 -121 43t-45 128v248z" />
    <glyph glyph-name="D" unicode="D" horiz-adv-x="448" 
d="M61 566q0 8 7 13.5t17 5.5h141q79 0 123.5 -42.5t44.5 -128.5v-243q0 -86 -44.5 -128.5t-123.5 -42.5h-141q-10 0 -17 6t-7 14v546zM114 49h112q55 0 85 31t30 91v243q0 60 -30 91t-85 31h-112v-487z" />
    <glyph glyph-name="E" unicode="E" horiz-adv-x="406" 
d="M61 565q0 9 7 14.5t17 5.5h285q20 0 20 -23q0 -11 -5.5 -18.5t-14.5 -7.5h-256v-220h125q10 0 15 -6.5t5 -17.5q0 -22 -20 -22h-125v-221h256q9 0 14.5 -7t5.5 -18q0 -24 -20 -24h-285q-10 0 -17 6t-7 15v544z" />
    <glyph glyph-name="F" unicode="F" horiz-adv-x="395" 
d="M61 565q0 9 7 14.5t17 5.5h283q9 0 14.5 -6.5t5.5 -16.5q0 -11 -5.5 -18.5t-14.5 -7.5h-254v-220h126q9 0 14 -6.5t5 -17.5q0 -22 -19 -22h-126v-250q0 -9 -8 -14.5t-19 -5.5q-26 0 -26 20v545z" />
    <glyph glyph-name="G" unicode="G" horiz-adv-x="433" 
d="M54 414q0 86 44 128.5t122 42.5q76 0 121.5 -39t45.5 -100q0 -27 -26 -27q-25 0 -27 20q-10 97 -113 97q-114 0 -114 -122v-248q0 -61 29.5 -91.5t84.5 -30.5t84 30.5t29 91.5v96h-107q-9 0 -14 6.5t-5 16.5q0 9 5 15.5t14 6.5h141q19 0 19 -21v-120q0 -86 -44 -128.5
t-122 -42.5q-79 0 -123 42.5t-44 128.5v248z" />
    <glyph glyph-name="H" unicode="H" horiz-adv-x="458" 
d="M61 566q0 19 26 19q27 0 27 -19v-240h231v240q0 19 26 19q27 0 27 -19v-545q0 -9 -8 -15t-19 -6t-18.5 5.5t-7.5 15.5v260h-231v-260q0 -9 -8 -15t-19 -6t-18.5 5.5t-7.5 15.5v545z" />
    <glyph glyph-name="I" unicode="I" horiz-adv-x="174" 
d="M61 566q0 19 26 19q27 0 27 -19v-545q0 -9 -8 -15t-19 -6t-18.5 5.5t-7.5 15.5v545z" />
    <glyph glyph-name="J" unicode="J" horiz-adv-x="410" 
d="M44 163q27 0 27 -21q0 -45 31 -71.5t83 -26.5q55 0 84 30.5t29 91.5v370h-112q-9 0 -14.5 7.5t-5.5 18.5q0 10 5.5 16.5t14.5 6.5h140q25 0 25 -20v-399q0 -86 -43.5 -128.5t-121.5 -42.5q-75 0 -121.5 39.5t-46.5 101.5q0 27 26 27z" />
    <glyph glyph-name="K" unicode="K" horiz-adv-x="418" 
d="M61 566q0 19 26 19q27 0 27 -19v-284l231 295q6 8 17 8q9 0 18.5 -9t9.5 -18q0 -8 -4 -12l-172 -214l197 -296q3 -4 3 -10q0 -10 -9.5 -19t-20.5 -9t-20 12l-185 278l-65 -83v-184q0 -9 -8 -15t-19 -6t-18.5 5.5t-7.5 15.5v545z" />
    <glyph glyph-name="L" unicode="L" horiz-adv-x="370" 
d="M61 566q0 19 26 19q27 0 27 -19v-517h228q17 0 17 -24q0 -25 -17 -25h-257q-10 0 -17 6t-7 15v545z" />
    <glyph glyph-name="M" unicode="M" horiz-adv-x="534" 
d="M61 559q0 26 26 26q24 0 43 -37l137 -266l138 266q19 37 42 37q27 0 27 -26v-538q0 -10 -7.5 -15.5t-19.5 -5.5q-10 0 -18 6t-8 15v449l-133 -251q-9 -17 -22 -17q-12 0 -20 17l-132 254v-452q0 -9 -8 -15t-19 -6t-18.5 5.5t-7.5 15.5v538z" />
    <glyph glyph-name="N" unicode="N" horiz-adv-x="458" 
d="M61 565q0 20 26 20q23 0 42 -37l216 -426v444q0 19 26 19q27 0 27 -19v-545q0 -9 -8 -15t-19 -6q-20 0 -35 30l-222 433v-442q0 -9 -8 -15t-19 -6t-18.5 5.5t-7.5 15.5v544z" />
    <glyph glyph-name="O" unicode="O" horiz-adv-x="442" 
d="M54 414q0 86 44 128.5t123 42.5q78 0 122 -42.5t44 -128.5v-248q0 -86 -44 -128.5t-122 -42.5q-79 0 -123 42.5t-44 128.5v248zM107 166q0 -122 114 -122q113 0 113 122v248q0 122 -113 122q-114 0 -114 -122v-248z" />
    <glyph glyph-name="P" unicode="P" horiz-adv-x="422" 
d="M61 566q0 18 22 19h147q78 0 121.5 -42t43.5 -128v-8q0 -85 -44 -127.5t-122 -42.5h-115v-216q0 -9 -8 -15t-19 -6t-18.5 5.5t-7.5 15.5v545zM114 282h115q55 0 84 30.5t29 92.5v9q0 122 -113 122h-115v-254z" />
    <glyph glyph-name="Q" unicode="Q" horiz-adv-x="442" 
d="M54 414q0 86 44 128.5t123 42.5q78 0 122 -42.5t44 -128.5v-248q0 -80 -38 -122.5t-107 -47.5v-63q0 -9 -6 -14.5t-14 -5.5q-9 0 -15 5.5t-6 14.5v63q-70 5 -108.5 47t-38.5 123v248zM107 166q0 -108 94 -120v60q0 19 21 19q20 0 20 -19v-60q92 12 92 120v248
q0 122 -113 122q-114 0 -114 -122v-248z" />
    <glyph glyph-name="R" unicode="R" horiz-adv-x="423" 
d="M61 566q0 18 20 19h141q82 0 127.5 -38.5t45.5 -119.5q0 -133 -125 -154l124 -237q3 -3 3 -10q0 -11 -9.5 -19.5t-21.5 -8.5q-14 0 -28 28l-123 240h-101v-245q0 -9 -8 -15t-19 -6t-18.5 5.5t-7.5 15.5v545zM114 312h108q120 0 120 113q0 111 -120 111h-108v-224z" />
    <glyph glyph-name="S" unicode="S" horiz-adv-x="395" 
d="M36.5 100.5q7.5 9.5 16.5 9.5q6 0 16 -10l22 -23q13 -14 39.5 -23.5t59.5 -9.5q57 0 88 28.5t31 81.5q0 35 -14.5 60.5t-38.5 39.5q-24 16 -51 26l-58 22q-33 14 -54 29.5t-35 42.5q-15 27 -15 67t15.5 71t42.5 46q49 28 112 28q51 0 92.5 -14t41.5 -34q0 -10 -7 -20
t-16 -10q-7 0 -18 8q-42 22 -94 22q-53 0 -84.5 -22.5t-31.5 -69.5q0 -33 19 -57t50 -35q75 -25 128 -55q31 -17 50 -53.5t19 -86.5q0 -80 -45 -122.5t-124 -42.5q-44 0 -81.5 14t-60 34.5t-22.5 38.5q0 10 7.5 19.5z" />
    <glyph glyph-name="T" unicode="T" horiz-adv-x="385" 
d="M17.5 577.5q5.5 7.5 14.5 7.5h321q9 0 14.5 -7t5.5 -17q0 -11 -5.5 -18.5t-14.5 -7.5h-134v-514q0 -9 -8 -15t-18 -6q-12 0 -19.5 5.5t-7.5 15.5v514h-134q-9 0 -14.5 7t-5.5 18q0 10 5.5 17.5z" />
    <glyph glyph-name="U" unicode="U" horiz-adv-x="453" 
d="M58 566q0 19 27 19q26 0 26 -19v-400q0 -60 30 -91t85 -31q56 0 86 31t30 91v400q0 19 26 19t26 -19v-400q0 -86 -44.5 -128.5t-123.5 -42.5t-123.5 42.5t-44.5 128.5v400z" />
    <glyph glyph-name="V" unicode="V" horiz-adv-x="430" 
d="M25 578.5q9 6.5 21 6.5q18 0 21 -14l148 -491l147 491q6 14 20 14q12 0 22 -7t10 -16v-3v-2l-167 -543q-6 -19 -32 -19q-25 0 -31 19l-167 543q-1 1 -1 5q0 10 9 16.5z" />
    <glyph glyph-name="W" unicode="W" horiz-adv-x="630" 
d="M27.5 578.5q9.5 6.5 20.5 6.5q16 0 21 -14l138 -491l80 298q5 19 28 19q21 0 27 -19l80 -298l139 491q3 14 21 14q11 0 20.5 -6.5t9.5 -15.5q0 -5 -1 -6l-157 -543q-6 -19 -32 -19t-31 19l-76 283l-76 -283q-5 -19 -31 -19t-32 19l-158 543v6q0 9 9.5 15.5z" />
    <glyph glyph-name="X" unicode="X" horiz-adv-x="387" 
d="M22 38l138 255l-135 253q-5 10 -5 17q0 10 9 16.5t22 6.5q14 0 27 -27l116 -220l115 220q13 27 27 27q13 0 22 -6.5t9 -16.5q0 -9 -5 -17l-136 -253l139 -255q3 -6 3 -13q0 -10 -10 -18.5t-21 -8.5t-25 26l-118 224l-119 -224q-14 -26 -25 -26t-21 8.5t-10 18.5q0 7 3 13
z" />
    <glyph glyph-name="Y" unicode="Y" horiz-adv-x="425" 
d="M24 578q9 7 20 7t21 -16l147 -292l148 292q10 16 21 16q10 0 19.5 -7t9.5 -16q0 -7 -4 -14l-166 -318l-2 -6v-203q0 -10 -7.5 -15.5t-18.5 -5.5t-18.5 6t-7.5 15v203q0 5 -1 6l-166 318q-4 10 -4 14q0 9 9 16z" />
    <glyph glyph-name="Z" unicode="Z" horiz-adv-x="387" 
d="M24 37l266 499h-241q-9 0 -14.5 7t-5.5 18q0 10 5.5 17t14.5 7h290q20 0 20 -17q0 -10 -6 -21l-266 -498h262q9 0 14.5 -7t5.5 -17t-5.5 -17.5t-14.5 -7.5h-311q-19 0 -19 18q0 7 5 19z" />
    <glyph glyph-name="bracketleft" unicode="[" horiz-adv-x="242" 
d="M54 594q0 9 7.5 14.5t16.5 5.5h129q9 0 14.5 -7t5.5 -16q0 -10 -5.5 -17.5t-14.5 -7.5h-100v-535h100q9 0 14.5 -7t5.5 -17t-5.5 -17t-14.5 -7h-129q-9 0 -16.5 5.5t-7.5 14.5v591z" />
    <glyph glyph-name="backslash" unicode="\" horiz-adv-x="277" 
d="M24.5 597q6.5 6 16.5 6q12 0 17 -11l200 -566v-6q0 -8 -6 -14t-15 -6q-14 0 -19 14l-199 560q-1 2 -1 8q0 9 6.5 15z" />
    <glyph glyph-name="bracketright" unicode="]" horiz-adv-x="242" 
d="M15 7q0 10 5.5 17t13.5 7h101v535h-101q-7 0 -13 7.5t-6 17.5q0 9 5 16t14 7h129q10 0 17.5 -5.5t7.5 -14.5v-591q0 -9 -7.5 -14.5t-17.5 -5.5h-129q-8 0 -13 7q-6 7 -6 17z" />
    <glyph glyph-name="asciicircum" unicode="^" horiz-adv-x="214" 
d="M10 512l84 45q8 4 13 4q6 0 14 -4l83 -45q10 -4 10 -18q0 -8 -4.5 -14t-11.5 -6l-8 3l-83 44l-83 -45l-7 -2q-7 0 -12 6t-5 14q0 12 10 18z" />
    <glyph glyph-name="underscore" unicode="_" horiz-adv-x="269" 
d="M-8.5 -6.5q5.5 6.5 14.5 6.5h256q8 0 14 -7t6 -17t-6 -16t-14 -6h-256q-20 0 -20 22q0 11 5.5 17.5z" />
    <glyph glyph-name="grave" unicode="`" horiz-adv-x="124" 
d="M6 553.5q6 7.5 13 7.5q4 0 7 -3l89 -48q9 -4 9 -15q0 -9 -6.5 -15.5t-14.5 -6.5l-8 2l-85 46q-10 4 -10 17q0 8 6 15.5z" />
    <glyph glyph-name="a" unicode="a" horiz-adv-x="350" 
d="M70 185q46 25 140 25h41v19q0 47 -24 78t-70 31q-33 0 -58 -12q-26 -12 -28 -12q-9 0 -15 8.5t-6 19.5q0 15 34.5 28t73.5 13q72 0 108.5 -42t36.5 -112v-208q0 -9 -7 -15t-18 -6q-10 0 -17 6t-7 15v35q-54 -62 -121 -62q-49 0 -79 27.5t-30 78.5q0 60 46 85zM95 55
q19 -17 51 -17q24 0 48.5 13t40.5 33t16 38v52h-33q-33 0 -54.5 -2.5t-43.5 -9.5q-44 -12 -44 -57q0 -33 19 -50z" />
    <glyph glyph-name="b" unicode="b" horiz-adv-x="387" 
d="M50 591q0 8 7.5 13.5t18.5 5.5t18.5 -5.5t7.5 -13.5v-269q16 28 43.5 44.5t63.5 16.5q39 0 72 -20t52 -54.5t19 -74.5v-88q0 -39 -20 -74t-52.5 -56.5t-69.5 -21.5q-35 0 -65.5 18t-43.5 44v-35q0 -8 -7.5 -14.5t-17.5 -6.5t-18 6.5t-8 14.5v570zM102 122q0 -15 14.5 -34
t37.5 -32.5t47 -13.5q39 0 69 32t30 72v88q0 39 -30 70t-70 31t-69 -28.5t-29 -72.5v-112z" />
    <glyph glyph-name="c" unicode="c" horiz-adv-x="329" 
d="M37 232q0 69 40 110t114 41q31 0 57 -8t41 -20t15 -24q0 -9 -7 -17t-16 -8q-5 0 -15 7q-32 22 -72 22q-51 0 -78 -27t-27 -76v-86q0 -50 27 -77t78 -27q45 0 76 24q11 7 15 7q10 0 17 -8t7 -18q0 -19 -34 -35q-33 -18 -83 -18q-75 0 -115 41t-40 111v86z" />
    <glyph glyph-name="d" unicode="d" horiz-adv-x="387" 
d="M36 234q0 40 19 74.5t52 54.5t72 20q35 0 63 -17t43 -44v269q0 8 8 13.5t19 5.5t18 -5.5t7 -13.5v-570q0 -8 -7.5 -14.5t-17.5 -6.5t-17.5 6.5t-7.5 14.5v35q-14 -26 -44 -44t-65 -18q-37 0 -70 21t-52.5 56.5t-19.5 74.5v88zM88 146q0 -40 30 -72t69 -32q24 0 46.5 13.5
t37 32.5t14.5 34v112q0 44 -29 72.5t-68 28.5q-40 0 -70 -31t-30 -70v-88z" />
    <glyph glyph-name="e" unicode="e" horiz-adv-x="366" 
d="M36 236q0 39 20.5 73t56 54t76.5 20q40 0 74.5 -19t54.5 -52t20 -74q0 -45 -21 -56q-12 -5 -21.5 -6.5t-26.5 -1.5h-181v-30q0 -47 34 -75.5t88 -28.5q43 0 79 24q9 8 17 8q9 0 15.5 -8t6.5 -17q0 -16 -34 -34q-38 -19 -86 -19q-76 0 -124 42t-48 110v90zM88 212h160
q24 0 32 5.5t8 21.5q0 41 -28.5 71t-71.5 30q-41 0 -70.5 -29t-29.5 -69v-30z" />
    <glyph glyph-name="f" unicode="f" horiz-adv-x="244" 
d="M50 463q0 39 19.5 73t52.5 54t71 20h20q10 0 16 -7t6 -17q0 -9 -6.5 -16t-15.5 -7h-14q-40 0 -68 -28.5t-29 -67.5v-89h115q7 0 12.5 -6t5.5 -14q0 -10 -5 -16.5t-13 -6.5h-115v-315q0 -9 -8 -14.5t-19 -5.5q-10 0 -17.5 5.5t-7.5 14.5v443z" />
    <glyph glyph-name="g" unicode="g" horiz-adv-x="362" 
d="M88 8q-44 15 -44 55q0 35 40 58q-44 37 -44 101v30q0 59 38 95t100 36q56 0 93 -33q12 23 27.5 36.5t29.5 13.5q11 0 17.5 -6t6.5 -15q0 -14 -14 -17q-27 -6 -44 -35q22 -29 22 -75v-30q0 -58 -39 -95.5t-100 -37.5q-31 0 -62 13q-25 -12 -25 -31q0 -30 65 -37
q66 -5 120 -20q29 -9 46.5 -31t17.5 -55q0 -54 -42.5 -84t-114.5 -30t-117 29.5t-45 77.5q0 60 68 87zM90 222q0 -42 24 -68t64 -26q39 0 63 26.5t24 67.5v30q0 41 -24 66.5t-63 25.5q-40 0 -64 -25.5t-24 -66.5v-30zM100.5 -127q30.5 -20 81.5 -20q50 0 78.5 20t28.5 53
q0 31 -27 47q-10 6 -27 10.5t-32 6.5q-5 1 -13 2t-20 2l-28 3q-72 -23 -72 -71q0 -33 30.5 -53z" />
    <glyph glyph-name="h" unicode="h" 
d="M50 591q0 8 7.5 13.5t18.5 5.5t18.5 -5.5t7.5 -13.5v-269q15 27 43 44t63 17q38 0 70.5 -20t52 -54.5t19.5 -74.5v-213q0 -10 -7.5 -15.5t-19.5 -5.5q-10 0 -17.5 6t-7.5 15v213q0 39 -30 70t-70 31q-39 0 -67.5 -28.5t-28.5 -72.5v-213q0 -8 -8 -14.5t-18 -6.5t-18 6.5
t-8 14.5v570z" />
    <glyph glyph-name="i" unicode="i" horiz-adv-x="153" 
d="M40 524q0 14 10.5 23.5t25.5 9.5q14 0 24 -9.5t10 -23.5t-10 -24t-24 -10q-13 0 -26 11q-10 9 -10 23zM50 359q0 8 7.5 13.5t18.5 5.5t18.5 -5.5t7.5 -13.5v-338q0 -8 -8 -14.5t-18 -6.5t-18 6.5t-8 14.5v338z" />
    <glyph glyph-name="j" unicode="j" horiz-adv-x="153" 
d="M40 524q0 14 10.5 23.5t25.5 9.5q14 0 24 -9.5t10 -23.5t-10 -24t-24 -10q-13 0 -26 11q-10 9 -10 23zM-23.5 -145q6.5 7 16.5 7q34 0 45.5 24t11.5 80v393q0 9 7 14t19 5q11 0 18.5 -5.5t7.5 -13.5v-393q0 -152 -105 -152q-14 0 -20.5 6.5t-6.5 17.5q0 10 6.5 17z" />
    <glyph glyph-name="k" unicode="k" horiz-adv-x="365" 
d="M50 591q0 8 7.5 13.5t18.5 5.5t18.5 -5.5t7.5 -13.5v-389l196 173q8 5 12 5q9 0 17.5 -7.5t8.5 -17.5q0 -9 -6 -14l-117 -103l138 -203q3 -4 3 -11q0 -9 -9 -17.5t-19 -8.5t-16 9l-134 198l-74 -65v-119q0 -8 -7.5 -14.5t-18.5 -6.5q-10 0 -18 6.5t-8 14.5v570z" />
    <glyph glyph-name="l" unicode="l" horiz-adv-x="166" 
d="M57 591q0 8 7 13.5t18 5.5q12 0 19.5 -5.5t7.5 -13.5v-570q0 -9 -7.5 -15t-19.5 -6q-10 0 -17.5 6.5t-7.5 14.5v570z" />
    <glyph glyph-name="m" unicode="m" horiz-adv-x="624" 
d="M50 359q0 8 7.5 13.5t18.5 5.5t18 -5.5t7 -13.5v-37q15 28 42.5 44.5t63.5 16.5q38 0 69 -22t45 -58q19 38 51.5 59t69.5 21t67.5 -18.5t49 -52.5t18.5 -78v-213q0 -9 -7.5 -15t-19.5 -6q-10 0 -17.5 6.5t-7.5 14.5v213q0 46 -26.5 73.5t-64.5 27.5t-66 -28t-28 -70v-217
q0 -20 -26 -20t-26 20v216q0 42 -26.5 70.5t-64.5 28.5q-39 0 -67 -28t-28 -73v-213q0 -8 -8 -14.5t-18 -6.5t-18 6.5t-8 14.5v338z" />
    <glyph glyph-name="n" unicode="n" 
d="M50 359q0 9 7 14t19 5q10 0 17 -5.5t7 -13.5v-37q14 27 42.5 44t64.5 17q38 0 71 -20t52.5 -54.5t19.5 -74.5v-213q0 -9 -8 -15t-19 -6q-10 0 -17.5 6t-7.5 15v213q0 39 -30 70t-70 31q-39 0 -67.5 -28.5t-28.5 -72.5v-213q0 -8 -8 -14.5t-18 -6.5q-11 0 -18.5 6.5
t-7.5 14.5v338z" />
    <glyph glyph-name="o" unicode="o" horiz-adv-x="374" 
d="M35 234q0 39 20.5 73.5t55.5 55t75 20.5q41 0 76 -20t56 -54.5t21 -74.5v-88q0 -39 -21.5 -74.5t-56.5 -56.5t-75 -21q-39 0 -74 21t-56 56.5t-21 74.5v88zM87 146q0 -41 29.5 -72.5t69.5 -31.5q41 0 71 31.5t30 72.5v88q0 40 -30 70.5t-71 30.5q-40 0 -69.5 -30.5
t-29.5 -70.5v-88z" />
    <glyph glyph-name="p" unicode="p" horiz-adv-x="387" 
d="M50 359q0 8 7.5 13.5t18.5 5.5t18 -5.5t7 -13.5v-37q15 27 43 44t64 17q39 0 72 -20t52.5 -54.5t19.5 -74.5v-88q0 -39 -20 -74t-52.5 -56.5t-69.5 -21.5q-34 0 -63.5 17.5t-44.5 44.5v-222q0 -7 -7.5 -13.5t-18.5 -6.5q-10 0 -18 6.5t-8 13.5v525zM102 122
q0 -15 14.5 -34t37.5 -32.5t47 -13.5q39 0 69 32t30 72v88q0 40 -30 70.5t-71 30.5q-39 0 -68 -28.5t-29 -72.5v-112z" />
    <glyph glyph-name="q" unicode="q" horiz-adv-x="387" 
d="M36 234q0 40 19.5 74.5t52.5 54.5t72 20q36 0 64 -17t43 -44v37q0 8 7 13.5t18 5.5t18 -5.5t7 -13.5v-525q0 -7 -7.5 -13.5t-17.5 -6.5q-11 0 -19 6.5t-8 13.5v222q-13 -26 -43.5 -44t-63.5 -18q-37 0 -70 21t-52.5 56.5t-19.5 74.5v88zM88 146q0 -40 30 -72t69 -32
q24 0 46.5 13.5t37 32.5t14.5 34v112q0 44 -29 72.5t-68 28.5q-40 0 -70 -31t-30 -70v-88z" />
    <glyph glyph-name="r" unicode="r" horiz-adv-x="265" 
d="M50 359q0 8 7.5 13.5t18.5 5.5t18 -5.5t7 -13.5v-39q15 28 43.5 45.5t63.5 17.5h28q8 0 14.5 -7.5t6.5 -16.5t-6.5 -16.5t-14.5 -7.5h-28q-43 0 -74.5 -33t-31.5 -84v-197q0 -8 -7.5 -14.5t-18.5 -6.5q-10 0 -18 6.5t-8 14.5v338z" />
    <glyph glyph-name="s" unicode="s" horiz-adv-x="308" 
d="M32 68q6 8 13 8q5 0 17 -9q14 -12 37 -20.5t51 -8.5q41 0 62 15.5t21 41.5q0 28 -19 45.5t-51 25.5q-6 2 -31 9t-44.5 17t-31.5 24q-21 21 -21 58q0 47 33.5 78t93.5 31q39 0 73 -12.5t34 -26.5q0 -8 -7 -17.5t-15 -9.5l-29 11q-30 11 -56 11q-38 0 -59 -18t-21 -44
q0 -43 71 -61q43 -11 66.5 -21t41.5 -32q20 -26 20 -65q0 -48 -34.5 -76t-94.5 -28q-33 0 -62.5 9t-46.5 22.5t-17 26.5q0 8 6 16z" />
    <glyph glyph-name="t" unicode="t" horiz-adv-x="238" 
d="M49 539q0 8 8 13.5t17 5.5q11 0 19 -5.5t8 -13.5v-161h103q8 0 13 -6t5 -15t-5.5 -15.5t-12.5 -6.5h-103v-217q0 -39 16.5 -55t57.5 -16h23q10 0 17 -6.5t7 -16.5t-7 -17t-17 -7h-23q-126 0 -126 118v421z" />
    <glyph glyph-name="u" unicode="u" 
d="M46 358q0 8 8 14t19 6q10 0 17.5 -6t7.5 -14v-213q0 -41 30 -72t70 -31q41 0 70.5 31t29.5 72v214q0 8 8 13.5t19 5.5q10 0 17.5 -5.5t7.5 -13.5v-214q0 -39 -20.5 -74t-55.5 -56t-76 -21t-76 21t-55.5 56t-20.5 74v213z" />
    <glyph glyph-name="v" unicode="v" horiz-adv-x="336" 
d="M21.5 373q9.5 7 21.5 7q14 0 19 -12l106 -288l106 285q6 15 18 15q10 0 21 -7t11 -16q0 -7 -3 -13l-129 -338q-4 -12 -24 -12q-19 0 -24 12l-129 338q-3 5 -3 12q0 10 9.5 17z" />
    <glyph glyph-name="w" unicode="w" horiz-adv-x="534" 
d="M21.5 373q9.5 7 21.5 7q14 0 19 -12l102 -285l82 260q5 14 21 14q18 0 21 -14l79 -263l105 288q3 12 18 12q12 0 21.5 -7t9.5 -16q0 -7 -3 -12l-125 -339q-4 -12 -21 -12q-16 0 -22 12l-83 260l-82 -256q-4 -16 -23 -16q-18 0 -22 16l-125 335q-3 6 -3 12q0 9 9.5 16z
" />
    <glyph glyph-name="x" unicode="x" horiz-adv-x="328" 
d="M23 31l107 160l-104 155q-4 8 -4 11q0 9 10.5 17.5t21.5 8.5t16 -8l94 -146l95 146q4 8 15 8t21.5 -8.5t10.5 -17.5q0 -6 -4 -11l-104 -155l107 -160q3 -4 3 -11q0 -9 -10 -17.5t-21 -8.5q-10 0 -15 8l-98 150l-97 -150q-6 -8 -17 -8q-9 0 -19.5 8.5t-10.5 17.5q0 5 3 11
z" />
    <glyph glyph-name="y" unicode="y" horiz-adv-x="336" 
d="M21 375.5q10 7.5 22 7.5q14 0 19 -11l109 -294l103 294q6 11 18 11q11 0 21.5 -8t10.5 -17q0 -5 -2 -7l-124 -336l-14 -39q-2 -4 -14.5 -34t-20.5 -43l-21 -32q-13 -18 -25 -27.5t-31 -17.5t-36 -8q-24 0 -24 24t16 24q36 0 67.5 43.5t48.5 110.5l-130 335q-3 5 -3 7
q0 10 10 17.5z" />
    <glyph glyph-name="z" unicode="z" horiz-adv-x="321" 
d="M27 41l196 292h-177q-8 0 -13.5 6.5t-5.5 15.5q0 10 5.5 16.5t13.5 6.5h227q8 0 14 -5.5t6 -14.5t-7 -20l-196 -292h193q8 0 13.5 -7t5.5 -17q0 -9 -5.5 -15.5t-13.5 -6.5h-242q-9 0 -15.5 6.5t-6.5 14.5q0 9 8 20z" />
    <glyph glyph-name="braceleft" unicode="{" horiz-adv-x="248" 
d="M24 308q0 11 7 16.5t17 5.5t17 4.5t7 12.5q0 10 -7 65q-8 51 -8 71q0 34 20.5 64.5t55 48.5t73.5 18q13 0 20 -7t7 -17q0 -9 -6 -16t-13 -7q-42 0 -73 -26.5t-31 -63.5q0 -19 8 -70l4 -39l3 -25q0 -12 -9.5 -23t-19.5 -13q10 -2 19.5 -12t9.5 -23l-2 -24l-5 -54
q-8 -64 -8 -85q0 -38 31.5 -58t72.5 -20q19 0 19 -23q0 -24 -28 -24q-63 0 -105.5 34.5t-42.5 87.5q0 23 8 86q7 66 7 77q0 8 -7 12.5t-17 4.5t-16 5q-8 5 -8 17z" />
    <glyph glyph-name="bar" unicode="|" horiz-adv-x="162" 
d="M54 595q0 8 8 13.5t19 5.5q10 0 18 -5.5t8 -13.5v-592q0 -8 -8 -14t-18 -6q-11 0 -19 6t-8 14v592z" />
    <glyph glyph-name="braceright" unicode="}" horiz-adv-x="248" 
d="M34 31q41 0 72.5 20t31.5 58q0 18 -7 85q-1 13 -2 21.5t-2 14.5q-4 32 -4 42q0 13 9.5 23t19.5 12q-10 2 -19.5 13t-9.5 23q0 5 8 64q7 53 7 70q0 37 -31 63.5t-73 26.5q-7 0 -13 7t-6 16q0 10 7 17t20 7q39 0 73.5 -18t55 -48.5t20.5 -64.5q0 -18 -7 -71q-8 -52 -8 -65
q0 -8 7 -12.5t17 -4.5t17 -5.5t7 -16.5t-7 -16.5t-17 -5.5t-17 -4.5t-7 -12.5q0 -14 8 -77q7 -66 7 -86q0 -53 -42.5 -87.5t-105.5 -34.5q-28 0 -28 24q0 23 19 23z" />
    <glyph glyph-name="asciitilde" unicode="~" horiz-adv-x="321" 
d="M37 194q0 19 22.5 32.5t47.5 13.5q19 0 53 -14q36 -13 53 -13q20 0 36 12q16 11 20 11q6 0 11 -6t5 -12q0 -21 -21.5 -33.5t-45.5 -12.5q-20 0 -53 14q-34 14 -54 14t-37 -13t-22 -13q-15 0 -15 20z" />
    <glyph glyph-name="uni00A0" unicode="&#xa0;" horiz-adv-x="160" 
 />
    <glyph glyph-name="exclamdown" unicode="&#xa1;" horiz-adv-x="163" 
d="M56 584q11 11 26 11q14 0 25 -11t11 -26q0 -16 -10.5 -26.5t-25.5 -10.5t-26 10.5t-11 26.5q0 15 11 26zM56 234q5 155 5 206q0 9 6 13.5t14 4.5q21 0 21 -18q0 -51 5 -206q5 -158 5 -208q0 -14 -8.5 -22.5t-22.5 -8.5q-13 0 -21.5 8.5t-8.5 22.5q0 50 5 208z" />
    <glyph glyph-name="cent" unicode="&#xa2;" horiz-adv-x="330" 
d="M28 302q0 61 32 100.5t92 48.5v87q0 7 5.5 12t13.5 5t14 -5t6 -12v-86q44 -1 75.5 -16t31.5 -34q0 -10 -6.5 -17.5t-16.5 -7.5q-6 0 -13 7q-30 21 -71 22v-224q42 1 70 23q7 7 14 7q10 0 17.5 -7.5t7.5 -17.5q0 -19 -33 -34.5t-76 -17.5v-85q0 -7 -6 -12.5t-14 -5.5
q-7 0 -13 5.5t-6 12.5v87q-60 7 -92 47.5t-32 101.5v16zM76 286q0 -87 76 -102v220q-76 -15 -76 -102v-16z" />
    <glyph glyph-name="sterling" unicode="&#xa3;" horiz-adv-x="390" 
d="M24.5 42q5.5 7 14.5 7h47l35 245h-61q-8 0 -13 5.5t-5 14.5q0 10 5 16.5t13 6.5h67l18 126q6 41 31.5 76t64 55t80.5 20h15q10 0 16 -7t6 -17t-6 -17t-16 -7h-19q-46 0 -80.5 -30t-39.5 -73l-18 -126h119q17 0 17 -23q0 -20 -17 -20h-125l-35 -245h202q9 0 13.5 -7
t4.5 -17q0 -11 -4.5 -18t-13.5 -7h-301q-20 0 -20 25q0 10 5.5 17z" />
    <glyph glyph-name="currency" unicode="&#xa4;" horiz-adv-x="382" 
d="M54 266l25 26q-29 38 -29 86q0 47 29 85l-21 21q-4 3 -4 10t5 12t12 5q6 0 10 -4l20 -20q40 35 91 35q48 0 88 -32l22 21q3 4 10 4t12 -5t5 -12q0 -5 -5 -10l-22 -22q32 -36 32 -88q0 -48 -32 -89l22 -23q5 -5 5 -9q0 -7 -5 -12t-12 -5q-4 0 -10 4l-22 22
q-38 -34 -88 -34t-91 36l-25 -24q-4 -4 -10 -4t-11 5t-5 12q0 6 4 9zM120.5 303.5q30.5 -32.5 71.5 -32.5t72.5 32.5t31.5 74.5q0 41 -31 72.5t-73 31.5t-72 -31.5t-30 -72.5q0 -42 30.5 -74.5z" />
    <glyph glyph-name="yen" unicode="&#xa5;" horiz-adv-x="404" 
d="M28.5 579q9.5 7 20.5 7q12 0 19 -13l132 -258l138 258q6 13 18 13q11 0 20 -7t9 -16l-2 -8l-145 -265h83q8 0 14 -6t6 -15t-6 -15t-14 -6h-95v-58h95q8 0 14 -6.5t6 -15.5t-6 -15t-14 -6h-95v-127q0 -9 -7.5 -14.5t-18.5 -5.5t-18.5 5.5t-7.5 14.5v127h-92q-9 0 -14 5.5
t-5 14.5q0 10 5.5 16.5t13.5 6.5h92v58h-92q-8 0 -13.5 6t-5.5 15t5.5 15t13.5 6h79l-139 265q-3 5 -3 8q0 9 9.5 16z" />
    <glyph glyph-name="brokenbar" unicode="&#xa6;" horiz-adv-x="162" 
d="M55 595q0 8 7.5 13.5t18.5 5.5q10 0 18 -5.5t8 -13.5v-217q0 -8 -8 -14t-18 -6q-11 0 -18.5 6t-7.5 14v217zM55 221q0 8 8 13.5t18 5.5t18 -6t8 -13v-218q0 -8 -8 -14t-18 -6t-18 6t-8 14v218z" />
    <glyph glyph-name="section" unicode="&#xa7;" horiz-adv-x="374" 
d="M63 103q24 0 24 -19q0 -37 23.5 -63.5t70.5 -26.5t72.5 25t25.5 71q0 30 -16 50.5t-44 30.5l-54 21q-40 15 -61.5 28.5t-36.5 39.5q-17 28 -17 73v99q0 43 12.5 75t35.5 48q38 30 91 30q60 0 94.5 -35.5t34.5 -93.5q0 -25 -24 -25t-24 25q0 35 -19.5 58.5t-60.5 23.5
q-40 0 -65 -25.5t-25 -74.5q0 -25 12.5 -44t33.5 -29q21 -11 45 -19q62 -21 95 -44q22 -15 34 -42t12 -64v-98q0 -75 -40 -113.5t-106 -38.5q-43 0 -76.5 18t-52 48t-18.5 67q0 24 24 24zM97 327q0 -37 21 -61.5t52 -33.5q36 -10 68 -24.5t48 -31.5v23q0 36 -21.5 61
t-51.5 34q-90 28 -116 56v-23z" />
    <glyph glyph-name="dieresis" unicode="&#xa8;" horiz-adv-x="157" 
d="M8.5 525q8.5 8 21.5 8q12 0 20 -8t8 -21q0 -12 -8 -21t-20 -9q-13 0 -21.5 9t-8.5 21q0 13 8.5 21zM106.5 525q8.5 8 21.5 8t21 -8t8 -21q0 -12 -8.5 -21t-20.5 -9q-13 0 -21.5 9t-8.5 21q0 13 8.5 21z" />
    <glyph glyph-name="copyright" unicode="&#xa9;" horiz-adv-x="574" 
d="M64 401q22 52 60 84q37 31 79.5 47t86.5 16q43 0 85.5 -16t78.5 -47q36 -32 57.5 -83t21.5 -112q0 -63 -22.5 -114.5t-60.5 -83.5q-36 -31 -79 -47.5t-86 -16.5q-44 0 -86 16.5t-77 47.5q-37 32 -58.5 82.5t-21.5 111.5q0 63 22 115zM103 170.5q26 -50.5 73 -79
t109 -28.5t110.5 29t75.5 80.5t27 117.5q0 65 -26 115.5t-73.5 79t-108.5 28.5q-62 0 -110.5 -29t-75.5 -80.5t-27 -117.5q0 -65 26 -115.5zM204 357q0 47 22.5 71t61.5 24q38 0 61.5 -21.5t23.5 -54.5q0 -13 -4 -17.5t-15 -4.5q-19 0 -19 14q-2 50 -45 50q-48 0 -48 -61
v-127q0 -60 48 -60q29 0 37 18q5 11 6.5 20.5t1.5 12.5q1 13 19 13q10 0 14.5 -4t4.5 -16q0 -35 -24 -57t-62 -22t-60.5 24t-22.5 71v127z" />
    <glyph glyph-name="ordfeminine" unicode="&#xaa;" horiz-adv-x="251" 
d="M56.5 466.5q29.5 16.5 89.5 16.5h24v11q0 27 -14.5 45t-41.5 18q-18 0 -37 -7q-15 -8 -18 -8q-7 0 -11.5 6.5t-4.5 14.5q0 11 23 20t49 9q48 0 72.5 -27t24.5 -71v-130q0 -15 -21 -15q-8 0 -13.5 4t-5.5 11v20q-32 -38 -78 -38q-30 0 -48.5 17t-18.5 49q0 38 29.5 54.5z
M108 378q22 0 42 17t20 35v27h-22q-39 0 -59 -9t-20 -32q0 -38 39 -38z" />
    <glyph glyph-name="guillemotleft" unicode="&#xab;" horiz-adv-x="326" 
d="M36 200q-8 12 -8 22q0 9 8 22l71 131q4 10 19 10q11 0 20 -8.5t9 -17.5l-2 -9l-70 -128l70 -128l2 -9q0 -10 -9 -18t-21 -8t-18 10zM174 244l71 131q4 10 18 10q11 0 20.5 -8.5t9.5 -17.5q0 -3 -3 -9l-69 -128l69 -128q3 -6 3 -9q0 -10 -9.5 -18t-21.5 -8q-11 0 -17 10
l-71 131q-8 12 -8 22q0 9 8 22z" />
    <glyph glyph-name="logicalnot" unicode="&#xac;" horiz-adv-x="388" 
d="M46.5 209.5q5.5 6.5 14.5 6.5h254q8 0 14 -7t6 -17v-122q0 -9 -7.5 -14.5t-17.5 -5.5q-12 0 -19.5 5.5t-7.5 14.5v100h-222q-20 0 -20 22q0 11 5.5 17.5z" />
    <glyph glyph-name="uni00AD" unicode="&#xad;" horiz-adv-x="378" 
d="M47.5 209.5q5.5 6.5 14.5 6.5h256q8 0 14 -7t6 -17q0 -9 -6 -15.5t-14 -6.5h-256q-20 0 -20 22q0 11 5.5 17.5z" />
    <glyph glyph-name="registered" unicode="&#xae;" horiz-adv-x="574" 
d="M64 401q22 52 60 84q37 31 79.5 47t86.5 16q43 0 85.5 -16t78.5 -47q36 -32 57.5 -83t21.5 -112q0 -63 -22.5 -114.5t-60.5 -83.5q-36 -31 -79 -47.5t-86 -16.5q-44 0 -86 16.5t-77 47.5q-37 32 -58.5 82.5t-21.5 111.5q0 63 22 115zM103 170.5q26 -50.5 73 -79
t109 -28.5t110.5 29t75.5 80.5t27 117.5q0 65 -26 115.5t-73.5 79t-108.5 28.5q-62 0 -110.5 -29t-75.5 -80.5t-27 -117.5q0 -65 26 -115.5zM211 434q0 13 13 14h71q40 0 62.5 -21t22.5 -65q0 -69 -54 -83l52 -117l2 -5q0 -8 -6.5 -14t-14.5 -6q-6 0 -15 15l-56 122h-40
v-123q0 -13 -18 -13q-19 0 -19 13v283zM248 306h47q48 0 48 53q0 55 -48 55h-47v-108z" />
    <glyph glyph-name="macron" unicode="&#xaf;" horiz-adv-x="212" 
d="M0 528q0 9 5.5 15t14.5 6h172q8 0 14 -6t6 -15q0 -7 -6 -13.5t-14 -6.5h-172q-8 0 -14 6t-6 14z" />
    <glyph glyph-name="degree" unicode="&#xb0;" horiz-adv-x="335" 
d="M26 470q0 38 19 71t51.5 53t70.5 20t71 -19.5t52.5 -52.5t19.5 -72q0 -37 -20 -70.5t-53 -54t-70 -20.5q-58 0 -99 44q-42 44 -42 101zM95.5 396q30.5 -32 71.5 -32t72.5 32.5t31.5 73.5q0 42 -31 73.5t-73 31.5t-72 -31.5t-30 -73.5t30.5 -74z" />
    <glyph glyph-name="plusminus" unicode="&#xb1;" horiz-adv-x="377" 
d="M46.5 299q5.5 7 13.5 7h106v102q0 8 7 14.5t16 6.5t16 -6.5t7 -14.5v-102h104q8 0 14.5 -7.5t6.5 -16.5t-6.5 -16t-14.5 -7h-104v-103q0 -9 -6.5 -14t-16.5 -5t-16.5 5.5t-6.5 13.5v103h-106q-9 0 -14 6.5t-5 16.5t5.5 17zM46.5 85q5.5 7 13.5 7h256q8 0 14.5 -7.5
t6.5 -16.5t-6.5 -15.5t-14.5 -6.5h-256q-19 0 -19 22q0 10 5.5 17z" />
    <glyph glyph-name="uni00B2" unicode="&#xb2;" horiz-adv-x="246" 
d="M26 337q0 20 22 42t54 41q33 19 54.5 40.5t21.5 41.5q0 19 -15 32.5t-41 13.5q-23 0 -36 -11t-13 -32q0 -6 -6 -10.5t-15 -4.5q-19 0 -19 22q0 31 26 52t64 21q41 0 68 -23.5t27 -58.5q0 -23 -15 -44.5t-38 -37.5q-10 -7 -23.5 -15t-20.5 -13q-25 -16 -39 -29t-14 -26
v-19h138q6 0 10.5 -5t4.5 -12q0 -8 -4.5 -13.5t-10.5 -5.5h-161q-7 0 -13 4.5t-6 10.5v39z" />
    <glyph glyph-name="uni00B3" unicode="&#xb3;" horiz-adv-x="250" 
d="M27.5 366q4.5 4 14.5 4q21 0 21 -15q0 -16 15.5 -27t43.5 -11q60 0 60 53v8q0 47 -60 47q-15 0 -15 16q0 17 15 17q26 0 38.5 10.5t12.5 35.5q0 46 -50 46q-52 0 -52 -36q0 -17 -19 -17q-13 0 -17 3.5t-4 15.5q0 28 23.5 48.5t69.5 20.5q88 0 88 -73q0 -54 -37 -70
q47 -15 47 -64v-8q0 -44 -27 -66.5t-73 -22.5t-72.5 21t-26.5 51q0 9 4.5 13z" />
    <glyph glyph-name="acute" unicode="&#xb4;" horiz-adv-x="124" 
d="M9 510l89 48q3 3 7 3q9 0 14 -7t5 -16q0 -13 -10 -17l-85 -46q-6 -2 -8 -2q-8 0 -14.5 6.5t-6.5 15.5q0 11 9 15z" />
    <glyph glyph-name="uni00B5" unicode="&#xb5;" horiz-adv-x="393" 
d="M57 358q0 8 7.5 14t17.5 6t18.5 -6t8.5 -14v-228q0 -18 15 -39t38.5 -35t47.5 -14q37 0 66 32t29 71v213q0 9 8 14.5t18 5.5q11 0 18.5 -5.5t7.5 -14.5v-213q0 -41 -19.5 -75.5t-53.5 -55t-75 -20.5q-33 0 -60.5 14.5t-43.5 37.5v-212q0 -8 -7 -14t-16 -6q-11 0 -18 5.5
t-7 14.5v524z" />
    <glyph glyph-name="paragraph" unicode="&#xb6;" horiz-adv-x="419" 
d="M26 420q0 83 41 124t115 41h156q20 0 20 -20v-545q0 -20 -20 -20t-20 20v530h-62v-529q0 -9 -6 -15t-15 -6q-8 0 -14 6t-6 15v224h-33q-74 0 -115 41t-41 124v10z" />
    <glyph glyph-name="periodcentered" unicode="&#xb7;" horiz-adv-x="147" 
d="M47 265.5q11 10.5 27 10.5t26.5 -10.5t10.5 -25.5q0 -14 -11 -25t-26 -11q-16 0 -27 10.5t-11 25.5t11 25.5z" />
    <glyph glyph-name="cedilla" unicode="&#xb8;" horiz-adv-x="134" 
d="M4 -135q4 7 9 7l15 -6q11 -5 30 -5q42 0 42 31q0 29 -50 34l-31 2l21 79h32l-15 -56q37 -1 57 -16.5t20 -40.5t-19.5 -43.5t-52.5 -18.5q-22 0 -42 6t-20 15q0 5 4 12z" />
    <glyph glyph-name="uni00B9" unicode="&#xb9;" horiz-adv-x="135" 
d="M22 537l44 44q7 5 12 5q7 0 12 -4t5 -11v-273q0 -15 -19 -15q-21 0 -21 15v232l-17 -20q-3 -4 -9 -4q-5 0 -10 5t-5 11q0 10 8 15z" />
    <glyph glyph-name="ordmasculine" unicode="&#xba;" horiz-adv-x="262" 
d="M31 495q0 38 30 67.5t70 29.5t70 -29t30 -68v-52q0 -39 -30 -68.5t-70 -29.5t-70 29.5t-30 68.5v52zM73 443q0 -24 17 -42.5t41 -18.5t41.5 18.5t17.5 42.5v52q0 23 -17.5 41t-41.5 18t-41 -17.5t-17 -41.5v-52z" />
    <glyph glyph-name="guillemotright" unicode="&#xbb;" horiz-adv-x="326" 
d="M35 94l70 128l-70 128l-2 9q0 9 9 17.5t20 8.5q15 0 19 -10l71 -131q9 -18 9 -22q0 -7 -9 -22l-71 -131q-4 -10 -18 -10q-11 0 -20.5 8.5t-9.5 17.5zM173 94l69 128l-69 128q-3 6 -3 9q0 9 9.5 17.5t20.5 8.5q14 0 18 -10l72 -131q8 -19 8 -22q0 -6 -8 -22l-72 -131
q-3 -10 -17 -10q-11 0 -21 8.5t-10 17.5q0 3 3 9z" />
    <glyph glyph-name="onequarter" unicode="&#xbc;" horiz-adv-x="483" 
d="M58 8l305 598q5 9 16 9q9 0 16 -6t7 -15q0 -6 -3 -11l-303 -593q-6 -12 -19 -12q-8 0 -14.5 6t-6.5 14q0 4 2 10zM32 537l44 44q5 5 11 5q8 0 13 -4t5 -11v-273q0 -15 -19 -15q-21 0 -21 15v232l-17 -20q-3 -4 -10 -4q-5 0 -9.5 4.5t-4.5 11.5q0 11 8 15zM259 92l112 198
q8 12 19 12q6 0 13 -5t7 -11q0 -1 -2 -7l-99 -173h77v62q0 13 20 13t20 -13v-62h24q6 0 10 -5.5t4 -13.5q0 -7 -4.5 -12.5t-9.5 -5.5h-24v-55q0 -14 -20 -14t-20 14v55h-115q-14 0 -14 15z" />
    <glyph glyph-name="onehalf" unicode="&#xbd;" horiz-adv-x="495" 
d="M46 8l305 598q5 9 16 9q9 0 16 -6t7 -15q0 -6 -3 -11l-303 -593q-6 -12 -19 -12q-8 0 -14.5 6t-6.5 14q0 4 2 10zM33 537l44 44q5 5 11 5q8 0 13 -4t5 -11v-273q0 -15 -20 -15t-20 15v232l-17 -20q-4 -4 -10 -4q-5 0 -9.5 4.5t-4.5 11.5q0 11 8 15zM275 54q0 20 22 42
t54 41q31 17 53 39t22 42t-15 33t-40 13q-49 0 -49 -42q0 -6 -6 -11t-15 -5q-19 0 -19 23q0 31 26 52t64 21q40 0 67 -23.5t27 -58.5q0 -23 -14.5 -44.5t-37.5 -37.5q-23 -17 -44 -28q-53 -33 -53 -55v-19h138q5 0 10 -5.5t5 -12.5t-5 -12.5t-10 -5.5h-161q-7 0 -13 4t-6 10
v40z" />
    <glyph glyph-name="threequarters" unicode="&#xbe;" horiz-adv-x="587" 
d="M158 8l305 598q5 9 16 9q9 0 16 -6t7 -15q0 -6 -3 -11l-303 -593q-6 -12 -19 -12q-8 0 -14.5 6t-6.5 14q0 4 2 10zM30 366.5q4 3.5 15 3.5q21 0 21 -15q0 -16 15 -27t43 -11q60 0 60 53v8q0 47 -60 47q-14 0 -14 16q0 17 14 17q26 0 38.5 10.5t12.5 35.5q0 46 -49 46
q-52 0 -52 -36q0 -17 -20 -17q-12 0 -16 3.5t-4 15.5q0 29 23 49t69 20q88 0 88 -73q0 -53 -36 -70q46 -15 46 -64v-8q0 -44 -27 -66.5t-73 -22.5q-45 0 -71.5 21t-26.5 51q0 10 4 13.5zM364 92l112 198q8 12 18 12q7 0 13.5 -5t6.5 -11q0 -4 -1 -7l-99 -173h76v62
q0 13 20 13t20 -13v-62h24q7 0 11 -5.5t4 -13.5q0 -7 -4.5 -12.5t-10.5 -5.5h-24v-55q0 -14 -20 -14t-20 14v55h-114q-14 0 -14 15q0 5 2 8z" />
    <glyph glyph-name="questiondown" unicode="&#xbf;" horiz-adv-x="318" 
d="M156 584q11 11 26 11t25.5 -11t10.5 -26t-10.5 -26t-25.5 -11t-26 11t-11 26t11 26zM38.5 202q12.5 32 28.5 50q21 23 37 38q28 26 37.5 38.5t13.5 34.5q5 28 5 77q0 18 22 18q21 0 21 -23q0 -58 -8 -88t-26 -51l-29 -27q-25 -23 -36 -36.5t-21 -36.5q-12 -25 -12 -54
q0 -48 28.5 -75.5t79.5 -27.5t83 30q11 9 17 9q8 0 14 -6t6 -15q0 -14 -17 -28.5t-45 -24t-60 -9.5q-71 0 -111 39.5t-40 103.5q0 32 12.5 64z" />
    <glyph glyph-name="Agrave" unicode="&#xc0;" horiz-adv-x="432" 
d="M156 757q6 7 14 7q1 0 7 -2l89 -49q8 -5 8 -15q0 -9 -6 -15.5t-14 -6.5q-4 0 -8 2l-85 46q-11 5 -11 18q0 8 6 15zM18 28l167 543q6 19 31 19q26 0 32 -19l166 -543q0 -2 1 -2v-3q0 -9 -10 -16t-22 -7q-15 0 -20 14l-37 123h-221l-37 -123q-3 -14 -21 -14
q-11 0 -20.5 6.5t-9.5 15.5q0 5 1 6zM118 182h195l-97 323z" />
    <glyph glyph-name="Aacute" unicode="&#xc1;" horiz-adv-x="432" 
d="M170 713l90 49q4 2 6 2q9 0 14.5 -6.5t5.5 -15.5q0 -13 -10 -18l-86 -46q-4 -2 -8 -2q-8 0 -14 6.5t-6 15.5q0 10 8 15zM18 28l167 543q6 19 31 19q26 0 32 -19l166 -543q0 -2 1 -2v-3q0 -9 -10 -16t-22 -7q-15 0 -20 14l-37 123h-221l-37 -123q-3 -14 -21 -14
q-11 0 -20.5 6.5t-9.5 15.5q0 5 1 6zM118 182h195l-97 323z" />
    <glyph glyph-name="Acircumflex" unicode="&#xc2;" horiz-adv-x="432" 
d="M118 715l84 45q8 4 13 4q6 0 14 -4l83 -45q10 -4 10 -18q0 -8 -4.5 -13.5t-11.5 -5.5q-1 0 -3 0.5t-5 1.5l-83 44l-83 -45l-7 -2q-7 0 -12 6.5t-5 14.5q0 11 10 17zM18 28l167 543q6 19 31 19q26 0 32 -19l166 -543q0 -2 1 -2v-3q0 -9 -10 -16t-22 -7q-15 0 -20 14
l-37 123h-221l-37 -123q-3 -14 -21 -14q-11 0 -20.5 6.5t-9.5 15.5q0 5 1 6zM118 182h195l-97 323z" />
    <glyph glyph-name="Atilde" unicode="&#xc3;" horiz-adv-x="432" 
d="M92 713q0 19 22.5 32t47.5 13q23 0 53 -13q34 -14 53 -14q21 0 36 12q16 11 20 11q7 0 11.5 -5.5t4.5 -12.5q0 -21 -21.5 -33.5t-45.5 -12.5q-21 0 -53 15q-32 13 -54 13q-19 0 -37 -12q-17 -13 -22 -13q-15 0 -15 20zM18 28l167 543q6 19 31 19q26 0 32 -19l166 -543
q0 -2 1 -2v-3q0 -9 -10 -16t-22 -7q-15 0 -20 14l-37 123h-221l-37 -123q-3 -14 -21 -14q-11 0 -20.5 6.5t-9.5 15.5q0 5 1 6zM118 182h195l-97 323z" />
    <glyph glyph-name="Adieresis" unicode="&#xc4;" horiz-adv-x="432" 
d="M146 728q8 8 21 8q12 0 20.5 -8t8.5 -21q0 -12 -8.5 -20.5t-20.5 -8.5q-13 0 -21 8.5t-8 20.5q0 13 8 21zM244.5 728q8.5 8 21.5 8q12 0 20 -8t8 -21q0 -12 -8 -20.5t-20 -8.5q-13 0 -21.5 8.5t-8.5 20.5q0 13 8.5 21zM18 28l167 543q6 19 31 19q26 0 32 -19l166 -543
q0 -2 1 -2v-3q0 -9 -10 -16t-22 -7q-15 0 -20 14l-37 123h-221l-37 -123q-3 -14 -21 -14q-11 0 -20.5 6.5t-9.5 15.5q0 5 1 6zM118 182h195l-97 323z" />
    <glyph glyph-name="Aring" unicode="&#xc5;" horiz-adv-x="432" 
d="M163.5 795.5q21.5 22.5 51.5 22.5q29 0 52 -23t23 -52q0 -31 -23 -54t-52 -23t-51 23t-22 54q0 30 21.5 52.5zM182.5 708.5q14.5 -15.5 33.5 -15.5q18 0 32 15.5t14 34.5q0 18 -14 32.5t-32 14.5q-19 0 -33.5 -14.5t-14.5 -32.5q0 -19 14.5 -34.5zM18 28l167 543
q6 19 31 19q26 0 32 -19l166 -543q0 -2 1 -2v-3q0 -9 -10 -16t-22 -7q-15 0 -20 14l-37 123h-221l-37 -123q-3 -14 -21 -14q-11 0 -20.5 6.5t-9.5 15.5q0 5 1 6zM118 182h195l-97 323z" />
    <glyph glyph-name="AE" unicode="&#xc6;" horiz-adv-x="572" 
d="M58 414q0 86 44 128.5t121 42.5h311q19 0 19 -23q0 -11 -5 -18.5t-14 -7.5h-188v-220h117q10 0 15 -6.5t5 -17.5q0 -22 -20 -22h-117v-221h188q9 0 14 -7t5 -18q0 -24 -19 -24h-216q-10 0 -17.5 6t-7.5 15v249h-183v-245q0 -13 -5.5 -19t-21.5 -6q-25 0 -25 25v389z
M110 316h183v220h-70q-113 0 -113 -122v-98z" />
    <glyph glyph-name="Ccedilla" unicode="&#xc7;" horiz-adv-x="418" 
d="M54 414q0 84 45.5 127.5t122.5 43.5q75 0 120 -38t45 -96q0 -18 -5.5 -25t-20.5 -7q-25 0 -27 20q0 24 -12 49q-16 29 -52 42q-19 6 -48 6q-115 0 -115 -122v-248q0 -122 119 -122q33 0 55.5 9.5t32.5 26.5q10 16 14 28.5t6 33.5q3 21 27 21q15 0 20.5 -7t5.5 -26
q0 -52 -37.5 -88.5t-100.5 -43.5l-12 -47q37 -1 57 -16.5t20 -40.5t-19.5 -43.5t-52.5 -18.5q-22 0 -42 6t-20 15q0 5 4 12t9 7l15 -6q11 -5 30 -5q42 0 42 31q0 29 -50 34l-31 2l18 67q-76 2 -119.5 44.5t-43.5 126.5v248z" />
    <glyph glyph-name="Egrave" unicode="&#xc8;" horiz-adv-x="406" 
d="M167.5 757q5.5 7 13.5 7q3 0 7 -2l89 -49q9 -5 9 -15q0 -9 -6.5 -15.5t-14.5 -6.5q-4 0 -8 2l-85 46q-10 4 -10 18q0 8 5.5 15zM61 565q0 9 7 14.5t17 5.5h285q20 0 20 -23q0 -11 -5.5 -18.5t-14.5 -7.5h-256v-220h125q10 0 15 -6.5t5 -17.5q0 -22 -20 -22h-125v-221h256
q9 0 14.5 -7t5.5 -18q0 -24 -20 -24h-285q-10 0 -17 6t-7 15v544z" />
    <glyph glyph-name="Eacute" unicode="&#xc9;" horiz-adv-x="406" 
d="M177 713l89 49q4 2 7 2q9 0 14 -6.5t5 -15.5q0 -14 -10 -18l-85 -46q-6 -2 -8 -2q-8 0 -14.5 6.5t-6.5 15.5q0 11 9 15zM61 565q0 9 7 14.5t17 5.5h285q20 0 20 -23q0 -11 -5.5 -18.5t-14.5 -7.5h-256v-220h125q10 0 15 -6.5t5 -17.5q0 -22 -20 -22h-125v-221h256
q9 0 14.5 -7t5.5 -18q0 -24 -20 -24h-285q-10 0 -17 6t-7 15v544z" />
    <glyph glyph-name="Ecircumflex" unicode="&#xca;" horiz-adv-x="406" 
d="M130 715l83 45q8 4 13 4q6 0 14 -4l83 -45q11 -5 11 -18q0 -8 -5 -13.5t-11 -5.5q-4 0 -8 2l-84 44l-83 -45l-7 -2q-7 0 -12 6.5t-5 14.5q0 12 11 17zM61 565q0 9 7 14.5t17 5.5h285q20 0 20 -23q0 -11 -5.5 -18.5t-14.5 -7.5h-256v-220h125q10 0 15 -6.5t5 -17.5
q0 -22 -20 -22h-125v-221h256q9 0 14.5 -7t5.5 -18q0 -24 -20 -24h-285q-10 0 -17 6t-7 15v544z" />
    <glyph glyph-name="Edieresis" unicode="&#xcb;" horiz-adv-x="406" 
d="M155.5 728q8.5 8 21.5 8q12 0 20.5 -8t8.5 -21q0 -12 -8.5 -20.5t-20.5 -8.5q-13 0 -21.5 8.5t-8.5 20.5q0 13 8.5 21zM254 728q8 8 21 8t21 -8t8 -21q0 -12 -8.5 -20.5t-20.5 -8.5q-13 0 -21 8.5t-8 20.5q0 13 8 21zM61 565q0 9 7 14.5t17 5.5h285q20 0 20 -23
q0 -11 -5.5 -18.5t-14.5 -7.5h-256v-220h125q10 0 15 -6.5t5 -17.5q0 -22 -20 -22h-125v-221h256q9 0 14.5 -7t5.5 -18q0 -24 -20 -24h-285q-10 0 -17 6t-7 15v544z" />
    <glyph glyph-name="Igrave" unicode="&#xcc;" horiz-adv-x="174" 
d="M29 757q6 7 13 7q2 0 8 -2l88 -49q9 -4 9 -15q0 -9 -6.5 -15.5t-14.5 -6.5q-2 0 -8 2l-84 46q-11 4 -11 18q0 8 6 15zM61 566q0 19 26 19q27 0 27 -19v-545q0 -9 -8 -15t-19 -6t-18.5 5.5t-7.5 15.5v545z" />
    <glyph glyph-name="Iacute" unicode="&#xcd;" horiz-adv-x="174" 
d="M35 713l90 49q2 2 6 2q9 0 14 -6.5t5 -15.5q0 -13 -9 -18l-86 -46q-4 -2 -8 -2q-8 0 -14.5 6.5t-6.5 15.5q0 10 9 15zM61 566q0 19 26 19q27 0 27 -19v-545q0 -9 -8 -15t-19 -6t-18.5 5.5t-7.5 15.5v545z" />
    <glyph glyph-name="Icircumflex" unicode="&#xce;" horiz-adv-x="174" 
d="M-10 715l84 45q8 4 13 4q6 0 14 -4l83 -45q10 -4 10 -18q0 -8 -4.5 -13.5t-11.5 -5.5q-1 0 -3 0.5t-5 1.5l-83 44l-83 -45l-7 -2q-7 0 -12 6.5t-5 14.5q0 11 10 17zM61 566q0 19 26 19q27 0 27 -19v-545q0 -9 -8 -15t-19 -6t-18.5 5.5t-7.5 15.5v545z" />
    <glyph glyph-name="Idieresis" unicode="&#xcf;" horiz-adv-x="174" 
d="M17.5 728q8.5 8 20.5 8t20.5 -8t8.5 -21q0 -12 -8.5 -20.5t-20.5 -8.5t-20.5 8.5t-8.5 20.5q0 13 8.5 21zM115.5 728q8.5 8 21.5 8t21 -8t8 -21q0 -12 -8.5 -20.5t-20.5 -8.5q-13 0 -21.5 8.5t-8.5 20.5q0 13 8.5 21zM61 566q0 19 26 19q27 0 27 -19v-545q0 -9 -8 -15
t-19 -6t-18.5 5.5t-7.5 15.5v545z" />
    <glyph glyph-name="Eth" unicode="&#xd0;" horiz-adv-x="455" 
d="M4.5 322.5q5.5 6.5 13.5 6.5h50v237q0 8 7 13.5t17 5.5h142q78 0 122.5 -42.5t44.5 -128.5v-243q0 -86 -44.5 -128.5t-122.5 -42.5h-142q-10 0 -17 6t-7 14v266h-50q-8 0 -13.5 5.5t-5.5 15.5q0 9 5.5 15.5zM121 49h113q55 0 84.5 31t29.5 91v243q0 60 -29.5 91t-84.5 31
h-113v-207h90q8 0 13.5 -6.5t5.5 -15.5t-5.5 -15t-13.5 -6h-90v-237z" />
    <glyph glyph-name="Ntilde" unicode="&#xd1;" horiz-adv-x="458" 
d="M103 713q0 19 22.5 32t48.5 13q22 0 52 -13q34 -14 53 -14q21 0 36 12q17 11 20 11q7 0 11.5 -5.5t4.5 -12.5q0 -21 -21 -33.5t-46 -12.5q-21 0 -53 15q-30 13 -53 13q-20 0 -38 -12q-17 -13 -22 -13q-15 0 -15 20zM61 565q0 20 26 20q23 0 42 -37l216 -426v444
q0 19 26 19q27 0 27 -19v-545q0 -9 -8 -15t-19 -6q-20 0 -35 30l-222 433v-442q0 -9 -8 -15t-19 -6t-18.5 5.5t-7.5 15.5v544z" />
    <glyph glyph-name="Ograve" unicode="&#xd2;" horiz-adv-x="442" 
d="M162 757q6 7 13 7q3 0 7 -2l89 -49q9 -4 9 -15q0 -9 -6.5 -15.5t-14.5 -6.5q-2 0 -8 2l-85 46q-10 4 -10 18q0 8 6 15zM54 414q0 86 44 128.5t123 42.5q78 0 122 -42.5t44 -128.5v-248q0 -86 -44 -128.5t-122 -42.5q-79 0 -123 42.5t-44 128.5v248zM107 166
q0 -122 114 -122q113 0 113 122v248q0 122 -113 122q-114 0 -114 -122v-248z" />
    <glyph glyph-name="Oacute" unicode="&#xd3;" horiz-adv-x="442" 
d="M177 713l89 49q4 2 7 2q9 0 14 -6.5t5 -15.5q0 -14 -10 -18l-85 -46q-6 -2 -8 -2q-8 0 -14.5 6.5t-6.5 15.5q0 11 9 15zM54 414q0 86 44 128.5t123 42.5q78 0 122 -42.5t44 -128.5v-248q0 -86 -44 -128.5t-122 -42.5q-79 0 -123 42.5t-44 128.5v248zM107 166
q0 -122 114 -122q113 0 113 122v248q0 122 -113 122q-114 0 -114 -122v-248z" />
    <glyph glyph-name="Ocircumflex" unicode="&#xd4;" horiz-adv-x="442" 
d="M124 715l83 45q8 4 14 4q5 0 13 -4l84 -45q10 -4 10 -18q0 -8 -4.5 -13.5t-11.5 -5.5q-3 0 -8 2l-83 44l-83 -45l-8 -2q-6 0 -11 6.5t-5 14.5q0 11 10 17zM54 414q0 86 44 128.5t123 42.5q78 0 122 -42.5t44 -128.5v-248q0 -86 -44 -128.5t-122 -42.5q-79 0 -123 42.5
t-44 128.5v248zM107 166q0 -122 114 -122q113 0 113 122v248q0 122 -113 122q-114 0 -114 -122v-248z" />
    <glyph glyph-name="Otilde" unicode="&#xd5;" horiz-adv-x="442" 
d="M97 713q0 19 22.5 32t47.5 13q21 0 53 -13q34 -14 53 -14q20 0 36 12q16 11 20 11q7 0 11.5 -5.5t4.5 -12.5q0 -21 -21.5 -33.5t-45.5 -12.5q-22 0 -53 15q-32 13 -54 13q-19 0 -37 -12q-17 -13 -22 -13q-15 0 -15 20zM54 414q0 86 44 128.5t123 42.5q78 0 122 -42.5
t44 -128.5v-248q0 -86 -44 -128.5t-122 -42.5q-79 0 -123 42.5t-44 128.5v248zM107 166q0 -122 114 -122q113 0 113 122v248q0 122 -113 122q-114 0 -114 -122v-248z" />
    <glyph glyph-name="Odieresis" unicode="&#xd6;" horiz-adv-x="442" 
d="M150.5 728q8.5 8 21.5 8q12 0 20.5 -8t8.5 -21q0 -12 -8.5 -20.5t-20.5 -8.5q-13 0 -21.5 8.5t-8.5 20.5q0 13 8.5 21zM249.5 728q8.5 8 20.5 8q13 0 21 -8t8 -21q0 -12 -8.5 -20.5t-20.5 -8.5t-20.5 8.5t-8.5 20.5q0 13 8.5 21zM54 414q0 86 44 128.5t123 42.5
q78 0 122 -42.5t44 -128.5v-248q0 -86 -44 -128.5t-122 -42.5q-79 0 -123 42.5t-44 128.5v248zM107 166q0 -122 114 -122q113 0 113 122v248q0 122 -113 122q-114 0 -114 -122v-248z" />
    <glyph glyph-name="multiply" unicode="&#xd7;" horiz-adv-x="318" 
d="M52 146l77 74l-77 74q-5 7 -5 14q0 9 7.5 16.5t16.5 7.5q8 0 15 -5l72 -74l75 74q5 5 13 5q10 0 17.5 -7.5t7.5 -16.5t-5 -14l-76 -74l76 -74q5 -5 5 -13q0 -10 -7.5 -17.5t-17.5 -7.5q-6 0 -12 6l-76 74l-73 -74q-6 -6 -14 -6q-9 0 -17 8t-8 17q0 7 6 13z" />
    <glyph glyph-name="Oslash" unicode="&#xd8;" horiz-adv-x="442" 
d="M50 8l28 55q-24 39 -24 103v248q0 86 44 128.5t123 42.5q65 0 108 -31l26 52q5 9 16 9q9 0 16 -6t7 -15q0 -8 -3 -11l-31 -61q27 -42 27 -108v-248q0 -86 -44 -128.5t-122 -42.5q-72 0 -113 35l-20 -40q-4 -12 -19 -12q-8 0 -14.5 6t-6.5 14q0 4 2 10zM107 166
q0 -23 3 -40l194 380q-28 30 -83 30q-114 0 -114 -122v-248zM133 78q28 -34 88 -34q113 0 113 122v248q0 27 -5 47z" />
    <glyph glyph-name="Ugrave" unicode="&#xd9;" horiz-adv-x="453" 
d="M166 757q6 7 13 7q3 0 7 -2l89 -49q9 -4 9 -15q0 -9 -6.5 -15.5t-14.5 -6.5l-8 2l-85 46q-10 4 -10 18q0 8 6 15zM58 566q0 19 27 19q26 0 26 -19v-400q0 -60 30 -91t85 -31q56 0 86 31t30 91v400q0 19 26 19t26 -19v-400q0 -86 -44.5 -128.5t-123.5 -42.5t-123.5 42.5
t-44.5 128.5v400z" />
    <glyph glyph-name="Uacute" unicode="&#xda;" horiz-adv-x="453" 
d="M178 713l90 49q4 2 6 2q9 0 14.5 -6.5t5.5 -15.5q0 -13 -10 -18l-86 -46q-4 -2 -8 -2q-8 0 -14 6.5t-6 15.5q0 10 8 15zM58 566q0 19 27 19q26 0 26 -19v-400q0 -60 30 -91t85 -31q56 0 86 31t30 91v400q0 19 26 19t26 -19v-400q0 -86 -44.5 -128.5t-123.5 -42.5
t-123.5 42.5t-44.5 128.5v400z" />
    <glyph glyph-name="Ucircumflex" unicode="&#xdb;" horiz-adv-x="453" 
d="M128 715l83 45q8 4 14 4q5 0 13 -4l84 -45q10 -4 10 -18q0 -8 -4.5 -13.5t-11.5 -5.5q-3 0 -8 2l-83 44l-83 -45l-8 -2q-6 0 -11 6.5t-5 14.5q0 11 10 17zM58 566q0 19 27 19q26 0 26 -19v-400q0 -60 30 -91t85 -31q56 0 86 31t30 91v400q0 19 26 19t26 -19v-400
q0 -86 -44.5 -128.5t-123.5 -42.5t-123.5 42.5t-44.5 128.5v400z" />
    <glyph glyph-name="Udieresis" unicode="&#xdc;" horiz-adv-x="453" 
d="M156.5 728q8.5 8 21.5 8q12 0 20 -8t8 -21q0 -12 -8 -20.5t-20 -8.5q-13 0 -21.5 8.5t-8.5 20.5q0 13 8.5 21zM254.5 728q8.5 8 21.5 8t21 -8t8 -21q0 -12 -8.5 -20.5t-20.5 -8.5q-13 0 -21.5 8.5t-8.5 20.5q0 13 8.5 21zM58 566q0 19 27 19q26 0 26 -19v-400
q0 -60 30 -91t85 -31q56 0 86 31t30 91v400q0 19 26 19t26 -19v-400q0 -86 -44.5 -128.5t-123.5 -42.5t-123.5 42.5t-44.5 128.5v400z" />
    <glyph glyph-name="Yacute" unicode="&#xdd;" horiz-adv-x="425" 
d="M163 713l90 49q2 2 6 2q9 0 14 -6.5t5 -15.5q0 -13 -9 -18l-86 -46q-4 -2 -8 -2q-8 0 -14.5 6.5t-6.5 15.5q0 10 9 15zM24 578q9 7 20 7t21 -16l147 -292l148 292q10 16 21 16q10 0 19.5 -7t9.5 -16q0 -7 -4 -14l-166 -318l-2 -6v-203q0 -10 -7.5 -15.5t-18.5 -5.5
t-18.5 6t-7.5 15v203q0 5 -1 6l-166 318q-4 10 -4 14q0 9 9 16z" />
    <glyph glyph-name="Thorn" unicode="&#xde;" horiz-adv-x="396" 
d="M61 570q0 18 25 18q12 0 19.5 -5t7.5 -14v-135q31 61 110 61q58 0 98.5 -36t40.5 -93v-128q0 -37 -18.5 -67.5t-50 -47.5t-66.5 -17q-38 0 -71 18.5t-43 45.5v-149q0 -8 -8 -14.5t-19 -6.5q-10 0 -17.5 6.5t-7.5 14.5v549zM113 234q0 -19 13.5 -37.5t37 -30.5t50.5 -12
q40 0 68 23t28 61v128q0 37 -27.5 59t-68.5 22q-42 0 -71.5 -23t-29.5 -58v-132z" />
    <glyph glyph-name="germandbls" unicode="&#xdf;" horiz-adv-x="441" 
d="M10 372q5 6 13 6h59v88q0 68 33.5 108t98.5 40q63 0 99.5 -37t36.5 -107q0 -46 -15 -85t-41 -51q29 -5 55.5 -28t43.5 -58t17 -74v-13q0 -82 -41.5 -129.5t-104.5 -47.5q-85 0 -85 35q0 9 4.5 17t11.5 8q2 0 22 -7q17 -8 41 -8q48 0 75 33.5t27 95.5v13q0 55 -31.5 91.5
t-90.5 43.5q-10 0 -14.5 1.5t-9.5 6.5q-4 8 -4 13q0 12 6 16.5t22 6.5q67 6 67 106q0 53 -22.5 81.5t-65.5 28.5q-42 0 -62.5 -27t-20.5 -73v-446q0 -9 -8 -14.5t-20 -5.5q-11 0 -17.5 5.5t-6.5 14.5v315h-59q-8 0 -13 6t-5 16q0 9 5 15z" />
    <glyph glyph-name="agrave" unicode="&#xe0;" horiz-adv-x="350" 
d="M108 554q6 7 14 7q3 0 7 -3l89 -48q8 -5 8 -15q0 -9 -6 -15.5t-14 -6.5q-4 0 -8 2l-85 46q-11 5 -11 17q0 9 6 16zM70 185q46 25 140 25h41v19q0 47 -24 78t-70 31q-33 0 -58 -12q-26 -12 -28 -12q-9 0 -15 8.5t-6 19.5q0 15 34.5 28t73.5 13q72 0 108.5 -42t36.5 -112
v-208q0 -9 -7 -15t-18 -6q-10 0 -17 6t-7 15v35q-54 -62 -121 -62q-49 0 -79 27.5t-30 78.5q0 60 46 85zM95 55q19 -17 51 -17q24 0 48.5 13t40.5 33t16 38v52h-33q-33 0 -54.5 -2.5t-43.5 -9.5q-44 -12 -44 -57q0 -33 19 -50z" />
    <glyph glyph-name="aacute" unicode="&#xe1;" horiz-adv-x="350" 
d="M115 510l90 48q2 3 6 3q9 0 14 -7t5 -16q0 -12 -9 -17l-86 -46q-4 -2 -8 -2q-8 0 -14.5 6.5t-6.5 15.5q0 10 9 15zM70 185q46 25 140 25h41v19q0 47 -24 78t-70 31q-33 0 -58 -12q-26 -12 -28 -12q-9 0 -15 8.5t-6 19.5q0 15 34.5 28t73.5 13q72 0 108.5 -42t36.5 -112
v-208q0 -9 -7 -15t-18 -6q-10 0 -17 6t-7 15v35q-54 -62 -121 -62q-49 0 -79 27.5t-30 78.5q0 60 46 85zM95 55q19 -17 51 -17q24 0 48.5 13t40.5 33t16 38v52h-33q-33 0 -54.5 -2.5t-43.5 -9.5q-44 -12 -44 -57q0 -33 19 -50z" />
    <glyph glyph-name="acircumflex" unicode="&#xe2;" horiz-adv-x="350" 
d="M68 512l83 45q8 4 14 4q5 0 13 -4l84 -45q10 -4 10 -18q0 -8 -4.5 -14t-11.5 -6l-8 3l-83 44l-83 -45l-8 -2q-6 0 -11 6.5t-5 13.5q0 12 10 18zM70 185q46 25 140 25h41v19q0 47 -24 78t-70 31q-33 0 -58 -12q-26 -12 -28 -12q-9 0 -15 8.5t-6 19.5q0 15 34.5 28t73.5 13
q72 0 108.5 -42t36.5 -112v-208q0 -9 -7 -15t-18 -6q-10 0 -17 6t-7 15v35q-54 -62 -121 -62q-49 0 -79 27.5t-30 78.5q0 60 46 85zM95 55q19 -17 51 -17q24 0 48.5 13t40.5 33t16 38v52h-33q-33 0 -54.5 -2.5t-43.5 -9.5q-44 -12 -44 -57q0 -33 19 -50z" />
    <glyph glyph-name="atilde" unicode="&#xe3;" horiz-adv-x="350" 
d="M40 510q0 19 22.5 32t47.5 13q19 0 53 -13q34 -14 53 -14q21 0 36 12q16 11 20 11q7 0 11.5 -5.5t4.5 -12.5q0 -21 -21.5 -33.5t-45.5 -12.5q-21 0 -53 15q-36 13 -54 13q-20 0 -37 -13q-18 -12 -22 -12q-15 0 -15 20zM70 185q46 25 140 25h41v19q0 47 -24 78t-70 31
q-33 0 -58 -12q-26 -12 -28 -12q-9 0 -15 8.5t-6 19.5q0 15 34.5 28t73.5 13q72 0 108.5 -42t36.5 -112v-208q0 -9 -7 -15t-18 -6q-10 0 -17 6t-7 15v35q-54 -62 -121 -62q-49 0 -79 27.5t-30 78.5q0 60 46 85zM95 55q19 -17 51 -17q24 0 48.5 13t40.5 33t16 38v52h-33
q-33 0 -54.5 -2.5t-43.5 -9.5q-44 -12 -44 -57q0 -33 19 -50z" />
    <glyph glyph-name="adieresis" unicode="&#xe4;" horiz-adv-x="350" 
d="M94 525q8 8 21 8q12 0 20.5 -8t8.5 -21q0 -12 -8.5 -21t-20.5 -9t-20.5 9t-8.5 21q0 13 8 21zM192.5 525q8.5 8 21.5 8q12 0 20 -8t8 -21q0 -12 -8 -21t-20 -9q-13 0 -21.5 9t-8.5 21q0 13 8.5 21zM70 185q46 25 140 25h41v19q0 47 -24 78t-70 31q-33 0 -58 -12
q-26 -12 -28 -12q-9 0 -15 8.5t-6 19.5q0 15 34.5 28t73.5 13q72 0 108.5 -42t36.5 -112v-208q0 -9 -7 -15t-18 -6q-10 0 -17 6t-7 15v35q-54 -62 -121 -62q-49 0 -79 27.5t-30 78.5q0 60 46 85zM95 55q19 -17 51 -17q24 0 48.5 13t40.5 33t16 38v52h-33q-33 0 -54.5 -2.5
t-43.5 -9.5q-44 -12 -44 -57q0 -33 19 -50z" />
    <glyph glyph-name="aring" unicode="&#xe5;" horiz-adv-x="350" 
d="M113 592q22 22 52 22q29 0 51.5 -22.5t22.5 -51.5q0 -31 -22.5 -54t-51.5 -23t-51.5 23t-22.5 54q0 30 22 52zM132.5 505q14.5 -15 33.5 -15q18 0 32 15t14 35q0 17 -14 31.5t-32 14.5q-20 0 -34 -14t-14 -32q0 -20 14.5 -35zM70 185q46 25 140 25h41v19q0 47 -24 78
t-70 31q-33 0 -58 -12q-26 -12 -28 -12q-9 0 -15 8.5t-6 19.5q0 15 34.5 28t73.5 13q72 0 108.5 -42t36.5 -112v-208q0 -9 -7 -15t-18 -6q-10 0 -17 6t-7 15v35q-54 -62 -121 -62q-49 0 -79 27.5t-30 78.5q0 60 46 85zM95 55q19 -17 51 -17q24 0 48.5 13t40.5 33t16 38v52
h-33q-33 0 -54.5 -2.5t-43.5 -9.5q-44 -12 -44 -57q0 -33 19 -50z" />
    <glyph glyph-name="ae" unicode="&#xe6;" horiz-adv-x="582" 
d="M69.5 185q45.5 25 140.5 25h40v19q0 48 -24.5 78.5t-71.5 30.5q-29 0 -56 -11l-28 -12q-9 0 -15 8.5t-6 18.5q0 15 35 28.5t74 13.5q88 0 122 -75q20 34 52.5 54t70.5 20q40 0 74.5 -18t55.5 -53t21 -83q0 -34 -14.5 -44.5t-55.5 -10.5h-179v-30q0 -47 33 -75.5t86 -28.5
q41 0 79 24q9 8 18 8q8 0 15 -8t7 -17q0 -12 -19 -24.5t-48.5 -20.5t-59.5 -8q-46 0 -84.5 22t-57.5 60q-23 -39 -60 -60.5t-77 -21.5q-50 0 -81.5 28t-31.5 78q0 60 45.5 85zM305 212h158q24 0 32 5.5t8 20.5q0 42 -28.5 72t-71.5 30q-41 0 -69.5 -28.5t-28.5 -68.5v-31z
M95 55.5q19 -17.5 50 -17.5q25 0 49.5 13.5t40 33t15.5 37.5v52h-34q-60 0 -97 -12q-43 -13 -43 -59q0 -30 19 -47.5z" />
    <glyph glyph-name="ccedilla" unicode="&#xe7;" horiz-adv-x="329" 
d="M37 232q0 69 40 110t114 41q31 0 57 -8t41 -20t15 -24q0 -9 -7 -17t-16 -8q-5 0 -15 7q-32 22 -72 22q-51 0 -78 -27t-27 -76v-86q0 -50 27 -77t78 -27q45 0 76 24q11 7 15 7q10 0 17 -8t7 -18q0 -15 -29 -32q-28 -15 -74 -20l-12 -44q38 -1 57.5 -16.5t19.5 -40.5
q0 -26 -19 -44t-52 -18q-22 0 -42 6t-20 15q0 5 3.5 12t8.5 7l16 -6q10 -5 29 -5q43 0 43 31q0 29 -51 34l-30 2l17 67q-66 5 -101.5 45t-35.5 106v86z" />
    <glyph glyph-name="egrave" unicode="&#xe8;" horiz-adv-x="366" 
d="M129 553.5q6 7.5 13 7.5q4 0 8 -3l88 -48q9 -4 9 -15q0 -9 -6.5 -15.5t-14.5 -6.5l-8 2l-84 46q-11 4 -11 17q0 8 6 15.5zM36 236q0 39 20.5 73t56 54t76.5 20q40 0 74.5 -19t54.5 -52t20 -74q0 -45 -21 -56q-12 -5 -21.5 -6.5t-26.5 -1.5h-181v-30q0 -47 34 -75.5
t88 -28.5q43 0 79 24q9 8 17 8q9 0 15.5 -8t6.5 -17q0 -16 -34 -34q-38 -19 -86 -19q-76 0 -124 42t-48 110v90zM88 212h160q24 0 32 5.5t8 21.5q0 41 -28.5 71t-71.5 30q-41 0 -70.5 -29t-29.5 -69v-30z" />
    <glyph glyph-name="eacute" unicode="&#xe9;" horiz-adv-x="366" 
d="M136 510l90 48q2 3 6 3q9 0 14 -7t5 -16q0 -12 -9 -17l-86 -46l-8 -2q-8 0 -14.5 6.5t-6.5 15.5q0 11 9 15zM36 236q0 39 20.5 73t56 54t76.5 20q40 0 74.5 -19t54.5 -52t20 -74q0 -45 -21 -56q-12 -5 -21.5 -6.5t-26.5 -1.5h-181v-30q0 -47 34 -75.5t88 -28.5
q43 0 79 24q9 8 17 8q9 0 15.5 -8t6.5 -17q0 -16 -34 -34q-38 -19 -86 -19q-76 0 -124 42t-48 110v90zM88 212h160q24 0 32 5.5t8 21.5q0 41 -28.5 71t-71.5 30q-41 0 -70.5 -29t-29.5 -69v-30z" />
    <glyph glyph-name="ecircumflex" unicode="&#xea;" horiz-adv-x="366" 
d="M91 512l83 45q8 4 14 4t14 -4l83 -45q10 -4 10 -18q0 -8 -4.5 -14t-11.5 -6l-8 3l-83 44l-83 -45l-7 -2q-7 0 -12 6t-5 14q0 12 10 18zM36 236q0 39 20.5 73t56 54t76.5 20q40 0 74.5 -19t54.5 -52t20 -74q0 -45 -21 -56q-12 -5 -21.5 -6.5t-26.5 -1.5h-181v-30
q0 -47 34 -75.5t88 -28.5q43 0 79 24q9 8 17 8q9 0 15.5 -8t6.5 -17q0 -16 -34 -34q-38 -19 -86 -19q-76 0 -124 42t-48 110v90zM88 212h160q24 0 32 5.5t8 21.5q0 41 -28.5 71t-71.5 30q-41 0 -70.5 -29t-29.5 -69v-30z" />
    <glyph glyph-name="edieresis" unicode="&#xeb;" horiz-adv-x="366" 
d="M118 525q8 8 21 8q12 0 20.5 -8t8.5 -21q0 -12 -8.5 -21t-20.5 -9t-20.5 9t-8.5 21q0 13 8 21zM216.5 525q8.5 8 21.5 8q12 0 20 -8t8 -21q0 -12 -8 -21t-20 -9q-13 0 -21.5 9t-8.5 21q0 13 8.5 21zM36 236q0 39 20.5 73t56 54t76.5 20q40 0 74.5 -19t54.5 -52t20 -74
q0 -45 -21 -56q-12 -5 -21.5 -6.5t-26.5 -1.5h-181v-30q0 -47 34 -75.5t88 -28.5q43 0 79 24q9 8 17 8q9 0 15.5 -8t6.5 -17q0 -16 -34 -34q-38 -19 -86 -19q-76 0 -124 42t-48 110v90zM88 212h160q24 0 32 5.5t8 21.5q0 41 -28.5 71t-71.5 30q-41 0 -70.5 -29t-29.5 -69
v-30z" />
    <glyph glyph-name="igrave" unicode="&#xec;" horiz-adv-x="153" 
d="M15.5 554q5.5 7 13.5 7q4 0 7 -3l89 -48q9 -5 9 -15q0 -9 -6.5 -15.5t-14.5 -6.5q-4 0 -8 2l-85 46q-10 4 -10 17q0 9 5.5 16zM50 359q0 8 7.5 13.5t18.5 5.5t18.5 -5.5t7.5 -13.5v-338q0 -8 -8 -14.5t-18 -6.5t-18 6.5t-8 14.5v338z" />
    <glyph glyph-name="iacute" unicode="&#xed;" horiz-adv-x="153" 
d="M26 510l90 48q3 3 6 3q9 0 14.5 -7t5.5 -16q0 -12 -10 -17l-86 -46q-4 -2 -8 -2q-8 0 -14 6.5t-6 15.5q0 10 8 15zM50 359q0 8 7.5 13.5t18.5 5.5t18.5 -5.5t7.5 -13.5v-338q0 -8 -8 -14.5t-18 -6.5t-18 6.5t-8 14.5v338z" />
    <glyph glyph-name="icircumflex" unicode="&#xee;" horiz-adv-x="153" 
d="M-21 512l83 45q8 4 14 4t14 -4l83 -45q10 -4 10 -18q0 -8 -4.5 -14t-11.5 -6l-8 3l-83 44l-83 -45l-7 -2q-7 0 -12 6t-5 14q0 12 10 18zM50 359q0 8 7.5 13.5t18.5 5.5t18.5 -5.5t7.5 -13.5v-338q0 -8 -8 -14.5t-18 -6.5t-18 6.5t-8 14.5v338z" />
    <glyph glyph-name="idieresis" unicode="&#xef;" horiz-adv-x="153" 
d="M7.5 525q8.5 8 21.5 8q12 0 20.5 -8t8.5 -21q0 -12 -8.5 -21t-20.5 -9q-13 0 -21.5 9t-8.5 21q0 13 8.5 21zM106 525q8 8 21 8t21 -8t8 -21q0 -12 -8.5 -21t-20.5 -9t-20.5 9t-8.5 21q0 13 8 21zM50 359q0 8 7.5 13.5t18.5 5.5t18.5 -5.5t7.5 -13.5v-338q0 -8 -8 -14.5
t-18 -6.5t-18 6.5t-8 14.5v338z" />
    <glyph glyph-name="eth" unicode="&#xf0;" horiz-adv-x="386" 
d="M35 234q0 39 19.5 73.5t52 55t70.5 20.5q37 0 69 -18.5t42 -47.5q-9 106 -57 173l-67 -39l-8 -2q-7 0 -14 7.5t-7 15.5q0 10 9 14l62 36q-38 39 -84 41q-14 6 -14 21q0 11 8 18.5t22 7.5q59 0 113 -61l59 33q2 3 7 3q8 0 14.5 -7t6.5 -16q0 -10 -9 -14l-54 -32
q65 -97 65 -228v-142q0 -39 -21.5 -74.5t-56.5 -56.5t-75 -21t-75 21t-56 56.5t-21 74.5v88zM87 146q0 -41 30 -72.5t70 -31.5q41 0 71 31.5t30 72.5v90q0 39 -30.5 69t-70.5 30t-70 -31t-30 -70v-88z" />
    <glyph glyph-name="ntilde" unicode="&#xf1;" 
d="M72 510q0 19 22.5 32t47.5 13q19 0 53 -13q34 -14 53 -14q21 0 36 12q16 11 20 11q7 0 11.5 -5.5t4.5 -12.5q0 -21 -21.5 -33.5t-45.5 -12.5q-22 0 -53 15q-36 13 -54 13q-20 0 -37 -13q-18 -12 -22 -12q-15 0 -15 20zM50 359q0 9 7 14t19 5q10 0 17 -5.5t7 -13.5v-37
q14 27 42.5 44t64.5 17q38 0 71 -20t52.5 -54.5t19.5 -74.5v-213q0 -9 -8 -15t-19 -6q-10 0 -17.5 6t-7.5 15v213q0 39 -30 70t-70 31q-39 0 -67.5 -28.5t-28.5 -72.5v-213q0 -8 -8 -14.5t-18 -6.5q-11 0 -18.5 6.5t-7.5 14.5v338z" />
    <glyph glyph-name="ograve" unicode="&#xf2;" horiz-adv-x="374" 
d="M127.5 554q5.5 7 13.5 7q4 0 7 -3l89 -48q9 -5 9 -15q0 -9 -6.5 -15.5t-14.5 -6.5q-4 0 -8 2l-85 46q-10 4 -10 17q0 9 5.5 16zM35 234q0 39 20.5 73.5t55.5 55t75 20.5q41 0 76 -20t56 -54.5t21 -74.5v-88q0 -39 -21.5 -74.5t-56.5 -56.5t-75 -21q-39 0 -74 21t-56 56.5
t-21 74.5v88zM87 146q0 -41 29.5 -72.5t69.5 -31.5q41 0 71 31.5t30 72.5v88q0 40 -30 70.5t-71 30.5q-40 0 -69.5 -30.5t-29.5 -70.5v-88z" />
    <glyph glyph-name="oacute" unicode="&#xf3;" horiz-adv-x="374" 
d="M134 510l90 48q3 3 6 3q9 0 14.5 -7t5.5 -16q0 -12 -10 -17l-86 -46q-4 -2 -8 -2q-8 0 -14 6.5t-6 15.5q0 10 8 15zM35 234q0 39 20.5 73.5t55.5 55t75 20.5q41 0 76 -20t56 -54.5t21 -74.5v-88q0 -39 -21.5 -74.5t-56.5 -56.5t-75 -21q-39 0 -74 21t-56 56.5t-21 74.5
v88zM87 146q0 -41 29.5 -72.5t69.5 -31.5q41 0 71 31.5t30 72.5v88q0 40 -30 70.5t-71 30.5q-40 0 -69.5 -30.5t-29.5 -70.5v-88z" />
    <glyph glyph-name="ocircumflex" unicode="&#xf4;" horiz-adv-x="374" 
d="M90 512l83 45q8 4 13 4q6 0 14 -4l83 -45q11 -5 11 -18q0 -8 -5 -14t-11 -6l-8 3l-84 44l-83 -45l-7 -2q-7 0 -12 6t-5 14q0 13 11 18zM35 234q0 39 20.5 73.5t55.5 55t75 20.5q41 0 76 -20t56 -54.5t21 -74.5v-88q0 -39 -21.5 -74.5t-56.5 -56.5t-75 -21q-39 0 -74 21
t-56 56.5t-21 74.5v88zM87 146q0 -41 29.5 -72.5t69.5 -31.5q41 0 71 31.5t30 72.5v88q0 40 -30 70.5t-71 30.5q-40 0 -69.5 -30.5t-29.5 -70.5v-88z" />
    <glyph glyph-name="otilde" unicode="&#xf5;" horiz-adv-x="374" 
d="M63 510q0 19 22.5 32t48.5 13q18 0 52 -13q34 -14 53 -14q21 0 36 12q17 11 20 11q7 0 11.5 -5.5t4.5 -12.5q0 -21 -21 -33.5t-46 -12.5q-21 0 -53 15q-34 13 -53 13q-21 0 -38 -13q-18 -12 -22 -12q-15 0 -15 20zM35 234q0 39 20.5 73.5t55.5 55t75 20.5q41 0 76 -20
t56 -54.5t21 -74.5v-88q0 -39 -21.5 -74.5t-56.5 -56.5t-75 -21q-39 0 -74 21t-56 56.5t-21 74.5v88zM87 146q0 -41 29.5 -72.5t69.5 -31.5q41 0 71 31.5t30 72.5v88q0 40 -30 70.5t-71 30.5q-40 0 -69.5 -30.5t-29.5 -70.5v-88z" />
    <glyph glyph-name="odieresis" unicode="&#xf6;" horiz-adv-x="374" 
d="M117.5 525q8.5 8 20.5 8t20.5 -8t8.5 -21q0 -12 -8.5 -21t-20.5 -9t-20.5 9t-8.5 21q0 13 8.5 21zM215.5 525q8.5 8 21.5 8t21 -8t8 -21q0 -12 -8.5 -21t-20.5 -9q-13 0 -21.5 9t-8.5 21q0 13 8.5 21zM35 234q0 39 20.5 73.5t55.5 55t75 20.5q41 0 76 -20t56 -54.5
t21 -74.5v-88q0 -39 -21.5 -74.5t-56.5 -56.5t-75 -21q-39 0 -74 21t-56 56.5t-21 74.5v88zM87 146q0 -41 29.5 -72.5t69.5 -31.5q41 0 71 31.5t30 72.5v88q0 40 -30 70.5t-71 30.5q-40 0 -69.5 -30.5t-29.5 -70.5v-88z" />
    <glyph glyph-name="divide" unicode="&#xf7;" horiz-adv-x="361" 
d="M150 350q12 12 28 12t27.5 -12t11.5 -27q0 -16 -11.5 -27t-27.5 -11q-17 0 -28.5 11t-11.5 27q0 15 12 27zM38.5 208q5.5 6 14.5 6h255q8 0 14.5 -6.5t6.5 -15.5t-6.5 -15.5t-14.5 -6.5h-255q-20 0 -20 22q0 10 5.5 16zM138 62q0 15 12 26.5t28 11.5t27.5 -11.5
t11.5 -26.5t-11.5 -27.5t-27.5 -12.5t-28 12t-12 28z" />
    <glyph glyph-name="oslash" unicode="&#xf8;" horiz-adv-x="374" 
d="M35 234q0 39 20.5 73.5t55.5 55t75 20.5q41 0 78 -21l22 38q4 7 12 7q7 0 12.5 -5t5.5 -12q0 -6 -3 -11l-22 -37q48 -46 48 -108v-88q0 -39 -21.5 -74.5t-56.5 -56.5t-75 -21q-45 0 -80 25l-22 -37q-5 -8 -14 -8q-6 0 -11 4.5t-5 11.5q0 5 4 8l23 41q-46 46 -46 107v88z
M87 146q0 -33 20 -61l133 233q-24 17 -54 17q-40 0 -69.5 -30.5t-29.5 -70.5v-88zM130 62q25 -20 56 -20q41 0 71 31.5t30 72.5v88q0 33 -22 62z" />
    <glyph glyph-name="ugrave" unicode="&#xf9;" 
d="M139 553.5q6 7.5 13 7.5q4 0 7 -3l89 -48q9 -4 9 -15q0 -9 -6.5 -15.5t-14.5 -6.5l-8 2l-85 46q-10 4 -10 17q0 8 6 15.5zM46 358q0 8 8 14t19 6q10 0 17.5 -6t7.5 -14v-213q0 -41 30 -72t70 -31q41 0 70.5 31t29.5 72v214q0 8 8 13.5t19 5.5q10 0 17.5 -5.5t7.5 -13.5
v-214q0 -39 -20.5 -74t-55.5 -56t-76 -21t-76 21t-55.5 56t-20.5 74v213z" />
    <glyph glyph-name="uacute" unicode="&#xfa;" 
d="M148 510l90 48q2 3 6 3q9 0 14 -7t5 -16q0 -12 -9 -17l-86 -46q-4 -2 -8 -2q-8 0 -14.5 6.5t-6.5 15.5q0 11 9 15zM46 358q0 8 8 14t19 6q10 0 17.5 -6t7.5 -14v-213q0 -41 30 -72t70 -31q41 0 70.5 31t29.5 72v214q0 8 8 13.5t19 5.5q10 0 17.5 -5.5t7.5 -13.5v-214
q0 -39 -20.5 -74t-55.5 -56t-76 -21t-76 21t-55.5 56t-20.5 74v213z" />
    <glyph glyph-name="ucircumflex" unicode="&#xfb;" 
d="M102 512l83 45q8 4 13 4q6 0 14 -4l83 -45q11 -5 11 -18q0 -8 -5 -14t-11 -6l-8 3l-84 44l-83 -45l-7 -2q-7 0 -12 6t-5 14q0 13 11 18zM46 358q0 8 8 14t19 6q10 0 17.5 -6t7.5 -14v-213q0 -41 30 -72t70 -31q41 0 70.5 31t29.5 72v214q0 8 8 13.5t19 5.5
q10 0 17.5 -5.5t7.5 -13.5v-214q0 -39 -20.5 -74t-55.5 -56t-76 -21t-76 21t-55.5 56t-20.5 74v213z" />
    <glyph glyph-name="udieresis" unicode="&#xfc;" 
d="M128.5 525q8.5 8 21.5 8q12 0 20 -8t8 -21q0 -12 -8 -21t-20 -9q-13 0 -21.5 9t-8.5 21q0 13 8.5 21zM226.5 525q8.5 8 21.5 8t21 -8t8 -21q0 -12 -8.5 -21t-20.5 -9q-13 0 -21.5 9t-8.5 21q0 13 8.5 21zM46 358q0 8 8 14t19 6q10 0 17.5 -6t7.5 -14v-213q0 -41 30 -72
t70 -31q41 0 70.5 31t29.5 72v214q0 8 8 13.5t19 5.5q10 0 17.5 -5.5t7.5 -13.5v-214q0 -39 -20.5 -74t-55.5 -56t-76 -21t-76 21t-55.5 56t-20.5 74v213z" />
    <glyph glyph-name="yacute" unicode="&#xfd;" horiz-adv-x="336" 
d="M124 510l90 48q2 3 6 3q9 0 14 -7t5 -16q0 -12 -9 -17l-86 -46q-4 -2 -8 -2q-8 0 -14.5 6.5t-6.5 15.5q0 11 9 15zM21 375.5q10 7.5 22 7.5q14 0 19 -11l109 -294l103 294q6 11 18 11q11 0 21.5 -8t10.5 -17q0 -5 -2 -7l-124 -336l-14 -39q-2 -4 -14.5 -34t-20.5 -43
l-21 -32q-13 -18 -25 -27.5t-31 -17.5t-36 -8q-24 0 -24 24t16 24q36 0 67.5 43.5t48.5 110.5l-130 335q-3 5 -3 7q0 10 10 17.5z" />
    <glyph glyph-name="thorn" unicode="&#xfe;" horiz-adv-x="388" 
d="M51 591q0 8 7.5 13.5t18.5 5.5t18.5 -5.5t7.5 -13.5v-269q15 27 43 44t63 17q39 0 72 -20t52.5 -54.5t19.5 -74.5v-88q0 -39 -20 -74t-52.5 -56.5t-69.5 -21.5q-34 0 -63.5 17.5t-44.5 44.5v-222q0 -7 -7.5 -13.5t-18.5 -6.5q-10 0 -18 6.5t-8 13.5v757zM103 122
q0 -15 14.5 -34t37.5 -32.5t47 -13.5q39 0 69 32t30 72v88q0 39 -30.5 70t-70.5 31q-39 0 -68 -28.5t-29 -72.5v-112z" />
    <glyph glyph-name="ydieresis" unicode="&#xff;" horiz-adv-x="336" 
d="M100.5 525q8.5 8 21.5 8q12 0 20 -8t8 -21q0 -12 -8 -21t-20 -9q-13 0 -21.5 9t-8.5 21q0 13 8.5 21zM198.5 525q8.5 8 21.5 8t21 -8t8 -21q0 -12 -8.5 -21t-20.5 -9q-13 0 -21.5 9t-8.5 21q0 13 8.5 21zM21 375.5q10 7.5 22 7.5q14 0 19 -11l109 -294l103 294
q6 11 18 11q11 0 21.5 -8t10.5 -17q0 -5 -2 -7l-124 -336l-14 -39q-2 -4 -14.5 -34t-20.5 -43l-21 -32q-13 -18 -25 -27.5t-31 -17.5t-36 -8q-24 0 -24 24t16 24q36 0 67.5 43.5t48.5 110.5l-130 335q-3 5 -3 7q0 10 10 17.5z" />
    <glyph glyph-name="Amacron" unicode="&#x100;" horiz-adv-x="432" 
d="M110 731q0 9 5.5 15t14.5 6h172q7 0 13.5 -6t6.5 -15q0 -7 -6.5 -13.5t-13.5 -6.5h-172q-9 0 -15 6q-5 5 -5 14zM18 28l167 543q6 19 31 19q26 0 32 -19l166 -543q0 -2 1 -2v-3q0 -9 -10 -16t-22 -7q-15 0 -20 14l-37 123h-221l-37 -123q-3 -14 -21 -14q-11 0 -20.5 6.5
t-9.5 15.5q0 5 1 6zM118 182h195l-97 323z" />
    <glyph glyph-name="amacron" unicode="&#x101;" horiz-adv-x="350" 
d="M65 528q0 9 5.5 15t14.5 6h172q7 0 13.5 -6t6.5 -15q0 -7 -6.5 -13.5t-13.5 -6.5h-172q-9 0 -15 6q-5 5 -5 14zM70 185q46 25 140 25h41v19q0 47 -24 78t-70 31q-33 0 -58 -12q-26 -12 -28 -12q-9 0 -15 8.5t-6 19.5q0 15 34.5 28t73.5 13q72 0 108.5 -42t36.5 -112v-208
q0 -9 -7 -15t-18 -6q-10 0 -17 6t-7 15v35q-54 -62 -121 -62q-49 0 -79 27.5t-30 78.5q0 60 46 85zM95 55q19 -17 51 -17q24 0 48.5 13t40.5 33t16 38v52h-33q-33 0 -54.5 -2.5t-43.5 -9.5q-44 -12 -44 -57q0 -33 19 -50z" />
    <glyph glyph-name="Abreve" unicode="&#x102;" horiz-adv-x="432" 
d="M158 774q0 -27 17 -45.5t41 -18.5t41 18.5t17 45.5h35q0 -37 -28.5 -65t-64.5 -28q-38 0 -66 28t-28 65h36zM18 28l167 543q6 19 31 19q26 0 32 -19l166 -543q0 -2 1 -2v-3q0 -9 -10 -16t-22 -7q-15 0 -20 14l-37 123h-221l-37 -123q-3 -14 -21 -14q-11 0 -20.5 6.5
t-9.5 15.5q0 5 1 6zM118 182h195l-97 323z" />
    <glyph glyph-name="abreve" unicode="&#x103;" horiz-adv-x="350" 
d="M112 571q0 -27 17 -46t41 -19t41 19t17 46h35q0 -37 -28.5 -65t-64.5 -28q-37 0 -65 28t-28 65h35zM70 185q46 25 140 25h41v19q0 47 -24 78t-70 31q-33 0 -58 -12q-26 -12 -28 -12q-9 0 -15 8.5t-6 19.5q0 15 34.5 28t73.5 13q72 0 108.5 -42t36.5 -112v-208
q0 -9 -7 -15t-18 -6q-10 0 -17 6t-7 15v35q-54 -62 -121 -62q-49 0 -79 27.5t-30 78.5q0 60 46 85zM95 55q19 -17 51 -17q24 0 48.5 13t40.5 33t16 38v52h-33q-33 0 -54.5 -2.5t-43.5 -9.5q-44 -12 -44 -57q0 -33 19 -50z" />
    <glyph glyph-name="Aogonek" unicode="&#x104;" horiz-adv-x="432" 
d="M18 28l167 543q6 19 31 19q26 0 32 -19l166 -543q0 -2 1 -2v-3q0 -12 -18 -21q-59 -48 -59 -99q0 -36 50 -36q16 0 16 -14t-20 -14q-35 0 -56.5 15t-21.5 45q0 59 58 111v2l-1 2l-37 123h-221l-37 -123q-3 -14 -21 -14q-11 0 -20.5 6.5t-9.5 15.5q0 5 1 6zM118 182h195
l-97 323z" />
    <glyph glyph-name="aogonek" unicode="&#x105;" horiz-adv-x="350" 
d="M70 185q46 25 140 25h41v19q0 47 -24 78t-70 31q-33 0 -58 -12q-26 -12 -28 -12q-9 0 -15 8.5t-6 19.5q0 15 34.5 28t73.5 13q72 0 108.5 -42t36.5 -112v-208q0 -13 -12 -19q-58 -48 -58 -99q0 -36 49 -36q16 0 16 -14t-20 -14q-35 0 -56 15t-21 45q0 59 56 111
q-3 2 -3 11v35q-54 -62 -121 -62q-49 0 -79 27.5t-30 78.5q0 60 46 85zM95 55q19 -17 51 -17q24 0 48.5 13t40.5 33t16 38v52h-33q-33 0 -54.5 -2.5t-43.5 -9.5q-44 -12 -44 -57q0 -33 19 -50z" />
    <glyph glyph-name="Cacute" unicode="&#x106;" horiz-adv-x="418" 
d="M173 713l89 49q4 2 7 2q9 0 14 -6.5t5 -15.5q0 -14 -10 -18l-85 -46l-8 -2q-8 0 -14.5 6.5t-6.5 15.5q0 11 9 15zM54 414q0 84 45.5 127.5t122.5 43.5q75 0 120 -38t45 -96q0 -18 -5.5 -25t-20.5 -7q-25 0 -27 20q0 24 -12 49q-16 29 -52 42q-19 6 -48 6
q-115 0 -115 -122v-248q0 -122 119 -122q33 0 55.5 9.5t32.5 26.5q10 16 14 28.5t6 33.5q3 21 27 21q15 0 20.5 -7t5.5 -26q0 -58 -46 -96.5t-121 -38.5q-76 0 -121 43t-45 128v248z" />
    <glyph glyph-name="cacute" unicode="&#x107;" horiz-adv-x="329" 
d="M124 510l90 48q2 3 6 3q9 0 14 -7t5 -16q0 -12 -9 -17l-86 -46q-4 -2 -8 -2q-8 0 -14.5 6.5t-6.5 15.5q0 11 9 15zM37 232q0 69 40 110t114 41q31 0 57 -8t41 -20t15 -24q0 -9 -7 -17t-16 -8q-5 0 -15 7q-32 22 -72 22q-51 0 -78 -27t-27 -76v-86q0 -50 27 -77t78 -27
q45 0 76 24q11 7 15 7q10 0 17 -8t7 -18q0 -19 -34 -35q-33 -18 -83 -18q-75 0 -115 41t-40 111v86z" />
    <glyph glyph-name="Ccircumflex" unicode="&#x108;" horiz-adv-x="418" 
d="M124 715l83 45q8 4 14 4q5 0 13 -4l84 -45q10 -4 10 -18q0 -8 -4.5 -13.5t-11.5 -5.5q-3 0 -8 2l-83 44l-83 -45l-8 -2q-6 0 -11 6.5t-5 14.5q0 11 10 17zM54 414q0 84 45.5 127.5t122.5 43.5q75 0 120 -38t45 -96q0 -18 -5.5 -25t-20.5 -7q-25 0 -27 20q0 24 -12 49
q-16 29 -52 42q-19 6 -48 6q-115 0 -115 -122v-248q0 -122 119 -122q33 0 55.5 9.5t32.5 26.5q10 16 14 28.5t6 33.5q3 21 27 21q15 0 20.5 -7t5.5 -26q0 -58 -46 -96.5t-121 -38.5q-76 0 -121 43t-45 128v248z" />
    <glyph glyph-name="ccircumflex" unicode="&#x109;" horiz-adv-x="329" 
d="M78 512l84 45q8 4 13 4q6 0 14 -4l83 -45q10 -4 10 -18q0 -8 -4.5 -14t-11.5 -6l-8 3l-83 44l-83 -45l-7 -2q-7 0 -12 6t-5 14q0 12 10 18zM37 232q0 69 40 110t114 41q31 0 57 -8t41 -20t15 -24q0 -9 -7 -17t-16 -8q-5 0 -15 7q-32 22 -72 22q-51 0 -78 -27t-27 -76v-86
q0 -50 27 -77t78 -27q45 0 76 24q11 7 15 7q10 0 17 -8t7 -18q0 -19 -34 -35q-33 -18 -83 -18q-75 0 -115 41t-40 111v86z" />
    <glyph glyph-name="Cdotaccent" unicode="&#x10a;" horiz-adv-x="418" 
d="M200.5 728q8.5 8 21.5 8q12 0 20 -8t8 -21q0 -12 -8 -20.5t-20 -8.5q-13 0 -21.5 8.5t-8.5 20.5q0 13 8.5 21zM54 414q0 84 45.5 127.5t122.5 43.5q75 0 120 -38t45 -96q0 -18 -5.5 -25t-20.5 -7q-25 0 -27 20q0 24 -12 49q-16 29 -52 42q-19 6 -48 6q-115 0 -115 -122
v-248q0 -122 119 -122q33 0 55.5 9.5t32.5 26.5q10 16 14 28.5t6 33.5q3 21 27 21q15 0 20.5 -7t5.5 -26q0 -58 -46 -96.5t-121 -38.5q-76 0 -121 43t-45 128v248z" />
    <glyph glyph-name="cdotaccent" unicode="&#x10b;" horiz-adv-x="329" 
d="M153.5 525q8.5 8 20.5 8t20.5 -8t8.5 -21q0 -12 -8.5 -21t-20.5 -9t-20.5 9t-8.5 21q0 13 8.5 21zM37 232q0 69 40 110t114 41q31 0 57 -8t41 -20t15 -24q0 -9 -7 -17t-16 -8q-5 0 -15 7q-32 22 -72 22q-51 0 -78 -27t-27 -76v-86q0 -50 27 -77t78 -27q45 0 76 24
q11 7 15 7q10 0 17 -8t7 -18q0 -19 -34 -35q-33 -18 -83 -18q-75 0 -115 41t-40 111v86z" />
    <glyph glyph-name="Ccaron" unicode="&#x10c;" horiz-adv-x="418" 
d="M117 783q4 5 11 5t12 -5l80 -73l79 73q5 5 12 5t11 -5t4 -13q0 -9 -9 -18l-81 -72q-8 -8 -16 -8t-16 8l-81 72q-10 9 -10 18q0 8 4 13zM54 414q0 84 45.5 127.5t122.5 43.5q75 0 120 -38t45 -96q0 -18 -5.5 -25t-20.5 -7q-25 0 -27 20q0 24 -12 49q-16 29 -52 42
q-19 6 -48 6q-115 0 -115 -122v-248q0 -122 119 -122q33 0 55.5 9.5t32.5 26.5q10 16 14 28.5t6 33.5q3 21 27 21q15 0 20.5 -7t5.5 -26q0 -58 -46 -96.5t-121 -38.5q-76 0 -121 43t-45 128v248z" />
    <glyph glyph-name="ccaron" unicode="&#x10d;" horiz-adv-x="329" 
d="M70.5 580q4.5 5 11.5 5q5 0 12 -5l80 -74l79 74q5 5 12 5t11 -5t4 -13q0 -11 -10 -18l-80 -72q-9 -8 -16 -8q-9 0 -16 8l-81 72q-11 8 -11 18q0 8 4.5 13zM37 232q0 69 40 110t114 41q31 0 57 -8t41 -20t15 -24q0 -9 -7 -17t-16 -8q-5 0 -15 7q-32 22 -72 22
q-51 0 -78 -27t-27 -76v-86q0 -50 27 -77t78 -27q45 0 76 24q11 7 15 7q10 0 17 -8t7 -18q0 -19 -34 -35q-33 -18 -83 -18q-75 0 -115 41t-40 111v86z" />
    <glyph glyph-name="Dcaron" unicode="&#x10e;" horiz-adv-x="448" 
d="M118.5 783q4.5 5 11.5 5q5 0 12 -5l80 -73l79 73q5 5 12 5t11 -5t4 -13q0 -9 -10 -18l-80 -72q-9 -8 -16 -8q-9 0 -16 8l-81 72q-11 9 -11 18q0 8 4.5 13zM61 566q0 8 7 13.5t17 5.5h141q79 0 123.5 -42.5t44.5 -128.5v-243q0 -86 -44.5 -128.5t-123.5 -42.5h-141
q-10 0 -17 6t-7 14v546zM114 49h112q55 0 85 31t30 91v243q0 60 -30 91t-85 31h-112v-487z" />
    <glyph glyph-name="dcaron" unicode="&#x10f;" horiz-adv-x="387" 
d="M36 234q0 40 19 74.5t52 54.5t72 20q35 0 63 -17t43 -44v269q0 8 8 13.5t19 5.5t18 -5.5t7 -13.5v-570q0 -8 -7.5 -14.5t-17.5 -6.5t-17.5 6.5t-7.5 14.5v35q-14 -26 -44 -44t-65 -18q-37 0 -70 21t-52.5 56.5t-19.5 74.5v88zM395 582q11 11 26 11t26 -11t11 -26t-33 -90
q-4 -10 -15 -10q-7 0 -13 5t-6 12q0 3 2 7l15 42q-24 8 -24 34q0 15 11 26zM88 146q0 -40 30 -72t69 -32q24 0 46.5 13.5t37 32.5t14.5 34v112q0 44 -29 72.5t-68 28.5q-40 0 -70 -31t-30 -70v-88z" />
    <glyph glyph-name="Dcroat" unicode="&#x110;" horiz-adv-x="455" 
d="M4.5 322.5q5.5 6.5 13.5 6.5h50v237q0 8 7 13.5t17 5.5h142q78 0 122.5 -42.5t44.5 -128.5v-243q0 -86 -44.5 -128.5t-122.5 -42.5h-142q-10 0 -17 6t-7 14v266h-50q-8 0 -13.5 5.5t-5.5 15.5q0 9 5.5 15.5zM121 49h113q55 0 84.5 31t29.5 91v243q0 60 -29.5 91t-84.5 31
h-113v-207h90q8 0 13.5 -6.5t5.5 -15.5t-5.5 -15t-13.5 -6h-90v-237z" />
    <glyph glyph-name="dcroat" unicode="&#x111;" horiz-adv-x="387" 
d="M36 234q0 40 19 74.5t52 54.5t72 20q35 0 63 -17t43 -44v137h-95q-8 0 -13 6t-5 15t5.5 15.5t12.5 6.5h95v89q0 8 8 13.5t19 5.5t18 -5.5t7 -13.5v-89h39q7 0 12.5 -6.5t5.5 -15.5t-5 -15t-13 -6h-39v-438q0 -8 -7.5 -14.5t-17.5 -6.5t-17.5 6.5t-7.5 14.5v35
q-14 -26 -44 -44t-65 -18q-37 0 -70 21t-52.5 56.5t-19.5 74.5v88zM88 146q0 -40 30 -72t69 -32q24 0 46.5 13.5t37 32.5t14.5 34v112q0 44 -29 72.5t-68 28.5q-40 0 -70 -31t-30 -70v-88z" />
    <glyph glyph-name="Emacron" unicode="&#x112;" horiz-adv-x="406" 
d="M120 731q0 9 5.5 15t14.5 6h172q8 0 14 -6t6 -15q0 -7 -6 -13.5t-14 -6.5h-172q-8 0 -14 6t-6 14zM61 565q0 9 7 14.5t17 5.5h285q20 0 20 -23q0 -11 -5.5 -18.5t-14.5 -7.5h-256v-220h125q10 0 15 -6.5t5 -17.5q0 -22 -20 -22h-125v-221h256q9 0 14.5 -7t5.5 -18
q0 -24 -20 -24h-285q-10 0 -17 6t-7 15v544z" />
    <glyph glyph-name="emacron" unicode="&#x113;" horiz-adv-x="366" 
d="M82 528q0 9 5.5 15t14.5 6h172q8 0 14 -6t6 -15q0 -7 -6 -13.5t-14 -6.5h-172q-8 0 -14 6t-6 14zM36 236q0 39 20.5 73t56 54t76.5 20q40 0 74.5 -19t54.5 -52t20 -74q0 -45 -21 -56q-12 -5 -21.5 -6.5t-26.5 -1.5h-181v-30q0 -47 34 -75.5t88 -28.5q43 0 79 24q9 8 17 8
q9 0 15.5 -8t6.5 -17q0 -16 -34 -34q-38 -19 -86 -19q-76 0 -124 42t-48 110v90zM88 212h160q24 0 32 5.5t8 21.5q0 41 -28.5 71t-71.5 30q-41 0 -70.5 -29t-29.5 -69v-30z" />
    <glyph glyph-name="Ebreve" unicode="&#x114;" horiz-adv-x="406" 
d="M166 774q0 -27 17.5 -45.5t41.5 -18.5q23 0 40 18.5t17 45.5h36q0 -37 -28.5 -65t-64.5 -28q-38 0 -66 27.5t-28 65.5h35zM61 565q0 9 7 14.5t17 5.5h285q20 0 20 -23q0 -11 -5.5 -18.5t-14.5 -7.5h-256v-220h125q10 0 15 -6.5t5 -17.5q0 -22 -20 -22h-125v-221h256
q9 0 14.5 -7t5.5 -18q0 -24 -20 -24h-285q-10 0 -17 6t-7 15v544z" />
    <glyph glyph-name="ebreve" unicode="&#x115;" horiz-adv-x="366" 
d="M130 571q0 -27 17 -46t41 -19q23 0 40.5 19t17.5 46h35q0 -37 -28.5 -65t-64.5 -28q-38 0 -66 28t-28 65h36zM36 236q0 39 20.5 73t56 54t76.5 20q40 0 74.5 -19t54.5 -52t20 -74q0 -45 -21 -56q-12 -5 -21.5 -6.5t-26.5 -1.5h-181v-30q0 -47 34 -75.5t88 -28.5
q43 0 79 24q9 8 17 8q9 0 15.5 -8t6.5 -17q0 -16 -34 -34q-38 -19 -86 -19q-76 0 -124 42t-48 110v90zM88 212h160q24 0 32 5.5t8 21.5q0 41 -28.5 71t-71.5 30q-41 0 -70.5 -29t-29.5 -69v-30z" />
    <glyph glyph-name="Edotaccent" unicode="&#x116;" horiz-adv-x="406" 
d="M206.5 728q8.5 8 21.5 8q12 0 20.5 -8t8.5 -21q0 -12 -8.5 -20.5t-20.5 -8.5q-13 0 -21.5 8.5t-8.5 20.5q0 13 8.5 21zM61 565q0 9 7 14.5t17 5.5h285q20 0 20 -23q0 -11 -5.5 -18.5t-14.5 -7.5h-256v-220h125q10 0 15 -6.5t5 -17.5q0 -22 -20 -22h-125v-221h256
q9 0 14.5 -7t5.5 -18q0 -24 -20 -24h-285q-10 0 -17 6t-7 15v544z" />
    <glyph glyph-name="edotaccent" unicode="&#x117;" horiz-adv-x="366" 
d="M167.5 525q8.5 8 21.5 8q12 0 20.5 -8t8.5 -21q0 -12 -8.5 -21t-20.5 -9q-13 0 -21.5 9t-8.5 21q0 13 8.5 21zM36 236q0 39 20.5 73t56 54t76.5 20q40 0 74.5 -19t54.5 -52t20 -74q0 -45 -21 -56q-12 -5 -21.5 -6.5t-26.5 -1.5h-181v-30q0 -47 34 -75.5t88 -28.5
q43 0 79 24q9 8 17 8q9 0 15.5 -8t6.5 -17q0 -16 -34 -34q-38 -19 -86 -19q-76 0 -124 42t-48 110v90zM88 212h160q24 0 32 5.5t8 21.5q0 41 -28.5 71t-71.5 30q-41 0 -70.5 -29t-29.5 -69v-30z" />
    <glyph glyph-name="Eogonek" unicode="&#x118;" horiz-adv-x="406" 
d="M61 565q0 9 7 14.5t17 5.5h285q20 0 20 -23q0 -11 -5.5 -18.5t-14.5 -7.5h-256v-220h125q10 0 15 -6.5t5 -17.5q0 -22 -20 -22h-125v-221h256q9 0 14.5 -7t5.5 -18q0 -16 -12 -22q-57 -50 -57 -99q0 -36 49 -36q16 0 16 -14t-20 -14q-35 0 -56 15t-21 45q0 54 46 101
h-250q-10 0 -17 6t-7 15v544z" />
    <glyph glyph-name="eogonek" unicode="&#x119;" horiz-adv-x="366" 
d="M36 236q0 39 20.5 73t56 54t76.5 20q40 0 74.5 -19t54.5 -52t20 -74q0 -45 -21 -56q-12 -5 -21.5 -6.5t-26.5 -1.5h-181v-30q0 -47 34 -75.5t88 -28.5q43 0 79 24q9 8 17 8q9 0 15.5 -8t6.5 -17q0 -17 -35 -35q-52 -48 -52 -94q0 -36 49 -36q16 0 16 -14t-20 -14
q-34 0 -55.5 15.5t-21.5 44.5q0 42 30 83q-13 -3 -31 -3q-76 0 -124 42t-48 110v90zM88 212h160q24 0 32 5.5t8 21.5q0 41 -28.5 71t-71.5 30q-41 0 -70.5 -29t-29.5 -69v-30z" />
    <glyph glyph-name="Ecaron" unicode="&#x11a;" horiz-adv-x="406" 
d="M121 783q4 5 11 5t12 -5l80 -73l79 73q5 5 12 5t11 -5t4 -13q0 -9 -9 -18l-81 -72q-8 -8 -16 -8t-16 8l-81 72q-10 9 -10 18q0 8 4 13zM61 565q0 9 7 14.5t17 5.5h285q20 0 20 -23q0 -11 -5.5 -18.5t-14.5 -7.5h-256v-220h125q10 0 15 -6.5t5 -17.5q0 -22 -20 -22h-125
v-221h256q9 0 14.5 -7t5.5 -18q0 -24 -20 -24h-285q-10 0 -17 6t-7 15v544z" />
    <glyph glyph-name="ecaron" unicode="&#x11b;" horiz-adv-x="366" 
d="M85 580q4 5 11 5t12 -5l80 -74l79 74q5 5 12 5t11 -5t4 -13q0 -10 -9 -18l-81 -72q-8 -8 -16 -8t-16 8l-81 72q-10 7 -10 18q0 8 4 13zM36 236q0 39 20.5 73t56 54t76.5 20q40 0 74.5 -19t54.5 -52t20 -74q0 -45 -21 -56q-12 -5 -21.5 -6.5t-26.5 -1.5h-181v-30
q0 -47 34 -75.5t88 -28.5q43 0 79 24q9 8 17 8q9 0 15.5 -8t6.5 -17q0 -16 -34 -34q-38 -19 -86 -19q-76 0 -124 42t-48 110v90zM88 212h160q24 0 32 5.5t8 21.5q0 41 -28.5 71t-71.5 30q-41 0 -70.5 -29t-29.5 -69v-30z" />
    <glyph glyph-name="Gcircumflex" unicode="&#x11c;" horiz-adv-x="433" 
d="M121 715l83 45q8 4 14 4q5 0 13 -4l83 -45q11 -4 11 -18q0 -8 -4.5 -13.5t-11.5 -5.5q-3 0 -8 2l-83 44l-84 -45l-7 -2q-7 0 -12 6.5t-5 14.5q0 11 11 17zM54 414q0 86 44 128.5t122 42.5q76 0 121.5 -39t45.5 -100q0 -27 -26 -27q-25 0 -27 20q-10 97 -113 97
q-114 0 -114 -122v-248q0 -61 29.5 -91.5t84.5 -30.5t84 30.5t29 91.5v96h-107q-9 0 -14 6.5t-5 16.5q0 9 5 15.5t14 6.5h141q19 0 19 -21v-120q0 -86 -44 -128.5t-122 -42.5q-79 0 -123 42.5t-44 128.5v248z" />
    <glyph glyph-name="gcircumflex" unicode="&#x11d;" horiz-adv-x="362" 
d="M90 512l83 45q8 4 13 4q6 0 14 -4l83 -45q11 -5 11 -18q0 -8 -5 -14t-11 -6l-8 3l-84 44l-83 -45l-7 -2q-7 0 -12 6t-5 14q0 13 11 18zM88 8q-44 15 -44 55q0 35 40 58q-44 37 -44 101v30q0 59 38 95t100 36q56 0 93 -33q12 23 27.5 36.5t29.5 13.5q11 0 17.5 -6t6.5 -15
q0 -14 -14 -17q-27 -6 -44 -35q22 -29 22 -75v-30q0 -58 -39 -95.5t-100 -37.5q-31 0 -62 13q-25 -12 -25 -31q0 -30 65 -37q66 -5 120 -20q29 -9 46.5 -31t17.5 -55q0 -54 -42.5 -84t-114.5 -30t-117 29.5t-45 77.5q0 60 68 87zM90 222q0 -42 24 -68t64 -26q39 0 63 26.5
t24 67.5v30q0 41 -24 66.5t-63 25.5q-40 0 -64 -25.5t-24 -66.5v-30zM100.5 -127q30.5 -20 81.5 -20q50 0 78.5 20t28.5 53q0 31 -27 47q-10 6 -27 10.5t-32 6.5q-5 1 -13 2t-20 2l-28 3q-72 -23 -72 -71q0 -33 30.5 -53z" />
    <glyph glyph-name="Gbreve" unicode="&#x11e;" horiz-adv-x="433" 
d="M162 774q0 -27 17.5 -45.5t41.5 -18.5q23 0 40 18.5t17 45.5h36q0 -37 -28.5 -65t-64.5 -28q-38 0 -66 27.5t-28 65.5h35zM54 414q0 86 44 128.5t122 42.5q76 0 121.5 -39t45.5 -100q0 -27 -26 -27q-25 0 -27 20q-10 97 -113 97q-114 0 -114 -122v-248q0 -61 29.5 -91.5
t84.5 -30.5t84 30.5t29 91.5v96h-107q-9 0 -14 6.5t-5 16.5q0 9 5 15.5t14 6.5h141q19 0 19 -21v-120q0 -86 -44 -128.5t-122 -42.5q-79 0 -123 42.5t-44 128.5v248z" />
    <glyph glyph-name="gbreve" unicode="&#x11f;" horiz-adv-x="362" 
d="M128 571q0 -27 17 -46t41 -19t41 19t17 46h35q0 -37 -28.5 -65t-64.5 -28q-37 0 -65 28t-28 65h35zM88 8q-44 15 -44 55q0 35 40 58q-44 37 -44 101v30q0 59 38 95t100 36q56 0 93 -33q12 23 27.5 36.5t29.5 13.5q11 0 17.5 -6t6.5 -15q0 -14 -14 -17q-27 -6 -44 -35
q22 -29 22 -75v-30q0 -58 -39 -95.5t-100 -37.5q-31 0 -62 13q-25 -12 -25 -31q0 -30 65 -37q66 -5 120 -20q29 -9 46.5 -31t17.5 -55q0 -54 -42.5 -84t-114.5 -30t-117 29.5t-45 77.5q0 60 68 87zM90 222q0 -42 24 -68t64 -26q39 0 63 26.5t24 67.5v30q0 41 -24 66.5
t-63 25.5q-40 0 -64 -25.5t-24 -66.5v-30zM100.5 -127q30.5 -20 81.5 -20q50 0 78.5 20t28.5 53q0 31 -27 47q-10 6 -27 10.5t-32 6.5q-5 1 -13 2t-20 2l-28 3q-72 -23 -72 -71q0 -33 30.5 -53z" />
    <glyph glyph-name="Gdotaccent" unicode="&#x120;" horiz-adv-x="433" 
d="M199.5 728q8.5 8 21.5 8q12 0 20.5 -8t8.5 -21q0 -12 -8.5 -20.5t-20.5 -8.5q-13 0 -21.5 8.5t-8.5 20.5q0 13 8.5 21zM54 414q0 86 44 128.5t122 42.5q76 0 121.5 -39t45.5 -100q0 -27 -26 -27q-25 0 -27 20q-10 97 -113 97q-114 0 -114 -122v-248q0 -61 29.5 -91.5
t84.5 -30.5t84 30.5t29 91.5v96h-107q-9 0 -14 6.5t-5 16.5q0 9 5 15.5t14 6.5h141q19 0 19 -21v-120q0 -86 -44 -128.5t-122 -42.5q-79 0 -123 42.5t-44 128.5v248z" />
    <glyph glyph-name="gdotaccent" unicode="&#x121;" horiz-adv-x="362" 
d="M165.5 525q8.5 8 20.5 8t20.5 -8t8.5 -21q0 -12 -8.5 -21t-20.5 -9t-20.5 9t-8.5 21q0 13 8.5 21zM88 8q-44 15 -44 55q0 35 40 58q-44 37 -44 101v30q0 59 38 95t100 36q56 0 93 -33q12 23 27.5 36.5t29.5 13.5q11 0 17.5 -6t6.5 -15q0 -14 -14 -17q-27 -6 -44 -35
q22 -29 22 -75v-30q0 -58 -39 -95.5t-100 -37.5q-31 0 -62 13q-25 -12 -25 -31q0 -30 65 -37q66 -5 120 -20q29 -9 46.5 -31t17.5 -55q0 -54 -42.5 -84t-114.5 -30t-117 29.5t-45 77.5q0 60 68 87zM90 222q0 -42 24 -68t64 -26q39 0 63 26.5t24 67.5v30q0 41 -24 66.5
t-63 25.5q-40 0 -64 -25.5t-24 -66.5v-30zM100.5 -127q30.5 -20 81.5 -20q50 0 78.5 20t28.5 53q0 31 -27 47q-10 6 -27 10.5t-32 6.5q-5 1 -13 2t-20 2l-28 3q-72 -23 -72 -71q0 -33 30.5 -53z" />
    <glyph glyph-name="Gcommaaccent" unicode="&#x122;" horiz-adv-x="433" 
d="M54 414q0 86 44 128.5t122 42.5q76 0 121.5 -39t45.5 -100q0 -27 -26 -27q-25 0 -27 20q-10 97 -113 97q-114 0 -114 -122v-248q0 -61 29.5 -91.5t84.5 -30.5t84 30.5t29 91.5v96h-107q-9 0 -14 6.5t-5 16.5q0 9 5 15.5t14 6.5h141q19 0 19 -21v-120q0 -86 -44 -128.5
t-122 -42.5q-79 0 -123 42.5t-44 128.5v248zM166 -90l89 50l7 2q8 0 14 -7t6 -16q0 -11 -11 -17l-85 -46q-3 -2 -8 -2q-8 0 -14 6.5t-6 15.5t8 14z" />
    <glyph glyph-name="gcommaaccent" unicode="&#x123;" horiz-adv-x="362" 
d="M178 790q4 10 14 10q8 0 13.5 -5t5.5 -12q0 -5 -1 -6l-16 -42q24 -9 24 -34q0 -16 -10.5 -27t-25.5 -11t-25.5 11t-10.5 26q0 25 32 90zM131 510l90 48q2 3 6 3q9 0 14 -7t5 -16q0 -12 -9 -17l-86 -46q-4 -2 -8 -2q-8 0 -14.5 6.5t-6.5 15.5q0 10 9 15zM88 8
q-44 15 -44 55q0 35 40 58q-44 37 -44 101v30q0 59 38 95t100 36q56 0 93 -33q12 23 27.5 36.5t29.5 13.5q11 0 17.5 -6t6.5 -15q0 -14 -14 -17q-27 -6 -44 -35q22 -29 22 -75v-30q0 -58 -39 -95.5t-100 -37.5q-31 0 -62 13q-25 -12 -25 -31q0 -30 65 -37q66 -5 120 -20
q29 -9 46.5 -31t17.5 -55q0 -54 -42.5 -84t-114.5 -30t-117 29.5t-45 77.5q0 60 68 87zM90 222q0 -42 24 -68t64 -26q39 0 63 26.5t24 67.5v30q0 41 -24 66.5t-63 25.5q-40 0 -64 -25.5t-24 -66.5v-30zM100.5 -127q30.5 -20 81.5 -20q50 0 78.5 20t28.5 53q0 31 -27 47
q-10 6 -27 10.5t-32 6.5q-5 1 -13 2t-20 2l-28 3q-72 -23 -72 -71q0 -33 30.5 -53z" />
    <glyph glyph-name="Hcircumflex" unicode="&#x124;" horiz-adv-x="458" 
d="M133 715l83 45q8 4 14 4q5 0 13 -4l83 -45q11 -4 11 -18q0 -8 -4.5 -13.5t-11.5 -5.5q-3 0 -8 2l-83 44l-84 -45l-7 -2q-7 0 -12 6.5t-5 14.5q0 11 11 17zM61 566q0 19 26 19q27 0 27 -19v-240h231v240q0 19 26 19q27 0 27 -19v-545q0 -9 -8 -15t-19 -6t-18.5 5.5
t-7.5 15.5v260h-231v-260q0 -9 -8 -15t-19 -6t-18.5 5.5t-7.5 15.5v545z" />
    <glyph glyph-name="hcircumflex" unicode="&#x125;" 
d="M-20 716l83 45q8 4 14 4q5 0 13 -4l84 -45q10 -4 10 -18q0 -8 -4.5 -14t-11.5 -6l-8 3l-83 44l-83 -45l-8 -2q-6 0 -11 6.5t-5 13.5q0 12 10 18zM50 591q0 8 7.5 13.5t18.5 5.5t18.5 -5.5t7.5 -13.5v-269q15 27 43 44t63 17q38 0 70.5 -20t52 -54.5t19.5 -74.5v-213
q0 -10 -7.5 -15.5t-19.5 -5.5q-10 0 -17.5 6t-7.5 15v213q0 39 -30 70t-70 31q-39 0 -67.5 -28.5t-28.5 -72.5v-213q0 -8 -8 -14.5t-18 -6.5t-18 6.5t-8 14.5v570z" />
    <glyph glyph-name="Hbar" unicode="&#x126;" horiz-adv-x="458" 
d="M33 473h28v93q0 19 26 19q27 0 27 -19v-93h231v93q0 19 26 19q27 0 27 -19v-93h26q8 0 13 -6t5 -15t-5 -14.5t-13 -5.5h-26v-411q0 -9 -8 -15t-19 -6t-18.5 5.5t-7.5 15.5v260h-231v-260q0 -9 -8 -15t-19 -6t-18.5 5.5t-7.5 15.5v411h-28q-8 0 -13 6t-5 14q0 21 18 21z
M114 326h231v106h-231v-106z" />
    <glyph glyph-name="hbar" unicode="&#x127;" 
d="M7 484q0 9 5.5 15t14.5 6h23v86q0 8 7.5 13.5t18.5 5.5t18.5 -5.5t7.5 -13.5v-86h97q8 0 14 -6t6 -15q0 -7 -6 -13.5t-14 -6.5h-97v-142q15 27 43 44t63 17q38 0 70.5 -20t52 -54.5t19.5 -74.5v-213q0 -10 -7.5 -15.5t-19.5 -5.5q-10 0 -17.5 6t-7.5 15v213q0 39 -30 70
t-70 31q-39 0 -67.5 -28.5t-28.5 -72.5v-213q0 -8 -8 -14.5t-18 -6.5t-18 6.5t-8 14.5v443h-23q-8 0 -14 6t-6 14z" />
    <glyph glyph-name="Itilde" unicode="&#x128;" horiz-adv-x="174" 
d="M-37 713q0 19 22.5 32t48.5 13q22 0 52 -13q34 -14 53 -14q21 0 36 12q17 11 20 11q7 0 11.5 -5.5t4.5 -12.5q0 -21 -21 -33.5t-46 -12.5q-21 0 -53 15q-30 13 -53 13q-20 0 -38 -12q-17 -13 -22 -13q-15 0 -15 20zM61 566q0 19 26 19q27 0 27 -19v-545q0 -9 -8 -15
t-19 -6t-18.5 5.5t-7.5 15.5v545z" />
    <glyph glyph-name="itilde" unicode="&#x129;" horiz-adv-x="153" 
d="M-48 510q0 19 22.5 32t47.5 13q19 0 53 -13q34 -14 53 -14q21 0 36 12q16 11 20 11q7 0 11.5 -5.5t4.5 -12.5q0 -21 -21.5 -33.5t-45.5 -12.5q-22 0 -53 15q-36 13 -54 13q-20 0 -37 -13q-18 -12 -22 -12q-15 0 -15 20zM50 359q0 8 7.5 13.5t18.5 5.5t18.5 -5.5
t7.5 -13.5v-338q0 -8 -8 -14.5t-18 -6.5t-18 6.5t-8 14.5v338z" />
    <glyph glyph-name="Imacron" unicode="&#x12a;" horiz-adv-x="174" 
d="M-19 731q0 9 5.5 15t14.5 6h172q7 0 13.5 -6t6.5 -15q0 -7 -6.5 -13.5t-13.5 -6.5h-172q-9 0 -15 6q-5 5 -5 14zM61 566q0 19 26 19q27 0 27 -19v-545q0 -9 -8 -15t-19 -6t-18.5 5.5t-7.5 15.5v545z" />
    <glyph glyph-name="imacron" unicode="&#x12b;" horiz-adv-x="153" 
d="M-30 528q0 9 5.5 15t14.5 6h172q7 0 13.5 -6t6.5 -15q0 -7 -6.5 -13.5t-13.5 -6.5h-172q-9 0 -15 6q-5 5 -5 14zM50 359q0 8 7.5 13.5t18.5 5.5t18.5 -5.5t7.5 -13.5v-338q0 -8 -8 -14.5t-18 -6.5t-18 6.5t-8 14.5v338z" />
    <glyph glyph-name="Ibreve" unicode="&#x12c;" horiz-adv-x="174" 
d="M29 774q0 -27 17 -45.5t41 -18.5t41 18.5t17 45.5h35q0 -37 -28.5 -65t-64.5 -28q-37 0 -65 28t-28 65h35zM61 566q0 19 26 19q27 0 27 -19v-545q0 -9 -8 -15t-19 -6t-18.5 5.5t-7.5 15.5v545z" />
    <glyph glyph-name="ibreve" unicode="&#x12d;" horiz-adv-x="153" 
d="M18 571q0 -27 17.5 -46t41.5 -19q23 0 40 19t17 46h36q0 -37 -28.5 -65t-64.5 -28q-38 0 -66 27.5t-28 65.5h35zM50 359q0 8 7.5 13.5t18.5 5.5t18.5 -5.5t7.5 -13.5v-338q0 -8 -8 -14.5t-18 -6.5t-18 6.5t-8 14.5v338z" />
    <glyph glyph-name="Iogonek" unicode="&#x12e;" horiz-adv-x="174" 
d="M65 8q-4 5 -4 13v545q0 19 26 19q27 0 27 -19v-545q0 -13 -14 -19q-54 -48 -54 -96q0 -36 49 -36q16 0 16 -14t-20 -14q-34 0 -55.5 15.5t-21.5 44.5q0 58 51 106z" />
    <glyph glyph-name="iogonek" unicode="&#x12f;" horiz-adv-x="153" 
d="M40 524q0 14 10.5 23.5t25.5 9.5q14 0 24 -9.5t10 -23.5t-10 -24t-24 -10q-13 0 -26 11q-10 9 -10 23zM54 10q-4 8 -4 11v338q0 8 7.5 13.5t18.5 5.5t18.5 -5.5t7.5 -13.5v-338q0 -13 -16 -19q-55 -49 -55 -97q0 -36 50 -36q16 0 16 -15q0 -13 -20 -13q-35 0 -56.5 15
t-21.5 45q0 59 55 109z" />
    <glyph glyph-name="Idotaccent" unicode="&#x130;" horiz-adv-x="174" 
d="M66 728q8 8 21 8q12 0 20.5 -8t8.5 -21q0 -12 -8.5 -20.5t-20.5 -8.5q-13 0 -21 8.5t-8 20.5q0 13 8 21zM61 566q0 19 26 19q27 0 27 -19v-545q0 -9 -8 -15t-19 -6t-18.5 5.5t-7.5 15.5v545z" />
    <glyph glyph-name="dotlessi" unicode="&#x131;" horiz-adv-x="153" 
d="M50 359q0 8 7.5 13.5t18.5 5.5t18.5 -5.5t7.5 -13.5v-338q0 -8 -8 -14.5t-18 -6.5t-18 6.5t-8 14.5v338z" />
    <glyph glyph-name="IJ" unicode="&#x132;" horiz-adv-x="580" 
d="M61 566q0 19 26 19q27 0 27 -19v-545q0 -9 -8 -15t-19 -6t-18.5 5.5t-7.5 15.5v545zM214 163q28 0 28 -21q0 -45 30.5 -71.5t82.5 -26.5q55 0 84.5 30.5t29.5 91.5v370h-113q-9 0 -14.5 7.5t-5.5 18.5q0 10 5.5 16.5t14.5 6.5h141q25 0 25 -20v-399q0 -86 -44 -128.5
t-121 -42.5q-76 0 -122 39.5t-46 101.5q0 27 25 27z" />
    <glyph glyph-name="ij" unicode="&#x133;" horiz-adv-x="300" 
d="M40 524q0 14 10.5 23.5t25.5 9.5q14 0 24 -9.5t10 -23.5t-10 -24t-24 -10q-13 0 -26 11q-10 9 -10 23zM187 524q0 14 10.5 23.5t25.5 9.5q14 0 24.5 -10t10.5 -23q0 -14 -10.5 -24t-24.5 -10t-25 11q-11 8 -11 23zM50 359q0 8 7.5 13.5t18.5 5.5t18.5 -5.5t7.5 -13.5
v-338q0 -8 -8 -14.5t-18 -6.5t-18 6.5t-8 14.5v338zM124 -145q6 7 16 7q34 0 46 24t12 80v393q0 9 7 14t18 5t19 -5.5t8 -13.5v-393q0 -152 -106 -152q-13 0 -19.5 7t-6.5 17t6 17z" />
    <glyph glyph-name="Jcircumflex" unicode="&#x134;" horiz-adv-x="410" 
d="M108 715l83 45q8 4 14 4q5 0 13 -4l84 -45q10 -4 10 -18q0 -8 -4.5 -13.5t-11.5 -5.5q-3 0 -8 2l-83 44l-83 -45l-8 -2q-6 0 -11 6.5t-5 14.5q0 11 10 17zM44 163q27 0 27 -21q0 -45 31 -71.5t83 -26.5q55 0 84 30.5t29 91.5v370h-112q-9 0 -14.5 7.5t-5.5 18.5
q0 10 5.5 16.5t14.5 6.5h140q25 0 25 -20v-399q0 -86 -43.5 -128.5t-121.5 -42.5q-75 0 -121.5 39.5t-46.5 101.5q0 27 26 27z" />
    <glyph glyph-name="jcircumflex" unicode="&#x135;" horiz-adv-x="153" 
d="M-20 512l83 45q8 4 14 4q5 0 13 -4l84 -45q10 -4 10 -18q0 -8 -4.5 -14t-11.5 -6l-8 3l-83 44l-83 -45l-8 -2q-6 0 -11 6.5t-5 13.5q0 12 10 18zM-23.5 -145q6.5 7 16.5 7q34 0 45.5 24t11.5 80v393q0 9 7 14t19 5q11 0 18.5 -5.5t7.5 -13.5v-393q0 -152 -105 -152
q-14 0 -20.5 6.5t-6.5 17.5q0 10 6.5 17z" />
    <glyph glyph-name="Kcommaaccent" unicode="&#x136;" horiz-adv-x="418" 
d="M61 566q0 19 26 19q27 0 27 -19v-284l231 295q6 8 17 8q9 0 18.5 -9t9.5 -18q0 -8 -4 -12l-172 -214l197 -296q3 -4 3 -10q0 -10 -9.5 -19t-20.5 -9t-20 12l-185 278l-65 -83v-184q0 -9 -8 -15t-19 -6t-18.5 5.5t-7.5 15.5v545zM157 -90l89 50q6 2 7 2q7 0 13 -7.5
t6 -15.5q0 -11 -10 -17l-85 -46q-3 -2 -9 -2q-8 0 -14 6.5t-6 15.5t9 14z" />
    <glyph glyph-name="kcommaaccent" unicode="&#x137;" horiz-adv-x="365" 
d="M50 591q0 8 7.5 13.5t18.5 5.5t18.5 -5.5t7.5 -13.5v-389l196 173q8 5 12 5q9 0 17.5 -7.5t8.5 -17.5q0 -9 -6 -14l-117 -103l138 -203q3 -4 3 -11q0 -9 -9 -17.5t-19 -8.5t-16 9l-134 198l-74 -65v-119q0 -8 -7.5 -14.5t-18.5 -6.5q-10 0 -18 6.5t-8 14.5v570zM130 -90
l88 50l8 2q7 0 13 -7.5t6 -15.5q0 -12 -11 -17l-84 -46q-4 -2 -9 -2q-8 0 -14 6.5t-6 15.5t9 14z" />
    <glyph glyph-name="kgreenlandic" unicode="&#x138;" horiz-adv-x="365" 
d="M50 359q0 8 7.5 13.5t18.5 5.5t18.5 -5.5t7.5 -13.5v-157l196 173q8 5 12 5q9 0 17.5 -7.5t8.5 -17.5q0 -9 -6 -14l-117 -103l138 -203q3 -4 3 -11q0 -9 -9 -17.5t-19 -8.5t-16 9l-134 198l-74 -65v-119q0 -8 -7.5 -14.5t-18.5 -6.5q-10 0 -18 6.5t-8 14.5v338z" />
    <glyph glyph-name="Lacute" unicode="&#x139;" horiz-adv-x="370" 
d="M154 713l90 49q4 2 6 2q9 0 14.5 -6.5t5.5 -15.5q0 -13 -10 -18l-86 -46q-4 -2 -8 -2q-8 0 -14 6.5t-6 15.5q0 10 8 15zM61 566q0 19 26 19q27 0 27 -19v-517h228q17 0 17 -24q0 -25 -17 -25h-257q-10 0 -17 6t-7 15v545z" />
    <glyph glyph-name="lacute" unicode="&#x13a;" horiz-adv-x="166" 
d="M36 682l90 48q2 3 6 3q9 0 14 -7t5 -16q0 -12 -9 -17l-86 -46q-4 -2 -8 -2q-8 0 -14.5 6.5t-6.5 15.5t9 15zM57 591q0 8 7 13.5t18 5.5q12 0 19.5 -5.5t7.5 -13.5v-570q0 -9 -7.5 -15t-19.5 -6q-10 0 -17.5 6.5t-7.5 14.5v570z" />
    <glyph glyph-name="Lcommaaccent" unicode="&#x13b;" horiz-adv-x="370" 
d="M61 566q0 19 26 19q27 0 27 -19v-517h228q17 0 17 -24q0 -25 -17 -25h-257q-10 0 -17 6t-7 15v545zM151 -90l89 50l7 2q8 0 13.5 -7t5.5 -16q0 -11 -10 -17l-85 -46q-3 -2 -9 -2q-8 0 -14 6.5t-6 15.5t9 14z" />
    <glyph glyph-name="lcommaaccent" unicode="&#x13c;" horiz-adv-x="166" 
d="M57 591q0 8 7 13.5t18 5.5q12 0 19.5 -5.5t7.5 -13.5v-570q0 -9 -7.5 -15t-19.5 -6q-10 0 -17.5 6.5t-7.5 14.5v570zM32 -90l89 50q6 2 7 2q7 0 13 -7.5t6 -15.5q0 -11 -10 -17l-85 -46q-3 -2 -9 -2q-8 0 -14 6.5t-6 15.5t9 14z" />
    <glyph glyph-name="Lcaron" unicode="&#x13d;" horiz-adv-x="370" 
d="M246 582q11 11 26 11t26 -11t11 -26q0 -18 -33 -90q-3 -10 -14 -10q-8 0 -14 5t-6 12q0 3 2 7l15 42q-24 8 -24 34q0 15 11 26zM61 566q0 19 26 19q27 0 27 -19v-517h228q17 0 17 -24q0 -25 -17 -25h-257q-10 0 -17 6t-7 15v545z" />
    <glyph glyph-name="lcaron" unicode="&#x13e;" horiz-adv-x="166" 
d="M57 591q0 8 7 13.5t18 5.5q12 0 19.5 -5.5t7.5 -13.5v-570q0 -9 -7.5 -15t-19.5 -6q-10 0 -17.5 6.5t-7.5 14.5v570zM171 582q11 11 26 11t26 -11t11 -26t-33 -90q-4 -10 -15 -10q-7 0 -13 5t-6 12q0 3 2 7l15 42q-24 8 -24 34q0 15 11 26z" />
    <glyph glyph-name="Ldot" unicode="&#x13f;" horiz-adv-x="370" 
d="M61 566q0 19 26 19q27 0 27 -19v-517h228q17 0 17 -24q0 -25 -17 -25h-257q-10 0 -17 6t-7 15v545zM243 362.5q11 10.5 27 10.5t26.5 -10.5t10.5 -25.5q0 -14 -11 -25t-26 -11q-16 0 -27 10.5t-11 25.5t11 25.5z" />
    <glyph glyph-name="ldot" unicode="&#x140;" horiz-adv-x="251" 
d="M57 591q0 8 7 13.5t18 5.5q12 0 19.5 -5.5t7.5 -13.5v-570q0 -9 -7.5 -15t-19.5 -6q-10 0 -17.5 6.5t-7.5 14.5v570zM179.5 265.5q10.5 10.5 26.5 10.5t27 -10.5t11 -25.5q0 -14 -11.5 -25t-26.5 -11t-26 11t-11 25q0 15 10.5 25.5z" />
    <glyph glyph-name="Lslash" unicode="&#x141;" horiz-adv-x="375" 
d="M10 250l56 31v285q0 19 26 19t26 -19v-256l78 42q4 2 8 2q8 0 14.5 -7.5t6.5 -16.5q0 -10 -10 -16l-97 -54v-211h228q18 0 18 -24q0 -25 -18 -25h-256q-10 0 -17 6t-7 15v210l-36 -19q-3 -2 -8 -2q-8 0 -14 7.5t-6 17.5q0 12 8 15z" />
    <glyph glyph-name="lslash" unicode="&#x142;" horiz-adv-x="243" 
d="M22 250l69 38v303q0 8 7.5 13.5t18.5 5.5t18.5 -5.5t7.5 -13.5v-274l59 33l8 1q8 0 14.5 -7t6.5 -16q0 -12 -9 -17l-79 -44v-246q0 -8 -7.5 -14.5t-18.5 -6.5q-10 0 -18 6.5t-8 14.5v218l-49 -27q-3 -2 -8 -2q-8 0 -14 7.5t-6 17.5q0 12 8 15z" />
    <glyph glyph-name="Nacute" unicode="&#x143;" horiz-adv-x="458" 
d="M173 713l89 49q4 2 7 2q9 0 14 -6.5t5 -15.5q0 -14 -10 -18l-85 -46l-8 -2q-8 0 -14.5 6.5t-6.5 15.5q0 11 9 15zM61 565q0 20 26 20q23 0 42 -37l216 -426v444q0 19 26 19q27 0 27 -19v-545q0 -9 -8 -15t-19 -6q-20 0 -35 30l-222 433v-442q0 -9 -8 -15t-19 -6
t-18.5 5.5t-7.5 15.5v544z" />
    <glyph glyph-name="nacute" unicode="&#x144;" 
d="M145 510l89 48q3 3 7 3q9 0 14 -7t5 -16q0 -13 -10 -17l-85 -46q-6 -2 -8 -2q-8 0 -14.5 6.5t-6.5 15.5q0 11 9 15zM50 359q0 9 7 14t19 5q10 0 17 -5.5t7 -13.5v-37q14 27 42.5 44t64.5 17q38 0 71 -20t52.5 -54.5t19.5 -74.5v-213q0 -9 -8 -15t-19 -6q-10 0 -17.5 6
t-7.5 15v213q0 39 -30 70t-70 31q-39 0 -67.5 -28.5t-28.5 -72.5v-213q0 -8 -8 -14.5t-18 -6.5q-11 0 -18.5 6.5t-7.5 14.5v338z" />
    <glyph glyph-name="Ncommaaccent" unicode="&#x145;" horiz-adv-x="458" 
d="M61 565q0 20 26 20q23 0 42 -37l216 -426v444q0 19 26 19q27 0 27 -19v-545q0 -9 -8 -15t-19 -6q-20 0 -35 30l-222 433v-442q0 -9 -8 -15t-19 -6t-18.5 5.5t-7.5 15.5v544zM174 -90l89 50l7 2q8 0 14 -7t6 -16q0 -11 -11 -17l-85 -46q-3 -2 -8 -2q-8 0 -14 6.5t-6 15.5
t8 14z" />
    <glyph glyph-name="ncommaaccent" unicode="&#x146;" 
d="M50 359q0 9 7 14t19 5q10 0 17 -5.5t7 -13.5v-37q14 27 42.5 44t64.5 17q38 0 71 -20t52.5 -54.5t19.5 -74.5v-213q0 -9 -8 -15t-19 -6q-10 0 -17.5 6t-7.5 15v213q0 39 -30 70t-70 31q-39 0 -67.5 -28.5t-28.5 -72.5v-213q0 -8 -8 -14.5t-18 -6.5q-11 0 -18.5 6.5
t-7.5 14.5v338zM138 -90l89 50l7 2q8 0 14 -7t6 -16q0 -11 -11 -17l-85 -46q-3 -2 -8 -2q-8 0 -14 6.5t-6 15.5t8 14z" />
    <glyph glyph-name="Ncaron" unicode="&#x147;" horiz-adv-x="458" 
d="M126 783q4 5 11 5t12 -5l80 -73l79 73q5 5 12 5t11 -5t4 -13q0 -9 -9 -18l-81 -72q-9 -8 -16 -8q-9 0 -16 8l-81 72q-10 9 -10 18q0 8 4 13zM61 565q0 20 26 20q23 0 42 -37l216 -426v444q0 19 26 19q27 0 27 -19v-545q0 -9 -8 -15t-19 -6q-20 0 -35 30l-222 433v-442
q0 -9 -8 -15t-19 -6t-18.5 5.5t-7.5 15.5v544z" />
    <glyph glyph-name="ncaron" unicode="&#x148;" 
d="M92 580q4 5 11 5t12 -5l80 -74l79 74q7 5 12 5q7 0 11.5 -5t4.5 -13q0 -10 -10 -18l-81 -72q-8 -8 -16 -8t-16 8l-81 72q-10 7 -10 18q0 8 4 13zM50 359q0 9 7 14t19 5q10 0 17 -5.5t7 -13.5v-37q14 27 42.5 44t64.5 17q38 0 71 -20t52.5 -54.5t19.5 -74.5v-213
q0 -9 -8 -15t-19 -6q-10 0 -17.5 6t-7.5 15v213q0 39 -30 70t-70 31q-39 0 -67.5 -28.5t-28.5 -72.5v-213q0 -8 -8 -14.5t-18 -6.5q-11 0 -18.5 6.5t-7.5 14.5v338z" />
    <glyph glyph-name="Eng" unicode="&#x14a;" horiz-adv-x="458" 
d="M61 565q0 20 26 20q23 0 42 -37l216 -426v444q0 19 26 19q27 0 27 -19v-600q0 -76 -26.5 -114t-78.5 -38q-13 0 -20 6.5t-7 17.5q0 10 6 17t16 7q33 0 45.5 24.5t12.5 79.5v36q0 8 -10 28l-222 433v-442q0 -9 -8 -15t-19 -6t-18.5 5.5t-7.5 15.5v544z" />
    <glyph glyph-name="eng" unicode="&#x14b;" 
d="M50 359q0 9 7 14t19 5q10 0 17 -5.5t7 -13.5v-37q14 27 42.5 44t64.5 17q38 0 71 -20t52.5 -54.5t19.5 -74.5v-268q0 -152 -106 -152q-13 0 -19.5 7t-6.5 17t6 17t16 7q33 0 45.5 24.5t12.5 79.5v268q0 39 -30 70t-70 31q-39 0 -67.5 -28.5t-28.5 -72.5v-213
q0 -8 -8 -14.5t-18 -6.5q-11 0 -18.5 6.5t-7.5 14.5v338z" />
    <glyph glyph-name="Omacron" unicode="&#x14c;" horiz-adv-x="442" 
d="M115 731q0 9 5.5 15t14.5 6h172q8 0 14 -6t6 -15q0 -7 -6 -13.5t-14 -6.5h-172q-8 0 -14 6t-6 14zM54 414q0 86 44 128.5t123 42.5q78 0 122 -42.5t44 -128.5v-248q0 -86 -44 -128.5t-122 -42.5q-79 0 -123 42.5t-44 128.5v248zM107 166q0 -122 114 -122q113 0 113 122
v248q0 122 -113 122q-114 0 -114 -122v-248z" />
    <glyph glyph-name="omacron" unicode="&#x14d;" horiz-adv-x="374" 
d="M81 528q0 9 5.5 15t14.5 6h172q7 0 13.5 -6t6.5 -15q0 -7 -6.5 -13.5t-13.5 -6.5h-172q-9 0 -15 6q-5 5 -5 14zM35 234q0 39 20.5 73.5t55.5 55t75 20.5q41 0 76 -20t56 -54.5t21 -74.5v-88q0 -39 -21.5 -74.5t-56.5 -56.5t-75 -21q-39 0 -74 21t-56 56.5t-21 74.5v88z
M87 146q0 -41 29.5 -72.5t69.5 -31.5q41 0 71 31.5t30 72.5v88q0 40 -30 70.5t-71 30.5q-40 0 -69.5 -30.5t-29.5 -70.5v-88z" />
    <glyph glyph-name="Obreve" unicode="&#x14e;" horiz-adv-x="442" 
d="M162 774q0 -27 17.5 -45.5t41.5 -18.5q23 0 40 18.5t17 45.5h36q0 -37 -28.5 -65t-64.5 -28q-38 0 -66 27.5t-28 65.5h35zM54 414q0 86 44 128.5t123 42.5q78 0 122 -42.5t44 -128.5v-248q0 -86 -44 -128.5t-122 -42.5q-79 0 -123 42.5t-44 128.5v248zM107 166
q0 -122 114 -122q113 0 113 122v248q0 122 -113 122q-114 0 -114 -122v-248z" />
    <glyph glyph-name="obreve" unicode="&#x14f;" horiz-adv-x="374" 
d="M129 571q0 -27 17 -46t41 -19q23 0 40.5 19t17.5 46h35q0 -37 -28.5 -65t-64.5 -28q-37 0 -65 28t-28 65h35zM35 234q0 39 20.5 73.5t55.5 55t75 20.5q41 0 76 -20t56 -54.5t21 -74.5v-88q0 -39 -21.5 -74.5t-56.5 -56.5t-75 -21q-39 0 -74 21t-56 56.5t-21 74.5v88z
M87 146q0 -41 29.5 -72.5t69.5 -31.5q41 0 71 31.5t30 72.5v88q0 40 -30 70.5t-71 30.5q-40 0 -69.5 -30.5t-29.5 -70.5v-88z" />
    <glyph glyph-name="Ohungarumlaut" unicode="&#x150;" horiz-adv-x="442" 
d="M142 706l76 55q4 3 9 3q7 0 13 -6t6 -13q0 -9 -8 -15l-72 -51q-6 -4 -10 -4q-7 0 -14 6t-7 13t7 12zM262 706l76 55q4 3 9 3q7 0 13 -6t6 -13q0 -9 -8 -15l-72 -51q-6 -4 -10 -4q-7 0 -14 6t-7 13t7 12zM54 414q0 86 44 128.5t123 42.5q78 0 122 -42.5t44 -128.5v-248
q0 -86 -44 -128.5t-122 -42.5q-79 0 -123 42.5t-44 128.5v248zM107 166q0 -122 114 -122q113 0 113 122v248q0 122 -113 122q-114 0 -114 -122v-248z" />
    <glyph glyph-name="ohungarumlaut" unicode="&#x151;" horiz-adv-x="374" 
d="M100 503l77 55q3 4 9 4q7 0 12.5 -6t5.5 -14q0 -10 -7 -14l-73 -51q-3 -4 -10 -4q-8 0 -14 6t-6 13q0 8 6 11zM220 503l77 55q3 4 9 4q7 0 12.5 -6t5.5 -14q0 -10 -7 -14l-73 -51q-3 -4 -10 -4q-8 0 -14 6t-6 13q0 8 6 11zM35 234q0 39 20.5 73.5t55.5 55t75 20.5
q41 0 76 -20t56 -54.5t21 -74.5v-88q0 -39 -21.5 -74.5t-56.5 -56.5t-75 -21q-39 0 -74 21t-56 56.5t-21 74.5v88zM87 146q0 -41 29.5 -72.5t69.5 -31.5q41 0 71 31.5t30 72.5v88q0 40 -30 70.5t-71 30.5q-40 0 -69.5 -30.5t-29.5 -70.5v-88z" />
    <glyph glyph-name="OE" unicode="&#x152;" horiz-adv-x="672" 
d="M54 414q0 86 42 128.5t118 42.5q88 0 125 -58v38q0 9 7.5 14.5t17.5 5.5h271q19 0 19 -23q0 -26 -19 -26h-248v-220h118q19 0 19 -24q0 -22 -19 -22h-118v-221h248q19 0 19 -25q0 -24 -19 -24h-271q-10 0 -17.5 6t-7.5 15v33q-37 -59 -125 -59q-76 0 -118 42.5t-42 128.5
v248zM107 166q0 -122 114 -122q113 0 113 122v248q0 122 -113 122q-114 0 -114 -122v-248z" />
    <glyph glyph-name="oe" unicode="&#x153;" horiz-adv-x="617" 
d="M35 234q0 39 20.5 73.5t55.5 55t75 20.5t74.5 -20.5t53.5 -55.5q20 35 53.5 55.5t72.5 20.5q40 0 74.5 -19t54.5 -52t20 -74q0 -44 -22 -56q-11 -5 -20.5 -6.5t-26.5 -1.5h-181v-30q0 -47 34 -75.5t89 -28.5q42 0 76 24q11 8 18 8q10 0 16.5 -8t6.5 -18q0 -15 -36 -33
q-38 -19 -85 -19q-48 0 -86 20.5t-58 56.5q-21 -34 -55.5 -55.5t-72.5 -21.5q-39 0 -74 21t-56 56.5t-21 74.5v88zM339 212h160q24 0 32 5.5t8 21.5q0 41 -28.5 71t-71.5 30q-41 0 -70.5 -28t-29.5 -67v-33zM87 146q0 -41 29.5 -72.5t69.5 -31.5q41 0 71 31.5t30 72.5v88
q0 40 -30 70.5t-71 30.5q-40 0 -69.5 -30.5t-29.5 -70.5v-88z" />
    <glyph glyph-name="Racute" unicode="&#x154;" horiz-adv-x="423" 
d="M179 713l90 49q2 2 6 2q9 0 14 -6.5t5 -15.5q0 -13 -9 -18l-86 -46q-4 -2 -8 -2q-8 0 -14.5 6.5t-6.5 15.5q0 10 9 15zM61 566q0 18 20 19h141q82 0 127.5 -38.5t45.5 -119.5q0 -133 -125 -154l124 -237q3 -3 3 -10q0 -11 -9.5 -19.5t-21.5 -8.5q-14 0 -28 28l-123 240
h-101v-245q0 -9 -8 -15t-19 -6t-18.5 5.5t-7.5 15.5v545zM114 312h108q120 0 120 113q0 111 -120 111h-108v-224z" />
    <glyph glyph-name="racute" unicode="&#x155;" horiz-adv-x="265" 
d="M79 510l90 48q2 3 6 3q9 0 14 -7t5 -16q0 -12 -9 -17l-86 -46q-4 -2 -8 -2q-8 0 -14.5 6.5t-6.5 15.5q0 10 9 15zM50 359q0 8 7.5 13.5t18.5 5.5t18 -5.5t7 -13.5v-39q15 28 43.5 45.5t63.5 17.5h28q8 0 14.5 -7.5t6.5 -16.5t-6.5 -16.5t-14.5 -7.5h-28q-43 0 -74.5 -33
t-31.5 -84v-197q0 -8 -7.5 -14.5t-18.5 -6.5q-10 0 -18 6.5t-8 14.5v338z" />
    <glyph glyph-name="Rcommaaccent" unicode="&#x156;" horiz-adv-x="423" 
d="M61 566q0 18 20 19h141q82 0 127.5 -38.5t45.5 -119.5q0 -133 -125 -154l124 -237q3 -3 3 -10q0 -11 -9.5 -19.5t-21.5 -8.5q-14 0 -28 28l-123 240h-101v-245q0 -9 -8 -15t-19 -6t-18.5 5.5t-7.5 15.5v545zM114 312h108q120 0 120 113q0 111 -120 111h-108v-224z
M150 -90l89 50l7 2q8 0 14 -7t6 -16q0 -11 -11 -17l-85 -46q-3 -2 -8 -2q-8 0 -14 6.5t-6 15.5t8 14z" />
    <glyph glyph-name="rcommaaccent" unicode="&#x157;" horiz-adv-x="265" 
d="M50 359q0 8 7.5 13.5t18.5 5.5t18 -5.5t7 -13.5v-39q15 28 43.5 45.5t63.5 17.5h28q8 0 14.5 -7.5t6.5 -16.5t-6.5 -16.5t-14.5 -7.5h-28q-43 0 -74.5 -33t-31.5 -84v-197q0 -8 -7.5 -14.5t-18.5 -6.5q-10 0 -18 6.5t-8 14.5v338zM8 -90l89 50q6 2 7 2q7 0 13 -7.5
t6 -15.5q0 -11 -10 -17l-85 -46q-3 -2 -9 -2q-8 0 -14 6.5t-6 15.5t9 14z" />
    <glyph glyph-name="Rcaron" unicode="&#x158;" horiz-adv-x="423" 
d="M118.5 783q4.5 5 11.5 5q5 0 12 -5l80 -73l79 73q5 5 12 5t11 -5t4 -13q0 -9 -10 -18l-80 -72q-9 -8 -16 -8q-9 0 -16 8l-81 72q-11 9 -11 18q0 8 4.5 13zM61 566q0 18 20 19h141q82 0 127.5 -38.5t45.5 -119.5q0 -133 -125 -154l124 -237q3 -3 3 -10q0 -11 -9.5 -19.5
t-21.5 -8.5q-14 0 -28 28l-123 240h-101v-245q0 -9 -8 -15t-19 -6t-18.5 5.5t-7.5 15.5v545zM114 312h108q120 0 120 113q0 111 -120 111h-108v-224z" />
    <glyph glyph-name="rcaron" unicode="&#x159;" horiz-adv-x="265" 
d="M26 580q4 5 11 5t12 -5l80 -74l79 74q5 5 12 5t11 -5t4 -13q0 -10 -9 -18l-81 -72q-9 -8 -16 -8q-9 0 -16 8l-81 72q-10 7 -10 18q0 8 4 13zM50 359q0 8 7.5 13.5t18.5 5.5t18 -5.5t7 -13.5v-39q15 28 43.5 45.5t63.5 17.5h28q8 0 14.5 -7.5t6.5 -16.5t-6.5 -16.5
t-14.5 -7.5h-28q-43 0 -74.5 -33t-31.5 -84v-197q0 -8 -7.5 -14.5t-18.5 -6.5q-10 0 -18 6.5t-8 14.5v338z" />
    <glyph glyph-name="Sacute" unicode="&#x15a;" horiz-adv-x="395" 
d="M147 713l90 49q2 2 6 2q9 0 14 -6.5t5 -15.5q0 -13 -9 -18l-86 -46q-4 -2 -8 -2q-8 0 -14.5 6.5t-6.5 15.5q0 10 9 15zM36.5 100.5q7.5 9.5 16.5 9.5q6 0 16 -10l22 -23q13 -13 40 -23t59 -10q57 0 88 28.5t31 81.5q0 35 -14.5 60.5t-38.5 40.5t-51 25l-58 22
q-33 14 -54 29.5t-35 42.5q-15 27 -15 67t15.5 71t42.5 46q49 28 112 28q51 0 92.5 -14t41.5 -34q0 -10 -7 -20t-16 -10q-7 0 -18 8q-42 22 -94 22q-53 0 -84.5 -22.5t-31.5 -69.5q0 -33 19 -57t50 -35q75 -25 128 -55q31 -17 50 -53.5t19 -86.5q0 -80 -45 -122.5
t-124 -42.5q-44 0 -81.5 14t-60 34.5t-22.5 38.5q0 10 7.5 19.5z" />
    <glyph glyph-name="sacute" unicode="&#x15b;" horiz-adv-x="308" 
d="M100 510l90 48q2 3 6 3q9 0 14 -7t5 -16q0 -12 -9 -17l-86 -46q-4 -2 -8 -2q-8 0 -14.5 6.5t-6.5 15.5q0 11 9 15zM32 68q6 8 13 8q5 0 17 -9q14 -12 37 -20.5t51 -8.5q41 0 62 15.5t21 41.5q0 28 -19 45.5t-51 25.5q-6 2 -31 9t-44.5 17t-31.5 24q-21 21 -21 58
q0 47 33.5 78t93.5 31q39 0 73 -12.5t34 -26.5q0 -8 -7 -17.5t-15 -9.5l-29 11q-30 11 -56 11q-38 0 -59 -18t-21 -44q0 -43 71 -61q43 -11 66.5 -21t41.5 -32q20 -26 20 -65q0 -48 -34.5 -76t-94.5 -28q-33 0 -62.5 9t-46.5 22.5t-17 26.5q0 8 6 16z" />
    <glyph glyph-name="Scircumflex" unicode="&#x15c;" horiz-adv-x="395" 
d="M98 715l84 45q8 4 13 4q6 0 14 -4l83 -45q10 -4 10 -18q0 -8 -4.5 -13.5t-11.5 -5.5q-1 0 -3 0.5t-5 1.5l-83 44l-83 -45l-7 -2q-7 0 -12 6.5t-5 14.5q0 11 10 17zM36.5 100.5q7.5 9.5 16.5 9.5q6 0 16 -10l22 -23q13 -13 40 -23t59 -10q57 0 88 28.5t31 81.5
q0 35 -14.5 60.5t-38.5 40.5t-51 25l-58 22q-33 14 -54 29.5t-35 42.5q-15 27 -15 67t15.5 71t42.5 46q49 28 112 28q51 0 92.5 -14t41.5 -34q0 -10 -7 -20t-16 -10q-7 0 -18 8q-42 22 -94 22q-53 0 -84.5 -22.5t-31.5 -69.5q0 -33 19 -57t50 -35q75 -25 128 -55
q31 -17 50 -53.5t19 -86.5q0 -80 -45 -122.5t-124 -42.5q-44 0 -81.5 14t-60 34.5t-22.5 38.5q0 10 7.5 19.5z" />
    <glyph glyph-name="scircumflex" unicode="&#x15d;" horiz-adv-x="308" 
d="M54 512l83 45q8 4 13 4q6 0 14 -4l83 -45q11 -5 11 -18q0 -8 -5 -14t-11 -6l-8 3l-84 44l-83 -45l-7 -2q-7 0 -12 6t-5 14q0 13 11 18zM32 68q6 8 13 8q5 0 17 -9q14 -12 37 -20.5t51 -8.5q41 0 62 15.5t21 41.5q0 28 -19 45.5t-51 25.5q-6 2 -31 9t-44.5 17t-31.5 24
q-21 21 -21 58q0 47 33.5 78t93.5 31q39 0 73 -12.5t34 -26.5q0 -8 -7 -17.5t-15 -9.5l-29 11q-30 11 -56 11q-38 0 -59 -18t-21 -44q0 -43 71 -61q43 -11 66.5 -21t41.5 -32q20 -26 20 -65q0 -48 -34.5 -76t-94.5 -28q-33 0 -62.5 9t-46.5 22.5t-17 26.5q0 8 6 16z" />
    <glyph glyph-name="Scedilla" unicode="&#x15e;" horiz-adv-x="395" 
d="M36.5 100.5q7.5 9.5 16.5 9.5q6 0 16 -10l22 -23q13 -13 40 -23t59 -10q57 0 88 28.5t31 81.5q0 35 -14.5 60.5t-38.5 40.5t-51 25l-58 22q-33 14 -54 29.5t-35 42.5q-15 27 -15 67t15.5 71t42.5 46q49 28 112 28q51 0 92.5 -14t41.5 -34q0 -10 -7 -20t-16 -10
q-7 0 -18 8q-42 22 -94 22q-53 0 -84.5 -22.5t-31.5 -69.5q0 -33 19 -57t50 -35q75 -25 128 -55q31 -17 50 -53.5t19 -86.5q0 -71 -35 -112t-98 -50l-12 -46q37 -1 57 -16.5t20 -40.5t-19.5 -43.5t-52.5 -18.5q-22 0 -42 6t-20 15q0 5 4 12t9 7l15 -6q11 -5 30 -5
q42 0 42 31q0 29 -50 34l-31 2l18 66h-4q-44 0 -81.5 14t-60 34.5t-22.5 38.5q0 10 7.5 19.5z" />
    <glyph glyph-name="scedilla" unicode="&#x15f;" horiz-adv-x="308" 
d="M32 68q6 8 13 8q5 0 17 -9q14 -12 37 -20.5t51 -8.5q41 0 62 15.5t21 41.5q0 28 -19 45.5t-51 25.5q-6 2 -31 9t-44.5 17t-31.5 24q-21 21 -21 58q0 47 33.5 78t93.5 31q39 0 73 -12.5t34 -26.5q0 -8 -7 -17.5t-15 -9.5l-29 11q-30 11 -56 11q-38 0 -59 -18t-21 -44
q0 -43 71 -61q43 -11 66.5 -21t41.5 -32q20 -26 20 -65q0 -43 -27.5 -70t-75.5 -32l-12 -45q37 -1 56.5 -16.5t19.5 -40.5q0 -26 -19 -44t-52 -18q-22 0 -42 6t-20 15q0 6 4 12.5t9 6.5l15 -6q11 -5 29 -5q43 0 43 31q0 29 -51 34l-30 2l18 66q-50 2 -85 20t-35 38q0 8 6 16
z" />
    <glyph glyph-name="Scaron" unicode="&#x160;" horiz-adv-x="395" 
d="M92 783q4 5 11 5t12 -5l80 -73l79 73q7 5 12 5q7 0 11.5 -5t4.5 -13t-10 -18l-81 -72q-8 -8 -16 -8t-16 8l-81 72q-10 9 -10 18q0 8 4 13zM36.5 100.5q7.5 9.5 16.5 9.5q6 0 16 -10l22 -23q13 -13 40 -23t59 -10q57 0 88 28.5t31 81.5q0 35 -14.5 60.5t-38.5 40.5t-51 25
l-58 22q-33 14 -54 29.5t-35 42.5q-15 27 -15 67t15.5 71t42.5 46q49 28 112 28q51 0 92.5 -14t41.5 -34q0 -10 -7 -20t-16 -10q-7 0 -18 8q-42 22 -94 22q-53 0 -84.5 -22.5t-31.5 -69.5q0 -33 19 -57t50 -35q75 -25 128 -55q31 -17 50 -53.5t19 -86.5q0 -80 -45 -122.5
t-124 -42.5q-44 0 -81.5 14t-60 34.5t-22.5 38.5q0 10 7.5 19.5z" />
    <glyph glyph-name="scaron" unicode="&#x161;" horiz-adv-x="308" 
d="M48 580q4 5 11 5t12 -5l80 -74l79 74q7 5 12 5q7 0 11.5 -5t4.5 -13q0 -10 -10 -18l-81 -72q-8 -8 -16 -8t-16 8l-81 72q-10 7 -10 18q0 8 4 13zM32 68q6 8 13 8q5 0 17 -9q14 -12 37 -20.5t51 -8.5q41 0 62 15.5t21 41.5q0 28 -19 45.5t-51 25.5q-6 2 -31 9t-44.5 17
t-31.5 24q-21 21 -21 58q0 47 33.5 78t93.5 31q39 0 73 -12.5t34 -26.5q0 -8 -7 -17.5t-15 -9.5l-29 11q-30 11 -56 11q-38 0 -59 -18t-21 -44q0 -43 71 -61q43 -11 66.5 -21t41.5 -32q20 -26 20 -65q0 -48 -34.5 -76t-94.5 -28q-33 0 -62.5 9t-46.5 22.5t-17 26.5q0 8 6 16
z" />
    <glyph glyph-name="uni0162" unicode="&#x162;" horiz-adv-x="385" 
d="M17.5 577.5q5.5 7.5 14.5 7.5h321q9 0 14.5 -7t5.5 -17q0 -11 -5.5 -18.5t-14.5 -7.5h-134v-514q0 -9 -8 -15t-18 -6q-12 0 -19.5 5.5t-7.5 15.5v514h-134q-9 0 -14.5 7t-5.5 18q0 10 5.5 17.5zM139 -90l89 50l7 2q8 0 13.5 -7t5.5 -16q0 -11 -10 -17l-85 -46
q-3 -2 -9 -2q-8 0 -14 6.5t-6 15.5t9 14z" />
    <glyph glyph-name="uni0163" unicode="&#x163;" horiz-adv-x="238" 
d="M49 539q0 8 8 13.5t17 5.5q11 0 19 -5.5t8 -13.5v-161h103q8 0 13 -6t5 -15t-5.5 -15.5t-12.5 -6.5h-103v-217q0 -39 16.5 -55t57.5 -16h23q10 0 17 -6.5t7 -16.5t-7 -17t-17 -7h-23q-126 0 -126 118v421zM60 -90l89 50q6 2 7 2q7 0 13 -7.5t6 -15.5q0 -11 -10 -17
l-85 -46q-3 -2 -9 -2q-8 0 -14 6.5t-6 15.5t9 14z" />
    <glyph glyph-name="Tcaron" unicode="&#x164;" horiz-adv-x="385" 
d="M89 783q4 5 11 5t12 -5l80 -73l79 73q5 5 12 5t11 -5t4 -13q0 -9 -9 -18l-81 -72q-8 -8 -16 -8t-16 8l-81 72q-10 9 -10 18q0 8 4 13zM17.5 577.5q5.5 7.5 14.5 7.5h321q9 0 14.5 -7t5.5 -17q0 -11 -5.5 -18.5t-14.5 -7.5h-134v-514q0 -9 -8 -15t-18 -6q-12 0 -19.5 5.5
t-7.5 15.5v514h-134q-9 0 -14.5 7t-5.5 18q0 10 5.5 17.5z" />
    <glyph glyph-name="tcaron" unicode="&#x165;" horiz-adv-x="238" 
d="M163 587.5q11 10.5 26 10.5t26 -10.5t11 -25.5q0 -16 -33 -91q-4 -9 -15 -9q-7 0 -13 4.5t-6 11.5q0 4 2 8l15 41q-24 9 -24 35q0 15 11 25.5zM49 539q0 8 8 13.5t17 5.5q11 0 19 -5.5t8 -13.5v-161h103q8 0 13 -6t5 -15t-5.5 -15.5t-12.5 -6.5h-103v-217q0 -39 16.5 -55
t57.5 -16h23q10 0 17 -6.5t7 -16.5t-7 -17t-17 -7h-23q-126 0 -126 118v421z" />
    <glyph glyph-name="Tbar" unicode="&#x166;" horiz-adv-x="385" 
d="M17.5 577.5q5.5 7.5 14.5 7.5h321q9 0 14.5 -7t5.5 -17q0 -11 -5.5 -18.5t-14.5 -7.5h-134v-221h102q8 0 13 -6.5t5 -14.5q0 -23 -18 -23h-102v-249q0 -9 -8 -15t-18 -6q-12 0 -19.5 5.5t-7.5 15.5v249h-102q-9 0 -13.5 6.5t-4.5 15.5q0 10 4.5 16t13.5 6h102v221h-134
q-9 0 -14.5 7t-5.5 18q0 10 5.5 17.5z" />
    <glyph glyph-name="tbar" unicode="&#x167;" horiz-adv-x="240" 
d="M49 539q0 8 8 13.5t17 5.5q11 0 19 -5.5t8 -13.5v-161h103q8 0 13 -6t5 -15t-5.5 -15.5t-12.5 -6.5h-103v-81h103q7 0 12.5 -6.5t5.5 -15.5t-5 -15t-13 -6h-103v-93q0 -39 16.5 -55t57.5 -16h23q10 0 17 -6.5t7 -16.5t-7 -17t-17 -7h-23q-126 0 -126 118v421z" />
    <glyph glyph-name="Utilde" unicode="&#x168;" horiz-adv-x="453" 
d="M101 713q0 19 22.5 32t47.5 13q21 0 53 -13q34 -14 53 -14q20 0 36 12q16 11 20 11q7 0 11.5 -5.5t4.5 -12.5q0 -21 -21.5 -33.5t-45.5 -12.5q-21 0 -53 15q-32 13 -54 13q-19 0 -37 -12q-17 -13 -22 -13q-15 0 -15 20zM58 566q0 19 27 19q26 0 26 -19v-400q0 -60 30 -91
t85 -31q56 0 86 31t30 91v400q0 19 26 19t26 -19v-400q0 -86 -44.5 -128.5t-123.5 -42.5t-123.5 42.5t-44.5 128.5v400z" />
    <glyph glyph-name="utilde" unicode="&#x169;" 
d="M74 510q0 18 23 31.5t48 13.5q17 0 53 -13q33 -14 52 -14q21 0 36 12q17 11 20 11q7 0 11.5 -5.5t4.5 -12.5q0 -21 -21 -33.5t-46 -12.5q-22 0 -53 15q-34 13 -53 13q-21 0 -38 -13q-18 -12 -21 -12q-16 0 -16 20zM46 358q0 8 8 14t19 6q10 0 17.5 -6t7.5 -14v-213
q0 -41 30 -72t70 -31q41 0 70.5 31t29.5 72v214q0 8 8 13.5t19 5.5q10 0 17.5 -5.5t7.5 -13.5v-214q0 -39 -20.5 -74t-55.5 -56t-76 -21t-76 21t-55.5 56t-20.5 74v213z" />
    <glyph glyph-name="Umacron" unicode="&#x16a;" horiz-adv-x="453" 
d="M120 731q0 9 5.5 15t14.5 6h172q8 0 14 -6t6 -15q0 -7 -6 -13.5t-14 -6.5h-172q-8 0 -14 6t-6 14zM58 566q0 19 27 19q26 0 26 -19v-400q0 -60 30 -91t85 -31q56 0 86 31t30 91v400q0 19 26 19t26 -19v-400q0 -86 -44.5 -128.5t-123.5 -42.5t-123.5 42.5t-44.5 128.5v400
z" />
    <glyph glyph-name="umacron" unicode="&#x16b;" 
d="M93 528q0 9 5.5 15t14.5 6h172q7 0 13.5 -6t6.5 -15q0 -7 -6.5 -13.5t-13.5 -6.5h-172q-9 0 -15 6q-5 5 -5 14zM46 358q0 8 8 14t19 6q10 0 17.5 -6t7.5 -14v-213q0 -41 30 -72t70 -31q41 0 70.5 31t29.5 72v214q0 8 8 13.5t19 5.5q10 0 17.5 -5.5t7.5 -13.5v-214
q0 -39 -20.5 -74t-55.5 -56t-76 -21t-76 21t-55.5 56t-20.5 74v213z" />
    <glyph glyph-name="Ubreve" unicode="&#x16c;" horiz-adv-x="453" 
d="M167 774q0 -27 17.5 -45.5t41.5 -18.5q23 0 40 18.5t17 45.5h35q0 -37 -28 -65t-64 -28q-38 0 -66 27.5t-28 65.5h35zM58 566q0 19 27 19q26 0 26 -19v-400q0 -60 30 -91t85 -31q56 0 86 31t30 91v400q0 19 26 19t26 -19v-400q0 -86 -44.5 -128.5t-123.5 -42.5
t-123.5 42.5t-44.5 128.5v400z" />
    <glyph glyph-name="ubreve" unicode="&#x16d;" 
d="M140 571q0 -27 17 -46t41 -19t41 19t17 46h35q0 -37 -28.5 -65t-64.5 -28q-37 0 -65 28t-28 65h35zM46 358q0 8 8 14t19 6q10 0 17.5 -6t7.5 -14v-213q0 -41 30 -72t70 -31q41 0 70.5 31t29.5 72v214q0 8 8 13.5t19 5.5q10 0 17.5 -5.5t7.5 -13.5v-214q0 -39 -20.5 -74
t-55.5 -56t-76 -21t-76 21t-55.5 56t-20.5 74v213z" />
    <glyph glyph-name="Uring" unicode="&#x16e;" horiz-adv-x="453" 
d="M174 795.5q22 22.5 52 22.5q29 0 51.5 -23t22.5 -52q0 -31 -22.5 -54t-51.5 -23q-30 0 -52 23t-22 54q0 30 22 52.5zM192.5 708.5q14.5 -15.5 33.5 -15.5t33 15.5t14 34.5q0 18 -14.5 32.5t-32.5 14.5q-19 0 -33.5 -14.5t-14.5 -32.5q0 -19 14.5 -34.5zM58 566
q0 19 27 19q26 0 26 -19v-400q0 -60 30 -91t85 -31q56 0 86 31t30 91v400q0 19 26 19t26 -19v-400q0 -86 -44.5 -128.5t-123.5 -42.5t-123.5 42.5t-44.5 128.5v400z" />
    <glyph glyph-name="uring" unicode="&#x16f;" 
d="M146 592q22 22 52 22q29 0 51.5 -22.5t22.5 -51.5q0 -31 -22.5 -54t-51.5 -23q-30 0 -52 23t-22 54q0 30 22 52zM164.5 505q14.5 -15 33.5 -15t33 15t14 35q0 18 -14 32t-33 14t-33.5 -14t-14.5 -32q0 -20 14.5 -35zM46 358q0 8 8 14t19 6q10 0 17.5 -6t7.5 -14v-213
q0 -41 30 -72t70 -31q41 0 70.5 31t29.5 72v214q0 8 8 13.5t19 5.5q10 0 17.5 -5.5t7.5 -13.5v-214q0 -39 -20.5 -74t-55.5 -56t-76 -21t-76 21t-55.5 56t-20.5 74v213z" />
    <glyph glyph-name="Uhungarumlaut" unicode="&#x170;" horiz-adv-x="453" 
d="M152 706l77 55q3 3 9 3q7 0 12.5 -6t5.5 -13q0 -9 -7 -15l-73 -51q-4 -4 -10 -4q-7 0 -13.5 6t-6.5 13q0 8 6 12zM272 706l77 55q3 3 9 3q7 0 12.5 -6t5.5 -13q0 -9 -7 -15l-73 -51q-4 -4 -10 -4q-7 0 -13.5 6t-6.5 13q0 8 6 12zM58 566q0 19 27 19q26 0 26 -19v-400
q0 -60 30 -91t85 -31q56 0 86 31t30 91v400q0 19 26 19t26 -19v-400q0 -86 -44.5 -128.5t-123.5 -42.5t-123.5 42.5t-44.5 128.5v400z" />
    <glyph glyph-name="uhungarumlaut" unicode="&#x171;" 
d="M118 502l76 56q4 3 9 3q7 0 13 -6t6 -13q0 -10 -8 -15l-72 -51q-6 -4 -10 -4q-7 0 -14 6t-7 13q0 8 7 11zM238 502l76 56q5 3 9 3q7 0 13 -6t6 -13q0 -10 -8 -15l-72 -51q-6 -4 -10 -4q-7 0 -14 6t-7 13q0 8 7 11zM46 358q0 8 8 14t19 6q10 0 17.5 -6t7.5 -14v-213
q0 -41 30 -72t70 -31q41 0 70.5 31t29.5 72v214q0 8 8 13.5t19 5.5q10 0 17.5 -5.5t7.5 -13.5v-214q0 -39 -20.5 -74t-55.5 -56t-76 -21t-76 21t-55.5 56t-20.5 74v213z" />
    <glyph glyph-name="Uogonek" unicode="&#x172;" horiz-adv-x="453" 
d="M58 566q0 19 27 19q26 0 26 -19v-400q0 -60 30 -91t85 -31q56 0 86 31t30 91v400q0 19 26 19t26 -19v-400q0 -133 -107 -163q-59 -51 -59 -100q0 -36 50 -36q16 0 16 -14t-20 -14q-35 0 -56.5 15t-21.5 45q0 50 42 97h-5q-3 -1 -7 -1q-79 0 -123.5 42.5t-44.5 128.5v400z
" />
    <glyph glyph-name="uogonek" unicode="&#x173;" 
d="M46 358q0 8 8 14t19 6q10 0 17.5 -6t7.5 -14v-213q0 -41 30 -72t70 -31q41 0 70.5 31t29.5 72v214q0 8 8 13.5t19 5.5q10 0 17.5 -5.5t7.5 -13.5v-214q0 -47 -29 -86.5t-75 -56.5q-58 -51 -58 -99q0 -36 50 -36q16 0 16 -14t-20 -14q-35 0 -56.5 15t-21.5 45q0 50 42 95
q-41 0 -76 21t-55.5 56t-20.5 74v213z" />
    <glyph glyph-name="Wcircumflex" unicode="&#x174;" horiz-adv-x="630" 
d="M218 715l83 45q8 4 13 4q6 0 14 -4l83 -45q11 -5 11 -18q0 -8 -5 -13.5t-11 -5.5q-4 0 -8 2l-84 44l-83 -45l-7 -2q-7 0 -12 6.5t-5 14.5q0 12 11 17zM27.5 578.5q9.5 6.5 20.5 6.5q16 0 21 -14l138 -491l80 298q5 19 28 19q21 0 27 -19l80 -298l139 491q3 14 21 14
q11 0 20.5 -6.5t9.5 -15.5q0 -5 -1 -6l-157 -543q-6 -19 -32 -19t-31 19l-76 283l-76 -283q-5 -19 -31 -19t-32 19l-158 543v6q0 9 9.5 15.5z" />
    <glyph glyph-name="wcircumflex" unicode="&#x175;" horiz-adv-x="534" 
d="M170 512l83 45q8 4 13 4q6 0 14 -4l83 -45q11 -5 11 -18q0 -8 -5 -14t-11 -6l-8 3l-84 44l-83 -45l-7 -2q-7 0 -12 6t-5 14q0 13 11 18zM21.5 373q9.5 7 21.5 7q14 0 19 -12l102 -285l82 260q5 14 21 14q18 0 21 -14l79 -263l105 288q3 12 18 12q12 0 21.5 -7t9.5 -16
q0 -7 -3 -12l-125 -339q-4 -12 -21 -12q-16 0 -22 12l-83 260l-82 -256q-4 -16 -23 -16q-18 0 -22 16l-125 335q-3 6 -3 12q0 9 9.5 16z" />
    <glyph glyph-name="Ycircumflex" unicode="&#x176;" horiz-adv-x="425" 
d="M115 715l83 45q8 4 14 4t14 -4l83 -45q10 -4 10 -18q0 -8 -4.5 -13.5t-11.5 -5.5q-3 0 -8 2l-83 44l-83 -45l-7 -2q-7 0 -12 6.5t-5 14.5q0 11 10 17zM24 578q9 7 20 7t21 -16l147 -292l148 292q10 16 21 16q10 0 19.5 -7t9.5 -16q0 -7 -4 -14l-166 -318l-2 -6v-203
q0 -10 -7.5 -15.5t-18.5 -5.5t-18.5 6t-7.5 15v203q0 5 -1 6l-166 318q-4 10 -4 14q0 9 9 16z" />
    <glyph glyph-name="ycircumflex" unicode="&#x177;" horiz-adv-x="336" 
d="M74 512l83 45q8 4 13 4q6 0 14 -4l83 -45q11 -5 11 -18q0 -8 -5 -14t-11 -6l-8 3l-84 44l-83 -45l-7 -2q-7 0 -12 6t-5 14q0 13 11 18zM21 375.5q10 7.5 22 7.5q14 0 19 -11l109 -294l103 294q6 11 18 11q11 0 21.5 -8t10.5 -17q0 -5 -2 -7l-124 -336l-14 -39
q-2 -4 -14.5 -34t-20.5 -43l-21 -32q-13 -18 -25 -27.5t-31 -17.5t-36 -8q-24 0 -24 24t16 24q36 0 67.5 43.5t48.5 110.5l-130 335q-3 5 -3 7q0 10 10 17.5z" />
    <glyph glyph-name="Ydieresis" unicode="&#x178;" horiz-adv-x="425" 
d="M142.5 728q8.5 8 21.5 8q12 0 20.5 -8t8.5 -21q0 -12 -8.5 -20.5t-20.5 -8.5q-13 0 -21.5 8.5t-8.5 20.5q0 13 8.5 21zM241.5 728q8.5 8 20.5 8q13 0 21 -8t8 -21q0 -12 -8.5 -20.5t-20.5 -8.5t-20.5 8.5t-8.5 20.5q0 13 8.5 21zM24 578q9 7 20 7t21 -16l147 -292
l148 292q10 16 21 16q10 0 19.5 -7t9.5 -16q0 -7 -4 -14l-166 -318l-2 -6v-203q0 -10 -7.5 -15.5t-18.5 -5.5t-18.5 6t-7.5 15v203q0 5 -1 6l-166 318q-4 10 -4 14q0 9 9 16z" />
    <glyph glyph-name="Zacute" unicode="&#x179;" horiz-adv-x="387" 
d="M142 713l89 49q4 2 7 2q9 0 14 -6.5t5 -15.5q0 -14 -10 -18l-85 -46q-6 -2 -8 -2q-8 0 -14.5 6.5t-6.5 15.5q0 11 9 15zM24 37l266 499h-241q-9 0 -14.5 7t-5.5 18q0 10 5.5 17t14.5 7h290q20 0 20 -17q0 -10 -6 -21l-266 -498h262q9 0 14.5 -7t5.5 -17t-5.5 -17.5
t-14.5 -7.5h-311q-19 0 -19 18q0 7 5 19z" />
    <glyph glyph-name="zacute" unicode="&#x17a;" horiz-adv-x="321" 
d="M114 510l89 48q3 3 7 3q9 0 14 -7t5 -16q0 -13 -10 -17l-85 -46l-8 -2q-8 0 -14.5 6.5t-6.5 15.5q0 11 9 15zM27 41l196 292h-177q-8 0 -13.5 6.5t-5.5 15.5q0 10 5.5 16.5t13.5 6.5h227q8 0 14 -5.5t6 -14.5t-7 -20l-196 -292h193q8 0 13.5 -7t5.5 -17q0 -9 -5.5 -15.5
t-13.5 -6.5h-242q-9 0 -15.5 6.5t-6.5 14.5q0 9 8 20z" />
    <glyph glyph-name="Zdotaccent" unicode="&#x17b;" horiz-adv-x="387" 
d="M170 728q8 8 21 8q12 0 20.5 -8t8.5 -21q0 -12 -8.5 -20.5t-20.5 -8.5q-13 0 -21 8.5t-8 20.5q0 13 8 21zM24 37l266 499h-241q-9 0 -14.5 7t-5.5 18q0 10 5.5 17t14.5 7h290q20 0 20 -17q0 -10 -6 -21l-266 -498h262q9 0 14.5 -7t5.5 -17t-5.5 -17.5t-14.5 -7.5h-311
q-19 0 -19 18q0 7 5 19z" />
    <glyph glyph-name="zdotaccent" unicode="&#x17c;" horiz-adv-x="321" 
d="M138 525q8 8 21 8q12 0 20.5 -8t8.5 -21q0 -12 -8.5 -21t-20.5 -9t-20.5 9t-8.5 21q0 13 8 21zM27 41l196 292h-177q-8 0 -13.5 6.5t-5.5 15.5q0 10 5.5 16.5t13.5 6.5h227q8 0 14 -5.5t6 -14.5t-7 -20l-196 -292h193q8 0 13.5 -7t5.5 -17q0 -9 -5.5 -15.5t-13.5 -6.5
h-242q-9 0 -15.5 6.5t-6.5 14.5q0 9 8 20z" />
    <glyph glyph-name="Zcaron" unicode="&#x17d;" horiz-adv-x="387" 
d="M86 783q4 5 11 5t12 -5l80 -73l79 73q5 5 12 5t11 -5t4 -13q0 -9 -9 -18l-81 -72q-9 -8 -16 -8q-9 0 -16 8l-81 72q-10 9 -10 18q0 8 4 13zM24 37l266 499h-241q-9 0 -14.5 7t-5.5 18q0 10 5.5 17t14.5 7h290q20 0 20 -17q0 -10 -6 -21l-266 -498h262q9 0 14.5 -7
t5.5 -17t-5.5 -17.5t-14.5 -7.5h-311q-19 0 -19 18q0 7 5 19z" />
    <glyph glyph-name="zcaron" unicode="&#x17e;" horiz-adv-x="321" 
d="M55.5 579.5q4.5 5.5 10.5 5.5q7 0 12 -5l80 -74l80 74q5 5 12 5q6 0 10.5 -5.5t4.5 -12.5q0 -11 -10 -18l-81 -72q-8 -8 -16 -8t-16 8l-80 72q-11 7 -11 18q0 7 4.5 12.5zM27 41l196 292h-177q-8 0 -13.5 6.5t-5.5 15.5q0 10 5.5 16.5t13.5 6.5h227q8 0 14 -5.5t6 -14.5
t-7 -20l-196 -292h193q8 0 13.5 -7t5.5 -17q0 -9 -5.5 -15.5t-13.5 -6.5h-242q-9 0 -15.5 6.5t-6.5 14.5q0 9 8 20z" />
    <glyph glyph-name="florin" unicode="&#x192;" horiz-adv-x="276" 
d="M-54 -67.5q7 7.5 16 7.5h16q46 0 61 108l59 418q5 40 29.5 74t61 54t75.5 20h16q8 0 13 -6t5 -16q0 -11 -6.5 -18.5t-15.5 -7.5h-15q-41 0 -73 -29t-38 -71l-20 -133h116q7 0 11.5 -6t4.5 -14q0 -9 -6 -16t-14 -7h-118l-34 -242q-21 -158 -115 -158h-17q-9 0 -14 7t-5 17
q0 11 7 18.5z" />
    <glyph glyph-name="AEacute" unicode="&#x1fc;" horiz-adv-x="572" 
d="M253 712l89 49q4 2 7 2q9 0 14 -6.5t5 -15.5q0 -14 -10 -18l-85 -45q-4 -3 -8 -3q-8 0 -14.5 7t-6.5 16q0 10 9 14zM58 414q0 86 44 128.5t121 42.5h311q19 0 19 -23q0 -11 -5 -18.5t-14 -7.5h-188v-220h117q10 0 15 -6.5t5 -17.5q0 -22 -20 -22h-117v-221h188q9 0 14 -7
t5 -18q0 -24 -19 -24h-216q-10 0 -17.5 6t-7.5 15v249h-183v-245q0 -13 -5.5 -19t-21.5 -6q-25 0 -25 25v389zM110 316h183v220h-70q-113 0 -113 -122v-98z" />
    <glyph glyph-name="aeacute" unicode="&#x1fd;" horiz-adv-x="582" 
d="M240 510l90 48q2 3 6 3q9 0 14 -7t5 -16q0 -12 -9 -17l-86 -46l-8 -2q-8 0 -14.5 6.5t-6.5 15.5q0 11 9 15zM69.5 185q45.5 25 140.5 25h40v19q0 48 -24.5 78.5t-71.5 30.5q-29 0 -56 -11l-28 -12q-9 0 -15 8.5t-6 18.5q0 15 35 28.5t74 13.5q88 0 122 -75q20 34 52.5 54
t70.5 20q40 0 74.5 -18t55.5 -53t21 -83q0 -34 -14.5 -44.5t-55.5 -10.5h-179v-30q0 -47 33 -75.5t86 -28.5q41 0 79 24q9 8 18 8q8 0 15 -8t7 -17q0 -12 -19 -24.5t-48.5 -20.5t-59.5 -8q-46 0 -84.5 22t-57.5 60q-23 -39 -60 -60.5t-77 -21.5q-50 0 -81.5 28t-31.5 78
q0 60 45.5 85zM305 212h158q24 0 32 5.5t8 20.5q0 42 -28.5 72t-71.5 30q-41 0 -69.5 -28.5t-28.5 -68.5v-31zM95 55.5q19 -17.5 50 -17.5q25 0 49.5 13.5t40 33t15.5 37.5v52h-34q-60 0 -97 -12q-43 -13 -43 -59q0 -30 19 -47.5z" />
    <glyph glyph-name="Oslashacute" unicode="&#x1fe;" horiz-adv-x="442" 
d="M173 713l89 49q4 2 7 2q9 0 14 -6.5t5 -15.5q0 -14 -10 -18l-85 -46l-8 -2q-8 0 -14.5 6.5t-6.5 15.5q0 11 9 15zM50 8l28 55q-24 39 -24 103v248q0 86 44 128.5t123 42.5q65 0 108 -31l26 52q5 9 16 9q9 0 16 -6t7 -15q0 -8 -3 -11l-31 -61q27 -42 27 -108v-248
q0 -86 -44 -128.5t-122 -42.5q-72 0 -113 35l-20 -40q-4 -12 -19 -12q-8 0 -14.5 6t-6.5 14q0 4 2 10zM107 166q0 -23 3 -40l194 380q-28 30 -83 30q-114 0 -114 -122v-248zM133 78q28 -34 88 -34q113 0 113 122v248q0 27 -5 47z" />
    <glyph glyph-name="oslashacute" unicode="&#x1ff;" horiz-adv-x="374" 
d="M143 510l90 48q2 3 6 3q9 0 14 -7t5 -16q0 -12 -9 -17l-86 -46q-4 -2 -8 -2q-8 0 -14.5 6.5t-6.5 15.5q0 10 9 15zM35 234q0 39 20.5 73.5t55.5 55t75 20.5q41 0 78 -21l22 38q4 7 12 7q7 0 12.5 -5t5.5 -12q0 -6 -3 -11l-22 -37q48 -46 48 -108v-88q0 -39 -21.5 -74.5
t-56.5 -56.5t-75 -21q-45 0 -80 25l-22 -37q-5 -8 -14 -8q-6 0 -11 4.5t-5 11.5q0 5 4 8l23 41q-46 46 -46 107v88zM87 146q0 -33 20 -61l133 233q-24 17 -54 17q-40 0 -69.5 -30.5t-29.5 -70.5v-88zM130 62q25 -20 56 -20q41 0 71 31.5t30 72.5v88q0 33 -22 62z" />
    <glyph glyph-name="Scommaaccent" unicode="&#x218;" horiz-adv-x="395" 
d="M36.5 100.5q7.5 9.5 16.5 9.5q6 0 16 -10l22 -23q13 -13 40 -23t59 -10q57 0 88 28.5t31 81.5q0 35 -14.5 60.5t-38.5 40.5t-51 25l-58 22q-33 14 -54 29.5t-35 42.5q-15 27 -15 67t15.5 71t42.5 46q49 28 112 28q51 0 92.5 -14t41.5 -34q0 -10 -7 -20t-16 -10
q-7 0 -18 8q-42 22 -94 22q-53 0 -84.5 -22.5t-31.5 -69.5q0 -33 19 -57t50 -35q75 -25 128 -55q31 -17 50 -53.5t19 -86.5q0 -80 -45 -122.5t-124 -42.5q-44 0 -81.5 14t-60 34.5t-22.5 38.5q0 10 7.5 19.5zM154 -90l88 50l8 2q7 0 13 -7.5t6 -15.5q0 -12 -11 -17l-84 -46
q-4 -2 -9 -2q-8 0 -14 6.5t-6 15.5t9 14z" />
    <glyph glyph-name="scommaaccent" unicode="&#x219;" horiz-adv-x="308" 
d="M32 68q6 8 13 8q5 0 17 -9q14 -12 37 -20.5t51 -8.5q41 0 62 15.5t21 41.5q0 28 -19 45.5t-51 25.5q-6 2 -31 9t-44.5 17t-31.5 24q-21 21 -21 58q0 47 33.5 78t93.5 31q39 0 73 -12.5t34 -26.5q0 -8 -7 -17.5t-15 -9.5l-29 11q-30 11 -56 11q-38 0 -59 -18t-21 -44
q0 -43 71 -61q43 -11 66.5 -21t41.5 -32q20 -26 20 -65q0 -48 -34.5 -76t-94.5 -28q-33 0 -62.5 9t-46.5 22.5t-17 26.5q0 8 6 16zM102 -90l89 50l7 2q8 0 14 -7t6 -16q0 -11 -11 -17l-85 -46q-3 -2 -8 -2q-8 0 -14 6.5t-6 15.5t8 14z" />
    <glyph glyph-name="uni0237" unicode="&#x237;" horiz-adv-x="153" 
d="M-23.5 -145q6.5 7 16.5 7q34 0 45.5 24t11.5 80v393q0 9 7 14t19 5q11 0 18.5 -5.5t7.5 -13.5v-393q0 -152 -105 -152q-14 0 -20.5 6.5t-6.5 17.5q0 10 6.5 17z" />
    <glyph glyph-name="uni0259" unicode="&#x259;" horiz-adv-x="366" 
d="M42 190q11 11 35 13q5 1 21 1h180v30q0 47 -33.5 75.5t-88.5 28.5q-45 0 -78 -24q-11 -8 -17 -8q-9 0 -16 8t-7 16q0 18 35 36q33 17 85 17q75 0 123.5 -42t48.5 -109v-90q0 -39 -20.5 -73.5t-55.5 -54.5t-76 -20t-75.5 19.5t-54.5 53t-20 74.5q0 33 14 49zM107 68
q29 -30 71 -30q41 0 70.5 28.5t29.5 68.5v31h-160q-24 0 -32 -5.5t-8 -22.5q0 -40 29 -70z" />
    <glyph glyph-name="circumflex" unicode="&#x2c6;" horiz-adv-x="214" 
d="M10 512l84 45q8 4 13 4q6 0 14 -4l83 -45q10 -4 10 -18q0 -8 -4.5 -14t-11.5 -6l-8 3l-83 44l-83 -45l-7 -2q-7 0 -12 6t-5 14q0 12 10 18z" />
    <glyph glyph-name="caron" unicode="&#x2c7;" horiz-adv-x="226" 
d="M10.5 580q4.5 5 11.5 5q5 0 12 -5l80 -74l79 74q5 5 12 5t11 -5t4 -13q0 -11 -10 -18l-80 -72q-9 -8 -16 -8q-9 0 -16 8l-81 72q-11 8 -11 18q0 8 4.5 13z" />
    <glyph glyph-name="breve" unicode="&#x2d8;" horiz-adv-x="186" 
d="M35 571q0 -27 17.5 -46t41.5 -19q23 0 40 19t17 46h35q0 -37 -28 -65t-64 -28q-38 0 -66 27.5t-28 65.5h35z" />
    <glyph glyph-name="dotaccent" unicode="&#x2d9;" horiz-adv-x="162" 
d="M64.5 525q8.5 8 21.5 8q12 0 20 -8t8 -21q0 -12 -8 -21t-20 -9q-13 0 -21.5 9t-8.5 21q0 13 8.5 21z" />
    <glyph glyph-name="ring" unicode="&#x2da;" horiz-adv-x="148" 
d="M22 592q22 22 52 22q29 0 51.5 -22.5t22.5 -51.5q0 -31 -22.5 -54t-51.5 -23q-30 0 -52 23t-22 54q0 30 22 52zM40.5 505q14.5 -15 33.5 -15t33 15t14 35q0 18 -14 32t-33 14t-33.5 -14t-14.5 -32q0 -20 14.5 -35z" />
    <glyph glyph-name="ogonek" unicode="&#x2db;" horiz-adv-x="98" 
d="M65 17l26 -14q-59 -51 -59 -100q0 -36 50 -36q16 0 16 -14t-20 -14q-35 0 -56.5 15t-21.5 45q0 62 65 118z" />
    <glyph glyph-name="tilde" unicode="&#x2dc;" horiz-adv-x="248" 
d="M0 510q0 19 22.5 32t47.5 13q19 0 53 -13q34 -14 53 -14q21 0 36 12q16 11 20 11q7 0 11.5 -5.5t4.5 -12.5q0 -21 -21.5 -33.5t-45.5 -12.5q-21 0 -53 15q-36 13 -54 13q-20 0 -37 -13q-18 -12 -22 -12q-15 0 -15 20z" />
    <glyph glyph-name="hungarumlaut" unicode="&#x2dd;" horiz-adv-x="230" 
d="M6 502l77 56q4 3 9 3q7 0 12.5 -6t5.5 -13q0 -11 -7 -15l-73 -51q-4 -4 -9 -4q-8 0 -14.5 6t-6.5 13q0 8 6 11zM126 502l77 56q4 3 9 3q7 0 12.5 -6t5.5 -13q0 -11 -7 -15l-73 -51q-4 -4 -9 -4q-8 0 -14.5 6t-6.5 13q0 8 6 11z" />
    <glyph glyph-name="pi" unicode="&#x3c0;" horiz-adv-x="394" 
d="M50 358q0 9 7 14.5t17 5.5h244q10 0 17.5 -5.5t7.5 -14.5v-338q0 -20 -26 -20q-27 0 -27 20v310h-187v-310q0 -20 -26 -20q-27 0 -27 20v338z" />
    <glyph glyph-name="uni10A0" unicode="&#x10a0;" horiz-adv-x="602" 
d="M566.5 145.5q5.5 -5.5 5.5 -14.5q0 -5 -3 -10q-47 -58 -112 -94t-142 -36q-87 0 -151.5 35t-99 96t-34.5 136q0 54 23 112t68.5 109.5t109.5 85.5h-155q-13 0 -22.5 8t-9.5 19t9.5 19.5t22.5 8.5h436q13 0 22.5 -8t9.5 -19t-9.5 -19.5t-22.5 -8.5h-192
q-105 -51 -165 -128.5t-60 -169.5q0 -68 30.5 -118t80 -76.5t105.5 -26.5q47 0 99.5 23.5t83.5 54.5q2 2 7.5 8t10.5 9t12 5q19 5 28 5t14.5 -5.5z" />
    <glyph glyph-name="uni10A1" unicode="&#x10a1;" horiz-adv-x="627" 
d="M582.5 50.5q4.5 -4.5 4.5 -11.5v-34q0 -6 -4.5 -10.5t-10.5 -4.5h-231q-6 0 -10.5 4.5t-4.5 10.5v290q-31 -27 -60 -41.5t-71 -14.5q-50 0 -85 23t-52.5 60.5t-17.5 78.5q0 47 24.5 98.5t62.5 97.5q5 5 10 5h63q-45 -48 -70 -99.5t-25 -99.5q0 -42 28 -75.5t70 -33.5
q43 0 71.5 15t51.5 43v253q0 6 4.5 10.5t10.5 4.5h35q6 0 10.5 -4.5t4.5 -10.5v-550h180q7 0 11.5 -4.5z" />
    <glyph glyph-name="uni10A2" unicode="&#x10a2;" horiz-adv-x="621" 
d="M44.5 384.5q-4.5 4.5 -4.5 10.5v210q0 6 4.5 10.5t10.5 4.5h302q6 0 10.5 -4.5t4.5 -10.5v-515h192h2q6 0 10.5 -5t4.5 -11v-167q0 -6 -4.5 -10.5t-10.5 -4.5h-35q-6 0 -10.5 4.5t-4.5 10.5v128h-192q-17 0 -17 17v513h-202v-170q0 -6 -4.5 -10.5t-10.5 -4.5h-35
q-6 0 -10.5 4.5z" />
    <glyph glyph-name="uni10A3" unicode="&#x10a3;" horiz-adv-x="564" 
d="M421.5 410.5q47.5 -32.5 75 -82t27.5 -107.5q0 -63 -32 -116t-87.5 -84t-121.5 -31t-122 31t-88.5 84t-32.5 116q0 57 28 106.5t76 82t106 40.5v115h-191q-6 0 -10.5 4.5t-4.5 10.5v25q0 6 4.5 10.5t10.5 4.5h445q6 0 10.5 -4.5t4.5 -10.5v-25q0 -6 -4.5 -10.5
t-10.5 -4.5h-189v-115q59 -7 106.5 -39.5zM375 68q40 23 62 63t22 90t-22 90t-62 63t-92 23t-92.5 -23t-63 -63.5t-22.5 -89.5q0 -50 22 -90t62.5 -63t93.5 -23q52 0 92 23z" />
    <glyph glyph-name="uni10A4" unicode="&#x10a4;" horiz-adv-x="419" 
d="M44.5 324.5q-4.5 4.5 -4.5 10.5v270q0 6 4.5 10.5t10.5 4.5h302q6 0 10.5 -4.5t4.5 -10.5v-600q0 -6 -4.5 -10.5t-10.5 -4.5h-35q-6 0 -10.5 4.5t-4.5 10.5v560h-202v-230q0 -6 -4.5 -10.5t-10.5 -4.5h-35q-6 0 -10.5 4.5z" />
    <glyph glyph-name="uni10A5" unicode="&#x10a5;" horiz-adv-x="660" 
d="M596.5 396q4.5 -4 4.5 -11v-225q0 -6 -4.5 -10.5t-10.5 -4.5h-35q-6 0 -10.5 4.5t-4.5 10.5v185h-164v-339q0 -6 -4.5 -10.5t-10.5 -4.5h-35q-6 0 -10.5 4.5t-4.5 10.5v559h-202v-230q0 -6 -4.5 -10.5t-10.5 -4.5h-35q-6 0 -10.5 4.5t-4.5 10.5v270q0 6 4.5 10.5
t10.5 4.5h302q6 0 10.5 -4.5t4.5 -10.5v-205h213q7 0 11.5 -4z" />
    <glyph glyph-name="uni10A6" unicode="&#x10a6;" horiz-adv-x="701" 
d="M17 605q0 6 4.5 10.5t10.5 4.5h302q6 0 10.5 -4.5t4.5 -10.5v-287q20 29 53 44t70 15q53 0 96 -24t68 -68t25 -102q0 -53 -25.5 -97.5t-68.5 -70t-95 -25.5q-51 0 -94.5 25.5t-68.5 70t-25 97.5v382h-202v-229q0 -6 -4.5 -10.5t-10.5 -4.5h-35q-6 0 -10.5 4.5t-4.5 10.5
v269zM366.5 110.5q17.5 -31.5 45.5 -48.5t60 -17t60.5 17t46 48.5t17.5 72.5q0 42 -17.5 73.5t-46 48.5t-60.5 17t-60.5 -17t-45.5 -48.5t-17 -73.5q0 -41 17.5 -72.5z" />
    <glyph glyph-name="uni10A7" unicode="&#x10a7;" horiz-adv-x="730" 
d="M686.5 396q4.5 -4 4.5 -11v-165q0 -6 -4.5 -10.5t-10.5 -4.5h-35q-6 0 -10.5 4.5t-4.5 10.5v125h-156v-341q0 -6 -4.5 -10.5t-10.5 -4.5h-49q-106 0 -189.5 38.5t-130 109.5t-46.5 167q0 95 48 166.5t131.5 110.5t186.5 39h49q6 0 10.5 -4.5t4.5 -10.5v-205h205
q7 0 11.5 -4zM405 565h-19q-64 -1 -128 -30.5t-107.5 -88t-45.5 -142.5q2 -84 45.5 -142.5t107.5 -87.5t128 -30h19v521z" />
    <glyph glyph-name="uni10A8" unicode="&#x10a8;" 
d="M34.5 559.5q-4.5 4.5 -4.5 11.5v34q0 6 4.5 10.5t10.5 4.5h307q6 0 10.5 -4.5t4.5 -10.5v-600q0 -6 -4.5 -10.5t-10.5 -4.5h-35q-6 0 -10.5 4.5t-4.5 10.5v550h-256q-7 0 -11.5 4.5z" />
    <glyph glyph-name="uni10A9" unicode="&#x10a9;" horiz-adv-x="446" 
d="M35 605q0 6 4.5 10.5t10.5 4.5h35q6 0 10.5 -4.5t4.5 -10.5v-218q38 31 84 42q30 8 57 8q45 0 84 -18.5t62.5 -51.5t23.5 -74v-288q0 -6 -4.5 -10.5t-10.5 -4.5h-35q-6 0 -10.5 4.5t-4.5 10.5v172q-28 -24 -66.5 -36.5t-74.5 -12.5q-45 0 -83.5 19.5t-62.5 58.5t-24 95
v304zM140.5 210q35.5 -27 82.5 -27t82.5 27t35.5 73t-35.5 72.5t-82.5 26.5t-82.5 -26.5t-35.5 -72.5t35.5 -73z" />
    <glyph glyph-name="uni10AA" unicode="&#x10aa;" horiz-adv-x="721" 
d="M587 351q43 -26 68.5 -70.5t25.5 -97.5t-25.5 -97t-68.5 -70t-95 -26q-51 0 -94 26t-68.5 70t-25.5 97v10v371h-202v-170q0 -6 -4.5 -10.5t-10.5 -4.5h-35q-6 0 -10.5 4.5t-4.5 10.5v210q0 6 4.5 10.5t10.5 4.5h302q6 0 10.5 -4.5t4.5 -10.5v-274q25 22 56.5 34.5
t66.5 12.5q52 0 95 -26zM552.5 62q28.5 17 46 48.5t17.5 72.5q0 42 -17.5 73.5t-46 48.5t-60.5 17t-60.5 -17t-45.5 -48.5t-17 -73.5q0 -41 17.5 -72.5t45.5 -48.5t60 -17t60.5 17z" />
    <glyph glyph-name="uni10AB" unicode="&#x10ab;" horiz-adv-x="631" 
d="M586.5 354.5q4.5 -4.5 4.5 -10.5v-25q0 -6 -4.5 -10.5t-10.5 -4.5h-154v-119q0 -55 -25 -99.5t-68.5 -69.5t-98.5 -25q-53 0 -96 23.5t-67.5 65.5t-24.5 95q0 52 24.5 94t67.5 66t96 24h127v205h-302q-6 0 -10.5 4.5t-4.5 10.5v25q0 6 4.5 10.5t10.5 4.5h352
q6 0 10.5 -4.5t4.5 -10.5v-245h154q6 0 10.5 -4.5zM235 304q-35 0 -64.5 -17.5t-46.5 -47t-17 -64.5t17 -64.5t46 -47t65 -17.5q55 0 88.5 40t33.5 99v119h-122z" />
    <glyph glyph-name="uni10AC" unicode="&#x10ac;" horiz-adv-x="451" 
d="M406.5 614.5q4.5 -4.5 4.5 -10.5v-25q0 -6 -4.5 -10.5t-10.5 -4.5h-291v-239q25 24 57.5 37.5t68.5 13.5q47 0 86 -22.5t61.5 -65.5t22.5 -100v-184q0 -6 -4.5 -10.5t-10.5 -4.5h-35q-6 0 -10.5 4.5t-4.5 10.5v194q0 34 -15.5 62t-42 44.5t-57.5 16.5q-47 0 -81.5 -35
t-34.5 -84v-198q0 -6 -4.5 -10.5t-10.5 -4.5h-35q-6 0 -10.5 4.5t-4.5 10.5v600q0 6 4.5 10.5t10.5 4.5h341q6 0 10.5 -4.5z" />
    <glyph glyph-name="uni10AD" unicode="&#x10ad;" horiz-adv-x="775" 
d="M730.5 145.5q4.5 -4.5 4.5 -10.5v-33q0 -52 -34 -82t-83 -30q-45 0 -75.5 31.5t-31.5 77.5q-37 -51 -90.5 -80t-112.5 -29q-72 0 -133.5 42t-98 114t-36.5 158t36.5 158.5t98 115t133.5 42.5q73 0 134.5 -39t97.5 -110.5t36 -166.5v-16v-196q0 -19 14 -33t33 -14t33 14
t14 33v43q0 6 4.5 10.5t10.5 4.5h35q6 0 10.5 -4.5zM409.5 79q46.5 34 74 93.5t27.5 131.5q0 73 -28 133t-74.5 94t-100.5 34t-100.5 -34t-74.5 -94t-28 -133q0 -72 27.5 -131.5t74 -93.5t101.5 -34t101.5 34z" />
    <glyph glyph-name="uni10AE" unicode="&#x10ae;" horiz-adv-x="638" 
d="M44.5 569.5q-4.5 4.5 -4.5 10.5v25q0 6 4.5 10.5t10.5 4.5h207q6 0 10.5 -4.5t4.5 -10.5v-428q0 -36 17.5 -66t47 -48t63.5 -18t63.5 18t47 48t17.5 66v428q0 6 4.5 10.5t10.5 4.5h35q6 0 10.5 -4.5t4.5 -10.5v-418q0 -56 -25 -101t-69 -70.5t-99 -25.5t-99 25.5
t-69 70.5t-25 101v378h-157q-6 0 -10.5 4.5z" />
    <glyph glyph-name="uni10AF" unicode="&#x10af;" horiz-adv-x="627" 
d="M40 604q0 7 5 11.5t12 4.5h280q8 0 13.5 -5t5.5 -13q0 -7 -4 -12q-69 -116 -96 -165.5t-37.5 -83t-10.5 -71.5q0 -45 22.5 -81t59.5 -56.5t78 -20.5q75 0 154 54v439q0 6 4.5 10.5t10.5 4.5h35q6 0 10.5 -4.5t4.5 -10.5v-898q0 -6 -4.5 -10.5t-10.5 -4.5h-35
q-6 0 -10.5 4.5t-4.5 10.5v398q-78 -48 -170 -48q-58 0 -106 27.5t-75.5 73.5t-27.5 99q0 58 18.5 111.5t42.5 94.5t67 104l-214 -2q-7 0 -12 4.5t-5 11.5v23z" />
    <glyph glyph-name="uni10B0" unicode="&#x10b0;" horiz-adv-x="718" 
d="M643 428q35 -41 35 -111q0 -28 -5.5 -63t-14.5 -58q-3 -9 -12 -9h-37q-9 0 -14 6.5t-2 15.5q19 68 19 91q0 50 -16 81.5t-64 31.5q-67 0 -106 -51v-150q0 -56 -26 -107.5t-70 -83t-96 -31.5q-54 0 -98.5 26t-70 73.5t-25.5 109.5q0 42 8 70.5t21 55.5q4 7 12 7h48
q8 0 8 -7q-1 -2 -16.5 -43t-15.5 -93q0 -44 18 -76.5t47.5 -50t63.5 -17.5q32 0 61.5 19t47.5 52.5t18 75.5v414q0 6 4.5 10.5t10.5 4.5h35q6 0 10.5 -4.5t4.5 -10.5v-179q53 42 117 42q65 0 100 -41z" />
    <glyph glyph-name="uni10B1" unicode="&#x10b1;" horiz-adv-x="485" 
d="M353 301q0 8 5 13t14 5h24q10 0 17 -9q16 -21 24 -50t8 -62q0 -58 -23.5 -105.5t-68.5 -75t-106 -27.5t-108.5 27.5t-73 75t-25.5 105.5v406q0 6 4.5 10.5t10.5 4.5h35q6 0 10.5 -4.5t4.5 -10.5v-406q0 -40 18 -75.5t50.5 -56.5t73.5 -21q61 0 97 45t36 108q0 16 -5 34.5
t-11.5 35.5t-8.5 24q-2 6 -2 9z" />
    <glyph glyph-name="uni10B2" unicode="&#x10b2;" horiz-adv-x="463" 
d="M44.5 -5.5q-4.5 4.5 -4.5 10.5v601q0 6 4.5 10.5t10.5 4.5h215q66 0 109.5 -42.5t43.5 -107.5t-43.5 -107.5t-109.5 -42.5h-165v-276h300q6 0 10.5 -4.5t4.5 -10.5v-25q0 -6 -4.5 -10.5t-10.5 -4.5h-350q-6 0 -10.5 4.5zM260 376q40 0 69 28.5t29 66.5t-29 66.5t-69 28.5
h-155v-190h155z" />
    <glyph glyph-name="uni10B3" unicode="&#x10b3;" horiz-adv-x="625" 
d="M634 157.5q19 -25.5 19 -66.5q0 -28 -17 -77q-3 -9 -12 -9h-53v5q26 46 26 81q0 20 -7 31.5t-30 11.5q-18 0 -33 -6q-38 -63 -95.5 -100.5t-123.5 -37.5q-73 0 -134.5 40t-97.5 112t-36 162t36 162t97.5 112.5t134.5 40.5q74 0 135 -36.5t97 -108t36 -170.5
q0 -66 -24 -125q11 4 24 4q39 0 58 -25.5zM408.5 81q46.5 36 74.5 95.5t28 127.5q0 78 -27.5 137t-74 91t-101.5 32t-101.5 -32t-74 -91t-27.5 -137q0 -77 27.5 -136t74 -91t101.5 -32q54 0 100.5 36z" />
    <glyph glyph-name="uni10B4" unicode="&#x10b4;" horiz-adv-x="628" 
d="M558.5 218q-32.5 -59 -88 -97.5t-122.5 -46.5v-368q0 -6 -4.5 -10.5t-10.5 -4.5h-35q-6 0 -10.5 4.5t-4.5 10.5v368q-67 7 -123 45.5t-88 98t-32 128.5q0 74 37 137t100 100t137 37t138 -37t101.5 -100t37.5 -137q0 -69 -32.5 -128zM129.5 248.5q24.5 -46.5 65.5 -78.5
t88 -40v432q-47 -8 -88 -40t-65.5 -78.5t-24.5 -97.5t24.5 -97.5zM436 171q41 32 65.5 78.5t24.5 96.5t-24.5 96.5t-65.5 78.5t-88 41v-432q47 9 88 41z" />
    <glyph glyph-name="uni10B5" unicode="&#x10b5;" horiz-adv-x="625" 
d="M49 314q0 7 5.5 12t13.5 5h28q4 0 8 -2t5 -6l13 -35h153v337q0 6 4.5 10.5t10.5 4.5h35q6 0 10.5 -4.5t4.5 -10.5v-337h180q4 0 8 -2t5 -6l31 -65l2 -8q0 -7 -5 -12t-13 -5h-29q-4 0 -8 2t-5 6l-16 35h-150v-526q0 -6 -4.5 -10.5t-10.5 -4.5h-35q-6 0 -10.5 4.5
t-4.5 10.5v526h-180q-4 0 -8 2t-5 6l-31 65q-2 6 -2 8z" />
    <glyph glyph-name="uni10B6" unicode="&#x10b6;" horiz-adv-x="470" 
d="M44.5 -5.5q-4.5 4.5 -4.5 10.5v416q0 57 25 102.5t69.5 71t100.5 25.5t100.5 -25.5t69.5 -71t25 -102.5v-416q0 -6 -4.5 -10.5t-10.5 -4.5h-35q-6 0 -10.5 4.5t-4.5 10.5v416q0 39 -17.5 72t-47.5 52.5t-65 19.5t-65 -19.5t-47.5 -52.5t-17.5 -72v-416q0 -6 -4.5 -10.5
t-10.5 -4.5h-35q-6 0 -10.5 4.5z" />
    <glyph glyph-name="uni10B7" unicode="&#x10b7;" horiz-adv-x="524" 
d="M469.5 615.5q4.5 -4.5 4.5 -10.5v-900q0 -6 -4.5 -10.5t-10.5 -4.5h-35q-6 0 -10.5 4.5t-4.5 10.5v412q-30 -19 -62.5 -28t-74.5 -9q-58 0 -111.5 25.5t-86.5 73.5t-33 112q0 53 13.5 99t33.5 83t54 90l24 37q5 6 11 6h51l-14 -25q-52 -90 -80 -154.5t-28 -123.5
q0 -44 22.5 -82.5t60.5 -61.5t83 -23q53 0 81.5 6t55.5 23v440q0 6 4.5 10.5t10.5 4.5h35q6 0 10.5 -4.5z" />
    <glyph glyph-name="uni10B8" unicode="&#x10b8;" horiz-adv-x="460" 
d="M405.5 615.5q4.5 -4.5 4.5 -10.5v-431q0 -84 -49 -134t-131 -50t-131 50t-49 134v62q0 6 4.5 10.5t10.5 4.5h35q6 0 10.5 -4.5t4.5 -10.5v-62q0 -58 32 -93.5t83 -35.5t83 35.5t32 93.5v172q-49 -33 -105 -33q-50 0 -85 23t-52.5 60.5t-17.5 78.5q0 57 40 127q4 7 12 7
h57q-15 -26 -29.5 -66.5t-14.5 -65.5q0 -42 28 -75.5t70 -33.5q54 0 97 41v196q0 6 4.5 10.5t10.5 4.5h35q6 0 10.5 -4.5z" />
    <glyph glyph-name="uni10B9" unicode="&#x10b9;" horiz-adv-x="455" 
d="M40 605q0 6 4.5 10.5t10.5 4.5h35q6 0 10.5 -4.5t4.5 -10.5v-230h295q6 0 10.5 -4.5t4.5 -10.5v-355q0 -6 -4.5 -10.5t-10.5 -4.5h-35q-6 0 -10.5 4.5t-4.5 10.5v315h-245v-315q0 -6 -4.5 -10.5t-10.5 -4.5h-35q-6 0 -10.5 4.5t-4.5 10.5v600z" />
    <glyph glyph-name="uni10BA" unicode="&#x10ba;" horiz-adv-x="610" 
d="M78 466.5q38 70.5 103.5 112t142.5 41.5q126 0 212 -101q4 -4 4 -9q0 -8 -7 -12l-26 -20q-6 -4 -9 -4q-7 0 -12 7q-29 40 -70 62t-92 22q-56 0 -107 -35.5t-81.5 -94t-30.5 -123.5t30.5 -123.5t81.5 -94t107 -35.5q53 0 100.5 30t77.5 81q9 15 26 15q5 0 13 -3t19 -8
q10 -4 10 -14q0 -4 -1 -6l-109 -256q-2 -6 -8 -8.5t-12 0.5l-31 14q-6 3 -8 8.5t0 11.5l48 111q-56 -31 -125 -31q-77 0 -142.5 41.5t-103.5 112t-38 154.5t38 154.5z" />
    <glyph glyph-name="uni10BB" unicode="&#x10bb;" horiz-adv-x="664" 
d="M73 271q23 42 64 64.5t93 22.5h115v247q0 6 4.5 10.5t10.5 4.5h35q6 0 10.5 -4.5t4.5 -10.5v-247h189q6 0 10.5 -4.5t4.5 -10.5v-282q0 -6 -4.5 -10.5t-10.5 -4.5h-35q-6 0 -10.5 4.5t-4.5 10.5v242h-139v-129q0 -84 -49 -134t-131 -50t-131 50t-49 134q0 55 23 97z
M147 80.5q32 -35.5 83 -35.5t83 35.5t32 93.5v129h-115q-51 0 -83 -35.5t-32 -93.5t32 -93.5z" />
    <glyph glyph-name="uni10BC" unicode="&#x10bc;" horiz-adv-x="440" 
d="M50 605q0 6 4.5 10.5t10.5 4.5h208q55 0 91 -35.5t36 -89.5t-36 -89.5t-91 -35.5h-158v-125h108q56 0 91 -27t35 -70q0 -22 -7.5 -48.5t-15.5 -37.5q-3 -5 -10 -5h-24q-9 0 -14 5t-5 12q0 4 2 10q4 10 6.5 24t2.5 24q0 26 -13.5 42t-37.5 16h-118v-485q0 -6 -4.5 -10.5
t-10.5 -4.5h-35q-6 0 -10.5 4.5t-4.5 10.5v900zM273 425q24 0 43 21t19 49t-19 49t-43 21h-158v-140h158z" />
    <glyph glyph-name="uni10BD" unicode="&#x10bd;" horiz-adv-x="466" 
d="M91.5 46q-51.5 56 -51.5 155v27q0 6 4.5 10.5t10.5 4.5h35q6 0 10.5 -4.5t4.5 -10.5v-26q0 -73 34 -115t94 -42q56 0 92 35.5t36 92.5q0 48 -36.5 82t-111.5 60q-67 24 -110 67.5t-43 108.5q0 60 40.5 94.5t107.5 34.5q60 0 97.5 -34.5t37.5 -92.5v-29q0 -6 -4.5 -10.5
t-10.5 -4.5h-35q-6 0 -10.5 4.5t-4.5 10.5v27q0 32 -20.5 53t-55.5 21t-56 -21t-21 -53q0 -37 26 -65.5t84 -48.5q191 -68 191 -204q0 -56 -25 -97.5t-69 -63.5t-99 -22q-90 0 -141.5 56z" />
    <glyph glyph-name="uni10BE" unicode="&#x10be;" horiz-adv-x="455" 
d="M44.5 -5.5q-4.5 4.5 -4.5 10.5v600q0 6 4.5 10.5t10.5 4.5h35q6 0 10.5 -4.5t4.5 -10.5v-241h235v241q0 6 4.5 10.5t10.5 4.5h35q6 0 10.5 -4.5t4.5 -10.5v-281q0 -6 -4.5 -10.5t-10.5 -4.5h-285v-264h295q6 0 10.5 -4.5t4.5 -10.5v-25q0 -6 -4.5 -10.5t-10.5 -4.5h-345
q-6 0 -10.5 4.5z" />
    <glyph glyph-name="uni10BF" unicode="&#x10bf;" horiz-adv-x="668" 
d="M57 -79q-5 5 -5 13q0 7 6 15l286 362l-160 249q-3 6 -11 6h-103q-6 0 -10.5 4.5t-4.5 10.5v25q0 6 4.5 10.5t10.5 4.5h533q6 0 10.5 -4.5t4.5 -10.5v-36q0 -1 -3 -7l-201 -256l160 -247q4 -5 4 -12q0 -8 -5.5 -13t-13.5 -5h-28q-8 0 -11 6l-143 224l-267 -339
q-3 -5 -10 -5h-31q-7 0 -12 5zM381 358l164 208h-298z" />
    <glyph glyph-name="uni10C0" unicode="&#x10c0;" horiz-adv-x="726" 
d="M44.5 389.5q-4.5 4.5 -4.5 10.5v205q0 6 4.5 10.5t10.5 4.5h301q6 0 10.5 -4.5t4.5 -10.5v-426q0 -60 33.5 -97t86.5 -37t86.5 37t33.5 97v160q0 6 4.5 10.5t10.5 4.5h35q6 0 10.5 -4.5t4.5 -10.5v-150q0 -57 -23 -102.5t-65 -71t-97 -25.5t-97 25.5t-65 71t-23 102.5
v376h-201v-165q0 -6 -4.5 -10.5t-10.5 -4.5h-35q-6 0 -10.5 4.5z" />
    <glyph glyph-name="uni10C1" unicode="&#x10c1;" horiz-adv-x="526" 
d="M54.5 -5.5q-4.5 4.5 -4.5 10.5v600q0 6 4.5 10.5t10.5 4.5h35q6 0 10.5 -4.5t4.5 -10.5v-172q25 17 43.5 26t40.5 9q29 0 50.5 -15.5t48.5 -45.5q24 -26 40 -38t36 -12q13 0 25 6.5t36 22.5q5 3 10 3q7 0 12 -6l21 -28q3 -4 3 -9q0 -7 -6 -12q-23 -17 -44.5 -25.5
t-56.5 -8.5q-25 0 -48 15t-54 44q-27 26 -47.5 40t-41.5 14q-27 0 -68 -35v-373q0 -6 -4.5 -10.5t-10.5 -4.5h-35q-6 0 -10.5 4.5z" />
    <glyph glyph-name="uni10C2" unicode="&#x10c2;" horiz-adv-x="616" 
d="M303 533q74 0 137 -36.5t99.5 -98.5t36.5 -135q0 -74 -36.5 -137t-99.5 -99.5t-137 -36.5q-84 0 -150 51t-107 133q-1 2 -1 6q0 7 5 11.5t12 4.5h32q9 0 13 -9q23 -58 79 -100t117 -42q54 0 102 31t77 81t29 106q0 55 -28 104.5t-78 80t-111 30.5q-20 0 -39 -4t-36 -9
q-37 -11 -63 -11l-5 -1q-7 0 -11.5 5t-4.5 12v135q0 6 4.5 10.5t10.5 4.5h35q6 0 10.5 -4.5t4.5 -10.5v-90q47 18 103 18z" />
    <glyph glyph-name="uni10C3" unicode="&#x10c3;" horiz-adv-x="430" 
d="M70.5 451q30.5 45 75.5 75q4 2 6 2q5 0 11 -6l17 -20q4 -6 4 -10q0 -6 -6 -11q-4 -4 -26 -25.5t-34.5 -46t-12.5 -48.5q0 -39 28.5 -65t63.5 -26q33 0 67.5 15.5t50.5 37.5v282q0 6 4.5 10.5t10.5 4.5h35q6 0 10.5 -4.5t4.5 -10.5v-600q0 -6 -4.5 -10.5t-10.5 -4.5h-35
q-6 0 -10.5 4.5t-4.5 10.5v255q-26 -22 -51.5 -33.5t-66.5 -11.5t-77.5 19.5t-58 53t-21.5 73.5q0 45 30.5 90z" />
    <glyph glyph-name="uni10C4" unicode="&#x10c4;" horiz-adv-x="515" 
d="M50 193v412q0 6 4.5 10.5t10.5 4.5h35q6 0 10.5 -4.5t4.5 -10.5v-377l142 -59l143 59v377q0 6 4.5 10.5t10.5 4.5h35q6 0 10.5 -4.5t4.5 -10.5v-412q0 -8 -9 -12l-166 -70v-406q0 -6 -4.5 -10.5t-10.5 -4.5h-35q-6 0 -10.5 4.5t-4.5 10.5v406l-166 70q-9 4 -9 12z" />
    <glyph glyph-name="uni10C5" unicode="&#x10c5;" horiz-adv-x="721" 
d="M72 230q22 36 62 58t91 24h110v236q0 31 20 51.5t51 20.5h148q42 0 69.5 -27.5t27.5 -68.5t-27.5 -68.5t-69.5 -27.5h-164v-116h100q33 0 55.5 -13.5t38.5 -57.5q3 -7 7 -25q8 -35 20 -54t38 -19h17q6 0 10.5 -4.5t4.5 -10.5v-25q0 -6 -4.5 -10.5t-10.5 -4.5h-37
q-26 0 -47 18.5t-29 41.5l-20 56q-9 26 -22 39.5t-39 13.5h-82v-89q0 -51 -21 -91.5t-58.5 -63.5t-85.5 -23q-51 0 -90.5 22t-62 59t-22.5 80t22 79zM545 483q20 0 30.5 11t10.5 30q0 20 -10.5 30.5t-30.5 10.5h-125q-14 0 -22 -8t-8 -22v-52h155zM147.5 74.5
q32.5 -29.5 77.5 -29.5q30 0 55 15t40 39.5t15 51.5v106h-110q-45 0 -77.5 -29.5t-32.5 -76.5t32.5 -76.5z" />
    <glyph glyph-name="uni10D0" unicode="&#x10d0;" horiz-adv-x="330" 
d="M164.5 315.5q11.5 -13.5 27.5 -26.5t22 -18q35 -29 52 -47.5t26.5 -42t9.5 -57.5q0 -61 -40 -97.5t-97 -36.5q-62 0 -98.5 39t-36.5 101t39 62q14 0 22.5 -8t8.5 -22q0 -9 -5 -22q-7 -23 -7 -34q0 -28 22.5 -49t54.5 -21q36 0 57.5 26.5t21.5 61.5q0 34 -16 57.5
t-49 51.5q-12 10 -19 14q-32 24 -48.5 44t-16.5 52q0 28 13 47.5t30 19.5q13 0 20.5 -7t7.5 -18q0 -8 -6.5 -19t-6.5 -21q0 -16 11.5 -29.5z" />
    <glyph glyph-name="uni10D1" unicode="&#x10d1;" horiz-adv-x="378" 
d="M73 35q-43 45 -43 114q0 43 19 78.5t49 58.5t62 30v94q0 22 -6.5 34t-23.5 20l-46 22q-19 9 -30 29t-11 70q0 18 9.5 26.5t21.5 8.5t21.5 -7t9.5 -20q0 -9 -2 -21t-2 -19q0 -12 5 -18t27 -18l46 -27q20 -11 29.5 -22t9.5 -30v-122q32 -7 62 -30t49 -58.5t19 -78.5
q0 -69 -43 -114t-116 -45t-116 45zM263.5 67.5q27.5 31.5 27.5 70.5t-17 69t-41 46.5t-44 16.5t-44 -16.5t-41 -46.5t-17 -69t27.5 -70.5t74.5 -31.5t74.5 31.5z" />
    <glyph glyph-name="uni10D2" unicode="&#x10d2;" horiz-adv-x="400" 
d="M118.5 -285.5q-40.5 24.5 -64.5 64.5t-24 84q0 48 18 83t42.5 57.5t60.5 46.5q27 19 39.5 31t12.5 25v128q0 21 -13.5 35.5t-36.5 14.5t-37.5 -12.5t-14.5 -38.5q0 -11 4 -23q4 -14 4 -26q0 -13 -9 -22t-22 -9q-15 0 -24.5 12.5t-9.5 40.5q0 56 31.5 90t79.5 34
q46 0 76 -27t30 -79v-89q0 -27 11.5 -47t35.5 -48q23 -27 37 -48t24.5 -53.5t10.5 -75.5q0 -44 -24 -84t-64.5 -64.5t-86.5 -24.5t-86.5 24.5zM264.5 -246q26.5 18 42 47.5t15.5 61.5q0 47 -16.5 85.5t-38 61t-35.5 22.5q-16 0 -51.5 -23t-64 -61.5t-28.5 -84.5
q0 -32 16 -61.5t43 -47.5t58 -18q33 0 59.5 18z" />
    <glyph glyph-name="uni10D3" unicode="&#x10d3;" horiz-adv-x="532" 
d="M279.5 83q-37.5 39 -37.5 104q0 38 14 69q-16 14 -36.5 21.5t-42.5 7.5q-42 0 -65.5 -30.5t-23.5 -73.5q0 -64 32 -113t97 -95q58 -41 134 -114.5t102 -116.5q7 -12 7 -23t-8 -20t-22 -9q-17 0 -30 16l-21 27q-89 120 -135 153q-50 36 -91.5 55.5t-97.5 21.5
q-18 1 -26.5 10t-8.5 21q0 14 9 22.5t22 8.5q12 0 29.5 -6.5t22.5 -8.5q-73 70 -73 170q0 66 37 108.5t110 42.5q29 0 55 -11t46 -30q18 20 42.5 30.5t52.5 10.5q54 0 91.5 -39.5t37.5 -104.5t-37.5 -104t-91.5 -39q-56 0 -93.5 39zM321 259.5q-21 -25.5 -21 -72.5
q0 -46 21 -71.5t52 -25.5q29 0 50 26t21 71q0 46 -21 72t-50 26q-31 0 -52 -25.5z" />
    <glyph glyph-name="uni10D4" unicode="&#x10d4;" horiz-adv-x="369" 
d="M76 -272.5q-41 37.5 -41 102.5q0 35 13.5 60t40.5 25q12 0 20.5 -8.5t8.5 -21.5q0 -11 -11 -29q-14 -22 -14 -41q0 -34 23 -58.5t59 -24.5t61 23.5t25 72.5v358q0 40 -23 69t-67 29q-37 0 -60 -27t-23 -64q0 -12 4 -20t13 -20q9 -13 13.5 -21t4.5 -21q0 -12 -8.5 -20.5
t-21.5 -8.5q-24 0 -43.5 34.5t-19.5 69.5q0 63 40.5 103.5t100.5 40.5q64 0 106 -38.5t42 -105.5v-361q0 -65 -40.5 -100t-103.5 -35q-58 0 -99 37.5z" />
    <glyph glyph-name="uni10D5" unicode="&#x10d5;" horiz-adv-x="385" 
d="M80.5 -276q-43.5 34 -43.5 96q0 35 13 58.5t39 23.5q12 0 21 -9t9 -21q0 -11 -10 -27q-14 -20 -14 -39q0 -31 27 -50.5t64 -19.5q40 0 61 29.5t21 78.5v160q0 16 -10.5 24.5t-27.5 8.5q-9 0 -29 -4q-6 -1 -12.5 -2t-14.5 -1q-13 0 -21.5 9t-8.5 22t8.5 22t21.5 9
q7 0 14.5 -1.5t15.5 -1.5q40 0 61.5 29.5t21.5 75.5q0 39 -25.5 64.5t-73.5 25.5q-45 0 -77.5 -27.5t-32.5 -71.5q0 -10 4 -20t5 -12q9 -16 9 -29q0 -12 -9 -21t-21 -9q-17 0 -31 23q-15 26 -15 67q0 44 22.5 77t61 51t84.5 18q71 0 114 -35.5t43 -89.5q0 -55 -17.5 -91.5
t-59.5 -47.5v-4q29 -3 43.5 -20.5t14.5 -41.5v-164q0 -66 -38.5 -106t-101.5 -40q-62 0 -105.5 34z" />
    <glyph glyph-name="uni10D6" unicode="&#x10d6;" horiz-adv-x="529" 
d="M27.5 555.5q17.5 29.5 47.5 47t64 17.5q35 0 64.5 -17.5t47 -47t17.5 -63.5v-223q15 21 42 32t54 11q66 0 100.5 -45t34.5 -117q0 -69 -39 -114.5t-106 -45.5q-66 0 -105 45.5t-39 114.5v244q-25 -30 -82 -30q-27 0 -54.5 16t-45.5 45t-18 67q0 34 17.5 63.5zM88.5 431.5
q20.5 -21.5 50.5 -21.5t50.5 21.5t20.5 60.5t-20.5 60.5t-50.5 21.5t-50.5 -21.5t-20.5 -60.5t20.5 -60.5zM290 65q22 -29 64 -29q44 0 66.5 29t22.5 85q0 55 -21 85.5t-58 30.5q-43 0 -69.5 -30.5t-26.5 -85.5q0 -56 22 -85z" />
    <glyph glyph-name="uni10D7" unicode="&#x10d7;" horiz-adv-x="611" 
d="M109.5 13q-36.5 23 -58 62t-21.5 85t21.5 85t58.5 62t79 23q34 0 65.5 -15.5t53.5 -41.5h4q20 26 50 41.5t66 15.5q67 0 110 -46.5t43 -118.5q0 -84 -52 -150q-8 -11 -19 -18t-20 -7q-12 0 -19.5 8.5t-7.5 22.5q0 15 12 24q27 21 37.5 47.5t10.5 69.5q0 47 -25 84.5
t-70 37.5q-32 0 -56.5 -15t-38.5 -36q6 -13 10.5 -35.5t4.5 -37.5q0 -46 -21.5 -85t-58 -62t-79.5 -23t-79.5 23zM261.5 71q28.5 35 28.5 89t-29 89t-72 35t-72 -35t-29 -89t29 -89t72 -35q44 0 72.5 35z" />
    <glyph glyph-name="uni10D8" unicode="&#x10d8;" horiz-adv-x="374" 
d="M74 284.5q44 45.5 113 45.5t113 -45.5t44 -115.5q0 -56 -27 -104t-60 -70q-8 -5 -18 -5q-13 0 -21.5 9t-8.5 21q0 15 11 24q25 21 37.5 34.5t20.5 34.5t8 53q0 47 -26 82.5t-73 35.5t-73 -35.5t-26 -82.5q0 -32 8 -53t20.5 -34.5t37.5 -34.5q11 -9 11 -24q0 -12 -8.5 -21
t-21.5 -9q-10 0 -18 5q-33 22 -60 70t-27 104q0 70 44 115.5z" />
    <glyph glyph-name="uni10D9" unicode="&#x10d9;" horiz-adv-x="339" 
d="M33 -111q13 24 39 24q12 0 21 -9t9 -21q0 -7 -3 -14t-7 -14q-14 -20 -14 -40q0 -40 26 -59.5t65 -19.5q40 0 61 29.5t21 78.5v144q0 62 -48 62q-4 0 -20 -4q-20 -5 -26 -5q-13 0 -22.5 9t-9.5 22t9.5 22t22.5 9q5 0 20 -3.5t26 -3.5q15 0 27.5 20.5t12.5 58.5
q0 47 -19.5 71t-54.5 24q-13 0 -21.5 8.5t-8.5 21.5t8.5 21.5t21.5 8.5q58 0 94 -39t36 -102q0 -36 -14 -64.5t-39 -46.5v-3q26 0 44.5 -23.5t18.5 -59.5v-156q0 -66 -38.5 -106t-101.5 -40q-39 0 -73 17t-55 48.5t-21 73.5q0 36 13 60z" />
    <glyph glyph-name="uni10DA" unicode="&#x10da;" horiz-adv-x="699" 
d="M39 16.5q9 8.5 22 8.5q12 0 29.5 -6.5t22.5 -8.5q-41 40 -60.5 81.5t-19.5 94.5q0 61 33.5 102.5t94.5 41.5q28 0 53.5 -14.5t43.5 -37.5q13 25 37 38.5t54 13.5t55 -14t38 -38q13 20 41.5 36t58.5 16q25 0 55 -13.5t51.5 -44.5t21.5 -80q0 -46 -19.5 -90t-46.5 -44
q-11 0 -20 9t-9 22q0 9 5.5 17.5t6.5 10.5q12 16 18.5 32t6.5 43q0 42 -19.5 67t-50.5 25q-30 0 -51 -20.5t-21 -47.5l2 -74q0 -13 -8.5 -22t-21.5 -9t-22.5 9t-9.5 22l2 74q0 27 -18.5 47.5t-44.5 20.5t-44.5 -20.5t-18.5 -47.5l2 -74q0 -13 -8.5 -22t-21.5 -9t-22.5 9
t-9.5 22q0 11 1 21t1 20q0 46 -14.5 73.5t-52.5 27.5q-34 0 -52 -28t-18 -75q0 -69 34.5 -114.5t101.5 -93.5q58 -41 134 -114.5t102 -116.5q7 -12 7 -23t-8 -20t-22 -9q-17 0 -30 16l-21 27q-89 120 -135 153q-50 36 -91.5 55.5t-97.5 21.5q-18 1 -26.5 10t-8.5 21
q0 14 9 22.5z" />
    <glyph glyph-name="uni10DB" unicode="&#x10db;" horiz-adv-x="383" 
d="M83 35.5q-39 45.5 -39 114.5q0 70 39 116t106 46q51 0 84 -33h2v180q0 60 -30 88t-76 28q-43 0 -72 -26t-29 -73q0 -14 3.5 -23t10.5 -19q4 -5 7 -10.5t3 -12.5q0 -13 -9 -22t-22 -9q-24 0 -37.5 31.5t-13.5 64.5q0 39 21 72.5t57.5 53t80.5 19.5q70 0 117 -39t47 -113
v-319q0 -69 -39 -114.5t-105 -45.5q-67 0 -106 45.5zM253 65q22 29 22 85t-22.5 86t-63.5 30q-43 0 -66 -30t-23 -86t22.5 -85t66.5 -29q42 0 64 29z" />
    <glyph glyph-name="uni10DC" unicode="&#x10dc;" horiz-adv-x="391" 
d="M89 35.5q-39 45.5 -39 114.5v373q0 90 94 90q14 0 40 -2t46 -2q26 0 77 7q34 4 41 4q16 0 24.5 -9.5t8.5 -21.5t-9.5 -21.5t-23.5 -9.5q-29 0 -124 5q-18 1 -38 2t-39 1q-22 0 -30.5 -10t-8.5 -32v-245h2q33 33 84 33q67 0 106 -46t39 -116q0 -69 -39 -114.5t-106 -45.5
q-66 0 -105 45.5zM260.5 65q22.5 29 22.5 85t-23 86t-66 30q-41 0 -63.5 -30t-22.5 -86t22 -85t64 -29q44 0 66.5 29z" />
    <glyph glyph-name="uni10DD" unicode="&#x10dd;" horiz-adv-x="578" 
d="M51 255.5q21 36.5 54 55.5t68 19q38 0 70 -16.5t45 -49.5h2q13 33 45 49.5t70 16.5q35 0 68 -19t54 -55.5t21 -84.5q0 -43 -14 -76.5t-39 -63.5q-13 -16 -30 -28.5t-30 -12.5q-10 0 -17.5 8t-7.5 18q0 9 4 14.5t15 14.5q9 6 20 17q20 20 30.5 47.5t10.5 56.5
q0 51 -25.5 84.5t-67.5 33.5q-37 0 -60 -21.5t-23 -52.5q0 -14 3 -26q3 -24 3 -29q0 -40 -31 -40t-31 40q0 5 3 29q3 12 3 26q0 31 -23 52.5t-60 21.5q-42 0 -67.5 -33.5t-25.5 -84.5q0 -29 10.5 -56.5t30.5 -47.5q11 -11 20 -17q11 -9 15 -14.5t4 -14.5q0 -10 -7.5 -18
t-17.5 -8q-13 0 -30 12.5t-30 28.5q-25 30 -39 63.5t-14 76.5q0 48 21 84.5z" />
    <glyph glyph-name="uni10DE" unicode="&#x10de;" horiz-adv-x="347" 
d="M39.5 159q9.5 8 21.5 8q13 0 22 -8t9 -19q0 -49 18 -76.5t65 -27.5q38 0 61 30t23 87q0 45 -6 68.5t-22.5 33.5t-48.5 10q-9 0 -17 -1.5t-11 -1.5q-16 -4 -31 -4q-17 0 -26 8.5t-9 22.5q0 13 9 22t26 9q13 0 29 -4q13 -5 30 -5q31 0 48 19.5t17 52.5q0 27 -18.5 44.5
t-57.5 41.5q-6 4 -22.5 14t-27.5 20q-26 22 -26 82q0 18 9 26.5t22 8.5q12 0 21.5 -7t9.5 -20q0 -8 -2 -18.5t-2 -16.5q0 -11 6.5 -20t25.5 -21q58 -35 71.5 -44.5t24.5 -22.5q24 -30 24 -64q0 -28 -15.5 -58t-39.5 -39q37 -15 52 -51t15 -91q0 -73 -37.5 -115t-104.5 -42
q-48 0 -81.5 20t-45.5 46q-11 22 -14.5 39.5t-3.5 43.5q0 12 9.5 20z" />
    <glyph glyph-name="uni10DF" unicode="&#x10df;" 
d="M343 234q4 -254 4 -379q0 -75 -35.5 -120t-105.5 -45q-65 0 -101 34t-36 90q0 37 7 57.5t28 20.5q29 0 29 -32q0 -13 -3 -23q-3 -27 -3 -35q0 -33 24 -49.5t55 -16.5q83 0 83 121l-5 445l-102 -66q33 -38 42.5 -62.5t9.5 -48.5q0 -37 -28.5 -63.5t-75.5 -26.5
q-46 0 -78 28.5t-32 67.5q0 16 7.5 24.5t19.5 8.5q10 0 18.5 -6t9.5 -20q1 -27 17 -42t38 -15q18 0 32 14.5t14 40.5q0 21 -10.5 39t-31.5 39q-9 9 -9 22q0 16 14 26l145 97q-1 19 -1 56q0 16 7.5 25t21.5 9t21.5 -9t7.5 -25q2 -118 2 -181z" />
    <glyph glyph-name="uni10E0" unicode="&#x10e0;" horiz-adv-x="578" 
d="M188 330q30 0 60 -18t41 -48q11 31 45 48.5t71 17.5q36 0 69 -17t53.5 -50.5t20.5 -81.5q0 -44 -14.5 -82.5t-38.5 -67.5q-13 -16 -30 -28.5t-30 -12.5q-10 0 -17.5 8t-7.5 18q0 9 4 14.5t15 14.5q9 6 20 17q19 19 30 51.5t11 62.5q0 50 -25 79t-68 29q-36 0 -59.5 -26
t-23.5 -58q0 -14 3 -26q3 -24 3 -29q0 -40 -31 -40t-31 40q0 5 3 29q3 12 3 26q0 38 -24.5 61t-58.5 23q-43 0 -68 -29t-25 -79q0 -30 11 -62.5t30 -51.5q11 -11 20 -17q11 -9 15 -14.5t4 -14.5q0 -10 -7.5 -18t-17.5 -8q-13 0 -30 12.5t-30 28.5q-24 29 -38.5 67.5
t-14.5 82.5q0 50 23 91t68 85l208 205h-63q-12 0 -20.5 8.5t-8.5 20.5t8.5 20.5t20.5 8.5h119q11 0 20 -8.5t9 -20.5q0 -10 -5.5 -18t-25.5 -27l-238 -225q17 9 43 9z" />
    <glyph glyph-name="uni10E1" unicode="&#x10e1;" horiz-adv-x="389" 
d="M8.5 611.5q8.5 8.5 20.5 8.5h82q12 0 20.5 -8.5t8.5 -20.5v-470q0 -43 24 -64t54 -21q29 0 54.5 21.5t25.5 63.5q0 40 -18 90q-5 14 -8.5 28t-3.5 26q0 25 19 46t41 21q13 0 22 -9.5t9 -21.5q0 -10 -4.5 -16.5t-13.5 -13.5q-8 -6 -11.5 -10t-3.5 -11q0 -15 12 -41
q9 -25 13.5 -41t4.5 -35q0 -60 -36 -101.5t-102 -41.5q-35 0 -66 15t-50.5 43.5t-19.5 65.5v448h-53q-12 0 -20.5 8.5t-8.5 20.5t8.5 20.5z" />
    <glyph glyph-name="uni10E2" unicode="&#x10e2;" horiz-adv-x="640" 
d="M505 241.5q52 -42.5 78.5 -105.5t26.5 -136q0 -91 -34 -161t-99.5 -109.5t-156.5 -39.5t-156.5 39.5t-99.5 109.5t-34 161q0 65 14 126.5t51 122.5q15 25 37 25q11 0 20 -7.5t9 -18.5q0 -13 -8 -27q-39 -69 -52 -111.5t-13 -109.5q0 -76 29 -136t81.5 -94t121.5 -34
t121.5 34t81.5 94t29 136q0 79 -34 142.5t-94 94.5q12 -29 12 -59q0 -52 -33 -84.5t-81 -32.5t-81 32.5t-33 84.5q0 44 18.5 74.5t38.5 45.5q-27 20 -38.5 43.5t-11.5 62.5q0 24 14 46.5t38.5 36.5t54.5 14t54.5 -14t38.5 -36.5t14 -46.5q0 -39 -11.5 -62.5t-38.5 -43.5
q74 -14 126 -56.5zM285.5 436q-12.5 -19 -12.5 -51q0 -34 12.5 -54t36.5 -20q25 0 37 20t12 54q0 33 -12 51.5t-37 18.5q-24 0 -36.5 -19zM362.5 241q-15.5 20 -40.5 20t-40.5 -20t-15.5 -54q0 -35 15.5 -55t40.5 -20t40.5 20t15.5 55q0 34 -15.5 54z" />
    <glyph glyph-name="uni10E3" unicode="&#x10e3;" horiz-adv-x="508" 
d="M12.5 342.5q12.5 17.5 35.5 17.5q13 0 22 -9t9 -22q0 -14 -13 -27q-1 -1 -5.5 -6.5t-4.5 -11.5q0 -7 5 -12t12 -5q13 0 27.5 7t35.5 20q30 18 50 27t44 9q22 0 39 -11.5t21 -30.5q13 19 35 29.5t50 10.5q44 0 68.5 -29t24.5 -78v-394q0 -33 -17.5 -64.5t-52.5 -52
t-86 -20.5q-77 0 -117 44.5t-40 115.5q0 34 11 58.5t33 24.5q13 0 22 -9t9 -22q0 -8 -7 -24q-1 -4 -5.5 -17t-4.5 -28q0 -40 29 -68.5t70 -28.5q40 0 69 28.5t29 68.5v379q0 34 -12 52t-34 18q-25 0 -40 -18.5t-15 -53.5q0 -30 4 -56q2 -18 2 -26q0 -40 -31 -40t-31 40
q0 8 2 26q4 26 4 56q0 40 -5 57t-23 17q-14 0 -28 -6.5t-28 -16t-21 -13.5q-44 -27 -81 -27q-36 0 -54.5 22t-18.5 56q0 26 12.5 43.5z" />
    <glyph glyph-name="uni10E4" unicode="&#x10e4;" horiz-adv-x="561" 
d="M494.5 70.5q11.5 -19.5 11.5 -65.5v-178q0 -33 -17.5 -64.5t-52.5 -52t-86 -20.5q-77 0 -117 44.5t-40 115.5q0 34 11 58.5t33 24.5q13 0 22 -9t9 -22q0 -8 -7 -24q-1 -4 -5.5 -17t-4.5 -28q0 -40 29 -68.5t70 -28.5q40 0 69 28.5t29 68.5v197q0 26 -6.5 35t-31.5 9
q-9 0 -15 -1t-13 -1q-9 0 -17 7.5t-8 17.5t8 17.5t17 7.5q7 0 14.5 -1t15.5 -1q26 1 43.5 24t17.5 62q0 32 -19 55t-49 23q-26 0 -48 -13.5t-42 -35.5q5 -22 5 -40q0 -40 -20 -73t-53.5 -52.5t-71.5 -19.5t-71.5 19.5t-53.5 53t-20 72.5q0 43 20 76t53.5 51t71.5 18
q37 0 69 -16t51 -45q26 27 52 39t58 12q52 0 89 -33t37 -88q0 -44 -18 -68.5t-59 -44.5q29 -6 40.5 -25.5zM236 125.5q26 29.5 26 69.5q0 45 -25.5 72t-61.5 27q-35 0 -61 -27t-26 -72q0 -40 26 -69.5t61 -29.5t61 29.5z" />
    <glyph glyph-name="uni10E5" unicode="&#x10e5;" horiz-adv-x="383" 
d="M334.5 627q8.5 -9 8.5 -26q0 -1 -2 -15q-8 -57 -8 -105v-635q0 -68 -43 -111t-111 -43t-108.5 40t-40.5 105q0 31 12.5 54t32.5 23q25 0 25 -28q0 -7 -7 -21.5t-7 -33.5q0 -43 28 -64.5t65 -21.5q36 0 65.5 25.5t29.5 71.5l4 393q-16 21 -40.5 35t-46.5 14
q-29 0 -47.5 -17.5t-18.5 -39.5q0 -12 3.5 -19t11.5 -17q7 -10 10.5 -16t3.5 -16q0 -14 -9 -21t-22 -7q-24 0 -40 25.5t-16 56.5q0 48 33 82.5t82 34.5q29 0 53.5 -11t42.5 -29l3 247l-56 -41q-7 -5 -18 -5q-9 0 -17.5 7.5t-8.5 20.5q0 16 16 27l36 24q27 18 43 43
q14 23 35 23q15 0 23.5 -9z" />
    <glyph glyph-name="uni10E6" unicode="&#x10e6;" horiz-adv-x="546" 
d="M39 16.5q9 8.5 22 8.5q12 0 29.5 -6.5t22.5 -8.5q-41 40 -60.5 86t-19.5 109q0 51 32.5 88t92.5 37q36 0 67 -16t43 -42q12 26 43.5 42.5t65.5 16.5q42 0 73.5 -18t48.5 -47t17 -61q0 -34 -11 -66.5t-30 -53.5t-42 -21q-13 0 -21.5 8.5t-8.5 24.5q0 9 4.5 15.5t15.5 16.5
q17 15 26 30.5t9 43.5q0 31 -22 56.5t-59 25.5q-38 0 -61.5 -24t-23.5 -73q0 -9 1 -17t2 -14q3 -16 3 -31q0 -12 -6.5 -23t-23.5 -11t-24.5 11t-7.5 23q0 9 4 31q1 6 2 14t1 17q0 50 -21.5 73t-63.5 23q-30 0 -48.5 -25t-18.5 -56q0 -81 35 -132t101 -98q58 -41 134 -114.5
t102 -116.5q7 -12 7 -23t-8 -20t-22 -9q-17 0 -30 16l-21 27q-89 120 -135 153q-50 36 -91.5 55.5t-97.5 21.5q-18 1 -26.5 10t-8.5 21q0 14 9 22.5z" />
    <glyph glyph-name="uni10E7" unicode="&#x10e7;" horiz-adv-x="415" 
d="M46.5 295q18.5 39 48.5 39q12 0 21.5 -9.5t9.5 -21.5q0 -10 -4 -19.5t-13 -25.5q-11 -18 -17 -32.5t-6 -32.5q0 -24 15 -40t35 -16q21 0 36 16t16 40q3 57 26 96.5t67 39.5q45 0 70.5 -26.5t25.5 -81.5v-394q0 -33 -17.5 -64.5t-52.5 -52t-86 -20.5q-77 0 -117 44.5
t-40 115.5q0 34 11 58.5t33 24.5q13 0 22 -9t9 -22q0 -8 -7 -24q-1 -4 -5.5 -17t-4.5 -28q0 -40 29 -68.5t70 -28.5q40 0 69 28.5t29 68.5v355q0 53 -7.5 74t-30.5 21q-15 0 -22.5 -13t-10 -28.5t-5.5 -53.5q-4 -45 -30 -71t-71 -26q-51 0 -82.5 34t-31.5 80q0 51 18.5 90z
" />
    <glyph glyph-name="uni10E8" unicode="&#x10e8;" horiz-adv-x="477" 
d="M38 586.5q38 33.5 90 33.5q34 0 55 -10t38 -36q18 26 43.5 36t61.5 10q42 0 71.5 -29t29.5 -82v-359q0 -69 -39 -114.5t-105 -45.5q-67 0 -106 45.5t-39 114.5q0 70 39 116t106 46q51 0 84 -33h2v207q0 39 -13.5 63.5t-45.5 24.5q-29 0 -48 -21.5t-19 -59.5v-4
q0 -14 3 -26q3 -24 3 -29q0 -40 -31 -40t-31 40q0 5 3 29q3 12 3 26v4q0 82 -69 82q-27 0 -46.5 -23.5t-19.5 -52.5q0 -11 4 -17.5t5 -8.5q9 -13 9 -25q0 -13 -9 -22t-22 -9q-24 0 -34.5 24.5t-10.5 58.5q0 53 38 86.5zM216.5 65q22.5 -29 66.5 -29q42 0 64 29t22 85
t-22.5 86t-63.5 30q-43 0 -66 -30t-23 -86t22.5 -85z" />
    <glyph glyph-name="uni10E9" unicode="&#x10e9;" horiz-adv-x="366" 
d="M54.5 -1q7.5 -9 23.5 -9q31 0 31 37q0 24 -3 52q-5 68 -5 98v43q36 65 98 65q39 0 61 -26t22 -63q0 -79 -39 -134q-16 -22 -16 -40q0 -14 9.5 -23t20.5 -9q13 0 24.5 9.5t20.5 28.5q20 42 29 75.5t9 74.5q0 65 -36 109t-100 44q-56 0 -102 -48q0 123 2 182q1 52 32 81
t75 29q30 0 51.5 -22t21.5 -52q0 -31 -23 -53.5t-58 -22.5q-14 0 -23.5 -8t-9.5 -21q0 -14 9.5 -23.5t29.5 -9.5q27 0 58.5 17.5t53 48t21.5 68.5q0 61 -39 92t-100 31q-76 0 -116 -44t-40 -121v-428q0 -19 7.5 -28z" />
    <glyph glyph-name="uni10EA" unicode="&#x10ea;" horiz-adv-x="543" 
d="M175 297q12 0 19 -7t7 -20q0 -17 -14 -29q-27 -23 -46.5 -46t-36.5 -72.5t-17 -125.5q0 -64 22.5 -124t66 -97.5t101.5 -37.5q93 0 137 60.5t44 165.5q0 32 -16 52t-49 20q-10 0 -30 -4t-25 -4q-13 0 -22 9t-9 22t9 22t22 9q4 0 24 -4q22 -4 31 -4q29 0 45.5 18.5
t16.5 49.5q0 25 -12.5 40.5t-38.5 33.5q-12 8 -31 24q-17 15 -27.5 35.5t-10.5 41.5q0 25 9.5 41.5t28.5 16.5q13 0 22 -9t9 -22q0 -8 -4 -17t-4 -18q0 -30 35 -48q44 -23 63 -50t19 -64q0 -31 -18 -57.5t-45 -38.5q36 -15 51 -47.5t15 -79.5q0 -105 -59 -172.5t-180 -67.5
q-81 0 -137 43t-83.5 112.5t-27.5 150.5q0 113 31.5 179.5t73.5 101.5q21 18 41 18z" />
    <glyph glyph-name="uni10EB" unicode="&#x10eb;" horiz-adv-x="375" 
d="M75 266q39 46 106 46q25 0 47.5 -9t38.5 -24v205q0 35 -23 54t-64 19q-13 0 -22 9t-9 22t9 22t22 9q68 0 106.5 -39.5t38.5 -108.5v-321q0 -69 -39 -114.5t-105 -45.5q-67 0 -106 45.5t-39 114.5q0 70 39 116zM114.5 65q22.5 -29 66.5 -29q42 0 64 29t22 85t-22.5 86
t-63.5 30q-43 0 -66 -30t-23 -86t22.5 -85z" />
    <glyph glyph-name="uni10EC" unicode="&#x10ec;" horiz-adv-x="501" 
d="M145 -300q-11 10 -14 32l-63 473q-4 34 -12 78q-2 14 -14 96t-12 111q0 57 32 93.5t80 36.5q36 0 59.5 -10.5t46.5 -39.5q32 50 104 50q27 0 55 -12t47.5 -40t19.5 -72q0 -21 -11.5 -51.5t-30 -52.5t-38.5 -22q-13 0 -22 9t-9 22q0 11 6 19.5t17 18.5q15 15 22.5 27
t7.5 31q0 29 -20 53t-52 24q-33 0 -51.5 -19.5t-18.5 -56.5q0 -13 2 -33q3 -16 3 -39q0 -13 -9 -22t-22 -9t-22 9t-9 22q0 10 4 32q5 22 5 40q0 35 -22 55.5t-49 20.5q-38 0 -55.5 -26.5t-17.5 -68.5q0 -20 10 -80q9 -54 19 -124h169q35 0 51.5 -15.5t16.5 -49.5
q0 -66 -38 -204t-103 -285q-14 -31 -38 -31q-13 0 -24 10zM255.5 9.5q36.5 124.5 36.5 183.5q0 16 -8.5 26t-25.5 10h-141l59 -441q43 97 79.5 221.5z" />
    <glyph glyph-name="uni10ED" unicode="&#x10ed;" horiz-adv-x="424" 
d="M39.5 -100.5q8.5 11.5 22.5 11.5q31 0 31 -47q0 -55 27.5 -91t75.5 -36t75.5 36t27.5 91q0 53 -17 80t-49 53q-28 23 -41.5 43.5t-13.5 57.5v11q-19 -6 -40 -6q-44 0 -78.5 29t-34.5 87q0 49 33.5 74.5t74.5 25.5q25 0 50 -14l1 95q0 19 -9.5 29.5t-35.5 27.5l-22 14
q-33 22 -45.5 39t-12.5 41v38q0 13 9 22t22 9t22 -9t9 -22q0 -8 -3 -22t-3 -20q0 -12 13 -22q22 -17 78 -52q18 -12 25.5 -25.5t7.5 -32.5v-4q-1 -50 -2 -84t-2 -58l-3 -99q61 26 83.5 59.5t22.5 99.5q0 27 -5 54q-3 11 -3 20q0 13 9 22t22 9q14 0 22 -9t9 -22q2 -34 2 -78
q0 -37 -9 -69t-32 -61q-22 -28 -49.5 -43.5t-71.5 -31.5v-11q0 -23 11 -38.5t36 -39.5q25 -23 40 -42t26.5 -50t11.5 -75q0 -78 -43.5 -125.5t-117.5 -47.5t-119.5 47.5t-45.5 125.5q0 24 8.5 35.5zM144 152q22 0 35 3l2 102q-15 15 -38 15q-60 0 -60 -59q0 -61 61 -61z" />
    <glyph glyph-name="uni10EE" unicode="&#x10ee;" horiz-adv-x="399" 
d="M8.5 611.5q8.5 8.5 20.5 8.5h82q12 0 20.5 -8.5t8.5 -20.5v-322q16 23 48 36q24 11 40 31q6 8 10.5 17l6.5 13q3 11 10 22q14 25 36 25q12 0 19 -9t7 -22q0 -28 -54 -75q50 -13 79 -55.5t29 -101.5q0 -69 -39 -114.5t-106 -45.5q-66 0 -105 45.5t-39 114.5v412h-53
q-12 0 -20.5 8.5t-8.5 20.5t8.5 20.5zM162 65q22 -29 64 -29q44 0 66.5 29t22.5 85t-23 86t-66 30q-41 0 -63.5 -30t-22.5 -86t22 -85z" />
    <glyph glyph-name="uni10EF" unicode="&#x10ef;" horiz-adv-x="550" 
d="M533 -173q0 -42 -25.5 -66.5t-70.5 -24.5q-36 0 -59 16.5t-35 56.5q-19 66 -55 198l-146 -131q32 -12 51.5 -32t19.5 -59q0 -40 -30 -67.5t-69 -27.5q-40 0 -68 15.5t-28 37.5q0 13 9 22t22 9q11 0 17.5 -4.5t14.5 -13.5q8 -10 15 -15t20 -5q20 0 29.5 14.5t9.5 33.5
q0 30 -17.5 40.5t-37.5 10.5q-13 0 -22 9t-9 22q0 17 14 28l190 166q-14 50 -46 150q-13 38 -26 55.5t-43 17.5q-24 0 -40 -17t-16 -47q0 -18 7.5 -28.5t23.5 -24.5q13 -11 19 -19t6 -20q0 -13 -9.5 -22t-21.5 -9q-19 0 -38.5 16t-32 42.5t-12.5 55.5q0 50 33.5 84.5
t84.5 34.5q41 0 67 -15.5t38 -55.5q32 -108 47 -162l122 107q11 9 21 23t10 25q0 7 -4.5 13t-12.5 6q-5 0 -13.5 -2t-19.5 -2q-13 0 -22 9.5t-9 21.5q0 13 9 22t22 9h37q31 0 51 -21.5t20 -54.5q0 -31 -19 -49l-177 -159q40 -136 74 -239q8 -23 36 -23q15 0 25.5 10t10.5 25
q0 16 -13 35q-5 8 -9 17.5t-4 19.5q0 13 8.5 22t21.5 9q20 0 32 -24q22 -42 22 -69z" />
    <glyph glyph-name="uni10F0" unicode="&#x10f0;" horiz-adv-x="359" 
d="M331 -11q0 -66 -42 -102t-112 -36q-74 0 -115.5 43t-41.5 111q0 12 9 21t21 9q13 0 22 -9t9 -21q0 -34 19.5 -71t79.5 -37q40 0 66.5 26t26.5 63q0 38 -14 63.5t-37 25.5q-11 0 -41 -5q-5 -1 -11 -2t-13 -1q-12 0 -21 9t-9 22q0 12 9 21t21 9q11 0 24 -3q24 -4 41 -4
q22 0 36.5 15.5t14.5 39.5q0 23 -16.5 39t-39.5 16q-12 0 -40 -5q-5 -1 -11 -2t-13 -1q-12 0 -21 9t-9 22q0 12 9 21t21 9q10 0 24 -3q22 -4 40 -4q21 0 37.5 15t16.5 36q0 19 -16.5 34.5t-37.5 15.5q-12 0 -40 -5q-5 -1 -11 -2t-13 -1q-12 0 -21 9t-9 22q0 12 9 21t21 9
q10 0 24 -3q22 -4 40 -4q20 0 30.5 9t10.5 25q0 27 -30.5 47t-106.5 53q-8 3 -14 11.5t-6 20.5t9 21t21 9q29 0 77.5 -33.5t80.5 -65.5q27 -27 27 -55q0 -31 -32 -65q45 -33 45 -73q0 -45 -42 -74q18 -10 31 -32.5t13 -45.5q0 -25 -11.5 -46.5t-32.5 -31.5q44 -37 44 -109z
" />
    <glyph glyph-name="uni10F1" unicode="&#x10f1;" horiz-adv-x="514" 
d="M40 281q0 144 62 245q22 37 56 58t69 21q37 0 62.5 -23.5t25.5 -60.5q0 -48 -38 -99q-33 -45 -75 -65.5t-101 -28.5q-3 -33 -3 -65q0 -86 26.5 -178.5t71.5 -153.5t98 -61q28 0 51.5 18.5t36.5 47.5t13 58q0 38 -17.5 67t-55.5 29q-15 0 -24 9.5t-9 21.5q0 13 10.5 21.5
t23.5 8.5q4 0 20 -4q25 -5 27 -5q33 0 55.5 26t22.5 60q0 48 -23 71t-77 23q-12 0 -20.5 9.5t-8.5 22.5q0 12 10 20t23 8q6 0 18.5 -4t21.5 -4q19 0 30.5 12.5t11.5 35.5q0 14 -5 27t-14 31q-10 20 -15 34t-5 31q0 24 15.5 49.5t43.5 25.5q13 0 22 -9t9 -22q0 -6 -4.5 -13
t-9.5 -13q-18 -20 -18 -34q0 -13 4.5 -24.5t14.5 -27.5t15 -29t5 -28q0 -23 -13 -44.5t-46 -29.5q32 -24 47 -52t15 -64q0 -49 -26 -81.5t-73 -40.5q23 -15 36 -45.5t13 -68.5q0 -49 -20 -89t-56 -63t-82 -23q-63 0 -120.5 59t-88.5 162q-38 130 -38 241zM227 439
q15 16 24.5 34t9.5 34q0 18 -14 30.5t-32 12.5q-37 0 -71 -53q-16 -25 -25 -55t-16 -74q64 8 124 71z" />
    <glyph glyph-name="uni10F2" unicode="&#x10f2;" horiz-adv-x="440" 
d="M421.5 43.5q8.5 -8.5 8.5 -22.5q0 -13 -8.5 -22t-22.5 -9q-93 0 -179 42q-86 -42 -179 -42q-13 0 -22 9t-9 22q0 14 9 22.5t22 8.5q62 0 121 17q-36 29 -56 62t-20 68q0 36 18 66t48.5 47.5t67.5 17.5t67.5 -17.5t48.5 -47.5t18 -66q0 -35 -20 -68t-56 -62
q59 -17 121 -17q14 0 22.5 -8.5zM220 92q76 42 76 106q0 42 -21.5 64t-54.5 22t-54.5 -22t-21.5 -64q0 -64 76 -106z" />
    <glyph glyph-name="uni10F3" unicode="&#x10f3;" horiz-adv-x="413" 
d="M19 325q9 9 22 9l33 -2q50 -6 96 -6q67 0 157 9l25 2q13 0 22 -9t9 -22q0 -24 -47 -84.5t-129 -157.5l-46 -54q56 -3 89 -34.5t33 -82.5q0 -45 -26 -88.5t-64.5 -71.5t-70.5 -28q-13 0 -22 9t-9 22q0 17 15 27l26 16q31 19 48 32t28.5 32t11.5 46q0 26 -17 43t-39 18
q-31 1 -49.5 14t-18.5 34q0 23 34.5 67t95.5 110q43 47 63 70.5t25 36.5q-88 -12 -191 -12q-54 0 -82 2q-13 1 -22 9.5t-9 21.5t9 22z" />
    <glyph glyph-name="Wgrave" unicode="&#x1e80;" horiz-adv-x="630" 
d="M255 757q6 7 13 7q3 0 7 -2l89 -49q9 -4 9 -15q0 -9 -6.5 -15.5t-14.5 -6.5q-4 0 -8 2l-85 46q-10 4 -10 18q0 8 6 15zM27.5 578.5q9.5 6.5 20.5 6.5q16 0 21 -14l138 -491l80 298q5 19 28 19q21 0 27 -19l80 -298l139 491q3 14 21 14q11 0 20.5 -6.5t9.5 -15.5
q0 -5 -1 -6l-157 -543q-6 -19 -32 -19t-31 19l-76 283l-76 -283q-5 -19 -31 -19t-32 19l-158 543v6q0 9 9.5 15.5z" />
    <glyph glyph-name="wgrave" unicode="&#x1e81;" horiz-adv-x="534" 
d="M204 554q6 7 14 7q3 0 7 -3l89 -48q8 -5 8 -15q0 -9 -6 -15.5t-14 -6.5q-4 0 -8 2l-85 46q-11 5 -11 17q0 9 6 16zM21.5 373q9.5 7 21.5 7q14 0 19 -12l102 -285l82 260q5 14 21 14q18 0 21 -14l79 -263l105 288q3 12 18 12q12 0 21.5 -7t9.5 -16q0 -7 -3 -12l-125 -339
q-4 -12 -21 -12q-16 0 -22 12l-83 260l-82 -256q-4 -16 -23 -16q-18 0 -22 16l-125 335q-3 6 -3 12q0 9 9.5 16z" />
    <glyph glyph-name="Wacute" unicode="&#x1e82;" horiz-adv-x="630" 
d="M266 713l89 49q4 2 7 2q9 0 14 -6.5t5 -15.5q0 -14 -10 -18l-85 -46l-8 -2q-8 0 -14.5 6.5t-6.5 15.5q0 11 9 15zM27.5 578.5q9.5 6.5 20.5 6.5q16 0 21 -14l138 -491l80 298q5 19 28 19q21 0 27 -19l80 -298l139 491q3 14 21 14q11 0 20.5 -6.5t9.5 -15.5q0 -5 -1 -6
l-157 -543q-6 -19 -32 -19t-31 19l-76 283l-76 -283q-5 -19 -31 -19t-32 19l-158 543v6q0 9 9.5 15.5z" />
    <glyph glyph-name="wacute" unicode="&#x1e83;" horiz-adv-x="534" 
d="M219 510l90 48q2 3 6 3q9 0 14 -7t5 -16q0 -12 -9 -17l-86 -46q-4 -2 -8 -2q-8 0 -14.5 6.5t-6.5 15.5q0 10 9 15zM21.5 373q9.5 7 21.5 7q14 0 19 -12l102 -285l82 260q5 14 21 14q18 0 21 -14l79 -263l105 288q3 12 18 12q12 0 21.5 -7t9.5 -16q0 -7 -3 -12l-125 -339
q-4 -12 -21 -12q-16 0 -22 12l-83 260l-82 -256q-4 -16 -23 -16q-18 0 -22 16l-125 335q-3 6 -3 12q0 9 9.5 16z" />
    <glyph glyph-name="Wdieresis" unicode="&#x1e84;" horiz-adv-x="630" 
d="M244.5 728q8.5 8 21.5 8q12 0 20 -8t8 -21q0 -12 -8 -20.5t-20 -8.5q-13 0 -21.5 8.5t-8.5 20.5q0 13 8.5 21zM342.5 728q8.5 8 21.5 8t21 -8t8 -21q0 -12 -8.5 -20.5t-20.5 -8.5q-13 0 -21.5 8.5t-8.5 20.5q0 13 8.5 21zM27.5 578.5q9.5 6.5 20.5 6.5q16 0 21 -14
l138 -491l80 298q5 19 28 19q21 0 27 -19l80 -298l139 491q3 14 21 14q11 0 20.5 -6.5t9.5 -15.5q0 -5 -1 -6l-157 -543q-6 -19 -32 -19t-31 19l-76 283l-76 -283q-5 -19 -31 -19t-32 19l-158 543v6q0 9 9.5 15.5z" />
    <glyph glyph-name="wdieresis" unicode="&#x1e85;" horiz-adv-x="534" 
d="M196.5 525q8.5 8 21.5 8q12 0 20 -8t8 -21q0 -12 -8 -21t-20 -9q-13 0 -21.5 9t-8.5 21q0 13 8.5 21zM294.5 525q8.5 8 21.5 8t21 -8t8 -21q0 -12 -8.5 -21t-20.5 -9q-13 0 -21.5 9t-8.5 21q0 13 8.5 21zM21.5 373q9.5 7 21.5 7q14 0 19 -12l102 -285l82 260q5 14 21 14
q18 0 21 -14l79 -263l105 288q3 12 18 12q12 0 21.5 -7t9.5 -16q0 -7 -3 -12l-125 -339q-4 -12 -21 -12q-16 0 -22 12l-83 260l-82 -256q-4 -16 -23 -16q-18 0 -22 16l-125 335q-3 6 -3 12q0 9 9.5 16z" />
    <glyph glyph-name="Ygrave" unicode="&#x1ef2;" horiz-adv-x="425" 
d="M152 757q6 7 14 7q1 0 7 -2l89 -49q8 -5 8 -15q0 -9 -6 -15.5t-14 -6.5q-4 0 -8 2l-85 46q-11 5 -11 18q0 8 6 15zM24 578q9 7 20 7t21 -16l147 -292l148 292q10 16 21 16q10 0 19.5 -7t9.5 -16q0 -7 -4 -14l-166 -318l-2 -6v-203q0 -10 -7.5 -15.5t-18.5 -5.5t-18.5 6
t-7.5 15v203q0 5 -1 6l-166 318q-4 10 -4 14q0 9 9 16z" />
    <glyph glyph-name="ygrave" unicode="&#x1ef3;" horiz-adv-x="336" 
d="M105 553.5q6 7.5 13 7.5q4 0 8 -3l88 -48q9 -4 9 -15q0 -9 -6.5 -15.5t-14.5 -6.5l-8 2l-84 46q-11 4 -11 17q0 8 6 15.5zM21 375.5q10 7.5 22 7.5q14 0 19 -11l109 -294l103 294q6 11 18 11q11 0 21.5 -8t10.5 -17q0 -5 -2 -7l-124 -336l-14 -39q-2 -4 -14.5 -34
t-20.5 -43l-21 -32q-13 -18 -25 -27.5t-31 -17.5t-36 -8q-24 0 -24 24t16 24q36 0 67.5 43.5t48.5 110.5l-130 335q-3 5 -3 7q0 10 10 17.5z" />
    <glyph glyph-name="endash" unicode="&#x2013;" horiz-adv-x="378" 
d="M47.5 209.5q5.5 6.5 14.5 6.5h256q8 0 14 -7t6 -17q0 -9 -6 -15.5t-14 -6.5h-256q-20 0 -20 22q0 11 5.5 17.5z" />
    <glyph glyph-name="emdash" unicode="&#x2014;" horiz-adv-x="603" 
d="M47.5 209.5q5.5 6.5 14.5 6.5h480q8 0 14 -7t6 -17q0 -9 -6 -15.5t-14 -6.5h-480q-20 0 -20 22q0 11 5.5 17.5z" />
    <glyph glyph-name="quoteleft" unicode="&#x2018;" horiz-adv-x="128" 
d="M58 583q6 10 15 10q7 0 13 -5t6 -12q0 -5 -1 -6l-16 -42q24 -9 24 -34q0 -16 -11 -27t-26 -11t-25.5 11t-10.5 26q0 21 32 90z" />
    <glyph glyph-name="quoteright" unicode="&#x2019;" horiz-adv-x="126" 
d="M40 582q11 11 26 11t25.5 -11t10.5 -26q0 -20 -32 -90q-4 -10 -14 -10q-8 0 -14 5t-6 12q0 3 2 7l16 42q-12 4 -18.5 13t-6.5 21q0 15 11 26z" />
    <glyph glyph-name="quotesinglbase" unicode="&#x201a;" horiz-adv-x="137" 
d="M42.5 59.5q10.5 10.5 26.5 10.5q14 0 25 -11t11 -26q0 -21 -32 -91q-4 -9 -15 -9q-7 0 -13.5 5t-6.5 12l2 6l16 42q-24 9 -24 34q0 17 10.5 27.5z" />
    <glyph glyph-name="quotedblleft" unicode="&#x201c;" horiz-adv-x="249" 
d="M59 583q4 10 15 10q7 0 13 -5t6 -12q0 -4 -2 -6l-15 -42q24 -9 24 -34q0 -16 -11 -27t-26 -11t-26 11t-11 26q0 16 33 90zM179 583q4 10 15 10q7 0 13.5 -5t6.5 -12l-2 -6l-16 -42q24 -9 24 -34q0 -17 -10.5 -27.5t-26.5 -10.5q-14 0 -25 11t-11 26q0 21 32 90z" />
    <glyph glyph-name="quotedblright" unicode="&#x201d;" horiz-adv-x="247" 
d="M40.5 582q10.5 11 25.5 11t26 -11t11 -26q0 -18 -33 -90q-3 -10 -14 -10q-8 0 -13.5 5t-5.5 12l1 7l16 42q-24 8 -24 34q0 15 10.5 26zM160.5 582q10.5 11 26.5 11q14 0 25 -11t11 -26q0 -23 -32 -90q-4 -10 -14 -10q-8 0 -14 5t-6 12l1 7l16 42q-24 8 -24 34
q0 15 10.5 26z" />
    <glyph glyph-name="quotedblbase" unicode="&#x201e;" horiz-adv-x="258" 
d="M42.5 59.5q10.5 10.5 26.5 10.5q14 0 25 -11t11 -26q0 -21 -32 -91q-4 -9 -15 -9q-7 0 -13.5 5t-6.5 12l2 6l16 42q-24 9 -24 34q0 17 10.5 27.5zM163 59q11 11 26 11t26 -11t11 -26q0 -10 -7.5 -30t-25.5 -61q-4 -9 -15 -9q-7 0 -13 5t-6 12q0 2 2 6l15 42q-24 9 -24 34
q0 16 11 27z" />
    <glyph glyph-name="dagger" unicode="&#x2020;" horiz-adv-x="331" 
d="M38 386l101 -4v184q0 8 7.5 13.5t19.5 5.5q9 0 17.5 -6t8.5 -13v-184l102 4q7 0 13.5 -7t6.5 -16t-6.5 -15t-13.5 -6l-102 4v-341q0 -8 -8.5 -15t-17.5 -7q-12 0 -19.5 6.5t-7.5 15.5v341l-101 -4q-20 0 -20 21q0 23 20 23z" />
    <glyph glyph-name="daggerdbl" unicode="&#x2021;" horiz-adv-x="351" 
d="M47 170q-19 1 -19 23q0 21 19 22l102 -5v136l-102 -4q-19 0 -19 21q0 23 19 23l102 -4v184q0 7 8 13t18 6q11 0 19 -6t8 -13v-184l101 4q8 0 14.5 -6.5t6.5 -16.5q0 -9 -6.5 -15t-14.5 -6l-101 4v-136l101 5q9 -1 15 -7t6 -15t-6.5 -15.5t-14.5 -7.5l-101 5v-170
q0 -8 -8.5 -15t-18.5 -7t-18 6.5t-8 15.5v170z" />
    <glyph glyph-name="bullet" unicode="&#x2022;" horiz-adv-x="249" 
d="M65 298q26 25 60 25t59.5 -25t25.5 -58q0 -34 -25.5 -58.5t-59.5 -24.5q-35 0 -60.5 24.5t-25.5 58.5q0 33 26 58z" />
    <glyph glyph-name="ellipsis" unicode="&#x2026;" horiz-adv-x="426" 
d="M42.5 59.5q10.5 10.5 26.5 10.5q14 0 25 -11.5t11 -26.5q0 -14 -11 -25.5t-25 -11.5q-16 0 -26.5 11t-10.5 26q0 17 10.5 27.5zM188 59.5q10 10.5 26 10.5q15 0 25.5 -11.5t10.5 -26.5t-10.5 -26t-25.5 -11t-25.5 11t-10.5 26q0 17 10 27.5zM332.5 59q10.5 11 26.5 11
q14 0 25 -11.5t11 -26.5q0 -14 -11 -25.5t-25 -11.5q-16 0 -26.5 11t-10.5 26q0 16 10.5 27z" />
    <glyph glyph-name="perthousand" unicode="&#x2030;" horiz-adv-x="853" 
d="M135 8l305 598q3 9 16 9q8 0 15 -6t7 -15q0 -8 -2 -11l-303 -593q-6 -12 -19 -12q-8 0 -14.5 6t-6.5 14q0 4 2 10zM32 494q0 46 26 68.5t73 22.5t73 -22.5t26 -68.5v-122q0 -46 -26 -68.5t-73 -22.5t-73 22.5t-26 68.5v122zM73 372q0 -55 58 -55q59 0 59 55v122
q0 55 -59 55q-58 0 -58 -55v-122zM375 210q0 45 26.5 68.5t72.5 23.5t73 -23.5t27 -68.5v-121q0 -46 -26.5 -68.5t-73.5 -22.5t-73 22.5t-26 68.5v121zM625 210q0 45 26.5 68.5t72.5 23.5t72.5 -23.5t26.5 -68.5v-121q0 -46 -26 -68.5t-73 -22.5t-73 22.5t-26 68.5v121z
M416 89q0 -55 58 -55q60 0 60 55v121q0 56 -60 56q-58 0 -58 -56v-121zM666 89q0 -55 58 -55q59 0 59 55v121q0 56 -59 56q-58 0 -58 -56v-121z" />
    <glyph glyph-name="guilsinglleft" unicode="&#x2039;" horiz-adv-x="188" 
d="M36 244l71 131q4 10 19 10q11 0 20 -8.5t9 -17.5l-2 -9l-70 -128l70 -128l2 -9q0 -10 -9 -18t-21 -8t-18 10l-71 131q-8 13 -8 22t8 22z" />
    <glyph glyph-name="guilsinglright" unicode="&#x203a;" horiz-adv-x="188" 
d="M35 94l69 128l-69 128l-2 9q0 9 8.5 17.5t20.5 8.5q15 0 18 -10l71 -131q9 -18 9 -22q0 -7 -9 -22l-71 -131q-3 -10 -17 -10q-12 0 -21 8t-9 18z" />
    <glyph glyph-name="fraction" unicode="&#x2044;" horiz-adv-x="127" 
d="M-107 8l305 598q3 9 16 9q8 0 15 -6t7 -15q0 -5 -2 -11l-304 -593q-6 -12 -19 -12q-8 0 -14.5 6.5t-6.5 13.5q0 6 3 10z" />
    <glyph glyph-name="uni2070" unicode="&#x2070;" horiz-adv-x="272" 
d="M37 494q0 46 26 68.5t73 22.5t73 -22.5t26 -68.5v-122q0 -46 -26 -68.5t-73 -22.5t-73 22.5t-26 68.5v122zM78 372q0 -55 58 -55q59 0 59 55v122q0 55 -59 55q-58 0 -58 -55v-122z" />
    <glyph glyph-name="uni2074" unicode="&#x2074;" horiz-adv-x="230" 
d="M13 375l112 199q8 11 18 11q7 0 13.5 -5t6.5 -11q0 -1 -0.5 -2.5t-0.5 -4.5l-100 -172h77v61q0 14 20 14t20 -14v-61h24q6 0 10.5 -6t4.5 -14q0 -6 -5 -12t-10 -6h-24v-54q0 -15 -20 -15t-20 15v54h-114q-15 0 -15 15q0 4 3 8z" />
    <glyph glyph-name="uni2075" unicode="&#x2075;" horiz-adv-x="245" 
d="M43 372q20 0 20 -16q2 -39 56 -39q61 0 61 54v8q0 53 -58 53h-65q-19 0 -19 15q0 13 1 17l11 107q0 7 2.5 10.5t6.5 3.5h132q13 0 13 -19q0 -17 -13 -17h-107l-7 -84h45q47 0 73 -21.5t26 -64.5v-8q0 -44 -26.5 -67t-72.5 -23q-44 0 -72 20.5t-28 49.5q0 21 21 21z" />
    <glyph glyph-name="uni2076" unicode="&#x2076;" horiz-adv-x="263" 
d="M36 494q0 46 27 68.5t74 22.5q44 0 70.5 -21.5t26.5 -51.5q0 -18 -20 -18t-20 16q0 18 -17 28.5t-42 10.5q-59 0 -59 -55v-55q21 25 66 25q92 0 92 -84v-8q0 -46 -26 -68.5t-73 -22.5q-50 0 -74.5 25t-24.5 80v108zM76 370q0 -55 59 -55t59 55v8q0 53 -60 53
q-58 0 -58 -49v-12z" />
    <glyph glyph-name="uni2077" unicode="&#x2077;" horiz-adv-x="234" 
d="M21 571q0 5 5.5 9.5t12.5 4.5h162q7 0 12.5 -4.5t5.5 -9.5v-41q0 -7 -6 -21l-129 -220q-3 -7 -13 -7t-17.5 6t-7.5 14l2 8l131 215v24h-117v-41q0 -5 -6.5 -9.5t-14.5 -4.5t-14 4.5t-6 9.5v63z" />
    <glyph glyph-name="uni2078" unicode="&#x2078;" horiz-adv-x="256" 
d="M29 371q0 59 51 77q-42 15 -42 64q0 73 90 73t90 -73q0 -49 -42 -64q50 -18 50 -77v-5q0 -42 -26 -63.5t-72 -21.5t-72.5 21.5t-26.5 63.5v5zM78 508q0 -43 50 -43t50 43t-50 43t-50 -43zM70 370q0 -56 58 -56q59 0 59 56v7q0 53 -59 53q-58 0 -58 -53v-7z" />
    <glyph glyph-name="uni2079" unicode="&#x2079;" horiz-adv-x="264" 
d="M49 371q20 0 20 -16t17 -27t42 -11q60 0 60 55v54q-21 -24 -66 -24q-92 0 -92 84v8q0 46 26 68.5t73 22.5t72.5 -22.5t25.5 -68.5v-122q0 -91 -101 -91q-44 0 -70 21.5t-26 51.5q0 17 19 17zM70 488q0 -54 59 -54t59 51v11q0 55 -59 55t-59 -55v-8z" />
    <glyph glyph-name="uni2080" unicode="&#x2080;" horiz-adv-x="272" 
d="M37 210q0 45 26.5 68.5t72.5 23.5t72.5 -23.5t26.5 -68.5v-121q0 -46 -26 -68.5t-73 -22.5t-73 22.5t-26 68.5v121zM78 89q0 -55 58 -55q59 0 59 55v121q0 56 -59 56q-58 0 -58 -56v-121z" />
    <glyph glyph-name="uni2081" unicode="&#x2081;" horiz-adv-x="135" 
d="M22 254l44 43q5 5 12 5q17 0 17 -14v-274q0 -14 -19 -14q-21 0 -21 14v232l-17 -20q-3 -4 -9 -4q-5 0 -10 5t-5 11q0 10 8 16z" />
    <glyph glyph-name="uni2082" unicode="&#x2082;" horiz-adv-x="245" 
d="M26 54q0 20 22 42t54 41q32 18 54 39.5t22 41.5t-15 33t-41 13q-49 0 -49 -42q0 -6 -6 -11t-15 -5q-19 0 -19 23q0 31 26 52t64 21q41 0 68 -23.5t27 -58.5q0 -23 -14.5 -44.5t-38.5 -37.5q-18 -13 -44 -28q-53 -33 -53 -55v-19h138q6 0 10.5 -5.5t4.5 -12.5t-4.5 -12.5
t-10.5 -5.5h-161q-7 0 -13 4t-6 10v40z" />
    <glyph glyph-name="uni2083" unicode="&#x2083;" horiz-adv-x="250" 
d="M27.5 82.5q4.5 3.5 14.5 3.5q21 0 21 -14q0 -16 15.5 -27t43.5 -11q60 0 60 53v7q0 48 -60 48q-15 0 -15 16t15 16q26 0 38.5 10.5t12.5 36.5q0 45 -50 45q-52 0 -52 -36q0 -16 -19 -16q-13 0 -17 3.5t-4 14.5q0 29 23.5 49.5t69.5 20.5q88 0 88 -74q0 -53 -37 -69
q47 -15 47 -65v-7q0 -44 -26.5 -66.5t-73.5 -22.5q-46 0 -72.5 21t-26.5 51q0 9 4.5 12.5z" />
    <glyph glyph-name="uni2084" unicode="&#x2084;" horiz-adv-x="230" 
d="M13 92l112 198q8 12 18 12q7 0 13.5 -5t6.5 -11l-1 -7l-100 -173h77v62q0 13 20 13t20 -13v-62h24q7 0 11 -5.5t4 -13.5q0 -7 -5 -12.5t-10 -5.5h-24v-55q0 -14 -20 -14t-20 14v55h-114q-15 0 -15 15q0 4 3 8z" />
    <glyph glyph-name="uni2085" unicode="&#x2085;" horiz-adv-x="245" 
d="M43 89q20 0 20 -16q1 -39 56 -39q61 0 61 53v9q0 53 -58 53h-65q-19 0 -19 15q0 12 1 17l11 107q0 7 2.5 10.5t6.5 3.5h132q13 0 13 -19q0 -17 -13 -17h-107l-7 -84h45q46 0 72.5 -22t26.5 -64v-9q0 -44 -26.5 -66.5t-72.5 -22.5q-44 0 -72 20.5t-28 49.5q0 21 21 21z
" />
    <glyph glyph-name="uni2086" unicode="&#x2086;" horiz-adv-x="263" 
d="M36 210q0 45 27 68.5t74 23.5q44 0 70.5 -21.5t26.5 -51.5q0 -18 -20 -18t-20 16q0 17 -17 28t-42 11q-59 0 -59 -56v-54q21 25 66 25q92 0 92 -84v-8q0 -46 -26 -68.5t-73 -22.5q-50 0 -74.5 24.5t-24.5 79.5v108zM76 86q0 -54 59 -54t59 54v8q0 54 -60 54
q-58 0 -58 -50v-12z" />
    <glyph glyph-name="uni2087" unicode="&#x2087;" horiz-adv-x="234" 
d="M21 288q0 5 5.5 9.5t12.5 4.5h162q7 0 12.5 -4.5t5.5 -9.5v-42q0 -9 -6 -20l-129 -220q-3 -8 -13 -8t-17.5 5.5t-7.5 14.5l2 8l131 215v25h-117v-41q0 -5 -6.5 -9.5t-14.5 -4.5q-20 0 -20 14v63z" />
    <glyph glyph-name="uni2088" unicode="&#x2088;" horiz-adv-x="256" 
d="M29 87q0 61 51 77q-42 15 -42 65q0 73 90 73t90 -73q0 -50 -42 -65q50 -18 50 -77v-5q0 -42 -26 -63t-72 -21t-72.5 21t-26.5 63v5zM128 181q50 0 50 43q0 44 -50 44t-50 -44q0 -43 50 -43zM70 86q0 -55 58 -55q59 0 59 55v8q0 53 -59 53q-58 0 -58 -53v-8z" />
    <glyph glyph-name="uni2089" unicode="&#x2089;" horiz-adv-x="264" 
d="M49 88q20 0 20 -16q0 -17 17 -27.5t42 -10.5q60 0 60 55v53q-22 -24 -66 -24q-92 0 -92 84v8q0 45 26.5 68.5t72.5 23.5t72 -23.5t26 -68.5v-121q0 -91 -101 -91q-43 0 -69.5 21t-26.5 51q0 18 19 18zM70 204q0 -53 59 -53t59 50v11q0 55 -59 55t-59 -55v-8z" />
    <glyph glyph-name="Euro" unicode="&#x20ac;" horiz-adv-x="466" 
d="M26 222q0 9 5.5 15.5t14.5 6.5h49v77h-49q-9 0 -14.5 6t-5.5 15t5.5 15t14.5 6h49v51q0 86 44 128.5t122 42.5q75 0 121 -39t46 -100q0 -26 -26 -26q-27 0 -27 19q0 45 -30.5 71t-82.5 26q-114 0 -114 -122v-51h135q8 0 14.5 -6t6.5 -15t-6.5 -15t-14.5 -6h-135v-77h135
q8 0 14.5 -6.5t6.5 -15.5t-6 -14.5t-15 -5.5h-135v-40q0 -56 29 -87t85 -31q51 0 82 26.5t31 71.5q1 20 27 20t26 -26q0 -62 -46.5 -101.5t-120.5 -39.5q-78 0 -122 42.5t-44 124.5v40h-49q-9 0 -15 6q-5 5 -5 14z" />
    <glyph glyph-name="uni20BE" unicode="&#x20be;" horiz-adv-x="691" 
d="M82 466q50 75 133 104v40q0 12 9 21t20 9q12 0 20 -9t8 -21v-26q6 0 17.5 1.5t20.5 1.5q14 0 38 -2v25q0 12 8.5 21t20.5 9q11 0 20 -9t9 -21v-40q82 -30 131 -104.5t49 -176.5q0 -13 -7.5 -21.5t-19.5 -8.5t-20 8.5t-9 21.5q-5 81 -36 139t-88 84v-180q0 -12 -8.5 -21
t-20.5 -9q-13 0 -21 8.5t-8 21.5v194q-18 3 -38 3t-38 -3v-194q0 -13 -7.5 -21.5t-20.5 -8.5q-11 0 -20 9t-9 21v180q-60 -25 -92.5 -84t-32.5 -139q0 -66 32.5 -121.5t88 -87.5t121.5 -32h202q13 0 21.5 -8.5t8.5 -20.5q0 -11 -8.5 -20t-21.5 -9h-447q-12 0 -21 9t-9 20
t9 20t21 9h93q-47 17 -80.5 56t-50.5 88t-17 97q0 102 50 177z" />
    <glyph glyph-name="trademark" unicode="&#x2122;" horiz-adv-x="501" 
d="M46 614h158q12 0 12 -17q0 -19 -12 -19h-60v-186q0 -14 -18 -14q-20 0 -20 14v186h-60q-12 0 -12 19q0 17 12 17zM238 595q0 19 19 19q17 0 29 -24l56 -127l56 127q12 24 29 24q19 0 19 -19v-203q0 -14 -19 -14q-18 0 -18 14v142l-54 -120q-4 -11 -13 -11q-10 0 -13 11
l-54 122v-144q0 -14 -18 -14q-19 0 -19 14v203z" />
    <glyph glyph-name="uni2126" unicode="&#x2126;" horiz-adv-x="438" 
d="M43 25q0 10 5.5 16.5t13.5 6.5h84v26q-93 35 -93 161v179q0 86 43.5 128.5t121.5 42.5q79 0 123 -42.5t44 -128.5v-179q0 -125 -94 -161v-26h83q8 0 14 -6.5t6 -16.5q0 -11 -5.5 -18t-14.5 -7h-121v117q79 18 79 118v179q0 122 -114 122q-112 0 -112 -122v-179
q0 -104 78 -118v-117h-122q-7 0 -13 7q-6 8 -6 18z" />
    <glyph glyph-name="estimated" unicode="&#x212e;" horiz-adv-x="434" 
d="M42 214q0 45 25 84t67 62t91 23q46 0 86 -19t63.5 -52t23.5 -74q0 -44 -22 -54q-12 -5 -21 -6.5t-26 -1.5h-199v-30q0 -51 30.5 -80.5t83.5 -29.5q37 0 63.5 8t42.5 19q12 9 19 9t12.5 -8t5.5 -17q0 -7 -10 -16.5t-27 -16.5q-19 -9 -47.5 -14.5t-59.5 -5.5
q-59 0 -104.5 22t-71 61.5t-25.5 90.5v46zM130 210h148q24 0 32 5t8 22q0 47 -26 77.5t-68 30.5q-41 0 -67.5 -29t-26.5 -75v-31z" />
    <glyph glyph-name="uni2153" unicode="&#x2153;" horiz-adv-x="506" 
d="M46 8l305 598q5 9 16 9q9 0 16 -6t7 -15q0 -6 -3 -11l-303 -593q-6 -12 -19 -12q-8 0 -14.5 6t-6.5 14q0 4 2 10zM33 537l44 44q5 5 11 5q8 0 13 -4t5 -11v-273q0 -15 -20 -15t-20 15v232l-17 -20q-4 -4 -10 -4q-5 0 -9.5 4.5t-4.5 11.5q0 11 8 15zM284.5 82.5
q4.5 3.5 14.5 3.5q21 0 21 -14q0 -16 15 -27t43 -11q60 0 60 53v7q0 48 -60 48q-14 0 -14 16t14 16q27 0 39.5 10.5t12.5 36.5q0 45 -50 45q-52 0 -52 -36q0 -16 -19 -16q-13 0 -17 3.5t-4 14.5q0 29 23 49.5t70 20.5q88 0 88 -74q0 -53 -37 -69q46 -15 46 -65v-7
q0 -44 -26.5 -66.5t-73.5 -22.5q-45 0 -71.5 21t-26.5 51q0 9 4.5 12.5z" />
    <glyph glyph-name="uni2154" unicode="&#x2154;" horiz-adv-x="595" 
d="M143 8l305 598q3 9 16 9q8 0 15 -6t7 -15q0 -8 -2 -11l-303 -593q-6 -12 -19 -12q-8 0 -14.5 6t-6.5 14q0 4 2 10zM29 337q0 20 22 42.5t54 40.5q32 19 53.5 40.5t21.5 41.5q0 19 -14.5 32.5t-40.5 13.5q-23 0 -36.5 -11t-13.5 -32q0 -6 -6 -10.5t-15 -4.5q-19 0 -19 22
q0 31 26 52t65 21q40 0 67 -23.5t27 -58.5q0 -23 -15 -44.5t-38 -37.5q-10 -8 -23 -16t-20 -12q-26 -15 -40 -28.5t-14 -26.5v-19h139q5 0 9.5 -5t4.5 -12t-4.5 -13t-9.5 -6h-162q-7 0 -12.5 4.5t-5.5 10.5v39zM374 82.5q4 3.5 15 3.5q21 0 21 -14q0 -16 15 -27t43 -11
q60 0 60 53v7q0 48 -60 48q-14 0 -14 16t14 16q26 0 38.5 10.5t12.5 36.5q0 22 -12.5 33.5t-36.5 11.5q-52 0 -52 -36q0 -16 -20 -16q-12 0 -16 3.5t-4 14.5q0 29 23 49.5t69 20.5q88 0 88 -74q0 -52 -36 -69q46 -15 46 -65v-7q0 -44 -26.5 -66.5t-73.5 -22.5
q-45 0 -71.5 21t-26.5 51q0 9 4 12.5z" />
    <glyph glyph-name="oneeighth" unicode="&#x215b;" horiz-adv-x="505" 
d="M46 8l305 598q5 9 16 9q9 0 16 -6t7 -15q0 -6 -3 -11l-303 -593q-6 -12 -19 -12q-8 0 -14.5 6t-6.5 14q0 4 2 10zM33 537l44 44q5 5 11 5q8 0 13 -4t5 -11v-273q0 -15 -20 -15t-20 15v232l-17 -20q-4 -4 -10 -4q-5 0 -9.5 4.5t-4.5 11.5q0 11 8 15zM280 87q0 61 51 77
q-41 15 -41 65q0 73 89 73q90 0 90 -73q0 -50 -42 -65q51 -18 51 -77v-5q0 -42 -26.5 -63t-72.5 -21t-72.5 21t-26.5 63v5zM379 181q51 0 51 43q0 44 -51 44q-50 0 -50 -44q0 -43 50 -43zM321 86q0 -55 58 -55q59 0 59 55v8q0 53 -59 53q-58 0 -58 -53v-8z" />
    <glyph glyph-name="threeeighths" unicode="&#x215c;" horiz-adv-x="599" 
d="M141 8l305 598q3 9 16 9q8 0 15 -6t7 -15q0 -5 -2 -11l-304 -593q-6 -12 -19 -12q-8 0 -14.5 6.5t-6.5 13.5q0 6 3 10zM28.5 366q4.5 4 14.5 4q21 0 21 -15q0 -16 15 -27t43 -11q60 0 60 53v8q0 47 -60 47q-14 0 -14 16q0 17 14 17q27 0 39.5 10.5t12.5 35.5q0 46 -50 46
q-52 0 -52 -36q0 -17 -19 -17q-13 0 -17 3.5t-4 15.5q0 29 23 49t70 20q88 0 88 -73q0 -54 -37 -70q46 -15 46 -64v-8q0 -44 -27 -66.5t-73 -22.5q-45 0 -71.5 21t-26.5 51q0 9 4.5 13zM374 87q0 61 52 77q-42 15 -42 65q0 73 90 73q89 0 89 -73q0 -50 -41 -65
q50 -18 50 -77v-5q0 -42 -26 -63t-72 -21t-73 21t-27 63v5zM474 181q50 0 50 43q0 44 -50 44q-51 0 -51 -44q0 -43 51 -43zM415 86q0 -55 59 -55t59 55v8q0 53 -59 53t-59 -53v-8z" />
    <glyph glyph-name="fiveeighths" unicode="&#x215d;" horiz-adv-x="598" 
d="M140 8l305 598q3 9 16 9q8 0 15 -6t7 -15q0 -5 -2 -11l-303 -593q-6 -12 -20 -12q-7 0 -13.5 6t-6.5 14q0 7 2 10zM44 372q20 0 20 -16q2 -39 56 -39q61 0 61 54v8q0 53 -59 53h-64q-19 0 -19 15q0 13 1 17l10 107q2 14 10 14h132q13 0 13 -19q0 -17 -13 -17h-107l-7 -84
h44q47 0 73.5 -21.5t26.5 -64.5v-8q0 -44 -26.5 -67t-72.5 -23q-44 0 -72 20.5t-28 49.5q0 21 21 21zM374 87q0 61 51 77q-42 15 -42 65q0 73 90 73q89 0 89 -73q0 -50 -41 -65q50 -18 50 -77v-5q0 -42 -26 -63t-72 -21t-72.5 21t-26.5 63v5zM473 181q50 0 50 43
q0 44 -50 44q-51 0 -51 -44q0 -43 51 -43zM414 86q0 -55 59 -55t59 55v8q0 53 -59 53t-59 -53v-8z" />
    <glyph glyph-name="seveneighths" unicode="&#x215e;" horiz-adv-x="598" 
d="M100 8l305 598q3 9 16 9q8 0 15 -6t7 -15q0 -5 -2 -11l-303 -593q-6 -12 -20 -12q-7 0 -13.5 6t-6.5 14q0 7 2 10zM24 571q0 5 6 9.5t12 4.5h162q7 0 12.5 -4.5t5.5 -9.5v-41q0 -7 -6 -21l-129 -220q-3 -7 -13 -7q-9 0 -16.5 6t-7.5 14l1 8l131 215v24h-117v-41
q0 -5 -6.5 -9.5t-14.5 -4.5t-14 4.5t-6 9.5v63zM374 87q0 61 51 77q-42 15 -42 65q0 73 90 73q89 0 89 -73q0 -50 -41 -65q50 -18 50 -77v-5q0 -42 -26 -63t-72 -21t-72.5 21t-26.5 63v5zM473 181q50 0 50 43q0 44 -50 44q-51 0 -51 -44q0 -43 51 -43zM414 86q0 -55 59 -55
t59 55v8q0 53 -59 53t-59 -53v-8z" />
    <glyph glyph-name="arrowleft" unicode="&#x2190;" horiz-adv-x="617" 
d="M66 210l167 166q6 6 13 6q9 0 16.5 -8t7.5 -18q0 -9 -4 -13l-128 -127h404q8 0 13.5 -7t5.5 -17q0 -22 -19 -22h-404l128 -128q4 -4 4 -13q0 -10 -7 -18t-17 -8q-7 0 -13 6l-167 166q-10 10 -10 17q0 8 10 18z" />
    <glyph glyph-name="arrowup" unicode="&#x2191;" horiz-adv-x="617" 
d="M125 269l166 167q11 9 17 9q9 0 18 -9l166 -167q6 -6 6 -14q0 -10 -8 -17.5t-18 -7.5q-8 0 -13 5l-127 129v-405q0 -8 -7 -13.5t-17 -5.5t-16 5.5t-6 13.5v405l-128 -129q-5 -5 -13 -5q-10 0 -18 7.5t-8 17.5q0 8 6 14z" />
    <glyph glyph-name="arrowright" unicode="&#x2192;" horiz-adv-x="617" 
d="M61.5 209.5q5.5 6.5 14.5 6.5h404l-129 127q-5 5 -5 13q0 10 7.5 18t17.5 8q8 0 14 -6l167 -166q9 -12 9 -18t-9 -17l-167 -166q-6 -6 -14 -6q-10 0 -17.5 8t-7.5 18q0 8 5 13l129 128h-404q-20 0 -20 22q0 11 5.5 17.5z" />
    <glyph glyph-name="arrowdown" unicode="&#x2193;" horiz-adv-x="617" 
d="M127 147q8 7 18 7q9 0 13 -4l128 -128v404q0 8 6 13.5t16 5.5t17 -5.5t7 -13.5v-404l127 128q4 4 13 4q10 0 18 -7.5t8 -16.5q0 -7 -6 -13l-166 -168q-9 -9 -18 -9q-6 0 -17 9l-166 168q-6 6 -6 13q0 10 8 17z" />
    <glyph glyph-name="partialdiff" unicode="&#x2202;" horiz-adv-x="392" 
d="M39 239q0 40 19 74.5t51.5 55.5t70.5 21q37 0 69.5 -19t42.5 -49q-2 112 -33 168.5t-100 56.5q-30 0 -53 -10l-29 -11q-8 0 -15 10t-7 18q0 15 35 28q33 12 73 12q181 0 181 -298v-148q0 -39 -21.5 -75t-56.5 -57.5t-75 -21.5t-75 21t-56 56.5t-21 74.5v93zM91 146
q0 -41 30 -72.5t70 -31.5q41 0 71 31.5t30 72.5v96q0 39 -30.5 69.5t-70.5 30.5q-41 0 -70.5 -31t-29.5 -72v-93z" />
    <glyph glyph-name="uni2206" unicode="&#x2206;" horiz-adv-x="412" 
d="M19 31l155 539q6 20 32 20t32 -20l152 -539q3 -7 3 -11q0 -20 -24 -20h-328q-23 0 -23 20q0 8 1 11zM78 49h253l-125 458z" />
    <glyph glyph-name="product" unicode="&#x220f;" horiz-adv-x="454" 
d="M61 565q0 9 7 14.5t17 5.5h284q10 0 17.5 -5.5t7.5 -14.5v-545q0 -20 -27 -20q-26 0 -26 20v516h-227v-516q0 -20 -27 -20q-26 0 -26 20v545z" />
    <glyph glyph-name="summation" unicode="&#x2211;" horiz-adv-x="375" 
d="M26 -140l177 342l-177 341q-4 9 -4 19q0 23 23 23h289q9 0 15 -7t6 -17t-6 -17.5t-15 -7.5h-246l150 -288q18 -37 18 -46q0 -12 -18 -47l-150 -288h246q9 0 15 -7.5t6 -17.5t-6 -17t-15 -7h-289q-23 0 -23 23q0 11 4 19z" />
    <glyph glyph-name="minus" unicode="&#x2212;" horiz-adv-x="402" 
d="M58.5 244.5q5.5 6.5 14.5 6.5h256q8 0 14 -7t6 -17q0 -9 -6 -15.5t-14 -6.5h-256q-20 0 -20 22q0 11 5.5 17.5z" />
    <glyph glyph-name="radical" unicode="&#x221a;" horiz-adv-x="494" 
d="M15.5 348.5q5.5 6.5 14.5 6.5h53q14 0 20 -19l91 -285l163 548q5 15 20 15h93q8 0 14 -6.5t6 -16.5t-5.5 -16.5t-14.5 -6.5h-68l-176 -577q-6 -19 -31 -19q-26 0 -32 19l-105 318h-28q-9 0 -14.5 6.5t-5.5 16.5t5.5 16.5z" />
    <glyph glyph-name="infinity" unicode="&#x221e;" horiz-adv-x="688" 
d="M45 189q0 63 40.5 100t100.5 37q45 0 88 -26t70 -69q28 44 70.5 69.5t87.5 25.5q61 0 101 -37t40 -100q0 -64 -40 -101t-101 -37q-44 0 -86.5 25.5t-71.5 69.5q-27 -43 -70 -69t-88 -26q-58 0 -100 36q-41 35 -41 102zM94 189q0 -44 25.5 -67.5t67.5 -23.5q40 0 77.5 24
t57.5 67q-20 42 -57.5 66.5t-77.5 24.5t-66 -23q-27 -21 -27 -68zM423.5 122q37.5 -24 78.5 -24q42 0 67 23.5t25 67.5t-25.5 67.5t-66.5 23.5q-40 0 -78 -24.5t-58 -66.5q20 -43 57.5 -67z" />
    <glyph glyph-name="integral" unicode="&#x222b;" horiz-adv-x="269" 
d="M26 -115q82 0 82 73v516q0 54 36.5 89t99.5 35q8 0 14 -6t6 -15t-5.5 -16t-14.5 -7q-39 0 -61 -22.5t-22 -58.5v-515q0 -54 -35 -86t-99 -32q-9 0 -15 6.5t-6 15.5q0 23 20 23z" />
    <glyph glyph-name="approxequal" unicode="&#x2248;" horiz-adv-x="354" 
d="M76.5 324.5q22.5 13.5 47.5 13.5q19 0 53 -14q29 -14 52 -14q21 0 37 12q16 11 20 11q6 0 11 -6.5t5 -12.5q0 -21 -22 -34t-46 -13q-21 0 -53 15q-36 13 -54 13q-20 0 -37 -13q-18 -12 -21 -12q-7 0 -11 6t-4 14q0 21 22.5 34.5zM76.5 161.5q22.5 13.5 47.5 13.5
q17 0 53 -13q32 -15 52 -15q21 0 37 12q16 11 20 11q7 0 11.5 -6t4.5 -13q0 -20 -22 -33t-46 -13q-20 0 -53 14q-34 14 -54 14t-37 -13t-21 -13q-7 0 -11 6.5t-4 14.5q0 20 22.5 33.5z" />
    <glyph glyph-name="notequal" unicode="&#x2260;" horiz-adv-x="384" 
d="M47.5 149.5q5.5 6.5 14.5 6.5h81l54 116h-135q-9 0 -14.5 6.5t-5.5 16.5t5.5 16.5t14.5 6.5h160l61 131q4 7 12 7t13.5 -5.5t5.5 -13.5q0 -6 -2 -10l-51 -109h59q8 0 14.5 -7t6.5 -16t-6.5 -16t-14.5 -7h-84l-54 -116h138q8 0 14.5 -7t6.5 -16t-6.5 -16t-14.5 -7h-163
l-55 -118q-4 -9 -14 -9q-8 0 -13 4.5t-5 11.5q0 5 2 9l46 102h-56q-9 0 -14.5 6.5t-5.5 16.5t5.5 16.5z" />
    <glyph glyph-name="lessequal" unicode="&#x2264;" horiz-adv-x="348" 
d="M53 302l215 120q6 2 10 2q9 0 16.5 -7.5t7.5 -17.5q0 -11 -10 -17l-189 -102l189 -102q10 -6 10 -16t-7.5 -17.5t-16.5 -7.5q-4 0 -10 2l-215 119q-13 6 -13 22t13 22zM46 84.5q6 6.5 15 6.5h221q8 0 14 -6.5t6 -16.5t-5.5 -16.5t-14.5 -6.5h-221q-9 0 -15 6.5t-6 16.5
t6 16.5z" />
    <glyph glyph-name="greaterequal" unicode="&#x2265;" horiz-adv-x="348" 
d="M57 178l188 102l-188 102q-11 6 -11 17q0 10 7.5 17.5t17.5 7.5q3 0 9 -2l216 -120q12 -6 12 -22t-12 -22l-216 -119q-6 -2 -9 -2q-10 0 -17.5 7.5t-7.5 17.5q0 11 11 16zM46 68q0 10 6 16.5t14 6.5h222q8 0 14 -6.5t6 -16.5t-5.5 -16.5t-14.5 -6.5h-222q-8 0 -14 7
q-6 6 -6 16z" />
    <glyph glyph-name="lozenge" unicode="&#x25ca;" horiz-adv-x="372" 
d="M36 339l115 220q15 28 35 28t35 -28l115 -220q17 -32 17 -47q0 -13 -17 -45l-116 -221q-15 -28 -34 -28t-34 28l-116 221q-17 34 -17 45q0 15 17 47zM66 293l120 -230l119 230l-119 232z" />
    <glyph glyph-name="uniE000" unicode="&#xe000;" horiz-adv-x="384" 
d="M0 384h384v-384h-384v384z" />
    <glyph glyph-name="uniF6C3" unicode="&#xf6c3;" horiz-adv-x="174" 
d="M29 -90l89 50q6 2 7 2q7 0 13 -7.5t6 -15.5q0 -11 -10 -17l-85 -46q-3 -2 -9 -2q-8 0 -14 6.5t-6 15.5t9 14z" />
    <glyph glyph-name="uniFB01" unicode="&#xfb01;" horiz-adv-x="405" 
d="M50 458q0 41 20.5 76t58.5 55.5t88 20.5q46 0 84.5 -15t38.5 -34q0 -10 -6.5 -19.5t-14.5 -9.5q-7 0 -16 8q-37 23 -84 23q-56 0 -86.5 -30t-30.5 -74v-81h102q7 0 12.5 -6t5.5 -14q0 -10 -5 -16.5t-13 -6.5h-102v-315q0 -9 -8 -14.5t-19 -5.5q-10 0 -17.5 5.5t-7.5 14.5
v438zM303 359q0 8 7.5 13.5t18.5 5.5t18.5 -5.5t7.5 -13.5v-338q0 -8 -8 -14.5t-18 -6.5t-18 6.5t-8 14.5v338z" />
    <glyph glyph-name="uniFB02" unicode="&#xfb02;" horiz-adv-x="412" 
d="M50 458q0 45 23.5 79.5t63 53.5t86.5 19q40 0 75.5 -14t56.5 -40v-535q0 -8 -7.5 -14.5t-18.5 -6.5q-10 0 -18 6.5t-8 14.5v516q-31 31 -81 31q-49 0 -84.5 -30.5t-35.5 -78.5v-81h102q7 0 12.5 -6t5.5 -14q0 -10 -5 -16.5t-13 -6.5h-102v-315q0 -9 -8 -14.5t-19 -5.5
q-10 0 -17.5 5.5t-7.5 14.5v438z" />
    <glyph glyph-name="CR.3" horiz-adv-x="0" 
 />
    <glyph glyph-name="a.ss01" horiz-adv-x="360" 
d="M69.5 184q45.5 25 140.5 25h41v20q0 46 -25 77.5t-71 31.5q-29 0 -56 -12q-26 -12 -28 -12q-8 0 -14.5 9t-6.5 18q0 16 34.5 29t75.5 13q71 0 107 -42t36 -112v-137q0 -47 32 -49q18 -2 18 -21q0 -13 -7.5 -20.5t-18.5 -7.5q-60 0 -69 62q-56 -62 -125 -62
q-48 0 -78.5 27.5t-30.5 77.5q0 60 45.5 85zM95 55.5q19 -17.5 48 -17.5q26 0 51 13t41 33t16 38v52h-33q-33 0 -55 -2.5t-44 -9.5q-43 -13 -43 -59q0 -30 19 -47.5z" />
    <glyph glyph-name="b.ss02" horiz-adv-x="385" 
d="M48 591q0 19 25 19q11 0 19 -5.5t8 -13.5v-269q14 27 42 44t64 17q39 0 72 -20t52 -54.5t19 -74.5v-88q0 -39 -19 -74t-54 -56.5t-82 -21.5q-63 0 -104.5 36t-41.5 98v463zM100 134q0 -43 27 -67.5t69 -24.5q49 0 75 31t26 73v88q0 39 -30 70t-70 31q-39 0 -68 -28.5
t-29 -72.5v-100z" />
    <glyph glyph-name="caron.alt" horiz-adv-x="74" 
d="M11 582q11 11 26 11t26 -11t11 -26t-33 -90q-4 -10 -15 -10q-7 0 -13 5t-6 12q0 3 2 7l15 42q-24 8 -24 34q0 15 11 26z" />
    <glyph glyph-name="g.ss03" horiz-adv-x="386" 
d="M35 234q0 40 19.5 74.5t52.5 54.5t72 20q36 0 64 -17t43 -44v37q0 8 7 13.5t18 5.5t18 -5.5t7 -13.5v-379q0 -78 -41 -124t-121 -46q-49 0 -88 17t-39 39q0 9 6.5 17t14.5 8q7 0 19 -8q41 -25 89 -25q70 0 90 42q10 20 14 39t4 48v71q-14 -26 -44 -44t-63 -18
q-37 0 -70 21t-52.5 56.5t-19.5 74.5v86zM87 148q0 -41 29.5 -72t69.5 -31q25 0 47.5 13t36.5 31.5t14 33.5v111q0 44 -29 72.5t-68 28.5q-40 0 -70 -31t-30 -70v-86z" />
    <glyph glyph-name="m.ss04" horiz-adv-x="622" 
d="M47 234q0 43 18.5 77t50 53t67.5 19q80 0 127 -74q45 74 125 74q38 0 70 -19t50.5 -53t18.5 -77v-214q0 -8 -7.5 -14t-18.5 -6q-10 0 -18 6t-8 14v214q0 44 -27.5 72.5t-64.5 28.5q-38 0 -65.5 -29.5t-27.5 -71.5v-214q0 -10 -7.5 -15t-19.5 -5q-10 0 -17.5 5.5
t-7.5 14.5v214q0 42 -28 71.5t-67 29.5q-37 0 -64 -28.5t-27 -72.5v-214q0 -7 -8 -13.5t-18 -6.5t-18 6t-8 14v214z" />
    <glyph glyph-name="n.ss04" horiz-adv-x="396" 
d="M46 234q0 39 21 73.5t56 55t75 20.5t75 -20.5t56 -55t21 -73.5v-214q0 -8 -8 -14t-19 -6q-10 0 -17.5 6t-7.5 14v214q0 40 -30 70.5t-70 30.5t-70 -30.5t-30 -70.5v-214q0 -8 -7.5 -14t-17.5 -6q-11 0 -19 6t-8 14v214z" />
    <glyph glyph-name="one.lnum" horiz-adv-x="315" 
d="M13 25q0 10 6 17t15 7h100v446l-32 -52q-6 -9 -16 -9q-8 0 -14 7t-6 16q0 14 10 21l68 96q9 12 19 12t17 -5.5t7 -14.5v-517h99q8 0 14.5 -7t6.5 -17t-6.5 -17.5t-14.5 -7.5h-252q-9 0 -15 7q-6 8 -6 18z" />
    <glyph glyph-name="q.ss02" horiz-adv-x="384" 
d="M36 232q0 40 18 74.5t52.5 55.5t81.5 21q65 0 107 -40t42 -115v-394q0 -8 -7 -14t-18 -6t-19 6t-8 14v222q-15 -27 -43.5 -44.5t-63.5 -17.5q-37 0 -70 21t-52.5 55.5t-19.5 74.5v87zM88 145q0 -39 29.5 -71t68.5 -32q23 0 46 13t38 32t15 35v100q0 55 -27 84t-72 29
q-48 0 -73 -30.5t-25 -72.5v-87z" />
    <glyph glyph-name="r.ss04" horiz-adv-x="260" 
d="M46 203q0 48 18.5 89.5t51.5 66t74 24.5h41q10 0 15.5 -6.5t5.5 -16.5t-6 -17.5t-14 -7.5h-36q-42 0 -70 -39t-28 -93v-183q0 -8 -8 -14t-19 -6q-10 0 -17.5 6t-7.5 14v183z" />
    <glyph glyph-name="u.ss04" horiz-adv-x="398" 
d="M47 358q0 10 7.5 15t19.5 5q10 0 17.5 -5.5t7.5 -14.5v-213q0 -26 13.5 -49.5t36.5 -38.5t49 -15q39 0 68 29t29 71v216q0 8 8 14t19 6t18 -5.5t7 -14.5v-338q0 -9 -7 -14.5t-18 -5.5q-10 0 -17 6t-7 14v36q-15 -27 -44 -44.5t-64 -17.5q-38 0 -71 21t-52.5 55.5
t-19.5 74.5v213z" />
    <glyph glyph-name="uni10B9.001" horiz-adv-x="600" 
d="M158.5 -5.5q-4.5 4.5 -4.5 10.5v600q0 6 4.5 10.5t10.5 4.5h35q6 0 10.5 -4.5t4.5 -10.5v-223h271q6 0 10.5 -4.5t4.5 -10.5v-362q0 -6 -4.5 -10.5t-10.5 -4.5h-29q-6 0 -10.5 4.5t-4.5 10.5v324h-227v-324q0 -6 -4.5 -10.5t-10.5 -4.5h-35q-6 0 -10.5 4.5z" />
    </font>
</defs>
</svg>
