<?xml version="1.0" standalone="no"?>
<!DOCTYPE svg PUBLIC "-//W3C//DTD SVG 1.1//EN" "http://www.w3.org/Graphics/SVG/1.1/DTD/svg11.dtd" >
<svg xmlns="http://www.w3.org/2000/svg" xmlns:xlink="http://www.w3.org/1999/xlink" version="1.1">
<metadata>
Created by FontForge 20161013 at Sun Jun 11 16:25:32 2017
 By ,,,
Copyright (c) 2017 by Tatishvili, Sopho Imnaishvili. All rights reserved.
</metadata>
<defs>
<font id="GLChonchkhi-Book" horiz-adv-x="376" >
  <font-face 
    font-family="GL Chonchkhi Book"
    font-weight="400"
    font-stretch="normal"
    units-per-em="1000"
    panose-1="0 0 5 0 0 0 0 0 0 0"
    ascent="750"
    descent="-250"
    x-height="700"
    cap-height="700"
    bbox="-45 -303 815 881"
    underline-thickness="50"
    underline-position="-150"
    unicode-range="U+0020-F6C3"
  />
<missing-glyph horiz-adv-x="548" 
d="M498 700v-700h-448v700h448zM124 70h36l112 259l112 -259h41l-125 290l116 269h-36l-104 -239l-104 239h-40l117 -269z" />
    <glyph glyph-name=".notdef" horiz-adv-x="548" 
d="M498 700v-700h-448v700h448zM124 70h36l112 259l112 -259h41l-125 290l116 269h-36l-104 -239l-104 239h-40l117 -269z" />
    <glyph glyph-name=".null" horiz-adv-x="0" 
 />
    <glyph glyph-name="nonmarkingreturn" horiz-adv-x="155" 
 />
    <glyph glyph-name="space" unicode=" " horiz-adv-x="155" 
 />
    <glyph glyph-name="exclam" unicode="!" horiz-adv-x="128" 
d="M40 701h48v-364l-6 -182h-35l-7 182v364zM87 0h-46v88h46v-88z" />
    <glyph glyph-name="quotedbl" unicode="&#x22;" horiz-adv-x="209" 
d="M81 527h-35l-6 174h47zM163 527h-34l-6 174h46z" />
    <glyph glyph-name="numbersign" unicode="#" horiz-adv-x="412" 
d="M296 257h59l-3 -35h-61l-23 -222h-39l23 222h-117l-23 -222h-40l24 222h-66l3 35h66l24 226h-67l3 35h67l19 183h40l-19 -183h116l19 183h40l-18 -183h59l-3 -35h-61zM162 483l-23 -226h116l24 226h-117z" />
    <glyph glyph-name="dollar" unicode="$" horiz-adv-x="377" 
d="M307.5 648.5q31.5 -46.5 31.5 -120.5v-16h-44v19q0 59 -25 93.5t-79 34.5q-53 0 -78 -34.5t-25 -92.5q0 -38 16 -67.5t40 -50.5t64 -49q43 -30 69.5 -53.5t44.5 -58t18 -81.5q0 -74 -31.5 -121t-98.5 -53v-55h-40v55q-67 6 -99.5 52.5t-32.5 121.5v39h45v-41
q0 -59 25.5 -93.5t79.5 -34.5q105 0 105 128q0 37 -16 66t-39.5 49.5t-63.5 48.5q-44 31 -70 54.5t-44.5 58.5t-18.5 82q0 75 32 120t97 52v60h40v-60q66 -6 97.5 -52.5z" />
    <glyph glyph-name="percent" unicode="%" horiz-adv-x="605" 
d="M204 671.5q24 -31.5 24 -82.5v-213q0 -51 -23.5 -82t-72.5 -31q-48 0 -71 31t-23 82v213q0 51 23 82.5t71 31.5t72 -31.5zM178 0h-30l276 701h30zM70 591v-217q0 -82 62 -82q33 0 48 23t15 59v217q0 36 -15 59t-48 23q-62 0 -62 -82zM545 405q23 -31 23 -82v-211
q0 -51 -23 -82.5t-71 -31.5t-72 31.5t-24 82.5v211q0 51 24 82t72 31t71 -31zM426 383.5q-15 -22.5 -15 -58.5v-215q0 -36 15 -59t48 -23q32 0 47 23t15 59v215q0 36 -15 58.5t-47 22.5q-33 0 -48 -22.5z" />
    <glyph glyph-name="ampersand" unicode="&#x26;" horiz-adv-x="402" 
d="M88 529v-29q0 -48 25 -79.5t70 -34.5h107v78h47v-78h38v-42h-38v-251q0 -32 3 -52.5t15 -40.5h-49q-8 16 -11.5 31t-4.5 36q-15 -36 -45.5 -54.5t-70.5 -18.5q-67 0 -100 43.5t-33 118.5v66q0 52 23 91t68 54q-45 13 -68 51.5t-23 90.5v18q0 84 41.5 128.5t125.5 44.5
h100v-44h-99q-121 0 -121 -127zM114.5 310q-26.5 -33 -26.5 -87v-64q0 -56 25.5 -88.5t76.5 -32.5q44 0 72 26t28 71v209h-101q-48 -1 -74.5 -34z" />
    <glyph glyph-name="quotesingle" unicode="'" horiz-adv-x="124" 
d="M79 527h-35l-5 174h46z" />
    <glyph glyph-name="parenleft" unicode="(" horiz-adv-x="231" 
d="M110.5 631.5q-19.5 -28.5 -19.5 -85.5v-390q0 -59 19 -87t71 -28h20v-41h-22q-75 0 -105.5 38.5t-30.5 117.5v390q0 78 30.5 116.5t105.5 38.5h22v-41h-20q-51 0 -70.5 -28.5z" />
    <glyph glyph-name="parenright" unicode=")" horiz-adv-x="231" 
d="M158 662.5q30 -38.5 30 -116.5v-390q0 -79 -30 -117.5t-105 -38.5h-22v41h19q53 0 72.5 28t19.5 87v390q0 57 -20 85.5t-72 28.5h-19v41h22q75 0 105 -38.5z" />
    <glyph glyph-name="asterisk" unicode="*" horiz-adv-x="392" 
d="M308 405l-32 -24l-81 131l-79 -131l-32 24l95 118l-148 35l12 38l143 -53l-11 152h41l-10 -152l143 51l12 -38l-148 -33z" />
    <glyph glyph-name="plus" unicode="+" horiz-adv-x="388" 
d="M212 187h-35v145h-143v36h143v143h35v-143h142v-36h-142v-145z" />
    <glyph glyph-name="comma" unicode="," horiz-adv-x="134" 
d="M61 -2l-13 2v89h46v-85l-30 -81h-20z" />
    <glyph glyph-name="hyphen" unicode="-" horiz-adv-x="260" 
d="M222 371v-42h-184v42h184z" />
    <glyph glyph-name="period" unicode="." horiz-adv-x="127" 
d="M87 0h-47v89h47v-89z" />
    <glyph glyph-name="slash" unicode="/" horiz-adv-x="371" 
d="M69 0h-43l276 700h43z" />
    <glyph glyph-name="zero" unicode="0" horiz-adv-x="280" 
d="M235.5 53q-5.5 -24 -28 -42t-67.5 -18q-46 0 -68 18.5t-27.5 42.5t-5.5 55v481q0 31 5.5 54.5t27.5 42t68 18.5q65 0 83 -32.5t18 -80.5v-485q0 -30 -5.5 -54zM178 648.5q-16 16.5 -38 16.5t-38 -16.5t-16 -43.5v-512q0 -27 16 -43t38 -16t38 16t16 43v512q0 27 -16 43.5
z" />
    <glyph glyph-name="one" unicode="1" horiz-adv-x="238" 
d="M65 610l-27 29l64 57h50v-657h68v-39h-185v39h68v602h-1z" />
    <glyph glyph-name="two" unicode="2" horiz-adv-x="300" 
d="M226.5 376.5q-18.5 -50.5 -51.5 -116.5l-14 -29q-37 -74 -53 -115.5t-15 -74.5h122v112h47v-153h-223v23q0 38 17 84.5t52 119.5q8 16 14.5 30t11.5 26q33 75 48 115t15 72v136q0 27 -16.5 43.5t-38.5 16.5q-23 0 -38.5 -16t-15.5 -44v-177h-48v161q0 31 5.5 55t28 42.5
t68.5 18.5q65 0 84 -33.5t19 -80.5v-122q0 -43 -18.5 -93.5z" />
    <glyph glyph-name="three" unicode="3" horiz-adv-x="291" 
d="M179 651q-16 16 -38 16q-23 0 -38.5 -16t-15.5 -44v-85h-48v71q0 48 19 81t83 33q62 0 81.5 -31t19.5 -77v-129q0 -25 -8 -50t-25 -42v-1q28 -16 36 -43.5t8 -60.5v-173q0 -46 -19.5 -78t-82.5 -32q-64 0 -83 33t-19 81v94h48v-108q0 -27 16 -43t38 -16q23 0 38.5 16
t15.5 43v199q0 28 -16.5 45.5t-39.5 17.5h-21v40h24q20 0 31.5 16.5t11.5 46.5v152q0 28 -16 44z" />
    <glyph glyph-name="four" unicode="4" horiz-adv-x="309" 
d="M280 0h-185v39h69v129h-140l144 528h44v-488h42v-40h-42v-129h68v-39zM165 208v306h-1l-78 -299v-7h79z" />
    <glyph glyph-name="five" unicode="5" horiz-adv-x="279" 
d="M89 391l11 265h135v40h-177l-17 -431h44q7 55 21.5 94t46.5 39q40 0 40 -69v-239q0 -27 -16 -43t-38 -16q-23 0 -38.5 16t-15.5 43v49h-48v-35q0 -48 19 -81t83 -33q62 0 81.5 32t19.5 78v237q0 46 -21 77.5t-56 31.5q-50 0 -74 -55z" />
    <glyph glyph-name="six" unicode="6" horiz-adv-x="281" 
d="M183 610q0 27 -15 43.5t-34 16.5t-33 -16.5t-14 -43.5v-243h1q5 8 19 16.5t42 8.5q47 0 70 -28.5t23 -93.5v-158q0 -32 -5 -57t-27.5 -45t-68.5 -20q-64 0 -83 33.5t-19 81.5v493q0 48 17.5 80t77.5 32q44 0 65.5 -19t26.5 -43.5t5 -55.5v-77h-48v95zM102.5 47
q15.5 -16 38.5 -16q22 0 38 16t16 43v202q0 28 -16 44t-38 16q-23 0 -38.5 -16t-15.5 -44v-202q0 -27 15.5 -43z" />
    <glyph glyph-name="seven" unicode="7" horiz-adv-x="272" 
 />
    <glyph glyph-name="eight" unicode="8" horiz-adv-x="281" 
d="M229 439.5q-13 -29.5 -60 -37.5q47 -9 60 -39t13 -73v-186q0 -30 -5.5 -54t-28 -42t-67.5 -18q-46 0 -68.5 18.5t-28 42.5t-5.5 55v182q0 44 13 74.5t60 39.5q-47 8 -60 38.5t-13 73.5v78q0 31 5.5 55t28 42.5t68.5 18.5q45 0 67.5 -18t28 -42t5.5 -54v-82
q0 -43 -13 -72.5zM179 651.5q-16 16.5 -38 16.5q-23 0 -38.5 -16t-15.5 -44v-110q0 -28 15.5 -44t38.5 -16q22 0 38 16.5t16 43.5v110q0 27 -16 43.5zM179 347.5q-16 16.5 -38 16.5q-23 0 -38.5 -16t-15.5 -44v-214q0 -27 15.5 -43t38.5 -16q22 0 38 16t16 43v214
q0 27 -16 43.5z" />
    <glyph glyph-name="nine" unicode="9" horiz-adv-x="281" 
d="M98 90q0 -26 15 -42.5t34 -16.5t33.5 16t14.5 43v221h-1q-22 -27 -62 -27q-47 0 -70 30t-23 94v178q0 32 5 57t27.5 45t69.5 20q64 0 82.5 -33.5t18.5 -81.5v-491q0 -48 -17.5 -80t-77.5 -32q-44 0 -65.5 19t-26.5 43.5t-5 55.5v19h48v-37zM179 651.5q-16 16.5 -38 16.5
q-23 0 -38.5 -16t-15.5 -44v-222q0 -28 15.5 -45t38.5 -17q22 0 38 17t16 45v222q0 27 -16 43.5z" />
    <glyph glyph-name="colon" unicode=":" horiz-adv-x="127" 
d="M87 381h-47v89h47v-89zM87 0h-47v89h47v-89z" />
    <glyph glyph-name="semicolon" unicode=";" horiz-adv-x="130" 
d="M90 381h-46v89h46v-89zM44 44l12 45l34 -44l-12 -78l-24 -44l-8 37l11 40z" />
    <glyph glyph-name="less" unicode="&#x3c;" horiz-adv-x="371" 
d="M36 332v36l295 134v-37l-249 -115l249 -114v-37z" />
    <glyph glyph-name="equal" unicode="=" horiz-adv-x="307" 
d="M269 408h-231v34h231v-34zM269 284h-231v36h231v-36z" />
    <glyph glyph-name="greater" unicode="&#x3e;" horiz-adv-x="371" 
d="M290 350l-250 115v37l295 -134v-36l-295 -133v37z" />
    <glyph glyph-name="question" unicode="?" horiz-adv-x="362" 
d="M295.5 658q35.5 -48 35.5 -130q0 -54 -19.5 -92.5t-56.5 -84.5q-35 -45 -52 -78.5t-17 -78.5q0 -19 5 -37h-43q-5 20 -5 38q0 52 18 88t53 81q35 46 52.5 81.5t17.5 85.5q0 132 -103 132q-54 0 -79 -36.5t-25 -97.5v-49h-44v46q0 82 36 131t113 49q78 0 113.5 -48zM191 0
h-46v88h46v-88z" />
    <glyph glyph-name="at" unicode="@" horiz-adv-x="687" 
d="M591.5 655.5q64.5 -74.5 64.5 -207.5q0 -79 -20.5 -149t-59.5 -113t-92 -43q-32 0 -49.5 19t-19.5 51q-15 -36 -41.5 -56t-63.5 -20q-51 0 -75 34t-24 90q0 19 1 29l11 99q6 66 38 105t88 39q71 0 90 -71l7 66h42l-30 -285q-3 -25 6.5 -42.5t32.5 -17.5q44 0 71.5 43
t39 103.5t11.5 117.5q0 117 -57 181t-174 64q-106 0 -176 -54.5t-103.5 -146.5t-33.5 -207q0 -142 67.5 -218t204.5 -76q112 0 187 60l-3 -44q-76 -53 -186 -53q-158 0 -234.5 87t-76.5 246q0 121 38 221.5t118.5 161.5t199.5 61q137 0 201.5 -74.5zM293.5 461.5
q-23.5 -28.5 -29.5 -77.5l-9 -94q-1 -8 -1 -23q0 -39 17 -63.5t54 -25.5q43 0 66.5 31t29.5 81l11 98q1 7 1 20q0 37 -18 59.5t-55 22.5q-43 0 -66.5 -28.5z" />
    <glyph glyph-name="A" unicode="A" horiz-adv-x="434" 
d="M72 0h-43l153 701h68l155 -701h-48l-34 154h-216zM316 196l-103 450l-98 -450h201z" />
    <glyph glyph-name="B" unicode="B" horiz-adv-x="378" 
d="M298 663.5q33 -36.5 33 -112.5v-40q0 -60 -20.5 -93t-71.5 -45q105 -20 105 -150v-60q0 -163 -154 -163h-150v700h148q77 0 110 -36.5zM256.5 415q27.5 23 27.5 87v45q0 56 -21.5 82.5t-75.5 26.5h-99v-264h76q65 0 92.5 23zM271.5 74q25.5 30 25.5 89v63
q0 66 -29.5 94.5t-93.5 28.5h-86v-305h102q56 0 81.5 30z" />
    <glyph glyph-name="C" unicode="C" horiz-adv-x="374" 
d="M302 658q37 -48 37 -128v-58h-45v60q0 60 -25.5 95t-79.5 35t-79.5 -35t-25.5 -95v-363q0 -60 25.5 -95t79.5 -35t79.5 35t25.5 95v83h45v-81q0 -80 -37 -128.5t-114 -48.5t-114 48.5t-37 128.5v359q0 80 37 128t114 48t114 -48z" />
    <glyph glyph-name="D" unicode="D" horiz-adv-x="385" 
d="M310.5 653.5q38.5 -46.5 38.5 -127.5v-352q0 -81 -38.5 -127.5t-115.5 -46.5h-155v700h154q78 0 116.5 -46.5zM276.5 78q26.5 34 26.5 94v356q0 60 -27 94t-82 34h-106v-612h106q56 0 82.5 34z" />
    <glyph glyph-name="E" unicode="E" horiz-adv-x="352" 
d="M278 334h-190v-290h229v-44h-277v700h277v-44h-229v-280h190v-42z" />
    <glyph glyph-name="F" unicode="F" horiz-adv-x="336" 
d="M268 316h-180v-316h-48v700h267v-44h-219v-296h180v-44z" />
    <glyph glyph-name="G" unicode="G" 
d="M302 658q37 -48 37 -128v-53h-45v55q0 60 -25.5 95t-79.5 35t-79.5 -35t-25.5 -95v-363q0 -60 25.5 -95t79.5 -35t79.5 35t25.5 95v150h-92v42h137v-190q0 -80 -37 -128.5t-114 -48.5t-114 48.5t-37 128.5v359q0 80 37 128t114 48t114 -48z" />
    <glyph glyph-name="H" unicode="H" horiz-adv-x="391" 
d="M88 0h-48v700h48v-329h216v329h47v-700h-47v329h-216v-329z" />
    <glyph glyph-name="I" unicode="I" horiz-adv-x="128" 
d="M88 0h-48v700h48v-700z" />
    <glyph glyph-name="J" unicode="J" horiz-adv-x="253" 
d="M41 44q66 0 96 27.5t30 98.5v530h48v-528q0 -87 -36.5 -127t-104.5 -44q-20 -2 -28 -2q-12 0 -18 1v44h13z" />
    <glyph glyph-name="K" unicode="K" horiz-adv-x="404" 
d="M88 253v-253h-48v700h48v-368l226 368h50l-200 -325l211 -375h-48l-191 327z" />
    <glyph glyph-name="L" unicode="L" horiz-adv-x="334" 
d="M40 700h48v-656h219v-44h-267v700z" />
    <glyph glyph-name="M" unicode="M" horiz-adv-x="506" 
d="M229 2l-147 615v-617h-42v700h68l146 -615l144 615h68v-700h-45v619l-144 -617h-48z" />
    <glyph glyph-name="N" unicode="N" horiz-adv-x="392" 
d="M40 0v700h62l207 -586v586h43v-700h-51l-217 621v-621h-44z" />
    <glyph glyph-name="O" unicode="O" horiz-adv-x="382" 
d="M75.5 660.5q38.5 45.5 114.5 45.5t115.5 -45.5t39.5 -130.5v-359q0 -84 -39.5 -130.5t-115.5 -46.5q-75 0 -114 46t-39 131v359q0 85 38.5 130.5zM111 71q27 -33 79 -33q108 0 108 131v363q0 64 -27 97t-81 33q-52 0 -79 -33.5t-27 -96.5v-363q0 -65 27 -98z" />
    <glyph glyph-name="P" unicode="P" horiz-adv-x="366" 
d="M335 531v-77q0 -84 -39.5 -125t-122.5 -41h-85v-288h-48v700h145q150 0 150 -169zM260.5 359.5q27.5 28.5 27.5 91.5v82q0 60 -23.5 91.5t-79.5 31.5h-97v-325h85q60 0 87.5 28.5z" />
    <glyph glyph-name="Q" unicode="Q" horiz-adv-x="407" 
d="M306.5 658q38.5 -48 38.5 -128v-359q0 -76 -32 -120q8 -16 21 -22t33 -6h11v-43h-12q-60 0 -83 42q-38 -28 -92 -28q-77 0 -115.5 48t-38.5 129v359q0 80 38.5 128t115.5 48t115.5 -48zM110 627q-26 -35 -26 -95v-363q0 -60 26 -95.5t81 -35.5t81 35t26 96v363
q0 60 -26 95t-81 35t-81 -35z" />
    <glyph glyph-name="R" unicode="R" horiz-adv-x="386" 
d="M300.5 659.5q35.5 -40.5 35.5 -117.5v-60q0 -62 -24 -98t-75 -48q100 -21 100 -143v-109q0 -58 16 -84h-48q-9 16 -12 35t-3 49v110q0 66 -33 92t-98 26h-71v-312h-48v700h147q78 0 113.5 -40.5zM258 381q32 25 32 91v66q0 58 -24.5 88t-79.5 30h-98v-300h73q65 0 97 25z
" />
    <glyph glyph-name="S" unicode="S" horiz-adv-x="369" 
d="M298.5 659q36.5 -47 36.5 -127v-16h-45v18q0 59 -24.5 93.5t-78.5 34.5t-78.5 -34t-24.5 -93q0 -38 16 -67.5t40 -51t64 -50.5q44 -32 70 -56t44 -59t18 -82q0 -80 -37 -127.5t-114 -47.5t-114 47.5t-37 127.5v36h44v-39q0 -59 26 -93t80 -34q55 0 80 33.5t25 93.5
q0 38 -16 67.5t-39.5 50.5t-63.5 50q-43 31 -69.5 55.5t-45 60t-18.5 82.5q0 82 37 128t112 46q76 0 112.5 -47z" />
    <glyph glyph-name="T" unicode="T" horiz-adv-x="368" 
d="M160 656h-142v44h331v-44h-142v-656h-47v656z" />
    <glyph glyph-name="U" unicode="U" 
d="M110.5 73q24.5 -35 78.5 -35q55 0 79.5 35t24.5 96v531h45v-529q0 -80 -37 -129t-113 -49t-113 49t-37 129v529h48v-531q0 -61 24.5 -96z" />
    <glyph glyph-name="V" unicode="V" horiz-adv-x="432" 
d="M218 56l141 644h44l-150 -700h-71l-153 700h48z" />
    <glyph glyph-name="W" unicode="W" horiz-adv-x="601" 
d="M143 0l-113 700h47l103 -636l102 634h50l97 -632l100 634h42l-111 -700h-62l-92 568l-97 -568h-66z" />
    <glyph glyph-name="X" unicode="X" horiz-adv-x="439" 
d="M77 0h-47l158 363l-147 337h50l131 -299l132 299h45l-146 -337l156 -363h-51l-140 325z" />
    <glyph glyph-name="Y" unicode="Y" horiz-adv-x="413" 
d="M26 700h49l133 -367l133 367h47l-158 -431v-269h-48v269z" />
    <glyph glyph-name="Z" unicode="Z" horiz-adv-x="387" 
d="M34 0v44l269 612h-257v44h306v-44l-270 -612h267v-44h-315z" />
    <glyph glyph-name="bracketleft" unicode="[" horiz-adv-x="232" 
d="M200 0h-157v701h157v-41h-109v-619h109v-41z" />
    <glyph glyph-name="backslash" unicode="\" horiz-adv-x="371" 
d="M345 0h-43l-276 700h43z" />
    <glyph glyph-name="bracketright" unicode="]" horiz-adv-x="232" 
d="M142 660h-109v41h157v-701h-157v41h109v619z" />
    <glyph glyph-name="asciicircum" unicode="^" horiz-adv-x="408" 
d="M33 391l153 309h37l153 -309h-40l-132 264l-131 -264h-40z" />
    <glyph glyph-name="underscore" unicode="_" horiz-adv-x="511" 
d="M481 -46h-457v36h457v-36z" />
    <glyph glyph-name="grave" unicode="`" horiz-adv-x="223" 
d="M177 753h-38l-85 95h52z" />
    <glyph glyph-name="a" unicode="a" horiz-adv-x="434" 
d="M72 0h-43l153 701h68l155 -701h-48l-34 154h-216zM316 196l-103 450l-98 -450h201z" />
    <glyph glyph-name="b" unicode="b" horiz-adv-x="378" 
d="M298 663.5q33 -36.5 33 -112.5v-40q0 -60 -20.5 -93t-71.5 -45q105 -20 105 -150v-60q0 -163 -154 -163h-150v700h148q77 0 110 -36.5zM256.5 415q27.5 23 27.5 87v45q0 56 -21.5 82.5t-75.5 26.5h-99v-264h76q65 0 92.5 23zM271.5 74q25.5 30 25.5 89v63
q0 66 -29.5 94.5t-93.5 28.5h-86v-305h102q56 0 81.5 30z" />
    <glyph glyph-name="c" unicode="c" horiz-adv-x="374" 
d="M302 658q37 -48 37 -128v-58h-45v60q0 60 -25.5 95t-79.5 35t-79.5 -35t-25.5 -95v-363q0 -60 25.5 -95t79.5 -35t79.5 35t25.5 95v83h45v-81q0 -80 -37 -128.5t-114 -48.5t-114 48.5t-37 128.5v359q0 80 37 128t114 48t114 -48z" />
    <glyph glyph-name="d" unicode="d" horiz-adv-x="385" 
d="M310.5 653.5q38.5 -46.5 38.5 -127.5v-352q0 -81 -38.5 -127.5t-115.5 -46.5h-155v700h154q78 0 116.5 -46.5zM276.5 78q26.5 34 26.5 94v356q0 60 -27 94t-82 34h-106v-612h106q56 0 82.5 34z" />
    <glyph glyph-name="e" unicode="e" horiz-adv-x="352" 
d="M278 334h-190v-290h229v-44h-277v700h277v-44h-229v-280h190v-42z" />
    <glyph glyph-name="f" unicode="f" horiz-adv-x="336" 
d="M268 316h-180v-316h-48v700h267v-44h-219v-296h180v-44z" />
    <glyph glyph-name="g" unicode="g" 
d="M302 658q37 -48 37 -128v-53h-45v55q0 60 -25.5 95t-79.5 35t-79.5 -35t-25.5 -95v-363q0 -60 25.5 -95t79.5 -35t79.5 35t25.5 95v150h-92v42h137v-190q0 -80 -37 -128.5t-114 -48.5t-114 48.5t-37 128.5v359q0 80 37 128t114 48t114 -48z" />
    <glyph glyph-name="h" unicode="h" horiz-adv-x="391" 
d="M88 0h-48v700h48v-329h216v329h47v-700h-47v329h-216v-329z" />
    <glyph glyph-name="i" unicode="i" horiz-adv-x="128" 
d="M88 0h-48v700h48v-700z" />
    <glyph glyph-name="j" unicode="j" horiz-adv-x="253" 
d="M41 44q66 0 96 27.5t30 98.5v530h48v-528q0 -87 -36.5 -127t-104.5 -44q-20 -2 -28 -2q-12 0 -18 1v44h13z" />
    <glyph glyph-name="k" unicode="k" horiz-adv-x="404" 
d="M88 253v-253h-48v700h48v-368l226 368h50l-200 -325l211 -375h-48l-191 327z" />
    <glyph glyph-name="l" unicode="l" horiz-adv-x="334" 
d="M40 700h48v-656h219v-44h-267v700z" />
    <glyph glyph-name="m" unicode="m" horiz-adv-x="506" 
d="M229 2l-147 615v-617h-42v700h68l146 -615l144 615h68v-700h-45v619l-144 -617h-48z" />
    <glyph glyph-name="n" unicode="n" horiz-adv-x="392" 
d="M40 0v700h62l207 -586v586h43v-700h-51l-217 621v-621h-44z" />
    <glyph glyph-name="o" unicode="o" horiz-adv-x="382" 
d="M75.5 658q38.5 48 114.5 48q78 0 116.5 -48t38.5 -128v-359q0 -81 -38.5 -129t-116.5 -48q-76 0 -114.5 48.5t-38.5 128.5v359q0 80 38.5 128zM110 73.5q26 -35.5 80 -35.5q56 0 82 35t26 96v363q0 61 -26 95.5t-82 34.5q-54 0 -80 -35t-26 -95v-363q0 -60 26 -95.5z" />
    <glyph glyph-name="p" unicode="p" horiz-adv-x="364" 
d="M335 531v-77q0 -84 -39.5 -125t-122.5 -41h-85v-288h-48v700h145q150 0 150 -169zM260.5 359.5q27.5 28.5 27.5 91.5v82q0 60 -23.5 91.5t-79.5 31.5h-97v-325h85q60 0 87.5 28.5z" />
    <glyph glyph-name="q" unicode="q" horiz-adv-x="389" 
d="M306.5 658q38.5 -48 38.5 -128v-359q0 -76 -32 -120q8 -16 21 -22t33 -6h11v-43h-12q-60 0 -83 42q-38 -28 -92 -28q-77 0 -115.5 48t-38.5 129v359q0 80 38.5 128t115.5 48t115.5 -48zM110 627q-26 -35 -26 -95v-363q0 -60 26 -95.5t81 -35.5t81 35t26 96v363
q0 60 -26 95t-81 35t-81 -35z" />
    <glyph glyph-name="r" unicode="r" horiz-adv-x="386" 
d="M300.5 659.5q35.5 -40.5 35.5 -117.5v-60q0 -62 -24 -98t-75 -48q100 -21 100 -143v-109q0 -58 16 -84h-48q-9 16 -12 35t-3 49v110q0 66 -33 92t-98 26h-71v-312h-48v700h147q78 0 113.5 -40.5zM258 381q32 25 32 91v66q0 58 -24.5 88t-79.5 30h-98v-300h73q65 0 97 25z
" />
    <glyph glyph-name="s" unicode="s" horiz-adv-x="369" 
d="M298.5 659q36.5 -47 36.5 -127v-16h-45v18q0 59 -24.5 93.5t-78.5 34.5t-78.5 -34t-24.5 -93q0 -38 16 -67.5t40 -51t64 -50.5q44 -32 70 -56t44 -59t18 -82q0 -80 -37 -127.5t-114 -47.5t-114 47.5t-37 127.5v36h44v-39q0 -59 26 -93t80 -34q55 0 80 33.5t25 93.5
q0 38 -16 67.5t-39.5 50.5t-63.5 50q-43 31 -69.5 55.5t-45 60t-18.5 82.5q0 82 37 128t112 46q76 0 112.5 -47z" />
    <glyph glyph-name="t" unicode="t" horiz-adv-x="363" 
d="M157 656h-141v44h330v-44h-142v-656h-47v656z" />
    <glyph glyph-name="u" unicode="u" 
d="M110.5 73q24.5 -35 78.5 -35q55 0 79.5 35t24.5 96v531h45v-529q0 -80 -37 -129t-113 -49t-113 49t-37 129v529h48v-531q0 -61 24.5 -96z" />
    <glyph glyph-name="v" unicode="v" horiz-adv-x="432" 
d="M218 56l141 644h44l-150 -700h-71l-153 700h48z" />
    <glyph glyph-name="w" unicode="w" horiz-adv-x="601" 
d="M143 0l-113 700h47l103 -636l102 634h50l97 -632l100 634h42l-111 -700h-62l-92 568l-97 -568h-66z" />
    <glyph glyph-name="x" unicode="x" horiz-adv-x="439" 
d="M77 0h-47l158 363l-147 337h50l131 -299l132 299h45l-146 -337l156 -363h-51l-140 325z" />
    <glyph glyph-name="y" unicode="y" horiz-adv-x="413" 
d="M26 700h49l133 -367l133 367h47l-158 -431v-269h-48v269z" />
    <glyph glyph-name="z" unicode="z" horiz-adv-x="387" 
d="M34 0v44l269 612h-257v44h306v-44l-270 -612h267v-44h-315z" />
    <glyph glyph-name="braceleft" unicode="{" horiz-adv-x="255" 
d="M156.5 640q-12.5 -20 -14.5 -62l-6 -125q-2 -42 -14.5 -67t-49.5 -36q37 -10 49 -34.5t14 -68.5l7 -124q2 -42 14.5 -62t46.5 -20h21v-41h-36q-45 0 -65.5 27t-23.5 77l-7 138q-2 44 -13.5 62.5t-49.5 24.5v43q27 4 39.5 14t17 26.5t5.5 46.5l8 138q3 50 23.5 77t65.5 27
h36v-41h-21q-34 0 -46.5 -20z" />
    <glyph glyph-name="bar" unicode="|" horiz-adv-x="264" 
d="M155 -25h-41v750h41v-750z" />
    <glyph glyph-name="braceright" unicode="}" horiz-adv-x="255" 
d="M133.5 673.5q20.5 -27.5 22.5 -77.5l7 -137q2 -30 6.5 -46.5t17.5 -26.5t40 -14v-43q-27 -4 -40 -14t-17.5 -26.5t-6.5 -46.5l-8 -138q-2 -50 -22 -77t-65 -27h-37v41h22q34 0 45.5 20t14.5 63l7 124q3 43 15.5 67.5t49.5 34.5q-37 11 -49.5 36t-15.5 68l-7 124
q-3 42 -15 62t-45 20h-22v41h37q45 0 65.5 -27.5z" />
    <glyph glyph-name="asciitilde" unicode="~" horiz-adv-x="395" 
d="M163 390.5q19 -8.5 45 -24.5q26 -15 40 -21.5t29 -6.5q20 0 34 12.5t32 41.5l25 -24q-22 -35 -43 -51.5t-48 -16.5q-19 0 -37 8t-44 24q-24 15 -40 22.5t-33 7.5q-21 0 -37 -13t-35 -41l-24 22q24 35 46.5 52t49.5 17q21 0 40 -8.5z" />
    <glyph glyph-name="uni00A0" unicode="&#xa0;" horiz-adv-x="155" 
 />
    <glyph glyph-name="exclamdown" unicode="&#xa1;" horiz-adv-x="128" 
d="M87 613h-46v88h46v-88zM47 546h35l6 -220v-326h-48v326z" />
    <glyph glyph-name="cent" unicode="&#xa2;" horiz-adv-x="378" 
d="M308.5 608q32.5 -46 32.5 -120v-32h-45v35q0 59 -25 92t-80 33q-54 0 -79.5 -35t-25.5 -95v-270q0 -59 25.5 -94.5t79.5 -35.5t79.5 34t25.5 94v55h45v-52q0 -75 -32.5 -121.5t-99.5 -51.5v-50h-40v50q-66 5 -98 52t-32 122v266q0 74 32 121t98 53v48h40v-48
q67 -4 99.5 -50z" />
    <glyph glyph-name="sterling" unicode="&#xa3;" horiz-adv-x="385" 
d="M310 657q36 -49 36 -131v-43h-45v45q0 61 -24 97.5t-78 36.5q-103 0 -103 -131q0 -51 11 -87t33 -82q26 -52 34 -84h146v-38h-141q1 -7 1 -20q0 -41 -19 -83t-64 -93h250v-44h-311v43q43 31 71.5 76.5t28.5 98.5q0 14 -1 22h-86v38h79q-11 36 -34 79q-23 47 -34.5 83
t-11.5 88q0 82 36 130t113 48t113 -49z" />
    <glyph glyph-name="currency" unicode="&#xa4;" horiz-adv-x="351" 
d="M291 350q0 -38 -25 -70l48 -47l-22 -20l-47 46q-29 -23 -71 -23q-40 0 -69 23l-48 -46l-20 20l48 47q-25 30 -25 70q0 42 25 70l-48 47l20 20l48 -47q30 25 69 25q41 0 71 -25l47 47l22 -20l-48 -47q25 -32 25 -70zM115.5 409.5q-24.5 -24.5 -24.5 -59.5t24.5 -59.5
t58.5 -24.5q35 0 60.5 24.5t25.5 59.5t-25.5 59.5t-60.5 24.5q-34 0 -58.5 -24.5z" />
    <glyph glyph-name="yen" unicode="&#xa5;" horiz-adv-x="429" 
d="M238 175h109v-26h-109v-149h-47v149h-108v26h108v72h-108v28h104l-160 425h51l138 -372l140 372h46l-161 -425h106v-28h-109v-72z" />
    <glyph glyph-name="brokenbar" unicode="&#xa6;" horiz-adv-x="265" 
d="M155 725v-315h-41v315h41zM155 291v-316h-41v316h41z" />
    <glyph glyph-name="section" unicode="&#xa7;" horiz-adv-x="378" 
d="M296.5 671q40.5 -35 40.5 -93v-19h-45v14q0 42 -28.5 67t-71.5 25q-45 0 -74.5 -22t-29.5 -65q0 -36 26.5 -57t81.5 -46q46 -21 74.5 -38.5t48.5 -47t20 -73.5q0 -45 -26 -79t-69 -53q45 -22 70.5 -51t25.5 -74q0 -57 -43.5 -91.5t-106.5 -34.5q-67 0 -109 34t-42 94v34
h45v-29q0 -43 30.5 -67.5t74.5 -24.5q42 0 73 22.5t31 62.5q0 26 -14.5 44.5t-35.5 30.5t-60 30q-46 20 -74.5 37.5t-48.5 47t-20 72.5q0 46 29.5 79.5t75.5 49.5q-50 25 -77.5 53.5t-27.5 74.5q0 60 42.5 94t108.5 34q65 0 105.5 -35zM116 393.5q-31 -29.5 -31 -71.5
q0 -31 17 -53t40 -35.5t59 -29.5q41 11 67 40t26 71q0 41 -27.5 66.5t-77.5 48.5q-42 -7 -73 -36.5z" />
    <glyph glyph-name="dieresis" unicode="&#xa8;" horiz-adv-x="189" 
d="M87 745h-42v85h42v-85zM145 745h-42v85h42v-85z" />
    <glyph glyph-name="copyright" unicode="&#xa9;" horiz-adv-x="747" 
d="M548.5 655.5q77.5 -45.5 121.5 -126t44 -179.5t-44 -179t-122 -126t-175 -46t-175 46t-121.5 126t-43.5 179t43.5 179.5t121.5 126t175 45.5q98 0 175.5 -45.5zM215 627q-70 -42 -109.5 -114.5t-39.5 -162.5q0 -89 39.5 -162t109.5 -115t158 -42t158.5 42t110.5 115
t40 162q0 90 -40 162.5t-110.5 114.5t-158.5 42t-158 -42zM448 536.5q26 -33.5 26 -90.5v-24h-33v27q0 40 -17 64t-54 24t-54 -24t-17 -64v-197q0 -41 17 -65t54 -24t54 24t17 65v38h33v-36q0 -56 -26 -90t-79 -34t-79 34t-26 90v192q0 57 26 90.5t79 33.5t79 -33.5z" />
    <glyph glyph-name="ordfeminine" unicode="&#xaa;" horiz-adv-x="273" 
d="M214 676.5q20 -28.5 20 -79.5v-261h-28l-1 61q-11 -31 -32.5 -48.5t-52.5 -17.5q-41 0 -62.5 25t-21.5 71v4q0 113 166 115v54q0 36 -12.5 56t-44.5 20q-64 0 -64 -78v-13h-30v12q0 51 23 79.5t73 28.5q47 0 67 -28.5zM69 435v-6q0 -33 15.5 -50.5t45.5 -17.5q32 0 50 23
t22 59v79q-133 -6 -133 -87zM234 237h-196v32h196v-32z" />
    <glyph glyph-name="guillemotleft" unicode="&#xab;" horiz-adv-x="286" 
d="M96 596h43l-64 -245l64 -250h-43l-65 250zM212 596h44l-65 -245l65 -250h-44l-64 250z" />
    <glyph glyph-name="logicalnot" unicode="&#xac;" horiz-adv-x="380" 
d="M34 368h312v-169h-35v134h-277v35z" />
    <glyph glyph-name="uni00AD" unicode="&#xad;" horiz-adv-x="260" 
d="M222 371v-42h-184v42h184z" />
    <glyph glyph-name="registered" unicode="&#xae;" horiz-adv-x="747" 
d="M548.5 655.5q77.5 -45.5 121.5 -126t44 -179.5t-44 -179t-122 -126t-175 -46t-175 46t-121.5 126t-43.5 179t43.5 179.5t121.5 126t175 45.5q98 0 175.5 -45.5zM215 627q-70 -42 -109.5 -114.5t-39.5 -162.5q0 -89 39.5 -162t109.5 -115t158 -42t158.5 42t110.5 115
t40 162q0 90 -40 162.5t-110.5 114.5t-158.5 42t-158 -42zM483 453v-12q0 -41 -15 -66.5t-49 -35.5q34 -9 49 -33.5t15 -64.5v-46q0 -42 12 -59h-36q-6 12 -8 25t-2 34v46q0 46 -23.5 63.5t-69.5 17.5h-47v-186h-34v428h102q106 0 106 -111zM428 372q20 18 20 62v16
q0 41 -17 61.5t-55 20.5h-67v-178h57q42 0 62 18z" />
    <glyph glyph-name="macron" unicode="&#xaf;" horiz-adv-x="251" 
d="M223 747h-195v35h195v-35z" />
    <glyph glyph-name="degree" unicode="&#xb0;" horiz-adv-x="210" 
d="M158 687q22 -21 22 -52t-22 -53t-53 -22t-53 22t-22 53t21.5 52t53.5 21q31 0 53 -21zM69.5 670q-14.5 -14 -14.5 -35t14.5 -35t35.5 -14t35.5 14t14.5 35t-14.5 35t-35.5 14t-35.5 -14z" />
    <glyph glyph-name="plusminus" unicode="&#xb1;" horiz-adv-x="388" 
d="M177 340h-139v36h139v135h35v-135h138v-36h-138v-117h138v-36h-312v36h139v117z" />
    <glyph glyph-name="uni00B2" unicode="&#xb2;" horiz-adv-x="271" 
d="M211.5 770q23.5 -31 23.5 -83q0 -43 -20.5 -76t-60.5 -75q-41 -44 -61 -76t-20 -75v-4h158v-30h-190v23q0 55 22.5 93t65.5 83q37 39 55.5 68t18.5 68q0 85 -66 85q-34 0 -50 -23t-16 -61v-31h-30v29q0 52 23.5 84t73.5 32t73.5 -31z" />
    <glyph glyph-name="uni00B3" unicode="&#xb3;" horiz-adv-x="271" 
d="M208.5 769.5q23.5 -30.5 23.5 -82.5v-11q0 -33 -14 -57.5t-41 -34.5q28 -9 41.5 -33t13.5 -57v-34q0 -52 -23.5 -83t-72.5 -31t-73 31t-24 83v25h30v-28q0 -37 16 -59t50 -22q66 0 66 84v34q0 34 -17 53.5t-48 19.5h-30v30h31q29 0 46.5 21t17.5 52v16q0 85 -66 85
q-34 0 -50 -22.5t-16 -59.5v-18h-30v16q0 52 23.5 82.5t73.5 30.5q49 0 72.5 -30.5z" />
    <glyph glyph-name="acute" unicode="&#xb4;" horiz-adv-x="199" 
d="M71 753h-36l71 95h50z" />
    <glyph glyph-name="uni00B5" unicode="&#xb5;" horiz-adv-x="398" 
d="M263 21q-30 -25 -72 -25q-38 0 -63 20t-34 54v-162h-47v592h47v-329q0 -60 25.5 -95t78.5 -35t78.5 35t25.5 95v329h47v-500h-44l1 90q-13 -44 -43 -69z" />
    <glyph glyph-name="paragraph" unicode="&#xb6;" horiz-adv-x="395" 
d="M186 -62h-36v351q-68 2 -97.5 44t-29.5 122v80q0 81 31.5 123t108.5 42h182v-762h-35v726h-124v-726z" />
    <glyph glyph-name="periodcentered" unicode="&#xb7;" horiz-adv-x="127" 
d="M87 316h-47v88h47v-88z" />
    <glyph glyph-name="cedilla" unicode="&#xb8;" horiz-adv-x="247" 
d="M192 -51q20 -11 20 -39q0 -33 -25 -47t-64 -14q-36 0 -62 14.5t-26 44.5v6h34v-5q0 -19 16.5 -29t37.5 -10q22 0 38.5 10t16.5 30q0 22 -16 30.5t-42 8.5h-6v57h23v-45q35 -1 55 -12z" />
    <glyph glyph-name="uni00B9" unicode="&#xb9;" horiz-adv-x="178" 
d="M109 795h25v-444h-32v393q-26 -29 -67 -34l-1 25q53 3 75 60z" />
    <glyph glyph-name="ordmasculine" unicode="&#xba;" horiz-adv-x="274" 
d="M211.5 674q24.5 -31 24.5 -82v-150q0 -52 -24.5 -83t-74.5 -31t-74.5 31t-24.5 83v150q0 51 24.5 82t74.5 31t74.5 -31zM86.5 654q-16.5 -22 -16.5 -60v-155q0 -37 16.5 -59t50.5 -22t50.5 22t16.5 59v155q0 38 -16.5 60t-50.5 22t-50.5 -22zM236 238h-197v32h197v-32z
" />
    <glyph glyph-name="guillemotright" unicode="&#xbb;" horiz-adv-x="286" 
d="M31 596h44l64 -245l-64 -250h-44l64 250zM148 596h42l66 -245l-66 -250h-42l64 250z" />
    <glyph glyph-name="onequarter" unicode="&#xbc;" horiz-adv-x="531" 
d="M88.5 626q-17.5 -9 -37.5 -11l-1 25q53 3 75 60h25v-444h-33v393q-11 -14 -28.5 -23zM114 0l276 700h31l-276 -700h-31zM431 0v96h-152v30l147 318h37v-318h35v-30h-35v-96h-32zM431 383l-122 -257h122v257z" />
    <glyph glyph-name="onehalf" unicode="&#xbd;" horiz-adv-x="574" 
d="M88.5 626q-17.5 -9 -37.5 -11l-1 25q53 3 75 60h25v-444h-33v393q-11 -14 -28.5 -23zM135 0h-32l276 700h32zM514.5 419q23.5 -31 23.5 -83q0 -43 -20.5 -75.5t-60.5 -74.5q-41 -44 -61 -76t-20 -75v-5h158v-30h-190v23q0 55 22.5 93t65.5 83q37 39 55.5 68t18.5 68
q0 85 -66 85q-33 0 -49 -23t-16 -61v-31h-31v29q0 52 24 84t73 32q50 0 73.5 -31z" />
    <glyph glyph-name="threequarters" unicode="&#xbe;" horiz-adv-x="578" 
d="M208.5 674.5q23.5 -30.5 23.5 -82.5v-11q0 -33 -14 -57.5t-41 -34.5q28 -9 41.5 -33t13.5 -57v-34q0 -52 -23.5 -83t-72.5 -31t-73 31t-24 83v25h30v-28q0 -37 16 -59t50 -22q66 0 66 84v34q0 34 -17 53.5t-48 19.5h-30v30h31q29 0 46.5 21t17.5 52v16q0 85 -66 85
q-34 0 -50 -22.5t-16 -59.5v-18h-30v16q0 52 23.5 82.5t73.5 30.5q49 0 72.5 -30.5zM473 700l-276 -700h-31l276 700h31zM327 96v30l147 318h36v-318h36v-30h-36v-96h-32v96h-151zM478 126v257l-120 -257h120z" />
    <glyph glyph-name="questiondown" unicode="&#xbf;" horiz-adv-x="361" 
d="M217 613h-46v87h46v-87zM221 506q0 -51 -18 -87t-54 -82q-36 -47 -53.5 -82t-17.5 -85q0 -132 103 -132q55 0 79.5 36.5t24.5 96.5v49h44v-46q0 -82 -36 -131t-113 -49t-113 48t-36 130q0 54 19.5 92.5t56.5 84.5q35 46 52.5 79t17.5 79q0 17 -5 37h43q6 -18 6 -38z" />
    <glyph glyph-name="Agrave" unicode="&#xc0;" horiz-adv-x="434" 
d="M256 737h-37l-85 95h50zM72 0h-43l153 701h68l155 -701h-48l-34 154h-216zM316 196l-103 450l-98 -450h201z" />
    <glyph glyph-name="Aacute" unicode="&#xc1;" horiz-adv-x="434" 
d="M206 738h-36l71 95h50zM72 0h-43l153 701h68l155 -701h-48l-34 154h-216zM316 196l-103 450l-98 -450h201z" />
    <glyph glyph-name="Acircumflex" unicode="&#xc2;" horiz-adv-x="434" 
d="M111 737l84 90h41l85 -90h-45l-61 63l-60 -63h-44zM72 0h-43l153 701h68l155 -701h-48l-34 154h-216zM316 196l-103 450l-98 -450h201z" />
    <glyph glyph-name="Atilde" unicode="&#xc3;" horiz-adv-x="434" 
d="M193 810q12 -5 27 -14q3 -2 16 -8.5t25 -6.5q22 0 38 30l26 -17q-10 -23 -26 -35t-36 -12q-13 0 -23 4t-25 13q-10 6 -21 11t-21 5q-26 0 -42 -31l-25 18q21 46 62 48q13 0 25 -5zM72 0h-43l153 701h68l155 -701h-48l-34 154h-216zM316 196l-103 450l-98 -450h201z" />
    <glyph glyph-name="Adieresis" unicode="&#xc4;" horiz-adv-x="434" 
d="M187 737h-42v84h42v-84zM286 737h-43v84h43v-84zM72 0h-43l153 701h68l155 -701h-48l-34 154h-216zM316 196l-103 450l-98 -450h201z" />
    <glyph glyph-name="Aring" unicode="&#xc5;" horiz-adv-x="434" 
d="M262.5 853q19.5 -19 19.5 -46q0 -29 -19.5 -48.5t-47.5 -19.5q-29 0 -48 19.5t-19 48.5q0 27 19.5 46t47.5 19t47.5 -19zM184.5 836q-12.5 -12 -12.5 -29q0 -19 12.5 -31t30.5 -12t30.5 12t12.5 31q0 17 -13 29t-30 12q-18 0 -30.5 -12zM72 0h-43l153 701h68l155 -701
h-48l-34 154h-216zM316 196l-103 450l-98 -450h201z" />
    <glyph glyph-name="AE" unicode="&#xc6;" horiz-adv-x="588" 
d="M518 334h-170v-290h205v-44h-252v157h-173l-56 -157h-46l247 700h280v-44h-205v-280h170v-42zM301 199v442l-161 -442h161z" />
    <glyph glyph-name="Ccedilla" unicode="&#xc7;" horiz-adv-x="374" 
d="M302 658q37 -48 37 -128v-58h-45v60q0 60 -25.5 95t-79.5 35t-79.5 -35t-25.5 -95v-363q0 -60 25.5 -95t79.5 -35t79.5 35t25.5 95v83h45v-81q0 -77 -34.5 -125.5t-105.5 -51.5v-33q34 0 54.5 -12.5t20.5 -38.5q0 -31 -25 -46.5t-64 -15.5q-38 0 -63.5 15.5t-25.5 44.5v6
h34v-5q0 -18 16 -28t39 -11q22 0 39 10.5t17 29.5q0 37 -59 37h-7v47q-70 4 -104 52t-34 125v359q0 80 37 128t114 48t114 -48z" />
    <glyph glyph-name="Egrave" unicode="&#xc8;" horiz-adv-x="352" 
d="M225 747h-38l-84 95h50zM278 334h-190v-290h229v-44h-277v700h277v-44h-229v-280h190v-42z" />
    <glyph glyph-name="Eacute" unicode="&#xc9;" horiz-adv-x="352" 
d="M176 741h-35l71 95h50zM278 334h-190v-290h229v-44h-277v700h277v-44h-229v-280h190v-42z" />
    <glyph glyph-name="Ecircumflex" unicode="&#xca;" horiz-adv-x="352" 
d="M73 741l84 91h41l85 -91h-45l-61 64l-61 -64h-43zM278 334h-190v-290h229v-44h-277v700h277v-44h-229v-280h190v-42z" />
    <glyph glyph-name="Edieresis" unicode="&#xcb;" horiz-adv-x="352" 
d="M149 741h-41v85h41v-85zM248 741h-43v85h43v-85zM278 334h-190v-290h229v-44h-277v700h277v-44h-229v-280h190v-42z" />
    <glyph glyph-name="Igrave" unicode="&#xcc;" horiz-adv-x="128" 
d="M27 836l71 -95h-38l-85 95h52zM88 700v-700h-48v700h48z" />
    <glyph glyph-name="Iacute" unicode="&#xcd;" horiz-adv-x="129" 
d="M147 836l-85 -95h-36l71 95h50zM89 700v-700h-48v700h48z" />
    <glyph glyph-name="Icircumflex" unicode="&#xce;" horiz-adv-x="128" 
d="M169 741h-44l-61 63l-61 -63h-44l84 90h42zM88 700v-700h-48v700h48z" />
    <glyph glyph-name="Idieresis" unicode="&#xcf;" horiz-adv-x="126" 
d="M36 741h-43v85h43v-85zM133 741h-41v85h41v-85zM87 0h-48v700h48v-700z" />
    <glyph glyph-name="Eth" unicode="&#xd0;" horiz-adv-x="386" 
d="M311.5 653.5q38.5 -46.5 38.5 -127.5v-352q0 -81 -38.5 -127.5t-116.5 -46.5h-154v331h-47v39h47v330h154q78 0 116.5 -46.5zM88 331v-287h106q56 0 82.5 34t26.5 94v356q0 60 -26.5 94t-82.5 34h-106v-286h89v-39h-89z" />
    <glyph glyph-name="Ntilde" unicode="&#xd1;" horiz-adv-x="392" 
d="M281 767.5q-16 -12.5 -36 -12.5q-13 0 -23.5 4.5t-25.5 13.5q-3 2 -16 8.5t-25 6.5q-25 0 -42 -30l-26 16q21 48 66 48q12 0 22 -4t27 -13q26 -15 41 -15q23 0 38 29l26 -16q-10 -23 -26 -35.5zM40 0v700h62l207 -586v586h43v-700h-51l-217 621v-621h-44z" />
    <glyph glyph-name="Ograve" unicode="&#xd2;" horiz-adv-x="382" 
d="M229 747h-37l-84 95h51zM306.5 658q38.5 -48 38.5 -128v-359q0 -81 -38.5 -129t-116.5 -48q-76 0 -114.5 48.5t-38.5 128.5v359q0 80 38.5 128t114.5 48q78 0 116.5 -48zM110 627q-26 -35 -26 -95v-363q0 -60 26 -95.5t80 -35.5q56 0 82 35t26 96v363q0 61 -26 95.5
t-82 34.5q-54 0 -80 -35z" />
    <glyph glyph-name="Oacute" unicode="&#xd3;" horiz-adv-x="382" 
d="M188 747h-36l71 95h50zM306.5 658q38.5 -48 38.5 -128v-359q0 -81 -38.5 -129t-116.5 -48q-76 0 -114.5 48.5t-38.5 128.5v359q0 80 38.5 128t114.5 48q78 0 116.5 -48zM110 627q-26 -35 -26 -95v-363q0 -60 26 -95.5t80 -35.5q56 0 82 35t26 96v363q0 61 -26 95.5
t-82 34.5q-54 0 -80 -35z" />
    <glyph glyph-name="Ocircumflex" unicode="&#xd4;" horiz-adv-x="382" 
d="M86 745l84 91h41l85 -91h-45l-61 63l-61 -63h-43zM306.5 658q38.5 -48 38.5 -128v-359q0 -81 -38.5 -129t-116.5 -48q-76 0 -114.5 48.5t-38.5 128.5v359q0 80 38.5 128t114.5 48q78 0 116.5 -48zM110 627q-26 -35 -26 -95v-363q0 -60 26 -95.5t80 -35.5q56 0 82 35
t26 96v363q0 61 -26 95.5t-82 34.5q-54 0 -80 -35z" />
    <glyph glyph-name="Otilde" unicode="&#xd5;" horiz-adv-x="382" 
d="M244 752q-13 0 -23.5 4.5t-25.5 13.5q-15 8 -23.5 12t-19.5 4q-26 0 -42 -31l-25 18q23 47 65 47q21 0 49 -18q10 -6 20.5 -10.5t19.5 -4.5q26 0 39 30l25 -17q-19 -48 -59 -48zM306.5 658q38.5 -48 38.5 -128v-359q0 -81 -38.5 -129t-116.5 -48q-76 0 -114.5 48.5
t-38.5 128.5v359q0 80 38.5 128t114.5 48q78 0 116.5 -48zM110 627q-26 -35 -26 -95v-363q0 -60 26 -95.5t80 -35.5q56 0 82 35t26 96v363q0 61 -26 95.5t-82 34.5q-54 0 -80 -35z" />
    <glyph glyph-name="Odieresis" unicode="&#xd6;" horiz-adv-x="382" 
d="M162 745h-42v85h42v-85zM261 745h-43v85h43v-85zM306.5 658q38.5 -48 38.5 -128v-359q0 -81 -38.5 -129t-116.5 -48q-76 0 -114.5 48.5t-38.5 128.5v359q0 80 38.5 128t114.5 48q78 0 116.5 -48zM110 627q-26 -35 -26 -95v-363q0 -60 26 -95.5t80 -35.5q56 0 82 35t26 96
v363q0 61 -26 95.5t-82 34.5q-54 0 -80 -35z" />
    <glyph glyph-name="multiply" unicode="&#xd7;" horiz-adv-x="339" 
d="M169 326l-106 -106l-23 24l105 106l-105 105l23 24l106 -105l106 105l24 -24l-106 -105l106 -106l-24 -24z" />
    <glyph glyph-name="Ugrave" unicode="&#xd9;" 
d="M227 741h-38l-84 95h51zM301 42q-37 -49 -113 -49t-113 49t-37 129v529h48v-531q0 -61 24.5 -96t78.5 -35q55 0 79.5 35t24.5 96v531h45v-529q0 -80 -37 -129z" />
    <glyph glyph-name="Uacute" unicode="&#xda;" 
d="M192 747h-36l71 95h49zM301 42q-37 -49 -113 -49t-113 49t-37 129v529h48v-531q0 -61 24.5 -96t78.5 -35q55 0 79.5 35t24.5 96v531h45v-529q0 -80 -37 -129z" />
    <glyph glyph-name="Ucircumflex" unicode="&#xdb;" 
d="M85 745l84 91h42l85 -91h-45l-62 63l-61 -63h-43zM301 42q-37 -49 -113 -49t-113 49t-37 129v529h48v-531q0 -61 24.5 -96t78.5 -35q55 0 79.5 35t24.5 96v531h45v-529q0 -80 -37 -129z" />
    <glyph glyph-name="Udieresis" unicode="&#xdc;" 
d="M160 744h-42v84h42v-84zM260 744h-44v84h44v-84zM301 42q-37 -49 -113 -49t-113 49t-37 129v529h48v-531q0 -61 24.5 -96t78.5 -35q55 0 79.5 35t24.5 96v531h45v-529q0 -80 -37 -129z" />
    <glyph glyph-name="Yacute" unicode="&#xdd;" horiz-adv-x="413" 
d="M209 741h-35l72 95h49zM26 700h49l133 -367l133 367h47l-158 -431v-269h-48v269z" />
    <glyph glyph-name="Thorn" unicode="&#xde;" 
d="M335 409v-76q0 -84 -39.5 -125.5t-122.5 -41.5h-85v-166h-48v700h48v-120h97q150 0 150 -171zM260.5 238.5q27.5 28.5 27.5 91.5v82q0 60 -23.5 92t-79.5 32h-97v-326h85q60 0 87.5 28.5z" />
    <glyph glyph-name="germandbls" unicode="&#xdf;" horiz-adv-x="712" 
d="M295.5 659q36.5 -47 36.5 -127v-16h-45v18q0 59 -25 93.5t-79 34.5q-52 0 -77 -34t-25 -93q0 -38 16 -67.5t40 -51t64 -50.5q44 -32 70 -56t44 -59t18 -82q0 -80 -37 -127.5t-114 -47.5t-114 47.5t-37 127.5v36h44v-39q0 -59 25.5 -93t80.5 -34q104 0 104 127
q0 38 -16 67.5t-39.5 50.5t-62.5 50q-43 31 -69.5 55.5t-45 60t-18.5 82.5q0 82 37 128t112 46q76 0 112.5 -47zM643.5 659q36.5 -47 36.5 -127v-16h-45v18q0 59 -24.5 93.5t-78.5 34.5t-78.5 -34t-24.5 -93q0 -38 16 -67.5t40 -51t64 -50.5q44 -32 70 -56t44 -59t18 -82
q0 -80 -37 -127.5t-114 -47.5t-114.5 47.5t-37.5 127.5v36h45v-39q0 -59 25.5 -93t80.5 -34q54 0 79.5 34t25.5 93q0 38 -16 67t-39.5 50.5t-63.5 50.5q-43 31 -70 55.5t-45.5 60t-18.5 82.5q0 82 37 128t113 46t112.5 -47z" />
    <glyph glyph-name="agrave" unicode="&#xe0;" horiz-adv-x="434" 
d="M256 737h-37l-85 95h50zM72 0h-43l153 701h68l155 -701h-48l-34 154h-216zM316 196l-103 450l-98 -450h201z" />
    <glyph glyph-name="aacute" unicode="&#xe1;" horiz-adv-x="434" 
d="M206 738h-36l71 95h50zM72 0h-43l153 701h68l155 -701h-48l-34 154h-216zM316 196l-103 450l-98 -450h201z" />
    <glyph glyph-name="acircumflex" unicode="&#xe2;" horiz-adv-x="434" 
d="M111 737l84 90h41l85 -90h-45l-61 63l-60 -63h-44zM72 0h-43l153 701h68l155 -701h-48l-34 154h-216zM316 196l-103 450l-98 -450h201z" />
    <glyph glyph-name="atilde" unicode="&#xe3;" horiz-adv-x="434" 
d="M193 810q12 -5 27 -14q3 -2 16 -8.5t25 -6.5q24 0 39 30l25 -17q-10 -23 -26 -35t-36 -12q-12 0 -22 4t-27 13q-10 6 -21 11t-21 5q-26 0 -41 -30l-25 17q21 46 62 48q13 0 25 -5zM72 0h-43l153 701h68l155 -701h-48l-34 154h-216zM316 196l-103 450l-98 -450h201z" />
    <glyph glyph-name="adieresis" unicode="&#xe4;" horiz-adv-x="434" 
d="M187 737h-42v84h42v-84zM286 737h-43v84h43v-84zM72 0h-43l153 701h68l155 -701h-48l-34 154h-216zM316 196l-103 450l-98 -450h201z" />
    <glyph glyph-name="aring" unicode="&#xe5;" horiz-adv-x="434" 
d="M262.5 853q19.5 -19 19.5 -46q0 -29 -19.5 -48.5t-47.5 -19.5q-29 0 -48 19.5t-19 48.5q0 27 19.5 46t47.5 19t47.5 -19zM184.5 836q-12.5 -12 -12.5 -29q0 -19 12.5 -31t30.5 -12t30.5 12t12.5 31q0 17 -13 29t-30 12q-18 0 -30.5 -12zM72 0h-43l153 701h68l155 -701
h-48l-34 154h-216zM316 196l-103 450l-98 -450h201z" />
    <glyph glyph-name="ae" unicode="&#xe6;" horiz-adv-x="588" 
d="M518 334h-170v-290h205v-44h-252v157h-173l-56 -157h-46l247 700h280v-44h-205v-280h170v-42zM301 199v442l-161 -442h161z" />
    <glyph glyph-name="ccedilla" unicode="&#xe7;" horiz-adv-x="374" 
d="M302 658q37 -48 37 -128v-58h-45v60q0 60 -25.5 95t-79.5 35t-79.5 -35t-25.5 -95v-363q0 -60 25.5 -95t79.5 -35t79.5 35t25.5 95v83h45v-81q0 -77 -34.5 -125.5t-105.5 -51.5v-30q34 -1 54.5 -14.5t20.5 -39.5q0 -31 -25.5 -47t-63.5 -16t-63.5 16t-25.5 45v6h33v-5
q0 -18 16.5 -28t39.5 -10t39.5 10t16.5 29q0 37 -59 37h-7v47q-70 4 -104 52t-34 125v359q0 80 37 128t114 48t114 -48z" />
    <glyph glyph-name="egrave" unicode="&#xe8;" horiz-adv-x="352" 
d="M225 747h-38l-84 95h50zM278 334h-190v-290h229v-44h-277v700h277v-44h-229v-280h190v-42z" />
    <glyph glyph-name="eacute" unicode="&#xe9;" horiz-adv-x="352" 
d="M176 741h-35l71 95h50zM278 334h-190v-290h229v-44h-277v700h277v-44h-229v-280h190v-42z" />
    <glyph glyph-name="ecircumflex" unicode="&#xea;" horiz-adv-x="352" 
d="M73 741l84 91h41l85 -91h-45l-61 64l-61 -64h-43zM278 334h-190v-290h229v-44h-277v700h277v-44h-229v-280h190v-42z" />
    <glyph glyph-name="edieresis" unicode="&#xeb;" horiz-adv-x="352" 
d="M149 741h-41v85h41v-85zM248 741h-43v85h43v-85zM278 334h-190v-290h229v-44h-277v700h277v-44h-229v-280h190v-42z" />
    <glyph glyph-name="igrave" unicode="&#xec;" horiz-adv-x="128" 
d="M27 836l71 -95h-38l-85 95h52zM88 700v-700h-48v700h48z" />
    <glyph glyph-name="iacute" unicode="&#xed;" horiz-adv-x="129" 
d="M147 836l-85 -95h-36l71 95h50zM89 700v-700h-48v700h48z" />
    <glyph glyph-name="icircumflex" unicode="&#xee;" horiz-adv-x="128" 
d="M169 741h-44l-61 63l-61 -63h-44l84 90h42zM88 700v-700h-48v700h48z" />
    <glyph glyph-name="idieresis" unicode="&#xef;" horiz-adv-x="126" 
d="M36 741h-43v85h43v-85zM133 741h-41v85h41v-85zM87 0h-48v700h48v-700z" />
    <glyph glyph-name="eth" unicode="&#xf0;" horiz-adv-x="386" 
d="M311.5 653.5q38.5 -46.5 38.5 -127.5v-352q0 -81 -38.5 -127.5t-116.5 -46.5h-154v330h-43v39h43v331h154q78 0 116.5 -46.5zM88 330v-286h106q56 0 82 33.5t26 94.5v356q0 61 -26.5 94.5t-82.5 33.5h-105v-287h89v-39h-89z" />
    <glyph glyph-name="ntilde" unicode="&#xf1;" horiz-adv-x="392" 
d="M281 767.5q-16 -12.5 -36 -12.5q-13 0 -23.5 4.5t-25.5 13.5q-3 2 -16 8.5t-25 6.5q-25 0 -42 -30l-26 16q21 48 66 48q12 0 22 -4t27 -13q26 -15 41 -15q23 0 38 29l26 -16q-10 -23 -26 -35.5zM40 0v700h62l207 -586v586h43v-700h-51l-217 621v-621h-44z" />
    <glyph glyph-name="ograve" unicode="&#xf2;" horiz-adv-x="382" 
d="M229 747h-37l-84 95h51zM306.5 658q38.5 -48 38.5 -128v-359q0 -81 -38.5 -129t-116.5 -48q-76 0 -114.5 48.5t-38.5 128.5v359q0 80 38.5 128t114.5 48q78 0 116.5 -48zM110 627q-26 -35 -26 -95v-363q0 -60 26 -95.5t80 -35.5q56 0 82 35t26 96v363q0 61 -26 95.5
t-82 34.5q-54 0 -80 -35z" />
    <glyph glyph-name="oacute" unicode="&#xf3;" horiz-adv-x="382" 
d="M188 747h-36l71 95h50zM306.5 658q38.5 -48 38.5 -128v-359q0 -81 -38.5 -129t-116.5 -48q-76 0 -114.5 48.5t-38.5 128.5v359q0 80 38.5 128t114.5 48q78 0 116.5 -48zM110 627q-26 -35 -26 -95v-363q0 -60 26 -95.5t80 -35.5q56 0 82 35t26 96v363q0 61 -26 95.5
t-82 34.5q-54 0 -80 -35z" />
    <glyph glyph-name="ocircumflex" unicode="&#xf4;" horiz-adv-x="382" 
d="M86 745l84 91h41l85 -91h-45l-61 63l-61 -63h-43zM306.5 658q38.5 -48 38.5 -128v-359q0 -81 -38.5 -129t-116.5 -48q-76 0 -114.5 48.5t-38.5 128.5v359q0 80 38.5 128t114.5 48q78 0 116.5 -48zM110 627q-26 -35 -26 -95v-363q0 -60 26 -95.5t80 -35.5q56 0 82 35
t26 96v363q0 61 -26 95.5t-82 34.5q-54 0 -80 -35z" />
    <glyph glyph-name="otilde" unicode="&#xf5;" horiz-adv-x="382" 
d="M244 752q-13 0 -23.5 4.5t-25.5 13.5q-15 8 -23.5 12t-19.5 4q-26 0 -42 -31l-25 18q23 47 65 47q21 0 49 -18q10 -6 20.5 -10.5t19.5 -4.5q26 0 39 30l25 -17q-19 -48 -59 -48zM306.5 658q38.5 -48 38.5 -128v-359q0 -81 -38.5 -129t-116.5 -48q-76 0 -114.5 48.5
t-38.5 128.5v359q0 80 38.5 128t114.5 48q78 0 116.5 -48zM110 627q-26 -35 -26 -95v-363q0 -60 26 -95.5t80 -35.5q56 0 82 35t26 96v363q0 61 -26 95.5t-82 34.5q-54 0 -80 -35z" />
    <glyph glyph-name="odieresis" unicode="&#xf6;" horiz-adv-x="382" 
d="M162 745h-42v85h42v-85zM261 745h-43v85h43v-85zM306.5 658q38.5 -48 38.5 -128v-359q0 -81 -38.5 -129t-116.5 -48q-76 0 -114.5 48.5t-38.5 128.5v359q0 80 38.5 128t114.5 48q78 0 116.5 -48zM110 627q-26 -35 -26 -95v-363q0 -60 26 -95.5t80 -35.5q56 0 82 35t26 96
v363q0 61 -26 95.5t-82 34.5q-54 0 -80 -35z" />
    <glyph glyph-name="divide" unicode="&#xf7;" horiz-adv-x="307" 
d="M176 412h-46v89h46v-89zM273 333h-239v35h239v-35zM176 199h-46v89h46v-89z" />
    <glyph glyph-name="ugrave" unicode="&#xf9;" 
d="M227 741h-38l-84 95h51zM301 42q-37 -49 -113 -49t-113 49t-37 129v529h48v-531q0 -61 24.5 -96t78.5 -35q55 0 79.5 35t24.5 96v531h45v-529q0 -80 -37 -129z" />
    <glyph glyph-name="uacute" unicode="&#xfa;" 
d="M192 747h-36l71 95h49zM301 42q-37 -49 -113 -49t-113 49t-37 129v529h48v-531q0 -61 24.5 -96t78.5 -35q55 0 79.5 35t24.5 96v531h45v-529q0 -80 -37 -129z" />
    <glyph glyph-name="ucircumflex" unicode="&#xfb;" 
d="M85 745l84 91h42l85 -91h-45l-62 63l-61 -63h-43zM301 42q-37 -49 -113 -49t-113 49t-37 129v529h48v-531q0 -61 24.5 -96t78.5 -35q55 0 79.5 35t24.5 96v531h45v-529q0 -80 -37 -129z" />
    <glyph glyph-name="udieresis" unicode="&#xfc;" 
d="M160 744h-42v84h42v-84zM260 744h-44v84h44v-84zM301 42q-37 -49 -113 -49t-113 49t-37 129v529h48v-531q0 -61 24.5 -96t78.5 -35q55 0 79.5 35t24.5 96v531h45v-529q0 -80 -37 -129z" />
    <glyph glyph-name="yacute" unicode="&#xfd;" horiz-adv-x="413" 
d="M209 741h-35l72 95h49zM26 700h49l133 -367l133 367h47l-158 -431v-269h-48v269z" />
    <glyph glyph-name="thorn" unicode="&#xfe;" 
d="M335 409v-76q0 -84 -39.5 -125.5t-122.5 -41.5h-85v-166h-48v700h48v-120h97q150 0 150 -171zM260.5 238.5q27.5 28.5 27.5 91.5v82q0 60 -23.5 92t-79.5 32h-97v-326h85q60 0 87.5 28.5z" />
    <glyph glyph-name="ydieresis" unicode="&#xff;" horiz-adv-x="413" 
d="M179 741h-42v85h42v-85zM278 741h-43v85h43v-85zM26 700h49l133 -367l133 367h47l-158 -431v-269h-48v269z" />
    <glyph glyph-name="Amacron" unicode="&#x100;" horiz-adv-x="434" 
d="M313 760h-194v34h194v-34zM72 0h-43l153 701h68l155 -701h-48l-34 154h-216zM316 196l-103 450l-98 -450h201z" />
    <glyph glyph-name="amacron" unicode="&#x101;" horiz-adv-x="434" 
d="M313 760h-194v34h194v-34zM72 0h-43l153 701h68l155 -701h-48l-34 154h-216zM316 196l-103 450l-98 -450h201z" />
    <glyph glyph-name="Abreve" unicode="&#x102;" horiz-adv-x="434" 
d="M285 757q-27 -24 -70 -24q-42 0 -68.5 24t-27.5 65h30q1 -29 19.5 -43t46.5 -14q29 0 48 14t20 43h30q-1 -41 -28 -65zM72 0h-43l153 701h68l155 -701h-48l-34 154h-216zM316 196l-103 450l-98 -450h201z" />
    <glyph glyph-name="abreve" unicode="&#x103;" horiz-adv-x="434" 
d="M285 757q-27 -24 -70 -24q-42 0 -68.5 24t-27.5 65h30q1 -29 19.5 -43t46.5 -14q29 0 48 14t20 43h30q-1 -41 -28 -65zM72 0h-43l153 701h68l155 -701h-48l-34 154h-216zM316 196l-103 450l-98 -450h201z" />
    <glyph glyph-name="Aogonek" unicode="&#x104;" horiz-adv-x="436" 
d="M360.5 -37.5q-12.5 -21.5 -12.5 -39.5q0 -17 11 -26t28 -9q25 0 44 13v-29q-24 -12 -56 -12q-30 0 -48 13.5t-18 39.5q0 22 13.5 44.5t35.5 39.5l-35 157h-216l-35 -154h-43l153 701h68l155 -701h-14q-18 -16 -30.5 -37.5zM316 196l-103 450l-98 -450h201z" />
    <glyph glyph-name="aogonek" unicode="&#x105;" horiz-adv-x="436" 
d="M359.5 -37.5q-12.5 -21.5 -12.5 -39.5q0 -17 11.5 -25.5t28.5 -8.5q26 0 44 12v-29q-24 -12 -56 -12q-30 0 -48 13.5t-18 39.5q0 22 13.5 44.5t35.5 39.5l-35 157h-216l-35 -154h-43l153 701h68l155 -701h-15q-18 -16 -30.5 -37.5zM316 196l-103 450l-98 -450h201z" />
    <glyph glyph-name="Cacute" unicode="&#x106;" horiz-adv-x="374" 
d="M189 747h-35l70 95h51zM302 658q37 -48 37 -128v-58h-45v60q0 60 -25.5 95t-79.5 35t-79.5 -35t-25.5 -95v-363q0 -60 25.5 -95t79.5 -35t79.5 35t25.5 95v83h45v-81q0 -80 -37 -128.5t-114 -48.5t-114 48.5t-37 128.5v359q0 80 37 128t114 48t114 -48z" />
    <glyph glyph-name="cacute" unicode="&#x107;" horiz-adv-x="374" 
d="M189 747h-35l70 95h51zM302 658q37 -48 37 -128v-58h-45v60q0 60 -25.5 95t-79.5 35t-79.5 -35t-25.5 -95v-363q0 -60 25.5 -95t79.5 -35t79.5 35t25.5 95v83h45v-81q0 -80 -37 -128.5t-114 -48.5t-114 48.5t-37 128.5v359q0 80 37 128t114 48t114 -48z" />
    <glyph glyph-name="Ccircumflex" unicode="&#x108;" horiz-adv-x="374" 
d="M87 744l84 90h41l85 -90h-45l-61 63l-61 -63h-43zM302 658q37 -48 37 -128v-58h-45v60q0 60 -25.5 95t-79.5 35t-79.5 -35t-25.5 -95v-363q0 -60 25.5 -95t79.5 -35t79.5 35t25.5 95v83h45v-81q0 -80 -37 -128.5t-114 -48.5t-114 48.5t-37 128.5v359q0 80 37 128t114 48
t114 -48z" />
    <glyph glyph-name="ccircumflex" unicode="&#x109;" horiz-adv-x="374" 
d="M87 744l84 90h41l85 -90h-45l-61 63l-61 -63h-43zM302 658q37 -48 37 -128v-58h-45v60q0 60 -25.5 95t-79.5 35t-79.5 -35t-25.5 -95v-363q0 -60 25.5 -95t79.5 -35t79.5 35t25.5 95v83h45v-81q0 -80 -37 -128.5t-114 -48.5t-114 48.5t-37 128.5v359q0 80 37 128t114 48
t114 -48z" />
    <glyph glyph-name="Cdotaccent" unicode="&#x10a;" horiz-adv-x="374" 
d="M209 740h-42v85h42v-85zM302 658q37 -48 37 -128v-58h-45v60q0 60 -25.5 95t-79.5 35t-79.5 -35t-25.5 -95v-363q0 -60 25.5 -95t79.5 -35t79.5 35t25.5 95v83h45v-81q0 -80 -37 -128.5t-114 -48.5t-114 48.5t-37 128.5v359q0 80 37 128t114 48t114 -48z" />
    <glyph glyph-name="cdotaccent" unicode="&#x10b;" horiz-adv-x="374" 
d="M209 740h-42v85h42v-85zM302 658q37 -48 37 -128v-58h-45v60q0 60 -25.5 95t-79.5 35t-79.5 -35t-25.5 -95v-363q0 -60 25.5 -95t79.5 -35t79.5 35t25.5 95v83h45v-81q0 -80 -37 -128.5t-114 -48.5t-114 48.5t-37 128.5v359q0 80 37 128t114 48t114 -48z" />
    <glyph glyph-name="Ccaron" unicode="&#x10c;" horiz-adv-x="374" 
d="M192 771l61 64h46l-86 -90h-41l-84 90h43zM302 658q37 -48 37 -128v-58h-45v60q0 60 -25.5 95t-79.5 35t-79.5 -35t-25.5 -95v-363q0 -60 25.5 -95t79.5 -35t79.5 35t25.5 95v83h45v-81q0 -80 -37 -128.5t-114 -48.5t-114 48.5t-37 128.5v359q0 80 37 128t114 48t114 -48
z" />
    <glyph glyph-name="ccaron" unicode="&#x10d;" horiz-adv-x="374" 
d="M192 771l61 64h46l-86 -90h-41l-84 90h43zM302 658q37 -48 37 -128v-58h-45v60q0 60 -25.5 95t-79.5 35t-79.5 -35t-25.5 -95v-363q0 -60 25.5 -95t79.5 -35t79.5 35t25.5 95v83h45v-81q0 -80 -37 -128.5t-114 -48.5t-114 48.5t-37 128.5v359q0 80 37 128t114 48t114 -48
z" />
    <glyph glyph-name="Dcaron" unicode="&#x10e;" horiz-adv-x="385" 
d="M182 767l61 64h46l-85 -90h-42l-84 90h43zM310.5 653.5q38.5 -46.5 38.5 -127.5v-352q0 -81 -38.5 -127.5t-115.5 -46.5h-155v700h154q78 0 116.5 -46.5zM276.5 78q26.5 34 26.5 94v356q0 60 -27 94t-82 34h-106v-612h106q56 0 82.5 34z" />
    <glyph glyph-name="dcaron" unicode="&#x10f;" horiz-adv-x="385" 
d="M182 767l61 64h46l-85 -90h-42l-84 90h43zM310.5 653.5q38.5 -46.5 38.5 -127.5v-352q0 -81 -38.5 -127.5t-115.5 -46.5h-155v700h154q78 0 116.5 -46.5zM276.5 78q26.5 34 26.5 94v356q0 60 -27 94t-82 34h-106v-612h106q56 0 82.5 34z" />
    <glyph glyph-name="Dcroat" unicode="&#x110;" horiz-adv-x="386" 
d="M311.5 653.5q38.5 -46.5 38.5 -127.5v-352q0 -81 -38.5 -127.5t-116.5 -46.5h-154v330h-43v39h43v331h154q78 0 116.5 -46.5zM88 330v-286h106q56 0 82 33.5t26 94.5v356q0 61 -26.5 94.5t-82.5 33.5h-105v-287h89v-39h-89z" />
    <glyph glyph-name="dcroat" unicode="&#x111;" horiz-adv-x="386" 
d="M311.5 653.5q38.5 -46.5 38.5 -127.5v-352q0 -81 -38.5 -127.5t-116.5 -46.5h-154v330h-43v39h43v331h154q78 0 116.5 -46.5zM88 330v-286h106q56 0 82 33.5t26 94.5v356q0 61 -26.5 94.5t-82.5 33.5h-105v-287h89v-39h-89z" />
    <glyph glyph-name="Emacron" unicode="&#x112;" horiz-adv-x="352" 
d="M270 762h-189v34h189v-34zM278 334h-190v-290h229v-44h-277v700h277v-44h-229v-280h190v-42z" />
    <glyph glyph-name="emacron" unicode="&#x113;" horiz-adv-x="352" 
d="M270 762h-189v34h189v-34zM278 334h-190v-290h229v-44h-277v700h277v-44h-229v-280h190v-42z" />
    <glyph glyph-name="Ebreve" unicode="&#x114;" horiz-adv-x="352" 
d="M246.5 767.5q-27.5 -23.5 -70.5 -23.5q-42 0 -68.5 23.5t-27.5 64.5h30q1 -28 19.5 -42t46.5 -14q29 0 48 14t20 42h31q-1 -41 -28.5 -64.5zM278 334h-190v-290h229v-44h-277v700h277v-44h-229v-280h190v-42z" />
    <glyph glyph-name="ebreve" unicode="&#x115;" horiz-adv-x="352" 
d="M246.5 767.5q-27.5 -23.5 -70.5 -23.5q-42 0 -68.5 23.5t-27.5 64.5h30q1 -28 19.5 -42t46.5 -14q29 0 48 14t20 42h31q-1 -41 -28.5 -64.5zM278 334h-190v-290h229v-44h-277v700h277v-44h-229v-280h190v-42z" />
    <glyph glyph-name="Edotaccent" unicode="&#x116;" horiz-adv-x="352" 
d="M201 742h-42v85h42v-85zM278 334h-190v-290h229v-44h-277v700h277v-44h-229v-280h190v-42z" />
    <glyph glyph-name="edotaccent" unicode="&#x117;" horiz-adv-x="352" 
d="M201 742h-42v85h42v-85zM278 334h-190v-290h229v-44h-277v700h277v-44h-229v-280h190v-42z" />
    <glyph glyph-name="Eogonek" unicode="&#x118;" horiz-adv-x="353" 
d="M278 334h-190v-290h229v-44h-24q-19 -15 -32.5 -38t-12.5 -41q1 -16 12.5 -24.5t27.5 -8.5q25 0 44 13v-29q-24 -12 -56 -12q-30 0 -47.5 13.5t-17.5 39.5q0 21 15.5 45t38.5 42h-225v700h277v-44h-229v-280h190v-42z" />
    <glyph glyph-name="eogonek" unicode="&#x119;" horiz-adv-x="353" 
d="M278 334h-190v-290h229v-44h-25q-19 -15 -32 -38t-12 -41q1 -16 12.5 -24.5t27.5 -8.5q25 0 44 13v-29q-24 -12 -56 -12q-30 0 -47.5 13.5t-17.5 39.5q0 21 15.5 45t38.5 42h-225v700h277v-44h-229v-280h190v-42z" />
    <glyph glyph-name="Ecaron" unicode="&#x11a;" horiz-adv-x="352" 
d="M180 768l61 63h45l-85 -90h-42l-83 90h44zM278 334h-190v-290h229v-44h-277v700h277v-44h-229v-280h190v-42z" />
    <glyph glyph-name="ecaron" unicode="&#x11b;" horiz-adv-x="352" 
d="M180 768l61 63h45l-85 -90h-42l-83 90h44zM278 334h-190v-290h229v-44h-277v700h277v-44h-229v-280h190v-42z" />
    <glyph glyph-name="Gcircumflex" unicode="&#x11c;" 
d="M85 747l83 90h42l85 -90h-45l-61 64l-61 -64h-43zM302 658q37 -48 37 -128v-53h-45v55q0 60 -25.5 95t-79.5 35t-79.5 -35t-25.5 -95v-363q0 -60 25.5 -95t79.5 -35t79.5 35t25.5 95v150h-92v42h137v-190q0 -80 -37 -128.5t-114 -48.5t-114 48.5t-37 128.5v359
q0 80 37 128t114 48t114 -48z" />
    <glyph glyph-name="gcircumflex" unicode="&#x11d;" 
d="M85 747l83 90h42l85 -90h-45l-61 64l-61 -64h-43zM302 658q37 -48 37 -128v-53h-45v55q0 60 -25.5 95t-79.5 35t-79.5 -35t-25.5 -95v-363q0 -60 25.5 -95t79.5 -35t79.5 35t25.5 95v150h-92v42h137v-190q0 -80 -37 -128.5t-114 -48.5t-114 48.5t-37 128.5v359
q0 80 37 128t114 48t114 -48z" />
    <glyph glyph-name="Gbreve" unicode="&#x11e;" 
d="M258 770q-27 -24 -69 -24q-43 0 -69.5 23.5t-27.5 65.5h30q2 -29 20.5 -43t46.5 -14t47 14t20 43h30q-1 -41 -28 -65zM302 658q37 -48 37 -128v-53h-45v55q0 60 -25.5 95t-79.5 35t-79.5 -35t-25.5 -95v-363q0 -60 25.5 -95t79.5 -35t79.5 35t25.5 95v150h-92v42h137
v-190q0 -80 -37 -128.5t-114 -48.5t-114 48.5t-37 128.5v359q0 80 37 128t114 48t114 -48z" />
    <glyph glyph-name="gbreve" unicode="&#x11f;" 
d="M258 770q-27 -24 -69 -24q-43 0 -69.5 23.5t-27.5 65.5h30q2 -29 20.5 -43t46.5 -14t47 14t20 43h30q-1 -41 -28 -65zM302 658q37 -48 37 -128v-53h-45v55q0 60 -25.5 95t-79.5 35t-79.5 -35t-25.5 -95v-363q0 -60 25.5 -95t79.5 -35t79.5 35t25.5 95v150h-92v42h137
v-190q0 -80 -37 -128.5t-114 -48.5t-114 48.5t-37 128.5v359q0 80 37 128t114 48t114 -48z" />
    <glyph glyph-name="Gdotaccent" unicode="&#x120;" 
d="M215 744h-42v84h42v-84zM302 658q37 -48 37 -128v-53h-45v55q0 60 -25.5 95t-79.5 35t-79.5 -35t-25.5 -95v-363q0 -60 25.5 -95t79.5 -35t79.5 35t25.5 95v150h-92v42h137v-190q0 -80 -37 -128.5t-114 -48.5t-114 48.5t-37 128.5v359q0 80 37 128t114 48t114 -48z" />
    <glyph glyph-name="gdotaccent" unicode="&#x121;" 
d="M215 744h-42v84h42v-84zM302 658q37 -48 37 -128v-53h-45v55q0 60 -25.5 95t-79.5 35t-79.5 -35t-25.5 -95v-363q0 -60 25.5 -95t79.5 -35t79.5 35t25.5 95v150h-92v42h137v-190q0 -80 -37 -128.5t-114 -48.5t-114 48.5t-37 128.5v359q0 80 37 128t114 48t114 -48z" />
    <glyph glyph-name="Hcircumflex" unicode="&#x124;" horiz-adv-x="391" 
d="M91 745l84 91h42l84 -91h-45l-60 63l-61 -63h-44zM88 0h-48v700h48v-329h216v329h47v-700h-47v329h-216v-329z" />
    <glyph glyph-name="hcircumflex" unicode="&#x125;" horiz-adv-x="391" 
d="M91 745l84 91h42l84 -91h-45l-60 63l-61 -63h-44zM88 0h-48v700h48v-329h216v329h47v-700h-47v329h-216v-329z" />
    <glyph glyph-name="Hbar" unicode="&#x126;" horiz-adv-x="395" 
d="M353 0h-48v329h-215v-329h-48v525h-38v36h38v139h48v-139h215v139h48v-139h37v-36h-37v-525zM90 525v-154h215v154h-215z" />
    <glyph glyph-name="hbar" unicode="&#x127;" horiz-adv-x="395" 
d="M353 0h-48v329h-215v-329h-48v525h-38v36h38v139h48v-139h215v139h48v-139h37v-36h-37v-525zM90 525v-154h215v154h-215z" />
    <glyph glyph-name="Itilde" unicode="&#x128;" horiz-adv-x="129" 
d="M150 763.5q-16 -12.5 -37 -12.5q-12 0 -21.5 4t-26.5 13q-15 8 -23.5 12t-19.5 4q-27 0 -42 -30l-25 17q21 48 65 48q13 0 24.5 -4.5t25.5 -13.5q13 -8 22 -12t18 -4q24 0 39 31l26 -17q-9 -23 -25 -35.5zM88 0h-48v700h48v-700z" />
    <glyph glyph-name="itilde" unicode="&#x129;" horiz-adv-x="129" 
d="M150 763.5q-16 -12.5 -37 -12.5q-12 0 -21.5 4t-26.5 13q-15 8 -23.5 12t-19.5 4q-27 0 -42 -30l-25 17q21 48 65 48q13 0 24.5 -4.5t25.5 -13.5q13 -8 22 -12t18 -4q24 0 39 31l26 -17q-9 -23 -25 -35.5zM88 0h-48v700h48v-700z" />
    <glyph glyph-name="Imacron" unicode="&#x12a;" horiz-adv-x="128" 
d="M149 760h-171v34h171v-34zM88 0h-48v700h48v-700z" />
    <glyph glyph-name="imacron" unicode="&#x12b;" horiz-adv-x="128" 
d="M149 760h-171v34h171v-34zM88 0h-48v700h48v-700z" />
    <glyph glyph-name="Ibreve" unicode="&#x12c;" horiz-adv-x="129" 
d="M134 763.5q-27 -23.5 -70 -23.5q-42 0 -69 23.5t-28 64.5h31q1 -29 19.5 -43t46.5 -14t47 14t21 43h30q-1 -41 -28 -64.5zM89 700v-700h-48v700h48z" />
    <glyph glyph-name="ibreve" unicode="&#x12d;" horiz-adv-x="129" 
d="M134 763.5q-27 -23.5 -70 -23.5q-42 0 -69 23.5t-28 64.5h31q1 -29 19.5 -43t46.5 -14t47 14t21 43h30q-1 -41 -28 -64.5zM89 700v-700h-48v700h48z" />
    <glyph glyph-name="Iogonek" unicode="&#x12e;" horiz-adv-x="129" 
d="M50 -38q-13 -23 -12 -41q1 -16 12.5 -24.5t27.5 -8.5q24 0 44 13v-29q-23 -12 -57 -12q-28 0 -45.5 13t-18.5 38q-1 23 13 46t41 43h-15l1 700h47v-700h-7q-18 -15 -31 -38z" />
    <glyph glyph-name="iogonek" unicode="&#x12f;" horiz-adv-x="129" 
d="M50 -38q-13 -23 -12 -41q1 -16 12.5 -24.5t27.5 -8.5q24 0 44 13v-29q-23 -12 -57 -12q-28 0 -45.5 13t-18.5 38q-1 23 13 46t41 43h-15l1 700h47v-700h-6q-19 -15 -32 -38z" />
    <glyph glyph-name="Idotaccent" unicode="&#x130;" horiz-adv-x="128" 
d="M85 741h-42v85h42v-85zM88 0h-48v700h48v-700z" />
    <glyph glyph-name="dotlessi" unicode="&#x131;" horiz-adv-x="128" 
d="M88 0h-48v700h48v-700z" />
    <glyph glyph-name="Jcircumflex" unicode="&#x134;" horiz-adv-x="253" 
d="M79 741l84 91h41l85 -91h-43l-61 64l-61 -64h-45zM178.5 45q-36.5 -40 -104.5 -44q-20 -2 -28 -2q-12 0 -18 1v44h13q66 0 96 27.5t30 98.5v530h48v-528q0 -87 -36.5 -127z" />
    <glyph glyph-name="jcircumflex" unicode="&#x135;" horiz-adv-x="253" 
d="M79 741l84 91h41l85 -91h-43l-61 64l-61 -64h-45zM178.5 45q-36.5 -40 -104.5 -44q-20 -2 -28 -2q-12 0 -18 1v44h13q66 0 96 27.5t30 98.5v530h48v-528q0 -87 -36.5 -127z" />
    <glyph glyph-name="kgreenlandic" unicode="&#x138;" horiz-adv-x="404" 
d="M88 253v-253h-48v700h48v-368l226 368h50l-200 -325l211 -375h-48l-191 327z" />
    <glyph glyph-name="Lacute" unicode="&#x139;" horiz-adv-x="333" 
d="M81 741h-36l72 95h49zM39 700h47v-656h219v-44h-266v700z" />
    <glyph glyph-name="lacute" unicode="&#x13a;" horiz-adv-x="331" 
d="M73 741h-35l70 95h50zM37 700h47v-656h219v-44h-266v700z" />
    <glyph glyph-name="Lcaron" unicode="&#x13d;" horiz-adv-x="334" 
d="M40 700h48v-656h219v-44h-267v700zM215 612v88h47v-84l-30 -81h-21l21 77h-17z" />
    <glyph glyph-name="Ldot" unicode="&#x13f;" horiz-adv-x="334" 
d="M40 700h48v-656h219v-44h-267v700zM232 309h-46v88h46v-88z" />
    <glyph glyph-name="ldot" unicode="&#x140;" horiz-adv-x="334" 
d="M40 700h48v-656h219v-44h-267v700zM232 309h-46v88h46v-88z" />
    <glyph glyph-name="Lslash" unicode="&#x141;" horiz-adv-x="347" 
d="M100 44h219v-44h-266v265l-53 -49v46l53 49v389h47v-338l97 96v-46l-97 -97v-271z" />
    <glyph glyph-name="lslash" unicode="&#x142;" horiz-adv-x="347" 
d="M100 44h219v-44h-266v265l-53 -49v46l53 49v389h47v-338l97 96v-46l-97 -97v-271z" />
    <glyph glyph-name="Nacute" unicode="&#x143;" horiz-adv-x="392" 
d="M199 742h-36l72 95h49zM40 1v700h62l207 -586v586h43v-700h-51l-217 621v-621h-44z" />
    <glyph glyph-name="nacute" unicode="&#x144;" horiz-adv-x="392" 
d="M199 742h-36l72 95h49zM40 1v700h62l207 -586v586h43v-700h-51l-217 621v-621h-44z" />
    <glyph glyph-name="Ncaron" unicode="&#x147;" horiz-adv-x="392" 
d="M198 772l60 64h45l-84 -91h-41l-85 91h43zM40 0v700h62l207 -586v586h43v-700h-51l-217 621v-621h-44z" />
    <glyph glyph-name="ncaron" unicode="&#x148;" horiz-adv-x="392" 
d="M198 772l60 64h45l-84 -91h-41l-85 91h43zM40 0v700h62l207 -586v586h43v-700h-51l-217 621v-621h-44z" />
    <glyph glyph-name="Omacron" unicode="&#x14c;" horiz-adv-x="382" 
d="M285 760h-187v35h187v-35zM306.5 658q38.5 -48 38.5 -128v-359q0 -81 -38.5 -129t-116.5 -48q-76 0 -114.5 48.5t-38.5 128.5v359q0 80 38.5 128t114.5 48q78 0 116.5 -48zM110 627q-26 -35 -26 -95v-363q0 -60 26 -95.5t80 -35.5q56 0 82 35t26 96v363q0 61 -26 95.5
t-82 34.5q-54 0 -80 -35z" />
    <glyph glyph-name="omacron" unicode="&#x14d;" horiz-adv-x="382" 
d="M285 760h-187v35h187v-35zM306.5 658q38.5 -48 38.5 -128v-359q0 -81 -38.5 -129t-116.5 -48q-76 0 -114.5 48.5t-38.5 128.5v359q0 80 38.5 128t114.5 48q78 0 116.5 -48zM110 627q-26 -35 -26 -95v-363q0 -60 26 -95.5t80 -35.5q56 0 82 35t26 96v363q0 61 -26 95.5
t-82 34.5q-54 0 -80 -35z" />
    <glyph glyph-name="Obreve" unicode="&#x14e;" horiz-adv-x="382" 
d="M260 769.5q-27 -23.5 -70 -23.5q-42 0 -68.5 23.5t-27.5 65.5h30q1 -29 19.5 -43t46.5 -14t47 14t21 43h30q-1 -42 -28 -65.5zM306.5 658q38.5 -48 38.5 -128v-359q0 -81 -38.5 -129t-116.5 -48q-76 0 -114.5 48.5t-38.5 128.5v359q0 80 38.5 128t114.5 48
q78 0 116.5 -48zM110 627q-26 -35 -26 -95v-363q0 -60 26 -95.5t80 -35.5q56 0 82 35t26 96v363q0 61 -26 95.5t-82 34.5q-54 0 -80 -35z" />
    <glyph glyph-name="obreve" unicode="&#x14f;" horiz-adv-x="382" 
d="M260 769.5q-27 -23.5 -70 -23.5q-42 0 -68.5 23.5t-27.5 65.5h30q1 -29 19.5 -43t46.5 -14t47 14t21 43h30q-1 -42 -28 -65.5zM306.5 658q38.5 -48 38.5 -128v-359q0 -81 -38.5 -129t-116.5 -48q-76 0 -114.5 48.5t-38.5 128.5v359q0 80 38.5 128t114.5 48
q78 0 116.5 -48zM110 627q-26 -35 -26 -95v-363q0 -60 26 -95.5t80 -35.5q56 0 82 35t26 96v363q0 61 -26 95.5t-82 34.5q-54 0 -80 -35z" />
    <glyph glyph-name="Ohungarumlaut" unicode="&#x150;" horiz-adv-x="382" 
d="M151 747h-33l64 95h46zM237 747h-33l64 95h47zM306.5 658q38.5 -48 38.5 -128v-359q0 -81 -38.5 -129t-116.5 -48q-76 0 -114.5 48.5t-38.5 128.5v359q0 80 38.5 128t114.5 48q78 0 116.5 -48zM110 627q-26 -35 -26 -95v-363q0 -60 26 -95.5t80 -35.5q56 0 82 35t26 96
v363q0 61 -26 95.5t-82 34.5q-54 0 -80 -35z" />
    <glyph glyph-name="ohungarumlaut" unicode="&#x151;" horiz-adv-x="382" 
d="M151 747h-33l64 95h46zM237 747h-33l64 95h47zM306.5 658q38.5 -48 38.5 -128v-359q0 -81 -38.5 -129t-116.5 -48q-76 0 -114.5 48.5t-38.5 128.5v359q0 80 38.5 128t114.5 48q78 0 116.5 -48zM110 627q-26 -35 -26 -95v-363q0 -60 26 -95.5t80 -35.5q56 0 82 35t26 96
v363q0 61 -26 95.5t-82 34.5q-54 0 -80 -35z" />
    <glyph glyph-name="OE" unicode="&#x152;" horiz-adv-x="568" 
d="M497 334h-168v-290h204v-44h-351q-75 0 -110.5 48t-35.5 127v351q0 78 35.5 126t110.5 48h351v-44h-204v-280h168v-42zM107.5 620.5q-23.5 -35.5 -23.5 -92.5v-356q0 -57 23.5 -92.5t75.5 -35.5h98v612h-98q-52 0 -75.5 -35.5z" />
    <glyph glyph-name="oe" unicode="&#x153;" horiz-adv-x="568" 
d="M497 334h-168v-290h204v-44h-351q-75 0 -110.5 48t-35.5 127v351q0 78 35.5 126t110.5 48h351v-44h-204v-280h168v-42zM107.5 620.5q-23.5 -35.5 -23.5 -92.5v-356q0 -57 23.5 -92.5t75.5 -35.5h98v612h-98q-52 0 -75.5 -35.5z" />
    <glyph glyph-name="Racute" unicode="&#x154;" horiz-adv-x="386" 
d="M178 747h-36l71 95h50zM300.5 659.5q35.5 -40.5 35.5 -117.5v-60q0 -62 -24 -98t-75 -48q100 -21 100 -143v-109q0 -58 16 -84h-48q-9 16 -12 35t-3 49v110q0 66 -33 92t-98 26h-71v-312h-48v700h147q78 0 113.5 -40.5zM258 381q32 25 32 91v66q0 58 -24.5 88t-79.5 30
h-98v-300h73q65 0 97 25z" />
    <glyph glyph-name="racute" unicode="&#x155;" horiz-adv-x="386" 
d="M178 747h-36l71 95h50zM300.5 659.5q35.5 -40.5 35.5 -117.5v-60q0 -62 -24 -98t-75 -48q100 -21 100 -143v-109q0 -58 16 -84h-48q-9 16 -12 35t-3 49v110q0 66 -33 92t-98 26h-71v-312h-48v700h147q78 0 113.5 -40.5zM258 381q32 25 32 91v66q0 58 -24.5 88t-79.5 30
h-98v-300h73q65 0 97 25z" />
    <glyph glyph-name="Rcaron" unicode="&#x158;" horiz-adv-x="386" 
d="M178 773l61 63h45l-85 -90h-42l-84 90h44zM300.5 659.5q35.5 -40.5 35.5 -117.5v-60q0 -62 -24 -98t-75 -48q100 -21 100 -143v-109q0 -58 16 -84h-48q-9 16 -12 35t-3 49v110q0 66 -33 92t-98 26h-71v-312h-48v700h147q78 0 113.5 -40.5zM258 381q32 25 32 91v66
q0 58 -24.5 88t-79.5 30h-98v-300h73q65 0 97 25z" />
    <glyph glyph-name="rcaron" unicode="&#x159;" horiz-adv-x="386" 
d="M178 773l61 63h45l-85 -90h-42l-84 90h44zM300.5 659.5q35.5 -40.5 35.5 -117.5v-60q0 -62 -24 -98t-75 -48q100 -21 100 -143v-109q0 -58 16 -84h-48q-9 16 -12 35t-3 49v110q0 66 -33 92t-98 26h-71v-312h-48v700h147q78 0 113.5 -40.5zM258 381q32 25 32 91v66
q0 58 -24.5 88t-79.5 30h-98v-300h73q65 0 97 25z" />
    <glyph glyph-name="Sacute" unicode="&#x15a;" horiz-adv-x="369" 
d="M189 747h-36l71 95h50zM298.5 659q36.5 -47 36.5 -127v-16h-45v18q0 59 -24.5 93.5t-78.5 34.5t-78.5 -34t-24.5 -93q0 -38 16 -67.5t40 -51t64 -50.5q44 -32 70 -56t44 -59t18 -82q0 -80 -37 -127.5t-114 -47.5t-114 47.5t-37 127.5v36h44v-39q0 -59 26 -93t80 -34
q55 0 80 33.5t25 93.5q0 38 -16 67.5t-39.5 50.5t-63.5 50q-43 31 -69.5 55.5t-45 60t-18.5 82.5q0 82 37 128t112 46q76 0 112.5 -47z" />
    <glyph glyph-name="sacute" unicode="&#x15b;" horiz-adv-x="369" 
d="M189 747h-36l71 95h50zM298.5 659q36.5 -47 36.5 -127v-16h-45v18q0 59 -24.5 93.5t-78.5 34.5t-78.5 -34t-24.5 -93q0 -38 16 -67.5t40 -51t64 -50.5q44 -32 70 -56t44 -59t18 -82q0 -80 -37 -127.5t-114 -47.5t-114 47.5t-37 127.5v36h44v-39q0 -59 26 -93t80 -34
q55 0 80 33.5t25 93.5q0 38 -16 67.5t-39.5 50.5t-63.5 50q-43 31 -69.5 55.5t-45 60t-18.5 82.5q0 82 37 128t112 46q76 0 112.5 -47z" />
    <glyph glyph-name="Scircumflex" unicode="&#x15c;" horiz-adv-x="369" 
d="M85 745l84 91h41l85 -91h-45l-61 63l-60 -63h-44zM298.5 659q36.5 -47 36.5 -127v-16h-45v18q0 59 -24.5 93.5t-78.5 34.5t-78.5 -34t-24.5 -93q0 -38 16 -67.5t40 -51t64 -50.5q44 -32 70 -56t44 -59t18 -82q0 -80 -37 -127.5t-114 -47.5t-114 47.5t-37 127.5v36h44v-39
q0 -59 26 -93t80 -34q55 0 80 33.5t25 93.5q0 38 -16 67.5t-39.5 50.5t-63.5 50q-43 31 -69.5 55.5t-45 60t-18.5 82.5q0 82 37 128t112 46q76 0 112.5 -47z" />
    <glyph glyph-name="scircumflex" unicode="&#x15d;" horiz-adv-x="369" 
d="M85 745l84 91h41l85 -91h-45l-61 63l-60 -63h-44zM298.5 659q36.5 -47 36.5 -127v-16h-45v18q0 59 -24.5 93.5t-78.5 34.5t-78.5 -34t-24.5 -93q0 -38 16 -67.5t40 -51t64 -50.5q44 -32 70 -56t44 -59t18 -82q0 -80 -37 -127.5t-114 -47.5t-114 47.5t-37 127.5v36h44v-39
q0 -59 26 -93t80 -34q55 0 80 33.5t25 93.5q0 38 -16 67.5t-39.5 50.5t-63.5 50q-43 31 -69.5 55.5t-45 60t-18.5 82.5q0 82 37 128t112 46q76 0 112.5 -47z" />
    <glyph glyph-name="Scaron" unicode="&#x160;" horiz-adv-x="369" 
d="M187 773l61 63h45l-84 -90h-43l-83 90h44zM298.5 659q36.5 -47 36.5 -127v-16h-45v18q0 59 -24.5 93.5t-78.5 34.5t-78.5 -34t-24.5 -93q0 -38 16 -67.5t40 -51t64 -50.5q44 -32 70 -56t44 -59t18 -82q0 -80 -37 -127.5t-114 -47.5t-114 47.5t-37 127.5v36h44v-39
q0 -59 26 -93t80 -34q55 0 80 33.5t25 93.5q0 38 -16 67.5t-39.5 50.5t-63.5 50q-43 31 -69.5 55.5t-45 60t-18.5 82.5q0 82 37 128t112 46q76 0 112.5 -47z" />
    <glyph glyph-name="scaron" unicode="&#x161;" horiz-adv-x="369" 
d="M187 773l61 63h44l-84 -90h-42l-84 90h44zM298.5 659q36.5 -47 36.5 -127v-16h-45v18q0 59 -24.5 93.5t-78.5 34.5t-78.5 -34t-24.5 -93q0 -38 16 -67.5t40 -51t64 -50.5q44 -32 70 -56t44 -59t18 -82q0 -80 -37 -127.5t-114 -47.5t-114 47.5t-37 127.5v36h44v-39
q0 -59 26 -93t80 -34q55 0 80 33.5t25 93.5q0 38 -16 67.5t-39.5 50.5t-63.5 50q-43 31 -69.5 55.5t-45 60t-18.5 82.5q0 82 37 128t112 46q76 0 112.5 -47z" />
    <glyph glyph-name="uni0162" unicode="&#x162;" horiz-adv-x="386" 
d="M205 -35q31 -1 51 -14.5t20 -42.5q0 -34 -25.5 -51t-59.5 -17t-59.5 16.5t-25.5 47.5v5h30v-5q0 -20 16.5 -29.5t37.5 -9.5t38 10.5t17 30.5q0 22 -16 30.5t-42 8.5h-7v55h-11v656h-142v44h332v-44h-142v-656h-12v-35z" />
    <glyph glyph-name="uni0163" unicode="&#x163;" horiz-adv-x="386" 
d="M205 -36q32 -1 51.5 -14t19.5 -42q0 -34 -25.5 -51t-59.5 -17t-59.5 16.5t-25.5 47.5v5h30v-5q0 -20 16.5 -29.5t37.5 -9.5t38 10.5t17 30.5q0 22 -16 30.5t-42 8.5h-7v55h-11v656h-142v44h332v-44h-142v-656h-12v-36z" />
    <glyph glyph-name="Tcaron" unicode="&#x164;" horiz-adv-x="386" 
d="M193 769l61 63h44l-85 -91h-41l-83 91h43zM169 656h-142v44h332v-44h-142v-656h-48v656z" />
    <glyph glyph-name="tcaron" unicode="&#x165;" horiz-adv-x="386" 
d="M193 769l61 63h44l-85 -91h-41l-83 91h43zM169 656h-142v44h332v-44h-142v-656h-48v656z" />
    <glyph glyph-name="Tbar" unicode="&#x166;" horiz-adv-x="386" 
d="M293 430h-76v-430h-48v430h-76v36h76v190h-142v44h332v-44h-142v-190h76v-36z" />
    <glyph glyph-name="tbar" unicode="&#x167;" horiz-adv-x="386" 
d="M293 430h-76v-430h-48v430h-76v36h76v190h-142v44h332v-44h-142v-190h76v-36z" />
    <glyph glyph-name="Utilde" unicode="&#x168;" 
d="M238 752q-13 0 -23.5 4.5t-24.5 13.5q-15 8 -23.5 12t-19.5 4q-24 0 -42 -31l-25 18q10 23 27 35t37 12q13 0 25 -4.5t26 -13.5q12 -8 21 -11.5t18 -3.5q26 0 39 30l26 -17q-20 -48 -61 -48zM301 42q-37 -49 -113 -49t-113 49t-37 129v529h48v-531q0 -61 24.5 -96
t78.5 -35q55 0 79.5 35t24.5 96v531h45v-529q0 -80 -37 -129z" />
    <glyph glyph-name="utilde" unicode="&#x169;" 
d="M238 752q-13 0 -23.5 4.5t-24.5 13.5q-15 8 -23.5 12t-19.5 4q-24 0 -42 -31l-25 18q10 23 27 35t37 12q13 0 25 -4.5t26 -13.5q12 -8 21 -11.5t18 -3.5q26 0 39 30l26 -17q-20 -48 -61 -48zM301 42q-37 -49 -113 -49t-113 49t-37 129v529h48v-531q0 -61 24.5 -96
t78.5 -35q55 0 79.5 35t24.5 96v531h45v-529q0 -80 -37 -129z" />
    <glyph glyph-name="Umacron" unicode="&#x16a;" 
d="M282 760h-182v34h182v-34zM301 42q-37 -49 -113 -49t-113 49t-37 129v529h48v-531q0 -61 24.5 -96t78.5 -35q55 0 79.5 35t24.5 96v531h45v-529q0 -80 -37 -129z" />
    <glyph glyph-name="umacron" unicode="&#x16b;" 
d="M282 760h-182v34h182v-34zM301 42q-37 -49 -113 -49t-113 49t-37 129v529h48v-531q0 -61 24.5 -96t78.5 -35q55 0 79.5 35t24.5 96v531h45v-529q0 -80 -37 -129z" />
    <glyph glyph-name="Ubreve" unicode="&#x16c;" 
d="M259 763.5q-27 -23.5 -70 -23.5q-42 0 -68.5 23.5t-27.5 64.5h30q1 -29 19.5 -43t46.5 -14t47 14t21 43h30q-1 -41 -28 -64.5zM301 42q-37 -49 -113 -49t-113 49t-37 129v529h48v-531q0 -61 24.5 -96t78.5 -35q55 0 79.5 35t24.5 96v531h45v-529q0 -80 -37 -129z" />
    <glyph glyph-name="ubreve" unicode="&#x16d;" 
d="M259 763.5q-27 -23.5 -70 -23.5q-42 0 -68.5 23.5t-27.5 64.5h30q1 -29 19.5 -43t46.5 -14t47 14t21 43h30q-1 -41 -28 -64.5zM301 42q-37 -49 -113 -49t-113 49t-37 129v529h48v-531q0 -61 24.5 -96t78.5 -35q55 0 79.5 35t24.5 96v531h45v-529q0 -80 -37 -129z" />
    <glyph glyph-name="Uring" unicode="&#x16e;" 
d="M240.5 850q19.5 -19 19.5 -48q0 -28 -19.5 -46.5t-48.5 -18.5q-28 0 -47 18.5t-19 46.5q0 29 19 48t47 19q29 0 48.5 -19zM162 832q-12 -12 -12 -30q0 -17 12.5 -29t29.5 -12q18 0 31 12t13 29q0 18 -13 30t-31 12t-30 -12zM301 42q-37 -49 -113 -49t-113 49t-37 129v529
h48v-531q0 -61 24.5 -96t78.5 -35q55 0 79.5 35t24.5 96v531h45v-529q0 -80 -37 -129z" />
    <glyph glyph-name="uring" unicode="&#x16f;" 
d="M240.5 850q19.5 -19 19.5 -48q0 -28 -19.5 -46.5t-48.5 -18.5q-28 0 -47 18.5t-19 46.5q0 29 19 48t47 19q29 0 48.5 -19zM162 832q-12 -12 -12 -30q0 -17 12.5 -29t29.5 -12q18 0 31 12t13 29q0 18 -13 30t-31 12t-30 -12zM301 42q-37 -49 -113 -49t-113 49t-37 129v529
h48v-531q0 -61 24.5 -96t78.5 -35q55 0 79.5 35t24.5 96v531h45v-529q0 -80 -37 -129z" />
    <glyph glyph-name="Uhungarumlaut" unicode="&#x170;" 
d="M148 745h-33l64 96h46zM234 745h-33l64 96h46zM301 42q-37 -49 -113 -49t-113 49t-37 129v529h48v-531q0 -61 24.5 -96t78.5 -35q55 0 79.5 35t24.5 96v531h45v-529q0 -80 -37 -129z" />
    <glyph glyph-name="uhungarumlaut" unicode="&#x171;" 
d="M148 745h-33l64 96h46zM234 745h-33l64 96h46zM301 42q-37 -49 -113 -49t-113 49t-37 129v529h48v-531q0 -61 24.5 -96t78.5 -35q55 0 79.5 35t24.5 96v531h45v-529q0 -80 -37 -129z" />
    <glyph glyph-name="Uogonek" unicode="&#x172;" 
d="M252 3q-19 -16 -32 -40t-12 -42q1 -16 12 -24.5t27 -8.5q26 0 44 13v-29q-23 -12 -56 -12q-30 0 -47.5 13.5t-17.5 39.5q0 21 14 43.5t35 39.5q-15 -3 -31 -3q-76 0 -113 49t-37 129v529h48v-531q0 -61 24.5 -96t78.5 -35q55 0 79.5 35t24.5 96v531h45v-529
q0 -132 -86 -168z" />
    <glyph glyph-name="uogonek" unicode="&#x173;" 
d="M252 3q-19 -16 -32 -40t-12 -42q1 -16 12 -24.5t27 -8.5q26 0 44 13v-29q-23 -12 -56 -12q-30 0 -47.5 13.5t-17.5 39.5q0 21 14 43.5t35 39.5q-15 -3 -31 -3q-76 0 -113 49t-37 129v529h48v-531q0 -61 24.5 -96t78.5 -35q55 0 79.5 35t24.5 96v531h45v-529
q0 -132 -86 -168z" />
    <glyph glyph-name="Wcircumflex" unicode="&#x174;" horiz-adv-x="601" 
d="M198 744l85 90h40l85 -90h-44l-60 63l-62 -63h-44zM143 0l-113 700h47l103 -636l102 634h50l97 -632l100 634h42l-111 -700h-62l-92 568l-97 -568h-66z" />
    <glyph glyph-name="wcircumflex" unicode="&#x175;" horiz-adv-x="601" 
d="M198 744l85 90h40l85 -90h-44l-60 63l-62 -63h-44zM143 0l-113 700h47l103 -636l102 634h50l97 -632l100 634h42l-111 -700h-62l-92 568l-97 -568h-66z" />
    <glyph glyph-name="Ycircumflex" unicode="&#x176;" horiz-adv-x="413" 
d="M103 743l84 90h42l85 -90h-45l-61 63l-61 -63h-44zM26 700h49l133 -367l133 367h47l-158 -431v-269h-48v269z" />
    <glyph glyph-name="ycircumflex" unicode="&#x177;" horiz-adv-x="413" 
d="M103 743l84 90h42l85 -90h-45l-61 63l-61 -63h-44zM26 700h49l133 -367l133 367h47l-158 -431v-269h-48v269z" />
    <glyph glyph-name="Ydieresis" unicode="&#x178;" horiz-adv-x="413" 
d="M179 741h-42v85h42v-85zM278 741h-43v85h43v-85zM26 700h49l133 -367l133 367h47l-158 -431v-269h-48v269z" />
    <glyph glyph-name="Zacute" unicode="&#x179;" horiz-adv-x="387" 
d="M205 747h-35l71 95h49zM34 0v44l269 612h-257v44h306v-44l-270 -612h267v-44h-315z" />
    <glyph glyph-name="zacute" unicode="&#x17a;" horiz-adv-x="387" 
d="M205 747h-35l71 95h49zM34 0v44l269 612h-257v44h306v-44l-270 -612h267v-44h-315z" />
    <glyph glyph-name="Zdotaccent" unicode="&#x17b;" horiz-adv-x="387" 
d="M228 746h-43v85h43v-85zM34 0v44l269 612h-257v44h306v-44l-270 -612h267v-44h-315z" />
    <glyph glyph-name="zdotaccent" unicode="&#x17c;" horiz-adv-x="387" 
d="M228 746h-43v85h43v-85zM34 0v44l269 612h-257v44h306v-44l-270 -612h267v-44h-315z" />
    <glyph glyph-name="Zcaron" unicode="&#x17d;" horiz-adv-x="387" 
d="M200 772l61 64h44l-85 -91h-40l-85 91h44zM34 0v44l269 612h-257v44h306v-44l-270 -612h267v-44h-315z" />
    <glyph glyph-name="zcaron" unicode="&#x17e;" horiz-adv-x="387" 
d="M200 772l61 64h44l-85 -91h-40l-85 91h44zM34 0v44l269 612h-257v44h306v-44l-270 -612h267v-44h-315z" />
    <glyph glyph-name="AEacute" unicode="&#x1fc;" horiz-adv-x="588" 
d="M327 745h-36l71 96h49zM518 334h-170v-290h205v-44h-252v157h-173l-56 -157h-46l247 700h280v-44h-205v-280h170v-42zM301 199v442l-161 -442h161z" />
    <glyph glyph-name="aeacute" unicode="&#x1fd;" horiz-adv-x="588" 
d="M327 745h-36l71 96h49zM518 334h-170v-290h205v-44h-252v157h-173l-56 -157h-46l247 700h280v-44h-205v-280h170v-42zM301 199v442l-161 -442h161z" />
    <glyph glyph-name="uni0237" unicode="&#x237;" horiz-adv-x="253" 
d="M41 44q66 0 96 27.5t30 98.5v530h48v-528q0 -87 -36.5 -127t-104.5 -44q-20 -2 -28 -2q-12 0 -18 1v44h13z" />
    <glyph glyph-name="uni02BC" unicode="&#x2bc;" horiz-adv-x="134" 
d="M44 535l20 77h-16v88h46v-84l-30 -81h-20z" />
    <glyph glyph-name="circumflex" unicode="&#x2c6;" horiz-adv-x="248" 
d="M19 758l84 90h42l84 -90h-44l-61 63l-61 -63h-44z" />
    <glyph glyph-name="caron" unicode="&#x2c7;" horiz-adv-x="248" 
d="M124 785l61 63h44l-84 -90h-42l-84 90h44z" />
    <glyph glyph-name="breve" unicode="&#x2d8;" horiz-adv-x="253" 
d="M196 757q-27 -24 -70 -24q-42 0 -68.5 24t-27.5 65h29q1 -29 20 -43t47 -14q29 0 48 14t20 43h30q-1 -41 -28 -65z" />
    <glyph glyph-name="dotaccent" unicode="&#x2d9;" horiz-adv-x="152" 
d="M97 749h-42v84h42v-84z" />
    <glyph glyph-name="ring" unicode="&#x2da;" horiz-adv-x="219" 
d="M157.5 861.5q19.5 -19.5 19.5 -47.5t-19.5 -47.5t-47.5 -19.5t-48 19.5t-20 47.5t19.5 47.5t48.5 19.5q28 0 47.5 -19.5zM79 844.5q-12 -11.5 -12 -30.5q0 -18 12 -30t31 -12q17 0 29.5 12t12.5 30t-12 30t-30 12q-19 0 -31 -11.5z" />
    <glyph glyph-name="ogonek" unicode="&#x2db;" horiz-adv-x="207" 
d="M93.5 -37q-12.5 -23 -11.5 -42q0 -16 11 -24.5t28 -8.5q25 0 43 13v-29q-24 -12 -57 -12q-29 0 -46.5 13.5t-17.5 39.5q0 22 16 46t41 43h26q-20 -16 -32.5 -39z" />
    <glyph glyph-name="tilde" unicode="&#x2dc;" horiz-adv-x="260" 
d="M179 751q-12 0 -21.5 4t-26.5 13q-14 8 -23.5 12t-20.5 4q-26 0 -42 -30l-25 17q21 48 66 48q21 0 49 -18q2 -1 10.5 -6t16 -7.5t13.5 -2.5q24 0 39 31l26 -17q-21 -48 -61 -48z" />
    <glyph glyph-name="hungarumlaut" unicode="&#x2dd;" horiz-adv-x="233" 
d="M48 753h-34l65 95h46zM134 753h-33l63 95h47z" />
    <glyph glyph-name="uni0401" unicode="&#x401;" horiz-adv-x="352" 
d="M150 745h-42v85h42v-85zM249 745h-43v85h43v-85zM278 334h-190v-290h229v-44h-277v700h277v-44h-229v-280h190v-42z" />
    <glyph glyph-name="uni0410" unicode="&#x410;" horiz-adv-x="434" 
d="M72 0h-43l153 701h68l155 -701h-48l-34 154h-216zM316 196l-103 450l-98 -450h201z" />
    <glyph glyph-name="uni0411" unicode="&#x411;" horiz-adv-x="387" 
d="M310 366q40 -37 40 -120v-79q0 -167 -156 -167h-153v700h282v-44h-235v-253h99q83 0 123 -37zM277 73.5q26 29.5 26 90.5v85q0 62 -27.5 86t-88.5 24h-99v-315h106q57 0 83 29.5z" />
    <glyph glyph-name="uni0412" unicode="&#x412;" horiz-adv-x="378" 
d="M298 663.5q33 -36.5 33 -112.5v-40q0 -60 -20 -93.5t-70 -44.5q55 -11 79 -49t24 -101v-60q0 -163 -154 -163h-150v700h148q77 0 110 -36.5zM256.5 415q27.5 23 27.5 87v45q0 56 -21.5 82.5t-75.5 26.5h-99v-264h76q65 0 92.5 23zM271.5 74q25.5 30 25.5 89v63
q0 66 -29.5 94.5t-93.5 28.5h-86v-305h102q56 0 81.5 30z" />
    <glyph glyph-name="uni0413" unicode="&#x413;" horiz-adv-x="347" 
d="M88 0h-47v700h269v-44h-222v-656z" />
    <glyph glyph-name="uni0414" unicode="&#x414;" horiz-adv-x="488" 
d="M409 0h-332v-98h-46v142h48q19 20 25.5 46t8.5 65l27 545h257v-656h58v-142h-46v98zM150.5 88.5q-6.5 -25.5 -23.5 -44.5h223v612h-165l-26 -501q-2 -41 -8.5 -66.5z" />
    <glyph glyph-name="uni0415" unicode="&#x415;" horiz-adv-x="352" 
d="M278 334h-190v-290h229v-44h-277v700h277v-44h-229v-280h190v-42z" />
    <glyph glyph-name="uni0417" unicode="&#x417;" horiz-adv-x="378" 
d="M303 658.5q37 -47.5 37 -128.5v-18q0 -52 -25 -91t-69 -54q46 -12 70 -50t24 -91v-55q0 -81 -37 -129t-114 -48t-114 48t-37 129v58h45v-60q0 -60 25.5 -95.5t79.5 -35.5q105 0 105 134v54q0 55 -28 86.5t-79 31.5h-39v42h42q46 0 75 33.5t29 82.5v26q0 134 -105 134
q-55 0 -80.5 -35t-25.5 -95v-38h-43v37q0 80 36.5 127.5t113.5 47.5t114 -47.5z" />
    <glyph glyph-name="uni041A" unicode="&#x41a;" horiz-adv-x="404" 
d="M88 253v-253h-48v700h48v-368l226 368h50l-200 -325l211 -375h-48l-191 327z" />
    <glyph glyph-name="uni041B" unicode="&#x41b;" horiz-adv-x="438" 
d="M161 171q-3 -84 -28 -128t-96 -44h-9v44q37 0 55.5 16.5t24 42t6.5 68.5l19 530h264v-700h-48v656h-169z" />
    <glyph glyph-name="uni041C" unicode="&#x41c;" horiz-adv-x="506" 
d="M229 2l-147 615v-617h-42v700h68l146 -615l144 615h68v-700h-45v619l-144 -617h-48z" />
    <glyph glyph-name="uni041D" unicode="&#x41d;" horiz-adv-x="391" 
d="M88 0h-48v700h48v-329h216v329h47v-700h-47v329h-216v-329z" />
    <glyph glyph-name="uni041E" unicode="&#x41e;" horiz-adv-x="382" 
d="M75.5 658q38.5 48 114.5 48q78 0 116.5 -48t38.5 -128v-359q0 -81 -38.5 -129t-116.5 -48q-76 0 -114.5 48.5t-38.5 128.5v359q0 80 38.5 128zM110 73.5q26 -35.5 80 -35.5q56 0 82 35t26 96v363q0 61 -26 95.5t-82 34.5q-54 0 -80 -35t-26 -95v-363q0 -60 26 -95.5z" />
    <glyph glyph-name="uni041F" unicode="&#x41f;" horiz-adv-x="391" 
d="M88 0h-48v700h311v-700h-47v656h-216v-656z" />
    <glyph glyph-name="uni0420" unicode="&#x420;" horiz-adv-x="364" 
d="M335 531v-77q0 -84 -39.5 -125t-122.5 -41h-85v-288h-48v700h145q150 0 150 -169zM260.5 359.5q27.5 28.5 27.5 91.5v82q0 60 -23.5 91.5t-79.5 31.5h-97v-325h85q60 0 87.5 28.5z" />
    <glyph glyph-name="uni0421" unicode="&#x421;" horiz-adv-x="374" 
d="M302 658q37 -48 37 -128v-58h-45v60q0 60 -25.5 95t-79.5 35t-79.5 -35t-25.5 -95v-363q0 -60 25.5 -95t79.5 -35t79.5 35t25.5 95v83h45v-81q0 -80 -37 -128.5t-114 -48.5t-114 48.5t-37 128.5v359q0 80 37 128t114 48t114 -48z" />
    <glyph glyph-name="uni0422" unicode="&#x422;" horiz-adv-x="386" 
d="M169 656h-142v44h332v-44h-142v-656h-48v656z" />
    <glyph glyph-name="uni0424" unicode="&#x424;" horiz-adv-x="556" 
d="M518 443v-191q0 -176 -161 -176h-55v-76h-48v76h-57q-160 0 -160 176v191q0 177 160 177h57v80h48v-80h55q161 0 161 -177zM111 544q-27 -33 -27 -98v-197q0 -64 27 -97.5t86 -33.5h57v459h-57q-59 0 -86 -33zM444.5 151q27.5 33 27.5 98v197q0 65 -27 98t-88 33h-55
v-459h55q60 0 87.5 33z" />
    <glyph glyph-name="uni0425" unicode="&#x425;" horiz-adv-x="439" 
d="M77 0h-47l158 363l-147 337h50l131 -299l132 299h45l-146 -337l156 -363h-51l-140 325z" />
    <glyph glyph-name="uni0426" unicode="&#x426;" horiz-adv-x="454" 
d="M375 0h-322v700h46v-656h216v656h48v-656h58v-138h-46v94z" />
    <glyph glyph-name="uni0427" unicode="&#x427;" horiz-adv-x="388" 
d="M249.5 284.5q-31.5 -17.5 -71.5 -17.5q-70 0 -105.5 48t-35.5 123v262h48v-259q0 -57 27 -94t79 -37q86 0 109 90v300h47v-700h-47v336q-19 -34 -50.5 -51.5z" />
    <glyph glyph-name="uni0428" unicode="&#x428;" horiz-adv-x="564" 
d="M88 44h171v656h48v-656h170v656h47v-700h-484v700h48v-656z" />
    <glyph glyph-name="uni0429" unicode="&#x429;" horiz-adv-x="615" 
d="M537 0h-497v700h48v-656h170v656h48v-656h171v656h47v-656h59v-138h-46v94z" />
    <glyph glyph-name="uni042A" unicode="&#x42a;" horiz-adv-x="434" 
d="M360.5 372q39.5 -41 39.5 -125v-77q0 -80 -36 -125t-114 -45h-144v656h-96v44h143v-287h86q82 0 121.5 -41zM329 76q24 32 24 92v81q0 63 -27 91.5t-87 28.5h-86v-325h97q55 0 79 32z" />
    <glyph glyph-name="uni042B" unicode="&#x42b;" horiz-adv-x="489" 
d="M295.5 372q39.5 -41 39.5 -125v-77q0 -80 -36 -125t-114 -45h-145v700h48v-287h85q83 0 122.5 -41zM449 0h-48v700h48v-700zM264 76q24 32 24 92v81q0 63 -27.5 91.5t-87.5 28.5h-85v-325h97q55 0 79 32z" />
    <glyph glyph-name="uni042C" unicode="&#x42c;" horiz-adv-x="370" 
d="M295.5 372q39.5 -41 39.5 -125v-77q0 -80 -36 -125t-114 -45h-145v700h48v-287h85q83 0 122.5 -41zM264 76q24 32 24 92v81q0 63 -27.5 91.5t-87.5 28.5h-85v-325h97q55 0 79 32z" />
    <glyph glyph-name="uni042D" unicode="&#x42d;" horiz-adv-x="373" 
d="M299 658q37 -48 37 -128v-359q0 -80 -37 -128.5t-113 -48.5q-77 0 -114 48.5t-37 128.5v68h45v-70q0 -60 25 -95t79 -35q55 0 80 35t25 95v172h-141v42h141v149q0 60 -25 95t-80 35q-54 0 -79 -35t-25 -95v-47h-44v45q0 81 36.5 128.5t113.5 47.5q76 0 113 -48z" />
    <glyph glyph-name="uni042E" unicode="&#x42e;" horiz-adv-x="554" 
d="M478 658q39 -48 39 -128v-359q0 -80 -39 -128.5t-116 -48.5q-78 0 -116 48t-38 129v158h-120v-329h-48v700h48v-329h120v159q0 81 38 128.5t116 47.5q77 0 116 -48zM281 627q-26 -35 -26 -95v-363q0 -60 26 -95.5t81 -35.5t81 35.5t26 95.5v363q0 60 -26 95t-81 35
t-81 -35z" />
    <glyph glyph-name="uni042F" unicode="&#x42f;" horiz-adv-x="386" 
d="M129.5 286q-32.5 -26 -32.5 -92v-110q0 -30 -3 -49t-12 -35h-49q17 28 17 84v109q0 122 100 143q-51 12 -75.5 48t-24.5 98v60q0 77 35.5 117.5t113.5 40.5h147v-700h-47v312h-72q-65 0 -97.5 -26zM121.5 626q-24.5 -30 -24.5 -88v-66q0 -66 31.5 -91t96.5 -25h74v300
h-98q-55 0 -79.5 -30z" />
    <glyph glyph-name="uni0430" unicode="&#x430;" horiz-adv-x="434" 
d="M72 0h-43l153 701h68l155 -701h-48l-34 154h-216zM316 196l-103 450l-98 -450h201z" />
    <glyph glyph-name="uni0431" unicode="&#x431;" horiz-adv-x="387" 
d="M310 366q40 -37 40 -120v-79q0 -167 -156 -167h-153v700h282v-44h-235v-253h99q83 0 123 -37zM277 73.5q26 29.5 26 90.5v85q0 62 -27.5 86t-88.5 24h-99v-315h106q57 0 83 29.5z" />
    <glyph glyph-name="uni0432" unicode="&#x432;" horiz-adv-x="378" 
d="M298 663.5q33 -36.5 33 -112.5v-40q0 -60 -20.5 -93t-71.5 -45q105 -20 105 -150v-60q0 -163 -154 -163h-150v700h148q77 0 110 -36.5zM256.5 415q27.5 23 27.5 87v45q0 56 -21.5 82.5t-75.5 26.5h-99v-264h76q65 0 92.5 23zM271.5 74q25.5 30 25.5 89v63
q0 66 -29.5 94.5t-93.5 28.5h-86v-305h102q56 0 81.5 30z" />
    <glyph glyph-name="uni0433" unicode="&#x433;" horiz-adv-x="347" 
d="M88 0h-47v700h269v-44h-222v-656z" />
    <glyph glyph-name="uni0434" unicode="&#x434;" horiz-adv-x="488" 
d="M409 0h-332v-98h-46v142h48q19 20 25.5 46t8.5 65l27 545h257v-656h58v-142h-46v98zM150.5 88.5q-6.5 -25.5 -23.5 -44.5h223v612h-165l-26 -501q-2 -41 -8.5 -66.5z" />
    <glyph glyph-name="uni0435" unicode="&#x435;" horiz-adv-x="352" 
d="M278 334h-190v-290h229v-44h-277v700h277v-44h-229v-280h190v-42z" />
    <glyph glyph-name="uni0437" unicode="&#x437;" horiz-adv-x="378" 
d="M303 658.5q37 -47.5 37 -128.5v-18q0 -52 -25 -91t-69 -54q46 -12 70 -50t24 -91v-55q0 -81 -37 -129t-114 -48t-114 48t-37 129v58h45v-60q0 -60 25.5 -95.5t79.5 -35.5q105 0 105 134v54q0 55 -28 86.5t-79 31.5h-39v42h42q46 0 75 33.5t29 82.5v26q0 134 -105 134
q-55 0 -80.5 -35t-25.5 -95v-38h-43v37q0 80 36.5 127.5t113.5 47.5t114 -47.5z" />
    <glyph glyph-name="uni0438" unicode="&#x438;" horiz-adv-x="392" 
d="M92 0h-52v700h44v-595l80 229l133 366h56v-700h-43v616l-105 -291z" />
    <glyph glyph-name="uni0439" unicode="&#x439;" horiz-adv-x="393" 
d="M274.5 768q-27.5 -23 -72.5 -23q-44 0 -72 22.5t-29 63.5h32q3 -55 69 -55t69 55h32q-1 -40 -28.5 -63zM92 0h-52v700h44v-595l87 247l126 348h56v-700h-43v616l-94 -264z" />
    <glyph glyph-name="uni043A" unicode="&#x43a;" horiz-adv-x="404" 
d="M88 253v-253h-48v700h48v-368l226 368h50l-200 -325l211 -375h-48l-191 327z" />
    <glyph glyph-name="uni043B" unicode="&#x43b;" horiz-adv-x="438" 
d="M161 171q-3 -84 -28 -128t-96 -44h-9v44q37 0 55.5 16.5t24 42t6.5 68.5l19 530h264v-700h-48v656h-169z" />
    <glyph glyph-name="uni043C" unicode="&#x43c;" horiz-adv-x="506" 
d="M229 2l-147 615v-617h-42v700h68l146 -615l144 615h68v-700h-45v619l-144 -617h-48z" />
    <glyph glyph-name="uni043D" unicode="&#x43d;" horiz-adv-x="391" 
d="M88 0h-48v700h48v-329h216v329h47v-700h-47v329h-216v-329z" />
    <glyph glyph-name="uni043E" unicode="&#x43e;" horiz-adv-x="382" 
d="M75.5 658q38.5 48 114.5 48q78 0 116.5 -48t38.5 -128v-359q0 -81 -38.5 -129t-116.5 -48q-76 0 -114.5 48.5t-38.5 128.5v359q0 80 38.5 128zM110 73.5q26 -35.5 80 -35.5q56 0 82 35t26 96v363q0 61 -26 95.5t-82 34.5q-54 0 -80 -35t-26 -95v-363q0 -60 26 -95.5z" />
    <glyph glyph-name="uni043F" unicode="&#x43f;" horiz-adv-x="391" 
d="M88 0h-48v700h311v-700h-47v656h-216v-656z" />
    <glyph glyph-name="uni0440" unicode="&#x440;" horiz-adv-x="364" 
d="M335 531v-77q0 -84 -39.5 -125t-122.5 -41h-85v-288h-48v700h145q150 0 150 -169zM260.5 359.5q27.5 28.5 27.5 91.5v82q0 60 -23.5 91.5t-79.5 31.5h-97v-325h85q60 0 87.5 28.5z" />
    <glyph glyph-name="uni0441" unicode="&#x441;" horiz-adv-x="374" 
d="M302 658q37 -48 37 -128v-58h-45v60q0 60 -25.5 95t-79.5 35t-79.5 -35t-25.5 -95v-363q0 -60 25.5 -95t79.5 -35t79.5 35t25.5 95v83h45v-81q0 -80 -37 -128.5t-114 -48.5t-114 48.5t-37 128.5v359q0 80 37 128t114 48t114 -48z" />
    <glyph glyph-name="uni0442" unicode="&#x442;" horiz-adv-x="386" 
d="M169 656h-142v44h332v-44h-142v-656h-48v656z" />
    <glyph glyph-name="uni0444" unicode="&#x444;" horiz-adv-x="556" 
d="M518 443v-191q0 -176 -161 -176h-55v-76h-48v76h-57q-160 0 -160 176v191q0 177 160 177h57v80h48v-80h55q161 0 161 -177zM111 544q-27 -33 -27 -98v-197q0 -64 27 -97.5t86 -33.5h57v459h-57q-59 0 -86 -33zM444.5 151q27.5 33 27.5 98v197q0 65 -27 98t-88 33h-55
v-459h55q60 0 87.5 33z" />
    <glyph glyph-name="uni0445" unicode="&#x445;" horiz-adv-x="439" 
d="M77 0h-47l158 363l-147 337h50l131 -299l132 299h45l-146 -337l156 -363h-51l-140 325z" />
    <glyph glyph-name="uni0446" unicode="&#x446;" horiz-adv-x="454" 
d="M375 0h-322v700h46v-656h216v656h48v-656h58v-138h-46v94z" />
    <glyph glyph-name="uni0447" unicode="&#x447;" horiz-adv-x="388" 
d="M250 284q-32 -17 -72 -17q-70 0 -105.5 48t-35.5 123v262h48v-259q0 -57 27 -94t79 -37q86 0 109 90v300h47v-700h-47v334q-18 -33 -50 -50z" />
    <glyph glyph-name="uni0448" unicode="&#x448;" horiz-adv-x="564" 
d="M88 44h171v656h48v-656h170v656h47v-700h-484v700h48v-656z" />
    <glyph glyph-name="uni0449" unicode="&#x449;" horiz-adv-x="615" 
d="M537 0h-497v700h48v-656h170v656h48v-656h171v656h47v-656h59v-138h-46v94z" />
    <glyph glyph-name="uni044A" unicode="&#x44a;" horiz-adv-x="434" 
d="M360.5 372q39.5 -41 39.5 -125v-77q0 -80 -36 -125t-114 -45h-144v656h-96v44h143v-287h86q82 0 121.5 -41zM329 76q24 32 24 92v81q0 63 -27 91.5t-87 28.5h-86v-325h97q55 0 79 32z" />
    <glyph glyph-name="uni044B" unicode="&#x44b;" horiz-adv-x="489" 
d="M295.5 372q39.5 -41 39.5 -125v-77q0 -80 -36 -125t-114 -45h-145v700h48v-287h85q83 0 122.5 -41zM449 0h-48v700h48v-700zM264 76q24 32 24 92v81q0 63 -27.5 91.5t-87.5 28.5h-85v-325h97q55 0 79 32z" />
    <glyph glyph-name="uni044C" unicode="&#x44c;" horiz-adv-x="370" 
d="M295.5 372q39.5 -41 39.5 -125v-77q0 -80 -36 -125t-114 -45h-145v700h48v-287h85q83 0 122.5 -41zM264 76q24 32 24 92v81q0 63 -27.5 91.5t-87.5 28.5h-85v-325h97q55 0 79 32z" />
    <glyph glyph-name="uni044D" unicode="&#x44d;" horiz-adv-x="373" 
d="M299 658q37 -48 37 -128v-359q0 -80 -37 -128.5t-113 -48.5q-77 0 -114 48.5t-37 128.5v68h45v-70q0 -60 25 -95t79 -35q55 0 80 35t25 95v172h-141v42h141v149q0 60 -25 95t-80 35q-54 0 -79 -35t-25 -95v-47h-44v45q0 81 36.5 128.5t113.5 47.5q76 0 113 -48z" />
    <glyph glyph-name="uni044E" unicode="&#x44e;" horiz-adv-x="554" 
d="M478 658q39 -48 39 -128v-359q0 -80 -39 -128.5t-116 -48.5q-78 0 -116 48t-38 129v158h-120v-329h-48v700h48v-329h120v159q0 81 38 128.5t116 47.5q77 0 116 -48zM281 627q-26 -35 -26 -95v-363q0 -60 26 -95.5t81 -35.5t81 35.5t26 95.5v363q0 60 -26 95t-81 35
t-81 -35z" />
    <glyph glyph-name="uni044F" unicode="&#x44f;" horiz-adv-x="386" 
d="M129.5 286q-32.5 -26 -32.5 -92v-110q0 -30 -3 -49t-12 -35h-49q17 28 17 84v109q0 122 100 143q-51 12 -75.5 48t-24.5 98v60q0 77 35.5 117.5t113.5 40.5h147v-700h-47v312h-72q-65 0 -97.5 -26zM121.5 626q-24.5 -30 -24.5 -88v-66q0 -66 31.5 -91t96.5 -25h74v300
h-98q-55 0 -79.5 -30z" />
    <glyph glyph-name="uni0451" unicode="&#x451;" horiz-adv-x="352" 
d="M150 745h-42v85h42v-85zM249 745h-43v85h43v-85zM278 334h-190v-290h229v-44h-277v700h277v-44h-229v-280h190v-42z" />
    <glyph glyph-name="uni10D0" unicode="&#x10d0;" horiz-adv-x="268" 
d="M137 392v-37q0 -16 11.5 -33.5t34.5 -44.5q29 -34 43 -56.5t14 -47.5v-61q0 -49 -18.5 -83.5t-83.5 -34.5q-47 0 -69.5 20t-27.5 45.5t-5 57.5v46h48v-68q0 -28 15.5 -44t38.5 -16q22 0 38 16.5t16 43.5v74q0 22 -12.5 41.5t-37.5 47.5q-26 29 -39.5 50.5t-13.5 46.5v37
h48z" />
    <glyph glyph-name="uni10D1" unicode="&#x10d1;" horiz-adv-x="271" 
d="M54 19q-23 29 -23 91l1 192q0 39 23 60.5t55 20.5v8q0 11 3.5 20.5t7.5 17.5l41 85q2 4 6.5 12.5t4.5 13.5q0 6 -10 16q-8 9 -36 34.5t-41 36.5v-118h-48v186h51l49 -46l80 -76q6 -5 7.5 -9.5t1.5 -15.5q0 -14 -9 -30l-53 -102q-5 -10 -5 -24v-9q75 3 75 -99v-174
q0 -120 -103 -120q-55 0 -78 29zM171 48q15 17 15 42v192q0 27 -15.5 44.5t-37.5 17.5q-23 0 -38.5 -18.5t-15.5 -43.5v-192q0 -26 15 -42.5t39 -16.5q23 0 38 17z" />
    <glyph glyph-name="uni10D2" unicode="&#x10d2;" horiz-adv-x="282" 
d="M175 96q37 -7 54 -41t17 -77v-162q0 -47 -19 -79t-83 -32q-63 0 -83 32.5t-20 79.5v161q0 44 14.5 78.5t63.5 50.5q14 4 27.5 14t21.5 22q12 15 15.5 27.5t3.5 38.5v98q0 28 -16 45t-38 17t-38 -17t-16 -45v-104h-48v89q0 31 5.5 55.5t28 43t68.5 18.5q63 0 82.5 -30.5
t19.5 -75.5v-102q0 -39 -15.5 -68.5t-44.5 -35.5v-1zM181.5 44.5q-15.5 16.5 -37.5 16.5q-23 0 -38.5 -16.5t-15.5 -43.5v-196q0 -27 15.5 -43.5t38.5 -16.5q22 0 37.5 16.5t15.5 43.5v196q0 27 -15.5 43.5z" />
    <glyph glyph-name="uni10D3" unicode="&#x10d3;" horiz-adv-x="437" 
d="M105.5 342.5q15.5 16.5 37.5 16.5q23 0 38.5 -16t15.5 -44v-148q0 -47 19.5 -80t82.5 -33q102 0 102 108v141q0 48 -19.5 80t-82.5 32q-20 0 -41 -12t-35 -27h-1q-13 15 -35 27t-44 12q-65 0 -83.5 -33.5t-18.5 -82.5v-171q0 -64 48 -103v-2h-62v-44h28q52 0 106.5 -34
t96 -91.5t57.5 -122.5h48q-20 90 -74 155t-129 123q-33 26 -51.5 51t-18.5 67v188q0 27 15.5 43.5zM353 139q0 -28 -15.5 -44t-38.5 -16q-22 0 -38 16.5t-16 43.5v160q0 27 16 43.5t38 16.5q23 0 38.5 -16t15.5 -44v-160z" />
    <glyph glyph-name="uni10D4" unicode="&#x10d4;" horiz-adv-x="278" 
d="M221.5 -261q-19.5 -33 -82.5 -33q-47 0 -69.5 20t-28 44.5t-5.5 56.5v233h48v-254q0 -28 16 -44t39 -16q22 0 38 16.5t16 43.5v510q0 28 -15 44t-36 16q-22 0 -36.5 -16t-14.5 -44v-118h-48v106q0 31 5.5 54.5t27.5 40.5t66 17q61 0 80 -32t19 -79v-485q0 -48 -19.5 -81z
" />
    <glyph glyph-name="uni10D5" unicode="&#x10d5;" horiz-adv-x="280" 
d="M171 351q-16 16 -38 16q-23 0 -38.5 -16t-15.5 -44v-110h-48v95q0 48 19 81.5t83 33.5q62 0 82 -31.5t20 -77.5v-129q0 -26 -8.5 -50t-26.5 -42v-1q30 -16 38 -43t8 -62v-164q0 -46 -20 -78t-82 -32q-64 0 -83.5 33.5t-19.5 80.5v164h49v-178q0 -27 15.5 -43t38.5 -16
q22 0 37.5 16t15.5 43v190q0 28 -16.5 45.5t-38.5 17.5h-22v40h24q20 0 31.5 16.5t11.5 46.5v154q0 28 -16 44z" />
    <glyph glyph-name="uni10D6" unicode="&#x10d6;" horiz-adv-x="294" 
d="M249.5 319q8.5 -24 8.5 -47v-174q0 -47 -19.5 -78t-82.5 -31t-82.5 33t-19.5 80v158q0 63 19.5 100t51.5 67q21 21 24 32h-1q-4 -5 -13.5 -8t-19.5 -3q-53 0 -76 22.5t-23 63.5v80q0 42 25.5 68.5t78.5 26.5q52 0 76 -26t24 -69v-88q0 -37 -18 -65.5t-48 -59.5
q-20 -20 -23 -27h1q5 3 15 5t17 2q24 0 42 -9l23 21l15 -15l-20 -19q17 -16 25.5 -40zM156 501.5q16 13.5 16 32.5v80q0 23 -15.5 38.5t-38.5 15.5q-24 0 -39 -15.5t-15 -38.5v-80q0 -19 14.5 -32.5t37.5 -13.5q24 0 40 13.5zM210 281q0 28 -16 44t-38 16t-38 -16.5
t-16 -43.5v-192q0 -27 16 -43t38 -16t38 16t16 43v192z" />
    <glyph glyph-name="uni10D7" unicode="&#x10d7;" horiz-adv-x="433" 
d="M295 396q62 0 82 -32t20 -79v-285h-49v296q0 28 -15 44t-38 16t-37.5 -15.5t-14.5 -44.5v-187q0 -53 -22.5 -86t-81.5 -33q-57 0 -79.5 30.5t-22.5 82.5v185q0 47 23 77.5t79 30.5q24 0 44 -11.5t33 -27.5h2q35 39 77 39zM193 296q0 29 -14.5 44.5t-39.5 15.5
q-24 0 -39 -16t-15 -44v-205q0 -27 15.5 -43.5t38.5 -16.5q22 0 38 16.5t16 43.5v205z" />
    <glyph glyph-name="uni10D8" unicode="&#x10d8;" horiz-adv-x="278" 
d="M193 0v302q0 27 -16 43.5t-38 16.5q-23 0 -38.5 -16t-15.5 -44v-302h-48v286q0 31 5.5 55t28 42.5t68.5 18.5t68.5 -18t28 -42t5.5 -54v-288h-48z" />
    <glyph glyph-name="uni10D9" unicode="&#x10d9;" horiz-adv-x="267" 
d="M90 415h22q65 0 83.5 -36t18.5 -86v-82q0 -29 -5 -52t-24 -41v-1q29 -16 37 -42.5t8 -60.5v-199q0 -50 -22.5 -79t-79.5 -29q-63 0 -82.5 32.5t-19.5 78.5v197h48v-208q0 -27 15.5 -43.5t38.5 -16.5q22 0 38 16.5t16 43.5v223q0 27 -22.5 45t-47.5 18h-22v40h25
q21 0 36 17.5t15 45.5v119q0 28 -14.5 44t-36.5 16h-25v40z" />
    <glyph glyph-name="uni10DA" unicode="&#x10da;" horiz-adv-x="601" 
d="M110 41.5q-25 35.5 -25 74.5v203q0 27 16 44t38 17q23 0 38.5 -16.5t15.5 -44.5v-158h48v158q0 27 16 44t38 17q23 0 38 -16t15 -44v-159h49v159q0 27 15.5 43.5t37.5 16.5q23 0 38.5 -16t15.5 -44v-249h48v233q0 48 -19 81.5t-83 33.5q-34 0 -50 -11.5t-26 -27.5h-2
q-1 1 -8.5 12t-25.5 19t-43 8q-32 0 -47.5 -10t-21.5 -19t-8 -11h-2q-13 16 -29 28t-48 12q-65 0 -83.5 -34t-18.5 -83v-186q0 -32 14.5 -61.5t36.5 -47.5v-1h-44v-48h21q72 0 135.5 -31.5t108 -87t60.5 -123.5h48q-40 179 -252 276q-30 14 -55 49.5z" />
    <glyph glyph-name="uni10DB" unicode="&#x10db;" horiz-adv-x="277" 
d="M48 590q0 31 5 55.5t27 43.5t66 19q60 0 77.5 -32t17.5 -80v-491q0 -48 -19 -81.5t-83 -33.5q-47 0 -69.5 20t-27.5 45t-5 57v152q0 64 23 92.5t70 28.5q24 0 36 -6.5t17.5 -12.5t7.5 -8h2v250q0 27 -14.5 43.5t-32.5 16.5q-19 0 -34 -16.5t-15 -43.5v-164h-49v146z
M193 285q0 27 -16 43.5t-38 16.5q-23 0 -38.5 -16t-15.5 -44v-195q0 -27 15.5 -43t38.5 -16q22 0 38 16t16 43v195z" />
    <glyph glyph-name="uni10DC" unicode="&#x10dc;" horiz-adv-x="282" 
d="M180 702q18 -5 31 -5q20 0 41 9v-40q-21 -9 -41 -9q-12 0 -30 5q-26 6 -39 6q-23 0 -40 -18t-17 -48v-243h2q2 2 10 9.5t21 13t29 5.5q59 0 76.5 -31.5t17.5 -79.5v-177q0 -110 -102 -110t-102 108v502q0 46 19 77.5t81 31.5q17 0 43 -6zM100.5 46q15.5 -16 38.5 -16
q22 0 38 16t16 43v198q0 28 -16 44t-38 16q-23 0 -38.5 -16t-15.5 -44v-198q0 -27 15.5 -43z" />
    <glyph glyph-name="uni10DD" unicode="&#x10dd;" horiz-adv-x="433" 
d="M397 290q0 46 -20 79.5t-83 33.5q-21 0 -41 -11.5t-33 -26.5h-8q-13 15 -33 26.5t-41 11.5q-62 0 -81.5 -31.5t-19.5 -78.5v-293h48v303q0 26 15.5 43t37.5 17t38 -16t16 -44v-168h48v168q0 28 15.5 44t38.5 16t38.5 -16t15.5 -44v-303h49v290z" />
    <glyph glyph-name="uni10DE" unicode="&#x10de;" horiz-adv-x="277" 
d="M55.5 21.5q-19.5 31.5 -19.5 78.5v203h48v-213q0 -29 15.5 -44t38.5 -15t38.5 15t15.5 44v226q0 28 -16 45t-38 17h-22v40h25q20 0 32.5 17.5t12.5 46.5q0 28 -10.5 46t-31.5 40q-22 23 -33 40.5t-12 45.5v44h49v-45q1 -19 11 -35t28 -37q23 -27 35 -48.5t12 -50.5
q0 -18 -11 -39t-28 -36v-2q29 -17 37 -44.5t8 -63.5v-202q0 -49 -22.5 -77t-79.5 -28q-63 0 -82.5 31.5z" />
    <glyph glyph-name="uni10DF" unicode="&#x10df;" horiz-adv-x="311" 
d="M229 392l-93 -62v-69q0 -23 -7 -34t-26 -11t-26 10.5t-7 32.5v39h-49v-53q0 -29 21 -49t61 -20t60.5 19.5t20.5 47.5v60l40 27h2v-533q0 -26 -16 -43t-38 -17t-38 16.5t-16 43.5v221h-47v-213q0 -49 22 -78.5t79 -29.5q63 0 82.5 31t19.5 78v586h-45z" />
    <glyph glyph-name="uni10E0" unicode="&#x10e0;" horiz-adv-x="432" 
d="M343 698v-13q0 -52 -29 -93t-89 -95q-53 -50 -85 -88t-35 -56h1q11 12 36 12q29 0 48 -12t27 -28h1q6 16 25.5 28t50.5 12q47 0 69.5 -20t28 -45t5.5 -57v-243h-49v265q0 28 -15 43.5t-37 15.5q-55 0 -55 -59v-162h-48v162q0 29 -14.5 44t-38.5 15q-25 0 -40 -15.5
t-15 -43.5v-265h-48v243q0 59 10 95q25 88 122 170q45 38 85 83t40 91v16h49z" />
    <glyph glyph-name="uni10E1" unicode="&#x10e1;" horiz-adv-x="279" 
d="M55.5 26q-18.5 36 -18.5 86v586h48v-607q0 -27 15.5 -43.5t38.5 -16.5t39.5 16.5t16.5 43.5q0 6 -10 68q-15 86 -15 108q0 25 4 52t10 40h47q-5 -16 -9 -42t-4 -50q0 -21 16 -101q10 -42 10 -54q0 -50 -19 -86t-86 -36q-65 0 -83.5 36z" />
    <glyph glyph-name="uni10E2" unicode="&#x10e2;" horiz-adv-x="404" 
d="M344 165q24 -26 24 -67v-258q0 -33 -17 -63.5t-54.5 -50.5t-94.5 -20q-166 0 -166 134v574h48v-576q0 -40 33 -66t85 -26q53 0 85.5 26.5t32.5 65.5v259q0 60 -74 60q-35 0 -55 -15.5t-20 -44.5v-118q0 -20 6 -34t28 -14q36 0 36 48v112h49v-100q0 -50 -18 -75t-66 -25
q-47 0 -65.5 25t-18.5 75v107q0 39 20 65t45 28v1q-17 7 -26.5 22.5t-9.5 37.5v93q0 31 22 54.5t63 23.5t62 -23t21 -55v-93q0 -46 -32 -60v-1q33 0 57 -26zM264.5 368q-6.5 15 -29.5 15t-29 -14.5t-6 -39.5v-70q0 -24 6 -37.5t29 -13.5t29.5 13.5t6.5 37.5v70q0 24 -6.5 39
z" />
    <glyph glyph-name="uni10E3" unicode="&#x10e3;" horiz-adv-x="384" 
d="M27 402q4 -13 21 -13q6 0 12.5 3.5t8.5 4.5q12 7 22 11t23 4q22 0 41.5 -11.5t30.5 -25.5h1q10 15 27.5 26t40.5 11q49 0 71 -27.5t22 -73.5v-493q0 -48 -19 -80t-83 -32t-83 33t-19 82v205h48v-220q0 -27 16 -43.5t38 -16.5t38 16.5t16 43.5v510q0 29 -13 42.5t-32 13.5
q-18 0 -31 -14t-13 -37v-132h-48v123q0 27 -14.5 43.5t-34.5 16.5q-12 0 -20 -3.5t-19 -9.5q-7 -4 -14 -7t-15 -3q-24 0 -39.5 14.5t-17.5 38.5h38z" />
    <glyph glyph-name="uni10E4" unicode="&#x10e4;" horiz-adv-x="411" 
d="M237 398.5q19 13.5 50 13.5q87 0 87 -102v-183q0 -30 -15 -51t-41 -21v-1q35 0 45.5 -26t10.5 -53v-148q0 -54 -37 -87.5t-119 -33.5q-96 0 -126.5 34.5t-30.5 86.5v165h48v-174q0 -34 31 -53t78 -19t77.5 19.5t30.5 52.5v149q0 28 -9.5 45.5t-26.5 17.5h-23v43h22
q15 0 26 17t11 38v182q0 62 -45 62q-41 0 -41 -54v-136q0 -104 -102 -104q-55 0 -78.5 27.5t-23.5 72.5v139q0 47 21.5 71t75.5 24q31 0 53 -13.5t27 -31.5h1q4 18 23 31.5zM99 133q15 -15 39 -15q23 0 38.5 14.5t15.5 45.5v132q0 32 -15 47t-39 15t-39 -15.5t-15 -46.5
v-132q0 -30 15 -45z" />
    <glyph glyph-name="uni10E5" unicode="&#x10e5;" horiz-adv-x="277" 
d="M199 696l-96 -81l26 -30l71 59h1v-226h-1q-6 13 -23.5 24t-35.5 11q-59 0 -77.5 -30.5t-18.5 -75.5v-118h48v124q0 27 14 43.5t34 16.5q22 0 36.5 -16t14.5 -44v-546q0 -27 -16 -43.5t-38 -16.5t-38 16.5t-16 43.5v266h-47v-260q0 -49 22.5 -77.5t78.5 -28.5
q53 0 77.5 26t24.5 68v895h-41z" />
    <glyph glyph-name="uni10E6" unicode="&#x10e6;" horiz-adv-x="447" 
d="M115.5 356q15.5 16 37.5 16q24 0 39 -15.5t15 -44.5v-151h48v151q0 28 16 44t38 16q23 0 38.5 -15.5t15.5 -44.5v-257h48v256q0 101 -102 101q-23 0 -43 -11.5t-33 -27.5h-1q-14 16 -35 27.5t-44 11.5q-55 0 -78.5 -28t-23.5 -74v-204q0 -30 13.5 -56t37.5 -46v-1h-65
v-45h28q53 0 107.5 -33t95.5 -89t57 -121h48q-14 62 -46.5 112.5t-66.5 83.5t-87 78q-5 4 -26.5 22.5t-34 42t-12.5 51.5v207q0 28 15.5 44z" />
    <glyph glyph-name="uni10E7" unicode="&#x10e7;" horiz-adv-x="278" 
d="M241 -174q0 -31 -5 -55.5t-27.5 -44.5t-68.5 -20q-65 0 -83.5 36t-18.5 85v141h48v-162q0 -27 17 -43.5t37 -16.5q19 0 36 17.5t17 42.5v303h-2q-7 -11 -23 -19t-32 -8q-100 0 -100 102v219h48v-221q0 -28 15.5 -44t38.5 -16q22 0 38 16.5t16 43.5v221h49v-577z" />
    <glyph glyph-name="uni10E8" unicode="&#x10e8;" horiz-adv-x="343" 
d="M160 696q21 11 50 11q52 0 74.5 -29t22.5 -75v-505q0 -109 -103 -109q-47 0 -69.5 20t-27.5 45t-5 57v161q0 104 102 104q16 0 31.5 -8.5t21.5 -18.5h1v258q0 28 -15 44t-37 16q-23 0 -38.5 -16t-15.5 -44v-122h-48v122q0 27 -15 43.5t-34 16.5q-25 0 -35 -15h-2l-22 33
v1q12 11 25.5 16t33.5 5q41 0 72 -36h1q11 14 32 25zM258 276q0 27 -16 43.5t-38 16.5q-23 0 -38.5 -16t-15.5 -44v-187q0 -27 15.5 -43t38.5 -16q22 0 38 16t16 43v187z" />
    <glyph glyph-name="uni10E9" unicode="&#x10e9;" horiz-adv-x="285" 
d="M87 351q6 12 24 20t42 8q47 0 67.5 -27.5t20.5 -74.5v-276h-48v278q0 28 -16 44t-38 16q-23 0 -38.5 -16t-15.5 -44v-278h-48v576q0 60 31.5 95.5t89.5 35.5q38 0 65 -20.5t27 -71.5q0 -62 -51 -107.5t-113 -80.5v-77h1zM124 500.5q32 22.5 54.5 52.5t22.5 62
q0 26 -10 40t-35 14q-33 0 -52 -30.5t-19 -76.5v-89q7 5 39 27.5z" />
    <glyph glyph-name="uni10EA" unicode="&#x10ea;" horiz-adv-x="282" 
d="M213 330.5q6 -30.5 17 -66.5q9 -29 13 -48.5t4 -40.5q0 -24 -15 -46.5t-32 -27.5v-1q23 -7 32 -33.5t9 -82.5v-157q0 -50 -18.5 -85.5t-83.5 -35.5t-83.5 35.5t-18.5 85.5v575h48v-596q0 -28 15.5 -44t38.5 -16q21 0 37.5 16.5t16.5 43.5v182q0 46 -10 70.5t-28 24.5h-7
v40h11q14 0 26.5 13t12.5 48q0 19 -3.5 35.5t-7.5 30.5t-5 18q-11 34 -17 63.5t-7 70.5h48q1 -41 7 -71.5z" />
    <glyph glyph-name="uni10EB" unicode="&#x10eb;" horiz-adv-x="278" 
d="M145 709q53 0 74.5 -28.5t21.5 -76.5v-492q0 -32 -5.5 -57t-28 -45t-69.5 -20t-69.5 20t-27.5 45t-5 57v167q0 46 17.5 77.5t74.5 31.5q18 0 34.5 -7.5t28.5 -19.5h2v248q0 25 -15 40t-33 17l-43 2v41h43zM192 288q0 27 -16 43.5t-38 16.5q-23 0 -38.5 -16t-15.5 -44
v-198q0 -27 15.5 -43t38.5 -16q22 0 38 16t16 43v198z" />
    <glyph glyph-name="uni10EC" unicode="&#x10ec;" horiz-adv-x="316" 
d="M196 521l-9 87q-2 23 -16 36.5t-32 13.5q-20 0 -34.5 -13.5t-14.5 -33.5l3 -34q1 -16 3.5 -47.5t5.5 -83.5h1q12 11 27 18t39 7q42 0 57 -32.5t15 -63.5q0 -15 -20 -252l-33 -407h-76l-40 541q-25 348 -25 357q0 42 27.5 64.5t75.5 22.5q39 0 64 -28h1q7 12 23.5 20
t40.5 8q28 0 50 -14l-20 -36q-12 7 -28 7q-18 0 -34 -13t-17 -34q0 -10 1.5 -36t3.5 -54h-39zM149 -200q10 113 27 320t17 238q0 38 -9.5 56t-31.5 18q-47 0 -45 -55q5 -90 20.5 -305t20.5 -272h1z" />
    <glyph glyph-name="uni10ED" unicode="&#x10ed;" horiz-adv-x="381" 
d="M27 319q0 44 24 71.5t71 27.5q23 0 38 -10.5t18 -23.5h1v196l-40 38v-115h-49v185h51l88 -87v-278h1q35 31 47 87t12 130h49q-1 -58 -15.5 -117.5t-38 -97.5t-48.5 -38v-2q48 0 75.5 -74.5t28.5 -182.5h-49q0 98 -16 153.5t-45 56.5h-2l7 -144q1 -23 16 -72
q18 -60 18 -93v-107q0 -48 -18.5 -80t-83.5 -32q-101 0 -101 97v252h48v-249q0 -27 16 -43.5t37 -16.5q22 0 38 16t16 44v117q0 23 -5 44.5t-14 52.5q-15 47 -15 69v87h-2q-7 -8 -25 -13.5t-37 -5.5q-50 0 -73 27.5t-23 72.5v58zM90.5 217q15.5 -16 40.5 -16q23 0 35 15
t12 45v58q0 59 -47 59q-25 0 -40.5 -15.5t-15.5 -43.5v-58q0 -28 15.5 -44z" />
    <glyph glyph-name="uni10EE" unicode="&#x10ee;" horiz-adv-x="277" 
d="M37 90v610h48v-351h1q8 12 25 20t36 8q15 0 26 -6l36 43l26 -23l-27 -34q17 -15 25 -38t8 -47v-181q0 -102 -102 -102t-102 101zM177 46q16 16 16 43v188q0 28 -16 44t-38 16q-23 0 -38.5 -16t-15.5 -44v-188q0 -27 15.5 -43t38.5 -16q22 0 38 16z" />
    <glyph glyph-name="uni10EF" unicode="&#x10ef;" horiz-adv-x="459" 
d="M138 -184v103h48v-113q0 -27 15.5 -43.5t38.5 -16.5q22 0 38 16.5t16 43.5v110q0 27 -17.5 46.5t-39.5 19.5q-20 0 -31.5 -5t-19.5 -16l-46 23l70 171l-95 117q-12 12 -21 12q-11 0 -18 -7t-7 -16t8 -21t23 -29l32 -38l-37 -31l-32 38q-18 22 -27.5 38t-9.5 38
q0 33 22.5 52t49.5 19q37 0 73 -46l60 -74l35 86q19 52 19 67q0 24 -24 24q-10 0 -17.5 -10.5t-12.5 -22.5t-7 -17l-5 -12l-41 17l4 14q11 29 30.5 50.5t44.5 21.5q39 0 57.5 -19t18.5 -53q0 -22 -7 -42l-59 -146l44 -54q16 -19 26.5 -27t19.5 -8q10 0 16 7.5t6 15.5
q-1 9 -8 19t-21 26l-7 8l35 31l10 -11q35 -37 35 -68q0 -27 -22.5 -49.5t-47.5 -22.5q-21 0 -39 11t-39 36l-29 33l-42 -94h1q12 6 41 6q23 0 45.5 -13.5t36.5 -35.5t14 -46v-116q0 -46 -19.5 -76.5t-82.5 -30.5q-102 0 -102 110z" />
    <glyph glyph-name="uni10F0" unicode="&#x10f0;" horiz-adv-x="266" 
d="M164 502q-18 -12 -43 -12h-49v-45h38q72 0 72 -53q0 -29 -19 -39.5t-34 -10.5h-55v-45h53q24 0 39.5 -16.5t15.5 -46.5v-141q0 -26 -15 -41.5t-34 -15.5t-34 15.5t-15 41.5v112h-48v-100q0 -52 21 -83.5t76 -31.5t76 30.5t21 82.5v134q0 32 -14 53.5t-38 28.5q24 5 38 25
t14 52q0 28 -16.5 47.5t-38.5 24.5q21 7 38 28t17 44q0 32 -22.5 56t-56.5 27q18 14 18 66v7h-45v-7q0 -24 -9 -37.5t-24 -13.5h-19v-45h38q72 0 72 -55q0 -24 -18 -36z" />
    <glyph glyph-name="uni1E02" unicode="&#x1e02;" horiz-adv-x="378" 
d="M192 742h-42v85h42v-85zM298 663.5q33 -36.5 33 -112.5v-40q0 -60 -20.5 -93t-71.5 -45q105 -20 105 -150v-60q0 -163 -154 -163h-150v700h148q77 0 110 -36.5zM256.5 415q27.5 23 27.5 87v45q0 56 -21.5 82.5t-75.5 26.5h-99v-264h76q65 0 92.5 23zM271.5 74
q25.5 30 25.5 89v63q0 66 -29.5 94.5t-93.5 28.5h-86v-305h102q56 0 81.5 30z" />
    <glyph glyph-name="uni1E03" unicode="&#x1e03;" horiz-adv-x="378" 
d="M192 742h-42v85h42v-85zM298 663.5q33 -36.5 33 -112.5v-40q0 -60 -20.5 -93t-71.5 -45q105 -20 105 -150v-60q0 -163 -154 -163h-150v700h148q77 0 110 -36.5zM256.5 415q27.5 23 27.5 87v45q0 56 -21.5 82.5t-75.5 26.5h-99v-264h76q65 0 92.5 23zM271.5 74
q25.5 30 25.5 89v63q0 66 -29.5 94.5t-93.5 28.5h-86v-305h102q56 0 81.5 30z" />
    <glyph glyph-name="uni1E0A" unicode="&#x1e0a;" horiz-adv-x="385" 
d="M198 742h-42v85h42v-85zM310.5 653.5q38.5 -46.5 38.5 -127.5v-352q0 -81 -38.5 -127.5t-115.5 -46.5h-155v700h154q78 0 116.5 -46.5zM276.5 78q26.5 34 26.5 94v356q0 60 -27 94t-82 34h-106v-612h106q56 0 82.5 34z" />
    <glyph glyph-name="uni1E0B" unicode="&#x1e0b;" horiz-adv-x="385" 
d="M198 742h-42v85h42v-85zM310.5 653.5q38.5 -46.5 38.5 -127.5v-352q0 -81 -38.5 -127.5t-115.5 -46.5h-155v700h154q78 0 116.5 -46.5zM276.5 78q26.5 34 26.5 94v356q0 60 -27 94t-82 34h-106v-612h106q56 0 82.5 34z" />
    <glyph glyph-name="uni1E1E" unicode="&#x1e1e;" horiz-adv-x="336" 
d="M193 741h-42v85h42v-85zM268 316h-180v-316h-48v700h267v-44h-219v-296h180v-44z" />
    <glyph glyph-name="uni1E1F" unicode="&#x1e1f;" horiz-adv-x="336" 
d="M199 742h-41v85h41v-85zM268 316h-180v-316h-48v700h267v-44h-219v-296h180v-44z" />
    <glyph glyph-name="uni1E40" unicode="&#x1e40;" horiz-adv-x="506" 
d="M275 745h-44v86h44v-86zM229 2l-147 615v-617h-42v700h68l146 -615l144 615h68v-700h-45v619l-144 -617h-48z" />
    <glyph glyph-name="uni1E41" unicode="&#x1e41;" horiz-adv-x="506" 
d="M275 747h-44v85h44v-85zM229 2l-147 615v-617h-42v700h68l146 -615l144 615h68v-700h-45v619l-144 -617h-48z" />
    <glyph glyph-name="uni1E56" unicode="&#x1e56;" horiz-adv-x="364" 
d="M193 742h-43v85h43v-85zM335 531v-77q0 -84 -39.5 -125t-122.5 -41h-85v-288h-48v700h145q150 0 150 -169zM260.5 359.5q27.5 28.5 27.5 91.5v82q0 60 -23.5 91.5t-79.5 31.5h-97v-325h85q60 0 87.5 28.5z" />
    <glyph glyph-name="uni1E57" unicode="&#x1e57;" horiz-adv-x="364" 
d="M198 742h-43v85h43v-85zM335 531v-77q0 -84 -39.5 -125t-122.5 -41h-85v-288h-48v700h145q150 0 150 -169zM260.5 359.5q27.5 28.5 27.5 91.5v82q0 60 -23.5 91.5t-79.5 31.5h-97v-325h85q60 0 87.5 28.5z" />
    <glyph glyph-name="uni1E60" unicode="&#x1e60;" horiz-adv-x="369" 
d="M207 743h-43v84h43v-84zM298.5 659q36.5 -47 36.5 -127v-16h-45v18q0 59 -24.5 93.5t-78.5 34.5t-78.5 -34t-24.5 -93q0 -38 16 -67.5t40 -51t64 -50.5q44 -32 70 -56t44 -59t18 -82q0 -80 -37 -127.5t-114 -47.5t-114 47.5t-37 127.5v36h44v-39q0 -59 26 -93t80 -34
q55 0 80 33.5t25 93.5q0 38 -16 67.5t-39.5 50.5t-63.5 50q-43 31 -69.5 55.5t-45 60t-18.5 82.5q0 82 37 128t112 46q76 0 112.5 -47z" />
    <glyph glyph-name="uni1E61" unicode="&#x1e61;" horiz-adv-x="369" 
d="M211 749h-41v84h41v-84zM298.5 659q36.5 -47 36.5 -127v-16h-45v18q0 59 -24.5 93.5t-78.5 34.5t-78.5 -34t-24.5 -93q0 -38 16 -67.5t40 -51t64 -50.5q44 -32 70 -56t44 -59t18 -82q0 -80 -37 -127.5t-114 -47.5t-114 47.5t-37 127.5v36h44v-39q0 -59 26 -93t80 -34
q55 0 80 33.5t25 93.5q0 38 -16 67.5t-39.5 50.5t-63.5 50q-43 31 -69.5 55.5t-45 60t-18.5 82.5q0 82 37 128t112 46q76 0 112.5 -47z" />
    <glyph glyph-name="uni1E6A" unicode="&#x1e6a;" horiz-adv-x="386" 
d="M214 744h-42v84h42v-84zM169 656h-142v44h332v-44h-142v-656h-48v656z" />
    <glyph glyph-name="uni1E6B" unicode="&#x1e6b;" horiz-adv-x="386" 
d="M212 742h-43v85h43v-85zM167 656h-142v44h331v-44h-142v-656h-47v656z" />
    <glyph glyph-name="Wgrave" unicode="&#x1e80;" horiz-adv-x="601" 
d="M350 747h-37l-86 95h51zM143 0l-113 700h47l103 -636l102 634h50l97 -632l100 634h42l-111 -700h-62l-92 568l-97 -568h-66z" />
    <glyph glyph-name="wgrave" unicode="&#x1e81;" horiz-adv-x="601" 
d="M350 747h-37l-86 95h51zM143 0l-113 700h47l103 -636l102 634h50l97 -632l100 634h42l-111 -700h-62l-92 568l-97 -568h-66z" />
    <glyph glyph-name="Wacute" unicode="&#x1e82;" horiz-adv-x="601" 
d="M298 741h-36l71 95h49zM143 0l-113 700h47l103 -636l102 634h50l97 -632l100 634h42l-111 -700h-62l-92 568l-97 -568h-66z" />
    <glyph glyph-name="wacute" unicode="&#x1e83;" horiz-adv-x="601" 
d="M298 741h-36l71 95h49zM143 0l-113 700h47l103 -636l102 634h50l97 -632l100 634h42l-111 -700h-62l-92 568l-97 -568h-66z" />
    <glyph glyph-name="Wdieresis" unicode="&#x1e84;" horiz-adv-x="601" 
d="M276 745h-42v85h42v-85zM375 745h-43v85h43v-85zM143 0l-113 700h47l103 -636l102 634h50l97 -632l100 634h42l-111 -700h-62l-92 568l-97 -568h-66z" />
    <glyph glyph-name="wdieresis" unicode="&#x1e85;" horiz-adv-x="601" 
d="M276 745h-42v85h42v-85zM375 745h-43v85h43v-85zM143 0l-113 700h47l103 -636l102 634h50l97 -632l100 634h42l-111 -700h-62l-92 568l-97 -568h-66z" />
    <glyph glyph-name="Ygrave" unicode="&#x1ef2;" horiz-adv-x="413" 
d="M247 747h-37l-85 95h52zM26 700h49l133 -367l133 367h47l-158 -431v-269h-48v269z" />
    <glyph glyph-name="ygrave" unicode="&#x1ef3;" horiz-adv-x="413" 
d="M247 747h-37l-85 95h52zM26 700h49l133 -367l133 367h47l-158 -431v-269h-48v269z" />
    <glyph glyph-name="figuredash" unicode="&#x2012;" horiz-adv-x="450" 
d="M426 370v-39h-402v39h402z" />
    <glyph glyph-name="endash" unicode="&#x2013;" horiz-adv-x="418" 
d="M394 370v-39h-370v39h370z" />
    <glyph glyph-name="emdash" unicode="&#x2014;" horiz-adv-x="677" 
d="M653 370v-39h-629v39h629z" />
    <glyph glyph-name="quoteleft" unicode="&#x2018;" horiz-adv-x="134" 
d="M91 700l-18 -76l14 -3v-86h-47v85l30 80h21z" />
    <glyph glyph-name="quoteright" unicode="&#x2019;" horiz-adv-x="134" 
d="M44 535l17 77l-13 4v84h46v-84l-30 -81h-20z" />
    <glyph glyph-name="quotesinglbase" unicode="&#x201a;" horiz-adv-x="134" 
d="M44 -77l17 77l-13 5v84h46v-85l-30 -81h-20z" />
    <glyph glyph-name="quotedblleft" unicode="&#x201c;" horiz-adv-x="213" 
d="M91 700l-18 -76l14 -2v-87h-47v85l30 80h21zM170 700l-17 -76l13 -2v-87h-46v85l29 80h21z" />
    <glyph glyph-name="quotedblright" unicode="&#x201d;" horiz-adv-x="213" 
d="M40 535l18 77l-13 4v84h46v-84l-30 -81h-21zM120 535l17 77l-13 4v84h46v-84l-29 -81h-21z" />
    <glyph glyph-name="quotedblbase" unicode="&#x201e;" horiz-adv-x="218" 
d="M44 -77l19 77h-15v89h46v-85l-30 -81h-20zM128 -77l20 77h-15v89h45v-85l-29 -81h-21z" />
    <glyph glyph-name="dagger" unicode="&#x2020;" horiz-adv-x="392" 
d="M358 502v-38h-142v-529h-39v529h-143v38h143v198h39v-198h142z" />
    <glyph glyph-name="daggerdbl" unicode="&#x2021;" horiz-adv-x="392" 
d="M358 502v-38h-142v-291h142v-38h-142v-200h-39v200h-143v38h143v291h-143v38h143v198h39v-198h142z" />
    <glyph glyph-name="bullet" unicode="&#x2022;" horiz-adv-x="266" 
d="M185 402.5q22 -21.5 22 -52.5q0 -30 -22 -52t-52 -22t-51.5 22t-21.5 52q0 31 21 52.5t52 21.5q30 0 52 -21.5z" />
    <glyph glyph-name="ellipsis" unicode="&#x2026;" horiz-adv-x="289" 
d="M87 0h-47v89h47v-89zM167 0h-46v89h46v-89zM249 0h-46v89h46v-89z" />
    <glyph glyph-name="perthousand" unicode="&#x2030;" horiz-adv-x="853" 
d="M204 671.5q24 -31.5 24 -82.5v-213q0 -51 -23.5 -82t-72.5 -31q-48 0 -71 31t-23 82v213q0 51 23 82.5t71 31.5t72 -31.5zM178 0h-30l276 701h30zM70 591v-217q0 -82 62 -82q33 0 48 23t15 59v217q0 36 -15 59t-48 23q-62 0 -62 -82zM545 405q23 -31 23 -82v-211
q0 -51 -23 -82.5t-71 -31.5t-72 31.5t-24 82.5v211q0 51 24 82t72 31t71 -31zM792 405q23 -31 23 -82v-211q0 -51 -23 -82.5t-72 -31.5q-48 0 -71.5 31.5t-23.5 82.5v211q0 51 23.5 82t71.5 31q49 0 72 -31zM426 383.5q-15 -22.5 -15 -58.5v-215q0 -36 15 -59t48 -23
q32 0 47 23t15 59v215q0 36 -15 58.5t-47 22.5q-33 0 -48 -22.5zM673 383.5q-15 -22.5 -15 -58.5v-215q0 -36 15 -59t47 -23q34 0 48.5 22.5t14.5 59.5v215q0 81 -63 81q-32 0 -47 -22.5z" />
    <glyph glyph-name="guilsinglleft" unicode="&#x2039;" horiz-adv-x="171" 
d="M95 599h46l-65 -248l65 -254h-46l-64 254z" />
    <glyph glyph-name="guilsinglright" unicode="&#x203a;" horiz-adv-x="171" 
d="M31 600h44l66 -249l-66 -253h-44l64 253z" />
    <glyph glyph-name="fraction" unicode="&#x2044;" horiz-adv-x="245" 
d="M-1 0h-29l276 700h30z" />
    <glyph glyph-name="uni2070" unicode="&#x2070;" horiz-adv-x="274" 
d="M62.5 769.5q24.5 30.5 74.5 30.5t74.5 -30.5t24.5 -82.5v-227q0 -52 -24.5 -83t-74.5 -31t-74.5 31t-24.5 83v227q0 52 24.5 82.5zM86.5 398q16.5 -22 50.5 -22t50.5 22t16.5 59v232q0 38 -16.5 60t-50.5 22t-50.5 -22t-16.5 -60v-232q0 -37 16.5 -59z" />
    <glyph glyph-name="uni2074" unicode="&#x2074;" horiz-adv-x="286" 
d="M217 351h-32v96h-151v30l147 318h36v-318h37v-30h-37v-96zM185 477v257l-121 -257h121z" />
    <glyph glyph-name="uni2075" unicode="&#x2075;" horiz-adv-x="271" 
d="M85.5 396.5q15.5 -21.5 49.5 -21.5t50 21.5t16 59.5v76q0 37 -16 59t-50 22q-22 0 -39.5 -13t-21.5 -36v-8h-31l13 239h167v-30h-140l-7 -159q11 18 29.5 28t40.5 10q44 0 65.5 -30t21.5 -80v-76q0 -52 -24 -83t-73 -31t-73 31t-24 83v23h31v-25q0 -38 15.5 -59.5z" />
    <glyph glyph-name="uni2076" unicode="&#x2076;" horiz-adv-x="274" 
d="M211.5 770q23.5 -30 23.5 -82v-5h-30v7q0 38 -16 59.5t-50 21.5q-67 0 -67 -86v-111q10 25 29.5 37.5t46.5 12.5q45 0 67 -30t22 -80v-54q0 -52 -24.5 -83t-74.5 -31t-74.5 31t-24.5 83v226q0 53 24 83.5t75 30.5q50 0 73.5 -30zM88 572q-16 -22 -16 -60v-55
q0 -38 16 -59.5t50 -21.5t50.5 22t16.5 59v55q0 37 -16.5 59.5t-50.5 22.5t-50 -22z" />
    <glyph glyph-name="uni2077" unicode="&#x2077;" horiz-adv-x="270" 
d="M38 766v29h194v-28l-124 -416h-33l124 415h-161z" />
    <glyph glyph-name="uni2078" unicode="&#x2078;" horiz-adv-x="277" 
d="M214.5 771q26.5 -29 26.5 -79v-15q0 -73 -54 -94q54 -19 54 -94v-32q0 -51 -26.5 -81t-76.5 -30t-75.5 30t-25.5 81v32q0 75 54 94q-54 21 -54 94v15q0 50 26 79t75 29q50 0 76.5 -29zM86.5 750q-17.5 -21 -17.5 -60v-18q0 -75 69 -75q34 0 52 19t18 56v18q0 39 -17.5 60
t-52.5 21q-34 0 -51.5 -21zM69 492v-35q0 -38 17.5 -59.5t51.5 -21.5q35 0 52.5 21.5t17.5 59.5v35q0 38 -17 56.5t-53 18.5q-69 0 -69 -75z" />
    <glyph glyph-name="uni2079" unicode="&#x2079;" horiz-adv-x="274" 
d="M210.5 769q24.5 -31 24.5 -82v-226q0 -53 -24.5 -84t-75.5 -31q-49 0 -73.5 30.5t-24.5 81.5v6h31v-7q0 -38 16 -59.5t51 -21.5q68 0 68 86v110q-21 -50 -78 -50q-44 0 -66 30t-22 80v55q0 51 24.5 82t74.5 31t74.5 -31zM86 749q-16 -22 -16 -60v-55q0 -38 16 -60t50 -22
t50.5 22t16.5 60v55q0 38 -16.5 60t-50.5 22t-50 -22z" />
    <glyph glyph-name="uni2080" unicode="&#x2080;" horiz-adv-x="274" 
d="M62.5 353.5q24.5 30.5 74.5 30.5t74.5 -30.5t24.5 -82.5v-227q0 -53 -24.5 -83.5t-74.5 -30.5t-74.5 30.5t-24.5 83.5v227q0 52 24.5 82.5zM86.5 -19q16.5 -22 50.5 -22t50.5 22t16.5 60v232q0 38 -16.5 60t-50.5 22t-50.5 -22t-16.5 -60v-232q0 -38 16.5 -60z" />
    <glyph glyph-name="uni2081" unicode="&#x2081;" horiz-adv-x="178" 
d="M35 294l-1 25q53 3 75 60h25v-444h-32v393q-26 -29 -67 -34z" />
    <glyph glyph-name="uni2082" unicode="&#x2082;" horiz-adv-x="271" 
d="M211.5 354q23.5 -31 23.5 -83q0 -43 -20.5 -76t-60.5 -75q-41 -45 -61.5 -77t-19.5 -76v-3h158v-29h-190v23q0 55 22.5 93t65.5 83q37 39 55.5 68t18.5 68q0 85 -66 85q-34 0 -50 -23t-16 -61v-31h-30v29q0 52 23.5 84t73.5 32t73.5 -31z" />
    <glyph glyph-name="uni2083" unicode="&#x2083;" horiz-adv-x="271" 
d="M208.5 353.5q23.5 -30.5 23.5 -82.5v-11q0 -33 -14 -57.5t-41 -34.5q27 -9 41 -33t14 -57v-34q0 -53 -23.5 -83.5t-72.5 -30.5q-50 0 -73.5 30.5t-23.5 83.5v25h30v-28q0 -37 16 -59.5t50 -22.5q66 0 66 85v34q0 34 -17 53.5t-48 19.5h-30v30h31q29 0 46.5 21t17.5 52v16
q0 85 -66 85q-34 0 -50 -22.5t-16 -59.5v-18h-30v16q0 52 23.5 82.5t73.5 30.5q49 0 72.5 -30.5z" />
    <glyph glyph-name="uni2084" unicode="&#x2084;" horiz-adv-x="286" 
d="M217 -69h-32v97h-151v30l147 318h36v-318h37v-30h-37v-97zM185 58v256l-121 -256h121z" />
    <glyph glyph-name="uni2085" unicode="&#x2085;" horiz-adv-x="271" 
d="M85.5 -16q15.5 -22 49.5 -22q66 0 66 82v75q0 37 -16 59.5t-50 22.5q-22 0 -39.5 -13.5t-21.5 -36.5v-7h-31l13 238h167v-30h-140l-7 -159q11 18 29.5 27.5t40.5 9.5q44 0 65.5 -29.5t21.5 -79.5v-77q0 -51 -24 -82t-73 -31t-73 31t-24 82v26h31v-26q0 -38 15.5 -60z" />
    <glyph glyph-name="uni2086" unicode="&#x2086;" horiz-adv-x="274" 
d="M211.5 354q23.5 -30 23.5 -82v-5h-30v7q0 38 -16 59.5t-50 21.5q-67 0 -67 -86v-111q10 25 29.5 37.5t46.5 12.5q45 0 67 -30t22 -80v-54q0 -52 -24.5 -83t-74.5 -31t-74.5 31t-24.5 83v226q0 53 24 83.5t75 30.5q50 0 73.5 -30zM88 156q-16 -22 -16 -60v-55
q0 -38 16 -60t50 -22t50.5 22.5t16.5 59.5v55q0 37 -16.5 59.5t-50.5 22.5t-50 -22z" />
    <glyph glyph-name="uni2087" unicode="&#x2087;" horiz-adv-x="270" 
d="M38 353v30h194v-28l-124 -417h-33l124 415h-161z" />
    <glyph glyph-name="uni2088" unicode="&#x2088;" horiz-adv-x="277" 
d="M214.5 355q26.5 -29 26.5 -79v-15q0 -73 -54 -94q54 -19 54 -94v-32q0 -52 -26 -81.5t-77 -29.5q-50 0 -75.5 29.5t-25.5 81.5v32q0 75 54 94q-54 21 -54 94v15q0 50 26 79t75 29q50 0 76.5 -29zM86.5 334q-17.5 -21 -17.5 -60v-18q0 -75 69 -75q34 0 52 19t18 56v18
q0 39 -17.5 60t-52.5 21q-34 0 -51.5 -21zM69 76v-35q0 -39 17.5 -60.5t51.5 -21.5q35 0 52.5 21.5t17.5 60.5v35q0 38 -17 56.5t-53 18.5q-69 0 -69 -75z" />
    <glyph glyph-name="uni2089" unicode="&#x2089;" horiz-adv-x="274" 
d="M210.5 353q24.5 -31 24.5 -82v-226q0 -53 -24 -84t-76 -31q-49 0 -73.5 30.5t-24.5 81.5v6h31v-7q0 -38 16.5 -60t50.5 -22q68 0 68 87v110q-21 -50 -78 -50q-44 0 -66 30t-22 80v55q0 51 24.5 82t74.5 31t74.5 -31zM86 333q-16 -22 -16 -60v-55q0 -38 16 -60t50 -22
t50.5 22t16.5 60v55q0 38 -16.5 60t-50.5 22t-50 -22z" />
    <glyph glyph-name="Euro" unicode="&#x20ac;" horiz-adv-x="396" 
d="M101 658q36 48 112 48t112 -48t36 -128v-39h-44v41q0 59 -24.5 94.5t-77.5 35.5t-77.5 -35.5t-24.5 -94.5v-112h191v-27h-191v-81h191v-27h-191v-116q0 -60 24.5 -95t77.5 -35t77.5 35t24.5 95v46h44v-44q0 -80 -36.5 -128.5t-111.5 -48.5t-111.5 48.5t-36.5 128.5v114
h-44v27h44v81h-44v27h44v110q0 80 36 128z" />
    <glyph glyph-name="uni20B9" unicode="&#x20b9;" horiz-adv-x="380" 
d="M262.5 608.5q18.5 -36.5 19.5 -82.5h64v-38h-64q-3 -71 -46 -113.5t-120 -42.5h-29l250 -332h-52l-250 333v36h70q66 0 97.5 31.5t33.5 87.5h-199v38h199q0 63 -33.5 99.5t-97.5 36.5h-68v38h309v-38h-139q37 -17 55.5 -53.5z" />
    <glyph glyph-name="uni2117" unicode="&#x2117;" horiz-adv-x="747" 
d="M548 655.5q78 -45.5 122 -125.5t44 -179t-44 -179.5t-122 -126.5t-175 -46t-175 46t-121.5 126.5t-43.5 179.5t43.5 179t121.5 125.5t175 45.5t175 -45.5zM215 627.5q-70 -41.5 -109.5 -114t-39.5 -162.5t39.5 -162.5t109.5 -114.5t158 -42t158.5 42t110.5 114.5
t40 162.5t-39.5 162.5t-110 114t-159.5 41.5q-88 0 -158 -41.5zM499 441v-36q0 -58 -27 -86t-85 -28h-61v-163h-34v428h102q105 0 105 -115zM445.5 344q18.5 20 18.5 64v30q0 41 -16.5 63t-54.5 22h-67v-199h58q43 0 61.5 20z" />
    <glyph glyph-name="trademark" unicode="&#x2122;" horiz-adv-x="579" 
d="M104 671h-90v29h210v-29h-88v-327h-32v327zM393 348l-92 301v-305h-29v356h46l91 -303l91 303h45v-356h-31v307l-90 -303h-31z" />
    <glyph glyph-name="uni2153" unicode="&#x2153;" horiz-adv-x="569" 
d="M88.5 626q-17.5 -9 -37.5 -11l-1 25q53 3 75 60h25v-444h-33v393q-11 -14 -28.5 -23zM135 0h-32l276 700h32zM506.5 418.5q24.5 -30.5 24.5 -82.5v-11q0 -33 -14.5 -57.5t-42.5 -34.5q28 -9 42.5 -33t14.5 -57v-34q0 -52 -24.5 -83t-73.5 -31q-50 0 -74 31t-24 83v25h32
v-28q0 -38 15.5 -59.5t49.5 -21.5t50 22.5t16 61.5v34q0 34 -17 53.5t-49 19.5h-29v30h31q29 0 46.5 21t17.5 52v16q0 40 -16 62.5t-50 22.5q-33 0 -49 -22.5t-16 -59.5v-18h-32v16q0 52 24 82.5t74 30.5q49 0 73.5 -30.5z" />
    <glyph glyph-name="uni2154" unicode="&#x2154;" horiz-adv-x="610" 
d="M211.5 674.5q23.5 -30.5 23.5 -83.5q0 -43 -20.5 -75.5t-60.5 -75.5q-41 -43 -61.5 -75.5t-19.5 -75.5v-4h158v-29h-190v23q0 39 12.5 69.5t29.5 53t46 53.5q37 39 55.5 68t18.5 67q0 86 -66 86q-34 0 -50 -23.5t-16 -61.5v-30h-30v29q0 52 23.5 83.5t73.5 31.5
t73.5 -30.5zM154 0l276 700h30l-276 -700h-30zM548 418.5q24 -30.5 24 -82.5v-11q0 -33 -14.5 -57.5t-42.5 -34.5q29 -9 43 -33t14 -57v-34q0 -52 -24 -83t-73 -31t-73 31t-24 83v25h31v-28q0 -81 65 -81q66 0 66 84v34q0 34 -17 53.5t-48 19.5h-30v30h31q29 0 46.5 21
t17.5 52v16q0 85 -66 85q-34 0 -49.5 -22.5t-15.5 -59.5v-18h-31v16q0 52 23.5 82.5t73.5 30.5q49 0 73 -30.5z" />
    <glyph glyph-name="oneeighth" unicode="&#x215b;" horiz-adv-x="578" 
d="M88.5 626q-17.5 -9 -37.5 -11l-1 25q53 3 75 60h25v-444h-33v393q-11 -14 -28.5 -23zM379 700h32l-276 -700h-32zM514.5 420q26.5 -29 26.5 -79v-15q0 -73 -53 -94q53 -19 53 -94v-32q0 -51 -26 -81t-76 -30t-76 30t-26 81v32q0 75 53 94q-53 21 -53 94v15q0 50 26 79
t76 29q49 0 75.5 -29zM387.5 399q-17.5 -21 -17.5 -60v-18q0 -75 69 -75q34 0 52 19t18 56v18q0 39 -18 60t-52 21t-51.5 -21zM370 141v-35q0 -38 17.5 -59.5t51.5 -21.5q35 0 52.5 21t17.5 60v35q0 75 -70 75q-69 0 -69 -75z" />
    <glyph glyph-name="threeeighths" unicode="&#x215c;" horiz-adv-x="625" 
d="M208.5 674.5q23.5 -30.5 23.5 -82.5v-11q0 -33 -14 -57.5t-41 -34.5q28 -9 41.5 -33t13.5 -57v-34q0 -52 -23.5 -83t-72.5 -31t-73 31t-24 83v25h30v-28q0 -37 16 -59t50 -22q66 0 66 84v34q0 34 -17 53.5t-48 19.5h-30v30h31q29 0 46.5 21t17.5 52v16q0 85 -66 85
q-34 0 -50 -22.5t-16 -59.5v-18h-30v16q0 52 23.5 82.5t73.5 30.5q49 0 72.5 -30.5zM186 0h-30l276 700h30zM562.5 420q26.5 -29 26.5 -79v-15q0 -73 -53 -94q53 -19 53 -94v-32q0 -51 -26 -81t-76 -30t-76 30t-26 81v32q0 75 54 94q-54 21 -54 94v15q0 50 26.5 79t75.5 29
t75.5 -29zM435 399q-18 -21 -18 -60v-18q0 -37 18 -56t52 -19t52 19t18 56v18q0 39 -18 60t-52 21t-52 -21zM417 141v-35q0 -38 17.5 -59.5t52.5 -21.5t52.5 21.5t17.5 59.5v35q0 75 -70 75t-70 -75z" />
    <glyph glyph-name="seveneighths" unicode="&#x215e;" horiz-adv-x="563" 
d="M38 671v29h194v-28l-124 -416h-33l124 415h-161zM82 0l276 700h31l-276 -700h-31zM500 420q26 -29 26 -79v-15q0 -73 -54 -94q54 -19 54 -94v-32q0 -51 -26 -81t-76 -30t-76 30t-26 81v32q0 75 54 94q-54 21 -54 94v15q0 50 26.5 79t75.5 29q50 0 76 -29zM372 399
q-18 -21 -18 -60v-18q0 -37 18 -56t52 -19q69 0 69 75v18q0 81 -69 81q-34 0 -52 -21zM354 141v-35q0 -38 17.5 -59.5t52.5 -21.5q34 0 51.5 21.5t17.5 59.5v35q0 38 -16.5 56.5t-52.5 18.5q-70 0 -70 -75z" />
    <glyph glyph-name="minus" unicode="&#x2212;" horiz-adv-x="388" 
d="M354 332h-320v36h320v-36z" />
    <glyph glyph-name="infinity" unicode="&#x221e;" horiz-adv-x="567" 
d="M498 452q34 -30 34 -86t-33.5 -85.5t-92.5 -29.5h-13q-87 0 -106 59q-23 -59 -109 -59h-13q-58 0 -91.5 29.5t-33.5 85.5t33.5 86t91.5 30h13q85 0 109 -61q19 61 106 61h13q58 0 92 -30zM98 426q-23 -21 -23 -60q0 -40 23 -60.5t67 -20.5h17q87 0 87 81t-87 81h-17
q-44 0 -67 -21zM322.5 426.5q-20.5 -20.5 -20.5 -60.5t20.5 -60.5t65.5 -20.5h17q43 0 67 21t24 60q0 40 -24 60.5t-67 20.5h-17q-45 0 -65.5 -20.5z" />
    <glyph glyph-name="approxequal" unicode="&#x2248;" horiz-adv-x="395" 
d="M163 472q18 -8 45 -25q24 -15 39 -22t30 -7q20 0 34.5 13t31.5 41l25 -22q-21 -35 -42.5 -52t-48.5 -17q-18 0 -34 7t-45 24q-24 15 -40.5 22.5t-33.5 7.5q-22 0 -37.5 -13t-34.5 -40l-25 21q24 36 47 53t50 17q21 0 39 -8zM164 309.5q19 -8.5 45 -24.5q24 -15 39 -22
t30 -7q19 0 33 13.5t32 41.5l25 -22q-21 -35 -42.5 -52t-48.5 -17q-19 0 -35.5 8t-43.5 24q-24 15 -40.5 22.5t-33.5 7.5q-21 0 -37.5 -13.5t-34.5 -40.5l-25 21q24 36 47 52.5t50 16.5q21 0 40 -8.5z" />
    <glyph glyph-name="uniF6C3" unicode="&#xf6c3;" horiz-adv-x="0" 
d="M59 -176l19 58h-13v84h40v-79l-27 -63h-19z" />
    <glyph glyph-name="NULL" horiz-adv-x="0" 
 />
    <glyph glyph-name="zero.alt" horiz-adv-x="382" 
d="M75.5 658q38.5 48 115.5 48t115.5 -48t38.5 -128v-358q0 -81 -38.5 -129.5t-115.5 -48.5t-115.5 48.5t-38.5 129.5v358q0 80 38.5 128zM110 73.5q26 -35.5 81 -35.5t81 35t26 96v363q0 61 -26 96t-81 35t-81 -35.5t-26 -95.5v-363q0 -60 26 -95.5z" />
    <glyph glyph-name="one.alt" horiz-adv-x="234" 
d="M140 620q-41 -52 -108 -58v39q47 3 75 29.5t43 70.5h37v-701h-47v620z" />
    <glyph glyph-name="two.alt" horiz-adv-x="366" 
d="M300 658q36 -48 36 -130q0 -48 -17 -88t-41.5 -71.5t-67.5 -77.5q-43 -47 -68 -78.5t-42.5 -72.5t-17.5 -90v-6h250v-44h-297v36q0 61 19 109.5t47 84.5t73 83q39 42 61.5 70.5t38 64.5t15.5 78q0 65 -24.5 101t-80.5 36q-54 0 -79 -36.5t-25 -97.5v-49h-45v46
q0 82 37 131t114 49q78 0 114 -48z" />
    <glyph glyph-name="three.alt" horiz-adv-x="372" 
d="M300.5 658.5q36.5 -47.5 36.5 -128.5v-18q0 -52 -24 -90.5t-68 -53.5q46 -14 69 -51.5t23 -90.5v-54q0 -82 -36.5 -130t-113.5 -48t-114.5 48t-37.5 130v39h45v-42q0 -60 25.5 -95.5t79.5 -35.5q105 0 105 135v53q0 55 -26 86t-77 32h-47v42h50q46 4 73 35.5t27 81.5v25
q0 135 -105 135q-54 0 -79.5 -35t-25.5 -96v-28h-45v26q0 81 37.5 128.5t114.5 47.5t113.5 -47.5z" />
    <glyph glyph-name="four.alt" horiz-adv-x="402" 
d="M314 0h-46v154h-238v44l232 503h52v-503h59v-44h-59v-154zM268 198v413l-194 -413h194z" />
    <glyph glyph-name="five.alt" horiz-adv-x="373" 
d="M137 448q27 14 66 14q69 0 102 -46.5t33 -124.5v-119q0 -81 -37 -129.5t-114 -48.5t-114 48.5t-37 129.5v37h44v-40q0 -60 26 -95t80 -35t79 35t25 95v119q0 60 -25 95.5t-79 35.5q-38 0 -63.5 -20.5t-35.5 -59.5v-12h-45l19 374h263v-44h-221l-12 -254q19 31 46 45z" />
    <glyph glyph-name="six.alt" horiz-adv-x="380" 
d="M305.5 659q37.5 -47 37.5 -127v-8h-45v11q0 60 -25.5 94t-79.5 34q-56 0 -82.5 -36t-26.5 -101v-177q18 41 48 60t77 19q69 0 102.5 -46t33.5 -124v-86q0 -81 -38 -129.5t-116 -48.5q-77 0 -115.5 48.5t-38.5 129.5v356q0 82 38 130t117 48q76 0 113.5 -47zM110.5 349
q-26.5 -36 -26.5 -95v-85q0 -60 26 -95t81 -35t81 35t26 95v85q0 61 -26 96t-81 35q-54 0 -80.5 -36z" />
    <glyph glyph-name="seven.alt" horiz-adv-x="356" 
d="M28 657v44h300v-43l-191 -658h-48l191 657h-252z" />
    <glyph glyph-name="eight.alt" horiz-adv-x="388" 
d="M312.5 661q40.5 -45 40.5 -125v-22q0 -56 -22 -94.5t-68 -52.5q90 -27 90 -150v-49q0 -81 -40 -127.5t-119 -46.5t-119 46.5t-40 127.5v49q0 59 22 97t71 53q-93 28 -93 147v22q0 80 40.5 125t118.5 45t118.5 -45zM111 630q-29 -33 -29 -94v-30q0 -59 29 -89.5t83 -30.5
q55 0 83 30.5t28 89.5v30q0 61 -28 94t-83 33q-54 0 -83 -33zM82 222v-53q0 -63 28.5 -97t83.5 -34q56 0 83.5 34t27.5 97v53q0 61 -27 91.5t-84 30.5q-112 0 -112 -122z" />
    <glyph glyph-name="nine.alt" horiz-adv-x="381" 
d="M305.5 659q38.5 -48 38.5 -129v-356q0 -83 -38 -131.5t-117 -48.5q-77 0 -115 47.5t-38 128.5v9h45v-12q0 -60 26.5 -94.5t80.5 -34.5q56 0 82.5 36t26.5 101v177q-30 -79 -124 -79q-70 0 -104 46t-34 124v87q0 81 38.5 129t116.5 48q77 0 115.5 -48zM109 627
q-26 -35 -26 -95v-85q0 -60 26.5 -96t80.5 -36t80.5 36t26.5 96v85q0 60 -26 95t-81 35t-81 -35z" />
    <glyph glyph-name="Edotaaccent" horiz-adv-x="239" 
 />
    <glyph glyph-name="edotaaccent" horiz-adv-x="239" 
 />
    <glyph glyph-name="lcute" horiz-adv-x="239" 
 />
    <glyph glyph-name="uni10D0.case" horiz-adv-x="281" 
d="M139 696v-43q0 -38 13 -70t38 -76q26 -45 39 -79t13 -74v-242q0 -49 -18.5 -83.5t-83.5 -34.5q-47 0 -69.5 20t-27.5 45.5t-5 57.5v232h48v-254q0 -28 15.5 -44t38.5 -16q22 0 37.5 16.5t15.5 43.5v259q0 37 -12 67t-36 69q-27 46 -40.5 81.5t-13.5 81.5v43h48z" />
    <glyph glyph-name="uni10D1.case" horiz-adv-x="279" 
d="M61 24q-23 29 -23 91v173q0 40 23 64t55 24q0 22 12 46l41 86q10 20 10 25q0 8 -9 17l-77 82v-129h-49v192h52l127 -126q6 -6 8.5 -11t2.5 -17q0 -11 -9 -29l-53 -102q-4 -7 -5 -14.5t-1 -19.5q40 0 58 -30.5t18 -75.5v-155q0 -120 -103 -120q-55 0 -78 29zM177 52.5
q15 16.5 15 42.5v180q0 28 -15 45t-37 17q-24 0 -39 -18t-15 -44v-180q0 -26 15 -42.5t39 -16.5q22 0 37 16.5z" />
    <glyph glyph-name="uni10D2.case" horiz-adv-x="292" 
d="M183 385q37 -6 53.5 -40t16.5 -76v-163q0 -48 -19 -79.5t-83 -31.5q-63 0 -82.5 32.5t-19.5 79.5v162q0 43 14.5 77.5t63.5 49.5q14 4 27 14t22 22q11 15 14.5 27.5t3.5 38.5v105q0 28 -15.5 45t-37.5 17t-38 -17t-16 -45v-121h-48v106q0 31 5.5 55.5t28 43t68.5 18.5
q63 0 82.5 -30.5t19.5 -75.5v-109q0 -38 -15.5 -67.5t-44.5 -36.5v-1zM189.5 334q-15.5 16 -38.5 16q-22 0 -37.5 -16.5t-15.5 -43.5v-195q0 -27 15.5 -43.5t37.5 -16.5q23 0 38.5 16t15.5 44v195q0 28 -15.5 44z" />
    <glyph glyph-name="uni10D3.case" horiz-adv-x="451" 
d="M113 642.5q16 16.5 38 16.5q23 0 38.5 -16t15.5 -44v-163q0 -47 19.5 -80t82.5 -33q102 0 102 108v156q0 48 -19.5 80t-82.5 32q-21 0 -41.5 -11.5t-34.5 -27.5h-1q-13 15 -35.5 27t-43.5 12q-65 0 -83.5 -33.5t-18.5 -82.5v-186q0 -64 48 -103v-2h-62v-44h28
q52 0 106.5 -34t96 -91.5t57.5 -122.5h48q-20 90 -74.5 156t-128.5 122q-35 27 -53 51.5t-18 66.5v203q0 27 16 43.5zM361 424q0 -27 -16 -43.5t-38 -16.5t-38 16.5t-16 43.5v175q0 27 16 43.5t38 16.5q23 0 38.5 -16t15.5 -44v-175z" />
    <glyph glyph-name="uni10D4.case" horiz-adv-x="287" 
d="M223.5 23.5q-19.5 -33.5 -82.5 -33.5q-47 0 -69.5 20t-28 45t-5.5 57v237h48v-259q0 -27 16 -43t39 -16q22 0 38 16t16 43v517q0 28 -15 44t-36 16q-22 0 -36.5 -16t-14.5 -44v-123h-48v112q0 48 18 79.5t81 31.5q61 0 80 -32t19 -78v-493q0 -47 -19.5 -80.5z" />
    <glyph glyph-name="uni10D5.case" horiz-adv-x="292" 
d="M177.5 651q-15.5 16 -37.5 16q-23 0 -38.5 -16t-15.5 -44v-124h-48v110q0 48 19 81t83 33q62 0 82 -31.5t20 -76.5v-130q0 -57 -35 -91v-1q29 -16 37 -43.5t8 -61.5v-172q0 -46 -19.5 -78t-82.5 -32t-82.5 33.5t-19.5 80.5v182h49v-196q0 -27 15.5 -43t37.5 -16
q23 0 38.5 16t15.5 43v198q0 28 -16.5 45.5t-39.5 17.5h-21v40h24q20 0 31 16t11 47v153q0 28 -15.5 44z" />
    <glyph glyph-name="uni10D6.case" horiz-adv-x="317" 
d="M250 354q15 -16 22 -38.5t7 -43.5v-174q0 -47 -19 -78t-82 -31q-64 0 -83 32.5t-19 80.5v158q0 62 19 98t51 69q21 21 24 32h-1q-4 -5 -13.5 -8t-19.5 -3q-53 0 -75.5 22.5t-22.5 63.5v80q0 42 25.5 68.5t77.5 26.5q53 0 76.5 -26t23.5 -69v-88q0 -37 -18.5 -66
t-48.5 -59q-20 -22 -22 -27h1q5 3 15 5t17 2q20 0 36 -6l35 32l24 -25zM177 501.5q16 13.5 16 32.5v80q0 23 -15 38.5t-39 15.5q-23 0 -38.5 -15.5t-15.5 -38.5v-80q0 -19 14.5 -32.5t37.5 -13.5q24 0 40 13.5zM232 281q0 28 -16 44t-38 16q-23 0 -38.5 -16t-15.5 -44v-192
q0 -27 15.5 -43t38.5 -16q22 0 38 16t16 43v192z" />
    <glyph glyph-name="uni10D7.case" horiz-adv-x="438" 
d="M298 705q62 0 82 -32t20 -78v-595h-49v605q0 29 -15 44.5t-38 15.5t-37.5 -15.5t-14.5 -44.5v-496q0 -53 -22.5 -86t-81.5 -33q-57 0 -79.5 30.5t-22.5 82.5v495q0 46 23 76.5t79 30.5q24 0 44 -11.5t33 -27.5h2q35 39 77 39zM196 605q0 29 -14.5 44.5t-39.5 15.5
q-24 0 -39 -16t-15 -44v-514q0 -27 15.5 -43.5t38.5 -16.5q22 0 38 16.5t16 43.5v514z" />
    <glyph glyph-name="uni10D8.case" horiz-adv-x="283" 
d="M196 0v605q0 28 -16 44t-38 16q-23 0 -38.5 -16t-15.5 -44v-605h-48v590q0 31 5.5 54.5t28 42t68.5 18.5t68.5 -18t28 -41.5t5.5 -53.5v-592h-48z" />
    <glyph glyph-name="uni10D9.case" horiz-adv-x="278" 
d="M102 705h22q65 0 83.5 -36t18.5 -86v-84q0 -29 -5 -52t-25 -41v-1q29 -17 37 -43t8 -60v-204q0 -50 -22.5 -79t-79.5 -29q-62 0 -81.5 32.5t-19.5 78.5v212h47v-223q0 -27 16 -43t38 -16q23 0 38.5 16t15.5 43v228q0 27 -22 44.5t-47 17.5h-22v40h25q21 0 36 17.5
t15 45.5v122q0 28 -15 44t-36 16h-25v40z" />
    <glyph glyph-name="uni10DA.case" horiz-adv-x="589" 
d="M309 122.5q-45 55.5 -108.5 87t-134.5 31.5h-22v48h45v1q-22 19 -36.5 48.5t-14.5 60.5v189q0 49 18.5 83.5t82.5 34.5q32 0 48.5 -12.5t29.5 -28.5h1q2 3 10 14t25 19t42 8q32 0 47.5 -10t22 -19t8.5 -11h1q12 17 28 28.5t49 11.5q64 0 83 -34t19 -82v-236h-48v252
q0 28 -15.5 44t-38.5 16q-22 0 -38 -16.5t-16 -43.5v-162h-48v162q0 28 -15.5 44t-38.5 16q-22 0 -38 -17t-16 -44v-161h-48v161q0 28 -15.5 44.5t-38.5 16.5q-22 0 -38 -17t-16 -44v-206q0 -39 25 -74.5t56 -49.5q105 -48 168 -116t84 -160h-48q-16 68 -61 123.5z" />
    <glyph glyph-name="uni10DB.case" horiz-adv-x="278" 
d="M48 590q0 31 5 55.5t27 43.5t66 19q60 0 77.5 -32t17.5 -80v-491q0 -48 -19 -81.5t-83 -33.5q-47 0 -69.5 20t-27.5 45t-5 57v152q0 64 23 92.5t70 28.5q21 0 34 -7t18.5 -13t7.5 -7h3v250q0 27 -14.5 43.5t-32.5 16.5q-19 0 -34 -16.5t-15 -43.5v-164h-49v146zM193 285
q0 27 -16 43.5t-38 16.5q-23 0 -38.5 -16t-15.5 -44v-195q0 -27 15.5 -43t38.5 -16q22 0 38 16t16 43v195z" />
    <glyph glyph-name="uni10DC.case" horiz-adv-x="288" 
d="M181 700q18 -5 31 -5q21 0 40 9v-40q-21 -9 -40 -9q-12 0 -32 5q-26 6 -38 6q-23 0 -40 -18t-17 -48v-241h2q2 2 10 9.5t21 13t29 5.5q59 0 76.5 -31.5t17.5 -79.5v-177q0 -110 -102 -110q-57 0 -79 29.5t-22 78.5v500q0 46 19 77.5t80 31.5q16 0 44 -6zM101 46
q16 -16 38 -16q23 0 38.5 16t15.5 43v198q0 28 -15.5 44t-38.5 16q-22 0 -38 -16.5t-16 -43.5v-198q0 -27 16 -43z" />
    <glyph glyph-name="uni10DD.case" horiz-adv-x="486" 
d="M409 593q0 48 -19.5 80.5t-83.5 32.5q-24 0 -44 -11.5t-32 -27.5h-2q-35 39 -78 39q-62 0 -81.5 -31t-19.5 -79v-596h49v606q0 28 14.5 44t37.5 16q25 0 39.5 -15t14.5 -45v-335h48v335q0 28 16 44t38 16q25 0 40 -15t15 -45v-394q0 -34 -9 -73.5t-26.5 -68t-41.5 -30.5
v-40h182v40h-107v2q20 17 35 71t15 98v382z" />
    <glyph glyph-name="uni10DE.case" horiz-adv-x="277" 
d="M55.5 21.5q-19.5 31.5 -19.5 78.5v203h48v-213q0 -29 15.5 -44t38.5 -15t38.5 15t15.5 44v226q0 28 -16 45t-38 17h-22v40h25q20 0 32.5 17.5t12.5 46.5q0 28 -10.5 46t-31.5 40q-22 23 -33 40.5t-12 45.5v44h49v-44q1 -19 10.5 -34.5t28.5 -38.5q23 -27 35 -48.5
t12 -50.5q0 -18 -11 -39t-28 -36v-2q29 -17 37 -44.5t8 -63.5v-202q0 -49 -22.5 -77t-79.5 -28q-63 0 -82.5 31.5z" />
    <glyph glyph-name="uni10DF.case" horiz-adv-x="327" 
d="M244 698l-93 -62v-69q0 -23 -7.5 -34.5t-25.5 -11.5t-25.5 11t-7.5 33v39h-49v-53q0 -30 21 -50t61 -20t60.5 19.5t20.5 48.5v59l40 28h2v-547q0 -26 -16 -42.5t-38 -16.5t-38 16t-16 43v260h-47v-252q0 -49 22 -78.5t79 -29.5q63 0 82.5 31t19.5 78v600h-45z" />
    <glyph glyph-name="uni10E0.case" horiz-adv-x="432" 
d="M343 698v-13q0 -52 -29 -93t-89 -95q-53 -50 -85 -88t-35 -56h1q11 12 36 12q29 0 48 -12t27 -28h1q6 16 25.5 28t50.5 12q47 0 69.5 -20t28 -45t5.5 -57v-243h-49v265q0 28 -15 43.5t-37 15.5q-55 0 -55 -59v-162h-48v162q0 29 -14.5 44t-38.5 15q-25 0 -40 -15.5
t-15 -43.5v-265h-48v243q0 59 10 95q25 88 122 170q45 38 85 83t40 91v16h49z" />
    <glyph glyph-name="uni10E1.case" horiz-adv-x="280" 
d="M56.5 26q-18.5 36 -18.5 86v586h47v-607q0 -27 16 -43.5t38 -16.5q23 0 40 16.5t17 43.5q0 6 -10 68q-15 86 -15 108q0 26 4 52.5t9 39.5h47q-5 -15 -8.5 -41.5t-3.5 -50.5q0 -23 14 -93q11 -55 11 -73q0 -111 -105 -111q-64 0 -82.5 36z" />
    <glyph glyph-name="uni10E2.case" horiz-adv-x="404" 
d="M344 449q24 -26 24 -67v-257q0 -33 -17 -64t-54.5 -51t-94.5 -20q-166 0 -166 135v573h48v-575q0 -41 33 -66.5t85 -25.5q53 0 85.5 26.5t32.5 65.5v258q0 60 -74 60q-35 0 -55 -15.5t-20 -44.5v-117q0 -20 6 -34t28 -14q36 0 36 48v111h49v-100q0 -50 -18 -75t-66 -25
q-47 0 -65.5 25t-18.5 75v107q0 39 20 65t45 28v1q-17 7 -26.5 22.5t-9.5 37.5v93q0 32 22 55.5t63 23.5t62 -23.5t21 -55.5v-93q0 -22 -8 -37.5t-24 -22.5v-1q33 0 57 -26zM264.5 653q-6.5 15 -29.5 15q-22 0 -28.5 -15t-6.5 -39v-71q0 -24 6 -37.5t29 -13.5t29.5 13.5
t6.5 37.5v71q0 24 -6.5 39z" />
    <glyph glyph-name="uni10E3.case" horiz-adv-x="380" 
d="M22 696q3 -11 22 -11q6 0 20 8q12 7 22.5 11t23.5 4q22 0 41.5 -11.5t30.5 -26.5h1q10 16 27 27t41 11q49 0 70.5 -27.5t21.5 -73.5v-505q0 -48 -19 -80t-82 -32q-64 0 -83 33.5t-19 81.5v239h48v-254q0 -27 15.5 -43t38.5 -16q22 0 38 16t16 43v522q0 29 -13 42.5
t-32 13.5q-18 0 -31 -14t-13 -37v-133h-48v124q0 27 -15 43.5t-34 16.5q-12 0 -20 -3.5t-19 -9.5q-18 -10 -30 -10q-25 0 -39.5 14t-16.5 37h37z" />
    <glyph glyph-name="uni10E4.case" horiz-adv-x="423" 
d="M244 692.5q19 13.5 49 13.5q88 0 88 -102v-188q0 -30 -15 -51t-41 -21v-1q35 0 45.5 -26t10.5 -52v-153q0 -54 -37 -88t-119 -34q-96 0 -126.5 34.5t-30.5 87.5v169h48v-179q0 -34 30.5 -52.5t78.5 -18.5q47 0 77.5 19t30.5 52v154q0 28 -9.5 45.5t-27.5 17.5h-22v43h21
q15 0 26.5 17t11.5 38v187q0 62 -45 62q-42 0 -42 -54v-141q0 -48 -22.5 -76t-79.5 -28q-54 0 -77.5 28t-23.5 72v144q0 47 21.5 71t75.5 24q31 0 53 -13.5t27 -31.5h1q4 18 23 31.5zM106 422q15 -15 38 -15q24 0 39 14.5t15 45.5v137q0 32 -15 47t-39 15q-23 0 -38 -15.5
t-15 -46.5v-137q0 -30 15 -45z" />
    <glyph glyph-name="uni10E5.case" horiz-adv-x="277" 
d="M198 698l-100 -81l28 -31l74 60h1l-1 -164h-1q-5 12 -22.5 23t-35.5 11q-59 0 -77.5 -30t-18.5 -75v-40h48v46q0 27 14 43t34 16q22 0 36.5 -15.5t14.5 -43.5v-328q0 -27 -16 -43t-38 -16q-23 0 -38.5 16t-15.5 43v185h-48v-179q0 -106 102 -106q53 0 77.5 26.5
t24.5 67.5v615h-42z" />
    <glyph glyph-name="uni10E6.case" horiz-adv-x="455" 
d="M118 651.5q16 15.5 38 15.5q24 0 39 -15.5t15 -44.5v-151h48v151q0 29 16 44.5t38 15.5q23 0 38.5 -15.5t15.5 -44.5v-256h48v255q0 101 -102 101q-23 0 -43 -11.5t-34 -27.5q-14 16 -35 27.5t-44 11.5q-102 0 -102 -102v-214q0 -58 51 -102v-1h-65v-45h28
q53 0 107.5 -33t95.5 -89t57 -121h48q-14 62 -47 112.5t-65.5 83t-87.5 79.5q-3 3 -26 21t-35.5 42t-12.5 52v217q0 29 16 44.5z" />
    <glyph glyph-name="uni10E7.case" horiz-adv-x="278" 
d="M241 111q0 -31 -5 -56t-27.5 -45t-68.5 -20q-65 0 -83.5 36t-18.5 86v141h48v-163q0 -26 17 -42.5t37 -16.5q19 0 36 17t17 42v304h-2q-7 -11 -23 -19.5t-32 -8.5q-100 0 -100 102v231h48v-233q0 -28 15.5 -43.5t38.5 -15.5q22 0 38 16t16 43v233h49v-588z" />
    <glyph glyph-name="uni10E8.case" horiz-adv-x="344" 
d="M160 696q21 11 50 11q52 0 74.5 -29t22.5 -75v-505q0 -109 -103 -109q-47 0 -69.5 20t-27.5 45t-5 57v161q0 104 102 104q16 0 31.5 -8.5t21.5 -18.5h1v258q0 28 -15 44t-37 16q-23 0 -38.5 -16t-15.5 -44v-122h-48v122q0 27 -15 43.5t-34 16.5q-25 0 -35 -15h-2l-22 33
v1q12 11 25.5 16t33.5 5q41 0 72 -36h1q11 14 32 25zM258 276q0 27 -16 43.5t-38 16.5q-23 0 -38.5 -16t-15.5 -44v-187q0 -27 15.5 -43t38.5 -16q22 0 38 16t16 43v187z" />
    <glyph glyph-name="uni10E9.case" horiz-adv-x="286" 
d="M87 351q7 12 25 20t42 8q46 0 66.5 -27.5t20.5 -74.5v-276h-48v278q0 28 -15.5 44t-38.5 16q-22 0 -38 -16.5t-16 -43.5v-278h-47v576q0 59 31 94t90 35q37 0 64 -20t27 -71q0 -63 -50 -107t-114 -80v-77h1zM105 486q44 29 70.5 56.5t26.5 66.5q0 58 -45 58
q-33 0 -52.5 -30t-19.5 -75v-89q3 2 20 13z" />
    <glyph glyph-name="uni10EA.case" horiz-adv-x="283" 
d="M213.5 626.5q5.5 -30.5 16.5 -72.5q9 -30 13 -50t4 -43q0 -24 -14.5 -46.5t-32.5 -27.5v-1q24 -7 32.5 -33t8.5 -82v-159q0 -51 -18.5 -87t-83.5 -36t-83 36t-18 87v586h47v-608q0 -27 16 -43.5t38 -16.5t38 16.5t16 43.5v184q0 46 -10 70.5t-27 24.5h-7v40h10
q15 0 27.5 13t12.5 48q0 23 -4 41t-13 47q-11 40 -16.5 68.5t-6.5 71.5h48q1 -41 6.5 -71.5z" />
    <glyph glyph-name="uni10EB.case" horiz-adv-x="278" 
d="M145 707q53 0 74.5 -28.5t21.5 -76.5v-490q0 -32 -5.5 -57t-28 -45t-69.5 -20t-69.5 20t-27.5 45t-5 57v167q0 46 17.5 77.5t74.5 31.5q18 0 34.5 -7.5t28.5 -19.5h2v246q0 26 -15 41t-33 16l-43 2v41h43zM192 288q0 27 -16 43.5t-38 16.5q-23 0 -38.5 -16t-15.5 -44
v-198q0 -27 15.5 -43t38.5 -16q22 0 38 16t16 43v198z" />
    <glyph glyph-name="uni10EC.case" horiz-adv-x="308" 
d="M25 576q-3 18 -3 33q0 44 24.5 70t68.5 26q48 0 73 -39q9 19 27 29.5t40 10.5q28 0 50 -14l-21 -35q-12 6 -25 6q-20 0 -33.5 -13.5t-13.5 -35.5l1 -10l10 -65h-46l-12 73q-4 23 -18.5 37t-31.5 14q-20 0 -35 -12.5t-15 -37.5q0 -10 1 -15l35 -190h1q1 2 8.5 13.5
t25.5 19.5t44 8q39 0 63.5 -24.5t24.5 -62.5q0 -15 -2 -23l-63 -339h-63zM177 85l41 245q2 12 2 17q0 27 -15 44t-37 17q-23 0 -38.5 -13.5t-15.5 -37.5q0 -9 1 -14l49 -259l6 -49z" />
    <glyph glyph-name="uni10ED.case" horiz-adv-x="389" 
d="M241 698h-46l-87 -80l30 -27l57 50h1v-159h-1q-6 14 -24 24t-36 10q-55 0 -77.5 -26.5t-22.5 -72.5v-29q0 -47 22.5 -73.5t78.5 -26.5q15 0 32 6t24 13h2v-218q0 -27 -16 -43t-38 -16q-21 0 -37 16t-16 43v122h-47v-125q0 -97 100 -97q65 0 83.5 32.5t18.5 80.5v264h1
q29 0 45.5 -54t17.5 -157h48q-1 109 -25.5 183.5t-78.5 74.5v1q29 1 52 42t36 100t14 111h-41q-1 -61 -22 -123.5t-47 -92.5h-1v247zM179 344q-16 -16 -41 -16q-24 0 -39.5 16t-15.5 44v29q0 28 15.5 43.5t39.5 15.5q25 0 41 -15.5t16 -43.5v-29q0 -28 -16 -44z" />
    <glyph glyph-name="uni10EE.case" horiz-adv-x="277" 
d="M232.5 316.5q8.5 -24.5 8.5 -48.5v-177q0 -102 -102 -102q-54 0 -77.5 28t-23.5 73v610h47v-351h1q8 12 25 20t36 8q17 0 29 -4l34 32l22 -23l-26 -26q18 -15 26.5 -39.5zM193 277q0 28 -15.5 44t-38.5 16q-22 0 -38 -16.5t-16 -43.5v-188q0 -27 16 -43t38 -16
q23 0 38.5 16t15.5 43v188z" />
    <glyph glyph-name="uni10EF.case" horiz-adv-x="414" 
d="M118 101v103h48v-113q0 -27 15.5 -43.5t38.5 -16.5q22 0 38 16.5t16 43.5v110q0 27 -17.5 47t-39.5 20q-21 0 -32 -5.5t-19 -16.5l-46 23l70 170l-95 117q-12 13 -21 13q-11 0 -18 -7t-7 -16q0 -10 7.5 -20.5t23.5 -30.5l32 -38l-37 -30l-32 39q-37 37 -37 70t23 54.5
t49 21.5q20 0 35 -10t34 -32l63 -76l36 84q19 48 19 67q0 24 -24 24q-10 0 -17.5 -10.5t-12.5 -22.5t-7 -17l-5 -13l-41 18l4 13q11 30 32 51.5t53 21.5t50.5 -20t18.5 -52q0 -20 -10 -44l-59 -144l44 -54q15 -19 25.5 -27t20.5 -8t16 7t6 15q-1 9 -7.5 18.5t-21.5 26.5
l-7 9l35 30l10 -9q15 -15 25 -33.5t10 -36.5q0 -26 -22.5 -48.5t-47.5 -22.5q-21 0 -39 11t-39 36l-29 32h-1l-41 -93h1q12 6 41 6q23 0 45.5 -13.5t36.5 -35t14 -45.5v-117q0 -46 -19.5 -76.5t-82.5 -30.5q-102 0 -102 110z" />
    <glyph glyph-name="uni10F0.case" horiz-adv-x="271" 
d="M166 502.5q-16 -12.5 -44 -12.5h-49v-45h38q71 0 71 -53q0 -29 -19 -39.5t-34 -10.5h-54v-45h53q24 0 39 -17.5t15 -45.5v-141q0 -24 -14 -40.5t-34 -16.5q-21 0 -35 16.5t-14 40.5v112h-49v-100q0 -52 21.5 -83.5t76.5 -31.5q54 0 75.5 31t21.5 82v134q0 32 -15 54
t-40 29q26 5 40.5 24.5t14.5 51.5q0 26 -16.5 47t-40.5 27q23 8 40 29t17 46q0 30 -24.5 53t-59.5 28q23 14 23 59v9h-41v-9q0 -22 -8.5 -34.5t-23.5 -12.5h-19v-45h38q34 0 50 -13t16 -42q0 -23 -16 -35.5z" />
    </font>
</defs>
</svg>
