<?xml version="1.0" standalone="no"?>
<!DOCTYPE svg PUBLIC "-//W3C//DTD SVG 1.1//EN" "http://www.w3.org/Graphics/SVG/1.1/DTD/svg11.dtd" >
<svg xmlns="http://www.w3.org/2000/svg" xmlns:xlink="http://www.w3.org/1999/xlink" version="1.1">
<metadata>
Created by FontForge 20161013 at Sun Jun  4 15:29:23 2017
 By ,,,
Copyright (c) 2017 by Unknow Designer, Anna Dumbadze. All rights reserved.
</metadata>
<defs>
<font id="GLEreklesStamba-Regular" horiz-adv-x="436" >
  <font-face 
    font-family="GL Erekles Stamba"
    font-weight="400"
    font-stretch="normal"
    units-per-em="1000"
    panose-1="2 0 6 3 0 0 0 0 0 0"
    ascent="800"
    descent="-200"
    x-height="505"
    cap-height="756"
    bbox="-179 -440 1187 986"
    underline-thickness="50"
    underline-position="-150"
    unicode-range="U+000D-FB03"
  />
<missing-glyph horiz-adv-x="1000" 
 />
    <glyph glyph-name="f_f_l" unicode="ffl" horiz-adv-x="871" 
d="M419 440l-89 1l-156 -3v-63q0 -137 3 -232l3 -102q0 -51 -38 -51q-39 0 -39 51l1 55q4 97 4 279v61h-40q-48 0 -48 33q0 35 48 35q28 0 39 -1v82q0 88 34.5 131.5t86.5 43.5q46 0 78.5 -18t32.5 -40q0 -33 -28 -33q-12 0 -35 12q-22 12 -40 12q-62 0 -62 -117v-75
q24 0 35 -1l119 -1q70 0 89 1v89q0 87 57 129t150 42q85 0 145 -29q28 -16 28 -58l-1 -49q-4 -85 -4 -212q0 -158 5 -316l1 -55q0 -51 -39 -51t-39 51l2 55q4 125 4 279l-5 303q-49 15 -95 15q-142 0 -142 -117v-76l85 5q24 0 37.5 -9.5t13.5 -26.5q0 -34 -51 -34
q-27 0 -84 3v-63q0 -137 3 -232l3 -102q0 -51 -38 -51q-18 0 -28.5 14t-10.5 37l5 334v65z" />
    <glyph glyph-name="f_f_i" unicode="ffi" horiz-adv-x="864" 
d="M506 500l245 6q39 0 39 -48l-5 -208l6 -209q0 -23 -11 -37t-29 -14t-28 14t-10 37l6 209l-5 190q-59 4 -119 4q-33 0 -111 -2v-67q0 -137 3 -232l3 -109q0 -17 -11 -30.5t-28 -13.5q-37 0 -37 51l5 334v65l-89 1l-156 -3v-63q0 -137 3 -232l3 -102q0 -51 -38 -51
q-39 0 -39 51l1 55q4 97 4 279v61h-40q-48 0 -48 33q0 35 48 35q28 0 39 -1v82q0 88 34.5 131.5t86.5 43.5q46 0 78.5 -18t32.5 -40q0 -33 -28 -33q-12 0 -35 12q-22 12 -40 12q-62 0 -62 -117v-75q24 0 35 -1l120 -1q70 0 89 1v85q0 88 34.5 131.5t86.5 43.5q46 0 78.5 -18
t32.5 -40q0 -33 -28 -33q-13 0 -35 12q-23 12 -40 12q-62 0 -62 -117v-76h21zM717.5 632.5q-11.5 13.5 -11.5 37.5t14.5 41t35.5 17q20 0 30.5 -13t10.5 -35q0 -23 -13 -42t-34 -19t-32.5 13.5z" />
    <glyph glyph-name=".notdef" horiz-adv-x="1000" 
 />
    <glyph glyph-name="uni0000" horiz-adv-x="0" 
 />
    <glyph glyph-name="uni0000" horiz-adv-x="0" 
 />
    <glyph glyph-name="nonmarkingreturn" horiz-adv-x="270" 
 />
    <glyph glyph-name="uni000D" unicode="&#xd;" horiz-adv-x="333" 
 />
    <glyph glyph-name="space" unicode=" " horiz-adv-x="238" 
 />
    <glyph glyph-name="exclam" unicode="!" horiz-adv-x="242" 
d="M157 256q0 -50 -36 -50t-36 50l3 212q0 60 -3 148l-4 94q0 50 40 50t40 -50l-3 -94q-4 -79 -4 -148zM156 85.5q11 -14.5 11 -38.5t-14.5 -43t-34.5 -19t-31.5 15.5t-11.5 39.5q0 23 15 41.5t35 18.5t31 -14.5z" />
    <glyph glyph-name="quotedbl" unicode="&#x22;" horiz-adv-x="342" 
d="M124 712q11 -13 11 -28q0 -14 -6 -58q-5 -38 -7 -74q-1 -27 -7 -46q-4 -16 -19 -16q-16 0 -20 16q-5 15 -7 46q-1 25 -8 74q-6 44 -6 58q0 15 11 28t29 13t29 -13zM276 712q11 -13 11 -28q0 -14 -6 -58q-5 -38 -7 -74q-1 -27 -7 -46q-4 -16 -19 -16q-16 0 -20 16
q-5 15 -7 46q-1 25 -8 74q-6 44 -6 58q0 15 11 28t29 13t29 -13z" />
    <glyph glyph-name="numbersign" unicode="#" horiz-adv-x="803" 
d="M524 214q-14 -74 -33 -187q-8 -41 -41 -41q-13 0 -21 9t-8 23q0 11 5 36q23 112 32 162h-173l-21 -117q-4 -27 -5 -36q-5 -33 -8.5 -48t-12.5 -22.5t-27 -7.5q-13 0 -21 9t-8 23q0 11 5 36l16 70q10 45 18 92l-127 -3q-46 0 -46 33t46 33l140 -3l32 165l-129 -3
q-46 0 -46 33t46 33l139 -3l21 106q4 26 5 33q4 31 8 45t12.5 21.5t26.5 7.5q12 0 20.5 -9.5t8.5 -21.5q0 -10 -5 -35l-14 -65q-11 -47 -18 -83h173l21 107l5 34q5 31 8.5 45t12.5 21.5t27 7.5q12 0 20.5 -9.5t8.5 -21.5q0 -10 -5 -35l-14 -65q-11 -47 -18 -83l129 3
q46 0 46 -33t-46 -33l-142 3l-32 -165l130 3q46 0 46 -33t-46 -33zM472 274l32 167h-176l-32 -167h176z" />
    <glyph glyph-name="dollar" unicode="$" horiz-adv-x="554" 
d="M452.5 56q-50.5 -54 -133.5 -67q2 -34 2 -48q0 -51 -35 -51t-35 51l1 46q-50 3 -96.5 20.5t-75 41t-28.5 44.5q0 14 8 22.5t21 8.5q14 0 33 -16q64 -52 140 -57q2 186 2 307q-88 49 -131 95t-43 103q0 60 47.5 103t122.5 51v39q0 51 34 51t34 -51v-39q64 -6 107 -30
t43 -53q0 -12 -7.5 -20t-21.5 -8t-52 23q-36 21 -71 23q-2 -160 -2 -241q78 -46 117 -81t55 -69q15 -31 15 -68q0 -76 -50.5 -130zM256 438q0 113 -2 207q-44 -5 -71.5 -28.5t-27.5 -61.5q0 -52 101 -117zM396 98.5q32 36.5 32 82.5q0 43 -27 75t-85 67q0 -224 1 -269
q47 8 79 44.5z" />
    <glyph glyph-name="percent" unicode="%" horiz-adv-x="804" 
d="M529 602q-200 -572 -208 -592q-10 -25 -36 -25q-13 0 -22 9.5t-9 24.5q0 16 25 76q107 264 178 482q-18 -8 -45 -8q-28 0 -76 14q5 -20 5 -41q0 -48 -18.5 -87.5t-51.5 -62.5t-76 -23q-66 0 -106.5 48t-40.5 124q0 49 19 88.5t52 62.5t72 23q60 0 112 -43q53 -44 101 -44
q47 0 68 18l8 28q18 66 37 79q8 7 26 7q17 0 29.5 -15.5t12.5 -38.5q0 -42 -56 -104zM257 458q23 32 23 83t-22.5 84t-61.5 33t-62 -32t-23 -83t23 -84t62 -33q38 0 61 32zM716.5 283q40.5 -48 40.5 -123q0 -49 -19 -89t-53 -63t-77 -23q-66 0 -106.5 48t-40.5 124
q0 49 19 89t53.5 62.5t77.5 22.5q65 0 105.5 -48zM670 74q23 32 23 83t-22.5 84t-60.5 33q-39 0 -62 -32t-23 -83t22.5 -84t61.5 -33q38 0 61 32z" />
    <glyph glyph-name="ampersand" unicode="&#x26;" horiz-adv-x="765" 
d="M535 349q56 0 98 27.5t42 73.5q0 75 -76 100q-30 10 -42 19.5t-12 24.5t10.5 23.5t27.5 8.5q36 0 73.5 -25t62 -64.5t24.5 -79.5q0 -63 -37 -101q-64 -70 -198 -70q27 -45 27 -109q0 -44 -29.5 -88.5t-83.5 -74t-124 -29.5q-73 0 -130 32.5t-89 89t-32 125.5
q0 60 34.5 116.5t92.5 95.5q-33 29 -54.5 68t-21.5 78q0 43 21 78.5t60 56t91 20.5q34 0 66.5 -10.5t53 -27.5t20.5 -35q0 -15 -9 -24t-22 -9q-12 0 -42 21q-31 20 -71 20q-42 0 -70 -24t-28 -60t17 -68.5t43 -50.5q21 6 48 6t45.5 -12.5t18.5 -33.5t-19.5 -34t-48.5 -13
q-26 0 -50 11q-49 -24 -76 -67t-27 -99q0 -51 23 -92.5t63.5 -65.5t90.5 -24q49 0 87.5 19t60 51.5t21.5 70.5q0 87 -50 87q-13 0 -33 -9q-19 -9 -35 -9q-15 0 -24.5 10.5t-9.5 25.5q0 24 28 39.5t69 15.5z" />
    <glyph glyph-name="quotesingle" unicode="'" horiz-adv-x="190" 
d="M124 712q11 -13 11 -28q0 -14 -6 -58q-5 -38 -7 -74q-1 -27 -7 -46q-4 -16 -19 -16q-16 0 -20 16q-5 15 -7 46q-1 25 -8 74q-6 44 -6 58q0 15 11 28t29 13t29 -13z" />
    <glyph glyph-name="parenleft" unicode="(" horiz-adv-x="302" 
d="M272 750q10 -10 10 -26q0 -14 -8.5 -28t-31.5 -43q-18 -23 -37 -56q-84 -148 -84 -358q0 -162 56 -291q31 -72 79 -132q12 -15 12 -25q0 -21 -19 -21q-29 0 -70 52.5t-69 118.5q-64 149 -64 343q0 80 20.5 168.5t51.5 157.5q29 63 65 108q35 42 57 42t32 -10z" />
    <glyph glyph-name="parenright" unicode=")" horiz-adv-x="303" 
d="M192 -59q-28 -66 -69 -118.5t-70 -52.5q-19 0 -19 21q0 10 12 25q135 169 135 423q0 210 -84 358q-19 33 -37 56q-23 29 -31.5 43t-8.5 28q0 16 10 26t32 10q23 0 58 -42q75 -93 115 -262q21 -88 21 -172q0 -194 -64 -343z" />
    <glyph glyph-name="asterisk" unicode="*" horiz-adv-x="424" 
d="M245 465q0 -18 -9 -29.5t-24 -11.5q-14 0 -23.5 11t-9.5 24q0 8 5 43q5 32 6 53q-15 -10 -40 -30q-19 -16 -34 -25q-10 -7 -22 -7t-21.5 9t-9.5 21t7.5 21t18.5 13l35 14q20 7 46 20q-23 12 -46 21l-35 13q-11 4 -18.5 13t-7.5 21t9.5 21t21.5 9q11 0 22 -6
q26 -18 34 -25q22 -19 40 -31l-11 92q0 18 9 29.5t24 11.5q14 0 23.5 -11t9.5 -24q0 -16 -4 -44q-6 -45 -7 -54q23 15 41 31q17 13 33 25q11 6 23 6t21 -9t9 -21t-7 -21t-18 -13l-36 -13q-23 -9 -46 -21q26 -13 46 -20l36 -14q11 -4 18 -13t7 -21t-9 -21t-21 -9q-13 0 -23 7
q-12 7 -33 25q-20 16 -41 30z" />
    <glyph glyph-name="plus" unicode="+" horiz-adv-x="529" 
d="M442 294q18 0 29.5 -9t11.5 -24t-11.5 -24t-29.5 -9q-50 0 -146 3l4 -157q0 -19 -9.5 -30t-25.5 -11q-33 0 -33 41l4 157l-134 -3q-31 0 -43 8.5t-12 24.5q0 15 11.5 24t29.5 9l148 -3l-4 143q0 41 33 41q15 0 25 -10.5t10 -22.5q0 -27 -4 -151z" />
    <glyph glyph-name="comma" unicode="," horiz-adv-x="210" 
d="M134.5 -42.5q-16.5 -47.5 -40.5 -79t-46 -31.5q-8 0 -14 5.5t-6 13.5t19 39q18 31 18 57q0 27 -4 44q-4 16 -4 38q0 21 15 39.5t36 18.5q20 0 31.5 -15t11.5 -38q0 -44 -16.5 -91.5z" />
    <glyph glyph-name="hyphen" unicode="-" horiz-adv-x="428" 
d="M214 291l107 3q18 0 29.5 -9t11.5 -24t-11.5 -24t-29.5 -9l-107 3l-107 -3q-18 0 -29.5 9t-11.5 24t11.5 24t29.5 9z" />
    <glyph glyph-name="period" unicode="." horiz-adv-x="207" 
d="M138.5 92q11.5 -15 11.5 -39q0 -25 -14.5 -44t-35.5 -19q-20 0 -32 15.5t-12 40.5q0 24 15 42.5t36 18.5q20 0 31.5 -15z" />
    <glyph glyph-name="slash" unicode="/" horiz-adv-x="363" 
d="M56 -112q0 19 37 174q57 247 95 437l29 150l6 33q7 45 15 61.5t32 16.5q36 0 36 -42q0 -14 -12 -67q-92 -387 -148 -692l-7 -38q-7 -43 -15 -58t-32 -15q-36 0 -36 40z" />
    <glyph glyph-name="zero" unicode="0" horiz-adv-x="658" 
d="M596 350q0 -99 -34 -183t-94.5 -133t-138.5 -49t-138.5 49t-94.5 133t-34 183t34 183t94.5 133t138.5 49q120 0 193 -108q74 -109 74 -257zM524 350q0 79 -25.5 148t-70 110t-99.5 41t-99.5 -41t-70 -110t-25.5 -148t25.5 -148t70 -110t99.5 -41q85 0 140 90
q55 88 55 209z" />
    <glyph glyph-name="one" unicode="1" horiz-adv-x="397" 
d="M298 91l1 -58q0 -16 -11.5 -29.5t-27.5 -13.5t-27.5 13.5t-11.5 29.5l1 58q4 89 4 260v251l-48 -60l-27 -35q-25 -34 -42 -54q-16 -19 -29 -31q-13 -10 -26 -10q-12 0 -21.5 10t-9.5 21t2.5 17t11.5 18q14 18 48 54q46 51 86 102q6 8 23.5 31.5t31.5 34t28 10.5
q21 0 33 -13t12 -30q0 -30 -1 -59q-4 -92 -4 -217q0 -139 1 -186z" />
    <glyph glyph-name="two" unicode="2" horiz-adv-x="548" 
d="M267 64l190 5q21 0 35.5 -11t14.5 -26q0 -37 -50 -37l-190 5l-171 -5q-50 0 -50 46q0 32 20 61t54 67l60 66l58 63q14 14 21 23l14 15q21 23 53 60q19 23 30.5 43t15.5 26q21 36 21 67q0 32 -16.5 59t-43.5 42.5t-57 15.5q-43 0 -72.5 -15t-43.5 -38q-33 -53 -59 -53
q-14 0 -23.5 9.5t-9.5 23.5q0 27 27.5 60t74.5 56t102 23q56 0 100 -25t68.5 -65.5t24.5 -85.5q0 -59 -29 -108t-81 -106q-41 -44 -59 -65q-30 -33 -44 -47l-19 -21q-48 -50 -72.5 -79t-32.5 -49h139z" />
    <glyph glyph-name="three" unicode="3" horiz-adv-x="568" 
d="M419 704q60 0 60 -46q0 -22 -19 -44q-22 -27 -68 -73q-48 -49 -89 -98q97 -20 150 -80t53 -148q0 -59 -29 -112t-83.5 -85.5t-125.5 -32.5q-53 0 -102 21.5t-79 52.5t-30 58q0 11 7.5 20t17.5 9t17 -5t18 -17q17 -22 46 -43q15 -11 46.5 -20.5t66.5 -9.5q45 0 81 22
t56.5 60.5t20.5 85.5t-23 84t-62.5 58.5t-85.5 24.5q-31 -31 -51 -43t-41 -12t-32.5 11.5t-11.5 32.5q0 22 26.5 44t73.5 31q83 92 156 182l-116 4l-152 -5q-22 0 -35 10t-13 27t13 27t35 10l152 -5z" />
    <glyph glyph-name="four" unicode="4" horiz-adv-x="578" 
d="M437 40q0 -23 -10.5 -36.5t-28.5 -13.5t-28.5 13.5t-10.5 36.5l4 190l-74 1l-219 -4q-20 0 -32.5 11t-12.5 25q0 13 2 20.5t8 18.5q10 18 35 52l31 38q20 24 97 122l117 149q36 47 70 47q52 0 52 -60l-1 -51q-4 -93 -4 -302l57 3q22 0 36 -10t14 -27q0 -16 -13 -26.5
t-28 -10.5l-66 2zM364 295q2 98 2 179l-2 140q-43 -49 -128.5 -159t-120.5 -160h249z" />
    <glyph glyph-name="five" unicode="5" horiz-adv-x="575" 
d="M290 636q-42 0 -88 -2l-46 -2q6 -51 6 -88q0 -61 -6 -115l-2 -18q71 54 147 54q69 0 119 -29.5t76 -82.5t26 -120t-30 -124t-85 -90.5t-127 -33.5q-56 0 -106 24.5t-81 61t-31 68.5q0 15 8.5 24.5t21.5 9.5q12 0 20 -6t17 -22q7 -13 15 -23q60 -71 136 -71q49 0 88 25.5
t60.5 67.5t21.5 90q0 72 -42 118.5t-111 46.5t-140 -55q-23 -19 -37 -19q-39 0 -39 42q0 15 7 68q6 56 6 96q0 35 -5 77q-6 38 -6 50q0 47 55 47l152 -5l142 5q22 0 35 -10t13 -27t-13 -27t-35 -10z" />
    <glyph glyph-name="six" unicode="6" horiz-adv-x="577" 
d="M425.5 422q47.5 -31 73 -83.5t25.5 -115.5q0 -64 -27.5 -118.5t-79 -87t-121.5 -32.5q-71 0 -124 36t-81.5 100t-28.5 145q0 122 47 224t130 161t185 59q64 0 64 -35q0 -37 -55 -37q-75 0 -138 -37.5t-103.5 -101t-50.5 -138.5q26 39 72.5 65.5t100.5 26.5
q64 0 111.5 -31zM378 71.5q35 22.5 54.5 61.5t19.5 86q0 73 -41.5 121.5t-109.5 48.5q-45 0 -81.5 -24.5t-57.5 -65.5t-21 -86t21.5 -82.5t58 -59.5t79.5 -22t78 22.5z" />
    <glyph glyph-name="seven" unicode="7" horiz-adv-x="490" 
d="M243 700l162 5q60 0 60 -47q0 -19 -17 -58q-20 -44 -58 -118q-49 -98 -98 -213.5t-74 -204.5l-11 -40q-13 -34 -41 -34q-14 0 -24 11.5t-10 24.5q0 21 7 48l8 27q2 10 11 32l14 34q23 59 36 86q3 6 8.5 18.5t13.5 33.5l19 45l15 33l60 134q31 69 50 115l-131 4l-162 -5
q-50 0 -50 37t50 37z" />
    <glyph glyph-name="eight" unicode="8" horiz-adv-x="576" 
d="M517 181q0 -52 -29.5 -97t-81.5 -72t-118 -27t-118 27t-81.5 72t-29.5 97q0 139 164 213q-64 36 -95 75t-31 95q0 39 25 74t69 56t97 21t97 -21.5t69 -56.5t25 -73q0 -54 -29 -93t-89 -77q156 -77 156 -213zM380 493q29 30 29 66q0 38 -35.5 64t-84.5 26t-85.5 -26
t-36.5 -64q0 -36 29.5 -65t93.5 -64q61 33 90 63zM288 355q-157 -67 -157 -167q0 -61 44.5 -99t112.5 -38t112.5 38t44.5 99q0 100 -157 167z" />
    <glyph glyph-name="nine" unicode="9" horiz-adv-x="575" 
d="M150 279.5q-48 32.5 -73.5 86t-25.5 116.5q0 62 28.5 115.5t81.5 85.5t121 32q69 0 121.5 -36t81 -100t28.5 -145q0 -126 -46.5 -227.5t-129 -159t-186.5 -57.5q-64 0 -64 35q0 37 55 37q77 0 139.5 36t102.5 99t50 142q-26 -39 -72.5 -65.5t-100.5 -26.5
q-63 0 -111 32.5zM199.5 628.5q-35.5 -22.5 -56 -61.5t-20.5 -86q0 -73 41.5 -121.5t110.5 -48.5q45 0 81 24.5t57 65.5t21 86t-20.5 82.5t-56.5 59.5t-79 22t-78.5 -22.5z" />
    <glyph glyph-name="colon" unicode=":" horiz-adv-x="226" 
d="M148.5 495q11.5 -15 11.5 -39q0 -25 -14.5 -44t-35.5 -19q-20 0 -32 15.5t-12 40.5q0 24 15 42.5t36 18.5q20 0 31.5 -15zM148.5 92q11.5 -15 11.5 -39q0 -25 -14.5 -44t-35.5 -19q-20 0 -32 15.5t-12 40.5q0 24 15 42.5t36 18.5q20 0 31.5 -15z" />
    <glyph glyph-name="semicolon" unicode=";" horiz-adv-x="242" 
d="M159.5 495q11.5 -15 11.5 -39q0 -25 -14.5 -44t-35.5 -19q-20 0 -32 15.5t-12 40.5q0 24 15 42.5t36 18.5q20 0 31.5 -15zM153.5 -42.5q-16.5 -47.5 -40.5 -79t-46 -31.5q-8 0 -14 5.5t-6 13.5t19 39q18 31 18 57q0 27 -4 44q-4 16 -4 38q0 21 15 39.5t36 18.5
q20 0 31.5 -15t11.5 -38q0 -44 -16.5 -91.5z" />
    <glyph glyph-name="less" unicode="&#x3c;" horiz-adv-x="543" 
d="M52.5 267.5q-7.5 10.5 -7.5 23.5q0 12 3 19t12 15q8 8 19 15t27 15l82 40q16 7 35 17l23 11l62 32q21 10 32.5 16t16.5 9q53 29 78 29q16 0 26.5 -9t10.5 -23q0 -13 -7 -22t-25 -18q-21 -10 -38 -17q-73 -30 -103 -44l-45 -21l-24 -11q-16 -6 -44 -22q-35 -17 -35 -28
q0 -16 195 -102q21 -10 24 -11l33 -14q31 -14 50.5 -26t19.5 -28q0 -18 -10 -29.5t-23 -11.5q-21 0 -56 17q-22 10 -36 19q-99 53 -161 83l-71 33q-16 7 -38 21q-18 12 -25.5 22.5z" />
    <glyph glyph-name="equal" unicode="=" horiz-adv-x="592" 
d="M473 366q18 0 29.5 -9t11.5 -24t-11.5 -24t-29.5 -9l-177 3l-177 -3q-18 0 -29.5 9t-11.5 24t11.5 24t29.5 9l177 -3zM296 219l177 3q18 0 29.5 -9t11.5 -24t-11.5 -24t-29.5 -9l-177 3l-177 -3q-18 0 -29.5 9t-11.5 24t11.5 24t29.5 9z" />
    <glyph glyph-name="greater" unicode="&#x3e;" horiz-adv-x="543" 
d="M495 310q3 -7 3 -19q0 -13 -7.5 -23.5t-25.5 -22.5q-25 -16 -72 -37l-23 -11q-61 -28 -126 -63l-48 -26q-66 -36 -89 -36q-15 0 -26 11t-11 25t7 22.5t26 18.5q19 11 37 18q88 38 170 77t82 50q0 10 -56 39q-8 4 -14 6.5t-9 4.5q-31 13 -56 26t-116 50q-53 22 -63 35
q-7 7 -7 22q0 13 10 22.5t22 9.5t22.5 -2.5t27.5 -10.5q6 -2 33 -16l50 -25q6 -3 10.5 -5.5t8.5 -4.5q34 -18 43 -22q47 -24 57 -28l82 -40q33 -17 47 -30q8 -8 11 -15z" />
    <glyph glyph-name="question" unicode="?" horiz-adv-x="451" 
d="M287 382q-62 -62 -62 -120q0 -59 -35 -59q-37 0 -37 56q0 75 62 143q17 19 52 54q62 65 62 125q0 31 -16 57.5t-40.5 42t-48.5 15.5q-34 0 -58.5 -11t-37.5 -27q-29 -38 -45 -38t-25 9t-9 23q0 23 24 48.5t63 42.5t79 17q55 0 97 -23.5t65.5 -64.5t23.5 -93
q0 -78 -62 -143q-17 -19 -52 -54zM224 85.5q11 -14.5 11 -38.5t-14.5 -43t-34.5 -19t-31.5 15.5t-11.5 39.5q0 23 15 41.5t35 18.5t31 -14.5z" />
    <glyph glyph-name="at" unicode="@" horiz-adv-x="1003" 
d="M690 243v-44q0 -141 76 -141q44 0 79 51q34 50 34 165q0 111 -51.5 198t-136.5 130q-84 42 -184 42q-101 0 -186.5 -57.5t-136 -154.5t-50.5 -210q0 -112 43.5 -200t117 -137t159.5 -49q51 0 97 12t72 28q7 4 26.5 15.5t32 17.5t18.5 6q11 0 18.5 -8.5t7.5 -21.5
q0 -12 -20 -32q-51 -46 -144 -69q-56 -14 -113 -14q-109 0 -198 57.5t-140.5 159.5t-51.5 231q0 133 58 246t161 180q104 66 230 66q129 0 230.5 -54t158.5 -154.5t57 -234.5q0 -78 -25 -141t-68 -99t-94 -36q-111 0 -131 126q-25 -57 -69.5 -91.5t-103.5 -34.5
q-63 0 -104 40q-74 71 -74 195q0 68 28.5 127t78.5 94t113 35q61 0 124 -45q8 45 42 45q39 0 39 -69q0 -12 -20 -170zM630 365q-52 51 -119 51q-43 0 -79 -24.5t-56.5 -66.5t-20.5 -91q0 -77 30 -128.5t81 -51.5t94.5 45.5t69.5 116.5v149z" />
    <glyph glyph-name="A" unicode="A" horiz-adv-x="642" 
d="M554 319q22 0 36 -11t14 -28q0 -38 -70 -38l24 -72q15 -47 20 -58q26 -73 26 -86q0 -15 -9.5 -25.5t-24.5 -10.5q-29 0 -44 35q-17 48 -34 106l-36 115q-120 3 -167 3t-112 -3q-61 -208 -66 -219q-13 -37 -39 -37q-15 0 -24 10t-9 25q0 14 9 45q11 38 28 84q22 66 29 90
h-18q-48 0 -48 37t48 37q29 0 41 -1l131 383q21 60 58 60q23 0 37 -13t24 -38q9 -22 30 -87q63 -192 102 -304zM199 315q56 -3 120 -3q63 0 115 3q-103 331 -115 331q-13 0 -93 -248z" />
    <glyph glyph-name="B" unicode="B" horiz-adv-x="655" 
d="M113 368q0 91 -1 161l-1 117l-16 -2q-30 0 -30 33q0 21 25.5 40t63.5 29q75 19 139 19q60 0 113.5 -18t85.5 -46q60 -56 60 -120q0 -116 -108 -173q71 -20 117 -76.5t46 -125.5q0 -104 -86 -162.5t-233 -58.5q-103 0 -166 22q-66 21 -66 55q0 12 7.5 20t20.5 8t26 -7z
M188 683q-3 -52 -3 -251q19 10 69 10q46 0 91 -8q24 1 53 17t54 48q27 35 27 81q0 31 -21.5 58t-65.5 43t-107 16q-43 0 -97 -14zM463 94q65 42 65 118q0 40 -24 72.5t-61.5 53.5t-79.5 28q-87 -15 -118 -15q-33 0 -60 7q0 -229 4 -297q47 -9 96 -9q113 0 178 42z" />
    <glyph glyph-name="C" unicode="C" horiz-adv-x="658" 
d="M586 47q-34 -26 -89 -44t-116 -18q-92 0 -166 52t-116 141.5t-42 197.5t42.5 197t117 140.5t166.5 51.5q54 0 104 -14.5t80.5 -38t30.5 -48.5q0 -16 -9.5 -25t-25.5 -9q-17 0 -39 16q-30 21 -64 35t-77 14q-70 0 -126 -43t-87.5 -116t-31.5 -158q0 -86 32 -160
t87.5 -118.5t124.5 -44.5q45 0 85 10t63 23l37 23q16 10 26 10q27 0 27 -26q0 -22 -34 -48z" />
    <glyph glyph-name="D" unicode="D" horiz-adv-x="709" 
d="M114 368l-5 286q-48 0 -48 38q0 35 66 51q68 17 149 17q82 0 157 -33.5t123 -90.5q96 -115 96 -272q0 -150 -93 -260q-46 -56 -119 -87.5t-164 -31.5q-96 0 -156 22q-63 21 -63 55q0 12 7.5 20t20.5 8t26 -7zM399.5 661.5q-60.5 26.5 -133.5 26.5q-37 0 -75 -9
q-5 -85 -5 -287q0 -211 6 -331q27 -5 84 -5q92 0 159.5 41.5t103 112.5t35.5 158q0 130 -76 221q-38 46 -98.5 72.5z" />
    <glyph glyph-name="E" unicode="E" horiz-adv-x="588" 
d="M491 71q50 0 50 -38t-50 -38l-162 5l-175 -5q-45 0 -45 38q0 36 3 118q2 110 2 212q-6 -1 -20 -1q-48 0 -48 37q0 17 13 28t30 11q19 0 25 -1q-1 191 -7 243q-12 17 -12 37q0 38 53 38l193 -5l150 5q50 0 50 -38t-50 -38l-150 5q-118 0 -150 -4q-5 -145 -5 -245l70 -2
l180 5q23 0 36.5 -10.5t13.5 -28.5q0 -37 -50 -37l-180 5q-14 0 -70 -2v-99q0 -144 5 -196q63 -4 138 -4z" />
    <glyph glyph-name="F" unicode="F" horiz-adv-x="566" 
d="M424 438q23 0 37 -11t14 -28t-14 -27t-37 -10l-169 5q-14 0 -70 -2l5 -317q0 -58 -41 -58t-41 58q0 40 3 137q2 130 2 178q-6 -1 -20 -1q-48 0 -48 37q0 17 13 28t30 11q19 0 25 -1q-1 191 -7 243q-12 17 -12 37q0 38 56 38l190 -5l146 5q54 0 54 -38t-54 -38l-146 5
q-118 0 -150 -4q-5 -145 -5 -245l70 -2z" />
    <glyph glyph-name="G" unicode="G" horiz-adv-x="722" 
d="M497 390q34 0 79 3l50 3q51 0 51 -44q0 -111 -37.5 -194.5t-105.5 -128.5t-157 -45q-88 0 -161.5 52.5t-116 142.5t-42.5 197q0 108 44 197t120.5 140.5t171.5 51.5q58 0 113 -16t88.5 -42t33.5 -53q0 -16 -9.5 -25t-25.5 -9q-28 0 -72 38q-20 15 -54 26t-74 11
q-72 0 -130.5 -43t-91.5 -116t-33 -158q0 -86 32 -160t87.5 -118.5t124.5 -44.5q60 0 107.5 31.5t75 91.5t28.5 142q-44 4 -96 4l-132 -5q-48 0 -48 37q0 18 13 28.5t35 10.5z" />
    <glyph glyph-name="H" unicode="H" horiz-adv-x="718" 
d="M607 436h16q22 0 36.5 -11.5t14.5 -28.5t-14 -27.5t-37 -10.5h-16l5 -317q0 -22 -12 -36.5t-29 -14.5t-29 14.5t-12 36.5l5 320q-147 3 -212 3q-66 0 -141 -3q0 -162 3 -237l2 -90q0 -16 -12 -30t-29 -14t-29 14t-12 30l1 60q4 92 4 265h-18q-48 0 -48 37q0 18 13 28.5
t35 10.5h18l-5 274q0 22 12 36.5t29 14.5t29 -14.5t12 -36.5l-5 -277q134 -2 190 -2q89 0 163 3l-5 276q0 22 12 36.5t29 14.5t29 -14.5t12 -36.5z" />
    <glyph glyph-name="I" unicode="I" 
d="M348 71q23 0 36.5 -10.5t13.5 -27.5t-14 -28t-36 -11l-129 6l-132 -5q-50 0 -50 38t50 38l91 -5q5 250 5 309q0 58 -5 308l-91 -4q-48 0 -48 37q0 18 13 28.5t35 10.5l132 -5q34 0 79 3l59 3q15 0 28.5 -12t13.5 -28t-13.5 -27t-29.5 -11l-66 3l-30 2q-5 -255 -5 -311
t5 -306z" />
    <glyph glyph-name="J" unicode="J" horiz-adv-x="523" 
d="M412 254q0 -87 -28.5 -146.5t-75 -88.5t-101.5 -29q-49 0 -89.5 16.5t-63.5 40t-23 44.5q0 15 9.5 25t22.5 10q19 0 50 -35q13 -14 36 -24.5t51 -10.5q61 0 99.5 55.5t38.5 164.5l1 98q0 196 -2 310q-7 1 -32 1l-135 -5q-48 0 -48 37q0 17 13 28t35 11l132 -5q34 0 79 3
l59 3q15 0 28.5 -12t13.5 -28q0 -17 -15 -27.5t-39 -10.5h-15q-2 -122 -2 -305z" />
    <glyph glyph-name="K" unicode="K" horiz-adv-x="618" 
d="M180 41q0 -22 -12 -36.5t-29 -14.5t-29 14.5t-12 36.5l5 331l-5 336q0 22 12 36.5t29 14.5q16 0 28.5 -14t12.5 -29q0 -28 -1 -53q-4 -135 -4 -239q30 12 86 12l47 -3q48 41 89 122.5t56 160.5q11 44 41 44q15 0 24.5 -10t9.5 -27q0 -43 -25 -109t-63 -129.5t-74 -98.5
q26 -59 76.5 -148t78.5 -128q25 -30 46 -38q21 -11 29 -9q8 0 8 -6q0 -29 -15.5 -48t-38.5 -19q-37 0 -87 69q-47 64 -166 290q-49 -9 -73 -9q-21 0 -49 5z" />
    <glyph glyph-name="L" unicode="L" horiz-adv-x="544" 
d="M175 372q0 -124 4 -301q45 -5 106 -5q70 0 118 4l68 3q15 0 28 -11t13 -28q0 -18 -13.5 -28.5t-36.5 -10.5l-151 5l-162 -5q-24 0 -37.5 13.5t-13.5 37.5l5 326l-5 337q0 23 11 37t30 14t30 -14t11 -37z" />
    <glyph glyph-name="M" unicode="M" horiz-adv-x="812" 
d="M103 372l-5 332q0 51 45 51q22 0 37 -35q85 -192 103 -228l65 -140q41 -88 59 -125q98 189 180 390q23 56 46 108q14 30 41 30q41 0 41 -51l-1 -54q-4 -124 -4 -278q0 -152 4 -276l1 -62q0 -16 -12 -30t-29 -14t-29 14t-12 30l1 62q6 170 6 276v194l-193 -424
q-13 -31 -38 -31q-26 0 -39 34q-126 279 -195 425v-198l5 -331q0 -22 -12 -36.5t-29 -14.5t-29 14.5t-12 36.5z" />
    <glyph glyph-name="N" unicode="N" horiz-adv-x="691" 
d="M103 372l-5 336q0 22 12 37t30 15q32 0 48 -27q4 -6 69 -122l79 -140q136 -246 182 -320v221q0 143 -2 249l-3 95q0 16 12 30t29 14t29 -14t12 -30l-1 -63q-4 -100 -4 -281l2 -331q0 -23 -12.5 -37t-34.5 -14q-17 0 -26 10t-31 49l-18 33q-92 168 -144 259
q-43 71 -91 159q-43 78 -60 105v-233l5 -331q0 -22 -12 -36.5t-29 -14.5t-29 14.5t-12 36.5z" />
    <glyph glyph-name="O" unicode="O" horiz-adv-x="774" 
d="M717 376q0 -107 -43.5 -196.5t-119 -142t-167.5 -52.5t-167.5 52t-119 142t-43.5 197t43.5 196t119.5 141t168 52q140 0 235 -113q94 -112 94 -276zM513 102q57 44 90 118t33 158t-32.5 156.5t-89.5 115t-127 42.5t-127 -42.5t-89.5 -115t-32.5 -156.5t33 -158t90 -118
t126 -44t126 44z" />
    <glyph glyph-name="P" unicode="P" horiz-adv-x="601" 
d="M184 41q0 -22 -12 -36.5t-29 -14.5t-29 14.5t-12 30.5l2 63q4 127 4 248q0 125 -1 165l-1 47q0 34 -1 47l-2 41l-16 -2q-30 0 -30 33q0 26 36 46t88 31t96 11q91 0 157 -32.5t100.5 -86.5t34.5 -119q0 -64 -34 -117.5t-94.5 -85t-136.5 -31.5q-69 0 -125 15zM180 678
q-3 -45 -3 -151q0 -91 2 -151q57 -17 130 -17q49 0 91.5 22t68.5 59t26 79q0 80 -56 128.5t-156 48.5q-71 0 -103 -18z" />
    <glyph glyph-name="Q" unicode="Q" horiz-adv-x="754" 
d="M656 180.5q-41 -88.5 -114 -139.5l45 -74l32 -52q6 -12 6 -26q0 -16 -9 -26.5t-27 -10.5q-15 0 -24.5 12t-29.5 50l-11 22l-40 72q-51 -23 -108 -23q-89 0 -162 52.5t-115 142t-42 196.5t42.5 196t116 141t162.5 52t162 -52t115 -141t42 -196t-41 -195.5zM584.5 533.5
q-31.5 72.5 -86 115.5t-121.5 43t-121.5 -42.5t-86 -115t-31.5 -156.5t31.5 -158t86.5 -118t121 -44q43 0 71 12q-13 23 -41 67q-10 15 -29 45q-7 11 -7 26t12 25.5t30 10.5t34 -28l58 -110q53 42 82 113.5t29 156.5t-31.5 157.5z" />
    <glyph glyph-name="R" unicode="R" horiz-adv-x="636" 
d="M179 307l5 -266q0 -22 -12 -36.5t-29 -14.5t-29 14.5t-12 30.5l2 63q4 127 4 248q0 125 -1 165l-1 47q0 34 -1 47l-2 41l-16 -2q-30 0 -30 33q0 26 36 46t88 31t96 11q89 0 151.5 -29t94 -79.5t31.5 -114.5q0 -65 -41 -123t-110 -87q95 -224 157 -258q17 -10 28 -8
q1 0 2.5 0.5t3.5 -0.5q15 0 15 -12q0 -27 -17.5 -45.5t-41.5 -18.5q-38 0 -80 56q-58 83 -139 263q-48 -9 -95 -9zM429 651.5q-51 44.5 -134 44.5t-115 -18q-3 -52 -3 -161q0 -117 1 -132q45 12 92 12q49 0 86 -10q30 6 59 28t47 54.5t18 66.5q0 71 -51 115.5z" />
    <glyph glyph-name="S" unicode="S" horiz-adv-x="556" 
d="M481 91q-31 -49 -86.5 -77.5t-125.5 -28.5q-53 0 -106 18.5t-87 46t-34 53.5q0 15 9.5 25t24.5 10q24 0 69 -41q18 -17 51.5 -29.5t72.5 -12.5q71 0 117 40t46 105q0 78 -128 152l-18 10q-69 39 -109.5 66t-70.5 63q-38 46 -38 99q0 47 28.5 87t75.5 64t101 24
q53 0 98.5 -13t72.5 -34t27 -44q0 -16 -9.5 -25t-24.5 -9q-25 0 -57 28q-33 27 -108 27q-29 0 -58 -13.5t-47.5 -37t-18.5 -49.5q0 -39 34 -73t95 -68q81 -47 123 -75.5t75 -71.5q37 -49 37 -107q0 -60 -31 -109z" />
    <glyph glyph-name="T" unicode="T" horiz-adv-x="523" 
d="M267 750l181 6q23 0 37 -10.5t14 -28.5t-14 -28.5t-37 -10.5l-140 5q-5 -250 -5 -311l5 -331q0 -23 -11 -37t-30 -14t-30 14t-11 37l5 331q0 62 -5 312l-151 -5q-48 0 -48 38t48 38z" />
    <glyph glyph-name="U" unicode="U" horiz-adv-x="683" 
d="M341 -15q-76 0 -130.5 34.5t-83 94t-30.5 133.5l-6 472q0 15 11.5 28t29.5 13t29.5 -13.5t11.5 -30.5l-1 -68q-4 -109 -4 -239q0 -120 4 -153q3 -40 14 -79.5t28 -62.5q44 -59 127 -59q98 0 136 71t38 203q0 74 -2 248l-3 132q0 23 11 37t30 14t30 -14t11 -37
q0 -188 -6 -463q-1 -108 -65 -185q-63 -76 -180 -76z" />
    <glyph glyph-name="V" unicode="V" horiz-adv-x="625" 
d="M320 -10q-36 0 -51 37q-50 129 -98 265l-73 202l-34 91q-39 101 -39 131q0 21 10.5 32.5t27.5 11.5t25.5 -5.5t14 -18t16.5 -48.5l11 -33q47 -147 111 -335q73 -214 81 -214q7 0 51 134q39 119 96 307l52 173q12 40 42 40q17 0 27 -10.5t10 -26.5t-13 -58l-21 -64
l-25 -75q-25 -75 -82 -250q-45 -140 -88 -246q-15 -40 -51 -40z" />
    <glyph glyph-name="W" unicode="W" horiz-adv-x="909" 
d="M629 -10q-22 0 -32.5 7t-18 26.5t-21.5 70.5l-14 47q-18 61 -56 187q-28 87 -32 87t-31 -88q-24 -78 -48 -162l-7 -24l-12 -42q-14 -54 -21.5 -74t-17.5 -27.5t-32 -7.5q-34 0 -51 41l-74 244q-62 203 -87 277q-47 147 -47 165q0 20 10 31.5t25 11.5q30 0 44 -36
q1 -1 45 -160q128 -458 140 -458t84 267q29 110 33 122q14 51 51 51q20 0 29.5 -6.5t16 -24t19.5 -66.5l18 -67q80 -276 89 -276q6 0 62 202t112 412q10 40 41 40q33 0 33 -40q0 -24 -24 -105l-44 -150q-107 -360 -130 -431q-17 -44 -52 -44z" />
    <glyph glyph-name="X" unicode="X" horiz-adv-x="625" 
d="M541.5 749.5q10.5 -10.5 10.5 -22.5t-9 -30l-36 -59l-66 -105q-92 -146 -91 -145q133 -223 181 -283q19 -24 37 -34q17 -11 26 -9h6q7 0 10 -2.5t3 -10.5q0 -27 -16 -44.5t-38 -17.5q-38 0 -83 63q-43 63 -170 271q-84 -133 -136 -222l-51 -85q-16 -24 -39 -24
q-40 0 -40 35q0 16 9 31l42 64l84 127l38 59l51 78q-91 165 -149 263q-14 19 -30 29.5t-27 10.5q-25 0 -25 15q0 27 15.5 44t37.5 17q23 0 40.5 -12.5t42.5 -49.5q31 -53 139 -253q42 69 105 179q9 17 18 30q34 59 50 84q13 19 32 19q18 0 28.5 -10.5z" />
    <glyph glyph-name="Y" unicode="Y" horiz-adv-x="554" 
d="M238 86q4 81 4 228l-110 193l-40 68l-33 55q-33 56 -38 70q-6 14 -6 26q0 13 9.5 23.5t23.5 10.5q15 0 25 -8t22 -28q14 -23 23 -42q76 -158 163 -291q93 147 153 271l16 31l13 24q11 22 19 30q2 3 8 7q8 6 20 6t20.5 -9t8.5 -20q0 -12 -3 -23t-13 -29q-15 -28 -51 -90
l-41 -70l-117 -205q0 -139 3 -204l2 -70q0 -50 -41 -50t-41 50z" />
    <glyph glyph-name="Z" unicode="Z" horiz-adv-x="568" 
d="M280 750l189 6q22 0 36.5 -10t14.5 -28t-8 -32q-8 -15 -32 -52q-132 -207 -239 -391q-89 -153 -102 -174q60 -3 146 -3l200 6q23 0 36.5 -10.5t13.5 -29.5q0 -38 -50 -38l-200 6l-202 -5q-49 0 -49 40q0 12 8 26l19 32q4 5 19 29q80 126 192 312.5t143 245.5l-135 4
l-182 -5q-23 0 -37 10.5t-14 28.5q0 37 51 37z" />
    <glyph glyph-name="bracketleft" unicode="[" horiz-adv-x="348" 
d="M194 -160l87 3q18 0 29.5 -9t11.5 -24t-11.5 -24t-29.5 -9l-87 3l-77 -4q-18 0 -29.5 9t-11.5 21l3 160q3 149 3 299q0 151 -3 299l-3 161q0 12 11.5 20.5t29.5 8.5l77 -4l87 3q18 0 29.5 -9t11.5 -24t-11.5 -24t-29.5 -9l-87 3h-44q-6 -342 -6 -425t6 -425h44z" />
    <glyph glyph-name="backslash" unicode="\" horiz-adv-x="363" 
d="M271 -152q-25 0 -33 16t-15 61q-1 9 -5 34q-53 287 -95 466l-53 226q-13 51 -13 67q0 42 36 42q24 0 32 -16.5t16 -65.5l5 -29q45 -244 94 -453l55 -240q12 -53 12 -68q0 -40 -36 -40z" />
    <glyph glyph-name="bracketright" unicode="]" horiz-adv-x="348" 
d="M231 754q18 0 29.5 -8.5t11.5 -20.5l-3 -161q-3 -148 -3 -299q0 -150 3 -299l3 -160q0 -12 -11.5 -21t-29.5 -9l-77 4l-87 -3q-18 0 -29.5 9t-11.5 24t11.5 24t29.5 9l87 -3h44q6 342 6 425t-6 425h-44l-87 -3q-18 0 -29.5 9t-11.5 24t11.5 24t29.5 9l87 -3z" />
    <glyph glyph-name="asciicircum" unicode="^" horiz-adv-x="521" 
d="M417 523q54 -92 60 -106q4 -11 4 -21q0 -11 -10 -19.5t-26 -8.5t-30 24q0 4 -37 74l-60 112l-14 25l-24 43q-17 26 -20 26t-20 -26q-18 -30 -71 -130l-9 -18q-55 -103 -55 -106q-13 -24 -30 -24q-16 0 -24.5 8t-8.5 21t13 36q13 27 42 74q51 87 77 135l51 95q14 23 37 23
t36 -22q32 -66 106 -192z" />
    <glyph glyph-name="underscore" unicode="_" horiz-adv-x="576" 
d="M485 -157q18 0 29.5 -9t11.5 -24t-11.5 -24t-29.5 -9l-197 3l-197 -3q-18 0 -29.5 9t-11.5 24t11.5 24t29.5 9l197 -3z" />
    <glyph glyph-name="grave" unicode="`" horiz-adv-x="285" 
d="M188 593q-18 0 -46.5 21t-50 51t-21.5 57q0 16 9.5 27t26.5 11t29 -13t23 -40q10 -23 16 -33t20 -25q21 -22 21 -35q0 -21 -27 -21z" />
    <glyph glyph-name="a" unicode="a" horiz-adv-x="571" 
d="M478 120q10 -48 26 -54q4 -2 15 -4q9 -1 12 -3t3 -8q0 -28 -15 -44.5t-43 -16.5q-29 0 -45 36.5t-16 95.5q-26 -58 -75 -95t-107 -37q-62 0 -105 40q-80 74 -80 209q0 72 29 134.5t80.5 99.5t115.5 37q75 0 130 -51q0 51 38 51q46 0 46 -70q0 -67 -20 -198q0 -73 11 -122
zM404 387q-59 58 -125 58q-43 0 -80 -27t-58.5 -73t-21.5 -100q0 -85 31 -137.5t86 -52.5t101.5 49t71.5 129z" />
    <glyph glyph-name="b" unicode="b" horiz-adv-x="552" 
d="M476 126.5q-29 -62.5 -80.5 -99.5t-115.5 -37q-74 0 -130 51q0 -51 -38 -51q-46 0 -46 71q0 66 20 197q0 68 -9 257l-9 203q0 16 11 29t28 13q18 0 28.5 -13.5t10.5 -36.5v-316q28 53 74 84.5t103 31.5q58 0 101 -40q81 -73 81 -209q0 -72 -29 -134.5zM354.5 82
q36.5 27 58 73.5t21.5 100.5q0 85 -31 137t-86 52t-101.5 -49t-71.5 -129l5 -154q59 -58 126 -58q43 0 79.5 27z" />
    <glyph glyph-name="c" unicode="c" horiz-adv-x="509" 
d="M471 77q0 -18 -27.5 -40t-69.5 -37t-83 -15q-69 0 -125 35.5t-88 96t-32 133.5t32.5 133.5t90.5 96t133 35.5q40 0 77.5 -13t60 -33.5t22.5 -40.5q0 -15 -10 -26t-23 -11t-30 15q-53 44 -106 44q-45 0 -85 -26.5t-63.5 -72.5t-23.5 -100q0 -55 24 -101t65 -73t92 -27
q60 0 115 40q19 13 29 13q25 0 25 -26z" />
    <glyph glyph-name="d" unicode="d" horiz-adv-x="588" 
d="M556 49q0 -22 -14.5 -40.5t-41.5 -18.5q-28 0 -45 32t-24 102q-74 -134 -185 -134q-62 0 -109.5 40t-69.5 99q-20 57 -20 110q0 72 30.5 134.5t84 99.5t120.5 37q75 0 142 -49l2 204q0 64 10 80q9 15 31 15t35 -18t13 -51q0 -57 -16 -214l-4 -43q-6 -57 -9 -105
q0 -122 9 -191t35 -74q26 0 26 -15zM424 387q-59 58 -142 58q-42 0 -79 -27t-59.5 -72.5t-22.5 -97.5q0 -82 35.5 -137.5t94.5 -55.5q105 0 173 173v159z" />
    <glyph glyph-name="e" unicode="e" horiz-adv-x="539" 
d="M439.5 470q50.5 -45 50.5 -117q0 -70 -61 -108.5t-155 -38.5q-52 0 -127 15q4 -46 27 -85t57.5 -62.5t71.5 -23.5q32 0 61.5 9t45.5 21q40 31 53 31q12 0 19.5 -7.5t7.5 -18.5q0 -19 -27.5 -42.5t-70 -40.5t-84.5 -17q-67 0 -118.5 33t-80 90t-32.5 126q-53 17 -53 52
q0 15 8.5 23.5t20.5 8.5t30 -9q22 91 84 148.5t142 57.5t130.5 -45zM379 292q40 23 40 62q0 41 -27.5 68.5t-74.5 27.5q-63 0 -109.5 -48t-59.5 -117q54 -16 123 -16q68 0 108 23z" />
    <glyph glyph-name="f" unicode="f" horiz-adv-x="327" 
d="M175 500l97 2q16 0 27 -8.5t11 -23.5q0 -30 -38 -30l-97 2v-67q0 -137 3 -232l3 -109q0 -17 -11 -30.5t-28 -13.5t-28 13.5t-11 30.5l1 62q5 157 5 279v67l-51 -2q-38 0 -38 30q0 15 11 23.5t27 8.5l50 -2v85q0 88 34.5 131.5t86.5 43.5q46 0 78.5 -18t32.5 -40
q0 -33 -28 -33q-13 0 -34 12t-41 12q-62 0 -62 -117v-76z" />
    <glyph glyph-name="g" unicode="g" horiz-adv-x="558" 
d="M444 510q46 0 46 -70q0 -67 -20 -198q12 -121 12 -182q0 -87 -28 -152.5t-80.5 -101.5t-125.5 -36q-40 0 -80 12t-66 30t-26 35q0 25 23 25q8 0 52 -18q41 -19 97 -19q79 0 125.5 59.5t46.5 155.5q0 35 -5 72q-22 -55 -71.5 -93.5t-101.5 -38.5q-50 0 -87.5 22t-62.5 61
q-45 75 -45 175q0 66 31 126.5t85 98t118 37.5q69 0 125 -47q2 47 38 47zM408 387q-55 58 -121 58q-44 0 -82 -27.5t-61 -73.5t-23 -99q0 -83 31.5 -136.5t85.5 -53.5q53 0 99 50t71 129v153z" />
    <glyph glyph-name="h" unicode="h" horiz-adv-x="577" 
d="M489 158v-24t1.5 -28t5.5 -20q5 -14 12 -18.5t18 -5.5q9 -1 12 -3t3 -8q0 -26 -16.5 -43.5t-38.5 -17.5q-37 0 -52 29t-15 89l4 184q0 69 -29 110.5t-80 41.5q-33 0 -67 -26t-60.5 -69t-39.5 -91l3 -217q0 -51 -38 -51q-46 0 -46 71q0 66 20 197q0 68 -9 257l-9 203
q0 16 11 29t28 13q18 0 28.5 -13.5t10.5 -36.5v-327q73 127 180 127q78 0 123 -55.5t45 -139.5z" />
    <glyph glyph-name="i" unicode="i" horiz-adv-x="224" 
d="M147.5 712q10.5 -13 10.5 -34q0 -22 -14.5 -42t-34.5 -20q-21 0 -31.5 13.5t-10.5 37.5t14.5 41t35.5 17q20 0 30.5 -13zM145 250l5 -210q0 -50 -38 -50t-38 50l5 210l-5 210q0 50 38 50t38 -50z" />
    <glyph glyph-name="j" unicode="j" horiz-adv-x="223" 
d="M147.5 712q10.5 -13 10.5 -34q0 -22 -14.5 -42t-34.5 -20q-21 0 -31.5 13.5t-10.5 37.5t14.5 41t35.5 17q20 0 30.5 -13zM145 230l-1 -220q0 -54 -20 -100t-49.5 -72.5t-54.5 -26.5q-27 0 -27 19q0 14 43 56q18 17 31 53t13 81l-1 210l-5 230q0 50 38 50t38 -50z" />
    <glyph glyph-name="k" unicode="k" horiz-adv-x="510" 
d="M150 41q0 -51 -38 -51q-46 0 -46 71q0 66 20 197q0 68 -9 257l-9 203q0 16 11 29t28 13q18 0 28.5 -13.5t10.5 -36.5v-327q73 127 180 127q57 0 92.5 -33.5t35.5 -83.5q0 -82 -85 -140l-49 -32l74 -114q17 -26 37 -36.5t35 -10.5q10 0 10 -9q0 -24 -15 -42.5t-36 -18.5
t-32 6.5t-25 25.5q-15 19 -26 38q-69 111 -89 139q-26 0 -43 14t-17 35q0 20 13.5 33t35.5 13q23 0 45 -25q38 17 67.5 52t29.5 63t-16 44t-46 16q-36 0 -72 -26t-63 -68.5t-40 -91.5z" />
    <glyph glyph-name="l" unicode="l" horiz-adv-x="224" 
d="M145 375l5 -335q0 -50 -38 -50t-38 50l5 335l-5 335q0 50 38 50t38 -50z" />
    <glyph glyph-name="m" unicode="m" horiz-adv-x="877" 
d="M789 158v-24t1.5 -28t5.5 -20q5 -14 12 -18.5t18 -5.5q9 -1 12 -3t3 -8q0 -26 -16.5 -43.5t-38.5 -17.5q-37 0 -52 29t-15 89l4 184q0 69 -26.5 110.5t-73.5 41.5q-31 0 -62.5 -26t-56.5 -69t-37 -91l3 -217q0 -51 -38 -51q-46 0 -46 71q0 66 20 197q0 186 -102 186
q-31 0 -62 -26t-56 -69t-37 -91l3 -217q0 -51 -38 -51q-46 0 -46 71q0 66 20 197q0 38 -8 116q-9 74 -9 92t11 31t28 13t28 -13t11 -31v-41q-1 -17 -1 -42q67 127 170 127q58 0 95.5 -34t52.5 -93q67 127 170 127q73 0 115.5 -55.5t42.5 -139.5z" />
    <glyph glyph-name="n" unicode="n" horiz-adv-x="579" 
d="M491 158v-24t1.5 -28t5.5 -20q5 -14 12 -18.5t18 -5.5q9 -1 12 -3t3 -8q0 -26 -16.5 -43.5t-38.5 -17.5q-37 0 -52 29t-15 89l4 184q0 69 -29 110.5t-80 41.5q-33 0 -67 -26t-60.5 -69t-39.5 -91l3 -217q0 -51 -38 -51q-46 0 -46 71q0 66 20 197q0 38 -8 116q-9 74 -9 92
t11 31t28 13t28 -13t11 -31v-41q-1 -17 -1 -42q73 127 180 127q78 0 123 -55.5t45 -139.5z" />
    <glyph glyph-name="o" unicode="o" horiz-adv-x="562" 
d="M402.5 480q53.5 -35 83.5 -95.5t30 -133.5t-30.5 -134t-84.5 -96.5t-121 -35.5t-120.5 35t-83.5 95.5t-30 133.5t30.5 134t84.5 96.5t121 35.5t120.5 -35zM445 251q0 55 -21.5 100.5t-58.5 72t-82 26.5t-83 -27t-60.5 -73t-22.5 -101t21.5 -100.5t58.5 -72t82 -26.5
q68 0 118 59q48 59 48 142z" />
    <glyph glyph-name="p" unicode="p" horiz-adv-x="570" 
d="M84 190l1 38v16q0 42 -9 123t-9 99t11 31t28 13t28 -13t11 -31v-42q-1 -17 -1 -43q35 65 76.5 97t103.5 32t109.5 -40t69.5 -99q20 -57 20 -110q0 -72 -30.5 -134.5t-84 -99.5t-120.5 -37q-75 0 -142 49l-2 -179q0 -60 -10 -74q-10 -16 -31 -16q-22 0 -35 18t-13 50
q0 54 16 199l3 32q8 73 10 102v19zM367 82.5q37 27.5 59.5 73t22.5 97.5q0 82 -35.5 137t-94.5 55q-105 0 -173 -173v-159q59 -58 142 -58q42 0 79 27.5z" />
    <glyph glyph-name="q" unicode="q" horiz-adv-x="553" 
d="M77 373.5q29 62.5 80.5 99.5t115.5 37q75 0 130 -51q0 51 38 51q46 0 46 -70q0 -67 -20 -198q0 -63 9 -239l9 -191q0 -16 -11 -29t-28 -13q-18 0 -28.5 13.5t-10.5 36.5v286q-28 -53 -73.5 -84.5t-102.5 -31.5q-60 0 -103 40q-80 74 -80 209q0 72 29 134.5zM199 418
q-37 -27 -58.5 -73t-21.5 -100q0 -85 31 -137.5t86 -52.5t101.5 49t71.5 129l-5 154q-59 58 -125 58q-43 0 -80 -27z" />
    <glyph glyph-name="r" unicode="r" horiz-adv-x="408" 
d="M152 41q0 -51 -38 -51q-46 0 -46 71q0 66 20 197q0 37 -8 115q-9 74 -9 91q0 19 11 32.5t28 13.5t28 -13.5t11 -30.5v-42q-1 -17 -1 -43q21 53 63.5 91t86.5 38q43 0 68.5 -17.5t25.5 -40.5q0 -21 -11 -33t-28 -12q-19 0 -38 19q-21 18 -33 18q-21 0 -49.5 -33.5t-52 -84
t-31.5 -97.5z" />
    <glyph glyph-name="s" unicode="s" horiz-adv-x="455" 
d="M390.5 64.5q-25.5 -35.5 -68.5 -55t-94 -19.5q-50 0 -94.5 16.5t-71 41t-26.5 48.5q0 15 9 24.5t21 9.5q11 0 17.5 -4t19.5 -18q3 -3 11 -12t19.5 -16t30.5 -14q30 -11 54 -11q56 0 91 23t35 65q0 53 -100 87q-62 21 -94.5 35.5t-58.5 40.5q-29 29 -29 69q0 36 22.5 67
t61.5 49.5t85 18.5q71 0 113 -24q41 -26 41 -52q0 -33 -35 -33q-14 0 -30 11q-46 33 -90 33q-42 0 -69.5 -19t-27.5 -45q0 -24 26 -42t74 -35q58 -21 93 -38.5t61 -45.5q29 -34 29 -76q0 -44 -25.5 -79.5z" />
    <glyph glyph-name="t" unicode="t" horiz-adv-x="337" 
d="M181 202q0 -89 8 -119q7 -28 39 -28q13 0 37 11q20 10 28 10q21 0 21 -20q0 -14 -17.5 -29.5t-43.5 -26t-49 -10.5q-87 0 -87 128l-1 321q-33 -3 -46 -3q-50 0 -50 33t50 33l44 -2l-2 112q0 50 38 50t38 -50l-3 -113l81 4q50 0 50 -34q0 -32 -50 -32l-83 2z" />
    <glyph glyph-name="u" unicode="u" horiz-adv-x="584" 
d="M143 208q0 -69 29.5 -111t80.5 -42q33 0 66.5 26.5t60.5 69.5t39 91l-3 217q0 51 38 51q46 0 46 -70q0 -67 -20 -198q0 -73 11 -122q10 -48 26 -54q5 -2 15 -4q9 -1 12 -3t3 -8q0 -27 -16.5 -44t-41.5 -17q-63 0 -63 128q-74 -128 -186 -128q-78 0 -123 58t-45 147l6 151
q0 38 -8 75t-8 49q0 16 12.5 28t30.5 12q46 0 46 -82z" />
    <glyph glyph-name="v" unicode="v" horiz-adv-x="485" 
d="M244 80q3 0 9 11q9 18 30 74q10 30 19 53l17 49q14 36 40 120q21 66 29 87q13 36 39 36q15 0 25.5 -9.5t10.5 -22.5q0 -12 -8 -36l-31 -80q-34 -88 -64 -174q-43 -119 -63 -157q-21 -41 -55 -41q-35 0 -53 36q-5 8 -52 133l-60 156l-23 59q-11 27 -21 56.5t-10 44.5
q0 16 10 25.5t25 9.5q16 0 24.5 -7t15 -23t20.5 -58l11 -34q21 -67 35 -105l32 -88l10 -29q7 -20 15.5 -42.5t14.5 -32.5q5 -11 8 -11z" />
    <glyph glyph-name="w" unicode="w" horiz-adv-x="786" 
d="M294 270q55 187 62 204q14 36 45 36q30 0 42 -35l30 -105l28 -102q56 -188 65 -188q8 0 39 100t59 204l11 41q10 39 15.5 54.5t13 23t21.5 7.5q15 0 25.5 -9t10.5 -21t-3 -24t-8 -29l-14 -42l-20 -61l-47 -144q-36 -112 -52 -152q-15 -38 -55 -38t-58 52q-34 99 -69 220
q-33 115 -41 115q-9 0 -36 -101q-7 -21 -9 -31q-52 -183 -72 -220q-17 -35 -55 -35q-21 0 -33.5 11.5t-20 30.5t-19.5 59l-12 40l-9 28q-34 105 -53 157l-22 60q-28 74 -28 98q0 16 10.5 26t25.5 10q16 0 24 -6t13.5 -20t16.5 -51l13 -45l51 -169q16 -52 31 -95
q14 -44 19 -44q10 0 65 190z" />
    <glyph glyph-name="x" unicode="x" horiz-adv-x="492" 
d="M385 109q24 -33 49 -46q23 -12 32 -12t9 -5q0 -24 -14 -42.5t-30 -18.5t-25 3.5t-19 13.5q-21 21 -42 52q-26 37 -62 91l-41 61l-85 -126q-43 -66 -54 -78q-10 -12 -23 -12t-23.5 9.5t-10.5 21.5t3 20.5t15 24.5l27 36q42 54 114 159l-86 128q-22 29 -40 41
q-20 14 -29 15q-22 1 -22 11q0 25 14 42t37 17t46 -26q19 -22 58 -80l40 -61l11 -16l12 -19l115 173q17 24 32 24q14 0 24 -10.5t10 -22.5t-12 -32q-13 -21 -56 -79l-76 -104z" />
    <glyph glyph-name="y" unicode="y" horiz-adv-x="568" 
d="M416 459q0 51 38 51q46 0 46 -75q0 -59 -21 -193q12 -121 12 -182q0 -133 -64.5 -211.5t-179.5 -78.5q-40 0 -80 12t-66 30t-26 35q0 25 23 25q10 0 56 -18q44 -19 93 -19q83 0 132.5 59.5t49.5 155.5q0 35 -3 68q-74 -128 -186 -128q-78 0 -123 58t-45 147l6 151
q0 38 -8 75t-8 49q0 16 12.5 28t30.5 12q46 0 46 -82l-8 -220q0 -69 29.5 -111t80.5 -42q33 0 66.5 26.5t60.5 69.5t39 91z" />
    <glyph glyph-name="z" unicode="z" horiz-adv-x="478" 
d="M395 65q50 0 50 -35t-50 -35l-150 5l-162 -5q-48 0 -48 35q0 25 35 66q62 71 108 135l70 95q64 84 78 111l-85 3l-146 -5q-50 0 -50 35t50 35l146 -5l142 5q48 0 48 -35q0 -19 -13.5 -38.5t-40.5 -51.5q-44 -52 -117.5 -150.5t-120.5 -167.5q80 -2 106 -2z" />
    <glyph glyph-name="braceleft" unicode="{" horiz-adv-x="307" 
d="M254 -167.5q11 -10.5 11 -25.5q0 -16 -10 -26.5t-27 -10.5q-45 0 -76.5 29t-31.5 79q0 21 8 93q7 62 7 110t-8 87t-23 47q-19 -9 -39 -9q-21 0 -36 13.5t-15 37.5t16 40t39 16t35 -6q12 15 22 59.5t10 84.5q0 44 -7 107q-8 70 -8 92q0 50 31.5 80t76.5 30q17 0 27 -10.5
t10 -25.5q0 -16 -11 -26.5t-26 -10.5q-38 0 -38 -47q0 -11 8 -78q7 -59 7 -114q0 -115 -49 -179q20 -25 27 -39.5t14 -50.5t7 -94q0 -60 -7 -119q-8 -67 -8 -78q0 -45 38 -45q15 0 26 -10.5z" />
    <glyph glyph-name="bar" unicode="|" horiz-adv-x="220" 
d="M140 255q0 -235 3 -348l2 -127q0 -50 -35 -50t-35 50l1 81q4 141 4 394l-4 495q0 50 34 50t34 -50z" />
    <glyph glyph-name="braceright" unicode="}" horiz-adv-x="307" 
d="M277 297q16 -16 16 -40t-14.5 -37.5t-35.5 -13.5t-40 9q-15 -8 -23 -47t-8 -87q0 -40 8 -110q7 -63 7 -93q0 -50 -31.5 -79t-76.5 -29q-17 0 -27 10.5t-10 26.5q0 15 11 25.5t26 10.5q38 0 38 45q0 19 -7 78q-8 67 -8 119t7 91.5t16 56.5q4 8 25 36q-49 64 -49 179
q0 47 8 114q7 59 7 78q0 47 -38 47q-15 0 -26 10.5t-11 26.5q0 15 10 25.5t27 10.5q45 0 76.5 -30t31.5 -80q0 -30 -7 -92q-8 -72 -8 -107q0 -40 10 -84.5t22 -59.5q12 6 35 6t39 -16z" />
    <glyph glyph-name="asciitilde" unicode="~" horiz-adv-x="552" 
d="M477 256.5q-17 -20.5 -43 -34.5t-50 -14q-39 0 -92 29q-55 29 -83 29q-29 0 -61 -30q-31 -31 -50 -31q-18 0 -28.5 9t-10.5 24q0 21 20 42t52 34.5t65 13.5q49 0 105 -29q55 -29 78 -29q21 0 37 10.5t32 27.5q12 12 23 12q23 0 23 -26q0 -17 -17 -37.5z" />
    <glyph glyph-name="uni00A0" unicode="&#xa0;" horiz-adv-x="238" 
 />
    <glyph glyph-name="exclamdown" unicode="&#xa1;" horiz-adv-x="220" 
d="M145 529.5q11 -15.5 11 -38.5t-14.5 -42t-34.5 -19q-21 0 -32 14.5t-11 39.5q0 24 14.5 42.5t35.5 18.5q20 0 31 -15.5zM143 62q0 -68 4 -147l3 -95q0 -50 -40 -50t-40 50q0 16 4 95q3 89 3 147l-3 212q0 50 36 50t36 -50z" />
    <glyph glyph-name="cent" unicode="&#xa2;" horiz-adv-x="534" 
d="M324 514q39 -2 73 -15.5t55 -33t21 -37.5q0 -15 -10 -26t-23 -11t-46 27q-36 27 -71 31q-1 -35 -1 -169q0 -80 2 -230q44 3 84 28t49 25q25 0 25 -25q0 -16 -23 -36.5t-59.5 -36t-74.5 -19.5l2 -70q0 -51 -35 -51t-35 51q0 49 1 73q-59 10 -104.5 47.5t-71 93
t-25.5 119.5t25 119.5t70.5 92.5t106.5 49q-1 28 -1 89q0 46 34 46t34 -51zM262 233v126q-1 41 -1 84q-56 -18 -92.5 -71t-36.5 -120q0 -68 35.5 -121.5t92.5 -72.5z" />
    <glyph glyph-name="sterling" unicode="&#xa3;" horiz-adv-x="536" 
d="M215 324q2 -40 2 -55q0 -46 -11 -84q-10 -34 -19.5 -54.5t-33.5 -65.5q22 -1 101 -1q73 0 121 4l68 3q16 0 28.5 -10.5t12.5 -27.5q0 -18 -13.5 -28t-36.5 -10l-151 5l-162 -5q-23 0 -37 13t-14 35q0 20 20 52q23 36 41 78.5t19 75.5q0 25 -2 73l-47 -1q-18 0 -29.5 9
t-11.5 24q0 14 11 23.5t22 9.5h23q8 -1 22 -1l-12 54q-17 76 -17 109q0 47 23 84.5t66.5 59.5t102.5 22q35 0 71.5 -13t60.5 -33t24 -40q0 -12 -8.5 -21.5t-22.5 -9.5q-16 0 -54 26q-37 25 -84 25t-77 -26t-30 -70q0 -47 25 -169l159 3q18 0 29.5 -9t11.5 -24t-11.5 -24
t-29.5 -9z" />
    <glyph glyph-name="currency" unicode="&#xa4;" horiz-adv-x="641" 
d="M529 293q0 -68 -31 -121l60 -57q20 -18 20 -34t-11 -27.5t-25 -11.5t-31 15q-12 10 -58 59q-55 -48 -133 -48q-77 0 -132 49l-53 -55q-22 -19 -37 -19t-25.5 11t-10.5 27t20 34l61 59q-29 53 -29 117q0 65 30 119l-24 24q-36 34 -38 37q-20 23 -20 37t11.5 25t27.5 11
t34 -20l55 -57q55 48 131 48q73 0 131 -47l53 56q22 19 37 19t25.5 -10.5t10.5 -26.5q0 -17 -20 -35q-39 -39 -60 -58q31 -53 31 -120zM390.5 155.5q32.5 21.5 51.5 58.5t19 80t-18 78.5t-49.5 56.5t-69.5 21t-70.5 -21.5t-51.5 -58t-19 -79.5t18 -79t49.5 -57t69.5 -21
t70.5 21.5z" />
    <glyph glyph-name="yen" unicode="&#xa5;" horiz-adv-x="585" 
d="M326 225l146 3q18 0 29.5 -8.5t11.5 -23.5q0 -16 -12 -24t-43 -8l-132 3l3 -127q0 -50 -39 -50t-39 50l4 127q-93 -3 -124 -3q-29 0 -41.5 8t-12.5 24q0 15 11.5 23.5t29.5 8.5l137 -3v79q-93 -3 -124 -3q-29 0 -41.5 8t-12.5 24q0 14 11 23t25 9q38 0 113 -3l-82 145
q-44 74 -57 99q-18 28 -26 45t-8 31t10 23.5t22 9.5t18 -2.5t13 -9.5q11 -14 24 -36q10 -18 13 -25l16 -32l52 -105q42 -85 72 -132q27 41 93 175q65 132 78 152q11 15 28 15q15 0 26 -9t11 -18q0 -10 -2 -20q-1 -4 -5 -11.5t-6 -11.5l-11 -19l-15 -26l-21 -35l-26 -46
l-89 -157q81 3 109 3q50 0 50 -32q0 -15 -11 -23q-12 -9 -46 -9t-130 3v-79z" />
    <glyph glyph-name="brokenbar" unicode="&#xa6;" horiz-adv-x="232" 
d="M146 533l5 -148q0 -21 -9.5 -33.5t-26.5 -12.5q-34 0 -34 46l5 148l-4 151q0 43 33 43q35 0 35 -43zM146 -36l5 -148q0 -21 -9.5 -33.5t-26.5 -12.5q-34 0 -34 46l5 148l-4 151q0 43 33 43q35 0 35 -43z" />
    <glyph glyph-name="section" unicode="&#xa7;" horiz-adv-x="536" 
d="M455.5 340.5q29.5 -41.5 29.5 -88.5q0 -50 -28 -94.5t-74 -69.5q66 -61 66 -136q0 -50 -28 -93t-76.5 -68.5t-108.5 -25.5q-42 0 -84.5 15.5t-70 38.5t-27.5 45q0 14 8.5 22t21.5 8q19 0 54 -31q13 -13 40 -22.5t58 -9.5q57 0 95 34.5t38 87.5q0 35 -29.5 70t-77.5 66
l-21 13q-55 34 -87 58t-57 55q-32 40 -32 90q0 51 37 91.5t99 54.5q-100 79 -100 150q0 45 24 83t64.5 59.5t87.5 21.5q46 0 84.5 -10.5t60.5 -28.5t22 -38q0 -12 -8 -20t-20 -8t-28 10q-49 29 -96 29q-49 0 -80 -25.5t-31 -64.5q0 -67 108 -135l89 -59q48 -33 77.5 -74.5z
M387.5 178q23.5 34 23.5 78q0 29 -26 60.5t-63.5 53t-69.5 21.5q-49 0 -81 -25t-32 -64q0 -32 28.5 -59t90.5 -68l67 -45q39 14 62.5 48z" />
    <glyph glyph-name="dieresis" unicode="&#xa8;" horiz-adv-x="391" 
d="M150.5 712q10.5 -13 10.5 -34q0 -22 -14.5 -42t-34.5 -20q-21 0 -31.5 13.5t-10.5 37.5t14.5 41t35.5 17q20 0 30.5 -13zM310.5 712q10.5 -13 10.5 -34q0 -22 -14.5 -42t-34.5 -20q-21 0 -31.5 13.5t-10.5 37.5t14.5 41t35.5 17q20 0 30.5 -13z" />
    <glyph glyph-name="copyright" unicode="&#xa9;" horiz-adv-x="756" 
d="M692 442q0 -87 -42.5 -160t-114.5 -115.5t-157 -42.5t-157 42.5t-114.5 115.5t-42.5 160t42.5 160t114.5 115.5t157 42.5q131 0 222 -93q92 -94 92 -225zM631 442q0 72 -34 133t-92.5 96.5t-127.5 35.5t-127 -35.5t-92 -96.5t-34 -133t34 -133t92 -96.5t127 -35.5
q105 0 180 78q74 77 74 187zM460.5 618.5q34.5 -16.5 34.5 -38.5q0 -28 -27 -28q-7 0 -32 14q-26 14 -48 14q-56 0 -89.5 -40.5t-33.5 -99.5q0 -37 16.5 -68.5t44.5 -50t62 -18.5q29 0 58 13q30 12 36 12q22 0 22 -23q0 -16 -35 -36q-34 -21 -86 -21q-50 0 -91 26
t-64.5 70.5t-23.5 97.5t23 97.5t64 70t92 25.5q43 0 77.5 -16.5z" />
    <glyph glyph-name="ordfeminine" unicode="&#xaa;" horiz-adv-x="410" 
d="M325 482q7 -33 23 -36l7 -2q7 -1 7 -5q0 -21 -12.5 -34t-33.5 -13q-39 0 -47 80q-13 -34 -43 -57t-64 -23q-52 0 -83.5 45.5t-31.5 111.5q0 41 18.5 78.5t51 60t71.5 22.5q44 0 76 -32q5 32 33 32q33 0 33 -57q0 -9 -12 -107q0 -31 7 -64zM263 623q-32 32 -70 32t-63 -31
t-25 -76q0 -46 17 -74.5t45 -28.5t57 31t42 74z" />
    <glyph glyph-name="guillemotleft" unicode="&#xab;" horiz-adv-x="507" 
d="M44 351q0 12 8 23q7 9 34 35q31 28 63 61q3 4 14 16t20.5 18t19.5 6q15 0 24 -9t9 -23q0 -13 -8.5 -23t-30.5 -25q-18 -13 -31 -24q-48 -43 -48 -57q0 -13 48 -57q14 -12 31 -23q23 -17 31 -26t8 -22t-9 -23t-20 -10q-21 0 -37 18q-9 7 -21 22q-35 37 -56 56l-26 24
q-23 21 -23 43zM253 351q0 12 8 23q7 9 34 35q31 28 63 61q3 4 14 16t20.5 18t19.5 6q15 0 24 -9t9 -23q0 -13 -8.5 -23t-30.5 -25q-18 -13 -31 -24q-48 -43 -48 -57q0 -13 48 -57q14 -12 31 -23q23 -17 31 -26t8 -22t-9 -23t-20 -10q-21 0 -37 18q-9 7 -21 22
q-35 37 -56 56l-26 24q-23 21 -23 43z" />
    <glyph glyph-name="logicalnot" unicode="&#xac;" horiz-adv-x="634" 
d="M554 191l2 -60q0 -18 -10 -29.5t-25 -11.5t-25 11.5t-10 29.5l3 60v38q-104 2 -173 2l-197 -3q-19 0 -30 9t-11 24t11 24t30 9l197 -3l197 3q43 0 43 -43z" />
    <glyph glyph-name="uni00AD" unicode="&#xad;" horiz-adv-x="428" 
d="M214 291l107 3q18 0 29.5 -9t11.5 -24t-11.5 -24t-29.5 -9l-107 3l-107 -3q-18 0 -29.5 9t-11.5 24t11.5 24t29.5 9z" />
    <glyph glyph-name="registered" unicode="&#xae;" horiz-adv-x="756" 
d="M692 442q0 -87 -42.5 -160t-114.5 -115.5t-157 -42.5t-157 42.5t-114.5 115.5t-42.5 160t42.5 160t114.5 115.5t157 42.5q131 0 222 -93q92 -94 92 -225zM631 442q0 72 -34 133t-92.5 96.5t-127.5 35.5t-127 -35.5t-92 -96.5t-34 -133t34 -133t92 -96.5t127 -35.5
q105 0 180 78q74 77 74 187zM246 459l-5 137q0 47 123 47q46 0 79.5 -16.5t50.5 -43t17 -57.5q0 -72 -81 -110q12 -19 18 -32q23 -39 36 -54t35 -15q7 0 7 -5q0 -19 -12 -32.5t-29 -13.5q-15 0 -30 12.5t-25 30.5q-13 21 -27 47q-10 18 -29 49q-21 -4 -36 -4q-16 0 -37 4
l3 -94q0 -22 -8.5 -34t-23.5 -12q-30 0 -30 38zM434 480.5q18 19.5 18 44.5q0 28 -21 46t-60 18q-41 0 -70 -9l-1 -53l-2 -64q20 9 43 9q22 0 55 -11q20 0 38 19.5z" />
    <glyph glyph-name="macron" unicode="&#xaf;" 
d="M218 700l127 3q18 0 29.5 -9t11.5 -24t-11.5 -24t-29.5 -9l-127 3l-127 -3q-18 0 -29.5 9t-11.5 24t11.5 24t29.5 9z" />
    <glyph glyph-name="degree" unicode="&#xb0;" horiz-adv-x="334" 
d="M285 569q0 -63 -32.5 -104.5t-85.5 -41.5t-85.5 41.5t-32.5 104.5t32.5 104.5t85.5 41.5t86 -42q32 -43 32 -104zM225 569q0 41 -15 66t-42 25t-43 -25.5t-16 -65.5t16 -65.5t43 -25.5t42 26t15 65z" />
    <glyph glyph-name="plusminus" unicode="&#xb1;" horiz-adv-x="570" 
d="M462 359q18 0 29.5 -9t11.5 -24t-11.5 -24t-29.5 -9q-50 0 -146 3l4 -127q0 -19 -9.5 -30t-25.5 -11q-33 0 -33 41l4 127l-134 -3q-31 0 -43 8.5t-12 24.5q0 15 11.5 24t29.5 9l148 -3l-4 113q0 41 33 41q15 0 25 -10.5t10 -23.5q0 -24 -4 -120zM462 63q18 0 29.5 -9
t11.5 -24t-11.5 -24t-29.5 -9l-177 3l-177 -3q-18 0 -29.5 9t-11.5 24t11.5 24t29.5 9l177 -3z" />
    <glyph glyph-name="uni00B2" unicode="&#xb2;" horiz-adv-x="374" 
d="M181 393l103 5q42 0 42 -32t-42 -32l-102 4l-93 -4q-16 0 -28 10t-12 25q0 27 29 61q157 175 157 226q0 22 -15 36t-41 14q-28 0 -50 -22q-25 -23 -38 -23q-14 0 -21.5 8t-7.5 21q0 15 16.5 33t45 30t61.5 12q51 0 83 -30t32 -71q0 -27 -9 -45l-13 -28q-8 -18 -30 -47
l-17 -22q-3 -4 -22 -29q-11 -16 -40 -51q-27 -32 -39 -49h51z" />
    <glyph glyph-name="uni00B3" unicode="&#xb3;" horiz-adv-x="370" 
d="M176 763l73 2q54 0 54 -37q0 -12 -10 -25q-4 -5 -37 -40q-24 -24 -49 -54q55 -12 86 -48.5t31 -88.5q0 -35 -18.5 -67t-52 -51.5t-77.5 -19.5q-30 0 -60 14t-49 34.5t-19 37.5q0 25 24 25q12 0 25 -13q41 -38 80 -38t61.5 23t22.5 60q0 36 -25.5 61t-62.5 27
q-31 -33 -55 -33q-36 0 -36 34q0 15 15.5 28t44.5 19q58 62 83 91l-59 3l-71 -3q-39 0 -39 29q0 14 10.5 23t28.5 9z" />
    <glyph glyph-name="acute" unicode="&#xb4;" horiz-adv-x="285" 
d="M193.5 665q-21.5 -30 -50 -51t-46.5 -21q-27 0 -27 21q0 13 16 30q4 5 13.5 15.5t15.5 21t13 26.5q11 28 22.5 40.5t28.5 12.5t26.5 -11t9.5 -27q0 -27 -21.5 -57z" />
    <glyph glyph-name="uni00B5" unicode="&#xb5;" horiz-adv-x="611" 
d="M170 -179q0 -23 -10.5 -37t-28.5 -14t-28.5 14t-10.5 37l6 349q-15 206 -15 264q0 75 46 75q40 0 40 -61l-1 -41q-4 -64 -4 -218q0 -60 30 -96.5t80 -36.5q33 0 66.5 26t60 69t38.5 91l-3 217q0 51 38 51q46 0 46 -70q0 -67 -20 -198q0 -73 11 -122q10 -48 26 -54
q4 -2 15 -4q9 -1 12 -3t3 -8q0 -27 -16.5 -44t-41.5 -17q-63 0 -63 128q-31 -54 -77.5 -91t-98.5 -37q-57 0 -107 50z" />
    <glyph glyph-name="paragraph" unicode="&#xb6;" horiz-adv-x="628" 
d="M521 265q0 -180 3 -306l3 -143q0 -19 -11 -32.5t-28 -13.5t-28 13.5t-11 32.5l1 80q5 210 5 369l-5 430q-46 2 -59 2t-59 -2q-5 -312 -5 -406q0 -183 5 -393l1 -75q0 -51 -39 -51t-39 51l1 75q5 210 5 369v63q-62 2 -111.5 30t-77.5 74t-28 101q0 105 65.5 165t180.5 62
l101 -3l87 3q22 0 35 -14t13 -37z" />
    <glyph glyph-name="periodcentered" unicode="&#xb7;" horiz-adv-x="222" 
d="M146.5 300q11.5 -15 11.5 -39q0 -25 -14.5 -44t-35.5 -19t-32.5 15.5t-11.5 40.5q0 24 15 42.5t36 18.5q20 0 31.5 -15z" />
    <glyph glyph-name="cedilla" unicode="&#xb8;" horiz-adv-x="331" 
d="M236 -203q-35 -27 -84 -27q-31 0 -56 10.5t-39 27t-14 32.5q0 7 5 13t13 6t35 -12q25 -13 49 -13q22 0 37.5 9t15.5 21q0 19 -48 45q-20 10 -34 27.5t-14 37.5v38h64v-22q0 -30 52 -58q23 -13 38 -31t15 -38q0 -39 -35 -66z" />
    <glyph glyph-name="uni00B9" unicode="&#xb9;" horiz-adv-x="297" 
d="M226 550l3 -172q0 -18 -9 -29t-23 -11q-15 0 -24 11t-9 29l3 172v120l-31 -35l-23 -29q-36 -47 -56 -47q-31 0 -31 30q0 17 34 50q34 34 62 68q30 36 42 47q13 11 29 11q36 0 36 -51z" />
    <glyph glyph-name="ordmasculine" unicode="&#xba;" horiz-adv-x="358" 
d="M273 669q37 -46 37 -116t-36.5 -115t-94.5 -45t-94.5 45t-36.5 115t37 116t94 46t94 -46zM231.5 476.5q18.5 28.5 18.5 76.5t-19 77.5t-52 29.5t-52 -29.5t-19 -77.5t19 -76.5t53 -28.5q33 0 51.5 28.5z" />
    <glyph glyph-name="guillemotright" unicode="&#xbb;" horiz-adv-x="506" 
d="M254 348q0 -13 -8 -24t-34 -34q-34 -31 -62 -62q-4 -5 -15.5 -17t-20.5 -17.5t-18 -5.5q-15 0 -24.5 9.5t-9.5 23.5q0 13 8.5 22t31.5 26q16 11 30 23q48 44 48 57q0 14 -48 57l-30 24q-22 15 -31 25t-9 23t9 22.5t21 9.5q18 0 37 -17l21 -23q24 -27 55 -55l27 -25
q22 -22 22 -42zM463 348q0 -13 -8 -24t-34 -34q-34 -31 -62 -62q-4 -5 -15.5 -17t-20.5 -17.5t-18 -5.5q-15 0 -24.5 9.5t-9.5 23.5q0 13 8.5 22t31.5 26q16 11 30 23q48 44 48 57q0 14 -48 57l-30 24q-22 15 -31 25t-9 23t9 22.5t21 9.5q18 0 37 -17l21 -23q24 -27 55 -55
l27 -25q22 -22 22 -42z" />
    <glyph glyph-name="onequarter" unicode="&#xbc;" horiz-adv-x="844" 
d="M498 548q-49 -118 -120 -330l-55 -170q-13 -39 -25 -51q-13 -11 -25 -11q-14 0 -23.5 8.5t-9.5 25.5q0 19 16 58q11 29 50 128q47 117 99 272l20 57l42 124l23 65q14 42 45 42q11 0 20.5 -8.5t9.5 -24.5q0 -20 -16 -59zM241 550l3 -172q0 -18 -9 -29t-23 -11
q-15 0 -24 11t-9 29l3 172v120l-31 -35l-23 -29q-36 -47 -56 -47q-31 0 -31 30q0 17 34 50q34 34 62 68q30 36 42 47q13 11 29 11q36 0 36 -51zM737 33q0 -43 -30 -43q-31 0 -31 43l3 99l-39 1l-131 -3q-16 0 -24.5 9t-8.5 23t16 37q21 31 70 95l75 97q32 41 55 41
q22 0 33.5 -16t11.5 -41l-3 -193l39 2q8 0 16.5 -8.5t8.5 -18.5q0 -11 -9 -19.5t-23 -8.5q-21 0 -32 1zM678 182q1 26 1 96l-1 78q-20 -22 -131 -174h131z" />
    <glyph glyph-name="onehalf" unicode="&#xbd;" horiz-adv-x="854" 
d="M498 548q-49 -118 -120 -330l-55 -170q-13 -39 -25 -51q-13 -11 -25 -11q-14 0 -23.5 8.5t-9.5 25.5q0 19 16 58q11 29 50 128q47 117 99 272l20 57l42 124l23 65q14 42 45 42q11 0 20.5 -8.5t9.5 -24.5q0 -20 -16 -59zM241 550l3 -172q0 -18 -9 -29t-23 -11
q-15 0 -24 11t-9 29l3 172v120l-31 -35l-23 -29q-36 -47 -56 -47q-31 0 -31 30q0 17 34 50q34 34 62 68q30 36 42 47q13 11 29 11q36 0 36 -51zM658 56l103 5q42 0 42 -32t-42 -32l-102 4l-93 -4q-16 0 -28 10t-12 25q0 29 29 60q157 176 157 227q0 22 -15 36t-41 14
q-28 0 -50 -22q-25 -23 -38 -23q-14 0 -21.5 8t-7.5 21q0 15 16.5 33t45 30t61.5 12q51 0 83 -30t32 -71q0 -27 -9 -45l-13 -28q-8 -18 -30 -47l-17 -22q-3 -4 -22 -29q-11 -16 -40 -51q-27 -32 -39 -49h51z" />
    <glyph glyph-name="threequarters" unicode="&#xbe;" horiz-adv-x="894" 
d="M550 548q-49 -118 -120 -330l-55 -170q-13 -39 -25 -51q-13 -11 -25 -11q-14 0 -23.5 8.5t-9.5 25.5q0 19 16 58q11 29 50 128q47 117 99 272l20 57l42 124l23 65q14 42 45 42q11 0 20.5 -8.5t9.5 -24.5q0 -20 -16 -59zM182 763l73 2q54 0 54 -37q0 -12 -10 -25
q-4 -5 -37 -40q-24 -24 -49 -54q55 -12 86 -48.5t31 -88.5q0 -35 -18.5 -67t-52 -51.5t-77.5 -19.5q-30 0 -60 14t-49 34.5t-19 37.5q0 25 24 25q12 0 25 -13q41 -38 80 -38t61.5 23t22.5 60q0 36 -25.5 61t-62.5 27q-31 -33 -55 -33q-36 0 -36 34q0 15 15.5 28t44.5 19
q58 62 83 91l-59 3l-71 -3q-39 0 -39 29q0 14 10.5 23t28.5 9zM789 33q0 -43 -30 -43q-31 0 -31 43l3 99l-39 1l-131 -3q-16 0 -24.5 9t-8.5 23t16 37q21 31 70 95l75 97q32 41 55 41q22 0 33.5 -16t11.5 -41l-3 -193l39 2q8 0 16.5 -8.5t8.5 -18.5q0 -11 -9 -19.5t-23 -8.5
q-21 0 -32 1zM730 182q1 26 1 96l-1 78q-20 -22 -131 -174h131z" />
    <glyph glyph-name="questiondown" unicode="&#xbf;" horiz-adv-x="443" 
d="M294 529.5q11 -15.5 11 -38.5t-14.5 -42t-34.5 -19q-21 0 -32 14.5t-11 39.5q0 24 14.5 42.5t35.5 18.5q20 0 31 -15.5zM233 128q-17 -19 -52 -54q-62 -65 -62 -125q0 -31 16 -57.5t40.5 -42t49.5 -15.5q33 0 57.5 11t37.5 27q29 38 45 38t25 -9t9 -23q0 -23 -24 -48.5
t-63 -42.5t-79 -17q-54 0 -96.5 23.5t-66 64.5t-23.5 91q0 80 62 145q17 19 52 54q62 62 62 121q0 58 35 58q37 0 37 -56q0 -75 -62 -143z" />
    <glyph glyph-name="Agrave" unicode="&#xc0;" horiz-adv-x="642" 
d="M337 803q-18 0 -46.5 21t-50 51t-21.5 57q0 16 9.5 27t26.5 11t29 -13t23 -40q10 -23 16.5 -33t20.5 -25q20 -23 20 -35q0 -21 -27 -21zM554 319q22 0 36 -11t14 -28q0 -38 -70 -38l24 -72q15 -47 20 -58q26 -73 26 -86q0 -15 -9.5 -25.5t-24.5 -10.5q-29 0 -44 35
q-17 48 -34 106l-36 115q-120 3 -167 3t-112 -3q-61 -208 -66 -219q-13 -37 -39 -37q-15 0 -24 10t-9 25q0 14 9 45q11 38 28 84q22 66 29 90h-18q-48 0 -48 37t48 37q29 0 41 -1l131 383q21 60 58 60q23 0 37 -13t24 -38q9 -22 30 -87q63 -192 102 -304zM199 315
q56 -3 120 -3q63 0 115 3q-103 331 -115 331q-13 0 -93 -248z" />
    <glyph glyph-name="Aacute" unicode="&#xc1;" horiz-adv-x="642" 
d="M392.5 875q-21.5 -30 -50 -51t-46.5 -21q-27 0 -27 21q0 13 16 30q4 5 13.5 15.5t15.5 21t13 26.5q11 28 22.5 40.5t28.5 12.5t26.5 -11t9.5 -27q0 -27 -21.5 -57zM554 319q22 0 36 -11t14 -28q0 -38 -70 -38l24 -72q15 -47 20 -58q26 -73 26 -86q0 -15 -9.5 -25.5
t-24.5 -10.5q-29 0 -44 35q-17 48 -34 106l-36 115q-120 3 -167 3t-112 -3q-61 -208 -66 -219q-13 -37 -39 -37q-15 0 -24 10t-9 25q0 14 9 45q11 38 28 84q22 66 29 90h-18q-48 0 -48 37t48 37q29 0 41 -1l131 383q21 60 58 60q23 0 37 -13t24 -38q9 -22 30 -87
q63 -192 102 -304zM199 315q56 -3 120 -3q63 0 115 3q-103 331 -115 331q-13 0 -93 -248z" />
    <glyph glyph-name="Acircumflex" unicode="&#xc2;" horiz-adv-x="642" 
d="M467 840q0 -11 -9 -19.5t-21 -8.5q-22 0 -45 33q-11 15 -15 17q-40 48 -55 48t-56 -48q-3 -2 -14 -18q-24 -32 -41 -32q-16 0 -25.5 8.5t-9.5 19.5q0 16 14 30l18 16q16 14 27.5 25t27.5 32q18 24 29.5 32.5t28.5 8.5t29 -8.5t31 -32.5q21 -28 36.5 -41.5t18.5 -15.5
l18 -16q13 -11 13 -30zM554 319q22 0 36 -11t14 -28q0 -38 -70 -38l24 -72q15 -47 20 -58q26 -73 26 -86q0 -15 -9.5 -25.5t-24.5 -10.5q-29 0 -44 35q-17 48 -34 106l-36 115q-120 3 -167 3t-112 -3q-61 -208 -66 -219q-13 -37 -39 -37q-15 0 -24 10t-9 25q0 14 9 45
q11 38 28 84q22 66 29 90h-18q-48 0 -48 37t48 37q29 0 41 -1l131 383q21 60 58 60q23 0 37 -13t24 -38q9 -22 30 -87q63 -192 102 -304zM199 315q56 -3 120 -3q63 0 115 3q-103 331 -115 331q-13 0 -93 -248z" />
    <glyph glyph-name="Atilde" unicode="&#xc3;" horiz-adv-x="642" 
d="M474.5 852.5q-25.5 -25.5 -59.5 -25.5q-36 0 -83 28q-48 27 -68 27q-17 0 -28.5 -9.5t-20 -21t-11.5 -14.5q-12 -16 -26 -16q-15 0 -25 10.5t-10 25.5q0 35 32 61.5t74 26.5q41 0 93 -28q50 -28 73 -28q21 0 38 26q16 25 26 25q9 0 15 -8.5t6 -19.5q0 -34 -25.5 -59.5z
M554 319q22 0 36 -11t14 -28q0 -38 -70 -38l24 -72q15 -47 20 -58q26 -73 26 -86q0 -15 -9.5 -25.5t-24.5 -10.5q-29 0 -44 35q-17 48 -34 106l-36 115q-120 3 -167 3t-112 -3q-61 -208 -66 -219q-13 -37 -39 -37q-15 0 -24 10t-9 25q0 14 9 45q11 38 28 84q22 66 29 90h-18
q-48 0 -48 37t48 37q29 0 41 -1l131 383q21 60 58 60q23 0 37 -13t24 -38q9 -22 30 -87q63 -192 102 -304zM199 315q56 -3 120 -3q63 0 115 3q-103 331 -115 331q-13 0 -93 -248z" />
    <glyph glyph-name="Adieresis" unicode="&#xc4;" horiz-adv-x="642" 
d="M281.5 942q10.5 -13 10.5 -34q0 -22 -14.5 -42t-34.5 -20q-21 0 -31.5 13.5t-10.5 37.5t14.5 41t35.5 17q20 0 30.5 -13zM441.5 942q10.5 -13 10.5 -34q0 -22 -14.5 -42t-34.5 -20q-21 0 -31.5 13.5t-10.5 37.5t14.5 41t35.5 17q20 0 30.5 -13zM554 319q22 0 36 -11
t14 -28q0 -38 -70 -38l24 -72q15 -47 20 -58q26 -73 26 -86q0 -15 -9.5 -25.5t-24.5 -10.5q-29 0 -44 35q-17 48 -34 106l-36 115q-120 3 -167 3t-112 -3q-61 -208 -66 -219q-13 -37 -39 -37q-15 0 -24 10t-9 25q0 14 9 45q11 38 28 84q22 66 29 90h-18q-48 0 -48 37t48 37
q29 0 41 -1l131 383q21 60 58 60q23 0 37 -13t24 -38q9 -22 30 -87q63 -192 102 -304zM199 315q56 -3 120 -3q63 0 115 3q-103 331 -115 331q-13 0 -93 -248z" />
    <glyph glyph-name="Aring" unicode="&#xc5;" horiz-adv-x="642" 
d="M409 891q0 -40 -25 -67t-66 -27t-66 26.5t-25 67.5t26 68t65 27t65 -27q26 -29 26 -68zM349 858.5q13 14.5 13 33.5q0 18 -13.5 32.5t-30.5 14.5t-30.5 -14.5t-13.5 -32.5q0 -19 13 -33.5t31 -14.5t31 14.5zM554 319q22 0 36 -11t14 -28q0 -38 -70 -38l24 -72
q15 -47 20 -58q26 -73 26 -86q0 -15 -9.5 -25.5t-24.5 -10.5q-29 0 -44 35q-17 48 -34 106l-36 115q-120 3 -167 3t-112 -3q-61 -208 -66 -219q-13 -37 -39 -37q-15 0 -24 10t-9 25q0 14 9 45q11 38 28 84q22 66 29 90h-18q-48 0 -48 37t48 37q29 0 41 -1l131 383
q21 60 58 60q23 0 37 -13t24 -38q9 -22 30 -87q63 -192 102 -304zM199 315q56 -3 120 -3q63 0 115 3q-103 331 -115 331q-13 0 -93 -248z" />
    <glyph glyph-name="AE" unicode="&#xc6;" horiz-adv-x="841" 
d="M628 0l-149 -5q-48 0 -55 43q-10 55 -34 212q-140 0 -213 -4q-65 -216 -72 -233q-7 -10 -17 -15.5t-21 -5.5q-12 0 -20 9.5t-8 27.5q0 17 28 97q31 93 38 118h-18q-48 0 -48 37t48 37q29 0 41 -1l130 378q21 60 59 60l212 -5l140 5q50 0 50 -38t-50 -38l-140 5
q-109 0 -140 -4q6 -37 34 -204l6 -36q58 -2 73 -2l170 5q23 0 36.5 -10.5t13.5 -28.5q0 -37 -50 -37l-170 5q-12 0 -60 -2q52 -279 58 -300q57 -4 128 -4l152 5q50 0 50 -38t-50 -38zM319 646q-13 0 -93 -248l-27 -83q56 -3 96 -3q46 0 60 1h28q-36 232 -64 333z" />
    <glyph glyph-name="Ccedilla" unicode="&#xc7;" horiz-adv-x="637" 
d="M452 -203q-35 -27 -84 -27q-31 0 -56 10.5t-39 27t-14 32.5q0 7 5 13t13 6t35 -12q25 -13 49 -13q22 0 37.5 9t15.5 21q0 19 -48 47q-20 11 -34 32.5t-14 46.5q-77 14 -136 69t-92 139.5t-33 186.5t41.5 189.5t114 139t160.5 51.5q51 0 98.5 -14.5t77 -38t29.5 -48.5
q0 -16 -9.5 -25t-25.5 -9q-17 0 -37 16q-64 49 -133 49q-66 0 -120 -43t-84.5 -116t-30.5 -158q0 -86 30.5 -160t84 -118.5t119.5 -44.5q54 0 98 15t71 35q22 16 32 16q27 0 27 -28q0 -19 -31 -44t-81.5 -43.5t-105.5 -20.5q3 -28 55 -55q21 -11 35.5 -29t14.5 -38
q0 -39 -35 -66z" />
    <glyph glyph-name="Egrave" unicode="&#xc8;" horiz-adv-x="588" 
d="M319 803q-18 0 -46.5 21t-50 51t-21.5 57q0 16 9.5 27t26.5 11t29 -13t23 -40q10 -23 16.5 -33t20.5 -25q20 -23 20 -35q0 -21 -27 -21zM491 71q50 0 50 -38t-50 -38l-162 5l-175 -5q-45 0 -45 38q0 36 3 118q2 110 2 212q-6 -1 -20 -1q-48 0 -48 37q0 17 13 28t30 11
q19 0 25 -1q-1 191 -7 243q-12 17 -12 37q0 38 53 38l193 -5l150 5q50 0 50 -38t-50 -38l-150 5q-118 0 -150 -4q-5 -145 -5 -245l70 -2l180 5q23 0 36.5 -10.5t13.5 -28.5q0 -37 -50 -37l-180 5q-14 0 -70 -2v-99q0 -144 5 -196q63 -4 138 -4z" />
    <glyph glyph-name="Eacute" unicode="&#xc9;" horiz-adv-x="588" 
d="M394.5 875q-21.5 -30 -50 -51t-46.5 -21q-27 0 -27 21q0 13 16 30q4 5 13.5 15.5t15.5 21t13 26.5q11 28 22.5 40.5t28.5 12.5t26.5 -11t9.5 -27q0 -27 -21.5 -57zM491 71q50 0 50 -38t-50 -38l-162 5l-175 -5q-45 0 -45 38q0 36 3 118q2 110 2 212q-6 -1 -20 -1
q-48 0 -48 37q0 17 13 28t30 11q19 0 25 -1q-1 191 -7 243q-12 17 -12 37q0 38 53 38l193 -5l150 5q50 0 50 -38t-50 -38l-150 5q-118 0 -150 -4q-5 -145 -5 -245l70 -2l180 5q23 0 36.5 -10.5t13.5 -28.5q0 -37 -50 -37l-180 5q-14 0 -70 -2v-99q0 -144 5 -196
q63 -4 138 -4z" />
    <glyph glyph-name="Ecircumflex" unicode="&#xca;" horiz-adv-x="588" 
d="M459 840q0 -11 -9 -19.5t-21 -8.5q-22 0 -45 33q-11 15 -15 17q-41 48 -55 48q-15 0 -56 -48q-3 -2 -14 -18q-24 -32 -41 -32q-16 0 -25.5 8.5t-9.5 19.5q0 16 14 30l18 16q16 14 27.5 25t27.5 32q18 24 29.5 32.5t28.5 8.5t29 -8.5t31 -32.5q21 -28 36.5 -41.5
t18.5 -15.5l18 -16q13 -11 13 -30zM491 71q50 0 50 -38t-50 -38l-162 5l-175 -5q-45 0 -45 38q0 36 3 118q2 110 2 212q-6 -1 -20 -1q-48 0 -48 37q0 17 13 28t30 11q19 0 25 -1q-1 191 -7 243q-12 17 -12 37q0 38 53 38l193 -5l150 5q50 0 50 -38t-50 -38l-150 5
q-118 0 -150 -4q-5 -145 -5 -245l70 -2l180 5q23 0 36.5 -10.5t13.5 -28.5q0 -37 -50 -37l-180 5q-14 0 -70 -2v-99q0 -144 5 -196q63 -4 138 -4z" />
    <glyph glyph-name="Edieresis" unicode="&#xcb;" horiz-adv-x="588" 
d="M278.5 942q10.5 -13 10.5 -34q0 -22 -14.5 -42t-34.5 -20q-21 0 -31.5 13.5t-10.5 37.5t14.5 41t35.5 17q20 0 30.5 -13zM438.5 942q10.5 -13 10.5 -34q0 -22 -14.5 -42t-34.5 -20q-21 0 -31.5 13.5t-10.5 37.5t14.5 41t35.5 17q20 0 30.5 -13zM491 71q50 0 50 -38
t-50 -38l-162 5l-175 -5q-45 0 -45 38q0 36 3 118q2 110 2 212q-6 -1 -20 -1q-48 0 -48 37q0 17 13 28t30 11q19 0 25 -1q-1 191 -7 243q-12 17 -12 37q0 38 53 38l193 -5l150 5q50 0 50 -38t-50 -38l-150 5q-118 0 -150 -4q-5 -145 -5 -245l70 -2l180 5q23 0 36.5 -10.5
t13.5 -28.5q0 -37 -50 -37l-180 5q-14 0 -70 -2v-99q0 -144 5 -196q63 -4 138 -4z" />
    <glyph glyph-name="Igrave" unicode="&#xcc;" 
d="M234 803q-18 0 -46.5 21t-50 51t-21.5 57q0 16 9.5 27t26.5 11t29 -13t23 -40q10 -23 16 -33t20 -25q21 -22 21 -35q0 -21 -27 -21zM348 71q23 0 36.5 -10.5t13.5 -27.5t-14 -28t-36 -11l-129 6l-132 -5q-50 0 -50 38t50 38l91 -5q5 250 5 309q0 58 -5 308l-91 -4
q-48 0 -48 37q0 18 13 28.5t35 10.5l132 -5q34 0 79 3l59 3q15 0 28.5 -12t13.5 -28t-13.5 -27t-29.5 -11l-66 3l-30 2q-5 -255 -5 -311t5 -306z" />
    <glyph glyph-name="Iacute" unicode="&#xcd;" 
d="M299.5 875q-21.5 -30 -50 -51t-46.5 -21q-27 0 -27 21q0 13 16 30q4 5 13.5 15.5t15.5 21t13 26.5q11 28 22.5 40.5t28.5 12.5t26.5 -11t9.5 -27q0 -27 -21.5 -57zM348 71q23 0 36.5 -10.5t13.5 -27.5t-14 -28t-36 -11l-129 6l-132 -5q-50 0 -50 38t50 38l91 -5
q5 250 5 309q0 58 -5 308l-91 -4q-48 0 -48 37q0 18 13 28.5t35 10.5l132 -5q34 0 79 3l59 3q15 0 28.5 -12t13.5 -28t-13.5 -27t-29.5 -11l-66 3l-30 2q-5 -255 -5 -311t5 -306z" />
    <glyph glyph-name="Icircumflex" unicode="&#xce;" 
d="M365 840q0 -11 -9 -19.5t-21 -8.5q-22 0 -45 33q-11 15 -15 17q-41 48 -55 48q-16 0 -56 -48q-3 -2 -14 -18q-24 -32 -41 -32q-16 0 -25.5 8.5t-9.5 19.5q0 16 14 30l18 16q16 14 27.5 25t27.5 32q18 24 29.5 32.5t28.5 8.5t29 -8.5t31 -32.5q21 -28 36.5 -41.5
t18.5 -15.5l18 -16q13 -11 13 -30zM348 71q23 0 36.5 -10.5t13.5 -27.5t-14 -28t-36 -11l-129 6l-132 -5q-50 0 -50 38t50 38l91 -5q5 250 5 309q0 58 -5 308l-91 -4q-48 0 -48 37q0 18 13 28.5t35 10.5l132 -5q34 0 79 3l59 3q15 0 28.5 -12t13.5 -28t-13.5 -27t-29.5 -11
l-66 3l-30 2q-5 -255 -5 -311t5 -306z" />
    <glyph glyph-name="Idieresis" unicode="&#xcf;" 
d="M173.5 942q10.5 -13 10.5 -34q0 -22 -14.5 -42t-34.5 -20q-21 0 -31.5 13.5t-10.5 37.5t14.5 41t35.5 17q20 0 30.5 -13zM333.5 942q10.5 -13 10.5 -34q0 -22 -14.5 -42t-34.5 -20q-21 0 -31.5 13.5t-10.5 37.5t14.5 41t35.5 17q20 0 30.5 -13zM348 71q23 0 36.5 -10.5
t13.5 -27.5t-14 -28t-36 -11l-129 6l-132 -5q-50 0 -50 38t50 38l91 -5q5 250 5 309q0 58 -5 308l-91 -4q-48 0 -48 37q0 18 13 28.5t35 10.5l132 -5q34 0 79 3l59 3q15 0 28.5 -12t13.5 -28t-13.5 -27t-29.5 -11l-66 3l-30 2q-5 -255 -5 -311t5 -306z" />
    <glyph glyph-name="Eth" unicode="&#xd0;" horiz-adv-x="728" 
d="M129 654q-48 0 -48 38q0 35 66 51q68 17 149 17q82 0 157 -33.5t123 -90.5q96 -115 96 -272q0 -150 -93 -260q-46 -56 -119 -87.5t-164 -31.5q-96 0 -156 22q-63 21 -63 55q0 12 7.5 20t20.5 8t26 -7l3 257l-92 -2q-13 0 -24 9.5t-11 23.5q0 15 11.5 24t32.5 9l83 -3z
M322 338l-116 3q0 -169 6 -279q28 -6 84 -6q92 0 159.5 41t103 112.5t35.5 159.5q0 129 -76 220q-38 46 -98.5 72.5t-133.5 26.5q-38 0 -75 -9q-5 -78 -5 -278l126 3q18 0 29.5 -9t11.5 -24q0 -33 -51 -33z" />
    <glyph glyph-name="Ntilde" unicode="&#xd1;" horiz-adv-x="691" 
d="M501.5 844.5q-25.5 -25.5 -59.5 -25.5q-36 0 -83 28q-48 27 -68 27q-17 0 -28.5 -9.5t-20 -21t-11.5 -14.5q-12 -16 -26 -16q-15 0 -25 10.5t-10 25.5q0 35 32 61.5t74 26.5q41 0 93 -28q50 -28 73 -28q21 0 38 26q16 25 26 25q9 0 15 -8.5t6 -19.5q0 -34 -25.5 -59.5z
M589 372l2 -331q0 -23 -12.5 -37t-34.5 -14q-18 0 -27 11t-32 54l-15 27q-72 132 -145 259q-43 71 -91 159q-43 78 -60 105v-233q0 -168 3 -245l2 -93q0 -16 -12 -30t-29 -14t-29 14t-12 30l2 62q3 93 3 276q0 185 -3 281l-2 62q0 16 12.5 30.5t29.5 14.5q32 0 48 -27
q4 -6 69 -122l79 -140q136 -246 182 -320v221l-5 337q0 22 12 36.5t29 14.5t29 -14.5t12 -36.5z" />
    <glyph glyph-name="Ograve" unicode="&#xd2;" horiz-adv-x="774" 
d="M402 803q-18 0 -46.5 21t-50 51t-21.5 57q0 16 9.5 27t26.5 11t29 -13t23 -40q10 -23 16 -33t20 -25q21 -22 21 -35q0 -21 -27 -21zM717 376q0 -107 -43.5 -196.5t-119 -142t-167.5 -52.5t-167.5 52t-119 142t-43.5 197t43.5 196t119.5 141t168 52q140 0 235 -113
q94 -112 94 -276zM513 102q57 44 90 118t33 158t-32.5 156.5t-89.5 115t-127 42.5t-127 -42.5t-89.5 -115t-32.5 -156.5t33 -158t90 -118t126 -44t126 44z" />
    <glyph glyph-name="Oacute" unicode="&#xd3;" horiz-adv-x="774" 
d="M467.5 875q-21.5 -30 -50 -51t-46.5 -21q-27 0 -27 21q0 13 16 30q4 5 13.5 15.5t15.5 21t13 26.5q11 28 22.5 40.5t28.5 12.5t26.5 -11t9.5 -27q0 -27 -21.5 -57zM717 376q0 -107 -43.5 -196.5t-119 -142t-167.5 -52.5t-167.5 52t-119 142t-43.5 197t43.5 196t119.5 141
t168 52q140 0 235 -113q94 -112 94 -276zM513 102q57 44 90 118t33 158t-32.5 156.5t-89.5 115t-127 42.5t-127 -42.5t-89.5 -115t-32.5 -156.5t33 -158t90 -118t126 -44t126 44z" />
    <glyph glyph-name="Ocircumflex" unicode="&#xd4;" horiz-adv-x="774" 
d="M532 840q0 -11 -9 -19.5t-21 -8.5q-22 0 -45 33q-11 15 -15 17q-41 48 -55 48q-15 0 -56 -48q-4 -3 -15 -18q-23 -32 -40 -32q-16 0 -25.5 8.5t-9.5 19.5q0 16 14 30l18 16q17 14 28 25t27 32q18 24 29.5 32.5t28.5 8.5t29 -8.5t31 -32.5q21 -28 36.5 -41.5t18.5 -15.5
l18 -16q13 -11 13 -30zM717 376q0 -107 -43.5 -196.5t-119 -142t-167.5 -52.5t-167.5 52t-119 142t-43.5 197t43.5 196t119.5 141t168 52q140 0 235 -113q94 -112 94 -276zM513 102q57 44 90 118t33 158t-32.5 156.5t-89.5 115t-127 42.5t-127 -42.5t-89.5 -115
t-32.5 -156.5t33 -158t90 -118t126 -44t126 44z" />
    <glyph glyph-name="Otilde" unicode="&#xd5;" horiz-adv-x="774" 
d="M539.5 852.5q-25.5 -25.5 -59.5 -25.5q-36 0 -83 28q-48 27 -68 27q-17 0 -28.5 -9.5t-20 -21t-11.5 -14.5q-12 -16 -26 -16q-15 0 -25 10.5t-10 25.5q0 35 32 61.5t74 26.5q41 0 93 -28q50 -28 73 -28q21 0 38 26q16 25 26 25q9 0 15 -8.5t6 -19.5q0 -34 -25.5 -59.5z
M717 376q0 -107 -43.5 -196.5t-119 -142t-167.5 -52.5t-167.5 52t-119 142t-43.5 197t43.5 196t119.5 141t168 52q140 0 235 -113q94 -112 94 -276zM513 102q57 44 90 118t33 158t-32.5 156.5t-89.5 115t-127 42.5t-127 -42.5t-89.5 -115t-32.5 -156.5t33 -158t90 -118
t126 -44t126 44z" />
    <glyph glyph-name="Odieresis" unicode="&#xd6;" horiz-adv-x="774" 
d="M341.5 942q10.5 -13 10.5 -34q0 -22 -14.5 -42t-34.5 -20q-21 0 -31.5 13.5t-10.5 37.5t14.5 41t35.5 17q20 0 30.5 -13zM501.5 942q10.5 -13 10.5 -34q0 -22 -14.5 -42t-34.5 -20q-21 0 -31.5 13.5t-10.5 37.5t14.5 41t35.5 17q20 0 30.5 -13zM717 376
q0 -107 -43.5 -196.5t-119 -142t-167.5 -52.5t-167.5 52t-119 142t-43.5 197t43.5 196t119.5 141t168 52q140 0 235 -113q94 -112 94 -276zM513 102q57 44 90 118t33 158t-32.5 156.5t-89.5 115t-127 42.5t-127 -42.5t-89.5 -115t-32.5 -156.5t33 -158t90 -118t126 -44
t126 44z" />
    <glyph glyph-name="multiply" unicode="&#xd7;" horiz-adv-x="504" 
d="M421 432.5q10 -9.5 10 -22.5q0 -12 -7.5 -21.5t-33.5 -34.5q-82 -80 -97 -97l75 -75q43 -43 57 -55q9 -10 9 -23q0 -14 -9.5 -24t-23.5 -10q-13 0 -23 8.5t-32 33.5q-33 36 -94 101l-49 -53q-65 -71 -73 -78q-13 -13 -27 -13t-23.5 10t-9.5 24q0 13 10 23l31 30
q53 51 81 81l19 19q-22 25 -72 73q-47 45 -56 56q-10 10 -10 24q0 13 10 22.5t24 9.5q13 0 26 -11l52 -56l67 -73l55 60l61 66q15 15 29 15t24 -9.5z" />
    <glyph glyph-name="Oslash" unicode="&#xd8;" horiz-adv-x="755" 
d="M655.5 179.5q-42.5 -89.5 -116 -142t-162.5 -52.5q-58 0 -109 22q-3 -5 -16 -39q-12 -32 -39 -32q-15 0 -25 10t-10 26q0 15 24 74q-67 54 -105.5 141.5t-38.5 188.5q0 107 42.5 196t116 141t162.5 52q53 0 105 -21l10 25q15 35 41 35q16 0 25.5 -10.5t9.5 -25.5t-19 -62
q68 -52 107.5 -140t39.5 -190q0 -107 -42.5 -196.5zM458 674q-37 18 -80 18q-67 0 -121.5 -43t-86 -115.5t-31.5 -157.5q0 -74 25.5 -141.5t69.5 -112.5q51 116 110 260zM295 78q38 -20 83 -20q66 0 121 44t86.5 117.5t31.5 156.5q0 76 -26 144t-72 112q-126 -292 -224 -554
z" />
    <glyph glyph-name="Ugrave" unicode="&#xd9;" horiz-adv-x="683" 
d="M367 803q-18 0 -46.5 21t-50 51t-21.5 57q0 16 9.5 27t26.5 11t29 -13t23 -40q10 -23 16.5 -33t20.5 -25q20 -23 20 -35q0 -21 -27 -21zM341 -15q-76 0 -130.5 34.5t-83 94t-30.5 133.5l-6 472q0 15 11.5 28t29.5 13t29.5 -13.5t11.5 -30.5l-1 -68q-4 -109 -4 -239
q0 -120 4 -153q3 -40 14 -79.5t28 -62.5q44 -59 127 -59q98 0 136 71t38 203q0 74 -2 248l-3 132q0 23 11 37t30 14t30 -14t11 -37q0 -188 -6 -463q-1 -108 -65 -185q-63 -76 -180 -76z" />
    <glyph glyph-name="Uacute" unicode="&#xda;" horiz-adv-x="683" 
d="M422.5 875q-21.5 -30 -50 -51t-46.5 -21q-27 0 -27 21q0 13 16 30q4 5 13.5 15.5t15.5 21t13 26.5q11 28 22.5 40.5t28.5 12.5t26.5 -11t9.5 -27q0 -27 -21.5 -57zM341 -15q-76 0 -130.5 34.5t-83 94t-30.5 133.5l-6 472q0 15 11.5 28t29.5 13t29.5 -13.5t11.5 -30.5
l-1 -68q-4 -109 -4 -239q0 -120 4 -153q3 -40 14 -79.5t28 -62.5q44 -59 127 -59q98 0 136 71t38 203q0 74 -2 248l-3 132q0 23 11 37t30 14t30 -14t11 -37q0 -188 -6 -463q-1 -108 -65 -185q-63 -76 -180 -76z" />
    <glyph glyph-name="Ucircumflex" unicode="&#xdb;" horiz-adv-x="683" 
d="M489 840q0 -11 -9 -19.5t-21 -8.5q-22 0 -45 33q-11 15 -15 17q-40 48 -55 48q-16 0 -56 -48q-3 -2 -14 -18q-24 -32 -41 -32q-16 0 -25.5 8.5t-9.5 19.5q0 16 14 30l18 16q16 14 27.5 25t27.5 32q18 24 29.5 32.5t28.5 8.5t29 -8.5t31 -32.5q21 -28 36.5 -41.5
t18.5 -15.5l18 -16q13 -11 13 -30zM341 -15q-76 0 -130.5 34.5t-83 94t-30.5 133.5l-6 472q0 15 11.5 28t29.5 13t29.5 -13.5t11.5 -30.5l-1 -68q-4 -109 -4 -239q0 -120 4 -153q3 -40 14 -79.5t28 -62.5q44 -59 127 -59q98 0 136 71t38 203q0 74 -2 248l-3 132q0 23 11 37
t30 14t30 -14t11 -37q0 -188 -6 -463q-1 -108 -65 -185q-63 -76 -180 -76z" />
    <glyph glyph-name="Udieresis" unicode="&#xdc;" horiz-adv-x="683" 
d="M297.5 942q10.5 -13 10.5 -34q0 -22 -14.5 -42t-34.5 -20q-21 0 -31.5 13.5t-10.5 37.5t14.5 41t35.5 17q20 0 30.5 -13zM457.5 942q10.5 -13 10.5 -34q0 -22 -14.5 -42t-34.5 -20q-21 0 -31.5 13.5t-10.5 37.5t14.5 41t35.5 17q20 0 30.5 -13zM341 -15
q-76 0 -130.5 34.5t-83 94t-30.5 133.5l-6 472q0 15 11.5 28t29.5 13t29.5 -13.5t11.5 -30.5l-1 -68q-4 -109 -4 -239q0 -120 4 -153q3 -40 14 -79.5t28 -62.5q44 -59 127 -59q98 0 136 71t38 203q0 74 -2 248l-3 132q0 23 11 37t30 14t30 -14t11 -37q0 -188 -6 -463
q-1 -108 -65 -185q-63 -76 -180 -76z" />
    <glyph glyph-name="Yacute" unicode="&#xdd;" horiz-adv-x="554" 
d="M366.5 875q-21.5 -30 -50 -51t-46.5 -21q-27 0 -27 21q0 13 16 30q4 5 13.5 15.5t15.5 21t13 26.5q11 28 22.5 40.5t28.5 12.5t26.5 -11t9.5 -27q0 -27 -21.5 -57zM238 86q4 81 4 228l-110 193l-40 68l-33 55q-33 56 -38 70q-6 14 -6 26q0 13 9.5 23.5t23.5 10.5
q15 0 25 -8t22 -28q14 -23 23 -42q76 -158 163 -291q93 147 153 271l16 31l13 24q11 22 19 30q2 3 8 7q8 6 20 6t20.5 -9t8.5 -20q0 -12 -3 -23t-13 -29q-15 -28 -51 -90l-41 -70l-117 -205q0 -139 3 -204l2 -70q0 -50 -41 -50t-41 50z" />
    <glyph glyph-name="Thorn" unicode="&#xde;" horiz-adv-x="567" 
d="M103 375l-5 335q0 50 38 50t38 -50l-3 -105q49 17 118 17q73 0 130 -27.5t88.5 -75t31.5 -107.5t-31.5 -108t-88.5 -75.5t-131 -27.5q-69 0 -118 17l4 -178q0 -50 -38 -50t-38 50zM415.5 305q48.5 41 48.5 107q0 65 -48.5 106t-120.5 41t-123 -16q-2 -56 -2 -131
q0 -104 1 -132q51 -16 123 -16q73 0 121.5 41z" />
    <glyph glyph-name="germandbls" unicode="&#xdf;" horiz-adv-x="544" 
d="M108 500v85q0 89 43.5 132t119.5 43q71 0 113 -40.5t42 -104.5q0 -38 -16 -74t-39 -59q-55 -52 -55 -85q0 -56 71 -99q44 -28 67 -46t41 -46q20 -34 20 -75q0 -40 -19 -72t-51.5 -50.5t-70.5 -18.5q-37 0 -69 10.5t-51 27.5t-19 35q0 34 33 34q8 0 38 -21t60 -21t53 20.5
t23 50.5q0 54 -52 88q-71 47 -97 68q-23 18 -37.5 47t-14.5 59q0 29 15.5 59t39.5 54q55 58 55 101q0 42 -22.5 66.5t-61.5 24.5q-42 0 -64 -27t-22 -90v-535q0 -23 -10.5 -37t-28.5 -14q-17 0 -28 13.5t-11 30.5l1 62q5 157 5 279v67l-51 -2q-38 0 -38 30q0 15 11 23.5
t27 8.5z" />
    <glyph glyph-name="agrave" unicode="&#xe0;" horiz-adv-x="571" 
d="M478 120q10 -48 26 -54q4 -2 15 -4q9 -1 12 -3t3 -8q0 -28 -15 -44.5t-43 -16.5q-29 0 -45 36.5t-16 95.5q-26 -58 -75 -95t-107 -37q-62 0 -105 40q-80 74 -80 209q0 72 29 134.5t80.5 99.5t115.5 37q75 0 130 -51q0 51 38 51q46 0 46 -70q0 -67 -20 -198q0 -73 11 -122
zM404 387q-59 58 -125 58q-43 0 -80 -27t-58.5 -73t-21.5 -100q0 -85 31 -137.5t86 -52.5t101.5 49t71.5 129zM311 593q-18 0 -46.5 21t-50 51t-21.5 57q0 16 9.5 27t26.5 11t29 -13t23 -40q10 -23 16 -33t20 -25q21 -22 21 -35q0 -21 -27 -21z" />
    <glyph glyph-name="aacute" unicode="&#xe1;" horiz-adv-x="571" 
d="M366.5 665q-21.5 -30 -50 -51t-46.5 -21q-27 0 -27 21q0 13 16 30q4 5 13.5 15.5t15.5 21t13 26.5q11 28 22.5 40.5t28.5 12.5t26.5 -11t9.5 -27q0 -27 -21.5 -57zM478 120q10 -48 26 -54q4 -2 15 -4q9 -1 12 -3t3 -8q0 -28 -15 -44.5t-43 -16.5q-29 0 -45 36.5t-16 95.5
q-26 -58 -75 -95t-107 -37q-62 0 -105 40q-80 74 -80 209q0 72 29 134.5t80.5 99.5t115.5 37q75 0 130 -51q0 51 38 51q46 0 46 -70q0 -67 -20 -198q0 -73 11 -122zM404 387q-59 58 -125 58q-43 0 -80 -27t-58.5 -73t-21.5 -100q0 -85 31 -137.5t86 -52.5t101.5 49t71.5 129
z" />
    <glyph glyph-name="acircumflex" unicode="&#xe2;" horiz-adv-x="571" 
d="M431 616q0 -11 -9 -19.5t-21 -8.5q-22 0 -45 33q-11 15 -15 17q-40 48 -55 48t-56 -48q-3 -2 -14 -18q-24 -32 -41 -32q-16 0 -25.5 8.5t-9.5 19.5q0 16 14 30l18 16q16 14 27.5 25t27.5 32q18 24 29.5 32.5t28.5 8.5t29 -8.5t31 -32.5q21 -28 36.5 -41.5t18.5 -15.5
l18 -16q13 -11 13 -30zM478 120q10 -48 26 -54q4 -2 15 -4q9 -1 12 -3t3 -8q0 -28 -15 -44.5t-43 -16.5q-29 0 -45 36.5t-16 95.5q-26 -58 -75 -95t-107 -37q-62 0 -105 40q-80 74 -80 209q0 72 29 134.5t80.5 99.5t115.5 37q75 0 130 -51q0 51 38 51q46 0 46 -70
q0 -67 -20 -198q0 -73 11 -122zM404 387q-59 58 -125 58q-43 0 -80 -27t-58.5 -73t-21.5 -100q0 -85 31 -137.5t86 -52.5t101.5 49t71.5 129z" />
    <glyph glyph-name="atilde" unicode="&#xe3;" horiz-adv-x="571" 
d="M478 120q10 -48 26 -54q4 -2 15 -4q9 -1 12 -3t3 -8q0 -28 -15 -44.5t-43 -16.5q-29 0 -45 36.5t-16 95.5q-26 -58 -75 -95t-107 -37q-62 0 -105 40q-80 74 -80 209q0 72 29 134.5t80.5 99.5t115.5 37q75 0 130 -51q0 51 38 51q46 0 46 -70q0 -67 -20 -198q0 -73 11 -122
zM404 387q-59 58 -125 58q-43 0 -80 -27t-58.5 -73t-21.5 -100q0 -85 31 -137.5t86 -52.5t101.5 49t71.5 129zM458.5 622.5q-25.5 -25.5 -59.5 -25.5q-36 0 -83 28q-48 27 -68 27q-17 0 -28.5 -9.5t-20 -21t-11.5 -14.5q-12 -16 -26 -16q-15 0 -25 10.5t-10 25.5
q0 35 32 61.5t74 26.5q41 0 93 -28q50 -28 73 -28q21 0 38 26q16 25 26 25q9 0 15 -8.5t6 -19.5q0 -34 -25.5 -59.5z" />
    <glyph glyph-name="adieresis" unicode="&#xe4;" horiz-adv-x="571" 
d="M240.5 712q10.5 -13 10.5 -34q0 -22 -14.5 -42t-34.5 -20q-21 0 -31.5 13.5t-10.5 37.5t14.5 41t35.5 17q20 0 30.5 -13zM400.5 712q10.5 -13 10.5 -34q0 -22 -14.5 -42t-34.5 -20q-21 0 -31.5 13.5t-10.5 37.5t14.5 41t35.5 17q20 0 30.5 -13zM478 120q10 -48 26 -54
q4 -2 15 -4q9 -1 12 -3t3 -8q0 -28 -15 -44.5t-43 -16.5q-29 0 -45 36.5t-16 95.5q-26 -58 -75 -95t-107 -37q-62 0 -105 40q-80 74 -80 209q0 72 29 134.5t80.5 99.5t115.5 37q75 0 130 -51q0 51 38 51q46 0 46 -70q0 -67 -20 -198q0 -73 11 -122zM404 387q-59 58 -125 58
q-43 0 -80 -27t-58.5 -73t-21.5 -100q0 -85 31 -137.5t86 -52.5t101.5 49t71.5 129z" />
    <glyph glyph-name="aring" unicode="&#xe5;" horiz-adv-x="571" 
d="M478 120q10 -48 26 -54q4 -2 15 -4q9 -1 12 -3t3 -8q0 -28 -15 -44.5t-43 -16.5q-29 0 -45 36.5t-16 95.5q-26 -58 -75 -95t-107 -37q-62 0 -105 40q-80 74 -80 209q0 72 29 134.5t80.5 99.5t115.5 37q75 0 130 -51q0 51 38 51q46 0 46 -70q0 -67 -20 -198q0 -73 11 -122
zM404 387q-59 58 -125 58q-43 0 -80 -27t-58.5 -73t-21.5 -100q0 -85 31 -137.5t86 -52.5t101.5 49t71.5 129zM372 670q0 -40 -25 -67t-66 -27t-66 26.5t-25 67.5t26 68t65 27q40 0 65 -27q26 -29 26 -68zM312 637.5q13 14.5 13 33.5q0 18 -13.5 32.5t-30.5 14.5
t-30.5 -14.5t-13.5 -32.5q0 -19 13 -33.5t31 -14.5t31 14.5z" />
    <glyph glyph-name="ae" unicode="&#xe6;" horiz-adv-x="837" 
d="M702.5 494.5q39.5 -20.5 62.5 -57.5t23 -84q0 -46 -28.5 -79.5t-75.5 -50.5t-102 -17q-79 0 -137 11q4 -45 26.5 -83.5t57.5 -61t72 -22.5q32 0 61.5 9t45.5 21q40 31 53 31q12 0 19.5 -7.5t7.5 -18.5q0 -19 -27.5 -42.5t-70 -40.5t-84.5 -17q-134 0 -198 121
q-61 -121 -191 -121q-50 0 -90.5 21t-64 58.5t-23.5 84.5q0 46 24.5 84.5t65 60.5t85.5 22q69 0 156 -25q0 81 -35 119.5t-95 38.5q-26 0 -49.5 -8.5t-36.5 -20.5q-32 -30 -49 -30q-34 0 -34 32q0 21 24 42.5t63 36t81 14.5q64 0 110.5 -29.5t71.5 -81.5q72 111 194 111
q48 0 87.5 -20.5zM676.5 292q40.5 23 40.5 62q0 41 -27.5 68.5t-74.5 27.5q-63 0 -109.5 -49t-59.5 -119q51 -13 121 -13q69 0 109.5 23zM144 221.5q-34 -29.5 -34 -72.5q0 -42 33.5 -70t84.5 -28q35 0 67 21.5t52.5 61.5t20.5 93q-68 24 -129 24t-95 -29.5z" />
    <glyph glyph-name="ccedilla" unicode="&#xe7;" horiz-adv-x="509" 
d="M363 -203q-35 -27 -84 -27q-31 0 -56 10.5t-39 27t-14 32.5q0 7 5 13t13 6t35 -12q25 -13 49 -13q22 0 37.5 9t15.5 21q0 11 -12.5 22t-35.5 25q-20 12 -34 34.5t-14 48.5q-83 21 -133 92.5t-50 172.5q0 68 32.5 126.5t91 94t132.5 35.5q40 0 77.5 -13t60 -33.5
t22.5 -40.5q0 -15 -10 -26t-23 -11t-30 15q-53 44 -106 44q-45 0 -85 -26.5t-63.5 -72.5t-23.5 -100q0 -55 24 -101t65 -73t92 -27q60 0 115 40q19 13 29 13q25 0 25 -26q0 -18 -27 -39.5t-68.5 -37t-82.5 -15.5q3 -28 55 -55q21 -11 35.5 -29t14.5 -38q0 -39 -35 -66z" />
    <glyph glyph-name="egrave" unicode="&#xe8;" horiz-adv-x="539" 
d="M439.5 470q50.5 -45 50.5 -117q0 -70 -61 -108.5t-155 -38.5q-52 0 -127 15q4 -46 27 -85t57.5 -62.5t71.5 -23.5q32 0 61.5 9t45.5 21q40 31 53 31q12 0 19.5 -7.5t7.5 -18.5q0 -19 -27.5 -42.5t-70 -40.5t-84.5 -17q-67 0 -118.5 33t-80 90t-32.5 126q-53 17 -53 52
q0 15 8.5 23.5t20.5 8.5t30 -9q22 91 84 148.5t142 57.5t130.5 -45zM379 292q40 23 40 62q0 41 -27.5 68.5t-74.5 27.5q-63 0 -109.5 -48t-59.5 -117q54 -16 123 -16q68 0 108 23zM309 593q-18 0 -46.5 21t-50 51t-21.5 57q0 16 9.5 27t26.5 11t29 -13t23 -40q10 -23 16 -33
t20 -25q21 -22 21 -35q0 -21 -27 -21z" />
    <glyph glyph-name="eacute" unicode="&#xe9;" horiz-adv-x="539" 
d="M377.5 665q-21.5 -30 -50 -51t-46.5 -21q-27 0 -27 21q0 13 16 30q4 5 13.5 15.5t15.5 21t13 26.5q11 28 22.5 40.5t28.5 12.5t26.5 -11t9.5 -27q0 -27 -21.5 -57zM439.5 470q50.5 -45 50.5 -117q0 -70 -61 -108.5t-155 -38.5q-52 0 -127 15q4 -46 27 -85t57.5 -62.5
t71.5 -23.5q32 0 61.5 9t45.5 21q40 31 53 31q12 0 19.5 -7.5t7.5 -18.5q0 -19 -27.5 -42.5t-70 -40.5t-84.5 -17q-67 0 -118.5 33t-80 90t-32.5 126q-53 17 -53 52q0 15 8.5 23.5t20.5 8.5t30 -9q22 91 84 148.5t142 57.5t130.5 -45zM379 292q40 23 40 62q0 41 -27.5 68.5
t-74.5 27.5q-63 0 -109.5 -48t-59.5 -117q54 -16 123 -16q68 0 108 23z" />
    <glyph glyph-name="ecircumflex" unicode="&#xea;" horiz-adv-x="539" 
d="M444 616q0 -11 -9 -19.5t-21 -8.5q-22 0 -45 33q-11 15 -15 17q-40 48 -55 48t-56 -48q-4 -3 -15 -18q-23 -32 -40 -32q-16 0 -25.5 8.5t-9.5 19.5q0 16 14 30l18 16q16 14 27.5 25t27.5 32q18 24 29.5 32.5t28.5 8.5t29 -8.5t31 -32.5q21 -28 36.5 -41.5t18.5 -15.5
l18 -16q13 -11 13 -30zM439.5 470q50.5 -45 50.5 -117q0 -70 -61 -108.5t-155 -38.5q-52 0 -127 15q4 -46 27 -85t57.5 -62.5t71.5 -23.5q32 0 61.5 9t45.5 21q40 31 53 31q12 0 19.5 -7.5t7.5 -18.5q0 -19 -27.5 -42.5t-70 -40.5t-84.5 -17q-67 0 -118.5 33t-80 90
t-32.5 126q-53 17 -53 52q0 15 8.5 23.5t20.5 8.5t30 -9q22 91 84 148.5t142 57.5t130.5 -45zM379 292q40 23 40 62q0 41 -27.5 68.5t-74.5 27.5q-63 0 -109.5 -48t-59.5 -117q54 -16 123 -16q68 0 108 23z" />
    <glyph glyph-name="edieresis" unicode="&#xeb;" horiz-adv-x="539" 
d="M439.5 470q50.5 -45 50.5 -117q0 -70 -61 -108.5t-155 -38.5q-52 0 -127 15q4 -46 27 -85t57.5 -62.5t71.5 -23.5q32 0 61.5 9t45.5 21q40 31 53 31q12 0 19.5 -7.5t7.5 -18.5q0 -19 -27.5 -42.5t-70 -40.5t-84.5 -17q-67 0 -118.5 33t-80 90t-32.5 126q-53 17 -53 52
q0 15 8.5 23.5t20.5 8.5t30 -9q22 91 84 148.5t142 57.5t130.5 -45zM379 292q40 23 40 62q0 41 -27.5 68.5t-74.5 27.5q-63 0 -109.5 -48t-59.5 -117q54 -16 123 -16q68 0 108 23zM256.5 712q10.5 -13 10.5 -34q0 -22 -14.5 -42t-34.5 -20q-21 0 -31.5 13.5t-10.5 37.5
t14.5 41t35.5 17q20 0 30.5 -13zM416.5 712q10.5 -13 10.5 -34q0 -22 -14.5 -42t-34.5 -20q-21 0 -31.5 13.5t-10.5 37.5t14.5 41t35.5 17q20 0 30.5 -13z" />
    <glyph glyph-name="igrave" unicode="&#xec;" horiz-adv-x="224" 
d="M148 593q-18 0 -46.5 21t-50 51t-21.5 57q0 16 9.5 27t26.5 11t29 -13t23 -40q10 -23 16 -33t20 -25q21 -22 21 -35q0 -21 -27 -21zM145 250l5 -210q0 -50 -38 -50t-38 50l5 210l-5 210q0 50 38 50t38 -50z" />
    <glyph glyph-name="iacute" unicode="&#xed;" horiz-adv-x="224" 
d="M145 250l5 -210q0 -50 -38 -50t-38 50l5 210l-5 210q0 50 38 50t38 -50zM172.5 665q-21.5 -30 -50 -51t-46.5 -21q-27 0 -27 21q0 13 16 30q4 5 13.5 15.5t15.5 21t13 26.5q11 28 22.5 40.5t28.5 12.5t26.5 -11t9.5 -27q0 -27 -21.5 -57z" />
    <glyph glyph-name="icircumflex" unicode="&#xee;" horiz-adv-x="224" 
d="M258 616q0 -11 -9 -19.5t-21 -8.5q-22 0 -45 33q-11 15 -15 17q-41 48 -55 48q-15 0 -56 -48q-5 -3 -15 -18q-23 -32 -40 -32q-16 0 -25.5 8.5t-9.5 19.5q0 16 14 30l18 16q17 14 28 25t27 32q18 24 29.5 32.5t28.5 8.5t29 -8.5t31 -32.5q21 -28 36.5 -41.5t18.5 -15.5
l18 -16q13 -11 13 -30zM145 250l5 -210q0 -50 -38 -50t-38 50l5 210l-5 210q0 50 38 50t38 -50z" />
    <glyph glyph-name="idieresis" unicode="&#xef;" horiz-adv-x="224" 
d="M145 250l5 -210q0 -50 -38 -50t-38 50l5 210l-5 210q0 50 38 50t38 -50zM67.5 712q10.5 -13 10.5 -34q0 -22 -14.5 -42t-34.5 -20q-21 0 -31.5 13.5t-10.5 37.5t14.5 41t35.5 17q20 0 30.5 -13zM227.5 712q10.5 -13 10.5 -34q0 -22 -14.5 -42t-34.5 -20q-21 0 -31.5 13.5
t-10.5 37.5t14.5 41t35.5 17q20 0 30.5 -13z" />
    <glyph glyph-name="eth" unicode="&#xf0;" horiz-adv-x="572" 
d="M449 74q-61 -84 -176 -84q-65 0 -116 34.5t-80 92.5t-29 124q0 67 25.5 123.5t73.5 90t111 33.5q54 0 100.5 -23.5t72.5 -58.5q-25 127 -116 206l-35 -33q-5 -6 -17 -18.5t-20.5 -18t-17.5 -5.5q-14 0 -23.5 8.5t-9.5 18.5t2.5 15.5t10.5 13.5t37 30l27 22q-42 25 -95 30
q-3 0 -21 2t-26.5 10t-8.5 23q0 13 13 22t35 9q70 0 153 -47q20 18 32 30l16 16t21.5 17.5t18.5 5.5q15 0 24 -8t9 -19q0 -10 -2 -15.5t-9 -13.5q-9 -10 -34 -30l-27 -22q67 -62 104.5 -156t37.5 -198q0 -143 -61 -227zM354 78.5q36 24.5 56.5 66.5t20.5 91t-20.5 92.5
t-57 69.5t-81.5 26q-69 0 -110.5 -51.5t-41.5 -130.5q0 -52 20.5 -95t56 -68t78.5 -25t79 24.5z" />
    <glyph glyph-name="ntilde" unicode="&#xf1;" horiz-adv-x="579" 
d="M491 158v-24t1.5 -28t5.5 -20q5 -14 12 -18.5t18 -5.5q9 -1 12 -3t3 -8q0 -26 -16.5 -43.5t-38.5 -17.5q-37 0 -52 29t-15 89l4 184q0 69 -29 110.5t-80 41.5q-33 0 -67 -26t-60.5 -69t-39.5 -91l3 -217q0 -51 -38 -51q-46 0 -46 71q0 66 20 197q0 38 -8 116q-9 74 -9 92
t11 31t28 13t28 -13t11 -31v-41q-1 -17 -1 -42q73 127 180 127q78 0 123 -55.5t45 -139.5zM435.5 622.5q-25.5 -25.5 -59.5 -25.5q-36 0 -83 28q-48 27 -68 27q-17 0 -28.5 -9.5t-20 -21t-11.5 -14.5q-12 -16 -26 -16q-15 0 -25 10.5t-10 25.5q0 35 32 61.5t74 26.5
q41 0 93 -28q50 -28 73 -28q21 0 38 26q16 25 26 25q9 0 15 -8.5t6 -19.5q0 -34 -25.5 -59.5z" />
    <glyph glyph-name="ograve" unicode="&#xf2;" horiz-adv-x="562" 
d="M306 593q-18 0 -46.5 21t-50 51t-21.5 57q0 16 9.5 27t26.5 11t29 -13t23 -40q10 -23 16 -33t20 -25q21 -22 21 -35q0 -21 -27 -21zM402.5 480q53.5 -35 83.5 -95.5t30 -133.5t-30.5 -134t-84.5 -96.5t-121 -35.5t-120.5 35t-83.5 95.5t-30 133.5t30.5 134t84.5 96.5
t121 35.5t120.5 -35zM445 251q0 55 -21.5 100.5t-58.5 72t-82 26.5t-83 -27t-60.5 -73t-22.5 -101t21.5 -100.5t58.5 -72t82 -26.5q68 0 118 59q48 59 48 142z" />
    <glyph glyph-name="oacute" unicode="&#xf3;" horiz-adv-x="562" 
d="M402.5 480q53.5 -35 83.5 -95.5t30 -133.5t-30.5 -134t-84.5 -96.5t-121 -35.5t-120.5 35t-83.5 95.5t-30 133.5t30.5 134t84.5 96.5t121 35.5t120.5 -35zM445 251q0 55 -21.5 100.5t-58.5 72t-82 26.5t-83 -27t-60.5 -73t-22.5 -101t21.5 -100.5t58.5 -72t82 -26.5
q68 0 118 59q48 59 48 142zM361.5 665q-21.5 -30 -50 -51t-46.5 -21q-27 0 -27 21q0 13 16 30q4 5 13.5 15.5t15.5 21t13 26.5q11 28 22.5 40.5t28.5 12.5t26.5 -11t9.5 -27q0 -27 -21.5 -57z" />
    <glyph glyph-name="ocircumflex" unicode="&#xf4;" horiz-adv-x="562" 
d="M402.5 480q53.5 -35 83.5 -95.5t30 -133.5t-30.5 -134t-84.5 -96.5t-121 -35.5t-120.5 35t-83.5 95.5t-30 133.5t30.5 134t84.5 96.5t121 35.5t120.5 -35zM445 251q0 55 -21.5 100.5t-58.5 72t-82 26.5t-83 -27t-60.5 -73t-22.5 -101t21.5 -100.5t58.5 -72t82 -26.5
q68 0 118 59q48 59 48 142zM426 616q0 -11 -9 -19.5t-21 -8.5q-22 0 -45 33q-11 15 -15 17q-41 48 -55 48q-15 0 -56 -48q-3 -2 -14 -18q-24 -32 -41 -32q-16 0 -25.5 8.5t-9.5 19.5q0 16 14 30l18 16q17 14 28 25t27 32q18 24 29.5 32.5t28.5 8.5t29 -8.5t31 -32.5
q21 -28 36.5 -41.5t18.5 -15.5l18 -16q13 -11 13 -30z" />
    <glyph glyph-name="otilde" unicode="&#xf5;" horiz-adv-x="562" 
d="M402.5 480q53.5 -35 83.5 -95.5t30 -133.5t-30.5 -134t-84.5 -96.5t-121 -35.5t-120.5 35t-83.5 95.5t-30 133.5t30.5 134t84.5 96.5t121 35.5t120.5 -35zM445 251q0 55 -21.5 100.5t-58.5 72t-82 26.5t-83 -27t-60.5 -73t-22.5 -101t21.5 -100.5t58.5 -72t82 -26.5
q68 0 118 59q48 59 48 142zM433.5 622.5q-25.5 -25.5 -59.5 -25.5q-36 0 -83 28q-48 27 -68 27q-17 0 -28.5 -9.5t-20 -21t-11.5 -14.5q-12 -16 -26 -16q-15 0 -25 10.5t-10 25.5q0 35 32 61.5t74 26.5q41 0 93 -28q50 -28 73 -28q21 0 38 26q16 25 26 25q9 0 15 -8.5
t6 -19.5q0 -34 -25.5 -59.5z" />
    <glyph glyph-name="odieresis" unicode="&#xf6;" horiz-adv-x="562" 
d="M235.5 712q10.5 -13 10.5 -34q0 -22 -14.5 -42t-34.5 -20q-21 0 -31.5 13.5t-10.5 37.5t14.5 41t35.5 17q20 0 30.5 -13zM395.5 712q10.5 -13 10.5 -34q0 -22 -14.5 -42t-34.5 -20q-21 0 -31.5 13.5t-10.5 37.5t14.5 41t35.5 17q20 0 30.5 -13zM402.5 480
q53.5 -35 83.5 -95.5t30 -133.5t-30.5 -134t-84.5 -96.5t-121 -35.5t-120.5 35t-83.5 95.5t-30 133.5t30.5 134t84.5 96.5t121 35.5t120.5 -35zM445 251q0 55 -21.5 100.5t-58.5 72t-82 26.5t-83 -27t-60.5 -73t-22.5 -101t21.5 -100.5t58.5 -72t82 -26.5q68 0 118 59
q48 59 48 142z" />
    <glyph glyph-name="divide" unicode="&#xf7;" horiz-adv-x="558" 
d="M313.5 468q10.5 -14 10.5 -37t-14 -41.5t-34 -18.5t-31 15t-11 38q0 22 14.5 40t34.5 18t30.5 -14zM456 294q18 0 29.5 -9t11.5 -24t-11.5 -24t-29.5 -9l-177 3l-177 -3q-18 0 -29.5 9t-11.5 24t11.5 24t29.5 9l177 -3zM313.5 137q10.5 -14 10.5 -37t-14 -41.5t-34 -18.5
t-31 15t-11 38q0 22 14.5 40t34.5 18t30.5 -14z" />
    <glyph glyph-name="oslash" unicode="&#xf8;" horiz-adv-x="562" 
d="M485.5 116.5q-30.5 -60.5 -84.5 -96t-120 -35.5q-28 0 -64 9l-18 -50q-14 -35 -41 -35q-15 0 -25 11t-10 26t27 80q-49 35 -76.5 94t-27.5 130q0 73 30.5 133.5t84 96t119.5 35.5q33 0 63 -9q1 4 8.5 26t20.5 38.5t29 16.5q15 0 25 -10.5t10 -27.5q0 -15 -26 -75
q50 -35 78 -94t28 -130q0 -73 -30.5 -133.5zM321 444q-18 6 -39 6q-45 0 -83 -27t-60 -75t-22 -108q0 -92 62 -149q82 190 142 353zM363 77q38 27 60 75t22 107q0 91 -63 151q-59 -136 -142 -355q25 -5 40 -5q45 0 83 27z" />
    <glyph glyph-name="ugrave" unicode="&#xf9;" horiz-adv-x="584" 
d="M143 208q0 -69 29.5 -111t80.5 -42q33 0 66.5 26.5t60.5 69.5t39 91l-3 217q0 51 38 51q46 0 46 -70q0 -67 -20 -198q0 -73 11 -122q10 -48 26 -54q5 -2 15 -4q9 -1 12 -3t3 -8q0 -27 -16.5 -44t-41.5 -17q-63 0 -63 128q-74 -128 -186 -128q-78 0 -123 58t-45 147l6 151
q0 38 -8 75t-8 49q0 16 12.5 28t30.5 12q46 0 46 -82zM297 593q-18 0 -46.5 21t-50 51t-21.5 57q0 16 9.5 27t26.5 11t29 -13t23 -40q10 -23 16 -33t20 -25q21 -22 21 -35q0 -21 -27 -21z" />
    <glyph glyph-name="uacute" unicode="&#xfa;" horiz-adv-x="584" 
d="M362.5 665q-21.5 -30 -50 -51t-46.5 -21q-27 0 -27 21q0 13 16 30q4 5 13.5 15.5t15.5 21t13 26.5q11 28 22.5 40.5t28.5 12.5t26.5 -11t9.5 -27q0 -27 -21.5 -57zM143 208q0 -69 29.5 -111t80.5 -42q33 0 66.5 26.5t60.5 69.5t39 91l-3 217q0 51 38 51q46 0 46 -70
q0 -67 -20 -198q0 -73 11 -122q10 -48 26 -54q5 -2 15 -4q9 -1 12 -3t3 -8q0 -27 -16.5 -44t-41.5 -17q-63 0 -63 128q-74 -128 -186 -128q-78 0 -123 58t-45 147l6 151q0 38 -8 75t-8 49q0 16 12.5 28t30.5 12q46 0 46 -82z" />
    <glyph glyph-name="ucircumflex" unicode="&#xfb;" horiz-adv-x="584" 
d="M429 616q0 -11 -9 -19.5t-21 -8.5q-22 0 -45 33q-11 15 -15 17q-40 48 -55 48t-56 -48q-3 -2 -14 -18q-24 -32 -41 -32q-16 0 -25.5 8.5t-9.5 19.5q0 16 14 30l18 16q16 14 27.5 25t27.5 32q18 24 29.5 32.5t28.5 8.5t29 -8.5t31 -32.5q21 -28 36.5 -41.5t18.5 -15.5
l18 -16q13 -11 13 -30zM143 208q0 -69 29.5 -111t80.5 -42q33 0 66.5 26.5t60.5 69.5t39 91l-3 217q0 51 38 51q46 0 46 -70q0 -67 -20 -198q0 -73 11 -122q10 -48 26 -54q5 -2 15 -4q9 -1 12 -3t3 -8q0 -27 -16.5 -44t-41.5 -17q-63 0 -63 128q-74 -128 -186 -128
q-78 0 -123 58t-45 147l6 151q0 38 -8 75t-8 49q0 16 12.5 28t30.5 12q46 0 46 -82z" />
    <glyph glyph-name="udieresis" unicode="&#xfc;" horiz-adv-x="584" 
d="M246.5 712q10.5 -13 10.5 -34q0 -22 -14.5 -42t-34.5 -20q-21 0 -31.5 13.5t-10.5 37.5t14.5 41t35.5 17q20 0 30.5 -13zM406.5 712q10.5 -13 10.5 -34q0 -22 -14.5 -42t-34.5 -20q-21 0 -31.5 13.5t-10.5 37.5t14.5 41t35.5 17q20 0 30.5 -13zM143 208q0 -69 29.5 -111
t80.5 -42q33 0 66.5 26.5t60.5 69.5t39 91l-3 217q0 51 38 51q46 0 46 -70q0 -67 -20 -198q0 -73 11 -122q10 -48 26 -54q5 -2 15 -4q9 -1 12 -3t3 -8q0 -27 -16.5 -44t-41.5 -17q-63 0 -63 128q-74 -128 -186 -128q-78 0 -123 58t-45 147l6 151q0 38 -8 75t-8 49
q0 16 12.5 28t30.5 12q46 0 46 -82z" />
    <glyph glyph-name="yacute" unicode="&#xfd;" horiz-adv-x="568" 
d="M368.5 665q-21.5 -30 -50 -51t-46.5 -21q-27 0 -27 21q0 13 16 30q4 5 13.5 15.5t15.5 21t13 26.5q11 28 22.5 40.5t28.5 12.5t26.5 -11t9.5 -27q0 -27 -21.5 -57zM416 459q0 51 38 51q46 0 46 -75q0 -59 -21 -193q12 -121 12 -182q0 -133 -64.5 -211.5t-179.5 -78.5
q-40 0 -80 12t-66 30t-26 35q0 25 23 25q10 0 56 -18q44 -19 93 -19q83 0 132.5 59.5t49.5 155.5q0 35 -3 68q-74 -128 -186 -128q-78 0 -123 58t-45 147l6 151q0 38 -8 75t-8 49q0 16 12.5 28t30.5 12q46 0 46 -82l-8 -220q0 -69 29.5 -111t80.5 -42q33 0 66.5 26.5
t60.5 69.5t39 91z" />
    <glyph glyph-name="thorn" unicode="&#xfe;" horiz-adv-x="568" 
d="M82 190l1 38v16q0 68 -9 264q-10 186 -10 210q0 16 11 29t28 13q18 0 28.5 -13.5t10.5 -36.5v-329q35 65 76.5 97t103.5 32t109.5 -40t69.5 -99q20 -57 20 -110q0 -72 -30.5 -134.5t-84 -99.5t-120.5 -37q-75 0 -142 49l-2 -179q0 -60 -10 -74q-10 -16 -31 -16
q-22 0 -35 18t-13 50q0 54 16 199l3 32q8 73 10 102v19zM365 82.5q37 27.5 59.5 73t22.5 97.5q0 82 -35.5 137t-94.5 55q-105 0 -173 -173v-159q59 -58 142 -58q42 0 79 27.5z" />
    <glyph glyph-name="ydieresis" unicode="&#xff;" horiz-adv-x="568" 
d="M416 459q0 51 38 51q46 0 46 -75q0 -59 -21 -193q12 -121 12 -182q0 -133 -64.5 -211.5t-179.5 -78.5q-40 0 -80 12t-66 30t-26 35q0 25 23 25q10 0 56 -18q44 -19 93 -19q83 0 132.5 59.5t49.5 155.5q0 35 -3 68q-74 -128 -186 -128q-78 0 -123 58t-45 147l6 151
q0 38 -8 75t-8 49q0 16 12.5 28t30.5 12q46 0 46 -82l-8 -220q0 -69 29.5 -111t80.5 -42q33 0 66.5 26.5t60.5 69.5t39 91zM248.5 712q10.5 -13 10.5 -34q0 -22 -14.5 -42t-34.5 -20q-21 0 -31.5 13.5t-10.5 37.5t14.5 41t35.5 17q20 0 30.5 -13zM408.5 712
q10.5 -13 10.5 -34q0 -22 -14.5 -42t-34.5 -20q-21 0 -31.5 13.5t-10.5 37.5t14.5 41t35.5 17q20 0 30.5 -13z" />
    <glyph glyph-name="Hbar" unicode="&#x126;" horiz-adv-x="750" 
d="M551 361q-147 3 -212 3q-66 0 -141 -3q0 -162 3 -237l2 -90q0 -16 -12 -30t-29 -14t-29 14t-12 30l1 60q4 92 4 265h-18q-48 0 -48 37q0 18 13 28.5t35 10.5h15v172h-65q-18 0 -29.5 9t-11.5 24q0 33 50 33q35 0 54 -1v37q0 22 12 36.5t29 14.5t29 -14.5t12 -35.5
q0 -28 -1 -39q36 -1 173 -1q136 0 171 1v38q0 22 12 36.5t29 14.5t29 -14.5t12 -35.5q0 -27 -1 -38q19 1 56 1q50 0 50 -33q0 -15 -11.5 -24t-29.5 -9h-67q-2 -120 -2 -171h16q22 0 36.5 -11.5t14.5 -28.5t-14 -27.5t-37 -10.5h-16l5 -317q0 -22 -12 -36.5t-29 -14.5
t-29 14.5t-12 36.5zM548 609l-173 1l-175 -1q-2 -126 -2 -177q134 -2 191 -2q90 0 159 3v176z" />
    <glyph glyph-name="hbar" unicode="&#x127;" horiz-adv-x="577" 
d="M146 661l127 3q18 0 29.5 -9t11.5 -24t-11.5 -24t-29.5 -9l-127 3v-218q73 127 180 127q78 0 123 -55.5t45 -139.5l-5 -157v-24t1.5 -28t5.5 -20q5 -14 12 -18.5t18 -5.5q9 -1 12 -3t3 -8q0 -26 -16.5 -43.5t-38.5 -17.5q-37 0 -52 29t-15 89l4 184q0 69 -29 110.5
t-80 41.5q-33 0 -67 -26t-60.5 -69t-39.5 -91l3 -217q0 -51 -38 -51q-46 0 -46 71q0 66 20 197q0 81 -14 342l-59 -2q-13 0 -24 9.5t-11 23.5t11 23.5t23 9.5l57 -2q-1 15 -1 47q0 24 10.5 37.5t28.5 13.5t28.5 -13.5t10.5 -36.5v-49z" />
    <glyph glyph-name="Itilde" unicode="&#x128;" 
d="M371.5 842.5q-25.5 -25.5 -59.5 -25.5q-36 0 -83 28q-48 27 -68 27q-17 0 -28.5 -9.5t-20 -21t-11.5 -14.5q-12 -16 -26 -16q-15 0 -25 10.5t-10 25.5q0 35 32 61.5t74 26.5q41 0 93 -28q50 -28 73 -28q21 0 38 26q16 25 26 25q9 0 15 -8.5t6 -19.5q0 -34 -25.5 -59.5z
M348 71q23 0 36.5 -10.5t13.5 -27.5t-14 -28t-36 -11l-129 6l-132 -5q-50 0 -50 38t50 38l91 -5q5 250 5 309q0 58 -5 308l-91 -4q-48 0 -48 37q0 18 13 28.5t35 10.5l132 -5q34 0 79 3l59 3q15 0 28.5 -12t13.5 -28t-13.5 -27t-29.5 -11l-66 3l-30 2q-5 -255 -5 -311
t5 -306z" />
    <glyph glyph-name="itilde" unicode="&#x129;" horiz-adv-x="224" 
d="M145 250l5 -210q0 -50 -38 -50t-38 50l5 210l-5 210q0 50 38 50t38 -50zM265.5 622.5q-25.5 -25.5 -59.5 -25.5q-36 0 -83 28q-48 27 -68 27q-17 0 -28.5 -9.5t-20 -21t-11.5 -14.5q-12 -16 -26 -16q-15 0 -25 10.5t-10 25.5q0 35 32 61.5t74 26.5q41 0 93 -28
q50 -28 73 -28q21 0 38 26q16 25 26 25q9 0 15 -8.5t6 -19.5q0 -34 -25.5 -59.5z" />
    <glyph glyph-name="Idotaccent" unicode="&#x130;" 
d="M258.5 942q10.5 -13 10.5 -34q0 -22 -14.5 -42t-34.5 -20q-21 0 -31.5 13.5t-10.5 37.5t14.5 41t35.5 17q20 0 30.5 -13zM348 71q23 0 36.5 -10.5t13.5 -27.5t-14 -28t-36 -11l-129 6l-132 -5q-50 0 -50 38t50 38l91 -5q5 250 5 309q0 58 -5 308l-91 -4q-48 0 -48 37
q0 18 13 28.5t35 10.5l132 -5q34 0 79 3l59 3q15 0 28.5 -12t13.5 -28t-13.5 -27t-29.5 -11l-66 3l-30 2q-5 -255 -5 -311t5 -306z" />
    <glyph glyph-name="dotlessi" unicode="&#x131;" horiz-adv-x="224" 
d="M145 250l5 -210q0 -50 -38 -50t-38 50l5 210l-5 210q0 50 38 50t38 -50z" />
    <glyph glyph-name="IJ" unicode="&#x132;" horiz-adv-x="921" 
d="M810 254q0 -87 -28.5 -146.5t-75 -88.5t-101.5 -29q-49 0 -89.5 16.5t-63.5 40t-23 44.5q0 15 9.5 25t22.5 10q19 0 50 -35q13 -14 36 -24.5t51 -10.5q61 0 99.5 55.5t38.5 164.5l1 98q0 196 -2 310q-7 1 -32 1l-135 -5q-48 0 -48 37q0 17 13 28t35 11l132 -5q34 0 79 3
l59 3q15 0 28.5 -12t13.5 -28q0 -17 -15 -27.5t-39 -10.5h-15q-2 -122 -2 -305zM348 71q23 0 36.5 -10.5t13.5 -27.5t-14 -28t-36 -11l-129 6l-132 -5q-50 0 -50 38t50 38l91 -5q5 250 5 309q0 58 -5 308l-91 -4q-48 0 -48 37q0 18 13 28.5t35 10.5l132 -5q34 0 79 3l59 3
q15 0 28.5 -12t13.5 -28t-13.5 -27t-29.5 -11l-66 3l-30 2q-5 -255 -5 -311t5 -306z" />
    <glyph glyph-name="ij" unicode="&#x133;" horiz-adv-x="465" 
d="M147.5 712q10.5 -13 10.5 -34q0 -22 -14.5 -42t-34.5 -20q-21 0 -31.5 13.5t-10.5 37.5t14.5 41t35.5 17q20 0 30.5 -13zM389.5 712q10.5 -13 10.5 -34q0 -22 -14.5 -42t-34.5 -20q-21 0 -31.5 13.5t-10.5 37.5t14.5 41t35.5 17q20 0 30.5 -13zM145 250l5 -210
q0 -50 -38 -50t-38 50l5 210l-5 210q0 50 38 50t38 -50zM387 230l-1 -220q0 -54 -20 -100t-49.5 -72.5t-54.5 -26.5q-27 0 -27 19q0 14 43 56q18 17 31 53t13 81l-1 210l-5 230q0 50 38 50t38 -50z" />
    <glyph glyph-name="Jcircumflex" unicode="&#x134;" horiz-adv-x="508" 
d="M435 840q0 -11 -9 -19.5t-21 -8.5q-22 0 -45 33q-11 15 -15 17q-40 48 -55 48q-16 0 -56 -48q-3 -2 -14 -18q-24 -32 -41 -32q-16 0 -25.5 8.5t-9.5 19.5q0 16 14 30l18 16q16 14 27.5 25t27.5 32q18 24 29.5 32.5t28.5 8.5t29 -8.5t31 -32.5q21 -28 36.5 -41.5
t18.5 -15.5l18 -16q13 -11 13 -30zM397 254q0 -87 -28.5 -146.5t-75 -88.5t-101.5 -29q-49 0 -89.5 16.5t-63.5 40t-23 44.5q0 15 9.5 25t22.5 10q19 0 50 -35q13 -14 36 -24.5t51 -10.5q61 0 99.5 55.5t38.5 164.5l1 98q0 196 -2 310q-7 1 -32 1l-135 -5q-48 0 -48 37
q0 17 13 28t35 11l132 -5q34 0 79 3l59 3q15 0 28.5 -12t13.5 -28q0 -17 -15 -27.5t-39 -10.5h-15q-2 -122 -2 -305z" />
    <glyph glyph-name="jcircumflex" unicode="&#x135;" horiz-adv-x="223" 
d="M257 616q0 -11 -9 -19.5t-21 -8.5q-22 0 -45 33q-11 15 -15 17q-41 48 -55 48q-16 0 -56 -48q-3 -2 -14 -18q-24 -32 -41 -32q-16 0 -25.5 8.5t-9.5 19.5q0 16 14 30l18 16q16 14 27.5 25t27.5 32q18 24 29.5 32.5t28.5 8.5t29 -8.5t31 -32.5q21 -28 36.5 -41.5
t18.5 -15.5l18 -16q13 -11 13 -30zM145 230l-1 -220q0 -54 -20 -100t-49.5 -72.5t-54.5 -26.5q-27 0 -27 19q0 14 43 56q18 17 31 53t13 81l-1 210l-5 230q0 50 38 50t38 -50z" />
    <glyph glyph-name="Kcommaaccent" unicode="&#x136;" horiz-adv-x="618" 
d="M180 41q0 -22 -12 -36.5t-29 -14.5t-29 14.5t-12 36.5l5 331l-5 336q0 22 12 36.5t29 14.5q16 0 28.5 -14t12.5 -29q0 -28 -1 -53q-4 -135 -4 -239q30 12 86 12l47 -3q48 41 89 122.5t56 160.5q11 44 41 44q15 0 24.5 -10t9.5 -27q0 -41 -25.5 -107.5t-63.5 -131
t-73 -98.5q26 -59 76.5 -148t78.5 -128q25 -30 46 -38q21 -11 29 -9q8 0 8 -6q0 -29 -15.5 -48t-38.5 -19q-37 0 -87 69q-47 64 -166 290q-49 -9 -73 -9q-21 0 -49 5zM221 -70q11 15 29 15q17 0 27.5 -12.5t10.5 -31.5q0 -27 -18 -59t-43 -54.5t-41 -22.5q-9 0 -16 6t-7 14
q0 13 16 36q9 15 14 26t11 38q6 30 17 45z" />
    <glyph glyph-name="kcedilla" unicode="&#x137;" horiz-adv-x="510" 
d="M150 41q0 -51 -38 -51q-46 0 -46 71q0 66 20 197q0 68 -9 257l-9 203q0 16 11 29t28 13q18 0 28.5 -13.5t10.5 -36.5v-327q73 127 180 127q57 0 92.5 -33.5t35.5 -83.5q0 -82 -85 -140l-49 -32l74 -114q17 -26 37 -36.5t35 -10.5q10 0 10 -9q0 -24 -15 -42.5t-36 -18.5
t-32 6.5t-25 25.5q-15 19 -26 38q-69 111 -89 139q-26 0 -43 14t-17 35q0 20 13.5 33t35.5 13q23 0 45 -25q38 17 67.5 52t29.5 63t-16 44t-46 16q-36 0 -72 -26t-63 -68.5t-40 -91.5zM217 -70q11 15 29 15q17 0 27.5 -12.5t10.5 -31.5q0 -27 -18 -59t-43 -54.5t-41 -22.5
q-9 0 -16 6t-7 14q0 7 4.5 15.5t11.5 20.5q10 16 14.5 26.5t10.5 37.5q6 30 17 45z" />
    <glyph glyph-name="kgreenlandic" unicode="&#x138;" horiz-adv-x="505" 
d="M79 250l-5 210q0 50 38 50t38 -50l-2 -63q-3 -58 -3 -100q44 14 69 14q20 0 46 -2q34 23 64.5 70.5t46.5 95.5q11 35 39 35q13 0 22.5 -10t9.5 -23q0 -39 -41 -104.5t-92 -110.5l91 -154q17 -25 37.5 -36t34.5 -11q10 -1 10 -9q0 -24 -15 -42.5t-36 -18.5
q-22 0 -34.5 7.5t-27.5 29.5q-14 17 -29 43q-43 76 -90 153q-24 -10 -64 -10l-41 4l5 -178q0 -50 -38 -50t-38 50z" />
    <glyph glyph-name="Ldot" unicode="&#x13f;" horiz-adv-x="544" 
d="M175 372q0 -124 4 -301q45 -5 106 -5q70 0 118 4l68 3q15 0 28 -11t13 -28q0 -18 -13.5 -28.5t-36.5 -10.5l-151 5l-162 -5q-24 0 -37.5 13.5t-13.5 37.5l5 326l-5 337q0 23 11 37t30 14t30 -14t11 -37zM376.5 425q11.5 -15 11.5 -39q0 -25 -14.5 -44t-35.5 -19
t-32.5 15.5t-11.5 40.5q0 24 15 42.5t36 18.5q20 0 31.5 -15z" />
    <glyph glyph-name="ldot" unicode="&#x140;" horiz-adv-x="338" 
d="M145 375l5 -335q0 -50 -38 -50t-38 50l5 335l-5 335q0 50 38 50t38 -50zM312.5 425q11.5 -15 11.5 -39q0 -25 -14.5 -44t-35.5 -19q-20 0 -32 15.5t-12 40.5q0 24 15 42.5t36 18.5q20 0 31.5 -15z" />
    <glyph glyph-name="Lslash" unicode="&#x141;" horiz-adv-x="552" 
d="M106 709q0 23 11 37t30 14q18 0 29.5 -13.5t11.5 -29.5q0 -25 -1 -43q-3 -82 -3 -164l67 61q15 12 29 12t22.5 -9t8.5 -24q0 -12 -5 -18.5t-30 -25.5l-24 -18l-69 -57v-59q0 -124 4 -301q45 -5 106 -5q70 0 118 4l68 3q15 0 28 -11t13 -28q0 -18 -13.5 -28.5t-36.5 -10.5
l-151 5l-162 -5q-22 0 -36.5 13t-14.5 30q0 31 1 61q4 160 4 270l-42 -38q-15 -12 -28 -12q-14 0 -23 9t-9 24q0 14 9 23.5t43 34.5l50 39z" />
    <glyph glyph-name="lslash" unicode="&#x142;" horiz-adv-x="256" 
d="M93 710q0 50 38 50t38 -50l-1 -37l-2 -76l-2 -96q24 21 47 42q32 28 37 32q11 8 24 8q14 0 22.5 -9t8.5 -24q0 -12 -6 -19.5t-36 -30.5l-19 -15q-54 -42 -78 -63v-47q0 -168 3 -248l2 -87q0 -50 -38 -50t-38 50l1 54q4 95 4 270l-37 -33q-15 -12 -28 -12q-14 0 -23 9
t-9 24t17 30l80 63z" />
    <glyph glyph-name="Nacute" unicode="&#x143;" horiz-adv-x="692" 
d="M437.5 875q-21.5 -30 -50 -51t-46.5 -21q-27 0 -27 21q0 13 16 30q4 5 13.5 15.5t15.5 21t13 26.5q11 28 22.5 40.5t28.5 12.5t26.5 -11t9.5 -27q0 -27 -21.5 -57zM103 372l-5 336q0 22 12 37t30 15q32 0 48 -27q4 -6 69 -122l79 -140q136 -246 182 -320v221
q0 143 -2 249l-3 95q0 16 12 30t29 14t29 -14t12 -30l-1 -63q-4 -100 -4 -281l2 -331q0 -23 -12.5 -37t-34.5 -14q-17 0 -26 10t-31 49l-18 33q-92 168 -144 259q-43 71 -91 159q-43 78 -60 105v-233l5 -331q0 -22 -12 -36.5t-29 -14.5t-29 14.5t-12 36.5z" />
    <glyph glyph-name="nacute" unicode="&#x144;" horiz-adv-x="579" 
d="M491 158v-24t1.5 -28t5.5 -20q5 -14 12 -18.5t18 -5.5q9 -1 12 -3t3 -8q0 -26 -16.5 -43.5t-38.5 -17.5q-37 0 -52 29t-15 89l4 184q0 69 -29 110.5t-80 41.5q-33 0 -67 -26t-60.5 -69t-39.5 -91l3 -217q0 -51 -38 -51q-46 0 -46 71q0 66 20 197q0 38 -8 116q-9 74 -9 92
t11 31t28 13t28 -13t11 -31v-41q-1 -17 -1 -42q73 127 180 127q78 0 123 -55.5t45 -139.5zM378.5 665q-21.5 -30 -50 -51t-46.5 -21q-27 0 -27 21q0 13 16 30q4 5 13.5 15.5t15.5 21t13 26.5q11 28 22.5 40.5t28.5 12.5t26.5 -11t9.5 -27q0 -27 -21.5 -57z" />
    <glyph glyph-name="OE" unicode="&#x152;" horiz-adv-x="947" 
d="M802 438q19 0 32 -11t13 -28q0 -37 -50 -37l-130 4q-1 -88 -30.5 -165.5t-81.5 -131.5q53 -3 135 -3l162 5q50 0 50 -38t-50 -38l-162 5l-175 -5q-30 0 -40 16q-50 -26 -109 -26q-86 0 -157 52.5t-111.5 142t-40.5 196.5t41 196t112.5 141t157.5 52q53 0 98 -21
q14 11 43 11l193 -5l150 5q50 0 50 -38t-50 -38l-150 5q-117 0 -146 -4q91 -94 107 -247zM477.5 102q50.5 44 79.5 117.5t29 158.5q0 84 -28.5 156.5t-79.5 115t-113 42.5q-63 0 -115 -43t-82 -115t-30 -156t30 -158t82.5 -118t114.5 -44t112.5 44z" />
    <glyph glyph-name="oe" unicode="&#x153;" horiz-adv-x="908" 
d="M773.5 494.5q39.5 -20.5 62.5 -57.5t23 -84q0 -70 -61 -108.5t-155 -38.5q-52 0 -127 15q4 -46 27 -85t57.5 -62.5t71.5 -23.5q32 0 61.5 9t45.5 21q40 31 53 31q12 0 19.5 -7.5t7.5 -18.5q0 -19 -27.5 -42.5t-70 -40.5t-84.5 -17q-134 0 -198 121q-31 -57 -83 -89
t-115 -32q-67 0 -121 35t-84 95.5t-30 133.5t30.5 134t84 96.5t119.5 35.5t119.5 -33.5t83.5 -92.5q71 126 203 126q48 0 87.5 -20.5zM445 251q0 55 -21.5 100.5t-58.5 72t-82 26.5t-83 -27t-60.5 -73t-22.5 -101t21.5 -100.5t58.5 -72t82 -26.5q68 0 118 59q48 59 48 142z
M748 292q40 23 40 62q0 41 -27.5 68.5t-74.5 27.5q-63 0 -109.5 -48t-59.5 -117q54 -16 123 -16q68 0 108 23z" />
    <glyph glyph-name="Racute" unicode="&#x154;" horiz-adv-x="636" 
d="M379.5 875q-21.5 -30 -50 -51t-46.5 -21q-27 0 -27 21q0 13 16 30q4 5 13.5 15.5t15.5 21t13 26.5q11 28 22.5 40.5t28.5 12.5t26.5 -11t9.5 -27q0 -27 -21.5 -57zM179 307l5 -266q0 -22 -12 -36.5t-29 -14.5t-29 14.5t-12 30.5l2 63q4 127 4 248q0 125 -1 165l-1 47
q0 34 -1 47l-2 41l-16 -2q-30 0 -30 33q0 26 36 46t88 31t96 11q89 0 151.5 -29t94 -79.5t31.5 -114.5q0 -65 -41 -123t-110 -87q95 -224 157 -258q17 -10 28 -8q1 0 2.5 0.5t3.5 -0.5q15 0 15 -12q0 -27 -17.5 -45.5t-41.5 -18.5q-38 0 -80 56q-58 83 -139 263
q-48 -9 -95 -9zM429 651.5q-51 44.5 -134 44.5t-115 -18q-3 -52 -3 -161q0 -117 1 -132q45 12 92 12q49 0 86 -10q30 6 59 28t47 54.5t18 66.5q0 71 -51 115.5z" />
    <glyph glyph-name="Rcommaaccent" unicode="&#x156;" horiz-adv-x="636" 
d="M514 419q-41 -58 -110 -87q95 -224 157 -258q17 -10 27 -8q2 0 3.5 0.5t3.5 -0.5q15 0 15 -12q0 -27 -17.5 -45.5t-41.5 -18.5q-38 0 -80 56q-58 83 -139 263q-48 -9 -95 -9l-57 7q0 -139 3 -199l2 -74q0 -16 -12 -30t-29 -14t-29 14.5t-12 30.5l1 63q5 158 5 248
q0 125 -1 165l-3 94l-1 41l-16 -2q-30 0 -30 33q0 26 36 46t88 31t96 11q89 0 151.5 -29t94 -79.5t31.5 -114.5q0 -65 -41 -123zM430 651.5q-51 44.5 -134 44.5t-115 -18q-3 -52 -3 -161q0 -117 1 -132q45 12 92 12q49 0 86 -10q30 6 59 28t47 54.5t18 66.5q0 71 -51 115.5z
M211 -70q11 15 29 15q17 0 27.5 -12.5t10.5 -31.5q0 -27 -18 -59t-43 -54.5t-41 -22.5q-10 0 -16.5 6t-6.5 14q0 7 4.5 15.5t11.5 20.5q10 16 14.5 26.5t10.5 37.5q6 30 17 45z" />
    <glyph glyph-name="rcommaaccent" unicode="&#x157;" horiz-adv-x="408" 
d="M152 41q0 -51 -38 -51q-46 0 -46 71q0 66 20 197q0 37 -8 115q-9 74 -9 91q0 19 11 32.5t28 13.5t28 -13.5t11 -30.5v-42q-1 -17 -1 -43q21 53 63.5 91t86.5 38q43 0 68.5 -17.5t25.5 -40.5q0 -21 -11 -33t-28 -12q-19 0 -38 19q-21 18 -33 18q-21 0 -49.5 -33.5t-52 -84
t-31.5 -97.5zM76 -70q11 15 29 15q17 0 27.5 -12.5t10.5 -31.5q0 -27 -18 -59t-43 -54.5t-41 -22.5q-10 0 -16.5 6t-6.5 14q0 7 4.5 15.5t11.5 20.5q10 16 14.5 26.5t10.5 37.5q6 30 17 45z" />
    <glyph glyph-name="Rcaron" unicode="&#x158;" horiz-adv-x="636" 
d="M414.5 976q9.5 -8 9.5 -19q0 -19 -13 -30q-9 -9 -18 -16q-4 -4 -19.5 -18t-35.5 -40q-19 -24 -31 -32.5t-29 -8.5t-28.5 8.5t-29.5 32.5q-16 21 -29 34t-26 24q-18 15 -25 23t-7 20q0 13 9 21.5t22 8.5q12 0 22.5 -7.5t23.5 -24.5l13 -18q45 -48 56 -48q10 0 55 48l14 18
q24 32 41 32q16 0 25.5 -8zM179 307l5 -266q0 -22 -12 -36.5t-29 -14.5t-29 14.5t-12 30.5l2 63q4 127 4 248q0 125 -1 165l-1 47q0 34 -1 47l-2 41l-16 -2q-30 0 -30 33q0 26 36 46t88 31t96 11q89 0 151.5 -29t94 -79.5t31.5 -114.5q0 -65 -41 -123t-110 -87
q95 -224 157 -258q17 -10 28 -8q1 0 2.5 0.5t3.5 -0.5q15 0 15 -12q0 -27 -17.5 -45.5t-41.5 -18.5q-38 0 -80 56q-58 83 -139 263q-48 -9 -95 -9zM429 651.5q-51 44.5 -134 44.5t-115 -18q-3 -52 -3 -161q0 -117 1 -132q45 12 92 12q49 0 86 -10q30 6 59 28t47 54.5
t18 66.5q0 71 -51 115.5z" />
    <glyph glyph-name="rcaron" unicode="&#x159;" horiz-adv-x="408" 
d="M152 41q0 -51 -38 -51q-46 0 -46 71q0 66 20 197q0 37 -8 115q-9 74 -9 91q0 19 11 32.5t28 13.5t28 -13.5t11 -30.5v-42q-1 -17 -1 -43q21 53 63.5 91t86.5 38q43 0 68.5 -17.5t25.5 -40.5q0 -21 -11 -33t-28 -12q-19 0 -38 19q-21 18 -33 18q-21 0 -49.5 -33.5t-52 -84
t-31.5 -97.5zM359.5 752q9.5 -8 9.5 -19q0 -19 -13 -30q-9 -9 -18 -16q-4 -4 -19.5 -18t-35.5 -40q-19 -24 -31 -32.5t-29 -8.5t-28.5 8.5t-29.5 32.5q-16 21 -29 34t-26 24q-18 15 -25 23t-7 20q0 13 9 21.5t22 8.5q12 0 22.5 -7.5t23.5 -24.5l13 -18q45 -48 56 -48
q10 0 55 48l13 18q26 32 42 32t25.5 -8z" />
    <glyph glyph-name="Ydieresis" unicode="&#x178;" horiz-adv-x="554" 
d="M240.5 942q10.5 -13 10.5 -34q0 -22 -14.5 -42t-34.5 -20q-21 0 -31.5 13.5t-10.5 37.5t14.5 41t35.5 17q20 0 30.5 -13zM400.5 942q10.5 -13 10.5 -34q0 -22 -14.5 -42t-34.5 -20q-21 0 -31.5 13.5t-10.5 37.5t14.5 41t35.5 17q20 0 30.5 -13zM238 86q4 81 4 228
l-110 193l-40 68l-33 55q-33 56 -38 70q-6 14 -6 26q0 13 9.5 23.5t23.5 10.5q15 0 25 -8t22 -28q14 -23 23 -42q76 -158 163 -291q93 147 153 271l16 31l13 24q11 22 19 30q2 3 8 7q8 6 20 6t20.5 -9t8.5 -20q0 -12 -3 -23t-13 -29q-15 -28 -51 -90l-41 -70l-117 -205
q0 -139 3 -204l2 -70q0 -50 -41 -50t-41 50z" />
    <glyph glyph-name="circumflex" unicode="&#x2c6;" horiz-adv-x="411" 
d="M351 616q0 -11 -9 -19.5t-21 -8.5q-22 0 -45 33q-11 15 -15 17q-41 48 -55 48q-15 0 -56 -48q-3 -2 -14 -18q-24 -32 -41 -32q-16 0 -25.5 8.5t-9.5 19.5q0 16 14 30l18 16q17 14 28 25t27 32q18 24 29.5 32.5t28.5 8.5t29 -8.5t31 -32.5q21 -28 36.5 -41.5t18.5 -15.5
l18 -16q13 -11 13 -30z" />
    <glyph glyph-name="caron" unicode="&#x2c7;" horiz-adv-x="411" 
d="M341.5 752q9.5 -8 9.5 -19q0 -19 -13 -30q-9 -9 -18 -16q-4 -4 -19.5 -18t-35.5 -40q-19 -24 -31 -32.5t-29 -8.5t-28.5 8.5t-29.5 32.5q-16 21 -29 34t-26 24q-18 15 -25 23t-7 20q0 13 9 21.5t22 8.5q12 0 22.5 -7.5t23.5 -24.5l13 -18q45 -48 56 -48q10 0 55 48l13 18
q26 32 42 32t25.5 -8z" />
    <glyph glyph-name="breve" unicode="&#x2d8;" horiz-adv-x="415" 
d="M355 722q0 -27 -20 -56t-54 -48.5t-74 -19.5t-74 19.5t-53.5 48.5t-19.5 56q0 38 30 38q25 0 46 -50q7 -20 26.5 -34.5t44.5 -14.5t44 14.5t28 34.5q21 50 46 50q30 0 30 -38z" />
    <glyph glyph-name="dotaccent" unicode="&#x2d9;" horiz-adv-x="191" 
d="M130.5 747q10.5 -13 10.5 -34q0 -22 -14.5 -42t-34.5 -20q-21 0 -31.5 13.5t-10.5 37.5t14.5 41t35.5 17q20 0 30.5 -13z" />
    <glyph glyph-name="ring" unicode="&#x2da;" horiz-adv-x="182" 
d="M182 670q0 -40 -25 -67t-66 -27t-66 26.5t-25 67.5t26 68t65 27q40 0 65 -27q26 -29 26 -68zM122 637.5q13 14.5 13 33.5q0 18 -13.5 32.5t-30.5 14.5t-30.5 -14.5t-13.5 -32.5q0 -19 13 -33.5t31 -14.5t31 14.5z" />
    <glyph glyph-name="ogonek" unicode="&#x2db;" horiz-adv-x="355" 
d="M296 -193q-15 -16 -40.5 -26.5t-55.5 -10.5q-48 0 -82.5 28.5t-34.5 74.5q0 74 95 121h74q-102 -51 -102 -113q0 -22 17 -34.5t42 -12.5q24 0 50 13q26 12 34 12t13 -6t5 -13q0 -17 -15 -33z" />
    <glyph glyph-name="tilde" unicode="&#x2dc;" horiz-adv-x="497" 
d="M401.5 622.5q-25.5 -25.5 -59.5 -25.5q-36 0 -83 28q-48 27 -68 27q-17 0 -28.5 -9.5t-20 -21t-11.5 -14.5q-12 -16 -26 -16q-15 0 -25 10.5t-10 25.5q0 35 32 61.5t74 26.5q41 0 93 -28q50 -28 73 -28q21 0 38 26q16 25 26 25q9 0 15 -8.5t6 -19.5q0 -34 -25.5 -59.5z
" />
    <glyph glyph-name="uni03A9" unicode="&#x3a9;" horiz-adv-x="829" 
d="M188 66q36 0 46 1q-136 136 -136 311q0 90 43.5 167.5t116.5 123.5t158 46t157.5 -45t115.5 -122t43 -167q0 -178 -136 -315q9 -1 46 -1l112 5q22 0 35 -10.5t13 -27.5q0 -18 -13 -28.5t-35 -10.5l-112 6q-29 0 -67 -3q-37 -3 -51 -3q-15 0 -28.5 11.5t-13.5 29.5
q0 19 24 32q42 22 75.5 72t53 116t19.5 134t-31 127t-85.5 94.5t-121.5 35.5t-122 -36t-86.5 -95.5t-31.5 -127.5t19 -132.5t53 -114t76 -72.5q24 -13 24 -33q0 -18 -13 -29t-28 -11q-14 0 -52 3q-37 3 -67 3l-112 -6q-22 0 -35 10.5t-13 27.5t13 28t35 11z" />
    <glyph glyph-name="uni10D0" unicode="&#x10d0;" horiz-adv-x="382" 
d="M346 123q-2 -65 -44.5 -99t-110.5 -34q-42 0 -75 16t-51.5 40.5t-18.5 50.5q0 14 8 25.5t24 11.5q17 0 27 -9t10 -21q0 -22 17 -40.5t59 -18.5q46 0 67.5 20t22.5 61q-1 29 -16.5 47t-46.5 38q-18 12 -28 20t-17 19q-4 7 -4 17q0 17 10 34t22 17q5 0 9 -5t8 -12.5
t10 -15.5q4 -6 29 -25q39 -29 62.5 -57.5t26.5 -72.5v-4v-3z" />
    <glyph glyph-name="uni10D1" unicode="&#x10d1;" horiz-adv-x="392" 
d="M327.5 231.5q28.5 -39.5 28.5 -92.5q0 -41 -20.5 -75.5t-55.5 -54t-77 -19.5t-77.5 19.5t-55.5 53.5t-20 76q0 63 37.5 104t98.5 46l7 28q6 20 8.5 34.5t2.5 37.5q0 34 -19.5 69.5t-76.5 48.5q-72 17 -106 55t-34 117q0 16 9 28.5t26 12.5t25 -13.5t8 -30.5
q0 -48 24 -72.5t79 -38.5q66 -16 98 -58t32 -84q0 -52 -19 -139q49 -13 77.5 -52.5zM265.5 70q25.5 25 25.5 65q0 45 -25.5 72.5t-62.5 27.5t-62.5 -27.5t-25.5 -72.5q0 -40 25.5 -65t62.5 -25t62.5 25z" />
    <glyph glyph-name="uni10D2" unicode="&#x10d2;" horiz-adv-x="385" 
d="M238 196.5q-20 25.5 -52 25.5q-39 0 -58.5 -21.5t-19.5 -51.5q0 -37 19 -37q12 0 23.5 -8t11.5 -17q0 -19 -12 -27t-38 -8q-31 0 -47.5 22.5t-16.5 67.5q0 66 43.5 100.5t102.5 34.5q124 0 124 -124q0 -26 -5.5 -56t-6.5 -34l-4 -22q2 -17 16 -32t43 -38
q49 -39 76.5 -75.5t27.5 -93.5q0 -61 -22 -114.5t-68.5 -86.5t-116.5 -33q-125 0 -178.5 63.5t-53.5 165.5q0 53 28 100t71 75t85 28q13 0 19.5 -7t6.5 -17q0 -13 -9.5 -21t-26.5 -15q-51 -20 -82.5 -60.5t-31.5 -84.5q0 -94 50 -133t124 -39q65 0 105 47t40 125
q0 34 -13.5 59.5t-31 42t-49.5 40.5q-36 26 -52.5 44t-16.5 44q0 14 7 44q9 43 9 61q0 41 -20 66.5z" />
    <glyph glyph-name="uni10D3" unicode="&#x10d3;" horiz-adv-x="549" 
d="M259 32.5q-42 42.5 -42 106.5q0 44 17 78q-20 16 -41 16q-33 0 -57.5 -29t-24.5 -82q0 -71 25.5 -124.5t61.5 -89.5t96 -83q52 -41 82.5 -70.5t51.5 -70t21 -92.5q0 -14 -8.5 -23t-21.5 -9q-12 0 -22.5 8t-10.5 24q0 41 -18.5 74.5t-46 60t-75.5 63.5q-63 49 -103 89.5
t-68.5 101t-28.5 142.5q0 48 18.5 86t50.5 59.5t71 21.5q48 0 81 -33q39 33 98 33q69 0 108.5 -42t39.5 -109q0 -42 -19.5 -76t-53 -53.5t-75.5 -19.5q-64 0 -106 42.5zM305 208q-23 -27 -23 -73q0 -40 23.5 -65t59.5 -25t59.5 25t23.5 65q0 46 -23 73t-60 27t-60 -27z" />
    <glyph glyph-name="uni10D4" unicode="&#x10d4;" horiz-adv-x="388" 
d="M244 212q-23 23 -60 23q-29 0 -50.5 -22.5t-21.5 -59.5q0 -29 7.5 -40t23.5 -11t25 -9t9 -27t-9.5 -25.5t-33.5 -7.5q-19 0 -39 12.5t-34 39.5t-14 68q0 34 17 65.5t48.5 51.5t71.5 20q60 0 104 -37t44 -116v-377q0 -200 -168 -200q-59 0 -100.5 24t-62.5 62t-21 82
q0 42 15.5 81t43 62.5t60.5 23.5q12 0 22.5 -6t10.5 -19q0 -19 -5 -29t-20 -10q-40 0 -51 -31t-11 -78q0 -55 31.5 -81t87.5 -26q57 0 80 36t23 112v361q0 65 -23 88z" />
    <glyph glyph-name="uni10D5" unicode="&#x10d5;" horiz-adv-x="372" 
d="M337.5 5.5q18.5 -30.5 18.5 -84.5v-161q0 -93 -36.5 -146.5t-131.5 -53.5q-86 0 -135 46t-49 130q0 42 14.5 78.5t41 58.5t59.5 22q17 0 27 -8.5t10 -24.5t-7.5 -26t-21.5 -10q-58 0 -58 -104q0 -50 32.5 -78.5t86.5 -28.5q61 0 82 41t21 117v155q0 37 -15 57.5t-42 20.5
h-26q-12 0 -21.5 7.5t-9.5 21.5q0 36 35 36q28 0 41.5 17.5t13.5 60.5q0 40 -20.5 63t-54.5 23q-36 0 -58 -15t-22 -45q0 -34 18 -34q10 0 15 -9.5t5 -22.5q0 -33 -36 -33q-27 0 -47 24t-20 60q0 57 37.5 93.5t107.5 36.5q69 0 104.5 -43t35.5 -101q0 -33 -9.5 -59
t-36.5 -40v-2q33 -9 51.5 -39.5z" />
    <glyph glyph-name="uni10D6" unicode="&#x10d6;" horiz-adv-x="387" 
d="M334.5 212.5q16.5 -32.5 16.5 -73.5q0 -43 -21 -77t-55.5 -53t-74.5 -19q-66 0 -113 39t-47 108q0 47 68 202q14 32 17 42q-3 -2 -16 -13.5t-35 -18.5t-52 -7q-48 0 -85 25t-57 68.5t-20 98.5q0 85 42.5 135.5t119.5 50.5q84 0 136.5 -43t52.5 -132q0 -47 -5 -77
t-23 -75.5t-63 -145.5q12 18 34 30.5t50 12.5q14 0 38 -4q22 40 64 66q8 5 16 5q13 0 20 -10q3 -4 3 -10q0 -13 -17 -27q-25 -20 -39 -45q29 -20 45.5 -52.5zM146 532q0 59 -32 91t-80 32q-51 0 -80 -30t-29 -87q0 -72 28.5 -100.5t78.5 -28.5q114 0 114 123zM260.5 70
q25.5 25 25.5 65q0 45 -25.5 72.5t-62.5 27.5t-65 -26t-28 -64q0 -47 27 -73.5t66 -26.5q37 0 62.5 25z" />
    <glyph glyph-name="uni10D7" unicode="&#x10d7;" horiz-adv-x="572" 
d="M472.5 270q29.5 -20 46.5 -55.5t17 -79.5q0 -56 -27 -100.5t-70 -44.5q-14 0 -25.5 8t-11.5 24q0 17 9 27t21 10q18 0 28.5 16.5t10.5 59.5q0 46 -18 73t-47 27q-34 0 -52 -23t-18 -57v-20q-3 -66 -41 -105.5t-104 -39.5t-104 39.5t-41 105.5v5v5q3 66 41 105.5t104 39.5
q40 0 69 -17.5t44 -47.5h2q14 29 41 47t59 18q37 0 66.5 -20zM249.5 70q20.5 25 21.5 70q-1 45 -21.5 70t-58.5 25t-58.5 -25t-21.5 -70q1 -45 21.5 -70t58.5 -25t58.5 25z" />
    <glyph glyph-name="uni10D8" unicode="&#x10d8;" horiz-adv-x="402" 
d="M91 246.5q45 43.5 115 43.5t115 -43.5t45 -111.5q0 -56 -27 -100.5t-70 -44.5q-14 0 -25.5 8t-11.5 24q0 17 9 27t21 10q18 0 28.5 16.5t10.5 59.5q0 46 -25.5 73t-69.5 27t-69.5 -27t-25.5 -73q0 -43 10.5 -59.5t28.5 -16.5q12 0 21 -10t9 -27q0 -16 -11.5 -24t-25.5 -8
q-43 0 -70 44.5t-27 100.5q0 68 45 111.5z" />
    <glyph glyph-name="uni10D9" unicode="&#x10d9;" horiz-adv-x="262" 
d="M233.5 5.5q18.5 -30.5 18.5 -84.5v-161q0 -93 -36.5 -146.5t-131.5 -53.5q-86 0 -135 46t-49 130q0 42 14.5 78.5t41 58.5t59.5 22q17 0 27 -8.5t10 -24.5t-7.5 -26t-21.5 -10q-58 0 -58 -104q0 -50 32.5 -78.5t86.5 -28.5q61 0 82 41t21 117v155q0 37 -15 57.5t-42 20.5
h-26q-12 0 -21.5 7.5t-9.5 21.5q0 36 35 36q28 0 41.5 17.5t13.5 59.5q0 33 -15 54.5t-43 21.5q-10 0 -14.5 10t-4.5 23q0 16 9.5 24.5t26.5 8.5q53 0 79.5 -42.5t26.5 -99.5q0 -35 -9.5 -61t-36.5 -40v-2q33 -9 51.5 -39.5z" />
    <glyph glyph-name="uni10DA" unicode="&#x10da;" horiz-adv-x="736" 
d="M636.5 270q29.5 -20 46.5 -55.5t17 -79.5q0 -56 -27 -100.5t-70 -44.5q-14 0 -25.5 8t-11.5 24q0 17 9 27t21 10q18 0 28.5 16.5t10.5 59.5q0 46 -18 73t-47 27q-34 0 -52 -23t-18 -57v-22q0 -9 4 -16t4 -12q0 -23 -35 -23q-36 0 -36 23q0 5 4 12t4 16v22q0 34 -18 57
t-52 23t-52 -23t-18 -57v-22q0 -9 4 -16t4 -12q0 -23 -35 -23q-36 0 -36 23q0 5 4 12t4 16v22q0 34 -18 57t-52 23q-29 0 -49 -31.5t-20 -83.5q0 -74 31.5 -127t77 -88t120.5 -79q66 -40 104.5 -69t65 -70t26.5 -95q0 -14 -8.5 -23t-21.5 -9q-12 0 -22.5 8t-10.5 24
q0 38 -22 69t-55.5 55.5t-92.5 60.5q-81 50 -132.5 90.5t-88 103.5t-36.5 149q0 48 18 87t48.5 61t67.5 22q31 0 57 -18t40 -47h2q14 29 39.5 47t56.5 18t57 -18t40 -47h2q14 29 39.5 47t56.5 18q37 0 66.5 -20z" />
    <glyph glyph-name="uni10DB" unicode="&#x10db;" horiz-adv-x="411" 
d="M69 676.5q49 43.5 125 43.5q72 0 116.5 -49t44.5 -125v-397q0 -76 -43.5 -117.5t-111.5 -41.5q-40 0 -74.5 19t-55.5 53t-21 77q0 67 42 109t105 42q36 0 56 -11t41 -29h2v295q0 49 -27 84.5t-82 35.5q-51 0 -76 -31.5t-25 -78.5q0 -32 14.5 -45.5t36.5 -13.5q25 0 35 -9
t10 -31q0 -34 -40 -34q-35 0 -62.5 18t-43 47.5t-15.5 61.5q0 84 49 127.5zM139.5 70q25.5 -25 62.5 -25q39 0 66 26.5t27 73.5q0 38 -28 64t-65 26t-62.5 -27.5t-25.5 -72.5q0 -40 25.5 -65z" />
    <glyph glyph-name="uni10DC" unicode="&#x10dc;" horiz-adv-x="394" 
d="M356 140v-5q-3 -65 -43.5 -105t-106.5 -40t-106.5 40t-43.5 105v3v282q0 64 8.5 97.5t31.5 54t72 42.5l87 39q21 9 32.5 22.5t20 29t12.5 15.5q18 0 28 -16.5t10 -38.5q0 -20 -13 -34t-37 -26t-80 -35l-52 -22q-32 -14 -46 -36.5t-14 -71.5v-182h2q14 15 38 23.5t50 8.5
q66 0 106.5 -40t43.5 -105v-5zM266.5 71q22.5 26 24.5 69q-2 43 -24.5 69t-65.5 26q-40 0 -61.5 -26t-23.5 -69q2 -43 23.5 -69t61.5 -26q43 0 65.5 26z" />
    <glyph glyph-name="uni10DD" unicode="&#x10dd;" horiz-adv-x="616" 
d="M63 214.5q17 35.5 46.5 55.5t66.5 20q31 0 56.5 -18t39.5 -47h2q14 29 40 47t57 18q37 0 66.5 -20t46.5 -55.5t17 -79.5q0 -10 -3 -19q16 10 37.5 17t38.5 7q16 0 24 -7.5t8 -19.5q0 -10 -10 -17t-25 -7q-39 0 -58.5 -13.5t-37.5 -40.5q-15 -22 -29.5 -33.5t-41.5 -11.5
q-14 0 -25.5 8t-11.5 24q0 17 9 27t21 10q18 0 28.5 16.5t10.5 59.5q0 46 -18 73t-47 27q-34 0 -52 -23t-18 -57v-22q0 -9 4 -16t4 -12q0 -23 -36 -23q-35 0 -35 23q0 5 4 12t4 16v22q0 34 -18 57t-52 23q-29 0 -47 -27t-18 -73q0 -43 10.5 -59.5t28.5 -16.5q12 0 21 -10
t9 -27q0 -16 -11.5 -24t-25.5 -8q-43 0 -70 44.5t-27 100.5q0 44 17 79.5z" />
    <glyph glyph-name="uni10DE" unicode="&#x10de;" horiz-adv-x="382" 
d="M346 150q0 -70 -43.5 -115t-111.5 -45q-56 0 -100.5 27t-44.5 70q0 14 8 25.5t24 11.5q17 0 27 -9t10 -21q0 -20 17 -34.5t59 -14.5q44 0 67 29.5t23 75.5v1v2q-1 42 -27.5 67t-72.5 25h-32q-9 0 -16 -4t-12 -4q-23 0 -23 35q0 36 23 36q5 0 12 -4t16 -4h32h1q32 0 56 27
t24 63v10q0 33 -21 57t-55 38l-92 39q-40 17 -62 49t-22 78q0 21 15 40t33 19q5 0 7 -5.5t3 -14t2 -11.5q4 -33 14.5 -58t38.5 -38l67 -32q61 -29 96.5 -64.5t35.5 -86.5v-20q0 -35 -13.5 -65.5t-38.5 -44.5v-1q35 -19 55.5 -52t20.5 -76v-1z" />
    <glyph glyph-name="uni10DF" unicode="&#x10df;" horiz-adv-x="489" 
d="M444.5 404q8.5 -4 8.5 -16v-628q0 -200 -188 -200q-96 0 -150 43.5t-54 132.5q0 42 14.5 78.5t41 58.5t59.5 22q17 0 27 -8.5t10 -24.5t-7.5 -26t-21.5 -10q-33 0 -45.5 -25t-12.5 -69q0 -56 38.5 -86.5t100.5 -30.5q67 0 95 39t28 119v497h-2q-20 -24 -63 -47t-68 -26
v-2q24 -9 39 -26t15 -59q0 -55 -35 -87.5t-93 -32.5q-37 0 -68 16t-49 41t-18 50q0 14 8 25.5t24 11.5q17 0 27 -9t10 -21q0 -21 15.5 -40t50.5 -19q63 0 63 65q0 27 -12.5 40t-35.5 24q-20 9 -29 17t-9 25q0 15 8.5 23.5t22.5 8.5q52 0 101 29.5t74 66.5q10 15 16 27
q11 20 18.5 28.5t16.5 8.5q21 0 29.5 -4z" />
    <glyph glyph-name="uni10E0" unicode="&#x10e0;" horiz-adv-x="537" 
d="M437.5 270q29.5 -20 46.5 -55.5t17 -79.5q0 -56 -27 -100.5t-70 -44.5q-14 0 -25.5 8t-11.5 24q0 17 9 27t21 10q18 0 28.5 16.5t10.5 59.5q0 46 -18 73t-47 27q-34 0 -52 -23t-18 -57v-22q0 -9 4 -16t4 -12q0 -23 -35 -23q-36 0 -36 23q0 5 4 12t4 16v22q0 34 -18 57
t-52 23q-29 0 -47 -27t-18 -73q0 -43 10.5 -59.5t28.5 -16.5q12 0 21 -10t9 -27q0 -16 -11.5 -24t-25.5 -8q-43 0 -70 44.5t-27 100.5q0 52 19 96t64 97l270 312q-36 -16 -49 -16q-8 0 -21 11t-13 25q0 4 13.5 9.5t31.5 11.5q45 13 80 30q18 9 27 9q17 0 22 -9.5t5 -31.5v0
v-1q-1 -11 -9.5 -26t-20.5 -28l-290 -324q-11 -12 -18.5 -17l-10.5 -7l-1 -3q23 17 46 17q25 0 48 -16.5t34 -48.5h2q14 29 39.5 47t56.5 18q37 0 66.5 -20z" />
    <glyph glyph-name="uni10E1" unicode="&#x10e1;" horiz-adv-x="389" 
d="M353 130q0 -61 -40.5 -100.5t-109.5 -39.5q-68 0 -108 41t-42 107v491q-23 -25 -41 -25q-11 0 -24.5 5.5t-13.5 19.5q0 5 9 13t21 18q33 26 46 39q21 21 35 21q10 0 19 -3.5t9 -12.5v-559q0 -45 21.5 -72.5t63.5 -27.5q44 0 67 24t23 60q0 23 -8.5 38t-26.5 33l-16 18
q-7 8 -7 20q0 17 10 34t22 17q7 0 15 -15l12 -18q6 -6 24 -25.5t29 -44.5t11 -55v-1z" />
    <glyph glyph-name="uni10E2" unicode="&#x10e2;" horiz-adv-x="522" 
d="M498.5 46q33.5 -42 33.5 -117q0 -109 -37.5 -193t-98 -130t-125.5 -46t-125.5 46t-98 130t-37.5 193q0 93 31.5 137t85.5 44q34 0 34 -33q0 -16 -8.5 -24t-23.5 -8q-27 0 -40.5 -31t-13.5 -85q0 -91 31 -162.5t76.5 -111.5t88.5 -40t88.5 40t76.5 111.5t31 162.5
q0 53 -18.5 85.5t-45.5 46.5q-26 13 -52 20q15 -8 21.5 -24t6.5 -34q0 -47 -32.5 -73.5t-75.5 -26.5q-48 0 -75.5 24.5t-27.5 73.5q0 31 18.5 51.5t36.5 25.5v2q-26 9 -45.5 28.5t-19.5 63.5q0 43 29 70.5t84 27.5q58 0 85.5 -30.5t27.5 -71.5q0 -19 -7.5 -37t-21.5 -29
q30 -7 48 -13q62 -21 95.5 -63zM309.5 143q14.5 14 14.5 41q0 21 -12.5 36t-40.5 15q-53 0 -53 -53q0 -25 15.5 -39t39.5 -14q22 0 36.5 14zM305 -10.5q9 11.5 9 33.5q0 24 -9.5 37.5t-33.5 13.5q-22 0 -32.5 -15t-10.5 -35q0 -46 43 -46q25 0 34 11.5z" />
    <glyph glyph-name="uni10E3" unicode="&#x10e3;" horiz-adv-x="620" 
d="M554 249q30 -41 30 -107v-382q0 -200 -188 -200q-96 0 -150 43.5t-54 132.5q0 42 14.5 78.5t41 58.5t59.5 22q17 0 27 -8.5t10 -24.5t-7.5 -26t-21.5 -10q-33 0 -45.5 -25t-12.5 -69q0 -56 38.5 -86.5t100.5 -30.5q67 0 95 39t28 119v367q0 43 -14 69t-45 26
q-34 0 -50 -22.5t-16 -57.5v-22q0 -9 4 -16t4 -12q0 -23 -35 -23q-36 0 -36 23q0 5 4 12t4 16v22q0 80 -60 80q-31 0 -47 -19.5t-16 -52.5q0 -39 -23.5 -59t-56.5 -20q-35 0 -62.5 26t-27.5 74v53q0 21 9.5 32t24.5 11q16 0 24 -6t8 -22q0 -7 -4 -18.5t-4 -17.5v-31
q0 -23 7 -34.5t25 -11.5q31 0 31 36q0 46 30 80.5t82 34.5q33 0 57.5 -16.5t31.5 -43.5h2q9 27 34.5 43.5t55.5 16.5q64 0 94 -41z" />
    <glyph glyph-name="uni10E4" unicode="&#x10e4;" horiz-adv-x="570" 
d="M541.5 -10.5q18.5 -30.5 18.5 -84.5v-145q0 -200 -188 -200q-96 0 -150 43.5t-54 132.5q0 42 14.5 78.5t41 58.5t59.5 22q17 0 27 -8.5t10 -24.5t-7.5 -26t-21.5 -10q-33 0 -45.5 -25t-12.5 -69q0 -56 38.5 -86.5t100.5 -30.5q67 0 95 39t28 119v139q0 37 -15 57.5
t-42 20.5h-26q-12 0 -21.5 7.5t-9.5 21.5q0 36 35 36q27 0 41 18.5t14 61.5q0 46 -18 73t-47 27q-34 0 -52 -23t-18 -57v-20q-3 -66 -41 -105.5t-104 -39.5t-104 39.5t-41 105.5v5v5q3 66 41 105.5t104 39.5q40 0 69 -17.5t44 -47.5h2q14 29 41 47t59 18q37 0 66.5 -20
t46.5 -55.5t17 -79.5q0 -35 -9.5 -62.5t-36.5 -41.5v-2q33 -9 51.5 -39.5zM249.5 70q20.5 25 21.5 70q-1 45 -21.5 70t-58.5 25t-58.5 -25t-21.5 -70q1 -45 21.5 -70t58.5 -25t58.5 25z" />
    <glyph glyph-name="uni10E5" unicode="&#x10e5;" horiz-adv-x="378" 
d="M333 616.5q9 -3.5 9 -12.5v-844q0 -93 -36.5 -146.5t-131.5 -53.5q-86 0 -135 46t-49 130q0 42 14.5 78.5t41 58.5t59.5 22q17 0 27 -8.5t10 -24.5t-7.5 -26t-21.5 -10q-58 0 -58 -104q0 -50 32.5 -78.5t86.5 -28.5q61 0 82 41t21 117v351q0 66 -20.5 88.5t-56.5 22.5
q-30 0 -54 -23t-24 -62q0 -26 7.5 -37t23.5 -11q15 0 23 -9t8 -27q0 -33 -39 -33q-19 0 -39.5 12t-34.5 38.5t-14 66.5q0 35 18.5 67.5t51 52.5t73.5 20q43 0 77 -19v253q-22 -20 -36 -20q-11 0 -24.5 5.5t-13.5 19.5q0 5 9 13t21 18q33 26 46 39q21 21 35 21q10 0 19 -3.5z
" />
    <glyph glyph-name="uni10E6" unicode="&#x10e6;" horiz-adv-x="541" 
d="M137.5 -7q26.5 -53 64.5 -88t100 -79q55 -39 87.5 -68.5t54.5 -70.5t22 -95q0 -14 -8.5 -23t-21.5 -9q-12 0 -22.5 8t-10.5 24q0 41 -19.5 74t-48 58.5t-79.5 64.5q-66 48 -108.5 88t-72 100.5t-29.5 142.5q0 48 18 87t48.5 61t67.5 22q31 0 57 -18t40 -47h2
q14 29 39.5 47t56.5 18q37 0 66.5 -20t46.5 -55.5t17 -79.5q0 -56 -27 -100.5t-70 -44.5q-14 0 -25.5 8t-11.5 24q0 17 9 27t21 10q18 0 28.5 16.5t10.5 59.5q0 46 -18 73t-47 27q-34 0 -52 -23t-18 -57v-22q0 -9 4 -16t4 -12q0 -23 -35 -23q-36 0 -36 23q0 5 4 12t4 16v22
q0 34 -18 57t-52 23q-29 0 -49 -31.5t-20 -83.5q0 -74 26.5 -127z" />
    <glyph glyph-name="uni10E7" unicode="&#x10e7;" horiz-adv-x="491" 
d="M431 285q12 -5 18 -21.5t6 -51.5v-452q0 -200 -188 -200q-96 0 -150 43.5t-54 132.5q0 42 14.5 78.5t41 58.5t59.5 22q17 0 27 -8.5t10 -24.5t-7.5 -26t-21.5 -10q-33 0 -45.5 -25t-12.5 -69q0 -56 38.5 -86.5t100.5 -30.5q67 0 95 39t28 119v438q0 8 -4.5 13.5
t-12.5 5.5q-43 0 -43 -70q0 -30 -15 -60t-46.5 -50t-77.5 -20q-68 0 -106.5 39t-38.5 106q0 49 21.5 82t54.5 33q41 0 41 -29q0 -34 -23 -35q-14 -1 -22.5 -16t-8.5 -42q0 -40 21.5 -61.5t60.5 -21.5q36 0 57.5 21.5t21.5 55.5q0 59 31 93.5t96 34.5q22 0 34 -5z" />
    <glyph glyph-name="uni10E8" unicode="&#x10e8;" horiz-adv-x="381" 
d="M315 669q30 -41 30 -107v-434v-3q-3 -65 -43.5 -105t-106.5 -40t-106.5 40t-43.5 105v5v5q3 65 43.5 105t106.5 40q26 0 50 -8.5t38 -23.5h2v312q0 41 -16 68t-48 27q-34 0 -50 -22.5t-16 -57.5v-22q0 -9 4 -16t4 -12q0 -23 -35 -23q-36 0 -36 23q0 5 4 12t4 16v22
q0 33 -20.5 56.5t-55.5 23.5q-29 0 -47 -27t-18 -73q0 -43 10.5 -59.5t28.5 -16.5q12 0 21 -10t9 -27q0 -16 -11.5 -24t-25.5 -8q-43 0 -70 44.5t-27 100.5q0 44 17 79.5t46.5 55.5t66.5 20q32 0 60 -18.5t42 -46.5h2q14 29 39 47t54 18q64 0 94 -41zM261.5 61
q21.5 26 23.5 69q-2 43 -23.5 69t-61.5 26q-43 0 -65.5 -26t-24.5 -69q2 -43 24.5 -69t65.5 -26q40 0 61.5 26z" />
    <glyph glyph-name="uni10E9" unicode="&#x10e9;" horiz-adv-x="410" 
d="M502.5 412.5q-47.5 -42.5 -122.5 -42.5q-28 0 -59.5 14t-41.5 30q-4 7 -4 17t5 19t14 13q8 4 18 4q23 0 32 -20q7 -13 16.5 -17.5t28.5 -4.5q45 1 70.5 25t25.5 75q0 34 -15.5 64t-44.5 48t-67 18q-56 0 -89.5 -41t-51.5 -101l-72 -238h2q32 15 72 15q69 0 107.5 -38
t38.5 -112q0 -32 -10.5 -67.5t-22.5 -51.5q-24 -31 -64 -31q-10 0 -18.5 10t-8.5 25q0 14 7 22t20 8q32 0 32 85q0 40 -24 65t-69 25q-50 0 -73 -26.5t-23 -63.5q0 -39 10 -62t26 -23q20 0 27 -6.5t7 -24.5q0 -16 -12 -25t-25 -9q-46 0 -72 39.5t-26 108.5q0 39 23.5 124.5
t48.5 162.5t33 100q20 80 68 137.5t135 57.5q46 0 91 -19.5t75 -60.5t30 -102q0 -83 -47.5 -125.5z" />
    <glyph glyph-name="uni10EA" unicode="&#x10ea;" horiz-adv-x="586" 
d="M525 -6.5q23 -18.5 37 -46t14 -57.5q0 -79 -38.5 -156t-96.5 -125.5t-114 -48.5q-73 0 -140.5 68t-109 180.5t-41.5 240.5q0 59 18 112.5t49.5 86t69.5 32.5q34 0 34 -33q0 -16 -8.5 -24t-23.5 -8q-22 0 -39 -28t-26 -67t-9 -71q0 -123 36 -222.5t89 -155.5t101 -56
q36 0 79.5 40.5t74 104.5t30.5 130q0 32 -18 54.5t-43.5 34t-48.5 11.5h-22q-9 0 -16 -4t-12 -4q-23 0 -23 35q0 36 23 36q5 0 12 -4t16 -4h22q34 0 57 18t23 52q0 29 -21.5 43.5t-61.5 27.5q-28 10 -43 17.5t-22 18.5q-4 7 -4 17q0 17 10 34t22 17q4 0 8 -4t7 -9
q8 -12 17 -20t41 -22q51 -22 81.5 -47.5t30.5 -72.5q0 -31 -19.5 -57t-48.5 -40v-2q24 -4 47 -22.5z" />
    <glyph glyph-name="uni10EB" unicode="&#x10eb;" horiz-adv-x="382" 
d="M319.5 667.5q26.5 -42.5 26.5 -99.5v-430v-3q-3 -65 -43.5 -105t-106.5 -40t-106.5 40t-43.5 105v5v5q3 65 43.5 105t106.5 40q26 0 50 -8.5t38 -23.5h2v310q0 32 -17 54t-46 22q-10 0 -14.5 10t-4.5 23q0 16 9.5 24.5t26.5 8.5q53 0 79.5 -42.5zM262.5 71
q21.5 26 23.5 69q-2 43 -23.5 69t-61.5 26q-43 0 -65.5 -26t-24.5 -69q2 -43 24.5 -69t65.5 -26q40 0 61.5 26z" />
    <glyph glyph-name="uni10EC" unicode="&#x10ec;" horiz-adv-x="414" 
d="M426.5 700q29.5 -20 46.5 -55.5t17 -79.5q0 -56 -27 -100.5t-70 -44.5q-14 0 -25.5 8t-11.5 24q0 17 9 27t21 10q18 0 28.5 16.5t10.5 59.5q0 46 -18 73t-47 27q-34 0 -52 -23t-18 -57v-22q0 -9 4 -16t4 -12q0 -23 -35 -23q-36 0 -36 23q0 5 4 12t4 16v22q0 34 -18 57
t-52 23q-29 0 -49 -31.5t-20 -83.5q1 -93 8 -229q2 -26 4 -76h2q19 21 47 33t61 12q70 0 113 -38.5t43 -111.5q0 -68 -69 -161t-155 -184q-16 -16 -20 -22q-23 -31 -64 -31q-11 0 -19 8.5t-8 23.5q0 5 1 8h-1l15 118q6 48 6 49q0 89 -5 189v1q-2 57 -8 150q-11 171 -11 261
q0 75 35 122.5t94 47.5q31 0 57 -18t40 -47h2q14 29 39.5 47t56.5 18q37 0 66.5 -20zM116 -41q0 -14 -12 -126q73 58 139 143t66 164q0 40 -24 65t-69 25q-34 0 -57 -15.5t-34.5 -38t-11.5 -45.5q3 -82 3 -172z" />
    <glyph glyph-name="uni10ED" unicode="&#x10ed;" horiz-adv-x="490" 
d="M516 -224q0 -70 -32.5 -118.5t-88.5 -73t-127 -24.5q-117 0 -190.5 49.5t-73.5 151.5q0 73 32 118.5t83 45.5q17 0 27 -8.5t10 -24.5t-7.5 -26t-21.5 -10q-58 0 -58 -105q0 -72 59 -104t140 -32q77 0 130 40t53 121q0 62 -17.5 97t-45.5 53t-85 43q-17 7 -22 25t-5 49v10
q-22 -14 -47.5 -21.5t-43.5 -7.5q-60 0 -98.5 31t-38.5 87t38.5 87t98.5 31q49 0 91 -25v175q0 35 -22 63.5t-59 46.5l-67 33q-41 20 -57.5 42t-16.5 66q0 21 15 40t33 19q5 0 6.5 -5t2.5 -19q2 -27 10.5 -48t35.5 -36l62 -35q61 -34 89 -69t28 -88v-261q53 57 69 106t16 99
q0 15 -5 42q-3 12 -3 22q0 14 6 14q22 0 44.5 -25t22.5 -50q0 -89 -42 -153.5t-108 -121.5v-49q0 -16 5 -22t22 -14q153 -67 153 -231zM238.5 88q24.5 9 37.5 23v31q0 33 -26 48t-58 15q-38 0 -61 -16t-23 -47q0 -32 22.5 -47.5t61.5 -15.5q22 0 46.5 9z" />
    <glyph glyph-name="uni10EE" unicode="&#x10ee;" horiz-adv-x="414" 
d="M365 243q0 -12 6 -36q7 -33 7 -51q0 -45 -23 -83t-60 -60.5t-78 -22.5q-43 0 -80.5 22.5t-59.5 60.5t-22 83q0 55 5 107.5t14 126.5q14 105 18 174l1 21q0 7 -1.5 10.5t-5.5 3.5t-20 -8q-20 -9 -26 -9q-8 0 -17 12t-9 24q0 15 15.5 39.5t36 43.5t33.5 19q29 0 43.5 -24.5
t14.5 -59.5q0 -33 -5 -90.5t-11 -116.5q-9 -73 -15 -149q36 39 91 39q33 0 57.5 -11t39.5 -25q6 12 20 21t24 9q11 0 14.5 -1t3.5 -7q0 -8 -7 -32q-4 -16 -4 -30zM285.5 79q28.5 34 28.5 83q0 42 -29 72t-68 30q-40 0 -68.5 -32t-28.5 -80q0 -42 29 -74.5t68 -32.5
q40 0 68.5 34z" />
    <glyph glyph-name="uni10EF" unicode="&#x10ef;" horiz-adv-x="708" 
d="M18 -307.5q8 11.5 24 11.5q17 0 27 -9t10 -21q0 -22 17 -40.5t59 -18.5q45 0 67 20t23 61q-1 29 -19.5 49t-52.5 42q-3 2 -15.5 10.5t-20.5 16.5t-13 15q-4 7 -4 16q0 15 8.5 30t21.5 21l181 91l-56 164q-16 49 -35.5 69t-42.5 20q-35 0 -58.5 -22.5t-23.5 -56.5
q0 -23 10 -40t28 -17q6 0 11.5 1.5t8.5 1.5q14 0 22.5 -13t8.5 -26q0 -16 -14 -23.5t-35 -7.5q-45 0 -74.5 36t-29.5 85q0 40 20 71.5t54.5 49t75.5 17.5q44 0 78 -27t54 -87l56 -166l62 31l-32 88q-4 13 -4 32q0 52 38 87.5t96 35.5q53 0 88 -33t35 -90q0 -42 -17 -66
t-50 -42l-79 -43q16 -6 37 -9q32 -8 52 -15t34 -23t14 -42q-1 -27 -16 -43t-44 -34q-24 -14 -35.5 -26t-11.5 -29q0 -13 7 -18.5t22 -11.5q21 -6 31 -16q13 -12 15.5 -20.5t2.5 -32.5q0 -41 -29 -70t-70 -29q-35 0 -60 21t-37 55l-87 254l-154 -80q7 -7 29 -23
q38 -27 60 -55t24 -76q-2 -65 -44.5 -99t-110.5 -34q-42 0 -75 16t-51.5 40.5t-18.5 50.5q0 14 8 25.5zM478 155q1 -6 2 -9l25 -71l66 33q36 19 36 59q0 28 -19 48t-46 20t-46 -20t-19 -48q0 -6 1 -12zM498 -310q11 -33 40 -33q18 0 28 10t10 23q0 12 -4 19.5t-18 16.5
q-6 4 -22 12.5t-25 24t-9 40.5q0 26 22 46.5t54 39.5q18 11 24.5 17t6.5 15q0 28 -19 37t-57 13q-5 1 -18 2.5t-22 4.5q-13 6 -17 12l-64 -33z" />
    <glyph glyph-name="uni10F0" unicode="&#x10f0;" horiz-adv-x="284" 
d="M255 -74q19 -22 19 -58q0 -60 -32 -93t-99 -33q-47 0 -85 22.5t-38 58.5q0 12 6.5 22t20.5 10t23 -8t9 -18q0 -16 14 -28.5t50 -12.5q76 0 76 80q0 33 -23 50.5t-53 17.5h-19q-7 0 -13 -3.5t-10 -3.5q-20 0 -20 29q0 31 20 31q4 0 10 -3.5t13 -3.5h19q28 0 47.5 15.5
t19.5 43.5t-19.5 43.5t-47.5 15.5h-19q-7 0 -13 -3.5t-10 -3.5q-20 0 -20 30t20 30q4 0 10 -3.5t13 -3.5h19q28 0 47.5 15.5t19.5 43.5q0 29 -19.5 44.5t-47.5 15.5h-19q-7 0 -13 -3.5t-10 -3.5q-20 0 -20 29q0 31 20 31q4 0 10 -3.5t13 -3.5h19q28 0 47.5 15t19.5 44
q0 28 -19.5 43.5t-47.5 15.5h-19q-7 0 -13 -3.5t-10 -3.5q-20 0 -20 30t20 30q4 0 10 -3.5t13 -3.5h19q28 0 47.5 15.5t19.5 43.5q0 26 -23 46.5t-66 45.5q-16 9 -31 19t-21 18q-4 5 -4 14q0 15 8.5 29t18.5 14q5 0 13 -11.5t14 -16.5q10 -8 29 -20q52 -34 84.5 -65.5
t32.5 -72.5q0 -26 -16 -47.5t-41 -33.5v-2q25 -12 41 -33.5t16 -47.5t-16 -48t-41 -34v-2q25 -12 41 -33t16 -48q0 -26 -16 -47.5t-41 -33.5v-2q25 -12 41 -33.5t16 -47.5t-16 -48t-41 -34v-1q28 -10 47 -32z" />
    <glyph glyph-name="uni10F2" unicode="&#x10f2;" horiz-adv-x="425" 
d="M54 60q77 2 99 41q-49 35 -78 92t-29 117q10 156 171 167q166 -9 172 -167q0 -59 -30.5 -116.5t-80.5 -93.5q24 -40 101 -40l10 -65q-108 19 -172 100q-64 -81 -171 -100zM140.5 208q28.5 -43 76.5 -60q48 17 76.5 60t28.5 102q0 48 -28.5 77t-76.5 29q-47 0 -76 -29
t-29 -77q0 -59 28.5 -102z" />
    <glyph glyph-name="uni10F3" unicode="&#x10f3;" horiz-adv-x="461" 
d="M401 -106.5q-24 -47.5 -67 -74.5t-97 -27q-56 0 -99.5 28.5t-67.5 76t-24 103.5h68q0 -64 34 -106t89 -42q56 0 87.5 41.5t31.5 105.5q0 63 -12.5 98.5t-42.5 51t-85 15.5l-2 60q82 0 112 62.5t30 184.5l-279 -5v59l346 5q0 -132 -19.5 -217.5t-76.5 -118.5
q50 -18 73 -66.5t25 -127.5q0 -59 -24 -106.5z" />
    <glyph glyph-name="uni10F5" unicode="&#x10f5;" horiz-adv-x="482" 
d="M385 278v-64q0 -214 -157 -214q-86 0 -134 43t-48 125q0 81 43.5 119.5t135.5 38.5h99v87h-100q-91 0 -134.5 37t-43.5 121q0 71 50 110t131 39q85 0 121.5 -43t36.5 -131v-82h60v-51h-60v-87h61v-48h-61zM135 489q28 -25 89 -25h99v79q0 66 -19.5 94.5t-77.5 28.5
q-56 0 -87.5 -24t-31.5 -70q0 -58 28 -83zM324 278h-99q-63 0 -90.5 -25.5t-27.5 -85.5q0 -56 30.5 -84.5t88.5 -28.5q55 0 76.5 41.5t21.5 118.5v64z" />
    <glyph glyph-name="uni10F7" unicode="&#x10f7;" horiz-adv-x="545" 
d="M433 178q34 -29 53 -72t19 -91q0 -18 -3 -37q-15 -86 -64 -138.5t-141 -52.5q-29 0 -63 6q-92 16 -136 72t-44 136q0 30 6 60q11 62 44.5 101t69 58t77.5 33l23 9v3v3q2 32 2 62q0 42 -17 64.5t-49 22.5q-27 0 -47 -20.5t-20 -47.5q0 -37 19 -37q11 0 17.5 -7.5
t6.5 -17.5q0 -19 -12 -27t-38 -8q-31 0 -47.5 22.5t-16.5 67.5q0 66 43.5 100.5t102.5 34.5q124 0 124 -124q0 -30 -7 -64q0 -16 -5 -49q-4 -25 -23.5 -39.5t-58.5 -32.5q-35 -16 -56 -29t-39 -35.5t-24 -55.5q-3 -18 -3 -36q0 -60 33 -105t83 -54q29 -6 56 -6
q52 0 86.5 31.5t47.5 110.5q4 28 4 38q0 36 -18.5 62.5t-63.5 51.5q-13 7 -20.5 19.5t-7.5 24.5q0 11 8 21t23 7q42 -6 76 -35z" />
    <glyph glyph-name="uni10F8" unicode="&#x10f8;" horiz-adv-x="499" 
d="M386.5 -22q26.5 -22 41 -58.5t14.5 -78.5q0 -89 -54 -132.5t-150 -43.5q-188 0 -188 200v452q0 35 6 51.5t18 21.5t34 5q65 0 96 -34.5t31 -93.5q0 -34 21.5 -55.5t57.5 -21.5q39 0 60.5 21.5t21.5 61.5q0 27 -8.5 42t-22.5 16q-23 1 -23 35q0 29 41 29q33 0 54.5 -33
t21.5 -82q0 -67 -38.5 -106t-106.5 -39q-46 0 -77.5 20t-46.5 50t-15 60q0 70 -43 70q-8 0 -12.5 -5.5t-4.5 -13.5v-438q0 -80 28 -119t95 -39q62 0 100.5 30.5t38.5 86.5q0 44 -12.5 69t-45.5 25q-14 0 -21.5 10t-7.5 26t10 24.5t27 8.5q33 0 59.5 -22z" />
    <glyph glyph-name="uni10F9" unicode="&#x10f9;" horiz-adv-x="540" 
d="M291 -149.5q17 -22.5 49 -22.5q27 0 47 20.5t20 47.5q0 37 -19 37q-11 0 -17.5 7.5t-6.5 17.5q0 19 12 27t38 8q31 0 47.5 -22.5t16.5 -67.5q0 -66 -43.5 -100.5t-102.5 -34.5q-124 0 -124 124q0 26 5.5 56t6.5 34l4 22l-20 12q-39 23 -70.5 48.5t-57.5 71t-26 107.5
q0 102 53.5 168t164.5 66q125 0 178.5 -63.5t53.5 -165.5q0 -54 -25.5 -101.5t-67.5 -76t-91 -28.5q-13 0 -19.5 8.5t-6.5 18.5q0 14 10 26.5t26 18.5q60 23 81.5 52.5t21.5 83.5q0 69 -21 105.5t-56 49t-86 12.5q-39 0 -72 -23t-53 -62.5t-20 -87.5q0 -49 24.5 -78
t70.5 -60q36 -25 52.5 -42.5t16.5 -43.5q0 -16 -5 -44q-6 -38 -6 -61q0 -42 17 -64.5z" />
    <glyph glyph-name="uni10FA" unicode="&#x10fa;" horiz-adv-x="376" 
d="M336 192.5q-4 -17.5 -14 -39.5l-51 13q15 37 15 68q0 55 -23.5 85.5t-69.5 30.5q-47 0 -70 -38.5t-23 -100.5q0 -52 26.5 -96t71.5 -64q51 -24 76.5 -40.5t65.5 -52.5l-30 -35q-33 34 -59 52t-54 18q-25 0 -39 -9t-27.5 -22.5l-18.5 -18.5l-37 24q15 19 31 30
q21 16 46 22q-106 86 -106 195q0 49 19.5 91t53 67t74.5 25q42 0 75.5 -21.5t52.5 -59t19 -82.5q0 -24 -4 -41.5z" />
    <glyph glyph-name="uni10FC" unicode="&#x10fc;" horiz-adv-x="333" 
d="M111 584q20 9 49 9q45 0 80 -27.5t37 -79.5v-2v-3q-2 -48 -36.5 -77.5t-77.5 -29.5q-44 0 -79.5 29t-37.5 78v1v163q0 66 18.5 102.5t76.5 37.5l86 -6q28 -2 43 5t17 6q7 -3 8.5 -10t1.5 -22q0 -20 -32 -27.5t-120 -10.5q-34 -1 -34 -63v-73zM124 523.5
q-12 -14.5 -13 -39.5q1 -25 14.5 -40t37.5 -15t36 14.5t13 39.5q-1 25 -14 40t-38 15q-24 0 -36 -14.5z" />
    <glyph glyph-name="endash" unicode="&#x2013;" horiz-adv-x="568" 
d="M461 294q18 0 29.5 -9t11.5 -24t-11.5 -24t-29.5 -9l-177 3l-177 -3q-18 0 -29.5 9t-11.5 24t11.5 24t29.5 9l177 -3z" />
    <glyph glyph-name="emdash" unicode="&#x2014;" horiz-adv-x="848" 
d="M741 294q18 0 29.5 -9t11.5 -24t-11.5 -24t-29.5 -9l-317 3l-317 -3q-18 0 -29.5 9t-11.5 24t11.5 24t29.5 9l317 -3z" />
    <glyph glyph-name="quoteleft" unicode="&#x2018;" horiz-adv-x="218" 
d="M144 536q0 -23 -14 -41.5t-35 -18.5t-33 15t-12 35q0 44 16.5 91.5t41.5 79t47 31.5q8 0 14 -5.5t6 -12.5t-18 -39q-19 -31 -19 -62z" />
    <glyph glyph-name="quoteright" unicode="&#x2019;" horiz-adv-x="219" 
d="M79 668q0 23 14 41.5t36 18.5q21 0 32.5 -15t11.5 -35q0 -44 -16.5 -91.5t-41.5 -79t-47 -31.5q-8 0 -14 5.5t-6 12.5q0 8 19 39q18 32 18 62z" />
    <glyph glyph-name="quotesinglbase" unicode="&#x201a;" horiz-adv-x="210" 
d="M65 -34q0 23 -4 40q-4 16 -4 38q0 21 15 39.5t36 18.5q20 0 31.5 -15t11.5 -38q0 -41 -10.5 -84t-26.5 -71.5t-32 -28.5q-20 0 -20 21z" />
    <glyph glyph-name="quotedblleft" unicode="&#x201c;" horiz-adv-x="380" 
d="M144 536q0 -23 -14 -41.5t-35 -18.5t-33 15t-12 35q0 44 16.5 91.5t41.5 79t47 31.5q8 0 14 -5.5t6 -12.5t-18 -39q-19 -31 -19 -62zM306 536q0 -23 -14 -41.5t-35 -18.5t-33 15t-12 35q0 44 16.5 91.5t41.5 79t47 31.5q8 0 14 -5.5t6 -12.5t-18 -39q-19 -31 -19 -62z
" />
    <glyph glyph-name="quotedblright" unicode="&#x201d;" horiz-adv-x="381" 
d="M79 668q0 23 14 41.5t36 18.5q21 0 32.5 -15t11.5 -35q0 -44 -16.5 -91.5t-41.5 -79t-47 -31.5q-8 0 -14 5.5t-6 12.5q0 8 19 39q18 32 18 62zM241 668q0 23 14 41.5t36 18.5q21 0 32.5 -15t11.5 -35q0 -44 -16.5 -91.5t-41.5 -79t-47 -31.5q-8 0 -14 5.5t-6 12.5
q0 8 19 39q18 32 18 62z" />
    <glyph glyph-name="quotedblbase" unicode="&#x201e;" horiz-adv-x="390" 
d="M65 -34q0 23 -4 40q-4 16 -4 38q0 21 15 39.5t36 18.5q20 0 31.5 -15t11.5 -38q0 -41 -10.5 -84t-26.5 -71.5t-32 -28.5q-20 0 -20 21zM245 -34q0 23 -4 40q-4 16 -4 38q0 21 15 39.5t36 18.5q20 0 31.5 -15t11.5 -38q0 -41 -10.5 -84t-26.5 -71.5t-32 -28.5
q-20 0 -20 21z" />
    <glyph glyph-name="dagger" unicode="&#x2020;" horiz-adv-x="526" 
d="M445 503q18 0 29.5 -9t11.5 -24t-11.5 -24t-29.5 -9q-50 0 -155 3v-144q0 -202 3 -298l2 -112q0 -17 -10.5 -31t-25.5 -14t-25.5 14t-10.5 31l1 74q4 119 4 285t-1 195l-131 -3q-31 0 -43.5 8.5t-12.5 24.5q0 15 11.5 24t29.5 9l145 -3l-3 209q0 23 10 37t26 14t26 -14.5
t10 -43.5q0 -49 -4 -202z" />
    <glyph glyph-name="daggerdbl" unicode="&#x2021;" horiz-adv-x="547" 
d="M300 296l1 -70l154 3q18 0 29.5 -9t11.5 -24q0 -16 -12.5 -24.5t-43.5 -8.5l-139 3l5 -284q0 -23 -10 -37t-26 -14t-26 14t-10 37l4 284l-132 -3q-31 0 -43.5 8.5t-12.5 24.5q0 15 11.5 24t29.5 9l148 -3v70q0 115 -1 144l-131 -3q-31 0 -43.5 8.5t-12.5 24.5
q0 15 11.5 24t29.5 9l145 -3l-3 209q0 23 10 37t26 14t26 -14.5t10 -43.5q0 -49 -4 -202l154 3q18 0 29.5 -9t11.5 -24t-11.5 -24t-29.5 -9q-50 0 -155 3z" />
    <glyph glyph-name="bullet" unicode="&#x2022;" horiz-adv-x="289" 
d="M216.5 480q22.5 -30 22.5 -79t-29.5 -87t-70.5 -38t-64.5 32t-23.5 80t29.5 85t71.5 37t64.5 -30z" />
    <glyph glyph-name="ellipsis" unicode="&#x2026;" horiz-adv-x="583" 
d="M138.5 92q11.5 -15 11.5 -39q0 -25 -14.5 -44t-35.5 -19q-20 0 -32 15.5t-12 40.5q0 24 15 42.5t36 18.5q20 0 31.5 -15zM326.5 92q11.5 -15 11.5 -39q0 -25 -14.5 -44t-35.5 -19q-20 0 -32 15.5t-12 40.5q0 24 15 42.5t36 18.5q20 0 31.5 -15zM514.5 92
q11.5 -15 11.5 -39q0 -25 -14.5 -44t-35.5 -19t-32.5 15.5t-11.5 40.5q0 24 15 42.5t36 18.5q20 0 31.5 -15z" />
    <glyph glyph-name="perthousand" unicode="&#x2030;" horiz-adv-x="1154" 
d="M530 602q-200 -572 -208 -592q-10 -25 -36 -25q-13 0 -22 9.5t-9 24.5q0 16 25 76q107 264 178 482q-18 -8 -45 -8q-28 0 -76 14q5 -20 5 -41q0 -48 -18.5 -87.5t-51.5 -62.5t-76 -23q-66 0 -106.5 48t-40.5 124q0 49 19 88.5t52 62.5t72 23q60 0 112 -43q53 -44 101 -44
q47 0 68 18l8 28q18 66 37 79q8 7 26 7q17 0 29.5 -15.5t12.5 -38.5q0 -42 -56 -104zM258 458q23 32 23 83t-22.5 84t-61.5 33t-62 -32t-23 -83t23 -84t62 -33q38 0 61 32zM717.5 283q40.5 -48 40.5 -123q0 -49 -19 -89t-53 -63t-77 -23q-66 0 -106.5 48t-40.5 124
q0 49 19 89t53.5 62.5t77.5 22.5q65 0 105.5 -48zM1067.5 283q40.5 -48 40.5 -123q0 -49 -19 -89t-53 -63t-77 -23q-66 0 -106.5 48t-40.5 124q0 49 19 89t53.5 62.5t77.5 22.5q65 0 105.5 -48zM671 74q23 32 23 83t-22.5 84t-60.5 33q-39 0 -62 -32t-23 -83t22.5 -84
t61.5 -33q38 0 61 32zM1021 74q23 32 23 83t-22.5 84t-60.5 33q-39 0 -62 -32t-23 -83t22.5 -84t61.5 -33q38 0 61 32z" />
    <glyph glyph-name="guilsinglleft" unicode="&#x2039;" horiz-adv-x="298" 
d="M44 351q0 12 8 23q7 9 34 35q31 28 63 61q3 4 14 16t20.5 18t19.5 6q15 0 24 -9t9 -23q0 -13 -8.5 -23t-30.5 -25q-18 -13 -31 -24q-48 -43 -48 -57q0 -13 48 -57q14 -12 31 -23q23 -17 31 -26t8 -22t-9 -23t-20 -10q-21 0 -37 18q-9 7 -21 22q-35 37 -56 56l-26 24
q-23 21 -23 43z" />
    <glyph glyph-name="guilsinglright" unicode="&#x203a;" horiz-adv-x="297" 
d="M254 348q0 -13 -8 -24t-34 -34q-34 -31 -62 -62q-4 -5 -15.5 -17t-20.5 -17.5t-18 -5.5q-15 0 -24.5 9.5t-9.5 23.5q0 13 8.5 22t31.5 26q16 11 30 23q48 44 48 57q0 14 -48 57l-30 24q-22 15 -31 25t-9 23t9 22.5t21 9.5q18 0 37 -17l21 -23q24 -27 55 -55l27 -25
q22 -22 22 -42z" />
    <glyph glyph-name="fraction" unicode="&#x2044;" horiz-adv-x="354" 
d="M273 547q-62 -150 -119 -330l-56 -170q-13 -39 -25 -51q-13 -11 -25 -11q-14 0 -23.5 8.5t-9.5 25.5q0 19 16 58q11 29 50 128q47 117 99 272l20 57l42 124q13 36 22 66q14 41 46 41q11 0 20.5 -8.5t9.5 -24.5q0 -20 -16 -59z" />
    <glyph glyph-name="Euro" unicode="&#x20ac;" horiz-adv-x="643" 
d="M269 439l177 3q18 0 29.5 -9t11.5 -24t-11.5 -24t-29.5 -9l-177 3l-177 -3q-18 0 -29.5 9t-11.5 24t11.5 24t29.5 9l46 -1q19 124 88 199t170 75q46 0 85.5 -14.5t63 -37.5t23.5 -46q0 -12 -7.5 -21t-21.5 -9q-22 0 -53 33q-13 13 -37.5 22.5t-52.5 9.5
q-74 0 -123.5 -57.5t-65.5 -155.5h62zM269 315l177 3q18 0 29.5 -9t11.5 -24t-11.5 -24t-29.5 -9l-177 3q-47 0 -60 -1q18 -95 66 -150t121 -55q30 0 57.5 10t44.5 23q41 33 55 33q13 0 21 -9t8 -21q0 -20 -26 -44t-69 -40t-91 -16q-98 0 -167 73.5t-90 194.5q-14 -1 -43 -1
q-21 0 -33 9t-12 24t11.5 24t29.5 9z" />
    <glyph glyph-name="trademark" unicode="&#x2122;" horiz-adv-x="865" 
d="M211 751l97 4q20 0 31.5 -8.5t11.5 -21.5q0 -30 -43 -30l-67 2q-3 -69 -3 -150l3 -174q0 -38 -30 -38t-30 38l3 174q0 115 -3 151l-73 -3q-41 0 -41 30q0 29 41 29zM410 628l-1 89q0 16 9 27t24 11q34 0 52 -37q19 -38 102 -226q21 40 51 115q27 66 47 110q18 38 45 38
q15 0 24.5 -11t9.5 -27l-1 -89v-83l2 -173q0 -37 -29 -37q-31 0 -31 38l3 172q0 85 -1 104l-99 -230q-8 -17 -22 -17q-15 0 -24 19q0 3 -37 83q-2 5 -5 11l-6 12q-25 56 -57 122q-1 -19 -1 -104l3 -172q0 -38 -31 -38q-29 0 -29 38l2 172v83z" />
    <glyph glyph-name="arrowleft" unicode="&#x2190;" horiz-adv-x="814" 
d="M405 379l329 5q22 0 36.5 -10.5t14.5 -27.5t-14.5 -27.5t-36.5 -10.5l-329 5h-283l81 -68q34 -29 49 -41q66 -55 78 -67q15 -15 15 -30t-10 -25t-26 -10q-17 0 -36 16q-50 45 -95 90q-55 55 -92 88q-5 5 -10.5 9.5t-9.5 8.5q-31 28 -38.5 37.5t-7.5 24.5q0 16 8.5 27
t41.5 40l16 14q47 42 92 87t95 90q19 16 36 16q16 0 26 -10t10 -25q0 -13 -10.5 -24.5t-34.5 -32.5q-33 -28 -47 -39l-50 -42l-81 -68h283z" />
    <glyph glyph-name="arrowup" unicode="&#x2191;" horiz-adv-x="574" 
d="M325 34q0 -16 -11 -30t-27 -14t-27 14t-11 30l1 61q4 95 4 275v283l-68 -81l-42 -50q-53 -64 -66 -77q-15 -15 -30 -15t-25 10.5t-10 26.5t16 35q45 50 90 95q55 55 88 92q5 5 9.5 10.5t8.5 9.5q28 31 37.5 38.5t24.5 7.5q16 0 27 -8.5t40 -41.5l14 -16q42 -47 87 -92
t90 -95q16 -19 16 -35t-10 -26.5t-25 -10.5q-13 0 -24.5 10.5t-32.5 34.5l-39 48l-42 49l-68 81v-283q0 -167 3 -244z" />
    <glyph glyph-name="arrowright" unicode="&#x2192;" horiz-adv-x="814" 
d="M409 379h283l-81 68q-34 29 -49 41q-66 55 -78 67q-15 15 -15 30t10.5 25t26.5 10t35 -16q50 -45 95 -90t92 -87l16 -14q33 -29 41.5 -40t8.5 -27q0 -15 -7.5 -24.5t-38.5 -37.5q-4 -4 -9.5 -8.5t-10.5 -9.5q-37 -33 -92 -88q-45 -45 -95 -90q-19 -16 -35 -16t-26.5 10
t-10.5 25q0 13 10.5 24.5t34.5 32.5l48 40q15 12 49 41l81 68h-283l-329 -5q-22 0 -36.5 10.5t-14.5 27.5t14.5 27.5t36.5 10.5z" />
    <glyph glyph-name="arrowdown" unicode="&#x2193;" horiz-adv-x="574" 
d="M287 -10q-15 0 -24.5 7.5t-37.5 38.5q-4 4 -8.5 9.5t-9.5 10.5q-33 37 -88 92q-45 45 -90 95q-16 19 -16 36q0 16 10 26t25 10q13 0 24.5 -10.5t32.5 -34.5l40 -47l41 -50l68 -81v283q0 143 -2 245l-3 91q0 16 11 30t27 14t27 -14t11 -30l-1 -61q-4 -95 -4 -275v-283
l68 81l42 49q51 63 66 78t30 15t25 -10t10 -26q0 -17 -16 -36q-45 -50 -90 -95t-87 -92l-42 -46q-20 -20 -39 -20z" />
    <glyph glyph-name="minus" unicode="&#x2212;" horiz-adv-x="632" 
d="M513 294q18 0 29.5 -9t11.5 -24t-11.5 -24t-29.5 -9l-197 3l-197 -3q-18 0 -29.5 9t-11.5 24t11.5 24t29.5 9l197 -3z" />
    <glyph glyph-name="approxequal" unicode="&#x2248;" horiz-adv-x="594" 
d="M496 322.5q-17 -20.5 -43 -34.5t-50 -14q-39 0 -92 29q-55 29 -83 29q-29 0 -61 -30q-31 -31 -50 -31q-18 0 -28.5 9t-10.5 24q0 21 20 42t52 34.5t65 13.5q49 0 105 -29q55 -29 78 -29q21 0 37 10.5t32 27.5q12 12 23 12q23 0 23 -26q0 -17 -17 -37.5zM499 168.5
q-17 -20.5 -43 -34.5t-50 -14q-39 0 -92 29q-55 29 -83 29q-29 0 -61 -30q-31 -31 -50 -31q-18 0 -28.5 9t-10.5 24q0 21 20 42t52 34.5t65 13.5q49 0 105 -29q55 -29 78 -29q21 0 37 10.5t32 27.5q12 12 23 12q23 0 23 -26q0 -17 -17 -37.5z" />
    <glyph glyph-name="notequal" unicode="&#x2260;" horiz-adv-x="558" 
d="M288 219l168 3q18 0 29.5 -9t11.5 -24t-11.5 -24t-29.5 -9l-208 3l-59 -93q-14 -23 -31 -23t-26 9.5t-9 23.5t10 28l41 53l-72 -1q-18 0 -29.5 9t-11.5 24q0 16 12 24.5t36 8.5l106 -3l56 84l-169 -3q-18 0 -29.5 9t-11.5 24t11.5 24t29.5 9l208 -3l57 89q17 21 31 21
q15 0 25 -9t10 -23q0 -11 -3.5 -18t-10.5 -16t-11 -15q-8 -10 -21 -28l74 2q14 0 25 -9.5t11 -23.5t-11 -23.5t-26 -9.5l-114 2z" />
    <glyph glyph-name="lessequal" unicode="&#x2264;" horiz-adv-x="563" 
d="M484.5 191q7.5 -8 7.5 -20t-8.5 -20.5t-19.5 -8.5q-21 0 -56 17q-18 7 -37 18l-107 52q-16 7 -54 26l-45 21q-48 21 -66 34q-28 18 -33 30q-4 7 -4 16q0 8 4 15t14 15q17 14 52 33l38 19q24 11 49 24l56 28l51 26l40 21q66 34 76 35q14 2 22 2q11 0 20 -10t9 -21
t-2 -16.5t-8 -11.5q-12 -11 -37 -22q-10 -5 -30 -13q-28 -12 -36 -16q-32 -14 -42 -19l-18 -9q-5 -2 -12 -5.5t-16 -7.5q-59 -27 -81 -39q-43 -22 -43 -30t13 -15l22 -12l22 -11l22 -11q14 -7 24 -11l34 -16l58 -25q61 -26 95 -44q19 -10 26.5 -18zM455 63q18 0 29.5 -9
t11.5 -24t-11.5 -24t-29.5 -9l-177 3l-177 -3q-18 0 -29.5 9t-11.5 24t11.5 24t29.5 9l177 -3z" />
    <glyph glyph-name="greaterequal" unicode="&#x2265;" horiz-adv-x="563" 
d="M501 356q0 -18 -17 -32q-20 -17 -49 -31l-36 -17l-46 -21q-38 -19 -54 -26l-106 -52q-67 -35 -90 -35q-15 0 -23.5 8.5t-8.5 20.5t7.5 20t26.5 18q35 18 96 44l57 25l34 16q10 4 24 11q3 2 9 4.5t14 6.5l22 11l17 10q17 9 17 17q0 14 -123 69q-16 7 -25.5 11.5t-15.5 7.5
q-28 14 -63 29q-6 2 -11 4.5t-10 4.5q-31 12 -52 25q-11 7 -18 14.5t-7 20.5q0 14 9.5 24t20.5 10q15 0 29 -5q21 -8 39 -17l28 -15l41 -21l51 -26l56 -28q25 -13 49 -24q49 -23 70 -37q27 -17 34 -30q4 -7 4 -15zM462 63q18 0 29.5 -9t11.5 -24t-11.5 -24t-29.5 -9l-177 3
l-177 -3q-18 0 -29.5 9t-11.5 24t11.5 24t29.5 9l177 -3z" />
    <glyph glyph-name="uniE062" unicode="&#xe062;" horiz-adv-x="1013" 
d="M267 750l291 6q23 0 37 -10t14 -27l-2 -128q-3 -112 -3 -209q70 127 180 127q78 0 123 -55.5t45 -139.5l-5 -157v-24t1.5 -28t5.5 -20q5 -14 12 -18.5t18 -5.5q9 -1 12 -3t3 -8q0 -26 -16.5 -43.5t-38.5 -17.5q-38 0 -52.5 28t-14.5 90l4 184q0 68 -30 110t-80 42
q-33 0 -67 -26.5t-60.5 -69.5t-38.5 -90l3 -217q0 -51 -38 -51q-46 0 -46 71q0 66 20 197q0 69 -5 252l-6 169l-225 5q-5 -250 -5 -311l5 -331q0 -23 -11 -37t-30 -14t-30 14t-11 37l5 331q0 62 -5 312l-151 -5q-48 0 -48 38t48 38z" />
    <glyph glyph-name="f_b" unicode="&#xe092;" horiz-adv-x="889" 
d="M108 501v84q0 89 57 132t150 43q85 0 145 -29q28 -16 28 -58l-1 -43q-4 -129 -4 -236q28 53 74 84.5t103 31.5q59 0 102 -40q80 -74 80 -209q0 -72 -29 -134.5t-80.5 -99.5t-115.5 -37q-74 0 -130 51q0 -51 -38 -51q-46 0 -46 71q0 67 20 196q0 69 -5 252l-6 169
q-49 15 -95 15q-142 0 -142 -117v-76l97 2q16 0 27 -8.5t11 -23.5q0 -30 -38 -30l-97 2v-67q0 -137 3 -232l3 -109q0 -17 -11 -30.5t-28 -13.5t-28 13.5t-11 30.5l1 62q5 157 5 279v66l-51 -1q-38 0 -38 30q0 15 11 23.5t27 8.5zM691.5 82q36.5 27 58 73.5t21.5 100.5
q0 85 -31 137t-86 52t-101.5 -49t-71.5 -129l5 -154q59 -58 126 -58q43 0 79.5 27z" />
    <glyph glyph-name="f_f_b" unicode="&#xe093;" horiz-adv-x="1198" 
d="M419 440l-89 1l-156 -3v-63q0 -137 3 -232l3 -102q0 -51 -38 -51q-39 0 -39 51l1 55q4 97 4 279v61h-40q-48 0 -48 33q0 35 48 35q28 0 39 -1v82q0 88 34.5 131.5t86.5 43.5q46 0 78.5 -18t32.5 -40q0 -33 -28 -33q-12 0 -35 12q-22 12 -40 12q-62 0 -62 -117v-75
q24 0 35 -1l119 -1q70 0 89 1v89q0 87 57 129t150 42q85 0 145 -29q28 -16 28 -58l-1 -43q-4 -76 -4 -236q28 53 74 84.5t103 31.5q58 0 101 -40q81 -73 81 -209q0 -72 -29 -134.5t-80.5 -99.5t-115.5 -37q-74 0 -130 51q0 -51 -38 -51q-46 0 -46 71q0 67 20 196
q0 69 -5 252l-6 169q-49 15 -95 15q-142 0 -142 -117v-76l85 5q24 0 37.5 -9.5t13.5 -26.5q0 -34 -51 -34q-27 0 -84 3v-63q0 -137 3 -232l3 -102q0 -51 -38 -51q-18 0 -28.5 14t-10.5 37l5 334v65zM1000.5 82q36.5 27 58 73.5t21.5 100.5q0 85 -31 137t-86 52t-101.5 -49
t-71.5 -129l5 -154q59 -58 126 -58q43 0 79.5 27z" />
    <glyph glyph-name="f_f_h" unicode="&#xe094;" horiz-adv-x="1224" 
d="M419 440l-89 1l-156 -3v-63q0 -137 3 -232l3 -102q0 -51 -38 -51q-39 0 -39 51l1 55q4 97 4 279v61h-40q-48 0 -48 33q0 35 48 35q28 0 39 -1v82q0 88 34.5 131.5t86.5 43.5q46 0 78.5 -18t32.5 -40q0 -33 -28 -33q-12 0 -35 12q-22 12 -40 12q-62 0 -62 -117v-75
q24 0 35 -1l119 -1q70 0 89 1v89q0 87 57 129t150 42q85 0 145 -29q28 -16 28 -58l-1 -47q-4 -81 -4 -244q73 127 180 127q78 0 123 -55.5t45 -139.5l-5 -157v-24t1.5 -28t5.5 -20q5 -14 12 -18.5t18 -5.5q9 -1 12 -3t3 -8q0 -26 -16.5 -43.5t-38.5 -17.5q-37 0 -52 29
t-15 89l4 184q0 69 -29 110.5t-80 41.5q-33 0 -67 -26t-60.5 -69t-39.5 -91l3 -217q0 -51 -38 -51q-46 0 -46 71q0 66 20 197q0 69 -5 252l-6 169q-49 15 -95 15q-142 0 -142 -117v-76l85 5q24 0 37.5 -9.5t13.5 -26.5q0 -34 -51 -34q-27 0 -84 3v-63q0 -137 3 -232l3 -102
q0 -51 -38 -51q-18 0 -28.5 14t-10.5 37l5 334v65z" />
    <glyph glyph-name="f_f_j" unicode="&#xe095;" horiz-adv-x="864" 
d="M506 500l245 6q39 0 39 -49l-5 -230l-1 -220q0 -54 -20 -100t-49.5 -72.5t-54.5 -26.5q-27 0 -27 19q0 14 43 56q18 17 31 53t13 81l-1 210l-5 213q-59 4 -119 4q-33 0 -111 -2v-67q0 -137 3 -232l3 -109q0 -17 -11 -30.5t-28 -13.5q-37 0 -37 51l5 334v65l-89 1l-156 -3
v-63q0 -137 3 -232l3 -102q0 -51 -38 -51q-39 0 -39 51l1 55q4 97 4 279v61h-40q-48 0 -48 33q0 35 48 35q28 0 39 -1v82q0 88 34.5 131.5t86.5 43.5q46 0 78.5 -18t32.5 -40q0 -33 -28 -33q-12 0 -35 12q-22 12 -40 12q-62 0 -62 -117v-75q24 0 35 -1l120 -1q70 0 89 1v85
q0 88 34.5 131.5t86.5 43.5q46 0 78.5 -18t32.5 -40q0 -33 -28 -33q-13 0 -35 12q-23 12 -40 12q-62 0 -62 -117v-76h21zM717.5 632.5q-11.5 13.5 -11.5 37.5t14.5 41t35.5 17q20 0 30.5 -13t10.5 -35q0 -23 -13 -42t-34 -19t-32.5 13.5z" />
    <glyph glyph-name="f_f_k" unicode="&#xe096;" horiz-adv-x="1158" 
d="M419 440l-89 1l-156 -3v-63q0 -137 3 -232l3 -102q0 -51 -38 -51q-39 0 -39 51l1 55q4 97 4 279v61h-40q-48 0 -48 33q0 35 48 35q28 0 39 -1v82q0 88 34.5 131.5t86.5 43.5q46 0 78.5 -18t32.5 -40q0 -33 -28 -33q-12 0 -35 12q-22 12 -40 12q-62 0 -62 -117v-75
q24 0 35 -1l119 -1q70 0 89 1v89q0 87 57 129t150 42q86 0 146 -29q28 -16 28 -58l-1 -47q-3 -118 -3 -243q73 127 180 127q57 0 92.5 -33.5t35.5 -83.5q0 -82 -85 -140l-49 -32l74 -114q17 -26 37 -36.5t35 -10.5q10 0 10 -9q0 -24 -15 -42.5t-36 -18.5t-32 6.5t-25 25.5
q-15 19 -26 38q-69 111 -89 139q-26 0 -43 14t-17 35q0 20 13.5 33t35.5 13q23 0 45 -25q38 17 67.5 52t29.5 63t-16 44t-46 16q-36 0 -72 -26t-63 -68.5t-40 -91.5l3 -217q0 -51 -38 -51q-46 0 -46 71q0 66 20 197q0 87 -6 252l-6 168q-50 15 -96 15q-142 0 -142 -117v-76
l85 5q24 0 37.5 -9.5t13.5 -26.5q0 -34 -51 -34q-27 0 -84 3v-63q0 -137 3 -232l3 -102q0 -51 -38 -51q-18 0 -28.5 14t-10.5 37l5 334v65z" />
    <glyph glyph-name="uniE098" unicode="&#xe098;" horiz-adv-x="915" 
d="M487 40q0 -51 -38 -51q-46 0 -46 71q0 66 20 197q0 69 -5 252l-6 169q-49 15 -95 15q-142 0 -142 -117v-76l97 2q16 0 27 -8.5t11 -23.5q0 -30 -38 -30l-97 2v-67q0 -137 3 -232l3 -109q0 -17 -11 -30.5t-28 -13.5t-28 13.5t-11 30.5l1 62q5 157 5 279v66l-51 -1
q-38 0 -38 30q0 15 11 23.5t27 8.5l50 -1v84q0 89 57 132t150 43q85 0 145 -29q28 -16 28 -58l-1 -47q-4 -140 -4 -244q73 127 180 127q78 0 123 -55.5t45 -139.5l-5 -157v-24t1.5 -28t5.5 -20q5 -14 12 -18.5t18 -5.5q9 -1 12 -3t3 -8q0 -26 -16.5 -43.5t-38.5 -17.5
q-37 0 -52 29t-15 89l4 184q0 69 -29 110.5t-80 41.5q-33 0 -67 -26t-60.5 -69t-39.5 -91z" />
    <glyph glyph-name="f_j" unicode="&#xe09a;" horiz-adv-x="555" 
d="M410 227l-5 213q-59 4 -119 4q-33 0 -111 -2v-67q0 -137 3 -232l3 -109q0 -17 -11 -30.5t-28 -13.5t-28 13.5t-11 30.5l1 62q5 157 5 279v67l-51 -2q-38 0 -38 30q0 15 11 23.5t27 8.5l50 -2v85q0 88 34.5 131.5t86.5 43.5q46 0 78.5 -18t32.5 -40q0 -33 -28 -33
q-12 0 -35 12q-22 12 -40 12q-62 0 -62 -117v-76h22l245 6q39 0 39 -49l-5 -230l-1 -220q0 -54 -20 -100t-49.5 -72.5t-54.5 -26.5q-27 0 -27 19q0 14 44 56q17 17 30 53.5t13 80.5zM408.5 632.5q-11.5 13.5 -11.5 37.5t14.5 41t35.5 17q20 0 30.5 -13t10.5 -35
q0 -23 -13 -42t-34 -19t-32.5 13.5z" />
    <glyph glyph-name="f_k" unicode="&#xe09b;" horiz-adv-x="848" 
d="M488 41q0 -51 -38 -51q-46 0 -46 71q0 66 20 197q0 87 -6 252l-6 168q-49 15 -95 15q-142 0 -142 -117v-76l97 2q16 0 27 -8.5t11 -23.5q0 -30 -38 -30l-97 2v-67q0 -137 3 -232l3 -109q0 -17 -11 -30.5t-28 -13.5t-28 13.5t-11 30.5l1 62q5 157 5 279v66l-51 -1
q-38 0 -38 30q0 15 11 23.5t27 8.5l50 -1v84q0 89 57 132t150 43q85 0 145 -29q28 -16 28 -58l-1 -47q-3 -118 -3 -243q73 127 180 127q57 0 92.5 -33.5t35.5 -83.5q0 -82 -85 -140l-49 -32l74 -114q17 -26 37 -36.5t35 -10.5q10 0 10 -9q0 -24 -15 -42.5t-36 -18.5t-32 6.5
t-25 25.5q-15 19 -26 38q-69 111 -89 139q-26 0 -43 14t-17 35q0 20 13.5 33t35.5 13q23 0 45 -25q38 17 67.5 52t29.5 63t-16 44t-46 16q-36 0 -72 -26t-63 -68.5t-40 -91.5z" />
    <glyph glyph-name="uniF6C3" unicode="&#xf6c3;" horiz-adv-x="0" 
d="M-121 -70q11 15 29 15q17 0 27.5 -12.5t10.5 -31.5q0 -27 -18 -59t-43 -54.5t-41 -22.5q-10 0 -16.5 6t-6.5 14q0 7 4.5 15.5t11.5 20.5q10 16 14.5 26.5t10.5 37.5q6 30 17 45z" />
    <glyph glyph-name="f_i" unicode="&#xfb01;" horiz-adv-x="555" 
d="M108 500v85q0 88 34.5 131.5t86.5 43.5q46 0 78.5 -18t32.5 -40q0 -33 -28 -33q-12 0 -35 12q-22 12 -40 12q-62 0 -62 -117v-76h22l245 6q39 0 39 -48l-5 -208l6 -209q0 -23 -11 -37t-29 -14t-28 14t-10 37l6 209l-5 190q-59 4 -119 4q-33 0 -111 -2v-67q0 -137 3 -232
l3 -109q0 -17 -11 -30.5t-28 -13.5t-28 13.5t-11 30.5l1 62q5 157 5 279v67l-51 -2q-38 0 -38 30q0 15 11 23.5t27 8.5zM408.5 632.5q-11.5 13.5 -11.5 37.5t14.5 41t35.5 17q20 0 30.5 -13t10.5 -35q0 -23 -13 -42t-34 -19t-32.5 13.5z" />
    <glyph glyph-name="f_l" unicode="&#xfb02;" horiz-adv-x="562" 
d="M483 375q0 -137 3 -232l3 -102q0 -51 -39 -51t-39 51l1 55q5 157 5 279l-5 303q-49 15 -95 15q-142 0 -142 -117v-76l97 2q16 0 27 -8.5t11 -23.5q0 -30 -38 -30l-97 2v-67q0 -137 3 -232l3 -109q0 -17 -11 -30.5t-28 -13.5t-28 13.5t-11 30.5l1 62q5 157 5 279v66
l-51 -1q-38 0 -38 30q0 15 11 23.5t27 8.5l50 -1v84q0 89 57 132t150 43q85 0 145 -29q28 -16 28 -58z" />
    <glyph glyph-name="f.alt" horiz-adv-x="327" 
d="M108 500v85q0 88 34.5 131.5t86.5 43.5q46 0 78.5 -18t32.5 -40q0 -33 -28 -33q-13 0 -34 12t-41 12q-62 0 -62 -117v-76l97 2q16 0 27 -8.5t11 -23.5q0 -30 -38 -30l-97 2l3 -359q0 -62 -16.5 -109t-42.5 -72t-52 -25q-39 0 -39 19q0 8 6 14.5t22 19.5q15 15 22 26
q22 30 28.5 78t6.5 136v67q0 116 -4 205l-51 -2q-38 0 -38 30q0 15 11 23.5t27 8.5z" />
    <glyph glyph-name="A.alt" horiz-adv-x="817" 
d="M776 3.5q-16 -18.5 -40 -18.5q-44 0 -67 65q-45 134 -72 222q-68 13 -138 13q-69 0 -115 -10q-47 -118 -76.5 -177t-60.5 -86t-75 -27q-46 0 -73 31t-27 77t32 94.5t89.5 86.5t130.5 54q44 122 79 229q42 131 47 143q21 60 58 60q23 0 37 -13t24 -39q11 -27 29 -83
l49 -151l49 -149q44 -14 68 -32q25 -19 25 -32q0 -23 -25 -23q-9 0 -48 14q42 -137 56 -157q13 -20 23.5 -27t24.5 -7q12 0 12 -9q0 -30 -16 -48.5zM470 646q-13 0 -85 -228l-24 -76q40 6 98 6q61 0 118 -10q-95 308 -107 308zM182 216q-39 -28 -62 -60.5t-23 -60.5
q0 -21 10.5 -32.5t27.5 -11.5q55 0 131 208q-45 -15 -84 -43z" />
    <glyph glyph-name="B.alt" horiz-adv-x="742" 
d="M183 671q0 94 182 94q83 0 143.5 -23.5t93 -65t32.5 -93.5q0 -78 -78 -146q133 -73 133 -194q0 -79 -49 -139.5t-131 -89.5q-81 -29 -163 -29q-80 0 -150.5 21t-112.5 52q-39 29 -39 49q0 19 10.5 29t24.5 10q13 0 44 -22q38 -28 92.5 -48.5t118.5 -20.5q78 0 140.5 24
t98.5 66.5t36 95.5q0 47 -28 87t-76 64q-103 -76 -241 -94l4 -128q0 -23 -10.5 -37t-28.5 -14q-19 0 -30.5 14t-11.5 37l5 125q-66 3 -102.5 31.5t-36.5 67.5q0 37 36.5 65t102.5 38q-9 153 -9 174zM264 534v-31q121 0 229 -38q67 51 67 113q0 59 -48 88t-127 29
q-74 0 -123 -23q0 -30 2 -138zM262 366q41 1 96 17t85 36q-56 18 -153 18q-18 0 -28 -2v-69zM193 430q-71 -8 -71 -33q0 -33 71 -35v68z" />
    <glyph glyph-name="C.alt" horiz-adv-x="696" 
d="M513 737q58 -28 90.5 -75.5t32.5 -103.5q0 -43 -18.5 -77t-50.5 -53.5t-69 -19.5q-36 0 -66.5 17t-48 44t-17.5 57q0 44 19 72.5t46 28.5q15 0 25 -8.5t10 -21.5q0 -12 -14 -31q-14 -20 -14 -41q0 -22 17 -36.5t44 -14.5q28 0 46.5 21.5t18.5 57.5t-22 69t-63 53t-96 20
q-70 0 -126 -43t-87.5 -116t-31.5 -158q0 -86 33 -160t91 -118.5t130 -44.5q49 0 91.5 13t64.5 31q53 44 65 44q11 0 19 -7.5t8 -18.5q0 -26 -35.5 -57.5t-93 -53t-120.5 -21.5q-94 0 -170.5 52t-120 141.5t-43.5 197.5t42.5 197t117 140.5t166.5 51.5q72 0 130 -28z" />
    <glyph glyph-name="D.alt" horiz-adv-x="823" 
d="M719.5 183q-47.5 -86 -140.5 -141q-96 -57 -225 -57q-85 0 -154.5 34.5t-109.5 94t-40 132.5q0 53 24 97.5t64.5 74t89.5 38.5q0 85 -4 202q-48 0 -48 34q0 35 66 51q68 17 149 17q83 0 158 -33t121 -89q97 -115 97 -265q0 -104 -47.5 -190zM229 338v48
q-46 -13 -73.5 -51.5t-27.5 -88.5q0 -52 29 -95.5t81.5 -69.5t118.5 -26q91 0 166 41.5t118.5 113.5t43.5 158q0 120 -74 218q-37 48 -97 76t-133 28q-34 0 -75 -9l-5 -220q43 -2 84 -21t66 -46t25 -53q0 -15 -9 -24.5t-23 -9.5q-12 0 -25.5 11.5t-30.5 32.5
q-15 18 -39 30.5t-49 12.5l1 -72l3 -59l2 -52q0 -17 -11.5 -30.5t-28.5 -13.5q-18 0 -29.5 13.5t-11.5 34.5z" />
    <glyph glyph-name="E.alt" horiz-adv-x="631" 
d="M146 675.5q31 42.5 81.5 66t107.5 23.5q55 0 104 -14.5t79 -37.5t30 -49q0 -16 -9.5 -25t-25.5 -9q-17 0 -37 16q-64 49 -127 49q-68 0 -114 -32t-46 -91q0 -63 44 -99q75 35 135 35q57 0 88.5 -24t31.5 -57q0 -34 -34.5 -59.5t-97.5 -25.5q-32 0 -71 14.5t-67 35.5
q-85 -58 -85 -157q0 -46 27 -87t78.5 -67t119.5 -26q47 0 88 13t63 30q4 3 21 16.5t29 20t20 6.5q28 0 28 -26q0 -22 -32 -52q-35 -32 -95.5 -55t-121.5 -23q-91 0 -160.5 34t-107 89.5t-37.5 117.5q0 134 117 211q-55 56 -55 142q0 54 31 96.5zM273 428q35 -26 88 -26
t53 25q0 21 -59 21q-39 0 -71 -15z" />
    <glyph glyph-name="F.alt" horiz-adv-x="642" 
d="M175 343q-66 11 -66 46q0 15 9 24.5t19 9.5q5 0 38 -5l-3 161q-67 8 -107 39.5t-40 78.5q0 34 26.5 61t74.5 27q50 0 80 -37.5t37 -100.5q77 0 143 20t114 50q50 32 63 41q20 16 33 16q11 0 19 -7.5t8 -18.5q0 -40 -58.5 -81t-148.5 -68q-90 -26 -169 -26v-165
q23 -4 77 -4q48 0 109 11q60 11 66 11q10 0 19 -7.5t9 -20.5q0 -17 -33 -32t-79 -23.5t-81 -8.5q-39 0 -87 2l5 -288q0 -58 -41 -58t-41 58zM124 720q-12 0 -21 -8t-9 -18q0 -34 76 -43q-7 69 -46 69z" />
    <glyph glyph-name="G.alt" horiz-adv-x="781" 
d="M461 257q-65 0 -103.5 24.5t-38.5 62.5q0 25 17.5 49t50 39t76.5 15q63 0 114.5 -23t72.5 -53q17 7 49 30q31 23 42 23t18 -8t7 -22q0 -34 -96 -85q0 -91 -37.5 -165.5t-103 -117t-146.5 -42.5q-92 0 -166.5 52t-117 142t-42.5 198t44 197t120.5 140.5t171.5 51.5
q58 0 113 -16t88.5 -42t33.5 -53q0 -16 -9.5 -25t-25.5 -9q-28 0 -72 38q-20 15 -54 26t-74 11q-72 0 -130.5 -43t-91.5 -116t-33 -158q0 -86 32 -160t87.5 -118.5t124.5 -44.5q56 0 104.5 32t78 84t30.5 110q-67 -24 -134 -24zM540.5 367.5q-32.5 11.5 -64.5 11.5
q-33 0 -56 -8.5t-23 -22.5q0 -26 65 -26q66 0 123 19q-12 15 -44.5 26.5z" />
    <glyph glyph-name="H.alt" horiz-adv-x="715" 
d="M614 41q0 -22 -12 -36.5t-29 -14.5t-29 14.5t-12 36.5l6 304v32q-41 -32 -107 -51t-133 -19q-70 0 -114 10l5 -276q0 -22 -12 -36.5t-29 -14.5t-29 14.5t-12 36.5l4 293q-66 23 -66 63q0 17 9 26t22 9q14 0 37 -16l-6 293q0 22 12 36.5t29 14.5t29 -14t12 -30l-1 -61
q-4 -95 -4 -266q43 -15 115 -15q160 0 238 98l-5 221q0 67 44 67q35 0 42 -31q7 -21 7 -96q0 -73 -18 -196z" />
    <glyph glyph-name="I.alt" horiz-adv-x="598" 
d="M486 275q0 -95 -31.5 -160t-86 -97.5t-123.5 -32.5q-65 0 -112 26.5t-71.5 70t-24.5 93.5q0 47 21 84t56.5 58t75.5 21q38 0 67.5 -17.5t45.5 -45t16 -58.5q0 -28 -8.5 -50t-20.5 -34t-24 -12q-17 0 -17 14q0 2 5 24q4 17 4 42t-21 47.5t-52 22.5q-33 0 -54.5 -25.5
t-21.5 -68.5q0 -31 15 -59t44 -45.5t69 -17.5q83 0 130 55.5t47 155.5l1 178q0 139 -2 227q-58 -9 -99 -9q-216 0 -216 63q0 35 38 35l64 -12q59 -13 114 -13q54 0 125 13q72 12 77 12q42 0 42 -33q0 -34 -69 -46q-2 -94 -2 -237z" />
    <glyph glyph-name="J.alt" horiz-adv-x="576" 
d="M429 -95.5q-30 -69.5 -83.5 -104.5t-122.5 -35q-65 0 -114 29t-75 76.5t-26 101.5q0 51 22 93.5t59 67t79 24.5q40 0 71.5 -17.5t48.5 -45.5t17 -58q0 -28 -8.5 -50t-20.5 -34t-24 -12q-17 0 -17 14q0 2 5 24q4 17 4 43q0 25 -22 47.5t-56 22.5q-36 0 -61 -34t-25 -86
q0 -35 17.5 -67t49 -51.5t71.5 -19.5q81 0 126 64.5t45 178.5q0 364 -1 456l-2 140q-59 -9 -99 -9q-216 0 -216 63q0 35 38 35l64 -12q59 -13 114 -13q54 0 125 13q72 12 77 12q42 0 42 -33q0 -34 -69 -46l-1 -151q-2 -194 -2 -456q0 -101 -30 -170.5z" />
    <glyph glyph-name="K.alt" horiz-adv-x="706" 
d="M163 709q0 23 11 37t30 14t30 -14t11 -41l-5 -193q98 -17 150 -86q48 54 82.5 131.5t46.5 158.5q8 44 41 44q15 0 24.5 -10t9.5 -27q0 -71 -49.5 -176.5t-114.5 -178.5q100 -205 161 -303q41 -66 89 -69h8q15 0 16 -3t1 -7q0 -30 -17.5 -48.5t-48.5 -18.5
q-23 0 -39.5 13.5t-35.5 36.5q-19 21 -56 84q-22 38 -63 119l-36 72l-40 77q-57 -32 -129 -41l7 -239q0 -23 -11 -37t-30 -14t-30 14t-11 37l3 242q-59 12 -92.5 44.5t-33.5 74.5t34 74t92 39zM170 441q-27 -4 -43 -15.5t-16 -26.5q0 -30 59 -44v86zM239 349q64 6 95 28
q-33 50 -96 60z" />
    <glyph glyph-name="L.alt" horiz-adv-x="621" 
d="M556.5 68.5q-30.5 -39.5 -81.5 -61.5t-109 -22q-88 0 -206 28q-47 -22 -70 -22t-39 16.5t-16 41.5q0 23 14.5 39.5t32.5 16.5t45 -7q20 66 20 284q0 115 -13 223l-13 114q0 19 11 31t28 12q36 0 44 -51q15 -110 15 -326q0 -218 -21 -308q69 -22 168 -22q62 0 104.5 29
t42.5 75q0 23 -14.5 39.5t-35.5 16.5q-20 0 -32 -11t-15 -28q-10 -39 -29 -39q-12 0 -21 16t-9 35q0 37 30.5 65t76.5 28q32 0 60 -15t45.5 -43t17.5 -64q0 -51 -30.5 -90.5z" />
    <glyph glyph-name="M.alt" horiz-adv-x="989" 
d="M863 375q0 -250 38 -299q5 -6 16 -6l18 -2q8 -2 8 -7q0 -30 -17.5 -49t-42.5 -19q-90 0 -90 240v336l-193 -424q-13 -31 -36 -31q-15 0 -24 8.5t-19.5 31t-22.5 52.5q-64 150 -170 367v-233q0 -159 -26 -232q-29 -80 -77 -104q-30 -14 -66 -14q-37 0 -66.5 19.5
t-45.5 51.5t-16 69t17 69.5t46 52.5t64 20q22 0 36.5 -10.5t14.5 -30.5q0 -37 -48 -37q-22 0 -38 -18t-16 -45q0 -29 15 -46.5t42 -17.5q54 0 74 80q18 80 18 248q0 134 -2 232l-3 89q0 18 12 30t33 12q22 0 37 -35q137 -313 227 -493q98 189 180 390q23 56 46 108
q14 30 41 30q41 0 41 -51z" />
    <glyph glyph-name="N.alt" horiz-adv-x="878" 
d="M809 751.5q21 -9.5 33 -24.5t12 -29q0 -32 -23 -32q-5 0 -28 9q-22 9 -40 9q-63 0 -63 -289q0 -68 11 -208t11 -152q0 -19 -13.5 -32.5t-31.5 -13.5q-27 0 -47 35l-35 62l-78 138q-81 141 -128 226q-55 102 -76 134q14 -132 14 -251q0 -341 -168 -341q-37 0 -66.5 19.5
t-45.5 51.5t-16 69t17 69.5t46 52.5t64 20q22 0 36.5 -10.5t14.5 -30.5q0 -37 -48 -37q-22 0 -38 -18t-16 -45q0 -29 15 -46.5t42 -17.5q93 0 93 288q0 79 -16 207t-16 152q0 19 14 32t33 13q28 0 45 -35q40 -80 154.5 -281.5t171.5 -290.5q-4 11 -9 136.5t-5 186.5
q0 60 4.5 102t17.5 87t42.5 70t69.5 25q25 0 46 -9.5z" />
    <glyph glyph-name="O.alt" horiz-adv-x="811" 
d="M343 646.5q-53 -48.5 -78 -123.5q-25 -71 -25 -135t6 -96q5 -35 5 -42q0 -25 -23 -25q-20 0 -37 51t-17 108q0 102 36.5 189.5t102 139.5t148.5 52q84 0 150.5 -50.5t104 -138t37.5 -196.5t-43.5 -199.5t-121 -143t-175.5 -52.5q-100 0 -181.5 50t-129 138.5t-47.5 200.5
q0 64 14 112q14 45 44 45q14 0 23 -9.5t9 -23.5q0 -15 -6 -48q-7 -31 -7 -76q0 -95 38 -167.5t101.5 -112t138.5 -39.5q80 0 142.5 44.5t93.5 118.5q30 71 30 156q0 88 -26.5 161.5t-75 116.5t-112.5 43q-66 0 -119 -48.5z" />
    <glyph glyph-name="P.alt" horiz-adv-x="691" 
d="M271 184l3 -133q0 -31 -11.5 -46t-29.5 -15q-17 0 -29 14.5t-12 36.5l7 209q-75 17 -117.5 63.5t-42.5 103.5q0 56 42.5 98.5t112.5 52.5l-5 119q2 35 32 48q62 25 147 25q80 0 146.5 -32.5t104.5 -87.5t38 -118q0 -97 -49 -162q-91 -123 -293 -123q-36 0 -46 1zM268 305
q6 -1 28 -1q128 0 205.5 55t77.5 159q0 48 -28.5 87.5t-77.5 62.5t-106 23q-61 0 -101 -13q0 -36 2 -110q39 -4 75 -23t58 -45t22 -52q0 -15 -9 -24.5t-23 -9.5q-13 0 -30 20q-22 27 -45 45.5t-49 21.5q1 -26 1 -196zM197 501q-40 -6 -64 -29t-24 -53q0 -31 24 -58.5
t67 -42.5q0 108 -3 183z" />
    <glyph glyph-name="Q.alt" horiz-adv-x="829" 
d="M254 293q15 -45 15 -52q0 -21 -21 -21q-18 0 -36.5 28.5t-30.5 72t-12 84.5q0 99 39 181.5t107.5 130.5t153.5 48t154 -50t108.5 -137t39.5 -194q0 -106 -44 -196.5t-120 -144.5q75 -103 82 -117q5 -13 5 -21q0 -11 -9.5 -22.5t-21.5 -11.5q-13 0 -21 5t-18 19
q-12 16 -18 26l-13 21l-13 20l-31 49q-64 -26 -127 -26q-99 0 -182.5 54t-133 148t-49.5 207q0 127 25 156q12 15 29 15q16 0 27 -10.5t11 -22.5q0 -9 -5 -24q-12 -37 -12 -122q0 -89 39 -164.5t106 -120t145 -44.5q60 0 85 15q-79 112 -79 129q0 16 9 28.5t22 12.5
t20.5 -4.5t16.5 -17.5l16 -26q22 -38 54 -91q60 43 95 120.5t35 167.5q0 85 -29.5 153.5t-81.5 107.5t-116 39t-117 -37t-83 -102.5t-30 -147.5q0 -66 15 -111z" />
    <glyph glyph-name="R.alt" horiz-adv-x="739" 
d="M246 41q0 -23 -11 -37t-30 -14t-30 14t-11 40q0 47 4 214q-62 14 -94 45t-32 72q0 39 36 69t90 35l-8 199q0 43 35 60q60 27 144 27q80 0 143.5 -30t99.5 -82.5t36 -117.5q0 -69 -40.5 -132.5t-108.5 -102.5q113 -204 132 -233q46 -70 89 -73h8q15 0 16 -3t1 -7
q0 -26 -17 -46t-36 -20t-34.5 8t-32.5 27q-17 18 -31 38t-35 55q-19 31 -37 64l-92 161q-62 -22 -127 -22q-26 0 -33 1zM240 475q57 -6 109.5 -39t83.5 -78q49 30 78 77.5t29 97.5q0 74 -56.5 118t-145.5 44q-47 0 -102 -23q0 -57 4 -197zM170 414q-59 -8 -59 -39
q0 -32 59 -52v91zM239 316q30 -2 57 -2q36 0 68 13q-43 64 -125 83v-94z" />
    <glyph glyph-name="S.alt" horiz-adv-x="581" 
d="M506.5 97.5q-32.5 -51.5 -90.5 -82t-130 -30.5q-71 0 -125.5 26.5t-84.5 69.5t-30 90q0 68 37 107.5t95 39.5q54 0 84 -28t30 -65q0 -33 -18 -57t-40 -24t-22 19q0 8 9 21q8 14 8 27q0 15 -14 26t-36 11q-26 0 -43.5 -17t-17.5 -48t20.5 -60.5t58 -48.5t85.5 -19
q50 0 90.5 20.5t63.5 56t23 78.5q0 46 -36 85.5t-96 69.5q-21 11 -25 13q-64 31 -106 57t-72 62q-39 45 -39 108q0 41 28.5 78t76 59.5t100.5 22.5t98.5 -14.5t72.5 -37.5t27 -49q0 -16 -9.5 -25t-24.5 -9q-26 0 -57 33q-32 32 -108 32q-30 0 -58.5 -12.5t-47 -34
t-18.5 -46.5q0 -37 35 -70t97 -66q81 -43 125.5 -72t78.5 -73q38 -50 38 -111t-32.5 -112.5z" />
    <glyph glyph-name="T.alt" horiz-adv-x="629" 
d="M321 88q1 -26 1 -54q0 -17 -11.5 -30.5t-29.5 -13.5t-29.5 13.5t-11.5 30.5q0 27 1 50q3 107 3 293q0 183 11 247q-42 4 -98 18t-96.5 35.5t-40.5 47.5q0 15 9.5 26.5t23.5 11.5q13 0 23.5 -5t28.5 -18q11 -8 58 -23q38 -12 107 -23q24 52 78.5 81t119.5 29
q60 0 96.5 -26.5t36.5 -64.5q0 -36 -41 -68q-41 -31 -145 -31q-58 0 -89 3q-10 -30 -10 -190q0 -135 2 -229zM343 686q19 -4 57 -4q34 0 67 6t47 13q12 8 12 12q0 21 -65 21q-84 0 -118 -48z" />
    <glyph glyph-name="U.alt" horiz-adv-x="793" 
d="M113.5 672q-15.5 -18 -15.5 -43q0 -39 27 -64q9 -7 9 -15q0 -24 -28 -24q-18 0 -36.5 14.5t-30 38.5t-11.5 51q0 41 19.5 74.5t47.5 47.5q26 13 62 13q39 0 69 -20.5t46 -54.5t16 -72q0 -61 -25 -193q-26 -139 -26 -169q0 -93 30 -147t89 -54q57 0 110 67t83 163
q26 86 31 167q-3 71 -3 242q0 66 43 66q52 0 52 -83q0 -20 -26 -256q0 -69 10 -145.5t24.5 -133.5t26.5 -71q5 -6 18 -8q3 0 12 -0.5t13.5 -3t4.5 -7.5q0 -29 -23 -51q-16 -16 -34 -16q-17 0 -27 5t-18 15q-18 24 -26 50l-9 32q-4 11 -7 36q-4 20 -6 35q-3 12 -6 37l-5 32
q-24 -93 -80 -164q-63 -78 -159 -78q-50 0 -90 20.5t-63 56.5q-44 71 -44 156q0 89 28 214q27 128 27 177q0 81 -61 81q-23 0 -38.5 -18z" />
    <glyph glyph-name="V.alt" horiz-adv-x="737" 
d="M213 528q0 163 -74 163q-20 0 -33.5 -12t-13.5 -27q0 -13 9 -21.5t23 -11.5q13 -4 22 -13t9 -22q0 -35 -38 -35t-65.5 30.5t-27.5 73.5q0 45 31 78.5t79 33.5q96 0 128 -67q28 -55 28 -162l-4 -174q0 -139 27 -220q27 -82 74 -82q33 0 60 57q33 72 120 382l15 51l35 125
l6 23q8 35 16.5 48t32.5 13q18 0 28 -12t10 -28q0 -15 -10 -45q-42 -133 -110 -363q-38 -131 -63 -195t-59 -97.5t-87 -33.5q-83 0 -127 98q-44 99 -44 275z" />
    <glyph glyph-name="W.alt" horiz-adv-x="1060" 
d="M212 528q0 163 -74 163q-19 0 -32.5 -12.5t-13.5 -27.5q0 -13 9 -21.5t23 -11.5q13 -4 22 -13t9 -22q0 -35 -38 -35t-65.5 31t-27.5 74q0 45 31 78.5t79 33.5q95 0 127 -67q28 -55 28 -162l-4 -174q0 -142 25 -221q24 -81 66 -81q32 0 62.5 38.5t49.5 100t19 124.5
l-2 223q0 66 43 66q52 0 52 -83q0 -26 -20 -212q1 -62 20.5 -121t49.5 -95.5t61 -36.5q43 0 69 80q25 78 25 221l-4 171q0 76 11.5 125t43 76.5t89.5 27.5q24 0 46 -11t35 -28t13 -33q0 -11 -6 -17.5t-15 -6.5t-29 11q-22 11 -37 11q-74 0 -74 -163l3 -167
q0 -179 -43.5 -275t-129.5 -96q-55 0 -97 49.5t-67 136.5q-24 -89 -66.5 -140t-98.5 -51q-85 0 -127.5 96t-42.5 277z" />
    <glyph glyph-name="X.alt" horiz-adv-x="752" 
d="M225 90q-27 -45 -36 -59.5t-10 -16.5q-16 -24 -39 -24q-40 0 -40 35q0 16 9 31l44 66q75 109 177 269q-51 139 -103 222q-51 80 -91 80q-19 0 -29.5 -12t-10.5 -28q0 -26 32 -34q13 -4 22 -13t9 -22q0 -35 -38 -35t-65.5 30.5t-27.5 73.5q0 45 30.5 78t80.5 33
q68 0 122 -71q54 -73 115 -230q39 62 91 153l10 17q53 93 64 108q13 19 32 19q18 0 28.5 -10.5t10.5 -22.5t-9 -30l-34 -57q-27 -45 -73 -118l-83 -132q119 -335 198 -335q20 0 31 13t11 32q0 17 -13 27t-30 11q-42 3 -42 22q0 17 17 26t38 9q39 0 67.5 -29t28.5 -71
q0 -45 -30.5 -78t-80.5 -33q-54 0 -99.5 51.5t-94.5 167.5q-31 71 -49 118q-82 -132 -140 -231z" />
    <glyph glyph-name="Y.alt" horiz-adv-x="583" 
d="M182.5 347q-41.5 39 -80.5 123q-38 79 -59.5 146.5t-21.5 96.5q0 47 36 47q9 0 23 -12q12 -12 18 -40q6 -31 23 -83t40 -106q25 -60 58.5 -99t64.5 -39q12 0 19 4q44 279 115 349q30 30 66 30q35 0 53.5 -22.5t18.5 -60.5q0 -79 -53.5 -171.5t-129.5 -167.5
q-8 -56 -8 -118q0 -121 8 -217l2 -50q0 -16 -11.5 -29t-29.5 -13q-28 0 -36 41q-8 43 -8 128q0 80 11 226q-12 -2 -26 -2q-51 0 -92.5 39zM441 642.5q-23 -49.5 -43 -113t-22 -95.5q41 49 76.5 122.5t35.5 114.5q0 21 -11 21q-13 0 -36 -49.5z" />
    <glyph glyph-name="Z.alt" horiz-adv-x="623" 
d="M119 154q114 187 177 296t126 236q-70 -17 -128 -17t-90 2.5t-69 8.5q-36 6 -57 20t-21 32q0 33 35 33q5 0 64 -13t120 -13q62 0 128 13t76 13q47 0 47 -39q0 -20 -33 -82q-31 -55 -100.5 -173t-119.5 -200q-85 -142 -105 -177q125 -39 197 -39q73 0 113 26t40 74
q0 28 -16 45t-38 17q-21 0 -35.5 -15t-14.5 -32q0 -16 5 -29q4 -12 4 -16q0 -15 -18 -15q-19 0 -34.5 22t-15.5 54q0 23 14.5 45.5t39.5 37t56 14.5q32 0 60.5 -16.5t45.5 -46t17 -68.5q0 -49 -27 -87t-75 -59t-109 -21q-92 0 -241 45q-28 -36 -62 -36q-31 0 -47 15.5
t-16 38.5t22 41.5t59 21.5z" />
    </font>
</defs>
</svg>
