<?xml version="1.0" standalone="no"?>
<!DOCTYPE svg PUBLIC "-//W3C//DTD SVG 1.1//EN" "http://www.w3.org/Graphics/SVG/1.1/DTD/svg11.dtd" >
<svg xmlns="http://www.w3.org/2000/svg" xmlns:xlink="http://www.w3.org/1999/xlink" version="1.1">
<metadata>
Created by FontForge 20161013 at Sat Jun 10 22:07:18 2017
 By ,,,
Copyright (c) 2017 by Gordeziani, Tatia Jonson. All rights reserved.
</metadata>
<defs>
<font id="GLMkafio-Book" horiz-adv-x="581" >
  <font-face 
    font-family="GL Mkafio Book"
    font-weight="350"
    font-stretch="normal"
    units-per-em="1000"
    panose-1="2 11 5 3 5 0 0 2 0 4"
    ascent="800"
    descent="-200"
    x-height="526"
    cap-height="688"
    bbox="-167 -332 947 958"
    underline-thickness="50"
    underline-position="-150"
    unicode-range="U+0020-2215"
  />
<missing-glyph horiz-adv-x="529" 
d="M434 -320h-336v1058h336v-1058zM178 667v-35h69v-39h-70v-35h175v35h-70v39h70v35h-174zM177 531v-110h175v36h-70v74h-105zM247 457h-35v38h35v-38zM177 392v-35h70v-39h-70v-35h105v74h70v35h-175zM317 329v-70h-140v-36h175v106h-35zM247 199v-59h35v25h35v-50h-105
v84h-35v-119h175v119h-105zM177 16v-119h175v119h-175zM317 -68h-105v50h105v-50zM177 -127v-35h74l-74 -50v-35h175v35h-108l74 50h34v35h-175z" />
    <glyph glyph-name=".notdef" horiz-adv-x="529" 
d="M434 -320h-336v1058h336v-1058zM178 667v-35h69v-39h-70v-35h175v35h-70v39h70v35h-174zM177 531v-110h175v36h-70v74h-105zM247 457h-35v38h35v-38zM177 392v-35h70v-39h-70v-35h105v74h70v35h-175zM317 329v-70h-140v-36h175v106h-35zM247 199v-59h35v25h35v-50h-105
v84h-35v-119h175v119h-105zM177 16v-119h175v119h-175zM317 -68h-105v50h105v-50zM177 -127v-35h74l-74 -50v-35h175v35h-108l74 50h34v35h-175z" />
    <glyph glyph-name=".null" horiz-adv-x="0" 
 />
    <glyph glyph-name="nonmarkingreturn" horiz-adv-x="333" 
 />
    <glyph glyph-name="space" unicode=" " horiz-adv-x="268" 
 />
    <glyph glyph-name="exclam" unicode="!" horiz-adv-x="241" 
d="M157 227h-75l-9 461h92zM166.5 98.5q18.5 -18.5 18.5 -45.5t-18.5 -46t-46.5 -19q-27 0 -45.5 19t-18.5 46q0 26 18.5 45t45.5 19q28 0 46.5 -18.5z" />
    <glyph glyph-name="quotedbl" unicode="&#x22;" horiz-adv-x="390" 
d="M63 688h90l-14 -259h-63zM237 688h91l-14 -259h-63z" />
    <glyph glyph-name="numbersign" unicode="#" horiz-adv-x="515" 
d="M423 448l-29 -217h69v-64h-77l-22 -167h-72l22 167h-161l-22 -167h-72l22 167h-66v64h74l29 217h-66v65h75l20 155h72l-20 -155h161l20 155h72l-20 -155h68v-65h-77zM351 448h-161l-29 -217h161z" />
    <glyph glyph-name="dollar" unicode="$" horiz-adv-x="530" 
d="M438 56.5q-48 -51.5 -133 -64.5v-146h-73v142q-122 7 -204 86l50 54q73 -70 173 -70q64 0 106 32.5t42 91.5q0 35 -13 58t-44.5 40.5t-90.5 35.5q-103 31 -149.5 74t-46.5 116q0 69 49 116t128 55v146h73v-146q49 -6 87 -24t74 -51l-49 -53q-34 32 -70.5 46t-80.5 14
q-55 0 -89.5 -26t-34.5 -73q0 -31 12.5 -51t44 -37t91.5 -35q63 -20 104.5 -42.5t66.5 -61.5t25 -98q0 -77 -48 -128.5z" />
    <glyph glyph-name="percent" unicode="%" horiz-adv-x="818" 
d="M671 671l-463 -700l-59 38l463 700zM321.5 632.5q44.5 -45.5 44.5 -121.5t-44.5 -122t-115.5 -46q-70 0 -114.5 46t-44.5 122t44.5 121.5t114.5 45.5q71 0 115.5 -45.5zM140.5 590q-19.5 -31 -19.5 -79q0 -47 19.5 -78.5t65.5 -31.5t65 31t19 79q0 47 -19.5 78.5
t-64.5 31.5q-46 0 -65.5 -31zM727 277.5q44 -45.5 44 -121.5t-44 -122t-115 -46q-70 0 -115 46t-45 122t44.5 121.5t115.5 45.5t115 -45.5zM547.5 234.5q-19.5 -30.5 -19.5 -78.5q0 -47 19.5 -78.5t64.5 -31.5q46 0 65.5 31t19.5 79q0 47 -19.5 78t-65.5 31
q-45 0 -64.5 -30.5z" />
    <glyph glyph-name="ampersand" unicode="&#x26;" horiz-adv-x="727" 
d="M395 680.5q41 -19.5 63.5 -54t22.5 -77.5q0 -59 -37.5 -101t-106.5 -83l183 -172q41 86 61 174l79 -22q-35 -116 -88 -201l115 -107l-61 -49l-101 97q-43 -48 -96.5 -72.5t-124.5 -24.5q-64 0 -114.5 23t-78.5 65t-28 98q0 62 35.5 108.5t105.5 90.5q-52 49 -75.5 86.5
t-23.5 85.5q0 67 47.5 111t129.5 44q52 0 93 -19.5zM233 611.5q-25 -25.5 -25 -65.5q0 -36 18.5 -65t62.5 -70q55 32 82 63.5t27 69.5q0 44 -26 68.5t-69 24.5q-45 0 -70 -25.5zM194 257.5q-25 -35.5 -25 -80.5q0 -56 40 -89t104 -33q49 0 88.5 19.5t74.5 57.5l-204 195
q-53 -34 -78 -69.5z" />
    <glyph glyph-name="quotesingle" unicode="'" horiz-adv-x="216" 
d="M63 688h90l-14 -259h-63z" />
    <glyph glyph-name="parenleft" unicode="(" horiz-adv-x="324" 
d="M281 807q-52 -77 -83 -138t-49 -138.5t-18 -180.5t18 -180t49 -138.5t83 -138.5l-53 -36q-65 92 -101 153t-60 145t-24 195t24 195t60 145t101 153z" />
    <glyph glyph-name="parenright" unicode=")" horiz-adv-x="324" 
d="M197 690q36 -61 60 -145t24 -195t-24 -195t-60 -145t-101 -153l-53 36q52 77 83 138.5t49 138.5t18 180t-18 180.5t-49 138.5t-83 138l53 36q65 -92 101 -153z" />
    <glyph glyph-name="asterisk" unicode="*" horiz-adv-x="438" 
d="M263 531l102 -117l-66 -49l-80 134l-80 -134l-66 48l102 118l-152 35l25 75l143 -61l-13 158h82l-13 -157l142 61l26 -76z" />
    <glyph glyph-name="plus" unicode="+" horiz-adv-x="498" 
d="M287 366h147v-70h-147v-150h-77v150h-146v70h146v150h77v-150z" />
    <glyph glyph-name="comma" unicode="," horiz-adv-x="232" 
d="M161.5 98.5q18.5 -18.5 18.5 -45.5q0 -29 -17 -67l-65 -149h-60l40 162q-12 9 -19.5 23.5t-7.5 30.5q0 26 18.5 45t45.5 19q28 0 46.5 -18.5z" />
    <glyph glyph-name="hyphen" unicode="-" horiz-adv-x="402" 
d="M62 349h279v-72h-279v72z" />
    <glyph glyph-name="period" unicode="." horiz-adv-x="232" 
d="M161.5 98.5q18.5 -18.5 18.5 -45.5t-18.5 -46t-46.5 -19q-27 0 -45.5 19t-18.5 46q0 26 18.5 45t45.5 19q28 0 46.5 -18.5z" />
    <glyph glyph-name="zero" unicode="0" horiz-adv-x="556" 
d="M442.5 590q55.5 -88 55.5 -257q0 -168 -55.5 -256.5t-164.5 -88.5t-164.5 88.5t-55.5 257.5t55.5 256.5t164.5 87.5t164.5 -88zM178 545q-33 -66 -33 -211q0 -146 33 -212.5t100 -66.5q66 0 99.5 66.5t33.5 211.5q0 146 -33.5 212t-99.5 66q-67 0 -100 -66z" />
    <glyph glyph-name="one" unicode="1" horiz-adv-x="428" 
d="M316 0h-84v578l-158 -97l-37 60l205 127h74v-668z" />
    <glyph glyph-name="two" unicode="2" horiz-adv-x="491" 
d="M331 654.5q45 -23.5 69 -64.5t24 -93q0 -62 -27.5 -118.5t-84.5 -121.5t-176 -186h304l-10 -71h-390v67q134 141 191 207t81 114.5t24 104.5q0 54 -31 85t-82 31q-42 0 -74.5 -17.5t-66.5 -56.5l-55 44q41 50 89.5 74.5t110.5 24.5q59 0 104 -23.5z" />
    <glyph glyph-name="three" unicode="3" horiz-adv-x="496" 
d="M328.5 655q44.5 -23 67.5 -61.5t23 -84.5q0 -62 -36 -101.5t-95 -52.5q66 -6 108.5 -48t42.5 -115q0 -58 -27.5 -104.5t-78.5 -73t-118 -26.5q-123 0 -199 89l51 47q33 -35 68 -51t77 -16q65 0 102 37t37 98q0 68 -35 96.5t-101 28.5h-49l10 65h34q53 0 88.5 32t35.5 90
q0 49 -31 77.5t-84 28.5q-40 0 -72.5 -14t-67.5 -46l-44 50q84 78 189 78q60 0 104.5 -23z" />
    <glyph glyph-name="four" unicode="4" horiz-adv-x="529" 
d="M497 167h-87v-167h-82v167h-287v61l202 450l70 -29l-183 -414h199l8 183h73v-183h87v-68z" />
    <glyph glyph-name="five" unicode="5" horiz-adv-x="498" 
d="M417 602h-264v-204q53 27 109 27q86 0 137.5 -56.5t51.5 -154.5q0 -66 -28.5 -117.5t-80 -80t-119.5 -28.5q-60 0 -107.5 21.5t-87.5 62.5l50 49q32 -33 66.5 -48.5t78.5 -15.5q65 0 103 42t38 117t-34.5 109t-92.5 34q-28 0 -50 -6t-48 -19h-66v334h356z" />
    <glyph glyph-name="six" unicode="6" horiz-adv-x="531" 
d="M397 414q42 -24 66.5 -71.5t24.5 -116.5q0 -71 -27.5 -125t-75 -83.5t-106.5 -29.5q-115 0 -168 86.5t-53 236.5q0 111 30 193.5t86 128t133 45.5q74 0 135 -40l-33 -56q-47 29 -103 29q-74 0 -117.5 -71.5t-46.5 -191.5q64 90 163 90q50 0 92 -24zM371 100.5
q32 45.5 32 123.5q0 77 -30 112t-82 35q-45 0 -83 -25.5t-65 -69.5q3 -112 35 -166.5t101 -54.5q60 0 92 45.5z" />
    <glyph glyph-name="seven" unicode="7" horiz-adv-x="442" 
d="M411 605l-253 -614l-77 25l245 583h-300v69h385v-63z" />
    <glyph glyph-name="eight" unicode="8" horiz-adv-x="548" 
d="M465.5 284q35.5 -44 35.5 -106q0 -55 -29 -98.5t-81 -67.5t-119 -24t-118 24t-79 66.5t-28 97.5q0 63 34.5 105.5t100.5 70.5q-55 27 -81 65t-26 91t28 91.5t73.5 58.5t97.5 20t97.5 -19t74 -57t28.5 -92q0 -50 -28 -86t-87 -66q71 -30 106.5 -74zM189.5 586.5
q-31.5 -28.5 -31.5 -79.5q0 -48 29 -74t94 -48l20 -7q48 27 69 56.5t21 72.5q0 50 -31 79t-86 29q-53 0 -84.5 -28.5zM375 88.5q38 32.5 38 88.5q0 37 -14 62t-45 43.5t-87 38.5l-27 9q-54 -24 -79.5 -61t-25.5 -93q0 -57 37 -88.5t101 -31.5t102 32.5z" />
    <glyph glyph-name="nine" unicode="9" horiz-adv-x="523" 
d="M417 608q54 -70 54 -192q0 -134 -37 -217.5t-112 -133t-202 -86.5l-20 63q136 39 207.5 106t76.5 179q-25 -37 -64.5 -60t-88.5 -23q-52 0 -94 26t-66 75t-24 113q0 67 28 117t76 76.5t107 26.5q105 0 159 -70zM385 398q2 112 -28.5 162.5t-96.5 50.5q-61 0 -94.5 -40.5
t-33.5 -114.5q0 -71 31.5 -108t84.5 -37q82 0 137 87z" />
    <glyph glyph-name="colon" unicode=":" horiz-adv-x="232" 
d="M161.5 471.5q18.5 -18.5 18.5 -45.5t-18.5 -45.5t-46.5 -18.5q-27 0 -45.5 18.5t-18.5 45.5t18.5 45.5t45.5 18.5q28 0 46.5 -18.5zM161.5 98.5q18.5 -18.5 18.5 -45.5t-18.5 -46t-46.5 -19q-27 0 -45.5 19t-18.5 46q0 26 18.5 45t45.5 19q28 0 46.5 -18.5z" />
    <glyph glyph-name="semicolon" unicode=";" horiz-adv-x="232" 
d="M161.5 471.5q18.5 -18.5 18.5 -45.5t-18.5 -45.5t-46.5 -18.5q-27 0 -45.5 18.5t-18.5 45.5t18.5 45.5t45.5 18.5q28 0 46.5 -18.5zM161.5 98.5q18.5 -18.5 18.5 -45.5q0 -29 -17 -67l-65 -149h-60l40 162q-12 9 -19.5 23.5t-7.5 30.5q0 26 18.5 45t45.5 19
q28 0 46.5 -18.5z" />
    <glyph glyph-name="less" unicode="&#x3c;" horiz-adv-x="499" 
d="M446 476l-325 -143l325 -145l-30 -68l-363 171v84l363 171z" />
    <glyph glyph-name="equal" unicode="=" horiz-adv-x="498" 
d="M64 461h371v-71h-371v71zM64 272h371v-71h-371v71z" />
    <glyph glyph-name="greater" unicode="&#x3e;" horiz-adv-x="499" 
d="M446 375v-84l-362 -171l-31 68l325 145l-325 143l31 70z" />
    <glyph glyph-name="question" unicode="?" horiz-adv-x="456" 
d="M338 678.5q42 -21.5 64 -56.5t22 -76q0 -38 -13 -65t-32.5 -44.5t-50.5 -38.5q-43 -30 -64.5 -55.5t-21.5 -68.5v-47h-83v52q0 43 14.5 73t34.5 48t53 41q38 26 56.5 46.5t18.5 53.5q0 42 -28 65.5t-76 23.5q-82 0 -142 -72l-57 44q83 98 204 98q59 0 101 -21.5z
M249.5 98.5q18.5 -18.5 18.5 -45.5t-18.5 -46t-46.5 -19q-27 0 -45.5 19t-18.5 46q0 26 18.5 45t45.5 19q28 0 46.5 -18.5z" />
    <glyph glyph-name="at" unicode="@" horiz-adv-x="1020" 
d="M754 646.5q95 -53.5 144 -143t49 -196.5q0 -133 -50.5 -215t-143.5 -82q-55 0 -86 31t-40 73q-47 -102 -145 -102q-79 0 -125.5 59.5t-46.5 159.5q0 125 59.5 192t156.5 67q40 0 77 -9t77 -30v-259q0 -63 18.5 -90t53.5 -27q52 0 81 56t29 174q0 97 -38.5 170.5
t-114.5 114t-183 40.5q-111 0 -194.5 -50.5t-128.5 -139t-45 -200.5q0 -113 43.5 -199t127 -134t197.5 -48q97 0 191 33l23 -65q-56 -19 -104.5 -28.5t-110.5 -9.5q-133 0 -235.5 55t-159.5 157.5t-57 238.5q0 129 57 234t160.5 165.5t235.5 60.5q133 0 228 -53.5zM604 164
v249q-35 16 -76 16q-67 0 -101.5 -50.5t-34.5 -147.5q0 -77 26 -117t74 -40q77 0 112 90z" />
    <glyph glyph-name="A" unicode="A" horiz-adv-x="571" 
d="M418 176h-268l-54 -176h-88l223 688h110l222 -688h-92zM396 247l-112 369l-113 -369h225z" />
    <glyph glyph-name="B" unicode="B" horiz-adv-x="606" 
d="M559 195q0 -195 -267 -195h-189v688h160q128 0 196.5 -43t68.5 -130q0 -61 -36.5 -100.5t-91.5 -50.5q159 -26 159 -169zM189 619v-225h112q61 0 99.5 30t38.5 85q0 61 -41.5 85.5t-125.5 24.5h-83zM422 97q45 27 45 98q0 69 -43.5 100.5t-113.5 31.5h-121v-257h103
q85 0 130 27z" />
    <glyph glyph-name="C" unicode="C" horiz-adv-x="558" 
d="M443.5 684q41.5 -16 85.5 -51l-47 -56q-33 26 -65.5 38.5t-69.5 12.5q-89 0 -143 -67.5t-54 -216.5q0 -143 54 -212.5t142 -69.5q45 0 78 14.5t70 42.5l43 -55q-33 -33 -82 -54.5t-112 -21.5q-83 0 -147.5 41.5t-101 121.5t-36.5 193t37.5 193.5t102 121.5t144.5 41
q60 0 101.5 -16z" />
    <glyph glyph-name="D" unicode="D" horiz-adv-x="641" 
d="M491 615.5q93 -72.5 93 -267.5q0 -192 -93.5 -270t-227.5 -78h-160v688h142q153 0 246 -72.5zM189 618v-549h81q98 0 159.5 60.5t61.5 218.5q0 111 -31.5 170.5t-81 79.5t-115.5 20h-74z" />
    <glyph glyph-name="E" unicode="E" horiz-adv-x="530" 
d="M460 618h-271v-232h235v-70h-235v-246h288v-70h-374v688h367z" />
    <glyph glyph-name="F" unicode="F" horiz-adv-x="489" 
d="M103 688h360l-10 -70h-264v-242h228v-69h-228v-307h-86v688z" />
    <glyph glyph-name="G" unicode="G" horiz-adv-x="628" 
d="M463.5 682q46.5 -18 92.5 -56l-51 -54q-37 30 -71.5 43t-80.5 13q-54 0 -100 -29t-74.5 -92.5t-28.5 -161.5q0 -147 49.5 -216t145.5 -69q76 0 134 32v216h-125l-10 71h221v-331q-104 -60 -220 -60q-135 0 -211 91t-76 266q0 112 40.5 192.5t107.5 121.5t147 41
q64 0 110.5 -18z" />
    <glyph glyph-name="H" unicode="H" horiz-adv-x="678" 
d="M488 326h-299v-326h-86v688h86v-290h299v290h87v-688h-87v326z" />
    <glyph glyph-name="I" unicode="I" horiz-adv-x="292" 
d="M189 0h-86v688h86v-688z" />
    <glyph glyph-name="J" unicode="J" horiz-adv-x="302" 
d="M204 95q0 -68 -20 -111.5t-57 -70t-97 -46.5l-23 63q46 19 69 40t32 51t9 78v589h87v-593z" />
    <glyph glyph-name="K" unicode="K" horiz-adv-x="579" 
d="M189 0h-86v688h86v-688zM294 373l285 -373h-107l-278 368l268 320h99z" />
    <glyph glyph-name="L" unicode="L" horiz-adv-x="493" 
d="M189 76h284l-10 -76h-360v688h86v-612z" />
    <glyph glyph-name="M" unicode="M" horiz-adv-x="776" 
d="M713 0h-84l-26 315q-17 189 -19 285l-155 -521h-81l-162 522q-2 -128 -16 -291l-24 -310h-82l58 688h118l151 -509l144 509h118z" />
    <glyph glyph-name="N" unicode="N" horiz-adv-x="681" 
d="M578 0h-116l-290 593q12 -132 12 -261v-332h-81v688h113l292 -594q-3 29 -7 91.5t-4 117.5v385h81v-688z" />
    <glyph glyph-name="O" unicode="O" horiz-adv-x="692" 
d="M497 658.5q65 -41.5 101 -121.5t36 -194q0 -112 -36 -192t-101 -121.5t-151 -41.5t-151 41t-101 120.5t-36 192.5q0 111 36 192t101.5 123.5t150.5 42.5q86 0 151 -41.5zM202 558q-52 -70 -52 -216q0 -144 52.5 -213t143.5 -69q94 0 145 68.5t51 214.5t-51 215.5
t-145 69.5q-92 0 -144 -70z" />
    <glyph glyph-name="P" unicode="P" horiz-adv-x="578" 
d="M474 635.5q69 -52.5 69 -158.5q0 -112 -72 -166.5t-192 -54.5h-90v-256h-86v688h176q126 0 195 -52.5zM406.5 358.5q44.5 33.5 44.5 117.5q0 76 -44.5 110t-128.5 34h-89v-295h87q86 0 130.5 33.5z" />
    <glyph glyph-name="Q" unicode="Q" horiz-adv-x="691" 
d="M662 -28l-57 -73q-58 52 -113.5 71.5t-147.5 19.5q-85 0 -149.5 40.5t-100.5 119.5t-36 192q0 111 36 192t101.5 123.5t150.5 42.5q86 0 151 -41.5t101 -121.5t36 -194q0 -124 -41.5 -197t-119.5 -111q104 0 189 -63zM202.5 129q52.5 -69 143.5 -69q94 0 145 68.5
t51 214.5t-51 215.5t-145 69.5q-92 0 -144 -70t-52 -216q0 -144 52.5 -213z" />
    <glyph glyph-name="R" unicode="R" horiz-adv-x="601" 
d="M303 296h-114v-296h-86v688h177q127 0 192.5 -49t65.5 -144q0 -72 -37.5 -117t-112.5 -67l186 -311h-103zM290 363q77 0 116.5 31.5t39.5 100.5q0 65 -39.5 95t-127.5 30h-90v-257h101z" />
    <glyph glyph-name="S" unicode="S" horiz-adv-x="544" 
d="M385.5 680.5q48.5 -19.5 92.5 -59.5l-47 -53q-39 31 -76.5 45.5t-81.5 14.5q-57 0 -92.5 -26.5t-35.5 -75.5q0 -32 12.5 -53t45.5 -38.5t95 -36.5q65 -20 108 -43t68.5 -63t25.5 -101q0 -60 -29 -106t-83.5 -71.5t-128.5 -25.5q-140 0 -231 88l48 54q42 -35 85 -52.5
t97 -17.5q66 0 109 33.5t43 94.5q0 36 -13.5 60t-46 42t-92.5 36q-106 32 -154 76.5t-48 120.5q0 51 27 91.5t75.5 63t110.5 22.5q68 0 116.5 -19.5z" />
    <glyph glyph-name="T" unicode="T" horiz-adv-x="512" 
d="M492 614h-193v-614h-86v614h-198v74h487z" />
    <glyph glyph-name="U" unicode="U" horiz-adv-x="660" 
d="M567 219q0 -104 -62.5 -167.5t-175.5 -63.5q-114 0 -175 63t-61 168v469h86v-462q0 -164 150 -164q76 0 113 41t37 123v462h88v-469z" />
    <glyph glyph-name="V" unicode="V" horiz-adv-x="554" 
d="M325 0h-94l-223 688h94l177 -595l178 595h88z" />
    <glyph glyph-name="W" unicode="W" horiz-adv-x="822" 
d="M653 0h-111l-132 587l-133 -587h-108l-143 688h86l115 -611l137 611h93l140 -611l119 611h80z" />
    <glyph glyph-name="X" unicode="X" horiz-adv-x="534" 
d="M528 0h-99l-164 311l-165 -311h-94l208 367l-189 321h98l144 -263l143 263h93l-186 -316z" />
    <glyph glyph-name="Y" unicode="Y" horiz-adv-x="544" 
d="M316 266v-266h-88v265l-221 423h96l172 -346l171 346h91z" />
    <glyph glyph-name="Z" unicode="Z" horiz-adv-x="521" 
d="M475 618l-347 -544h345l-10 -74h-432v70l350 545h-313v73h407v-70z" />
    <glyph glyph-name="bracketleft" unicode="[" horiz-adv-x="321" 
d="M267 744h-118v-790h118v-69h-197v929h197v-70z" />
    <glyph glyph-name="bracketright" unicode="]" horiz-adv-x="321" 
d="M251 -115h-197v69h118v790h-118v70h197v-929z" />
    <glyph glyph-name="underscore" unicode="_" horiz-adv-x="520" 
d="M20 -65h480v-72h-480v72z" />
    <glyph glyph-name="grave" unicode="`" horiz-adv-x="294" 
d="M264 685l-26 -45l-208 85l38 72z" />
    <glyph glyph-name="a" unicode="a" horiz-adv-x="542" 
d="M456.5 70.5q10.5 -15.5 33.5 -23.5l-20 -59q-40 6 -64 24.5t-34 56.5q-54 -81 -158 -81q-77 0 -121.5 43.5t-44.5 115.5q0 83 59.5 127.5t168.5 44.5h86v42q0 57 -27.5 82.5t-85.5 25.5q-60 0 -142 -29l-21 62q95 36 178 36q92 0 137 -44.5t45 -128.5v-244
q0 -35 10.5 -50.5zM362 138v125h-75q-150 0 -150 -112q0 -48 24.5 -73.5t71.5 -25.5q84 0 129 86z" />
    <glyph glyph-name="b" unicode="b" horiz-adv-x="591" 
d="M475 466q52 -72 52 -202q0 -83 -24.5 -145.5t-71 -96.5t-109.5 -34q-83 0 -142 71l-9 -59h-73v738l84 10v-289q58 79 151 79q90 0 142 -72zM401.5 106.5q35.5 51.5 35.5 157.5q0 207 -127 207q-75 0 -128 -84v-259q22 -34 53.5 -53.5t67.5 -19.5q63 0 98.5 51.5z" />
    <glyph glyph-name="c" unicode="c" horiz-adv-x="476" 
d="M372 525q38 -13 73 -43l-41 -53q-27 20 -54 29.5t-60 9.5q-66 0 -103.5 -52.5t-37.5 -155.5q0 -102 37 -151t104 -49q32 0 58.5 10t57.5 31l39 -55q-69 -58 -158 -58q-106 0 -167 72t-61 199q0 84 27.5 147t79 97.5t121.5 34.5q47 0 85 -13z" />
    <glyph glyph-name="d" unicode="d" horiz-adv-x="595" 
d="M497 738v-738h-73l-9 74q-26 -40 -65 -63t-88 -23q-94 0 -146 73.5t-52 199.5q0 81 25 143.5t71.5 98t109.5 35.5q81 0 143 -66v276zM354 75.5q31 20.5 59 62.5v262q-26 34 -56 52.5t-69 18.5q-63 0 -98.5 -53t-35.5 -156t32.5 -155t92.5 -52q44 0 75 20.5z" />
    <glyph glyph-name="e" unicode="e" horiz-adv-x="543" 
d="M487 234h-339q6 -91 45 -134t102 -43q39 0 71 11t67 36l37 -50q-82 -66 -181 -66q-108 0 -169 72t-61 198q0 82 26 145.5t75 99t115 35.5q104 0 159 -68.5t55 -189.5q0 -24 -2 -46zM406 304q0 81 -32.5 124t-96.5 43q-57 0 -90.5 -43t-38.5 -132h258v8z" />
    <glyph glyph-name="f" unicode="f" horiz-adv-x="332" 
d="M209 661.5q-19 -18.5 -19 -59.5v-76h130l-9 -65h-121v-461h-84v461h-93v65h93v75q0 67 42 107t118 40q35 0 64 -6.5t61 -20.5l-27 -61q-45 20 -93 20q-43 0 -62 -18.5z" />
    <glyph glyph-name="g" unicode="g" horiz-adv-x="516" 
d="M514 505q-29 -9 -63.5 -12t-88.5 -4q92 -41 92 -135q0 -79 -53.5 -128t-144.5 -49q-37 0 -67 10q-14 -9 -21.5 -22.5t-7.5 -29.5q0 -45 72 -45h84q53 0 93 -18.5t62 -51t22 -73.5q0 -77 -61 -117.5t-181 -40.5q-123 0 -173.5 37.5t-50.5 119.5h76q0 -33 13 -52.5t45 -29
t90 -9.5q84 0 120.5 21.5t36.5 64.5q0 38 -28.5 58t-80.5 20h-83q-65 0 -99.5 28t-34.5 70q0 26 14.5 50t42.5 42q-45 24 -66.5 59.5t-21.5 87.5q0 53 25.5 94.5t71.5 64.5t103 23q63 -1 104.5 4t69 14t64.5 26zM166.5 443.5q-29.5 -33.5 -29.5 -87.5q0 -56 30.5 -89.5
t85.5 -33.5q56 0 85.5 32t29.5 91t-29.5 90t-87.5 31q-55 0 -84.5 -33.5z" />
    <glyph glyph-name="h" unicode="h" horiz-adv-x="585" 
d="M453 495q40 -43 40 -118v-377h-84v365q0 58 -22.5 82.5t-65.5 24.5t-76.5 -25t-62.5 -71v-376h-84v737l84 10v-296q64 87 160 87q71 0 111 -43z" />
    <glyph glyph-name="i" unicode="i" horiz-adv-x="279" 
d="M182.5 757.5q16.5 -16.5 16.5 -41.5t-16.5 -41.5t-43.5 -16.5q-26 0 -42.5 16.5t-16.5 41.5t16.5 41.5t42.5 16.5q27 0 43.5 -16.5zM182 0h-84v526h84v-526z" />
    <glyph glyph-name="j" unicode="j" horiz-adv-x="278" 
d="M181.5 757.5q16.5 -16.5 16.5 -41.5t-16.5 -41.5t-43.5 -16.5q-26 0 -42.5 16.5t-16.5 41.5t16.5 41.5t42.5 16.5q27 0 43.5 -16.5zM180 29q0 -72 -17 -115t-50.5 -70t-93.5 -54l-24 61q39 19 59.5 36.5t31 49t10.5 87.5v502h84v-497z" />
    <glyph glyph-name="k" unicode="k" horiz-adv-x="506" 
d="M182 0h-84v738l84 10v-748zM282 293l223 -293h-101l-216 287l200 239h94z" />
    <glyph glyph-name="l" unicode="l" horiz-adv-x="291" 
d="M121 17q-28 29 -28 83v638l84 10v-646q0 -22 8.5 -33t26.5 -11q19 0 34 6l22 -59q-32 -17 -70 -17q-49 0 -77 29z" />
    <glyph glyph-name="m" unicode="m" horiz-adv-x="856" 
d="M725 494.5q38 -43.5 38 -117.5v-377h-84v365q0 107 -77 107q-41 0 -70 -24t-60 -73v-375h-84v365q0 107 -77 107q-40 0 -69.5 -24t-59.5 -73v-375h-84v526h72l7 -79q62 91 154 91q49 0 83.5 -26t48.5 -72q64 98 159 98q65 0 103 -43.5z" />
    <glyph glyph-name="n" unicode="n" horiz-adv-x="585" 
d="M453.5 495q39.5 -43 39.5 -118v-377h-84v365q0 58 -22 82.5t-65 24.5q-44 0 -77.5 -25t-62.5 -72v-375h-84v526h72l7 -79q31 43 72.5 67t92.5 24q72 0 111.5 -43z" />
    <glyph glyph-name="o" unicode="o" 
d="M461.5 464.5q60.5 -73.5 60.5 -200.5q0 -126 -61.5 -201t-170.5 -75t-170 73.5t-61 200.5q0 126 61.5 201t170.5 75q110 0 170.5 -73.5zM185.5 418q-36.5 -52 -36.5 -156q0 -103 36 -154.5t105 -51.5t105.5 52t36.5 156q0 103 -36 154.5t-105 51.5t-105.5 -52z" />
    <glyph glyph-name="p" unicode="p" horiz-adv-x="591" 
d="M480 466.5q47 -71.5 47 -202.5q0 -125 -53 -200.5t-152 -75.5q-90 0 -140 62v-251l-84 -10v737h72l7 -73q29 41 69.5 63t86.5 22q100 0 147 -71.5zM437 264q0 207 -124 207q-40 0 -73.5 -23.5t-57.5 -60.5v-263q21 -32 52 -49.5t69 -17.5q134 0 134 207z" />
    <glyph glyph-name="q" unicode="q" horiz-adv-x="595" 
d="M497 526v-737l-84 10v271q-26 -39 -64.5 -60.5t-86.5 -21.5q-94 0 -146 73.5t-52 199.5q0 81 25 143.5t71.5 98t109.5 35.5q47 0 83 -19.5t66 -52.5l6 60h72zM354 75.5q31 20.5 59 62.5v262q-26 34 -56 52.5t-69 18.5q-63 0 -98.5 -53t-35.5 -156t32.5 -155t93.5 -52
q43 0 74 20.5z" />
    <glyph glyph-name="r" unicode="r" horiz-adv-x="383" 
d="M372 532l-15 -82q-24 6 -46 6q-50 0 -80.5 -35.5t-48.5 -112.5v-308h-84v526h72l8 -110q21 60 57 91t85 31q30 0 52 -6z" />
    <glyph glyph-name="s" unicode="s" horiz-adv-x="466" 
d="M331.5 523q42.5 -15 81.5 -45l-36 -53q-36 24 -68 35t-69 11q-47 0 -74.5 -20t-27.5 -54q0 -33 25.5 -51.5t91.5 -36.5q88 -23 130.5 -60t42.5 -103q0 -76 -59 -117t-144 -41q-118 0 -197 69l45 51q70 -52 150 -52q53 0 85 23t32 62q0 28 -11 45.5t-38.5 30.5t-81.5 27
q-84 22 -121 58.5t-37 92.5q0 41 24 73.5t66.5 51t95.5 18.5q52 0 94.5 -15z" />
    <glyph glyph-name="t" unicode="t" horiz-adv-x="356" 
d="M357 23q-52 -35 -116 -35q-66 0 -102.5 38t-36.5 109v326h-91v65h91v121l84 9v-130h127l-9 -65h-118v-322q0 -42 15.5 -61.5t50.5 -19.5t73 22z" />
    <glyph glyph-name="u" unicode="u" 
d="M484 0h-72l-7 85q-30 -49 -69.5 -73t-95.5 -24q-70 0 -108.5 42t-38.5 119v377h84v-368q0 -56 20 -79.5t66 -23.5q81 0 137 94v377h84v-526z" />
    <glyph glyph-name="v" unicode="v" horiz-adv-x="487" 
d="M296 0h-102l-183 526h92l143 -451l141 451h89z" />
    <glyph glyph-name="w" unicode="w" horiz-adv-x="713" 
d="M570 0h-115l-97 450l-100 -450h-112l-125 526h85l99 -467l108 467h94l104 -467l100 467h80z" />
    <glyph glyph-name="x" unicode="x" horiz-adv-x="479" 
d="M473 0h-102l-134 228l-136 -228h-95l184 278l-162 248h98l115 -197l115 197h95l-162 -244z" />
    <glyph glyph-name="y" unicode="y" horiz-adv-x="486" 
d="M298 -3q-30 -92 -84 -143.5t-153 -64.5l-10 66q52 10 83 27.5t49 44.5t35 73h-29l-178 526h90l145 -465l142 465h87z" />
    <glyph glyph-name="z" unicode="z" horiz-adv-x="434" 
d="M400 462l-279 -391h281l-10 -71h-366v63l278 392h-255v71h351v-64z" />
    <glyph glyph-name="braceleft" unicode="{" horiz-adv-x="323" 
d="M273 769q-50 0 -71.5 -16t-21.5 -54v-243q0 -51 -17.5 -73t-57.5 -34q40 -12 57.5 -34t17.5 -72v-242q0 -38 21.5 -54t71.5 -16v-65q-94 0 -133 33.5t-39 109.5v230q0 41 -16 58t-55 17v70q39 0 55 17.5t16 59.5v230q0 76 39 109.5t133 33.5v-65z" />
    <glyph glyph-name="bar" unicode="|" horiz-adv-x="404" 
d="M240 -102h-76v908h76v-908z" />
    <glyph glyph-name="braceright" unicode="}" horiz-adv-x="323" 
d="M183 800.5q39 -33.5 39 -109.5v-230q0 -42 16 -59.5t55 -17.5v-70q-39 0 -55 -17t-16 -58v-230q0 -76 -39 -109.5t-133 -33.5v65q49 0 71 16t22 54v242q0 50 17.5 72t57.5 34q-40 12 -57.5 34t-17.5 73v243q0 38 -22 54t-71 16v65q94 0 133 -33.5z" />
    <glyph glyph-name="asciitilde" unicode="~" horiz-adv-x="484" 
d="M267.5 262.5q-21.5 9.5 -50.5 27.5q-17 12 -30 18t-25 6q-22 0 -39 -14t-33 -38l-51 27q48 92 131 92q26 0 47 -9t49 -26q22 -13 34 -19t25 -6q39 0 70 47l50 -28q-46 -87 -128 -87q-28 0 -49.5 9.5z" />
    <glyph glyph-name="exclamdown" unicode="&#xa1;" horiz-adv-x="241" 
d="M166.5 471.5q18.5 -18.5 18.5 -45.5t-18.5 -45.5t-45.5 -18.5q-28 0 -46.5 18.5t-18.5 45.5t18.5 45.5t46.5 18.5q27 0 45.5 -18.5zM168 -201h-92l8 449h75z" />
    <glyph glyph-name="cent" unicode="&#xa2;" horiz-adv-x="476" 
d="M445 46q-52 -44 -120 -55v-144h-73v143q-91 12 -142 82.5t-51 186.5t51.5 190t142.5 87v147h72v-147q65 -9 120 -54l-41 -53q-27 20 -54 29.5t-60 9.5q-66 0 -103.5 -52.5t-37.5 -155.5q0 -102 37 -151t104 -49q32 0 58.5 10t57.5 31z" />
    <glyph glyph-name="sterling" unicode="&#xa3;" horiz-adv-x="517" 
d="M195 118q-13 -28 -49 -47h322l-10 -71h-415v67q34 13 51 28t24 38t7 64v127h-66v56h66v115q0 81 48.5 132t136.5 51q54 0 97 -19.5t78 -61.5l-55 -42q-24 28 -51.5 41t-65.5 13q-50 0 -77.5 -29.5t-27.5 -84.5v-115h209v-56h-209v-128q0 -50 -13 -78z" />
    <glyph glyph-name="currency" unicode="&#xa4;" horiz-adv-x="560" 
d="M449 218l77 -76l-50 -51l-79 77q-50 -33 -119 -33q-65 0 -117 35l-78 -79l-49 51l78 78q-37 52 -37 121q0 67 36 120l-77 80l50 50l78 -80q51 35 116 35q71 0 120 -34l79 79l49 -50l-77 -77q38 -53 38 -123q0 -71 -38 -123zM374.5 239q32.5 37 32.5 103t-32.5 102.5
t-93.5 36.5q-60 0 -92.5 -37t-32.5 -102q0 -66 32.5 -103t92.5 -37q61 0 93.5 37z" />
    <glyph glyph-name="yen" unicode="&#xa5;" horiz-adv-x="530" 
d="M331 344h115v-57h-138v-93h138v-57h-138v-137h-86v137h-138v57h138v93h-138v57h114l-191 324h93l168 -299l166 299h89z" />
    <glyph glyph-name="brokenbar" unicode="&#xa6;" horiz-adv-x="404" 
d="M240 443h-76v363h76v-363zM240 -102h-76v364h76v-364z" />
    <glyph glyph-name="section" unicode="&#xa7;" horiz-adv-x="533" 
d="M424 128.5q13 -23.5 13 -55.5q0 -65 -53 -104t-137 -39q-96 0 -167 49l33 56q58 -39 137 -39q45 0 74 18.5t29 50.5q0 25 -9.5 40.5t-35.5 29t-79 30.5q-84 27 -120 58.5t-36 88.5q0 37 21 68.5t57 53.5q-27 19 -40 43t-13 58q0 65 50.5 103t131.5 38q52 0 92 -13.5
t76 -38.5l-33 -54q-33 21 -64.5 31t-71.5 10q-47 0 -72.5 -19t-25.5 -51q0 -25 10 -41t36 -30t78 -31q82 -28 118.5 -61t36.5 -86q0 -70 -76 -120q27 -20 40 -43.5zM163.5 281.5q8.5 -15.5 29.5 -27.5t62 -25q45 -15 78 -30q46 40 46 82q0 24 -9 40t-32.5 29.5t-68.5 29.5
q-39 13 -69 27q-22 -19 -33.5 -41t-11.5 -43q0 -26 8.5 -41.5z" />
    <glyph glyph-name="dieresis" unicode="&#xa8;" horiz-adv-x="372" 
d="M122 747q15 -15 15 -38q0 -22 -15 -37.5t-38 -15.5t-38.5 15t-15.5 38t15.5 38t38.5 15t38 -15zM326.5 747q15.5 -15 15.5 -38t-15.5 -38t-38.5 -15q-22 0 -37.5 15.5t-15.5 37.5q0 23 15.5 38t37.5 15q23 0 38.5 -15z" />
    <glyph glyph-name="copyright" unicode="&#xa9;" horiz-adv-x="810" 
d="M561.5 705q70.5 -40 111.5 -110.5t41 -160.5q0 -89 -41 -159.5t-111.5 -110.5t-155.5 -40q-86 0 -157 40t-112 110.5t-41 159.5t41 160t112 111t157 40q85 0 155.5 -40zM276.5 663q-57.5 -33 -90.5 -93t-33 -136t33 -135t90.5 -92t129.5 -33q71 0 128.5 33t90.5 92
t33 135q0 77 -33 136.5t-90 92.5t-129 33t-129.5 -33zM468.5 613.5q26.5 -9.5 52.5 -29.5l-32 -44q-38 27 -78 27q-41 0 -67 -32t-26 -100q0 -64 25.5 -96.5t67.5 -32.5q25 0 44.5 7.5t39.5 22.5l30 -44q-51 -45 -116 -45q-72 0 -116.5 49.5t-44.5 138.5q0 60 21.5 102.5
t58 64t79.5 21.5q35 0 61.5 -9.5z" />
    <glyph glyph-name="ordfeminine" unicode="&#xaa;" horiz-adv-x="500" 
d="M317 524v26q0 41 -20 57.5t-65 16.5q-50 0 -113 -21l-20 57q75 28 146 28q154 0 154 -133v-173q0 -25 8 -36t25 -18l-18 -55q-34 4 -54 17t-30 41q-43 -59 -127 -59q-62 0 -98.5 33t-36.5 88q0 63 49 97t138 34h62zM317 388v85h-53q-110 0 -110 -76q0 -31 18 -47.5
t51 -16.5q59 0 94 55zM444 71v-71h-371v71h371z" />
    <glyph glyph-name="guillemotleft" unicode="&#xab;" horiz-adv-x="570" 
d="M282 497l-136 -210l136 -209l-51 -35l-172 215v57l172 216zM511 497l-135 -210l135 -209l-50 -35l-172 215v57l172 216z" />
    <glyph glyph-name="logicalnot" unicode="&#xac;" horiz-adv-x="500" 
d="M436 147h-76v140h-296v71h372v-211z" />
    <glyph glyph-name="registered" unicode="&#xae;" horiz-adv-x="641" 
d="M447 713q58 -34 91 -92t33 -127t-33 -127t-91 -91.5t-128 -33.5q-68 0 -125.5 33.5t-90.5 91.5t-33 127t33 127t90.5 92t125.5 34q70 0 128 -34zM422.5 314.5q45.5 26.5 71 73.5t25.5 106t-25.5 106t-71 74t-103.5 27q-56 0 -101 -27t-71 -74t-26 -106t26 -106t71 -73.5
t101 -26.5q58 0 103.5 26.5zM408 504q-18 -19 -47 -28l74 -116h-63l-62 107h-27v-107h-53v275h76q61 0 90.5 -20.5t29.5 -62.5q0 -29 -18 -48zM283 509h33q55 0 55 43q0 22 -14 31.5t-44 9.5h-30v-84z" />
    <glyph glyph-name="macron" unicode="&#xaf;" horiz-adv-x="325" 
d="M30 669v64h265v-64h-265z" />
    <glyph glyph-name="degree" unicode="&#xb0;" horiz-adv-x="522" 
d="M141 403q-37 19 -60 55t-23 84t23 84t60 55t78 19q42 0 79 -19t59.5 -55t22.5 -85t-22.5 -84.5t-59.5 -54t-79 -18.5q-41 0 -78 19zM283.5 468q25.5 26 25.5 73q0 48 -25.5 74t-64.5 26q-38 0 -64 -25.5t-26 -73.5t26 -74t64 -26q39 0 64.5 26z" />
    <glyph glyph-name="plusminus" unicode="&#xb1;" horiz-adv-x="498" 
d="M288 386h147v-70h-147v-150h-77v150h-146v70h146v150h77v-150zM64 71h371v-71h-371v71z" />
    <glyph glyph-name="uni00B2" unicode="&#xb2;" horiz-adv-x="400" 
d="M294.5 712q36.5 -33 36.5 -85q0 -35 -16.5 -67t-54 -72t-110.5 -108h192l-8 -58h-265v54q84 82 121 121.5t52 67t15 56.5q0 32 -18 49.5t-49 17.5q-26 0 -46 -10.5t-41 -34.5l-45 36q55 66 137 66q63 0 99.5 -33z" />
    <glyph glyph-name="uni00B3" unicode="&#xb3;" horiz-adv-x="400" 
d="M296 715.5q36 -29.5 36 -74.5q0 -39 -23 -64t-63 -34q44 -4 71.5 -30t27.5 -72q0 -55 -42 -91.5t-112 -36.5q-85 0 -136 59l41 39q40 -41 92 -41q38 0 60.5 20t22.5 54q0 37 -21.5 53.5t-61.5 16.5h-33l9 52h22q32 0 53.5 17t21.5 49q0 28 -18.5 43.5t-50.5 15.5
q-25 0 -46 -9t-43 -29l-37 41q57 51 132 51q62 0 98 -29.5z" />
    <glyph glyph-name="acute" unicode="&#xb4;" horiz-adv-x="294" 
d="M264 725l-208 -85l-26 45l196 112z" />
    <glyph glyph-name="uni00B5" unicode="&#xb5;" horiz-adv-x="587" 
d="M431 -11q-12 27 -16 47.5t-8 53.5q-25 -44 -61.5 -73t-81.5 -29q-36 0 -59 12.5t-40 40.5q9 -30 12.5 -59.5t3.5 -73.5v-109l-83 -10v737h84v-371q0 -94 83 -94q82 0 134 99v366h84v-347q0 -99 27 -180z" />
    <glyph glyph-name="paragraph" unicode="&#xb6;" horiz-adv-x="728" 
d="M585 688v-889l-76 -12v834h-117v-822l-76 -12v498q-114 5 -168.5 60t-54.5 142q0 96 64.5 148.5t177.5 52.5h250z" />
    <glyph glyph-name="periodcentered" unicode="&#xb7;" horiz-adv-x="232" 
d="M161.5 358.5q18.5 -18.5 18.5 -45.5t-18.5 -46t-46.5 -19q-27 0 -45.5 19t-18.5 46q0 26 18.5 45t45.5 19q28 0 46.5 -18.5z" />
    <glyph glyph-name="cedilla" unicode="&#xb8;" horiz-adv-x="268" 
d="M145 -58q48 -4 70.5 -27t22.5 -56q0 -46 -34 -71.5t-86 -25.5q-56 0 -88 24l23 48q30 -16 63 -16q23 0 37 10t14 31q0 22 -21 32.5t-68 10.5l13 114h54v-74z" />
    <glyph glyph-name="uni00B9" unicode="&#xb9;" horiz-adv-x="400" 
d="M270 322h-71v343l-99 -58l-31 49l138 82h63v-416z" />
    <glyph glyph-name="ordmasculine" unicode="&#xba;" horiz-adv-x="500" 
d="M391 633q50 -55 50 -153q0 -95 -51 -151.5t-140 -56.5q-90 0 -140.5 55.5t-50.5 152.5q0 95 51 151.5t141 56.5t140 -55zM146 480q0 -73 26.5 -109t77.5 -36q104 0 104 145q0 144 -103 144q-105 0 -105 -144zM64 71h371v-71h-371v71z" />
    <glyph glyph-name="guillemotright" unicode="&#xbb;" horiz-adv-x="561" 
d="M282 315v-57l-173 -215l-50 35l135 209l-135 210l50 34zM502 315v-57l-172 -215l-50 35l135 209l-135 210l50 34z" />
    <glyph glyph-name="onequarter" unicode="&#xbc;" horiz-adv-x="928" 
d="M695 723l-407 -799l-55 26l407 799zM199 272v343l-99 -58l-31 49l138 82h63v-416h-71zM882 98h-53v-98h-70v98h-187v50l129 275l60 -23l-114 -247h113l6 108h63v-108h53v-55z" />
    <glyph glyph-name="onehalf" unicode="&#xbd;" horiz-adv-x="928" 
d="M695 723l-407 -799l-55 26l407 799zM270 272h-71v343l-99 -58l-31 49l138 82h63v-416zM822.5 390q36.5 -33 36.5 -85q0 -35 -16.5 -67t-54 -72t-110.5 -108h191l-7 -58h-265v54q84 82 121 121.5t52 67t15 56.5q0 32 -18 49t-49 17q-27 0 -46.5 -10t-40.5 -34l-46 35
q56 67 138 67q63 0 99.5 -33z" />
    <glyph glyph-name="threequarters" unicode="&#xbe;" horiz-adv-x="928" 
d="M695 723l-407 -799l-55 26l407 799zM303 299q-42 -36 -112 -36q-85 0 -136 59l41 39q20 -22 42.5 -31.5t49.5 -9.5q38 0 60.5 20t22.5 54q0 37 -21.5 53.5t-61.5 16.5h-33l9 52h22q32 0 53.5 17t21.5 49q0 27 -18.5 42.5t-50.5 15.5q-25 0 -46 -8.5t-43 -28.5l-37 41
q57 51 132 51q62 0 98 -30t36 -75q0 -38 -23 -63t-63 -34q44 -4 71.5 -30t27.5 -73q0 -55 -42 -91zM882 98h-53v-98h-70v98h-187v50l129 275l60 -23l-114 -247h113l6 108h63v-108h53v-55z" />
    <glyph glyph-name="questiondown" unicode="&#xbf;" horiz-adv-x="456" 
d="M206.5 380.5q-18.5 18.5 -18.5 45.5t18.5 45.5t46.5 18.5q27 0 45.5 -18.5t18.5 -45.5t-18.5 -45.5t-45.5 -18.5q-28 0 -46.5 18.5zM118 -192q-42 21 -63.5 56t-21.5 76q0 39 13.5 66t33 44.5t51.5 38.5q42 28 62.5 52t20.5 64v43h83v-47q0 -41 -14 -70t-34.5 -46.5
t-52.5 -38.5q-39 -26 -57.5 -47t-18.5 -54q0 -41 28 -64.5t76 -23.5q82 0 142 72l58 -44q-43 -50 -93.5 -74t-111.5 -24q-59 0 -101 21z" />
    <glyph glyph-name="Agrave" unicode="&#xc0;" horiz-adv-x="571" 
d="M372 756l-212 78l36 72l198 -105zM418 176h-268l-54 -176h-88l223 688h110l222 -688h-92zM396 247l-112 369l-113 -369h225z" />
    <glyph glyph-name="Aacute" unicode="&#xc1;" horiz-adv-x="571" 
d="M191 756l-22 45l197 105l37 -72zM418 176h-268l-54 -176h-88l223 688h110l222 -688h-92zM396 247l-112 369l-113 -369h225z" />
    <glyph glyph-name="Acircumflex" unicode="&#xc2;" horiz-adv-x="571" 
d="M160 760l-37 41l135 108h55l134 -108l-36 -41l-126 81zM418 176h-268l-54 -176h-88l223 688h110l222 -688h-92zM396 247l-112 369l-113 -369h225z" />
    <glyph glyph-name="Atilde" unicode="&#xc3;" horiz-adv-x="571" 
d="M200 821.5q-12 -10.5 -26 -34.5l-51 26q41 83 105 83q20 0 34.5 -7t34.5 -20q18 -11 27 -15.5t20 -4.5q15 0 27 10.5t27 33.5l51 -26q-39 -83 -105 -83q-19 0 -34.5 7t-35.5 21q-2 2 -12 8t-18.5 9t-15.5 3q-16 0 -28 -10.5zM418 176h-268l-54 -176h-88l223 688h110
l222 -688h-92zM396 247l-112 369l-113 -369h225z" />
    <glyph glyph-name="Adieresis" unicode="&#xc4;" horiz-adv-x="571" 
d="M145.5 797.5q-15.5 15.5 -15.5 37.5q0 23 15.5 38t37.5 15q23 0 38 -15t15 -38q0 -22 -15 -37.5t-38 -15.5q-22 0 -37.5 15.5zM350.5 797.5q-15.5 15.5 -15.5 37.5q0 23 15.5 38t37.5 15q23 0 38 -15t15 -38q0 -22 -15 -37.5t-38 -15.5q-22 0 -37.5 15.5zM418 176h-268
l-54 -176h-88l223 688h110l222 -688h-92zM396 247l-112 369l-113 -369h225z" />
    <glyph glyph-name="Aring" unicode="&#xc5;" horiz-adv-x="571" 
d="M207 781.5q-31 29.5 -31 73.5t31 73.5t79 29.5t79 -29.5t31 -73.5t-31 -73.5t-79 -29.5t-79 29.5zM246 897q-14 -15 -14 -42q0 -26 14.5 -41t39.5 -15t39 15t14 41q0 27 -14 42t-39 15q-26 0 -40 -15zM418 176h-268l-54 -176h-88l223 688h110l222 -688h-92zM396 247
l-112 369l-113 -369h225z" />
    <glyph glyph-name="AE" unicode="&#xc6;" horiz-adv-x="808" 
d="M756 70v-70h-297l-42 176h-271l-67 -176h-88l272 688h451l-10 -70h-313l59 -233h255v-70h-238l62 -245h227zM401 246l-88 373l-141 -373h229z" />
    <glyph glyph-name="Ccedilla" unicode="&#xc7;" horiz-adv-x="558" 
d="M442.5 -85q22.5 -23 22.5 -56q0 -46 -34 -71.5t-86 -25.5q-28 0 -51 6.5t-37 17.5l23 48q29 -16 63 -16q23 0 37 10t14 31t-21.5 32t-67.5 11l10 87q-76 7 -134 50.5t-90.5 121t-32.5 183.5q0 113 37.5 193.5t102 121.5t144.5 41q60 0 101.5 -16t85.5 -51l-47 -56
q-33 26 -65.5 38.5t-69.5 12.5q-89 0 -143 -67.5t-54 -216.5q0 -143 54 -212.5t142 -69.5q45 0 78 14.5t70 42.5l43 -55q-66 -66 -165 -75v-47q48 -4 70.5 -27z" />
    <glyph glyph-name="Egrave" unicode="&#xc8;" horiz-adv-x="530" 
d="M398 801l-22 -45l-212 78l36 72zM460 618h-271v-232h235v-70h-235v-246h288v-70h-374v688h367z" />
    <glyph glyph-name="Eacute" unicode="&#xc9;" horiz-adv-x="530" 
d="M407 834l-212 -78l-22 45l197 105zM460 618h-271v-232h235v-70h-235v-246h288v-70h-374v688h367z" />
    <glyph glyph-name="Ecircumflex" unicode="&#xca;" horiz-adv-x="530" 
d="M127 801l135 108h55l133 -108l-35 -41l-126 81l-125 -81zM460 618h-271v-232h235v-70h-235v-246h288v-70h-374v688h367z" />
    <glyph glyph-name="Edieresis" unicode="&#xcb;" horiz-adv-x="530" 
d="M225 873q15 -15 15 -38q0 -22 -15 -37.5t-38 -15.5t-38.5 15t-15.5 38t15.5 38t38.5 15t38 -15zM429.5 873q15.5 -15 15.5 -38t-15.5 -38t-38.5 -15q-22 0 -37.5 15.5t-15.5 37.5q0 23 15.5 38t37.5 15q23 0 38.5 -15zM460 618h-271v-232h235v-70h-235v-246h288v-70h-374
v688h367z" />
    <glyph glyph-name="Igrave" unicode="&#xcc;" horiz-adv-x="292" 
d="M254 801l-22 -45l-212 78l36 72zM189 0h-86v688h86v-688z" />
    <glyph glyph-name="Iacute" unicode="&#xcd;" horiz-adv-x="292" 
d="M262 834l-212 -78l-22 45l198 105zM189 0h-86v688h86v-688z" />
    <glyph glyph-name="Icircumflex" unicode="&#xce;" horiz-adv-x="292" 
d="M-17 801l134 108h56l133 -108l-36 -41l-125 81l-125 -81zM189 0h-86v688h86v-688z" />
    <glyph glyph-name="Idieresis" unicode="&#xcf;" horiz-adv-x="292" 
d="M81 873q15 -15 15 -38q0 -22 -15 -37.5t-38 -15.5t-38.5 15t-15.5 38t15.5 38t38.5 15t38 -15zM285.5 873q15.5 -15 15.5 -38t-15.5 -38t-38.5 -15q-22 0 -37.5 15.5t-15.5 37.5q0 23 15.5 38t37.5 15q23 0 38.5 -15zM189 0h-86v688h86v-688z" />
    <glyph glyph-name="Eth" unicode="&#xd0;" horiz-adv-x="651" 
d="M501 615.5q93 -72.5 93 -267.5q0 -192 -93 -270t-227 -78h-161v320h-92v65h92v303h142q153 0 246 -72.5zM440 129.5q62 60.5 62 218.5q0 111 -32 170.5t-81.5 79.5t-115.5 20h-73v-233h161v-65h-161v-251h80q98 0 160 60.5z" />
    <glyph glyph-name="Ntilde" unicode="&#xd1;" horiz-adv-x="681" 
d="M374.5 791q-15.5 7 -34.5 20q-15 11 -25.5 16t-21.5 5q-16 0 -28.5 -10.5t-25.5 -34.5l-51 26q19 38 45.5 60.5t59.5 22.5q20 0 34.5 -7t34.5 -20q18 -11 27 -15.5t20 -4.5q15 0 27 10.5t27 33.5l51 -26q-19 -41 -45.5 -62t-59.5 -21q-19 0 -34.5 7zM578 0h-116l-290 593
q12 -132 12 -261v-332h-81v688h113l292 -594q-3 29 -7 91.5t-4 117.5v385h81v-688z" />
    <glyph glyph-name="Ograve" unicode="&#xd2;" horiz-adv-x="692" 
d="M454 801l-22 -45l-212 78l36 72zM497 658.5q65 -41.5 101 -121.5t36 -194q0 -112 -36 -192t-101 -121.5t-151 -41.5t-151 41t-101 120.5t-36 192.5q0 111 36 192t101.5 123.5t150.5 42.5q86 0 151 -41.5zM202 558q-52 -70 -52 -216q0 -144 52.5 -213t143.5 -69
q94 0 145 68.5t51 214.5t-51 215.5t-145 69.5q-92 0 -144 -70z" />
    <glyph glyph-name="Oacute" unicode="&#xd3;" horiz-adv-x="692" 
d="M463 834l-212 -78l-22 45l197 105zM497 658.5q65 -41.5 101 -121.5t36 -194q0 -112 -36 -192t-101 -121.5t-151 -41.5t-151 41t-101 120.5t-36 192.5q0 111 36 192t101.5 123.5t150.5 42.5q86 0 151 -41.5zM202 558q-52 -70 -52 -216q0 -144 52.5 -213t143.5 -69
q94 0 145 68.5t51 214.5t-51 215.5t-145 69.5q-92 0 -144 -70z" />
    <glyph glyph-name="Ocircumflex" unicode="&#xd4;" horiz-adv-x="692" 
d="M183 801l135 108h55l134 -108l-36 -41l-126 81l-125 -81zM497 658.5q65 -41.5 101 -121.5t36 -194q0 -112 -36 -192t-101 -121.5t-151 -41.5t-151 41t-101 120.5t-36 192.5q0 111 36 192t101.5 123.5t150.5 42.5q86 0 151 -41.5zM202 558q-52 -70 -52 -216
q0 -144 52.5 -213t143.5 -69q94 0 145 68.5t51 214.5t-51 215.5t-145 69.5q-92 0 -144 -70z" />
    <glyph glyph-name="Otilde" unicode="&#xd5;" horiz-adv-x="692" 
d="M369.5 791q-15.5 7 -35.5 21q-2 2 -12 8t-18.5 9t-15.5 3q-17 0 -29.5 -11t-24.5 -34l-51 26q18 38 44.5 60.5t60.5 22.5q20 0 34.5 -7t34.5 -20q18 -11 27 -15.5t20 -4.5q15 0 27 10.5t27 33.5l51 -26q-39 -83 -105 -83q-19 0 -34.5 7zM497 658.5q65 -41.5 101 -121.5
t36 -194q0 -112 -36 -192t-101 -121.5t-151 -41.5t-151 41t-101 120.5t-36 192.5q0 111 36 192t101.5 123.5t150.5 42.5q86 0 151 -41.5zM202 558q-52 -70 -52 -216q0 -144 52.5 -213t143.5 -69q94 0 145 68.5t51 214.5t-51 215.5t-145 69.5q-92 0 -144 -70z" />
    <glyph glyph-name="Odieresis" unicode="&#xd6;" horiz-adv-x="692" 
d="M281 873q15 -15 15 -38q0 -22 -15 -37.5t-38 -15.5t-38.5 15.5t-15.5 37.5t15.5 37.5t38.5 15.5t38 -15zM486 873q15 -15 15 -38q0 -22 -15 -37.5t-38 -15.5q-22 0 -37.5 15.5t-15.5 37.5q0 23 15.5 38t37.5 15q23 0 38 -15zM497 658.5q65 -41.5 101 -121.5t36 -194
q0 -112 -36 -192t-101 -121.5t-151 -41.5t-151 41t-101 120.5t-36 192.5q0 111 36 192t101.5 123.5t150.5 42.5q86 0 151 -41.5zM202 558q-52 -70 -52 -216q0 -144 52.5 -213t143.5 -69q94 0 145 68.5t51 214.5t-51 215.5t-145 69.5q-92 0 -144 -70z" />
    <glyph glyph-name="multiply" unicode="&#xd7;" horiz-adv-x="498" 
d="M423 430l-121 -121l121 -125l-51 -52l-121 126l-124 -126l-52 52l121 121l-121 125l52 53l120 -127l125 127z" />
    <glyph glyph-name="Oslash" unicode="&#xd8;" horiz-adv-x="692" 
d="M594 546q40 -83 40 -203q0 -112 -36 -192t-101 -121.5t-151 -41.5q-38 0 -69 7l-35 -120l-73 19l39 127q-71 39 -110.5 121t-39.5 200q0 111 36 192t101.5 123.5t150.5 42.5q38 0 67 -7l38 124l72 -20l-41 -129q72 -39 112 -122zM239 90l160 532q-25 6 -53 6
q-92 0 -144 -70t-52 -216q0 -191 89 -252zM491 128.5q51 68.5 51 214.5q0 197 -91 257l-160 -534q27 -6 55 -6q94 0 145 68.5z" />
    <glyph glyph-name="Ugrave" unicode="&#xd9;" horiz-adv-x="660" 
d="M438 801l-22 -45l-212 78l36 72zM567 219q0 -104 -62.5 -167.5t-175.5 -63.5q-114 0 -175 63t-61 168v469h86v-462q0 -164 150 -164q76 0 113 41t37 123v462h88v-469z" />
    <glyph glyph-name="Uacute" unicode="&#xda;" horiz-adv-x="660" 
d="M447 834l-212 -78l-22 45l197 105zM567 219q0 -104 -62.5 -167.5t-175.5 -63.5q-114 0 -175 63t-61 168v469h86v-462q0 -164 150 -164q76 0 113 41t37 123v462h88v-469z" />
    <glyph glyph-name="Ucircumflex" unicode="&#xdb;" horiz-adv-x="660" 
d="M167 801l135 108h55l134 -108l-36 -41l-126 81l-125 -81zM567 219q0 -104 -62.5 -167.5t-175.5 -63.5q-114 0 -175 63t-61 168v469h86v-462q0 -164 150 -164q76 0 113 41t37 123v462h88v-469z" />
    <glyph glyph-name="Udieresis" unicode="&#xdc;" horiz-adv-x="660" 
d="M265 873q15 -15 15 -38q0 -22 -15 -37.5t-38 -15.5t-38.5 15t-15.5 38t15.5 38t38.5 15t38 -15zM470 873q15 -15 15 -38q0 -22 -15 -37.5t-38 -15.5q-22 0 -37.5 15.5t-15.5 37.5q0 23 15.5 38t37.5 15q23 0 38 -15zM567 219q0 -104 -62.5 -167.5t-175.5 -63.5
q-114 0 -175 63t-61 168v469h86v-462q0 -164 150 -164q76 0 113 41t37 123v462h88v-469z" />
    <glyph glyph-name="Yacute" unicode="&#xdd;" horiz-adv-x="544" 
d="M389 834l-212 -78l-22 45l197 105zM316 266v-266h-88v265l-221 423h96l172 -346l171 346h91z" />
    <glyph glyph-name="Thorn" unicode="&#xde;" horiz-adv-x="578" 
d="M474 515.5q69 -53.5 69 -161.5q0 -115 -71.5 -170t-192.5 -55h-90v-129h-86v688h86v-119h90q126 0 195 -53.5zM406.5 232q44.5 34 44.5 121q0 79 -44.5 113.5t-128.5 34.5h-89v-303h87q86 0 130.5 34z" />
    <glyph glyph-name="germandbls" unicode="&#xdf;" horiz-adv-x="590" 
d="M388.5 729.5q40.5 -18.5 62 -50.5t21.5 -72t-17.5 -64.5t-49.5 -50.5q-24 -20 -35 -33.5t-11 -32.5q0 -23 17 -40t52 -41q37 -26 61 -47.5t41.5 -55.5t17.5 -82q0 -51 -23.5 -90.5t-63.5 -60.5t-87 -21q-58 0 -101 23l25 59q30 -14 68 -14q44 0 70.5 27t26.5 78
q0 33 -13 57.5t-31.5 41t-51.5 40.5q-44 31 -65.5 56t-21.5 64q0 32 14 51.5t42 42.5q27 22 41 40.5t14 48.5q0 38 -27 58.5t-69 20.5q-54 0 -83.5 -35.5t-29.5 -107.5v-539h-84v539q0 99 52 154t145 55q53 0 93.5 -18.5z" />
    <glyph glyph-name="agrave" unicode="&#xe0;" horiz-adv-x="542" 
d="M360 640l-208 85l38 72l196 -112zM456.5 70.5q10.5 -15.5 33.5 -23.5l-20 -59q-40 6 -64 24.5t-34 56.5q-54 -81 -158 -81q-77 0 -121.5 43.5t-44.5 115.5q0 83 59.5 127.5t168.5 44.5h86v42q0 57 -27.5 82.5t-85.5 25.5q-60 0 -142 -29l-21 62q95 36 178 36
q92 0 137 -44.5t45 -128.5v-244q0 -35 10.5 -50.5zM362 138v125h-75q-150 0 -150 -112q0 -48 24.5 -73.5t71.5 -25.5q84 0 129 86z" />
    <glyph glyph-name="aacute" unicode="&#xe1;" horiz-adv-x="542" 
d="M168 640l-26 45l196 112l38 -72zM456.5 70.5q10.5 -15.5 33.5 -23.5l-20 -59q-40 6 -64 24.5t-34 56.5q-54 -81 -158 -81q-77 0 -121.5 43.5t-44.5 115.5q0 83 59.5 127.5t168.5 44.5h86v42q0 57 -27.5 82.5t-85.5 25.5q-60 0 -142 -29l-21 62q95 36 178 36
q92 0 137 -44.5t45 -128.5v-244q0 -35 10.5 -50.5zM362 138v125h-75q-150 0 -150 -112q0 -48 24.5 -73.5t71.5 -25.5q84 0 129 86z" />
    <glyph glyph-name="acircumflex" unicode="&#xe2;" horiz-adv-x="542" 
d="M135 636l-36 42l133 111h55l135 -111l-37 -42l-125 84zM456.5 70.5q10.5 -15.5 33.5 -23.5l-20 -59q-40 6 -64 24.5t-34 56.5q-54 -81 -158 -81q-77 0 -121.5 43.5t-44.5 115.5q0 83 59.5 127.5t168.5 44.5h86v42q0 57 -27.5 82.5t-85.5 25.5q-60 0 -142 -29l-21 62
q95 36 178 36q92 0 137 -44.5t45 -128.5v-244q0 -35 10.5 -50.5zM362 138v125h-75q-150 0 -150 -112q0 -48 24.5 -73.5t71.5 -25.5q84 0 129 86z" />
    <glyph glyph-name="atilde" unicode="&#xe3;" horiz-adv-x="542" 
d="M173.5 695.5q-11.5 -10.5 -25.5 -34.5l-51 26q19 38 45.5 60.5t59.5 22.5q20 0 34.5 -7t34.5 -20q18 -11 27 -15.5t20 -4.5q15 0 27.5 10.5t26.5 33.5l51 -26q-19 -41 -45.5 -62t-59.5 -21q-19 0 -34.5 7t-34.5 20q-15 11 -25.5 16t-21.5 5q-17 0 -28.5 -10.5z
M456.5 70.5q10.5 -15.5 33.5 -23.5l-20 -59q-40 6 -64 24.5t-34 56.5q-54 -81 -158 -81q-77 0 -121.5 43.5t-44.5 115.5q0 83 59.5 127.5t168.5 44.5h86v42q0 57 -27.5 82.5t-85.5 25.5q-60 0 -142 -29l-21 62q95 36 178 36q92 0 137 -44.5t45 -128.5v-244q0 -35 10.5 -50.5
zM362 138v125h-75q-150 0 -150 -112q0 -48 24.5 -73.5t71.5 -25.5q84 0 129 86z" />
    <glyph glyph-name="adieresis" unicode="&#xe4;" horiz-adv-x="542" 
d="M119.5 671q-15.5 15 -15.5 38t15.5 38t38.5 15t38 -15t15 -38q0 -22 -15 -37.5t-38 -15.5t-38.5 15zM324.5 671.5q-15.5 15.5 -15.5 37.5q0 23 15.5 38t37.5 15q23 0 38.5 -15t15.5 -38t-15.5 -38t-38.5 -15q-22 0 -37.5 15.5zM456.5 70.5q10.5 -15.5 33.5 -23.5l-20 -59
q-40 6 -64 24.5t-34 56.5q-54 -81 -158 -81q-77 0 -121.5 43.5t-44.5 115.5q0 83 59.5 127.5t168.5 44.5h86v42q0 57 -27.5 82.5t-85.5 25.5q-60 0 -142 -29l-21 62q95 36 178 36q92 0 137 -44.5t45 -128.5v-244q0 -35 10.5 -50.5zM362 138v125h-75q-150 0 -150 -112
q0 -48 24.5 -73.5t71.5 -25.5q84 0 129 86z" />
    <glyph glyph-name="aring" unicode="&#xe5;" horiz-adv-x="542" 
d="M181 655.5q-31 29.5 -31 73.5t31 73.5t79 29.5t79.5 -29.5t31.5 -73.5t-31.5 -73.5t-79.5 -29.5t-79 29.5zM221 771q-14 -15 -14 -42q0 -26 14 -41t39 -15t39.5 15t14.5 41q0 27 -14 42t-40 15q-25 0 -39 -15zM456.5 70.5q10.5 -15.5 33.5 -23.5l-20 -59q-40 6 -64 24.5
t-34 56.5q-54 -81 -158 -81q-77 0 -121.5 43.5t-44.5 115.5q0 83 59.5 127.5t168.5 44.5h86v42q0 57 -27.5 82.5t-85.5 25.5q-60 0 -142 -29l-21 62q95 36 178 36q92 0 137 -44.5t45 -128.5v-244q0 -35 10.5 -50.5zM362 138v125h-75q-150 0 -150 -112q0 -48 24.5 -73.5
t71.5 -25.5q84 0 129 86z" />
    <glyph glyph-name="ae" unicode="&#xe6;" horiz-adv-x="848" 
d="M793 234h-339q6 -91 45 -134t102 -43q39 0 71 11t67 36l37 -50q-41 -32 -85 -49t-96 -17q-63 0 -111.5 25.5t-77.5 73.5q-38 -53 -83 -76t-106 -23q-78 0 -123.5 44t-45.5 115q0 83 61 128t170 45h85v41q0 58 -27 83t-85 25q-61 0 -142 -29l-22 62q96 36 178 36
q62 0 100 -22.5t59 -65.5q55 88 160 88q101 0 155.5 -68.5t54.5 -189.5q0 -24 -2 -46zM712 304q0 81 -32.5 124t-96.5 43q-57 0 -90.5 -43t-38.5 -132h258v8zM313.5 75q34.5 23 65.5 72q-15 50 -15 110v6h-74q-150 0 -150 -112q0 -48 24.5 -73.5t70.5 -25.5q44 0 78.5 23z
" />
    <glyph glyph-name="ccedilla" unicode="&#xe7;" horiz-adv-x="476" 
d="M306 -11v-47q48 -4 70.5 -27t22.5 -56q0 -46 -34.5 -71.5t-85.5 -25.5q-28 0 -51 6.5t-37 17.5l23 48q29 -16 62 -16q23 0 37 10t14 31q0 22 -21 32.5t-68 10.5l11 89q-89 13 -139.5 83t-50.5 185q0 84 27.5 147t79 97.5t121.5 34.5q47 0 85 -13t73 -43l-41 -53
q-27 20 -54 29.5t-60 9.5q-66 0 -103.5 -52.5t-37.5 -155.5q0 -102 37 -151t104 -49q32 0 58.5 10t57.5 31l39 -55q-62 -53 -139 -57z" />
    <glyph glyph-name="egrave" unicode="&#xe8;" horiz-adv-x="543" 
d="M378 640l-208 85l38 72l196 -112zM487 234h-339q6 -91 45 -134t102 -43q39 0 71 11t67 36l37 -50q-82 -66 -181 -66q-108 0 -169 72t-61 198q0 82 26 145.5t75 99t115 35.5q104 0 159 -68.5t55 -189.5q0 -24 -2 -46zM406 304q0 81 -32.5 124t-96.5 43q-57 0 -90.5 -43
t-38.5 -132h258v8z" />
    <glyph glyph-name="eacute" unicode="&#xe9;" horiz-adv-x="543" 
d="M186 640l-26 45l196 112l38 -72zM487 234h-339q6 -91 45 -134t102 -43q39 0 71 11t67 36l37 -50q-82 -66 -181 -66q-108 0 -169 72t-61 198q0 82 26 145.5t75 99t115 35.5q104 0 159 -68.5t55 -189.5q0 -24 -2 -46zM406 304q0 81 -32.5 124t-96.5 43q-57 0 -90.5 -43
t-38.5 -132h258v8z" />
    <glyph glyph-name="ecircumflex" unicode="&#xea;" horiz-adv-x="543" 
d="M153 636l-36 42l133 111h55l135 -111l-37 -42l-125 84zM487 234h-339q6 -91 45 -134t102 -43q39 0 71 11t67 36l37 -50q-82 -66 -181 -66q-108 0 -169 72t-61 198q0 82 26 145.5t75 99t115 35.5q104 0 159 -68.5t55 -189.5q0 -24 -2 -46zM406 304q0 81 -32.5 124
t-96.5 43q-57 0 -90.5 -43t-38.5 -132h258v8z" />
    <glyph glyph-name="edieresis" unicode="&#xeb;" horiz-adv-x="543" 
d="M137.5 671q-15.5 15 -15.5 38t15.5 38t38.5 15t38 -15t15 -38q0 -22 -15 -37.5t-38 -15.5t-38.5 15zM342.5 671.5q-15.5 15.5 -15.5 37.5q0 23 15.5 38t37.5 15q23 0 38.5 -15t15.5 -38t-15.5 -38t-38.5 -15q-22 0 -37.5 15.5zM487 234h-339q6 -91 45 -134t102 -43
q39 0 71 11t67 36l37 -50q-82 -66 -181 -66q-108 0 -169 72t-61 198q0 82 26 145.5t75 99t115 35.5q104 0 159 -68.5t55 -189.5q0 -24 -2 -46zM406 304q0 81 -32.5 124t-96.5 43q-57 0 -90.5 -43t-38.5 -132h258v8z" />
    <glyph glyph-name="igrave" unicode="&#xec;" horiz-adv-x="279" 
d="M265 685l-26 -45l-208 85l38 72zM182 0h-84v526h84v-526z" />
    <glyph glyph-name="iacute" unicode="&#xed;" horiz-adv-x="279" 
d="M255 725l-208 -85l-26 45l197 112zM182 0h-84v526h84v-526z" />
    <glyph glyph-name="icircumflex" unicode="&#xee;" horiz-adv-x="279" 
d="M-22 678l133 111h56l134 -111l-37 -42l-125 84l-125 -84zM182 0h-84v526h84v-526z" />
    <glyph glyph-name="idieresis" unicode="&#xef;" horiz-adv-x="279" 
d="M75 747q15 -15 15 -38q0 -22 -15 -37.5t-38 -15.5t-38.5 15t-15.5 38t15.5 38t38.5 15t38 -15zM279.5 747q15.5 -15 15.5 -38t-15.5 -38t-38.5 -15q-22 0 -37.5 15.5t-15.5 37.5q0 23 15.5 38t37.5 15q23 0 38.5 -15zM182 0h-84v526h84v-526z" />
    <glyph glyph-name="eth" unicode="&#xf0;" horiz-adv-x="567" 
d="M465 502q38 -94 38 -234q0 -85 -28.5 -148.5t-79.5 -97.5t-118 -34q-62 0 -111.5 29.5t-78 85t-28.5 131.5q0 62 22.5 116.5t67.5 88.5t109 34q92 0 151 -70q-12 66 -41.5 117t-80.5 92l-74 -72l-58 29l76 77q-52 26 -115 38l18 65q82 -16 148 -50l70 74l50 -43l-64 -66
q89 -68 127 -162zM379.5 111q38.5 56 38.5 159q0 22 -2 56q-55 81 -145 81q-67 0 -96.5 -46.5t-29.5 -122.5q0 -88 35.5 -135.5t95.5 -47.5q65 0 103.5 56z" />
    <glyph glyph-name="ntilde" unicode="&#xf1;" horiz-adv-x="585" 
d="M210.5 695q-12.5 -11 -24.5 -34l-51 26q18 38 44.5 60.5t60.5 22.5q20 0 34.5 -7t34.5 -20q18 -11 27 -15.5t20 -4.5q15 0 27 10.5t27 33.5l51 -26q-39 -83 -105 -83q-19 0 -34.5 7t-35.5 21q-2 2 -12 8t-18.5 9t-15.5 3q-17 0 -29.5 -11zM453.5 495q39.5 -43 39.5 -118
v-377h-84v365q0 58 -22 82.5t-65 24.5q-44 0 -77.5 -25t-62.5 -72v-375h-84v526h72l7 -79q31 43 72.5 67t92.5 24q72 0 111.5 -43z" />
    <glyph glyph-name="ograve" unicode="&#xf2;" 
d="M416 685l-26 -45l-208 85l38 72zM461.5 464.5q60.5 -73.5 60.5 -200.5q0 -126 -61.5 -201t-170.5 -75t-170 73.5t-61 200.5q0 126 61.5 201t170.5 75q110 0 170.5 -73.5zM185.5 418q-36.5 -52 -36.5 -156q0 -103 36 -154.5t105 -51.5t105.5 52t36.5 156q0 103 -36 154.5
t-105 51.5t-105.5 -52z" />
    <glyph glyph-name="oacute" unicode="&#xf3;" 
d="M406 725l-208 -85l-26 45l197 112zM461.5 464.5q60.5 -73.5 60.5 -200.5q0 -126 -61.5 -201t-170.5 -75t-170 73.5t-61 200.5q0 126 61.5 201t170.5 75q110 0 170.5 -73.5zM185.5 418q-36.5 -52 -36.5 -156q0 -103 36 -154.5t105 -51.5t105.5 52t36.5 156
q0 103 -36 154.5t-105 51.5t-105.5 -52z" />
    <glyph glyph-name="ocircumflex" unicode="&#xf4;" 
d="M129 678l133 111h56l134 -111l-37 -42l-125 84l-125 -84zM461.5 464.5q60.5 -73.5 60.5 -200.5q0 -126 -61.5 -201t-170.5 -75t-170 73.5t-61 200.5q0 126 61.5 201t170.5 75q110 0 170.5 -73.5zM185.5 418q-36.5 -52 -36.5 -156q0 -103 36 -154.5t105 -51.5t105.5 52
t36.5 156q0 103 -36 154.5t-105 51.5t-105.5 -52z" />
    <glyph glyph-name="otilde" unicode="&#xf5;" 
d="M314 665q-16 7 -35 20q-15 11 -25.5 16t-21.5 5q-17 0 -28.5 -10.5t-24.5 -34.5l-52 26q19 38 45.5 60.5t59.5 22.5q19 0 34.5 -7t34.5 -20q17 -11 27 -15.5t21 -4.5q15 0 27 10.5t26 33.5l52 -26q-39 -83 -105 -83q-19 0 -35 7zM461.5 464.5q60.5 -73.5 60.5 -200.5
q0 -126 -61.5 -201t-170.5 -75t-170 73.5t-61 200.5q0 126 61.5 201t170.5 75q110 0 170.5 -73.5zM185.5 418q-36.5 -52 -36.5 -156q0 -103 36 -154.5t105 -51.5t105.5 52t36.5 156q0 103 -36 154.5t-105 51.5t-105.5 -52z" />
    <glyph glyph-name="odieresis" unicode="&#xf6;" 
d="M226 747q15 -15 15 -38q0 -22 -15 -37.5t-38 -15.5t-38.5 15t-15.5 38t15.5 38t38.5 15t38 -15zM430.5 747q15.5 -15 15.5 -38t-15.5 -38t-38.5 -15q-22 0 -37.5 15.5t-15.5 37.5q0 23 15.5 38t37.5 15q23 0 38.5 -15zM461.5 464.5q60.5 -73.5 60.5 -200.5
q0 -126 -61.5 -201t-170.5 -75t-170 73.5t-61 200.5q0 126 61.5 201t170.5 75q110 0 170.5 -73.5zM185.5 418q-36.5 -52 -36.5 -156q0 -103 36 -154.5t105 -51.5t105.5 52t36.5 156q0 103 -36 154.5t-105 51.5t-105.5 -52z" />
    <glyph glyph-name="oslash" unicode="&#xf8;" 
d="M493.5 413q28.5 -63 28.5 -149q0 -126 -61.5 -201t-170.5 -75q-26 0 -54 5l-39 -122l-68 20l42 127q-54 32 -83 95t-29 149q0 126 61.5 201t170.5 75q26 0 54 -5l39 121l69 -20l-42 -126q54 -32 82.5 -95zM185.5 418q-36.5 -52 -36.5 -156q0 -135 54 -180l127 384
q-16 4 -39 4q-69 0 -105.5 -52zM395.5 108q36.5 52 36.5 156q0 70 -13 113.5t-40 65.5l-127 -384q18 -3 38 -3q69 0 105.5 52z" />
    <glyph glyph-name="ugrave" unicode="&#xf9;" 
d="M414 685l-26 -45l-208 85l38 72zM484 0h-72l-7 85q-30 -49 -69.5 -73t-95.5 -24q-70 0 -108.5 42t-38.5 119v377h84v-368q0 -56 20 -79.5t66 -23.5q81 0 137 94v377h84v-526z" />
    <glyph glyph-name="uacute" unicode="&#xfa;" 
d="M404 725l-208 -85l-26 45l197 112zM484 0h-72l-7 85q-30 -49 -69.5 -73t-95.5 -24q-70 0 -108.5 42t-38.5 119v377h84v-368q0 -56 20 -79.5t66 -23.5q81 0 137 94v377h84v-526z" />
    <glyph glyph-name="ucircumflex" unicode="&#xfb;" 
d="M127 678l133 111h56l134 -111l-37 -42l-125 84l-125 -84zM484 0h-72l-7 85q-30 -49 -69.5 -73t-95.5 -24q-70 0 -108.5 42t-38.5 119v377h84v-368q0 -56 20 -79.5t66 -23.5q81 0 137 94v377h84v-526z" />
    <glyph glyph-name="udieresis" unicode="&#xfc;" 
d="M224 747q15 -15 15 -38q0 -22 -15 -37.5t-38 -15.5t-38.5 15t-15.5 38t15.5 38t38.5 15t38 -15zM428.5 747q15.5 -15 15.5 -38t-15.5 -38t-38.5 -15q-22 0 -37.5 15.5t-15.5 37.5q0 23 15.5 38t37.5 15q23 0 38.5 -15zM484 0h-72l-7 85q-30 -49 -69.5 -73t-95.5 -24
q-70 0 -108.5 42t-38.5 119v377h84v-368q0 -56 20 -79.5t66 -23.5q81 0 137 94v377h84v-526z" />
    <glyph glyph-name="yacute" unicode="&#xfd;" horiz-adv-x="486" 
d="M359 725l-208 -85l-26 45l196 112zM298 -3q-30 -92 -84 -143.5t-153 -64.5l-10 66q52 10 83 27.5t49 44.5t35 73h-29l-178 526h90l145 -465l142 465h87z" />
    <glyph glyph-name="thorn" unicode="&#xfe;" horiz-adv-x="591" 
d="M480 466.5q47 -71.5 47 -202.5q0 -125 -53 -200.5t-152 -75.5q-90 0 -140 62v-247l-84 -14v949l84 10v-287q28 37 67 57t84 20q100 0 147 -71.5zM437 264q0 207 -124 207q-40 0 -73.5 -23.5t-57.5 -60.5v-263q21 -32 52 -49.5t69 -17.5q134 0 134 207z" />
    <glyph glyph-name="ydieresis" unicode="&#xff;" horiz-adv-x="486" 
d="M178 747q15 -15 15 -38q0 -22 -15 -37.5t-38 -15.5q-22 0 -37.5 15.5t-15.5 37.5q0 23 15.5 38t37.5 15q23 0 38 -15zM383.5 747q15.5 -15 15.5 -38t-15.5 -38t-38.5 -15q-22 0 -37.5 15.5t-15.5 37.5q0 23 15.5 38t37.5 15q23 0 38.5 -15zM298 -3q-30 -92 -84 -143.5
t-153 -64.5l-10 66q52 10 83 27.5t49 44.5t35 73h-29l-178 526h90l145 -465l142 465h87z" />
    <glyph glyph-name="dotlessi" unicode="&#x131;" horiz-adv-x="279" 
d="M182 0h-84v526h84v-526z" />
    <glyph glyph-name="OE" unicode="&#x152;" horiz-adv-x="891" 
d="M838 0h-432q-34 -12 -73 -12q-80 0 -142 41t-97.5 121t-35.5 192q0 111 35.5 192t98 123.5t141.5 42.5q40 0 76 -12h422l-10 -70h-303q41 -38 65.5 -97.5t29.5 -134.5h172v-70h-172q-4 -79 -29.5 -142t-70.5 -104h325v-70zM200.5 129.5q50.5 -69.5 135.5 -69.5
q87 0 136.5 69.5t49.5 215.5q0 144 -49.5 213.5t-136.5 69.5q-86 0 -136 -70.5t-50 -215.5q0 -143 50.5 -212.5z" />
    <glyph glyph-name="oe" unicode="&#x153;" horiz-adv-x="916" 
d="M861 234h-339q6 -91 45 -134t102 -43q39 0 70.5 11t66.5 36l37 -50q-82 -66 -181 -66q-127 0 -187 113q-60 -113 -185 -113q-109 0 -170 73.5t-61 200.5q0 126 61.5 201t170.5 75q128 0 187 -111q58 111 175 111q101 0 155.5 -68.5t54.5 -189.5q0 -24 -2 -46zM780 304
q0 80 -32 123.5t-93 43.5q-123 0 -133 -175h258v8zM395.5 108q36.5 52 36.5 156q0 103 -36 154.5t-105 51.5t-105.5 -52t-36.5 -156q0 -103 36 -154.5t105 -51.5t105.5 52z" />
    <glyph glyph-name="circumflex" unicode="&#x2c6;" horiz-adv-x="383" 
d="M30 678l134 111h55l134 -111l-36 -42l-125 84l-126 -84z" />
    <glyph glyph-name="ring" unicode="&#x2da;" horiz-adv-x="281" 
d="M219.5 802.5q31.5 -29.5 31.5 -73.5t-31.5 -73.5t-79.5 -29.5t-79 29.5t-31 73.5t31 73.5t79 29.5t79.5 -29.5zM101 771q-14 -15 -14 -42q0 -26 14 -41t39 -15t39.5 15t14.5 41q0 27 -14 42t-40 15q-25 0 -39 -15z" />
    <glyph glyph-name="tilde" unicode="&#x2dc;" horiz-adv-x="386" 
d="M216.5 665q-15.5 7 -34.5 20q-15 11 -25.5 16t-21.5 5q-17 0 -28.5 -10.5t-25.5 -34.5l-51 26q41 83 105 83q20 0 34.5 -7t34.5 -20q18 -11 27 -15.5t20 -4.5q15 0 27 10.5t27 33.5l51 -26q-19 -41 -45.5 -62t-59.5 -21q-19 0 -34.5 7z" />
    <glyph glyph-name="uni10D0" unicode="&#x10d0;" horiz-adv-x="451" 
d="M129 12q-43 24 -67.5 67.5t-24.5 98.5v39h81v-39q0 -46 27.5 -80.5t79.5 -34.5q36 0 60.5 16.5t36 40.5t11.5 47q0 31 -12 55.5t-28.5 42t-47.5 44.5q-44 38 -66.5 69t-22.5 77h81q0 -24 16 -44t50 -48q35 -30 57 -54t38 -59.5t16 -82.5q0 -50 -24.5 -91t-68 -64.5
t-96.5 -23.5t-96 24z" />
    <glyph glyph-name="uni10D1" unicode="&#x10d1;" horiz-adv-x="471" 
d="M136.5 16.5q-45.5 28.5 -72.5 78t-27 108.5q0 50 17 87t39.5 59t56.5 49q18 13 28 21.5t14 17.5l9 47l11 55q1 3 1 10q0 13 -8.5 22.5t-24.5 13.5q-30 8 -57 16v-85h-76v194h73q4 -23 25 -35t59 -23l29 -9q31 -12 45 -29t16 -42q1 -7 -0.5 -17.5t-3.5 -17.5l-5 -23
q-13 -60 -15 -75q1 -4 8.5 -11t14.5 -12.5t10 -7.5q36 -28 62.5 -53.5t47.5 -64.5t21 -87q0 -63 -26.5 -112t-72 -76t-99.5 -27t-99.5 28.5zM320 99q34 36 34 104q0 62 -38.5 100t-84.5 63q-37 -24 -58 -41t-38 -47.5t-17 -74.5q0 -42 17 -74t44 -49t57 -17q50 0 84 36z" />
    <glyph glyph-name="uni10D2" unicode="&#x10d2;" horiz-adv-x="433" 
d="M141.5 -302.5q-49.5 29.5 -77 81.5t-27.5 117q0 55 16 94.5t39 65t62 58.5q38 32 54 50q22 24 34 50.5t12 60.5q0 26 -16.5 49t-49.5 23t-51.5 -20.5t-18.5 -44.5q0 -25 8 -44h-78q-8 19 -8 44q0 61 39 100.5t115 39.5q45 0 77 -20t48 -52t16 -68q0 -42 -8 -66t-25 -54
q6 -5 53.5 -42.5t83.5 -98.5t36 -125q0 -65 -27.5 -117t-77.5 -81.5t-114 -29.5q-65 0 -114.5 29.5zM354.5 -214.5q39.5 42.5 39.5 104.5q0 55 -27 99.5t-49 64t-65 52.5q-6 -7 -28 -25q-48 -39 -77.5 -81.5t-29.5 -109.5q0 -62 39 -104.5t99 -42.5q59 0 98.5 42.5z" />
    <glyph glyph-name="uni10D3" unicode="&#x10d3;" horiz-adv-x="678" 
d="M416 -216q-65 53 -147 87t-159 34h-43l-13 68h88v2q-56 52 -80.5 120t-24.5 135q0 53 19.5 97t56 69.5t86.5 25.5q45 0 72.5 -17t48.5 -46h4q22 28 53 45.5t82 17.5q55 0 96 -25.5t63.5 -70t22.5 -101.5q0 -86 -50 -141t-132 -55t-132 55t-50 141q0 27 1.5 38.5t6.5 33.5
q-28 50 -82 50q-39 0 -62 -30t-23 -88q0 -77 22.5 -130t60 -88t91.5 -66q117 -66 205 -130t111 -135h-98q-29 51 -94 104zM534.5 137.5q26.5 33.5 26.5 88.5t-27 88t-75 33q-49 0 -75 -33t-26 -88t26 -88.5t75 -33.5t75.5 33.5z" />
    <glyph glyph-name="uni10D4" unicode="&#x10d4;" horiz-adv-x="432" 
d="M103 -306.5q-42 25.5 -66 72.5t-24 108q0 85 29 161h77q-4 -18 -7 -27q-9 -32 -13.5 -61.5t-4.5 -76.5q0 -59 29.5 -93t73.5 -34q43 0 71.5 34t28.5 93v373q0 50 -24.5 77t-62.5 27q-45 0 -66 -28t-21 -77q0 -31 7 -59h-81q-1 8 -4.5 25.5t-3.5 31.5q0 80 44.5 131
t122.5 51q80 0 123.5 -50t43.5 -132v-366q0 -61 -23 -108t-64 -72.5t-92 -25.5t-93 25.5z" />
    <glyph glyph-name="uni10D5" unicode="&#x10d5;" horiz-adv-x="449" 
d="M88 -273q-51 57 -51 160q0 46 6 77.5t19 57.5h75q-19 -50 -19 -141q0 -66 29.5 -101t75.5 -35q102 0 102 154q0 161 -94 163h-41v62q47 11 74.5 44t27.5 84q0 42 -21.5 68.5t-65.5 26.5q-45 0 -66 -27t-21 -68q0 -29 15 -67h-81q-15 40 -15 72q0 75 44.5 120t123.5 45
t123.5 -45.5t44.5 -119.5q0 -55 -19 -88t-54 -58v-4q47 -13 76.5 -57.5t29.5 -144.5q0 -115 -49.5 -175t-133.5 -60t-135 57z" />
    <glyph glyph-name="uni10D6" unicode="&#x10d6;" horiz-adv-x="616" 
d="M280.5 47.5q-39.5 59.5 -39.5 148.5q0 107 3 245h-3q-6 -10 -29 -22t-47 -12q-74 0 -112 45.5t-38 114.5q0 68 40.5 111.5t117.5 43.5t117.5 -43.5t40.5 -111.5q0 -44 -8 -160l-3 -40h2q16 29 50 63l82 82l92 -2l-148 -117q15 5 36 5q37 -2 70.5 -25.5t54.5 -65t21 -93.5
q0 -70 -22.5 -121t-61.5 -78t-88 -27q-88 0 -127.5 59.5zM234 502q23 26 23 65q0 38 -23 64.5t-61 26.5t-61 -26.5t-23 -64.5q0 -39 23 -65t61 -26t61 26zM475.5 101q23.5 38 23.5 99q0 60 -23.5 98t-67.5 38t-66.5 -37t-22.5 -99q0 -61 22.5 -99t66.5 -38t67.5 38z" />
    <glyph glyph-name="uni10D7" unicode="&#x10d7;" horiz-adv-x="700" 
d="M124 15q-42 27 -64.5 76.5t-22.5 113.5t22.5 113.5t64.5 76.5t97 27q54 0 87 -21t42 -38h2q15 19 51.5 39t82.5 20q51 0 91 -24.5t63 -72t23 -111.5q0 -59 -22.5 -106.5t-52.5 -88.5l-12 -19h-78q2 5 5.5 10.5t6.5 11.5q30 49 51 97t21 94q0 52 -25.5 92.5t-79.5 40.5
q-27 0 -49 -12.5t-36 -31.5q5 -14 9.5 -41t4.5 -56q0 -64 -23 -113t-65 -76.5t-97 -27.5t-97 27zM301.5 101.5q26.5 38.5 26.5 103.5t-27.5 103.5t-79.5 38.5t-77.5 -38.5t-25.5 -103.5t26.5 -103.5t78.5 -38.5t78.5 38.5z" />
    <glyph glyph-name="uni10D8" unicode="&#x10d8;" horiz-adv-x="471" 
d="M54 87q-17 46 -17 111q0 67 24.5 117.5t69.5 78.5t104 28t104.5 -28t70 -78.5t24.5 -117.5q0 -65 -17 -111t-40 -87h-78q2 6 16.5 35.5t26 75.5t11.5 96q0 31 -11.5 63t-38 54.5t-68.5 22.5t-68 -22.5t-37.5 -54.5t-11.5 -63q0 -62 14.5 -108.5t26 -70t13.5 -28.5h-78
q-23 41 -40 87z" />
    <glyph glyph-name="uni10D9" unicode="&#x10d9;" horiz-adv-x="411" 
d="M66 -273q-51 57 -51 160q0 46 6 77.5t19 57.5h75q-19 -50 -19 -141q0 -66 29.5 -101t75.5 -35q103 0 103 153q0 73 -21 123t-67 57h-40v74h14q33 0 57.5 19.5t24.5 64.5q0 41 -17 79.5t-53 94.5h80q30 -40 50.5 -88.5t20.5 -100.5q0 -38 -21 -63.5t-46 -34.5v-2
q98 -27 99 -220q-1 -113 -50.5 -172t-133.5 -59t-135 57z" />
    <glyph glyph-name="uni10DA" unicode="&#x10da;" horiz-adv-x="842" 
d="M542 -206.5q-80 53.5 -189 85.5t-213 33h-64l-13 72h94v2q-56 36 -88 101.5t-32 147.5q0 56 21.5 98.5t58 65.5t79.5 23q28 0 52.5 -11.5t40.5 -27.5t20 -29h3q8 23 39 45.5t77 22.5t76.5 -22.5t38.5 -45.5h4q4 14 18.5 29.5t39.5 27t56 11.5q59 0 101.5 -40.5
t42.5 -122.5q0 -64 -13.5 -108t-40.5 -86h-78q27 57 40.5 93.5t13.5 71.5q0 54 -18 85.5t-56 31.5q-40 0 -56 -30t-16 -85v-81h-72v81q0 55 -18 85t-63 30t-63.5 -30t-18.5 -85v-81h-72v81q0 115 -78 115q-81 0 -81 -119q0 -75 39 -139t89 -92q24 -14 52.5 -25t83.5 -30
q90 -30 152.5 -59t118.5 -79t84 -125h-90q-22 61 -102 114.5z" />
    <glyph glyph-name="uni10DB" unicode="&#x10db;" horiz-adv-x="462" 
d="M87 47.5q-50 59.5 -50 157.5t50 157.5t134 59.5q30 0 58 -12.5t46 -33.5h3v169q0 45 -26 73.5t-72 28.5t-71 -28t-25 -70q0 -35 11 -69h-81q-11 34 -11 76q0 72 46.5 119t129.5 47t130 -47.5t47 -121.5v-348q0 -98 -50.5 -157.5t-134.5 -59.5t-134 59.5zM300.5 101.5
q27.5 38.5 27.5 103.5q0 64 -27.5 103t-79.5 39q-51 0 -77 -38.5t-26 -103.5t26 -103.5t77 -38.5q52 0 79.5 38.5z" />
    <glyph glyph-name="uni10DC" unicode="&#x10dc;" horiz-adv-x="462" 
d="M107 47.5q-50 59.5 -50 157.5v368q0 66 21.5 101.5t78.5 35.5h235v-74h-218q-25 0 -32 -12.5t-7 -50.5v-197h3q17 21 45.5 33.5t57.5 12.5q55 0 97 -27t65 -76.5t23 -113.5t-23 -113.5t-65 -76.5t-97 -27q-84 0 -134 59.5zM318.5 101.5q26.5 38.5 26.5 103.5t-26.5 103.5
t-77.5 38.5q-52 0 -79 -38.5t-27 -103.5t27 -103.5t79 -38.5q51 0 77.5 38.5z" />
    <glyph glyph-name="uni10DD" unicode="&#x10dd;" horiz-adv-x="657" 
d="M59 102q-22 66 -22 142q0 81 44.5 129.5t116.5 48.5q55 0 85.5 -26t43.5 -54h3q12 28 42.5 54t85.5 26q73 0 117.5 -48.5t44.5 -129.5q0 -76 -21 -142.5t-41 -101.5h-81q2 4 4.5 9.5t4.5 12.5q23 47 38 99.5t15 122.5q0 23 -10 47t-29.5 40t-46.5 16q-43 0 -64.5 -28
t-21.5 -79v-103h-78v103q0 51 -21.5 79t-63.5 28t-64 -28t-22 -75q0 -67 15 -117t38 -100l12 -27h-80q-22 36 -44 102z" />
    <glyph glyph-name="uni10DE" unicode="&#x10de;" horiz-adv-x="451" 
d="M129 14q-43 26 -67.5 71t-24.5 100q0 49 12 84h78q-11 -39 -11 -75q0 -58 28.5 -94.5t81.5 -36.5q36 0 60.5 18t36 44t11.5 50q0 68 -32.5 101t-97.5 33v69q34 0 67 13.5t33 43.5q0 27 -17 46.5t-55 50.5q-35 27 -57 49t-37.5 54t-15.5 75h78q0 -37 22 -64.5t68 -66.5
q48 -40 71.5 -69t23.5 -70q0 -35 -16.5 -55t-43.5 -36v-3q50 -31 69.5 -70.5t19.5 -105.5q0 -51 -24.5 -92.5t-67.5 -65.5t-96 -24q-54 0 -97 26z" />
    <glyph glyph-name="uni10DF" unicode="&#x10df;" horiz-adv-x="481" 
d="M111.5 -281q-45.5 51 -45.5 133q0 57 20 117h81q-19 -57 -19 -109q0 -54 24.5 -85.5t73.5 -31.5q46 0 73 29t27 72v451l-3 2l-81 -57q8 -10 13 -25t5 -42q0 -61 -29.5 -96.5t-92.5 -35.5t-92 35.5t-29 96.5h75q0 -26 11 -41.5t34 -15.5t34 15.5t11 41.5q0 31 -6 47.5
t-30 38.5l177 118v33h81v-573q0 -47 -21.5 -85.5t-62.5 -61t-96 -22.5q-87 0 -132.5 51z" />
    <glyph glyph-name="uni10E0" unicode="&#x10e0;" horiz-adv-x="657" 
d="M59.5 98.5q-22.5 63.5 -22.5 127.5t23.5 117t56.5 91.5t86 89.5q42 41 65.5 66.5t39 56t15.5 63.5h80q0 -68 -54.5 -137.5t-135.5 -145.5l-15 -14l-1 -1q14 2 20 2q45 0 71 -22t39 -48h3q14 28 44.5 53t83.5 25q74 0 118 -51t44 -145q0 -64 -21 -127.5t-41 -98.5h-81
q8 18 11 24q22 50 36.5 96.5t14.5 105.5q0 49 -22.5 85t-63.5 36q-43 0 -64.5 -28t-21.5 -79v-103h-78v103q0 51 -21.5 79t-63.5 28q-86 0 -86 -121q0 -56 14.5 -101.5t37.5 -95.5q7 -12 13 -29h-80q-21 35 -43.5 98.5z" />
    <glyph glyph-name="uni10E1" unicode="&#x10e1;" horiz-adv-x="456" 
d="M142 13.5q-41 25.5 -63 69t-22 97.5v530h78v-535q0 -47 26 -79.5t76 -32.5q49 0 75.5 32.5t26.5 79.5q0 25 -6 47t-18 57q-14 41 -21 69t-7 62h83q0 -38 7 -66.5t21 -69.5q11 -29 16.5 -50.5t5.5 -43.5q0 -54 -21.5 -97.5t-62.5 -69t-97 -25.5t-97 25.5z" />
    <glyph glyph-name="uni10E2" unicode="&#x10e2;" horiz-adv-x="675" 
d="M180 -291.5q-69 40.5 -108 112.5t-39 164q0 80 34.5 145.5t88.5 106.5t111 51v2q-48 31 -48 95q0 27 14 54.5t40.5 45.5t63.5 18t64 -18t40.5 -45.5t13.5 -54.5q0 -55 -44 -95v-3q57 -10 110.5 -51t87 -106t33.5 -145q0 -92 -39 -164t-108.5 -112.5t-157.5 -40.5
t-157 40.5zM338 280q16 11 32 35.5t16 53.5q0 27 -14 45t-35 18q-20 0 -34 -18t-14 -45q0 -31 16 -55t31 -34h2zM501 -193q60 64 60 173q0 70 -24 123.5t-60.5 87t-73.5 46.5l-2 -2q17 -15 31 -47t14 -65q0 -45 -27.5 -81.5t-81.5 -36.5t-81.5 36.5t-27.5 81.5q0 31 15.5 64
t33.5 51l-1 2q-68 -22 -115.5 -88.5t-47.5 -171.5q0 -108 60.5 -172.5t163.5 -64.5q104 0 164 64zM367 92.5q10 17.5 10 46.5q0 31 -13.5 57t-25.5 33h-2q-12 -8 -25 -34t-13 -56q0 -29 10 -46.5t29 -17.5q20 0 30 17.5z" />
    <glyph glyph-name="uni10E3" unicode="&#x10e3;" horiz-adv-x="648" 
d="M257 -300.5q-54 31.5 -84.5 85t-30.5 117.5q0 46 6 75t18 58h80q-2 -7 -9 -30t-10.5 -49t-3.5 -59q0 -44 21 -79t56.5 -55t77.5 -20t77.5 20t56.5 55t21 79v384q0 35 -16 50.5t-36 15.5t-36 -14.5t-16 -47.5v-99h-73v99q0 35 -10.5 48.5t-31.5 13.5t-31 -17t-21 -52
q-10 -35 -20.5 -57t-33 -38t-59.5 -16q-60 0 -86 44.5t-26 113.5q0 38 7 85h75q-7 -68 -7 -87q0 -81 37 -81q21 0 31 17t20 53q10 35 19.5 57t31 37.5t57.5 15.5q38 0 55.5 -17.5t30.5 -44.5h4q31 62 97 62q61 0 88.5 -39.5t27.5 -100.5v-381q0 -66 -31 -119t-84.5 -83.5
t-118.5 -30.5q-66 0 -120 31.5z" />
    <glyph glyph-name="uni10E4" unicode="&#x10e4;" horiz-adv-x="658" 
d="M605 16q17 -42 17 -113q0 -73 -28.5 -126.5t-79 -81t-116.5 -27.5q-106 0 -166.5 51t-60.5 139q0 46 18 96h81q-19 -55 -19 -94q0 -58 36.5 -87.5t107.5 -29.5t108.5 38.5t37.5 117.5q0 63 -23.5 106t-74.5 43h-24v64q60 1 90.5 37t30.5 102q0 42 -23 72t-62 30
q-27 0 -47.5 -11.5t-32.5 -29.5q11 -29 11 -67q0 -53 -21 -96.5t-60.5 -69t-92.5 -25.5t-92.5 25.5t-61 69t-21.5 96.5q0 51 22 91.5t62 63t90 22.5q80 0 132 -57h2q19 24 47 40.5t59 16.5q44 0 83 -20.5t63 -61t24 -96.5q0 -65 -20.5 -97.5t-38.5 -45.5t-22 -17v-3
q48 -23 65 -65zM284 153.5q27 31.5 27 84.5q0 54 -27.5 85.5t-72.5 31.5q-44 0 -71.5 -32t-27.5 -85t27.5 -84.5t72.5 -31.5t72 31.5z" />
    <glyph glyph-name="uni10E5" unicode="&#x10e5;" horiz-adv-x="471" 
d="M59 -271.5q-51 60.5 -51 166.5q0 61 15 124h78q-13 -67 -13 -120q0 -74 30 -115t94 -41q69 0 97 43.5t28 108.5v256q0 60 -29 90t-73 30q-35 0 -56.5 -20.5t-21.5 -54.5v-48h-78v52q0 65 38 105.5t102 40.5q41 0 72.5 -17t42.5 -32h3v308h-3l-83 -97v100l84 102h79v-819
q0 -64 -25.5 -114.5t-72 -79.5t-105.5 -29q-101 0 -152 60.5z" />
    <glyph glyph-name="uni10E6" unicode="&#x10e6;" horiz-adv-x="643" 
d="M351 -168.5q-103 61.5 -221 71.5h-56l-13 72q35 0 78 -5v2q-44 39 -73 105.5t-29 130.5q0 109 44.5 161.5t121.5 52.5q53 0 79.5 -24.5t40.5 -54.5h2q14 31 39.5 55t80.5 24q72 0 117 -50t45 -135q0 -36 -11 -74t-25.5 -67t-24.5 -40h-81q8 16 16 28q21 32 33 66.5
t12 95.5q0 44 -23 72.5t-64 28.5q-40 0 -59.5 -31t-19.5 -71v-84h-74v84q0 39 -22 70.5t-62 31.5q-42 0 -63 -34.5t-21 -95.5q0 -66 26.5 -132.5t89.5 -108.5q33 -21 91 -52q72 -39 118 -68.5t87.5 -73.5t63.5 -102h-80q-60 90 -163 151.5z" />
    <glyph glyph-name="uni10E7" unicode="&#x10e7;" horiz-adv-x="455" 
d="M71 -270.5q-50 61.5 -50 156.5q0 69 26 133h76q-20 -65 -20 -130q0 -67 27.5 -106.5t81.5 -39.5q53 0 80.5 38.5t27.5 92.5v279h-4q-10 -13 -36.5 -28.5t-63.5 -15.5q-81 0 -124 44t-43 133q0 69 29 124h81q-10 -18 -21 -54t-11 -67q0 -48 22.5 -76.5t66.5 -28.5
q45 0 74.5 28t29.5 77v121h78v-545q0 -89 -47 -143t-139 -54q-91 0 -141 61.5z" />
    <glyph glyph-name="uni10E8" unicode="&#x10e8;" horiz-adv-x="537" 
d="M205.5 14.5q-41.5 26.5 -65 73t-23.5 104.5t23.5 104t65 72.5t95.5 26.5q38 0 62.5 -9.5t34.5 -24.5l2 2v206q0 36 -20.5 57t-49.5 21t-49.5 -22t-20.5 -61v-69h-71v69q0 36 -18.5 59.5t-52.5 23.5q-35 0 -54 -23.5t-19 -59.5q0 -35 8.5 -62t25.5 -62l-74 -1
q-19 30 -28.5 56t-9.5 77q0 61 36 105.5t115 44.5q38 0 68.5 -20.5t37.5 -42.5h2q6 22 35 42.5t69 20.5q45 0 79 -22.5t52.5 -59.5t18.5 -77v-338q0 -108 -46 -172.5t-133 -64.5q-54 0 -95.5 26.5zM374.5 102.5q27.5 39.5 27.5 99.5q0 58 -27 88t-75 30q-47 0 -74.5 -34.5
t-27.5 -93.5t27.5 -94t74.5 -35t74.5 39.5z" />
    <glyph glyph-name="uni10E9" unicode="&#x10e9;" horiz-adv-x="458" 
d="M57 565q0 71 41.5 114t114.5 43q58 0 93.5 -35.5t35.5 -86.5q0 -67 -57.5 -113.5t-162.5 -56.5v-100l3 -1q13 21 48 42.5t92 21.5q41 0 77 -25t57.5 -66t21.5 -87q0 -44 -14 -87.5t-27 -67.5t-34 -60h-81l9 18q27 55 46.5 106t19.5 99q0 40 -22.5 73t-72.5 33
q-47 0 -78.5 -34.5t-31.5 -87.5v-207h-78v565zM229 518.5q41 24.5 41 70.5q0 28 -14.5 48t-50.5 20q-32 0 -54.5 -21t-22.5 -65v-77q60 0 101 24.5z" />
    <glyph glyph-name="uni10EA" unicode="&#x10ea;" horiz-adv-x="569" 
d="M149 -278.5q-59 53.5 -87.5 141.5t-28.5 192q0 97 22 190t63 165h80q-39 -71 -61.5 -166.5t-22.5 -192.5q0 -84 20.5 -154t62 -112t102.5 -42q74 0 118 49t44 135q0 71 -30.5 109t-85.5 38h-26v65h22q53 0 81 20.5t28 50.5q0 23 -11.5 43.5t-36.5 52.5q-25 33 -39 54.5
t-21 49.5h81q8 -22 20.5 -41t33.5 -46q27 -36 40.5 -60t13.5 -53q0 -34 -27.5 -63t-65.5 -40v-2q39 -15 71.5 -57t32.5 -121q0 -75 -33 -134t-89.5 -92t-124.5 -33q-87 0 -146 53.5z" />
    <glyph glyph-name="uni10EB" unicode="&#x10eb;" horiz-adv-x="468" 
d="M128.5 12.5q-42.5 24.5 -67 71t-24.5 109.5t24.5 109.5t67 70.5t95.5 24q42 0 70 -14.5t38 -29.5l1 2v355h78v-497q0 -103 -49.5 -164t-137.5 -61q-53 0 -95.5 24.5zM304 100.5q29 37.5 29 92.5q0 54 -29.5 91.5t-77.5 37.5q-49 0 -78.5 -37.5t-29.5 -91.5
q0 -55 29.5 -92.5t78.5 -37.5t78 37.5z" />
    <glyph glyph-name="uni10EC" unicode="&#x10ec;" horiz-adv-x="533" 
d="M139.5 0.5q-46.5 139.5 -108.5 302.5q-42 109 -59.5 165t-17.5 95q0 48 21.5 84.5t57.5 55.5t79 19q44 0 72 -14t39.5 -29t21.5 -34h4q10 27 40 52t96 25q68 0 111 -43t43 -112q0 -30 -11.5 -72.5t-22.5 -60.5h-80l8 20q12 31 19 56.5t7 55.5q0 38 -21.5 63t-60.5 25
q-47 0 -71.5 -28t-24.5 -97v-43h-65v35q0 67 -27.5 100t-76.5 33q-38 0 -58 -26.5t-20 -61.5l1 -11q2 -34 15 -74.5t38 -102.5q25 -60 39 -102h2q1 2 10 32t53.5 55.5t113.5 25.5q43 0 84 -18t67 -53.5t26 -84.5q0 -45 -16 -95.5t-51 -139.5q-37 -91 -62 -162t-45 -156h-82
q-41 181 -87.5 320.5zM274 -214q20 84 40.5 149t46.5 136q23 62 32 93.5t9 57.5q0 39 -25 69t-79 30q-56 0 -90.5 -32t-34.5 -86q0 -20 6 -46.5t20 -70.5q22 -76 38.5 -141.5t32.5 -158.5h4z" />
    <glyph glyph-name="uni10ED" unicode="&#x10ed;" horiz-adv-x="462" 
d="M19 -270q-53 62 -53 162q0 73 19 130h78q-18 -85 -18 -140q0 -139 124 -139q53 0 89.5 33.5t36.5 96.5q0 41 -4 80.5t-12 98.5q-4 30 -10 80q-56 -36 -107 -36q-47 0 -82 30.5t-35 77.5t35 78t82 31q28 0 55 -10t44 -25l9 49q8 38 12 65t4 60q0 49 -39 80t-102 60l-21 10
l-4 -107h-68v215h74q0 -23 20.5 -40t64.5 -41q44 -25 71.5 -44t47.5 -50t20 -73q0 -26 -5 -60.5t-11 -66t-8 -40.5q-4 -17 -10 -49l6 -3l103 103v-65l-74 -73v-4l74 -66v-66l-94 91l-6 -3l9 -44q18 -82 28.5 -144t10.5 -115q0 -56 -28.5 -99t-74.5 -66.5t-99 -23.5
q-99 0 -152 62zM233 170.5q26 16.5 38 33.5q-12 17 -38.5 34t-57.5 17q-27 0 -44 -14t-17 -36q0 -24 16.5 -37.5t44.5 -13.5q32 0 58 16.5z" />
    <glyph glyph-name="uni10EE" unicode="&#x10ee;" horiz-adv-x="465" 
d="M105.5 50q-48.5 62 -48.5 168v492h78v-331h4l122 129l92 -2l-129 -103v-2q5 1 13 1q9 0 13 -1q91 -5 135 -57.5t44 -125.5q0 -65 -21.5 -117.5t-62 -82.5t-94.5 -30q-97 0 -145.5 62zM319 102q29 39 29 100q0 62 -29 101t-77 39t-77.5 -39t-29.5 -101q0 -61 29.5 -100
t77.5 -39t77 39z" />
    <glyph glyph-name="uni10EF" unicode="&#x10ef;" horiz-adv-x="631" 
d="M595 -103q5 -16 5 -45q0 -46 -31 -75t-82 -29q-56 0 -88.5 41.5t-57.5 114.5q-32 88 -44 124q-35 -30 -104 -93v-4q31 -11 55 -43t24 -70q0 -70 -40 -110t-107 -40q-24 0 -39 4t-40 14v71l27 -7q14 -3 25 -5t27 -2q35 0 56 19.5t21 56.5q0 31 -23.5 49.5t-69.5 21.5v60
l163 146l-75 206q-16 45 -56 45q-23 0 -36 -15.5t-13 -40.5v-38h-74v40q0 61 39 95t91 34q48 0 76 -28.5t41 -66.5l16 -48q45 -129 47 -134l114 100q5 5 20.5 18.5t23.5 26.5t8 27q0 15 -11 23t-29 8q-25 0 -52 -9v69q36 14 64 14q31 0 56 -13.5t39 -35t14 -43.5
q0 -32 -12.5 -58.5t-53.5 -60.5q-70 -59 -157 -134l39 -103q6 -13 18 -45q18 -47 29 -69.5t21.5 -31.5t25.5 -9q17 0 28 12.5t11 31.5q0 18 -4.5 30t-11 23.5t-10.5 18.5h80q12 -22 17 -38z" />
    <glyph glyph-name="uni10F0" unicode="&#x10f0;" horiz-adv-x="416" 
d="M111 8.5q-40 20.5 -62.5 56.5t-22.5 80q0 30 8 55h78q-6 -22 -6 -43q0 -40 26 -67t70 -27q43 0 70 26t27 63q0 43 -28.5 72t-70.5 29h-35v63h35q34 0 54.5 14t20.5 37t-20 36t-55 13h-35v63h35q34 0 54.5 12t20.5 31q0 21 -18 38t-55 40q-45 28 -69 52t-24 58h78
q3 -13 17.5 -24.5t43.5 -31.5q50 -34 76 -60.5t26 -66.5q0 -29 -19 -47.5t-46 -26.5v-4q26 -9 45.5 -29.5t19.5 -54.5q0 -54 -65 -81v-1q40 -14 67 -44t27 -86q0 -70 -46 -117.5t-131 -47.5q-51 0 -91 20.5z" />
    <glyph glyph-name="uni10F1" unicode="&#x10f1;" horiz-adv-x="585" 
d="M108.5 95q-71.5 107 -71.5 280q0 83 23 172.5t64 162.5h81q-40 -70 -63 -162t-23 -177q0 -140 53 -224t150 -84q66 0 106 23.5t40 67.5q0 42 -29 70.5t-70 28.5h-35v63h35q34 0 54.5 14t20.5 37t-20 36t-55 13h-35v63h35q34 0 54.5 12t20.5 31q0 21 -14.5 38t-42.5 40
q-35 28 -54 52t-19 58h78q0 -15 11 -27t38 -35q37 -31 57.5 -57t20.5 -64q0 -29 -19 -47.5t-46 -26.5v-4q26 -8 45.5 -29t19.5 -55q0 -54 -65 -81v-1q95 -34 95 -128q0 -50 -30.5 -88t-82 -58.5t-114.5 -20.5q-142 0 -213.5 107z" />
    <glyph glyph-name="uni10F2" unicode="&#x10f2;" horiz-adv-x="542" 
d="M37 10v66q20 -9 52 -16.5t52 -7.5q30 0 60 15v1q-26 8 -56 33t-51 63t-21 82q0 45 25 85.5t70.5 65.5t102.5 25q58 0 103.5 -25t70.5 -65.5t25 -85.5q0 -44 -21.5 -82t-51.5 -63t-57 -33v-1q32 -15 61 -15q20 0 52 7.5t52 16.5v-66q-42 -22 -92 -22q-39 0 -79 9.5
t-59 21.5h-5q-19 -12 -60.5 -21.5t-80.5 -9.5q-50 0 -92 22zM272 84q44 18 80.5 53.5t36.5 94.5q0 50 -30 82.5t-88 32.5t-87.5 -32.5t-29.5 -82.5q0 -60 35.5 -95t80.5 -53h2z" />
    <glyph glyph-name="uni10F3" unicode="&#x10f3;" horiz-adv-x="437" 
d="M126 -305q-41 25 -65 71.5t-24 107.5q0 87 28 160h77l-6 -26q-9 -32 -13.5 -61.5t-4.5 -76.5q0 -59 29 -92t73 -33t72 33t28 92q0 98 -20.5 152.5t-72.5 54.5h-26v46l120 213h-280v74h359v-74l-120 -213v-2q50 0 84.5 -57.5t34.5 -189.5q0 -61 -23.5 -107.5t-64.5 -71.5
t-92 -25q-52 0 -93 25z" />
    <glyph glyph-name="uni10F4" unicode="&#x10f4;" horiz-adv-x="451" 
d="M129 -305q-43 26 -67.5 71t-24.5 100l6 84h79q-2 -34 -4 -94q0 -24 11.5 -50t36 -44t60.5 -18t60.5 18t36 44t11.5 50q0 68 -32.5 101t-97.5 33v69q34 0 67 13.5t33 43.5q0 26 -17 46t-55 51q-53 40 -82 79t-29 100q0 35 15.5 67.5t46.5 52.5t74 20q76 0 114.5 -39.5
t38.5 -99.5q0 -20 -6 -39h-79q7 19 7 39q0 24 -18 44t-50 20t-48 -19.5t-16 -46.5q0 -36 22.5 -64t67.5 -65q48 -41 71.5 -70.5t23.5 -70.5q0 -35 -16.5 -55t-43.5 -36v-3q50 -31 69.5 -70.5t19.5 -105.5q0 -51 -24.5 -92.5t-67 -65.5t-96.5 -24t-97 26z" />
    <glyph glyph-name="uni10F5" unicode="&#x10f5;" horiz-adv-x="550" 
d="M124.5 10q-41.5 22 -64.5 61.5t-23 88.5q0 81 49 126t135 45h108v48h-108q-86 0 -135 45t-49 126q0 76 50.5 124t133.5 48q85 0 135.5 -48t50.5 -124v-97h107v-73h-107v-50h107v-73h-107v-97q0 -76 -50.5 -124t-135.5 -48q-55 0 -96.5 22zM329 454v96q0 43 -29 70t-79 27
q-48 0 -75.5 -26.5t-27.5 -70.5q0 -45 27 -70.5t76 -25.5h108zM300 90q29 27 29 70v96h-108q-49 0 -76 -25.5t-27 -70.5q0 -44 27.5 -70.5t75.5 -26.5q50 0 79 27z" />
    <glyph glyph-name="uni10F6" unicode="&#x10f6;" horiz-adv-x="733" 
d="M374.5 -283.5q-46.5 48.5 -46.5 122.5v213h-2q-15 -31 -39.5 -47.5t-65.5 -16.5q-91 0 -137.5 58t-46.5 159q0 98 50 157.5t134 59.5q70 0 104 -73h3v196q0 45 -26 73.5t-72 28.5t-71 -28t-25 -70q0 -35 11 -69h-81q-11 34 -11 76q0 72 46.5 119t129.5 47t130 -47.5
t47 -121.5v-196q31 65 106 65q84 0 134 -59.5t50 -157.5q0 -100 -48 -158.5t-136 -58.5q-40 0 -65 16.5t-39 47.5h-2v-205q0 -45 25.5 -74.5t70.5 -29.5q46 0 71.5 28t25.5 70q0 35 -11 69h81q11 -39 11 -76q0 -72 -47 -119t-129 -47q-83 0 -129.5 48.5zM300.5 101.5
q27.5 38.5 27.5 103.5q0 64 -27.5 103t-79.5 39q-51 0 -77 -38.5t-26 -103.5t26 -103.5t77 -38.5q52 0 79.5 38.5zM589.5 101.5q25.5 38.5 25.5 103.5t-25.5 103.5t-77.5 38.5t-79 -38.5t-27 -103.5t27 -103.5t79 -38.5t77.5 38.5z" />
    <glyph glyph-name="uni10F7" unicode="&#x10f7;" horiz-adv-x="511" 
d="M141 -301q-50 29 -77 80t-27 115q0 55 25 99.5t60 76.5t89 72q57 43 84 71t27 61q0 27 -17 50t-49 23t-51 -21t-19 -44t7 -42h-78q-7 19 -7 42q0 60 39.5 100t114.5 40q44 0 76 -19.5t48.5 -51.5t16.5 -69q0 -42 -19 -75t-46 -57.5t-74 -58.5q-48 -34 -77 -60t-49 -61.5
t-20 -81.5q0 -61 38.5 -102t99.5 -41t99.5 41.5t38.5 103.5q0 44 -10 81h78q13 -43 13 -75q0 -65 -27 -116.5t-77 -80.5t-115 -29t-115 29z" />
    <glyph glyph-name="uni10F8" unicode="&#x10f8;" horiz-adv-x="455" 
d="M104 -278q-47 54 -47 143v545h78v-121q0 -49 29.5 -77t74.5 -28q44 0 66.5 28.5t22.5 76.5q0 31 -11 67t-21 54h81q13 -27 21 -54t8 -70q0 -89 -43 -133t-124 -44q-37 0 -63.5 15.5t-36.5 28.5h-4v-279q0 -54 27.5 -92.5t79.5 -38.5q55 0 82.5 39.5t27.5 106.5
q0 65 -20 130h76q26 -64 26 -133q0 -95 -50 -156.5t-142 -61.5q-91 0 -138 54z" />
    <glyph glyph-name="uni10F9" unicode="&#x10f9;" horiz-adv-x="511" 
d="M240 -312q-32 20 -48 52t-16 68q0 43 8 67t26 53q-5 4 -52.5 41.5t-84 99t-36.5 125.5q0 65 27.5 116.5t77.5 80.5t114 29t114 -29t77.5 -80.5t27.5 -116.5q0 -56 -17 -96t-41 -66.5t-63 -58.5q-33 -28 -52 -47.5t-32 -47t-13 -63.5q0 -26 16.5 -49t50.5 -23
q32 0 50.5 20.5t18.5 44.5t-7 44h78q7 -20 7 -44q0 -61 -39 -100.5t-115 -39.5q-45 0 -77 20zM287 9q48 39 77.5 81.5t29.5 109.5q0 62 -39 103.5t-99 41.5t-99 -41.5t-39 -103.5q0 -55 27 -99.5t49 -64t65 -52.5q6 7 28 25z" />
    <glyph glyph-name="uni10FA" unicode="&#x10fa;" horiz-adv-x="451" 
d="M238 40.5q-29 20.5 -59 20.5q-19 0 -47.5 -3t-51.5 -8v65q12 2 52 7v2q-40 16 -67.5 53t-27.5 83q0 49 26 86.5t69 58t93 20.5t93.5 -20.5t69.5 -60t26 -93.5v-40h-81v40q0 41 -29.5 69.5t-78.5 28.5q-48 0 -77.5 -27t-29.5 -62q0 -32 14.5 -55t36 -38t58.5 -35
q38 -21 61.5 -37.5t40 -42.5t16.5 -64h-78q0 32 -29 52.5z" />
    <glyph glyph-name="uni10FB" unicode="&#x10fb;" horiz-adv-x="483" 
d="M161.5 471.5q18.5 -18.5 18.5 -45.5t-18.5 -45.5t-46.5 -18.5q-27 0 -45.5 18.5t-18.5 45.5t18.5 45.5t45.5 18.5q28 0 46.5 -18.5zM412.5 285.5q18.5 -18.5 18.5 -45.5t-18.5 -46t-46.5 -19q-27 0 -45.5 19t-18.5 46q0 26 18.5 45t45.5 19q28 0 46.5 -18.5zM161.5 98.5
q18.5 -18.5 18.5 -45.5t-18.5 -46t-46.5 -19q-27 0 -45.5 19t-18.5 46q0 26 18.5 45t45.5 19q28 0 46.5 -18.5z" />
    <glyph glyph-name="uni10FD" unicode="&#x10fd;" horiz-adv-x="511" 
d="M141 17q-50 29 -77 80t-27 115q0 36 12 75h78q-9 -33 -9 -81q0 -61 38.5 -102t99.5 -41q40 0 71.5 18.5t49 49t17.5 66.5q0 47 -20 82.5t-48.5 59.5t-76.5 56q-47 31 -74.5 54.5t-46.5 56.5t-19 77q0 36 16.5 68t48.5 51.5t76 19.5q75 0 114.5 -40t39.5 -100
q0 -21 -8 -42h-78q8 21 8 42q0 23 -19 44t-51 21q-33 0 -49.5 -22.5t-16.5 -49.5q0 -35 27 -62.5t86 -68.5q54 -37 88.5 -67t59 -73.5t24.5 -100.5q0 -60 -27.5 -109t-77 -77.5t-114.5 -28.5t-115 29z" />
    <glyph glyph-name="endash" unicode="&#x2013;" horiz-adv-x="520" 
d="M34 349h452v-72h-452v72z" />
    <glyph glyph-name="emdash" unicode="&#x2014;" horiz-adv-x="788" 
d="M34 349h721v-72h-721v72z" />
    <glyph glyph-name="quoteleft" unicode="&#x2018;" horiz-adv-x="226" 
d="M65.5 516q-17.5 17 -17.5 41q0 20 16 56l65 137h55l-40 -146q25 -19 25 -47q0 -24 -18 -41t-43 -17t-42.5 17z" />
    <glyph glyph-name="quoteright" unicode="&#x2019;" horiz-adv-x="226" 
d="M160 733q18 -17 18 -41q0 -20 -16 -55l-65 -138h-55l39 146q-24 18 -24 47q0 24 17.5 41t42.5 17t43 -17z" />
    <glyph glyph-name="quotesinglbase" unicode="&#x201a;" horiz-adv-x="226" 
d="M160 82.5q18 -17.5 18 -41.5q0 -11 -3.5 -22.5t-12.5 -32.5l-65 -138h-55l39 146q-24 18 -24 47q0 24 17.5 41.5t42.5 17.5t43 -17.5z" />
    <glyph glyph-name="quotedblleft" unicode="&#x201c;" horiz-adv-x="398" 
d="M65.5 516q-17.5 17 -17.5 41q0 20 16 56l65 137h55l-40 -146q25 -19 25 -47q0 -24 -18 -41t-43 -17t-42.5 17zM237.5 516q-17.5 17 -17.5 41q0 20 16 56l65 137h55l-40 -146q25 -19 25 -47q0 -24 -18 -41t-43 -17t-42.5 17z" />
    <glyph glyph-name="quotedblright" unicode="&#x201d;" horiz-adv-x="398" 
d="M160 733q18 -17 18 -41q0 -20 -16 -55l-65 -138h-55l39 146q-24 18 -24 47q0 24 17.5 41t42.5 17t43 -17zM332 733q18 -17 18 -41q0 -20 -16 -55l-65 -138h-55l39 146q-24 18 -24 47q0 24 17.5 41t42.5 17t43 -17z" />
    <glyph glyph-name="quotedblbase" unicode="&#x201e;" horiz-adv-x="398" 
d="M160 82.5q18 -17.5 18 -41.5q0 -11 -3.5 -22.5t-12.5 -32.5l-65 -138h-55l39 146q-24 18 -24 47q0 24 17.5 41.5t42.5 17.5t43 -17.5zM332 82.5q18 -17.5 18 -41.5q0 -11 -3.5 -22.5t-12.5 -32.5l-65 -138h-55l39 146q-24 18 -24 47q0 24 17.5 41.5t42.5 17.5t43 -17.5z
" />
    <glyph glyph-name="bullet" unicode="&#x2022;" horiz-adv-x="315" 
d="M231.5 416q29.5 -30 29.5 -74t-29.5 -73.5t-73.5 -29.5t-73.5 30t-29.5 74t29.5 73.5t73.5 29.5t73.5 -30z" />
    <glyph glyph-name="ellipsis" unicode="&#x2026;" horiz-adv-x="712" 
d="M161.5 98.5q18.5 -18.5 18.5 -45.5t-18.5 -46t-46.5 -19q-27 0 -45.5 19t-18.5 46q0 26 18.5 45t45.5 19q28 0 46.5 -18.5zM401.5 98.5q18.5 -18.5 18.5 -45.5t-18.5 -46t-46.5 -19q-27 0 -45.5 19t-18.5 46q0 26 18.5 45t45.5 19q28 0 46.5 -18.5zM641.5 98.5
q18.5 -18.5 18.5 -45.5t-18.5 -46t-46.5 -19q-27 0 -45.5 19t-18.5 46q0 26 18.5 45t45.5 19q28 0 46.5 -18.5z" />
    <glyph glyph-name="guilsinglleft" unicode="&#x2039;" horiz-adv-x="341" 
d="M282 497l-136 -210l136 -209l-51 -35l-172 215v57l172 216z" />
    <glyph glyph-name="guilsinglright" unicode="&#x203a;" horiz-adv-x="341" 
d="M282 315v-57l-173 -215l-50 35l135 209l-135 210l50 34z" />
    <glyph glyph-name="fraction" unicode="&#x2044;" horiz-adv-x="128" 
d="M295 723l-407 -799l-55 26l407 799z" />
    <glyph glyph-name="uni2074" unicode="&#x2074;" horiz-adv-x="400" 
d="M355 420h-54v-98h-70v98h-187v50l129 275l61 -23l-115 -246h113l6 107h63v-107h54v-56z" />
    <glyph glyph-name="Euro" unicode="&#x20ac;" horiz-adv-x="575" 
d="M259 101q42 -42 118 -42q39 0 70.5 10.5t69.5 30.5v-73q-37 -19 -73 -29t-80 -10q-103 0 -167 63t-82 183h-87l14 56h70v93h-84l14 58h74q23 113 90.5 175t161.5 62q96 0 179 -55l-33 -58q-38 23 -69.5 33t-72.5 10q-63 0 -105.5 -41t-60.5 -126h259l-14 -58h-250v-93
h231l-13 -56h-215q13 -91 55 -133z" />
    <glyph glyph-name="uni20BE" unicode="&#x20be;" horiz-adv-x="686" 
d="M177.5 202q31.5 -64 85.5 -97.5t120 -33.5h194l-10 -71h-471l10 70l112 1q-75 35 -117.5 108.5t-42.5 184.5q0 108 50 187t135 110v92h65v-76q24 2 38 2q13 0 37 -2v76h65v-91q88 -30 137 -113.5t49 -208.5h-89q0 190 -97 246v-246h-65v267q-18 3 -37 3q-20 0 -38 -3
v-267h-65v245q-46 -28 -71.5 -85t-25.5 -145q0 -89 31.5 -153z" />
    <glyph glyph-name="minus" unicode="&#x2212;" horiz-adv-x="498" 
d="M64 368h371v-71h-371v71z" />
    <glyph glyph-name="uni2215" unicode="&#x2215;" horiz-adv-x="128" 
d="M295 723l-407 -799l-55 26l407 799z" />
    </font>
</defs>
</svg>
