<?xml version="1.0" standalone="no"?>
<!DOCTYPE svg PUBLIC "-//W3C//DTD SVG 1.1//EN" "http://www.w3.org/Graphics/SVG/1.1/DTD/svg11.dtd" >
<svg xmlns="http://www.w3.org/2000/svg" xmlns:xlink="http://www.w3.org/1999/xlink" version="1.1">
<metadata>
Created by FontForge 20161013 at Mon Jun 12 14:56:44 2017
 By ,,,
Copyright (c) 2017 by Unknow Designer, Davit Samsonidze. All rights reserved.
</metadata>
<defs>
<font id="GLParizuli-Regular" horiz-adv-x="280" >
  <font-face 
    font-family="GL Parizuli"
    font-weight="400"
    font-stretch="normal"
    units-per-em="1000"
    panose-1="0 0 5 0 0 0 0 0 0 0"
    ascent="800"
    descent="-200"
    x-height="456"
    cap-height="712"
    bbox="-38 -313 1044 948"
    underline-thickness="50"
    underline-position="-150"
    unicode-range="U+0020-2212"
  />
<missing-glyph horiz-adv-x="505" 
d="M414 -300h-320v1010h320v-1010zM170 642v-33h65v-37h-66v-34h167v34h-66v37h66v33h-166zM169 512v-105h167v34h-66v71h-101zM235 441h-33v37h33v-37zM169 380v-34h66v-37h-66v-33h101v70h66v34h-167zM303 319v-67h-134v-34h167v101h-33zM235 196v-57h35v24h33v-48h-101
v81h-33v-114h167v114h-101zM169 21v-114h167v114h-167zM303 -60h-101v48h101v-48zM169 -116v-34h70l-70 -47v-33h167v33h-103l71 47h32v34h-167z" />
    <glyph glyph-name=".notdef" horiz-adv-x="505" 
d="M414 -300h-320v1010h320v-1010zM170 642v-33h65v-37h-66v-34h167v34h-66v37h66v33h-166zM169 512v-105h167v34h-66v71h-101zM235 441h-33v37h33v-37zM169 380v-34h66v-37h-66v-33h101v70h66v34h-167zM303 319v-67h-134v-34h167v101h-33zM235 196v-57h35v24h33v-48h-101
v81h-33v-114h167v114h-101zM169 21v-114h167v114h-167zM303 -60h-101v48h101v-48zM169 -116v-34h70l-70 -47v-33h167v33h-103l71 47h32v34h-167z" />
    <glyph glyph-name=".null" horiz-adv-x="0" 
 />
    <glyph glyph-name="nonmarkingreturn" horiz-adv-x="333" 
 />
    <glyph glyph-name="space" unicode=" " horiz-adv-x="300" 
 />
    <glyph glyph-name="exclam" unicode="!" 
d="M112 356q-3 38 -17 118q-17 97 -17 148q0 33 17 52.5t45 19.5t45 -19.5t17 -52.5q0 -51 -17 -148q-14 -80 -17 -118l-16 -200h-24zM95.5 5.5q-17.5 17.5 -17.5 44.5t17.5 44.5t44.5 17.5t44.5 -17.5t17.5 -44.5t-17.5 -44.5t-44.5 -17.5t-44.5 17.5z" />
    <glyph glyph-name="quotedbl" unicode="&#x22;" horiz-adv-x="394" 
d="M88 666l-2 18q0 23 9 34.5t25 11.5t25 -11.5t9 -34.5l-2 -18l-20 -146h-24zM242 666l-2 18q0 23 9 34.5t25 11.5t25 -11.5t9 -34.5l-2 -18l-20 -146h-24z" />
    <glyph glyph-name="numbersign" unicode="#" horiz-adv-x="684" 
d="M166 0l31 196h-116v40h121l36 214h-157v40h163l29 194h44l-30 -194h146l30 194h44l-30 -194h133v-40h-138l-34 -214h169v-40h-177l-30 -196h-44l30 196h-145l-31 -196h-44zM246 236h148l34 214h-146z" />
    <glyph glyph-name="dollar" unicode="$" horiz-adv-x="580" 
d="M228 -11q-79 14 -122.5 59.5t-43.5 116.5q0 34 20.5 55.5t47.5 21.5q17 0 29.5 -12.5t12.5 -31.5t-6.5 -30.5t-19.5 -24.5q-11 -12 -16.5 -21t-5.5 -23q0 -27 27.5 -48t76.5 -30v312q-72 28 -107 73.5t-35 111.5q0 65 37 112.5t105 62.5v65h32v-60l32 2q19 0 24 -1v59h32
v-63q71 -12 112.5 -56.5t41.5 -102.5q0 -44 -14.5 -69t-46.5 -25q-19 0 -30.5 11.5t-11.5 27.5q0 17 6 27t19 24q12 11 18.5 21.5t6.5 27.5q0 25 -27 49t-74 33v-284q152 -59 152 -192q0 -74 -40.5 -128t-111.5 -69v-74h-32v69q-5 -1 -24 -1q-25 0 -32 1v-69h-32v73z
M316 667q-5 1 -24 1l-32 -2v-252l56 -22v275zM228 660q-46 -14 -70 -46.5t-24 -73.5q0 -46 20 -69t74 -44v233zM316 17v281l-56 22v-303q7 -1 32 -1q19 0 24 1zM427 74q29 37 29 81q0 37 -9.5 59t-32 37.5t-66.5 33.5v-262q50 14 79 51z" />
    <glyph glyph-name="percent" unicode="%" horiz-adv-x="860" 
d="M624 702h36l-426 -720h-36zM158.5 366.5q-30.5 24.5 -46.5 65.5t-16 88q0 48 17 89t47.5 66t69.5 25q62 0 99 -52.5t37 -127.5t-37.5 -126.5t-98.5 -51.5q-41 0 -71.5 24.5zM287 400.5q15 38.5 15 119.5t-15.5 120.5t-56.5 39.5q-40 0 -55 -39t-15 -121t15 -120t55 -38
q42 0 57 38.5zM556.5 8.5q-30.5 24.5 -46.5 65.5t-16 88q0 48 17 89t47.5 66t69.5 25q62 0 99 -52.5t37 -127.5t-37.5 -126.5t-98.5 -51.5q-41 0 -71.5 24.5zM685 42.5q15 38.5 15 119.5t-15.5 120.5t-56.5 39.5q-40 0 -55 -39t-15 -121t15 -120t55 -38q42 0 57 38.5z" />
    <glyph glyph-name="ampersand" unicode="&#x26;" horiz-adv-x="786" 
d="M105.5 23.5q-51.5 41.5 -51.5 121.5q0 53 38 101.5t104 99.5l30 23l-10 15q-24 36 -38 74.5t-14 71.5q0 49 21 89t57 62q34 22 76 22q55 0 86 -35t31 -88t-29.5 -94t-94.5 -93l172 -244q36 43 60.5 94.5t24.5 82.5q0 18 -11.5 29t-27.5 11h-45v32h248v-32h-31
q-30 0 -49.5 -11.5t-36.5 -45.5q-38 -76 -61.5 -115.5t-50.5 -72.5q35 -50 60 -72q25 -23 48 -23q35 0 57.5 19.5t39.5 56.5l16 -8q-25 -53 -56 -82.5t-80 -29.5q-70 0 -142 81q-43 -38 -93.5 -59.5t-103.5 -21.5q-92 0 -143.5 41.5zM372 499.5q27 36.5 27 86.5
q0 36 -23.5 61.5t-56.5 25.5q-41 0 -66 -31.5t-25 -81.5q0 -30 15.5 -63t47.5 -75q54 41 81 77.5zM425 87l-179 254q-52 -41 -74 -84t-22 -104q0 -38 15 -70.5t40.5 -51.5t55.5 -19q85 0 164 75z" />
    <glyph glyph-name="quotesingle" unicode="'" horiz-adv-x="240" 
d="M88 666l-2 18q0 23 9 34.5t25 11.5t25 -11.5t9 -34.5l-2 -18l-20 -146h-24z" />
    <glyph glyph-name="parenleft" unicode="(" horiz-adv-x="370" 
d="M294 -198q-91 84 -143.5 205t-52.5 259t52.5 259t143.5 205l30 -24q-89 -93 -132.5 -202t-43.5 -238t43.5 -238t132.5 -202z" />
    <glyph glyph-name="parenright" unicode=")" horiz-adv-x="370" 
d="M48 -174q89 93 132.5 202t43.5 238t-43.5 238t-132.5 202l30 24q91 -84 143.5 -205t52.5 -259t-52.5 -259t-143.5 -205z" />
    <glyph glyph-name="asterisk" unicode="*" horiz-adv-x="502" 
d="M227 302q-10 12 -10 31q0 15 12 43q14 36 14 77q0 9 -1.5 12t-6.5 3t-14 -6q-36 -24 -56 -49q-15 -21 -28 -30t-28 -9q-17 0 -27 11t-10 26q0 39 67 47q35 4 74 26q3 1 6.5 4.5t3.5 6.5t-3.5 6.5t-6.5 4.5q-39 22 -74 26q-67 8 -67 47q0 15 10 26t27 11q15 0 28 -9
t28 -30q20 -25 56 -49q9 -6 14 -6t6.5 3t1.5 12q0 41 -14 77q-12 29 -12 43q0 19 10 31t28 12t28 -12t10 -31q0 -14 -12 -43q-14 -36 -14 -77q0 -9 1.5 -12t6.5 -3t14 6q36 24 56 49q15 21 28 30t28 9q17 0 27 -11t10 -26q0 -39 -67 -47q-35 -4 -74 -26q-3 -1 -6.5 -4.5
t-3.5 -6.5t3.5 -6.5t6.5 -4.5q39 -22 74 -26q67 -8 67 -47q0 -15 -10 -26t-27 -11q-15 0 -28 9t-28 30q-20 25 -56 49q-9 6 -14 6t-6.5 -3t-1.5 -12q0 -41 14 -77q12 -28 12 -43q0 -19 -10 -31t-28 -12t-28 12z" />
    <glyph glyph-name="plus" unicode="+" horiz-adv-x="940" 
d="M448 -156v400h-400v40h400v400h44v-400h400v-40h-400v-400h-44z" />
    <glyph glyph-name="comma" unicode="," 
d="M90 -152q37 28 60.5 68.5t23.5 79.5q0 22 -13.5 28t-38.5 6q-21 0 -35.5 15.5t-14.5 36.5q0 26 17.5 42t40.5 16q38 0 59 -28.5t21 -74.5q0 -60 -30 -115.5t-76 -89.5z" />
    <glyph glyph-name="hyphen" unicode="-" horiz-adv-x="370" 
d="M60 224v56h250v-56h-250z" />
    <glyph glyph-name="period" unicode="." 
d="M95.5 5.5q-17.5 17.5 -17.5 44.5t17.5 44.5t44.5 17.5t44.5 -17.5t17.5 -44.5t-17.5 -44.5t-44.5 -17.5t-44.5 17.5z" />
    <glyph glyph-name="zero" unicode="0" horiz-adv-x="534" 
d="M460 170q-24 -82 -72.5 -132t-118.5 -50q-103 0 -161 89.5t-58 269.5q0 99 25 179.5t75.5 127.5t124.5 47q70 0 117 -48.5t69.5 -128.5t22.5 -177q0 -95 -24 -177zM270 684q-73 0 -100.5 -97.5t-27.5 -239.5q0 -144 32 -243t94 -99q57 0 90.5 91t33.5 251q0 337 -122 337
z" />
    <glyph glyph-name="one" unicode="1" horiz-adv-x="455" 
d="M236 689h66v-585q0 -42 18 -63t64 -21h21v-20l-29 2q-82 5 -116 5q-62 0 -136 -6q-15 0 -21.5 -0.5t-8.5 -0.5v20h31q92 0 92 84v509l-3 2l-150 -164l-14 6z" />
    <glyph glyph-name="two" unicode="2" horiz-adv-x="512" 
d="M57 0q66 6 197 6q66 0 204 -6v186h-20v-99q-60 4 -140 4t-143 -4q18 21 80 82q69 68 114 117.5t79 104.5t34 100q0 65 -31 112.5t-82 72.5t-110 25t-98.5 -31t-58.5 -74t-19 -77q0 -58 24.5 -86t55.5 -28q21 0 40 18.5t19 41.5q0 27 -15.5 41.5t-36.5 14.5
q-13 0 -19.5 -3.5t-12.5 -12.5q-5 -8 -12 -8q-8 0 -14.5 10t-6.5 27q0 25 18 61t51.5 62.5t77.5 26.5q41 0 72.5 -25t48.5 -67.5t17 -92.5q0 -83 -37 -157.5t-87.5 -131.5t-125.5 -129l-70 -70v-2z" />
    <glyph glyph-name="three" unicode="3" horiz-adv-x="513" 
d="M67 201q17 22 47 22q23 0 41 -12.5t18 -39.5q0 -17 -6.5 -25t-20.5 -18q-13 -8 -19 -16t-6 -23q0 -16 13.5 -36t39.5 -34t61 -14q33 0 64.5 21.5t51.5 60.5t20 88q0 73 -21 111.5t-52.5 51t-73.5 12.5h-82v20h82q61 0 103 29.5t42 121.5q0 76 -34.5 119t-95.5 43
q-28 0 -50 -12.5t-34.5 -31t-12.5 -33.5t5 -22.5t15 -14.5q11 -9 16.5 -17.5t5.5 -25.5q0 -21 -14 -33.5t-34 -12.5q-32 0 -48 23t-16 50q0 33 21.5 67.5t60 57t86.5 22.5q66 0 114.5 -25.5t74 -65t25.5 -81.5q0 -54 -29 -91t-68.5 -55t-72.5 -20v-2q39 0 81 -20.5t70 -60
t28 -92.5q0 -56 -31 -101.5t-83 -71.5t-113 -26q-55 0 -97.5 26t-65.5 64t-23 72q0 29 17 51z" />
    <glyph glyph-name="four" unicode="4" horiz-adv-x="591" 
d="M329 690l117 -1l-370 -475q24 -2 138 -2l132 1v147l85 10v-156l80 3v-23h-80v-89q0 -47 22.5 -63t62.5 -21h25v-20l-63 3q-58 4 -84 4q-63 0 -137 -6q-14 0 -20.5 -0.5t-8.5 -0.5v20h26q44 5 67.5 20.5t24.5 63.5v88h-285l-11 18z" />
    <glyph glyph-name="five" unicode="5" horiz-adv-x="513" 
d="M136 15q-41 27 -63.5 63t-22.5 58q0 39 15.5 62t46.5 23q24 0 41 -11.5t17 -38.5q0 -17 -5 -26.5t-15 -19.5q-9 -10 -13.5 -18.5t-4.5 -23.5q0 -28 24 -53t74 -25q33 0 66 27.5t54 76.5t21 109q0 98 -24 148.5t-93 50.5q-45 0 -78 -18t-57 -60l-18 10l11 340
q57 -22 94.5 -29.5t70.5 -7.5q36 0 76.5 14.5t60.5 34.5h20q-28 -62 -76 -89t-122 -27q-42 0 -107 10l-10 -216l3 -1q28 28 59 42t76 14q93 0 149.5 -55t56.5 -153q0 -75 -31.5 -128.5t-84.5 -81.5t-116 -28q-54 0 -95 27z" />
    <glyph glyph-name="six" unicode="6" horiz-adv-x="514" 
d="M76.5 525q26.5 80 78 128t124.5 48q56 0 92 -21t52 -49t16 -49q0 -24 -13.5 -38t-36.5 -14q-54 0 -54 53q0 16 7 29.5t7 17.5q0 9 -7.5 21.5t-24.5 22.5t-45 10q-52 0 -80 -46.5t-38 -120.5t-14 -191l1 -1q21 38 61 58t88 20q51 0 90.5 -26.5t61.5 -72t22 -100.5
q0 -63 -24.5 -112.5t-68.5 -76.5t-102 -27q-104 0 -161.5 92.5t-57.5 269.5q0 95 26.5 175zM170.5 62q28.5 -57 93.5 -57q54 0 81 63t27 141q0 77 -29 127t-79 50q-53 0 -87.5 -44t-34.5 -129q0 -94 28.5 -151z" />
    <glyph glyph-name="seven" unicode="7" horiz-adv-x="490" 
d="M246 686q-62 0 -148 2q-10 1 -28 1h-9l-11 -234h20q5 61 13.5 91.5t28 44t57.5 13.5q29 0 57 -1l165 -1l2 -3q-69 -219 -224 -494q-27 -43 -27 -71q0 -23 10.5 -34.5t34.5 -11.5q18 0 28 9t14.5 24.5t12.5 51.5q27 122 57.5 214.5t73.5 202.5q28 72 42 113t25 84l-2 2
q-47 -3 -192 -3z" />
    <glyph glyph-name="eight" unicode="8" horiz-adv-x="538" 
d="M156.5 13.5q-51.5 25.5 -79 68t-27.5 92.5q0 118 145 180v2q-52 21 -86 65t-34 107q0 51 25.5 90t68.5 60.5t93 21.5q54 0 100 -18t74 -53t28 -82q0 -41 -15.5 -68.5t-39.5 -45.5t-71 -47l1 -3q37 -9 71.5 -35t56 -65.5t21.5 -84.5q0 -62 -28 -110t-76.5 -74t-106.5 -26
q-69 0 -120.5 25.5zM366 459q13 36 13 87q0 56 -29.5 96.5t-87.5 40.5q-55 0 -93 -30.5t-38 -88.5q0 -47 23.5 -78t62.5 -50.5t106 -43.5q30 31 43 67zM350 22.5q34 17.5 54.5 51.5t20.5 80q0 56 -26.5 91.5t-69 57.5t-115.5 47q-39 -25 -59 -70t-20 -103q0 -47 18 -86.5
t50.5 -62.5t73.5 -23q39 0 73 17.5z" />
    <glyph glyph-name="nine" unicode="9" horiz-adv-x="526" 
d="M446 187q-30 -92 -85.5 -145.5t-128.5 -53.5q-45 0 -79 20t-52.5 47.5t-18.5 47.5q0 25 14 41t37 16q26 0 41 -14t15 -44q0 -10 -3 -16t-9 -14q-4 -5 -7 -11t-3 -13q0 -14 17.5 -28.5t54.5 -14.5q61 0 93 48t42.5 125t12.5 196l-2 1q-21 -39 -63.5 -59.5t-92.5 -20.5
q-53 0 -93.5 24.5t-63 69t-22.5 101.5q0 98 55 155t146 57q106 0 165.5 -81t59.5 -231q0 -111 -30 -203zM354.5 634.5q-29.5 50.5 -98.5 50.5q-57 0 -85.5 -61.5t-28.5 -139.5t31 -125t83 -47q55 0 91.5 45.5t36.5 132.5q0 94 -29.5 144.5z" />
    <glyph glyph-name="colon" unicode=":" 
d="M95.5 361.5q-17.5 17.5 -17.5 44.5t17.5 44.5t44.5 17.5t44.5 -17.5t17.5 -44.5t-17.5 -44.5t-44.5 -17.5t-44.5 17.5zM95.5 5.5q-17.5 17.5 -17.5 44.5t17.5 44.5t44.5 17.5t44.5 -17.5t17.5 -44.5t-17.5 -44.5t-44.5 -17.5t-44.5 17.5z" />
    <glyph glyph-name="semicolon" unicode=";" 
d="M95.5 361.5q-17.5 17.5 -17.5 44.5t17.5 44.5t44.5 17.5t44.5 -17.5t17.5 -44.5t-17.5 -44.5t-44.5 -17.5t-44.5 17.5zM90 -152q37 28 60.5 68.5t23.5 79.5q0 21 -13.5 27.5t-38.5 6.5q-21 0 -35.5 15.5t-14.5 36.5q0 26 17.5 42t40.5 16q38 0 59 -28.5t21 -74.5
q0 -60 -30 -115.5t-76 -89.5z" />
    <glyph glyph-name="less" unicode="&#x3c;" horiz-adv-x="940" 
d="M840 -156l-756 406v28l756 406l20 -36l-714 -384l714 -384z" />
    <glyph glyph-name="equal" unicode="=" horiz-adv-x="940" 
d="M48 338v40h844v-40h-844zM48 148v40h844v-40h-844z" />
    <glyph glyph-name="greater" unicode="&#x3e;" horiz-adv-x="940" 
d="M100 -156l-20 36l714 384l-714 384l20 36l756 -406v-28z" />
    <glyph glyph-name="question" unicode="?" horiz-adv-x="470" 
d="M183 175.5q-25 21.5 -25 59.5q0 24 6.5 40.5t24 37.5t66.5 74l27 29q31 34 44.5 61.5t13.5 64.5q0 55 -30 88.5t-85 33.5q-30 0 -57 -11.5t-43.5 -29.5t-16.5 -37t3.5 -25.5t14.5 -6.5l26 2q17 0 26.5 -11t9.5 -29q0 -22 -14.5 -35t-40.5 -13q-29 0 -49 24t-20 63
q0 41 25.5 72.5t65 49t77.5 17.5q86 0 141 -41t55 -111q0 -42 -21.5 -76.5t-51.5 -59.5t-74 -55q-89 -62 -89 -119q0 -24 15 -36t41 -12t43 18t17 48q0 14 -5 26l18 8q11 -19 11 -35q0 -28 -12.5 -49.5t-32 -33.5t-39.5 -12q-40 0 -65 21.5zM203.5 5.5
q-17.5 17.5 -17.5 44.5t17.5 44.5t44.5 17.5t44.5 -17.5t17.5 -44.5t-17.5 -44.5t-44.5 -17.5t-44.5 17.5z" />
    <glyph glyph-name="at" unicode="@" horiz-adv-x="820" 
d="M211 32.5q-82 50.5 -122.5 135t-40.5 187.5q0 109 52.5 194.5t138 133t181.5 47.5q112 0 190 -47.5t117 -128t39 -177.5q0 -67 -30 -123.5t-82.5 -89.5t-115.5 -33q-39 0 -65 20t-30 55l-5 1q-20 -31 -52 -53.5t-68 -22.5q-47 0 -79.5 33t-32.5 91q0 84 30.5 158.5
t86 120t126.5 45.5q25 0 46 -18t25 -37h5l11 43h72l-84 -310q-6 -24 -6 -43q0 -26 10.5 -42.5t25.5 -16.5q87 0 125.5 73.5t38.5 168.5q0 100 -40 168.5t-109.5 102.5t-157.5 34q-96 0 -167.5 -53t-109.5 -137.5t-38 -176.5q0 -107 42 -180t115 -109t167 -36q88 0 176 58
l16 -23q-87 -63 -202 -63q-117 0 -199 50.5zM412 206q41 51 62 129q16 60 22 83.5t6 38.5q0 40 -15 69t-38 29q-56 0 -96 -54t-59.5 -131.5t-19.5 -146.5q0 -30 14.5 -49t33.5 -19q49 0 90 51z" />
    <glyph glyph-name="A" unicode="A" horiz-adv-x="764" 
d="M46 32h37q59 0 86 73l215 607h25l217 -636q10 -24 24 -34t36 -10h56v-32h-310v32h66q15 0 25 7.5t10 17.5q0 14 -4 22l-47 133h-234l-24 -67q-14 -42 -14 -58q0 -24 12 -39.5t37 -15.5h61v-32h-274v32zM259 244h212l-104 305z" />
    <glyph glyph-name="B" unicode="B" horiz-adv-x="690" 
d="M62 32h72q27 0 27 27v594q0 14 -6.5 20.5t-20.5 6.5h-72v32h326q59 0 110.5 -22t82.5 -60t31 -88q0 -65 -44 -110t-109 -59v-4q42 -3 82.5 -26t66.5 -61q26 -40 26 -88q0 -59 -31 -103.5t-86 -67.5t-118 -23h-337v32zM384 388q77 0 108.5 39t31.5 115q0 60 -37.5 99
t-94.5 39h-112q-14 0 -20.5 -6.5t-6.5 -20.5v-265h131zM388 32q65 0 102.5 38.5t37.5 123.5t-37.5 123.5t-102.5 38.5h-135v-297q0 -27 27 -27h108z" />
    <glyph glyph-name="C" unicode="C" horiz-adv-x="670" 
d="M208.5 35q-67.5 53 -103 140t-35.5 187q0 105 34.5 188.5t98 131.5t145.5 48q37 0 74 -19t78 -49q3 -2 13.5 -9.5t13.5 -7.5q8 0 11.5 4.5t7.5 16.5l19 56h25l4 -310h-28q-30 130 -88 208t-128 78q-93 0 -133.5 -83.5t-40.5 -252.5q0 -177 43 -262.5t147 -85.5
q92 0 144.5 68.5t59.5 176.5h36q-6 -124 -68 -200.5t-172 -76.5q-90 0 -157.5 53z" />
    <glyph glyph-name="D" unicode="D" horiz-adv-x="780" 
d="M62 32h72q27 0 27 27v594q0 14 -6.5 20.5t-20.5 6.5h-72v32h366q94 0 162.5 -49.5t104 -129.5t35.5 -171q0 -103 -41 -186t-110 -129.5t-151 -46.5h-366v32zM424 32q74 0 118.5 51t63 125.5t18.5 153.5q0 142 -50.5 230t-149.5 88h-144q-14 0 -20.5 -6.5t-6.5 -20.5v-594
q0 -27 27 -27h144z" />
    <glyph glyph-name="E" unicode="E" horiz-adv-x="690" 
d="M62 32h72q27 0 27 27v594q0 14 -6.5 20.5t-20.5 6.5h-72v32h558l4 -250h-25q0 56 -18 106t-54 81t-88 31h-159q-14 0 -20.5 -6.5t-6.5 -20.5v-269h77q47 0 71.5 48.5t24.5 114.5h26v-358h-26q0 66 -24.5 114.5t-71.5 48.5h-77v-293q0 -27 27 -27h160q73 0 110 54.5
t51 145.5l6 44h25l-12 -276h-558v32z" />
    <glyph glyph-name="F" unicode="F" horiz-adv-x="676" 
d="M62 32h72q27 0 27 27v594q0 14 -6.5 20.5t-20.5 6.5h-72v32h558l4 -250h-25q0 29 -10 74.5t-32 79.5q-42 64 -118 64h-159q-14 0 -20.5 -6.5t-6.5 -20.5v-269h77q47 0 71.5 50.5t24.5 118.5h26v-370h-26q0 68 -24.5 118.5t-71.5 50.5h-77v-287q0 -33 27 -33h88v-32h-306
v32z" />
    <glyph glyph-name="G" unicode="G" horiz-adv-x="720" 
d="M193 38q-63 56 -93 143t-30 181q0 105 34.5 188.5t98 131.5t145.5 48q37 0 74 -19t78 -49q3 -2 13.5 -9.5t13.5 -7.5q8 0 11.5 4.5t7.5 16.5l19 56h25l4 -310h-28q-30 130 -88 208t-128 78q-76 0 -114 -50t-49 -122.5t-11 -169.5q0 -171 37 -256.5t137 -85.5
q39 0 73 27.5t54.5 69t20.5 78.5v90q0 14 -6.5 20.5t-20.5 6.5h-111v32h330v-32h-73q-14 0 -20.5 -6.5t-6.5 -20.5v-292h-32v91q0 34 -17 34q-11 0 -18.5 -7t-16.5 -23q-26 -41 -68 -70.5t-88 -29.5q-94 0 -157 56z" />
    <glyph glyph-name="H" unicode="H" horiz-adv-x="788" 
d="M62 32h72q27 0 27 27v594q0 27 -27 27h-72v32h290v-32h-72q-27 0 -27 -27v-263h302v263q0 27 -27 27h-72v32h290v-32h-72q-27 0 -27 -27v-594q0 -27 27 -27h72v-32h-290v32h72q27 0 27 27v299h-302v-299q0 -27 27 -27h72v-32h-290v32z" />
    <glyph glyph-name="I" unicode="I" horiz-adv-x="394" 
d="M62 32h72q27 0 27 27v594q0 14 -6.5 20.5t-20.5 6.5h-72v32h290v-32h-72q-14 0 -20.5 -6.5t-6.5 -20.5v-594q0 -27 27 -27h72v-32h-290v32z" />
    <glyph glyph-name="J" unicode="J" horiz-adv-x="540" 
d="M91.5 20.5q-47.5 38.5 -47.5 104.5q0 29 12.5 50.5t33.5 32.5q19 10 37 10q28 0 42.5 -14t14.5 -36q0 -20 -11 -31.5t-37 -20.5q-18 -5 -25 -12t-7 -22q0 -30 31.5 -49t78.5 -19t75 37t28 92v510q0 14 -6.5 20.5t-20.5 6.5h-72v32h290v-32h-72q-14 0 -20.5 -6.5
t-6.5 -20.5v-459q0 -64 -26.5 -113t-71.5 -74q-44 -25 -97 -25q-75 0 -122.5 38.5z" />
    <glyph glyph-name="K" unicode="K" horiz-adv-x="756" 
d="M62 32h72q27 0 27 27v594q0 14 -6.5 20.5t-20.5 6.5h-72v32h285v-32h-67q-14 0 -20.5 -6.5t-6.5 -20.5v-310l230 235q13 15 19 28.5t6 31.5t-13 30t-32 12h-27v32h264v-32h-40q-33 0 -90 -59l-168 -170l204 -375q13 -25 29 -34.5t46 -9.5h33v-32h-302v32h67q11 0 19 6.5
t8 14.5q0 7 -2 14t-5 11l-163 306l-83 -84v-241q0 -27 27 -27h67v-32h-285v32z" />
    <glyph glyph-name="L" unicode="L" horiz-adv-x="670" 
d="M62 32h72q27 0 27 27v594q0 14 -6.5 20.5t-20.5 6.5h-72v32h306v-32h-88q-14 0 -20.5 -6.5t-6.5 -20.5v-594q0 -27 27 -27h101q65 0 104.5 30t60.5 79t35 123l6 34h25l-9 -298h-541v32z" />
    <glyph glyph-name="M" unicode="M" horiz-adv-x="838" 
d="M207 622h-6v-510q0 -47 20.5 -63.5t78.5 -16.5v-32h-238v32q40 0 61 7.5t29.5 24.5t8.5 48v541q0 14 -6.5 20.5t-20.5 6.5h-72v32h212l163 -551l152 551h207v-32h-72q-14 0 -20.5 -6.5t-6.5 -20.5v-594q0 -27 27 -27h72v-32h-290v32h72q27 0 27 27v590l-183 -661h-24z
" />
    <glyph glyph-name="N" unicode="N" horiz-adv-x="770" 
d="M205 603h-4v-491q0 -47 20.5 -63.5t78.5 -16.5v-32h-238v32q41 0 62 7.5t29 24.5t8 48v541q-1 14 -7 20.5t-20 6.5h-72v32h189l347 -558v446q0 32 -8.5 49t-29.5 24t-60 7v32h238v-32q-58 0 -79 -17.5t-21 -62.5v-618h-40z" />
    <glyph glyph-name="O" unicode="O" horiz-adv-x="700" 
d="M204 38.5q-66 56.5 -100 143.5t-34 174q0 100 38 186t104.5 137t147.5 51q90 0 156 -56.5t100 -143.5t34 -174q0 -100 -38 -186t-104.5 -137t-147.5 -51q-90 0 -156 56.5zM500 101q44 87 44 255q0 169 -44 255.5t-140 86.5t-140 -86.5t-44 -255.5q0 -168 44 -255t140 -87
t140 87z" />
    <glyph glyph-name="P" unicode="P" horiz-adv-x="680" 
d="M62 32h72q27 0 27 27v594q0 14 -6.5 20.5t-20.5 6.5h-72v32h334q69 0 124 -23.5t86 -65.5q30 -44 30 -97q0 -54 -30.5 -97.5t-84.5 -67.5q-54 -25 -125 -25h-143v-277q0 -14 6 -20.5t21 -6.5h88v-32h-306v32zM409 368q53 0 87 46t34 112t-33.5 110t-87.5 44h-129
q-14 0 -20.5 -6.5t-6.5 -20.5v-285h156z" />
    <glyph glyph-name="Q" unicode="Q" horiz-adv-x="700" 
d="M453.5 -126.5q-25.5 41.5 -31.5 118.5q-34 -10 -62 -10q-82 0 -149 53t-104 142q-37 86 -37 183q0 96 37 181.5t103 136.5q65 52 150 52q82 0 149 -51t104 -138q37 -84 37 -181q0 -75 -20 -142.5t-58 -118.5q-37 -50 -87 -80q12 -55 31.5 -85t50.5 -30q36 0 50 37.5
t14 108.5h19q0 -109 -25 -163.5t-90 -54.5q-56 0 -81.5 41.5zM265 47q-5 13 -5 28q0 42 27.5 69t69.5 27q87 0 116 -108q37 38 54 111t17 186q0 168 -44 253t-140 85t-140 -85t-44 -253q0 -113 19.5 -192.5t68.5 -121.5zM419 25q-3 56 -17 85t-48 29q-27 0 -43.5 -17.5
t-16.5 -47.5q0 -60 66 -60q31 0 59 11z" />
    <glyph glyph-name="R" unicode="R" horiz-adv-x="716" 
d="M489 35q-28 53 -29 177q-1 71 -25 113.5t-73 42.5h-109v-309q0 -14 6 -20.5t21 -6.5h89v-32h-307v32h72q27 0 27 27v594q0 14 -6.5 20.5t-20.5 6.5h-72v32h328q103 0 162 -39t59 -121q0 -72 -53.5 -117.5t-135.5 -54.5v-4q61 -12 96 -55.5t46 -138.5q8 -63 13 -83
q5 -27 13.5 -37t25.5 -10q43 0 43 108h25q0 -78 -22 -125t-82 -47q-67 0 -91 47zM350 400q81 0 118 39t37 113q0 60 -32 94t-89 34h-104q-14 0 -20.5 -6.5t-6.5 -20.5v-253h97z" />
    <glyph glyph-name="S" unicode="S" horiz-adv-x="620" 
d="M272.5 -1q-39.5 17 -74.5 42q-43 32 -50 32q-20 0 -26 -43l-4 -40h-23l-7 316h24q6 -74 41 -141t89 -109q53 -42 109 -42q78 0 117.5 38t39.5 98q0 47 -27 75.5t-85 51.5l-152 61q-79 32 -116.5 82.5t-37.5 121.5q0 92 54 140t142 48q67 0 146 -60q26 -18 38 -18
q17 0 20 24l4 36h24l10 -260h-24q-16 71 -50.5 127.5t-80.5 87.5t-95 31q-57 0 -92.5 -37t-35.5 -101q0 -43 22 -68.5t69 -44.5l193 -77q65 -26 99.5 -75.5t34.5 -106.5q0 -55 -24 -101.5t-71 -74.5q-49 -30 -122 -30q-39 0 -78.5 17z" />
    <glyph glyph-name="T" unicode="T" horiz-adv-x="714" 
d="M198 32h96q27 0 27 27v597q0 14 -6 20.5t-21 6.5q-104 0 -149 -66t-45 -191h-28l8 286h574l8 -286h-28q0 124 -45.5 190.5t-148.5 66.5q-15 0 -21 -6.5t-6 -20.5v-597q0 -27 27 -27h96v-32h-338v32z" />
    <glyph glyph-name="U" unicode="U" horiz-adv-x="780" 
d="M267 16.5q-60 34.5 -88 94.5q-28 56 -28 126v416q0 14 -6.5 20.5t-20.5 6.5h-72v32h291v-32h-73q-14 0 -20.5 -6.5t-6.5 -20.5v-443q0 -93 45 -144.5t126 -51.5q61 0 106.5 25t69.5 68q23 43 23 91v401q0 47 -21 64t-78 17v32h238v-32q-57 0 -78 -18t-21 -63v-391
q0 -64 -28.5 -115t-82.5 -81q-56 -30 -128 -30q-87 0 -147 34.5z" />
    <glyph glyph-name="V" unicode="V" horiz-adv-x="772" 
d="M166 636q-9 24 -23 34t-36 10h-63v32h320v-32h-66q-14 0 -24 -7.5t-10 -17.5q0 -13 4 -22l171 -481l132 406q12 39 12 69q0 23 -12.5 38t-38.5 15h-54v32h270v-32h-37q-33 0 -52.5 -18.5t-31.5 -54.5l-203 -625h-25z" />
    <glyph glyph-name="W" unicode="W" horiz-adv-x="1068" 
d="M159 636q-9 24 -23 34t-36 10h-62v32h296v-32h-48q-14 0 -24 -7.5t-10 -17.5t4 -22l133 -460l121 438l-10 32q-6 19 -26.5 28t-44.5 9h-29v32h296v-32h-39q-51 0 -51 -52q0 -14 6 -31l126 -433l124 394q7 30 9.5 43.5t2.5 33.5q0 19 -18 32t-48 13h-34v32h270v-32h-43
q-32 0 -51.5 -19t-29.5 -54l-199 -625h-25l-164 556l-158 -556h-25z" />
    <glyph glyph-name="X" unicode="X" horiz-adv-x="750" 
d="M46 32h31q31 0 54 16.5t45 50.5l169 253l-149 276q-16 30 -32 41t-47 11h-61v32h310v-32h-60q-18 0 -18 -15q0 -13 8 -26l108 -200l95 142q20 31 20 57q0 18 -14 30t-35 12h-31v32h270v-32h-45q-30 0 -50.5 -11.5t-37.5 -37.5l-153 -230l177 -325q14 -25 28 -34.5
t34 -9.5h62v-32h-310v32h60q27 0 27 21q0 13 -7 25l-128 236l-115 -175q-25 -37 -25 -63q0 -19 9.5 -31.5t26.5 -12.5h54v-32h-270v32z" />
    <glyph glyph-name="Y" unicode="Y" horiz-adv-x="728" 
d="M224 32h96q27 0 27 27v259l-194 318q-15 26 -27 35t-32 9h-52v32h310v-32h-60q-15 0 -25 -7t-10 -18q0 -14 5 -22l158 -267l102 196q5 7 11 28t6 33q0 25 -14 41t-41 16h-30v32h248v-32h-29q-30 0 -50 -17.5t-41 -55.5l-143 -272v-276q0 -27 27 -27h96v-32h-338v32z" />
    <glyph glyph-name="Z" unicode="Z" horiz-adv-x="652" 
d="M68 32l414 648h-188q-63 0 -107.5 -56.5t-65.5 -132.5q-8 -34 -8 -35h-25l24 256h476v-32l-410 -648h200q75 0 123.5 67.5t71.5 163.5q8 37 8 39h25l-16 -302h-522v32z" />
    <glyph glyph-name="bracketleft" unicode="[" horiz-adv-x="380" 
d="M120 -186v904l186 12l4 -26l-96 -16q-11 -1 -16.5 -10t-5.5 -22v-780q0 -13 6.5 -23.5t17.5 -11.5l94 -13l-4 -26z" />
    <glyph glyph-name="bracketright" unicode="]" horiz-adv-x="380" 
d="M70 -172l96 16q11 1 16.5 10t5.5 22v780q0 13 -5.5 22t-16.5 10l-96 16l4 26l186 -12v-904l-186 -12z" />
    <glyph glyph-name="underscore" unicode="_" horiz-adv-x="520" 
d="M0 -158v40h520v-40h-520z" />
    <glyph glyph-name="grave" unicode="`" horiz-adv-x="369" 
d="M128 609q-28 21 -28 44q0 14 7.5 22.5t20.5 8.5q14 0 25 -7t24 -25l92 -133l-13 -11z" />
    <glyph glyph-name="a" unicode="a" horiz-adv-x="494" 
d="M82 16q-36 28 -36 90q0 50 25 79t60 42t85 22l92 17v85q0 93 -93 93q-34 0 -62 -17.5t-28 -39.5q0 -18 18 -25q19 -5 28 -14.5t9 -24.5q0 -20 -12 -29.5t-32 -9.5q-23 0 -40.5 17.5t-17.5 48.5q0 36 20 63.5t54 41.5q30 13 66 13q70 0 116 -36.5t46 -105.5v-246
q0 -50 31 -50q24 0 35.5 27.5t11.5 72.5h18q0 -142 -80 -142q-42 0 -64 25t-24 71l-5 2q-17 -39 -51 -68.5t-76 -29.5q-58 0 -94 28zM259.5 55.5q25.5 31.5 48.5 94.5v95l-87 -19q-48 -10 -69.5 -39.5t-21.5 -83.5q0 -42 17.5 -60.5t44.5 -18.5q42 0 67.5 31.5z" />
    <glyph glyph-name="b" unicode="b" horiz-adv-x="512" 
d="M215 14.5q-34 26.5 -55 71.5h-4l-42 -86h-18v666q0 12 -5 17t-17 5h-52v24h146v-330l4 -1q16 38 47 62.5t69 24.5q47 0 87.5 -31.5t64.5 -86.5t24 -122q0 -66 -23.5 -121t-64.5 -87t-88 -32q-39 0 -73 26.5zM350.5 70.5q25.5 54.5 25.5 157.5t-25.5 157.5t-73.5 54.5
q-30 0 -55 -22t-39 -60q-10 -27 -12.5 -48t-2.5 -90v-38q0 -45 14.5 -83.5t39.5 -60.5t55 -22q48 0 73.5 54.5z" />
    <glyph glyph-name="c" unicode="c" horiz-adv-x="436" 
d="M137.5 23q-44.5 35 -67 90t-22.5 115q0 68 26 123t71 86t99 31q45 0 79 -19t52.5 -49.5t18.5 -62.5q0 -30 -15.5 -48t-39.5 -18q-20 0 -33.5 13t-13.5 31q0 17 8 26t23 17q10 6 14.5 10t4.5 11q0 28 -31 46.5t-67 18.5q-61 0 -84.5 -51.5t-23.5 -164.5t23.5 -164.5
t84.5 -51.5q58 0 92.5 41t41.5 103h24q-5 -74 -48.5 -121t-109.5 -47q-62 0 -106.5 35z" />
    <glyph glyph-name="d" unicode="d" horiz-adv-x="522" 
d="M136.5 19.5q-40.5 31.5 -64.5 86.5q-24 56 -24 122t24 121.5t65 87.5q40 31 87 31q38 0 69 -24.5t47 -62.5l4 1v284q0 12 -5 17t-17 5h-72v24h166v-666q0 -12 5 -17t17 -5h52v-24h-146v74l-4 1q-19 -41 -49 -64t-67 -23q-47 0 -87.5 31.5zM293 40q25 24 38 62t13 80v92
q0 45 -14.5 83.5t-39.5 60.5t-55 22q-48 0 -73.5 -54.5t-25.5 -157.5t25.5 -157.5t73.5 -54.5q33 0 58 24z" />
    <glyph glyph-name="e" unicode="e" horiz-adv-x="460" 
d="M104 51.5q-56 63.5 -56 174.5q0 64 25 119.5t70 89.5q44 33 99 33q58 0 98 -31.5t59 -84.5q17 -52 17 -122h-280q0 -218 122 -218q49 0 88 37t50 107h24q-6 -74 -51 -121t-115 -47q-94 0 -150 63.5zM330 254q0 86 -22 138t-68 52q-49 0 -76.5 -54t-27.5 -136h194z" />
    <glyph glyph-name="f" unicode="f" horiz-adv-x="330" 
d="M28 24h52q12 0 17 5t5 17v382h-74v28h74v69q0 64 21.5 109t58.5 66q35 20 73 20q44 0 73.5 -27.5t29.5 -74.5q0 -26 -12.5 -41t-34.5 -15q-18 0 -29.5 11.5t-11.5 30.5q0 10 5 20t13 16q16 9 16 24q0 16 -14.5 24t-36.5 8q-33 0 -56 -32t-23 -111v-97h94v-28h-94v-382
q0 -12 5 -17t17 -5h72v-24h-240v24z" />
    <glyph glyph-name="g" unicode="g" horiz-adv-x="540" 
d="M113 -208.5q-61 29.5 -61 86.5q0 36 29 64.5t69 34.5v3q-88 19 -88 74q0 39 30 63t79 33v3q-46 20 -73.5 57.5t-27.5 93.5q0 50 24.5 87.5t66.5 57.5q39 19 87 19q38 0 78.5 -17t54.5 -35q9 25 28 38.5t41 13.5q34 0 56 -20t22 -52q0 -24 -11.5 -39t-30.5 -15
q-17 0 -28.5 9t-11.5 27q0 21 17 32q6 4 8.5 7.5t2.5 10.5q0 8 -7.5 12t-19.5 4q-18 0 -32.5 -14.5t-16.5 -33.5q28 -38 28 -92q0 -49 -23.5 -86.5t-64.5 -57.5q-42 -20 -90 -20q-63 0 -104.5 -16.5t-41.5 -50.5q0 -18 16 -25.5t48 -7.5q9 0 43.5 1t124.5 1q66 0 108 -35.5
t42 -100.5q0 -69 -58.5 -106.5t-157.5 -37.5q-94 0 -155 29.5zM320 201q26 37 26 103t-26 103t-72 37t-72 -37t-26 -103t26 -103t72 -37t72 37zM397.5 -186.5q50.5 27.5 50.5 84.5q0 34 -20 55t-63 21h-111q-69 0 -113.5 -23t-44.5 -71q0 -45 50.5 -69.5t121.5 -24.5
q79 0 129.5 27.5z" />
    <glyph glyph-name="h" unicode="h" horiz-adv-x="544" 
d="M28 24h56q12 0 17 5t5 17v620q0 12 -5 17t-17 5h-56v24h150v-338l4 -1q23 47 56.5 71t75.5 24q69 0 101.5 -42.5t32.5 -110.5v-269q0 -12 5 -17t17 -5h42v-24h-200v24h42q12 0 17 5t5 17v288q0 48 -18.5 77t-58.5 29q-35 0 -62.5 -24t-42.5 -67q-16 -42 -16 -95v-208
q0 -12 5 -17t17 -5h42v-24h-214v24z" />
    <glyph glyph-name="i" unicode="i" horiz-adv-x="270" 
d="M95 595q-15 15 -15 37q0 23 15 37.5t37 14.5q23 0 37.5 -14.5t14.5 -37.5q0 -22 -14.5 -37t-37.5 -15q-22 0 -37 15zM38 24h42q12 0 17 5t5 17v364q0 12 -5 17t-17 5h-42v24h136v-410q0 -12 5 -17t17 -5h42v-24h-200v24z" />
    <glyph glyph-name="j" unicode="j" horiz-adv-x="320" 
d="M139 595q-15 15 -15 37q0 23 15 37.5t37 14.5q23 0 37.5 -14.5t14.5 -37.5q0 -22 -14.5 -37t-37.5 -15q-22 0 -37 15zM-8 -212q-30 26 -30 68q0 27 15.5 45.5t37.5 18.5q17 0 27 -9.5t10 -24.5q0 -11 -5 -19.5t-16 -18.5q-15 -14 -15 -30t14.5 -24t36.5 -8q33 0 56 32
t23 111v481q0 12 -5 17t-17 5h-72v24h166v-499q0 -64 -21.5 -109t-58.5 -66q-35 -20 -73 -20q-43 0 -73 26z" />
    <glyph glyph-name="k" unicode="k" horiz-adv-x="520" 
d="M28 24h52q12 0 17 5t5 17v620q0 12 -5 17t-17 5h-52v24h146v-509l136 166q11 12 14.5 19t3.5 18q0 12 -9.5 19t-24.5 7h-26v24h204v-24h-32q-26 0 -47 -13.5t-49 -47.5l-76 -93l156 -222q13 -18 22 -25t24 -7h20v-24h-212v24h26q27 0 27 20q0 10 -2.5 16.5t-10.5 19.5
l-98 140l-46 -56v-118q0 -12 5 -17t17 -5h32v-24h-200v24z" />
    <glyph glyph-name="l" unicode="l" horiz-adv-x="270" 
d="M28 24h52q12 0 17 5t5 17v620q0 12 -5 17t-17 5h-52v24h146v-666q0 -12 5 -17t17 -5h52v-24h-220v24z" />
    <glyph glyph-name="m" unicode="m" horiz-adv-x="794" 
d="M38 24h42q12 0 17 5t5 17v364q0 12 -5 17t-17 5h-42v24h136v-80l4 -1q21 45 54 69t72 24q102 0 126 -108h4q13 43 49 75.5t81 32.5q68 0 101 -46t33 -118v-258q0 -12 5 -17t17 -5h42v-24h-200v24h42q12 0 17 5t5 17v293q0 42 -20 71.5t-54 29.5q-30 0 -56 -23.5
t-43 -64.5q-17 -42 -17 -92v-214q0 -12 5 -17t17 -5h42v-24h-200v24h42q12 0 17 5t5 17v293q0 42 -20 71.5t-54 29.5q-30 0 -56 -23.5t-43 -64.5q-17 -42 -17 -92v-214q0 -12 5 -17t17 -5h42v-24h-200v24z" />
    <glyph glyph-name="n" unicode="n" horiz-adv-x="540" 
d="M38 24h42q12 0 17 5t5 17v364q0 12 -5 17t-17 5h-42v24h136v-82l4 -1q23 47 56.5 71t75.5 24q69 0 101.5 -42.5t32.5 -110.5v-269q0 -12 5 -17t17 -5h42v-24h-200v24h42q12 0 17 5t5 17v288q0 48 -18.5 77t-58.5 29q-35 0 -62.5 -24t-42.5 -67q-16 -42 -16 -95v-208
q0 -12 5 -17t17 -5h42v-24h-200v24z" />
    <glyph glyph-name="o" unicode="o" horiz-adv-x="496" 
d="M148 20.5q-46 32.5 -73 87.5t-27 120t26.5 120t72.5 88q47 32 101 32t100.5 -32.5t73.5 -87.5q26 -57 26 -120q0 -65 -26.5 -120t-72.5 -87q-46 -33 -101 -33q-54 0 -100 32.5zM333 67q27 55 27 161t-27 161t-85 55t-85 -55t-27 -161t27 -161t85 -55t85 55z" />
    <glyph glyph-name="p" unicode="p" horiz-adv-x="518" 
d="M28 -206h52q12 0 17 5t5 17v594q0 12 -5 17t-17 5h-52v24h146v-74l4 -1q19 41 49 64t67 23q47 0 87.5 -31.5t64.5 -86.5t24 -122q0 -66 -23.5 -121t-64.5 -87t-88 -32q-38 0 -69 24.5t-47 62.5l-4 -1v-258q0 -12 5 -17t17 -5h52v-24h-220v24zM356.5 70.5
q25.5 54.5 25.5 157.5t-25.5 157.5t-73.5 54.5q-33 0 -58 -24t-38 -62.5t-13 -79.5v-92q0 -45 14.5 -83.5t39.5 -60.5t55 -22q48 0 73.5 54.5z" />
    <glyph glyph-name="q" unicode="q" horiz-adv-x="502" 
d="M270 -206h52q12 0 17 5t5 17v258l-4 1q-16 -38 -47 -62.5t-69 -24.5q-47 0 -87.5 31.5t-64.5 86.5q-24 56 -24 122t24 121.5t65 87.5q40 31 87 31q39 0 73 -26.5t55 -71.5h4l42 86h18v-640q0 -12 5 -17t17 -5h52v-24h-220v24zM301 43.5q24 27.5 33.5 83.5t9.5 147
q0 45 -14.5 83.5t-39.5 60.5t-55 22q-48 0 -73.5 -54.5t-25.5 -157.5t25.5 -157.5t73.5 -54.5q42 0 66 27.5z" />
    <glyph glyph-name="r" unicode="r" horiz-adv-x="410" 
d="M38 24h42q12 0 17 5t5 17v364q0 12 -5 17t-17 5h-42v24h136v-100l4 -1q21 52 54.5 82.5t71.5 30.5q39 0 62.5 -22t23.5 -60q0 -23 -16 -43.5t-39 -20.5q-19 0 -32 10.5t-13 27.5q0 21 20 36q10 7 14 11.5t4 12.5q0 9 -8.5 14.5t-23.5 5.5q-30 0 -59 -29.5t-46 -78.5
t-17 -100v-186q0 -12 5 -17t17 -5h42v-24h-200v24z" />
    <glyph glyph-name="s" unicode="s" horiz-adv-x="434" 
d="M60 186h18l37 -79q54 -95 140 -95q45 0 68 22t23 62q0 23 -17 41t-47 30l-114 46q-57 23 -86.5 54.5t-29.5 77.5q0 59 37 91t97 32q27 0 52.5 -9t44.5 -23q22 -16 33 -16q13 0 16 18l2 20h18v-152h-18l-14 35q-22 53 -58 78t-77 25q-38 0 -61.5 -19t-23.5 -51
q0 -27 21.5 -45.5t66.5 -37.5l108 -45q50 -21 73 -50t23 -78q0 -65 -37 -97.5t-101 -32.5q-34 0 -57.5 9t-47.5 28q-23 17 -34 17q-24 0 -33 -34l-4 -20h-18v198z" />
    <glyph glyph-name="t" unicode="t" horiz-adv-x="350" 
d="M131 20.5q-29 32.5 -29 86.5v321h-74v28q60 0 89 41t29 115v36h28v-192h124v-28h-124v-326q0 -70 53 -70q71 0 71 120h18q0 -78 -22.5 -121t-87.5 -43q-46 0 -75 32.5z" />
    <glyph glyph-name="u" unicode="u" horiz-adv-x="534" 
d="M128.5 30.5q-32.5 42.5 -32.5 110.5v269q0 12 -5 17t-17 5h-42v24h136v-334q0 -48 18.5 -77t58.5 -29q35 0 62.5 24.5t43.5 67.5q15 42 15 94v208q0 12 -5 17t-17 5h-42v24h136v-410q0 -12 5 -17t17 -5h42v-24h-136v82l-4 1q-23 -47 -56.5 -71t-75.5 -24
q-69 0 -101.5 42.5z" />
    <glyph glyph-name="v" unicode="v" horiz-adv-x="530" 
d="M99 382q-10 28 -21 39t-31 11h-29v24h216v-24h-28q-13 0 -22.5 -6.5t-9.5 -17.5q0 -16 6 -33l112 -270l81 237q11 35 11 51q0 17 -10 28t-26 11h-24v24h182v-24h-23q-23 0 -41.5 -15t-27.5 -44l-132 -385h-18z" />
    <glyph glyph-name="w" unicode="w" horiz-adv-x="776" 
d="M103 373q-15 35 -26.5 47t-35.5 12h-23v24h216v-24h-31q-14 0 -21.5 -8t-7.5 -20t6 -29l112 -270l75 253l-13 46q-6 15 -14 21.5t-20 6.5h-30v24h216v-24h-40q-29 0 -29 -30q0 -10 8 -32l93 -265l81 237q11 35 11 51q0 39 -36 39h-24v24h182v-24h-23q-23 0 -41.5 -15
t-27.5 -44l-136 -385h-18l-120 328l-104 -328h-18z" />
    <glyph glyph-name="x" unicode="x" horiz-adv-x="520" 
d="M34 24h26q22 0 38 13t35 42l91 136l-122 195q-9 13 -16.5 17.5t-23.5 4.5h-24v24h198v-24h-24q-20 0 -20 -20q0 -10 6 -21l69 -112l66 98q9 14 9 32q0 11 -7 17t-17 6h-24v24h174v-24h-25q-21 0 -37 -10t-32 -34l-91 -134l127 -204q10 -15 19 -20.5t30 -5.5h23v-24h-208
v24h30q23 0 23 17q0 9 -7 21l-80 128l-68 -101q-15 -24 -15 -35q0 -30 25 -30h18v-24h-166v24z" />
    <glyph glyph-name="y" unicode="y" horiz-adv-x="530" 
d="M68.5 -211.5q-26.5 26.5 -26.5 61.5q0 25 15 41t35 16q22 0 34 -14t12 -37q0 -13 -8 -27q-6 -14 -6 -20q0 -15 20 -15q28 0 49.5 22t31.5 57l27 87l-142 413q-13 34 -24 46.5t-35 12.5h-33v24h226v-24h-32q-13 0 -22.5 -6.5t-9.5 -17.5q0 -16 6 -33l104 -307l83 274
q11 35 11 51q0 17 -10 28t-26 11h-24v24h182v-24h-23q-23 0 -41.5 -15t-27.5 -44l-161 -512q-12 -40 -44 -69.5t-75 -29.5q-39 0 -65.5 26.5z" />
    <glyph glyph-name="z" unicode="z" horiz-adv-x="440" 
d="M40 26l260 406h-122q-54 0 -76.5 -31.5t-33.5 -80.5q-8 -35 -8 -40h-20l6 176h336v-32l-259 -400h127q62 0 88 50q13 26 21.5 59t8.5 43h20l-6 -176h-342v26z" />
    <glyph glyph-name="braceleft" unicode="{" horiz-adv-x="420" 
d="M324 -196q-150 49 -150 168q0 38 19 106q2 7 9.5 39t7.5 57q0 48 -24.5 66t-81.5 18v18q59 0 82.5 15t23.5 63q0 26 -8 59.5t-9 39.5q-19 70 -19 109q0 119 150 168l12 -24q-56 -20 -79 -39t-23 -55q0 -23 4.5 -46.5t13.5 -55.5q9 -34 13.5 -57t4.5 -47q0 -108 -94 -138
v-2q43 -14 68.5 -49t25.5 -95q0 -23 -4.5 -46t-13.5 -54t-13.5 -54t-4.5 -46q0 -36 23 -55t79 -39z" />
    <glyph glyph-name="bar" unicode="|" horiz-adv-x="284" 
d="M120 -198v928h44v-928h-44z" />
    <glyph glyph-name="braceright" unicode="}" horiz-adv-x="420" 
d="M84 -172q56 20 79 39t23 55q0 23 -4.5 45t-13.5 58t-13.5 58t-4.5 45q0 108 94 138v2q-94 30 -94 138q0 23 4.5 46t13.5 57q9 33 13.5 56.5t4.5 46.5q0 36 -23 55t-79 39l12 24q150 -49 150 -168q0 -38 -19 -108q-2 -7 -9.5 -41t-7.5 -59q0 -48 24.5 -63t81.5 -15v-18
q-57 0 -81.5 -15.5t-24.5 -62.5q0 -26 8 -59.5t9 -39.5q19 -70 19 -109q0 -119 -150 -168z" />
    <glyph glyph-name="asciitilde" unicode="~" horiz-adv-x="660" 
d="M112 163q-31 14 -47.5 37.5t-16.5 52.5q0 41 31 70t83 29q39 0 82.5 -14.5t125.5 -49.5q70 -31 105.5 -43.5t62.5 -12.5q16 0 28 13t12 33t-10.5 34t-31.5 26l12 21q31 -14 47.5 -37.5t16.5 -52.5q0 -41 -31 -70t-83 -29q-40 0 -88 15.5t-120 48.5q-66 30 -103 43t-65 13
q-16 0 -28 -13t-12 -33t10.5 -34t31.5 -26z" />
    <glyph glyph-name="exclamdown" unicode="&#xa1;" 
d="M95.5 361.5q-17.5 17.5 -17.5 44.5t17.5 44.5t44.5 17.5t44.5 -17.5t17.5 -44.5t-17.5 -44.5t-44.5 -17.5t-44.5 17.5zM95 -218.5q-17 19.5 -17 52.5q0 51 17 148q14 80 17 118l16 200h24l16 -200q3 -38 17 -118q17 -97 17 -148q0 -33 -17 -52.5t-45 -19.5t-45 19.5z" />
    <glyph glyph-name="cent" unicode="&#xa2;" horiz-adv-x="580" 
d="M290 -11q-83 9 -130.5 75t-47.5 164q0 60 23 113.5t63.5 87.5t91.5 38v109h32v-109q58 -4 97 -41.5t39 -88.5q0 -30 -15.5 -48t-39.5 -18q-20 0 -33.5 13t-13.5 31q0 17 9.5 29.5t24.5 16.5q16 4 16 18q0 25 -26 43.5t-58 20.5v-431q53 3 83 42.5t37 101.5h24
q-4 -68 -41.5 -116.5t-102.5 -51.5v-108h-32v109zM290 442q-45 -11 -67.5 -71.5t-22.5 -142.5t22 -141t68 -72v427z" />
    <glyph glyph-name="sterling" unicode="&#xa3;" horiz-adv-x="720" 
d="M381.5 1q-43.5 19 -102.5 56q-24 -28 -56.5 -48.5t-60.5 -20.5q-43 0 -70.5 20t-27.5 58q0 34 28.5 57t63.5 23q50 0 111 -29q6 24 7.5 42.5t1.5 56.5q0 32 -2 71.5t-5 65.5q-53 9 -65 9q-25 0 -39 -4.5t-37 -17.5l-14 22q16 14 35 21t47 7q21 0 71 -10q-1 9 -1 50
q0 71 28.5 133t78.5 99.5t111 37.5t102 -35.5t41 -87.5q0 -35 -15.5 -55t-44.5 -20q-21 0 -35.5 13t-14.5 34q0 17 7 26t20 17q10 7 15.5 13.5t5.5 17.5q0 21 -21 36t-60 15q-59 0 -93 -49.5t-34 -122.5v-138q45 -8 61 -8q25 0 40.5 5t35.5 17l14 -22q-28 -28 -82 -28
q-17 0 -69 9v-65q0 -108 -48 -177q37 -22 89 -34.5t101 -12.5q43 0 77 36t44 84l18 -7q-35 -179 -179 -179q-34 0 -77.5 19zM211 31q25 19 40 48q-32 23 -54 33t-47 10t-41.5 -16.5t-16.5 -39.5q0 -54 70 -54q24 0 49 19z" />
    <glyph glyph-name="currency" unicode="&#xa4;" horiz-adv-x="580" 
d="M52 136l67 67q-49 59 -49 139q0 79 50 140l-68 68l31 31l67 -67q61 50 140 50t140 -50l67 67l31 -31l-68 -68q50 -61 50 -140q0 -80 -49 -139l67 -67l-31 -31l-67 67q-61 -50 -140 -50t-140 50l-67 -67zM382 185.5q41 23.5 64.5 64.5t23.5 92t-23 92.5t-64 65.5t-93 24
t-93 -24.5t-64 -66t-23 -91.5q0 -52 24 -93t65.5 -64t90.5 -23q51 0 92 23.5z" />
    <glyph glyph-name="yen" unicode="&#xa5;" horiz-adv-x="580" 
d="M136 32h74q28 0 28 28v134h-140v32h140v72h-140v32h134l-139 283q-10 20 -19.5 29.5t-24.5 9.5h-35v32h228v-32h-33q-27 0 -27 -17q0 -6 8 -25l121 -246l109 198q20 37 20 55q0 14 -8.5 24.5t-25.5 10.5h-42v32h200v-32h-22q-20 0 -38 -18.5t-41 -56.5l-137 -247h140v-32
h-140v-72h140v-32h-140v-134q0 -14 6.5 -21t21.5 -7h74v-32h-292v32z" />
    <glyph glyph-name="brokenbar" unicode="&#xa6;" horiz-adv-x="284" 
d="M120 370v360h44v-360h-44zM120 -168v360h44v-360h-44z" />
    <glyph glyph-name="section" unicode="&#xa7;" horiz-adv-x="640" 
d="M213.5 -172.5q-27.5 13.5 -44.5 37t-17 51.5q0 26 14.5 40t39.5 14q19 0 33.5 -12.5t14.5 -29.5q0 -15 -5.5 -23.5t-18.5 -17.5q-7 -4 -9.5 -7.5t-2.5 -11.5q0 -14 15 -22t37 -8q37 0 63.5 21.5t26.5 56.5q0 39 -15 67.5t-51 58.5l-128 108q-35 32 -50.5 62.5t-15.5 73.5
q0 77 110 148q-60 54 -60 128q0 40 20.5 71.5t54.5 49t73 17.5q46 0 82 -29.5t36 -70.5q0 -26 -15 -41t-37 -15q-21 0 -35.5 13t-14.5 31q0 14 5.5 22t20.5 18q6 4 8 7.5t2 10.5q0 15 -14 22.5t-38 7.5q-38 0 -64 -21.5t-26 -56.5q0 -41 14.5 -66t53.5 -60l128 -110
q37 -31 51.5 -60t14.5 -76q0 -42 -29 -77t-81 -69q27 -29 42.5 -62.5t15.5 -69.5q0 -60 -43 -97t-105 -37q-29 0 -56.5 13.5zM405 140q27 26 27 46q0 31 -10.5 53.5t-33.5 40.5l-140 120q-8 6 -20 20q-90 -55 -90 -94q0 -54 42 -92l140 -118q17 -15 22 -22q36 20 63 46z" />
    <glyph glyph-name="dieresis" unicode="&#xa8;" horiz-adv-x="484" 
d="M114.5 562.5q-14.5 14.5 -14.5 33.5q0 20 14.5 34t33.5 14q20 0 34 -14t14 -34q0 -19 -14 -33.5t-34 -14.5q-19 0 -33.5 14.5zM302.5 562.5q-14.5 14.5 -14.5 33.5q0 20 14.5 34t33.5 14q20 0 34 -14t14 -34q0 -19 -14 -33.5t-34 -14.5q-19 0 -33.5 14.5z" />
    <glyph glyph-name="copyright" unicode="&#xa9;" horiz-adv-x="820" 
d="M227 32q-83 50 -131 137q-48 86 -48 187q0 102 47 187.5t131 136.5q83 50 184 50q100 0 183 -50t132 -136q47 -86 47 -188t-47.5 -187.5t-130.5 -135.5q-82 -51 -184 -51q-100 0 -183 50zM577.5 56.5q76.5 46.5 122.5 127.5q44 80 44 172q0 93 -44 172.5t-121 126.5
t-169 47q-91 0 -167.5 -46.5t-121.5 -126.5q-45 -79 -45 -173q0 -92 44.5 -171.5t121.5 -127.5q77 -47 168 -47t167.5 46.5zM315.5 141q-45.5 31 -70.5 83.5t-25 113.5q0 71 23.5 128.5t69.5 90.5t111 33q19 0 34.5 -6.5t31.5 -18.5q10 -6 19.5 -10.5t16.5 -4.5q9 0 15.5 11
t6.5 23h18v-164h-18q-3 34 -22.5 68.5t-47 56t-54.5 21.5q-116 0 -116 -228q0 -83 29 -143.5t85 -60.5q57 0 89 39.5t39 104.5h24q-4 -71 -44 -119.5t-108 -48.5q-61 0 -106.5 31z" />
    <glyph glyph-name="ordfeminine" unicode="&#xaa;" horiz-adv-x="380" 
d="M62 472q0 31 26 54t71 44l49 22v38q0 26 -14 39t-37 13q-22 0 -38.5 -9t-16.5 -22q0 -6 2 -9t8 -3q9 0 15.5 -7.5t6.5 -16.5q0 -12 -8 -18.5t-20 -6.5q-17 0 -27.5 9.5t-10.5 27.5q0 32 26.5 52.5t61.5 20.5q44 0 72 -21t28 -64v-141q0 -37 23 -37q16 0 21.5 15t5.5 45
h14q0 -38 -12 -61.5t-40 -23.5q-26 0 -41.5 13.5t-17.5 36.5l-2 1q-14 -21 -33.5 -36t-41.5 -15q-70 0 -70 60zM184.5 450.5q13.5 9.5 23.5 29.5v93l-39 -19q-26 -12 -38.5 -32t-12.5 -44q0 -17 10 -27t23 -10q20 0 33.5 9.5zM70 362v24h240v-24h-240z" />
    <glyph glyph-name="logicalnot" unicode="&#xac;" horiz-adv-x="580" 
d="M488 160v166h-440v40h484v-206h-44z" />
    <glyph glyph-name="registered" unicode="&#xae;" horiz-adv-x="820" 
d="M227 32q-83 50 -131 137q-48 86 -48 187q0 102 47 187.5t131 136.5q83 50 184 50q100 0 183 -50t132 -136q47 -86 47 -188t-47.5 -187.5t-130.5 -135.5q-82 -51 -184 -51q-100 0 -183 50zM577.5 56.5q76.5 46.5 122.5 127.5q44 80 44 172q0 93 -44 172.5t-121 126.5
t-169 47q-91 0 -167.5 -46.5t-121.5 -126.5q-45 -79 -45 -173q0 -92 44.5 -171.5t121.5 -127.5q77 -47 168 -47t167.5 46.5zM505.5 146.5q-19.5 28.5 -24.5 86.5q-5 68 -18.5 96.5t-52.5 28.5h-74v-182q0 -12 5 -17t17 -5h44v-24h-202v24h42q12 0 17 5t5 17v364q0 12 -5 17
t-17 5h-42v24h228q65 0 105.5 -29t40.5 -81q0 -47 -34 -74.5t-78 -33.5v-4q46 -12 68 -46.5t28 -91.5q4 -40 11.5 -58t24.5 -18q22 0 32 28t10 66h18q0 -55 -19.5 -90.5t-65.5 -35.5q-44 0 -63.5 28.5zM413 382q33 0 53 23.5t20 64.5q0 92 -74 92h-54q-12 0 -17 -5t-5 -17
v-158h77z" />
    <glyph glyph-name="macron" unicode="&#xaf;" horiz-adv-x="460" 
d="M100 572v40h260v-40h-260z" />
    <glyph glyph-name="degree" unicode="&#xb0;" horiz-adv-x="580" 
d="M221.5 446q-31.5 18 -49.5 50t-18 68q0 37 18 68.5t50 49.5t68 18q37 0 68.5 -18t49.5 -49t18 -69q0 -37 -18 -68.5t-49 -49.5t-69 -18q-37 0 -68.5 18zM364.5 489.5q29.5 29.5 29.5 74.5t-29.5 74.5t-74.5 29.5t-74.5 -29.5t-29.5 -74.5t29.5 -74.5t74.5 -29.5
t74.5 29.5z" />
    <glyph glyph-name="plusminus" unicode="&#xb1;" horiz-adv-x="940" 
d="M448 64v274h-400v40h400v274h44v-274h400v-40h-400v-274h-44zM48 -40v40h836v-40h-836z" />
    <glyph glyph-name="acute" unicode="&#xb4;" horiz-adv-x="369" 
d="M100 519l92 133q13 18 24 25t25 7q13 0 20.5 -8.5t7.5 -22.5q0 -23 -28 -44l-128 -101z" />
    <glyph glyph-name="paragraph" unicode="&#xb6;" horiz-adv-x="540" 
d="M232 386q-73 0 -120.5 43.5t-47.5 114.5q0 47 22 85.5t60.5 60.5t85.5 22h244v-34h-68v-834h-38v834h-100v-834h-38v542z" />
    <glyph glyph-name="periodcentered" unicode="&#xb7;" 
d="M95.5 271.5q-17.5 17.5 -17.5 44.5t17.5 44.5t44.5 17.5t44.5 -17.5t17.5 -44.5t-17.5 -44.5t-44.5 -17.5t-44.5 17.5z" />
    <glyph glyph-name="cedilla" unicode="&#xb8;" horiz-adv-x="386" 
d="M124.5 -195q-24.5 17 -24.5 46q0 11 7 19t17 8q22 0 27 -32q7 -40 40 -40q28 0 42.5 12.5t14.5 35.5q0 48 -58 48h-41l16 98h23l-8 -50h26q35 0 57.5 -19t22.5 -53q0 -40 -25.5 -65t-76.5 -25q-35 0 -59.5 17z" />
    <glyph glyph-name="ordmasculine" unicode="&#xba;" horiz-adv-x="380" 
d="M129 431.5q-27 19.5 -43 52.5q-16 32 -16 72q0 39 16 72t43 53q26 19 60 19q33 0 61 -19.5t44 -52.5q16 -32 16 -72q0 -39 -16 -71.5t-44 -52.5q-29 -20 -61 -20q-33 0 -60 19.5zM238 465.5q16 35.5 16 90.5t-16 90.5t-49 35.5q-32 0 -47.5 -35.5t-15.5 -90.5t15.5 -90.5
t47.5 -35.5q33 0 49 35.5zM70 362v24h240v-24h-240z" />
    <glyph glyph-name="questiondown" unicode="&#xbf;" horiz-adv-x="470" 
d="M292.5 414.5q17.5 -17.5 17.5 -44.5t-17.5 -44.5t-44.5 -17.5t-44.5 17.5t-17.5 44.5t17.5 44.5t44.5 17.5t44.5 -17.5zM287.5 254q19.5 -12 32 -33.5t12.5 -49.5q0 -16 -11 -35l-18 8q5 12 5 26q0 30 -17 48t-43 18t-41 -12t-15 -36q0 -57 89 -119q44 -30 74 -55
t51.5 -59.5t21.5 -76.5q0 -70 -55 -111t-141 -41q-38 0 -77.5 17.5t-65 49t-25.5 72.5q0 39 20 63t49 24q26 0 40.5 -13t14.5 -35q0 -18 -9.5 -29t-26.5 -11l-26 2q-11 0 -14.5 -6.5t-3.5 -25.5t16.5 -37t43.5 -29.5t57 -11.5q55 0 85 33.5t30 88.5q0 37 -13.5 64.5
t-44.5 61.5l-27 29q-49 53 -66.5 74t-24 37.5t-6.5 40.5q0 38 25 59.5t65 21.5q20 0 39.5 -12z" />
    <glyph glyph-name="Agrave" unicode="&#xc0;" horiz-adv-x="764" 
d="M280 863q-28 21 -28 44q0 14 7.5 22.5t20.5 8.5q14 0 25 -7t24 -25l92 -133l-13 -11zM46 32h37q59 0 86 73l215 607h25l217 -636q10 -24 24 -34t36 -10h56v-32h-310v32h66q15 0 25 7.5t10 17.5q0 14 -4 22l-47 133h-234l-24 -67q-14 -42 -14 -58q0 -24 12 -39.5t37 -15.5
h61v-32h-274v32zM259 244h212l-104 305z" />
    <glyph glyph-name="Aacute" unicode="&#xc1;" horiz-adv-x="764" 
d="M371 773l92 133q13 18 24 25t25 7q13 0 20.5 -8.5t7.5 -22.5q0 -23 -28 -44l-128 -101zM46 32h37q59 0 86 73l215 607h25l217 -636q10 -24 24 -34t36 -10h56v-32h-310v32h66q15 0 25 7.5t10 17.5q0 14 -4 22l-47 133h-234l-24 -67q-14 -42 -14 -58q0 -24 12 -39.5
t37 -15.5h61v-32h-274v32zM259 244h212l-104 305z" />
    <glyph glyph-name="Acircumflex" unicode="&#xc2;" horiz-adv-x="764" 
d="M238 778q92 53 138 142h40q46 -89 138 -142l-10 -16q-26 9 -71.5 38.5t-76.5 57.5q-31 -28 -76.5 -57.5t-71.5 -38.5zM46 32h37q59 0 86 73l215 607h25l217 -636q10 -24 24 -34t36 -10h56v-32h-310v32h66q15 0 25 7.5t10 17.5q0 14 -4 22l-47 133h-234l-24 -67
q-14 -42 -14 -58q0 -24 12 -39.5t37 -15.5h61v-32h-274v32zM259 244h212l-104 305z" />
    <glyph glyph-name="Atilde" unicode="&#xc3;" horiz-adv-x="764" 
d="M240 810q3 40 26 66t60 26q15 0 40 -6.5t50 -14.5q53 -17 72 -17q36 0 44 42l20 -2q-3 -40 -26 -66t-60 -26q-15 0 -40 6.5t-50 14.5q-53 17 -72 17q-36 0 -44 -42zM46 32h37q59 0 86 73l215 607h25l217 -636q10 -24 24 -34t36 -10h56v-32h-310v32h66q15 0 25 7.5
t10 17.5q0 14 -4 22l-47 133h-234l-24 -67q-14 -42 -14 -58q0 -24 12 -39.5t37 -15.5h61v-32h-274v32zM259 244h212l-104 305z" />
    <glyph glyph-name="Adieresis" unicode="&#xc4;" horiz-adv-x="764" 
d="M257 813q-15 15 -15 37q0 23 15 37.5t37 14.5q23 0 37.5 -14.5t14.5 -37.5q0 -22 -14.5 -37t-37.5 -15q-22 0 -37 15zM461 813q-15 15 -15 37q0 23 15 37.5t37 14.5q23 0 37.5 -14.5t14.5 -37.5q0 -22 -14.5 -37t-37.5 -15q-22 0 -37 15zM46 32h37q59 0 86 73l215 607h25
l217 -636q10 -24 24 -34t36 -10h56v-32h-310v32h66q15 0 25 7.5t10 17.5q0 14 -4 22l-47 133h-234l-24 -67q-14 -42 -14 -58q0 -24 12 -39.5t37 -15.5h61v-32h-274v32zM259 244h212l-104 305z" />
    <glyph glyph-name="Aring" unicode="&#xc5;" horiz-adv-x="764" 
d="M327 781q-29 29 -29 69q0 41 29 69.5t69 28.5q41 0 69.5 -28.5t28.5 -69.5q0 -40 -28.5 -69t-69.5 -29q-40 0 -69 29zM448.5 797.5q21.5 21.5 21.5 52.5t-21.5 52.5t-52.5 21.5t-52.5 -21.5t-21.5 -52.5t21.5 -52.5t52.5 -21.5t52.5 21.5zM46 32h37q59 0 86 73l215 607
h25l217 -636q10 -24 24 -34t36 -10h56v-32h-310v32h66q15 0 25 7.5t10 17.5q0 14 -4 22l-47 133h-234l-24 -67q-14 -42 -14 -58q0 -24 12 -39.5t37 -15.5h61v-32h-274v32zM259 244h212l-104 305z" />
    <glyph glyph-name="AE" unicode="&#xc6;" horiz-adv-x="1004" 
d="M26 32h32q36 0 60 19t41 54l266 503q17 32 17 51q0 11 -5.5 16t-19.5 5h-41v32h558l4 -250h-25q0 56 -17.5 106t-54 81t-88.5 31h-159q-14 0 -20.5 -6.5t-6.5 -20.5v-269h77q47 0 71.5 48.5t24.5 114.5h26v-358h-26q0 66 -24.5 114.5t-71.5 48.5h-77v-293q0 -27 27 -27
h160q55 0 88 29.5t50 81.5t29 133h25l-12 -276h-553v32h67q27 0 27 27v153h-216l-36 -67q-18 -34 -18 -60t9 -39.5t35 -13.5h47v-32h-270v32zM475 244v376l-199 -376h199z" />
    <glyph glyph-name="Ccedilla" unicode="&#xc7;" horiz-adv-x="670" 
d="M297 -219q-29 19 -29 51q0 12 7.5 21t19.5 9q26 0 32 -35q3 -19 17 -30t35 -11q30 0 45.5 13t15.5 37q0 52 -68 52h-49l17 95q-89 8 -150 67t-90.5 143t-29.5 169q0 105 34.5 188.5t98 131.5t145.5 48q37 0 74 -19t78 -49q3 -2 13.5 -9.5t13.5 -7.5q8 0 11.5 4.5
t7.5 16.5l19 56h25l4 -310h-28q-30 130 -88 208t-128 78q-93 0 -133.5 -83.5t-40.5 -252.5q0 -177 43 -262.5t147 -85.5q92 0 144.5 68.5t59.5 176.5h36q-6 -124 -68 -200.5t-172 -76.5l-7 -38h31q41 0 67.5 -21.5t26.5 -59.5q0 -45 -29.5 -73t-88.5 -28q-40 0 -69 19z" />
    <glyph glyph-name="Egrave" unicode="&#xc8;" horiz-adv-x="690" 
d="M252 863q-28 21 -28 44q0 14 7.5 22.5t20.5 8.5q14 0 25 -7t24 -25l92 -133l-13 -11zM62 32h72q27 0 27 27v594q0 14 -6.5 20.5t-20.5 6.5h-72v32h558l4 -250h-25q0 29 -10 74.5t-32 79.5q-42 64 -118 64h-159q-14 0 -20.5 -6.5t-6.5 -20.5v-269h77q47 0 71.5 48.5
t24.5 114.5h26v-358h-26q0 66 -24.5 114.5t-71.5 48.5h-77v-293q0 -27 27 -27h160q73 0 110 54.5t51 145.5l6 44h25l-12 -276h-558v32z" />
    <glyph glyph-name="Eacute" unicode="&#xc9;" horiz-adv-x="690" 
d="M343 773l92 133q13 18 24 25t25 7q13 0 20.5 -8.5t7.5 -22.5q0 -23 -28 -44l-128 -101zM62 32h72q27 0 27 27v594q0 14 -6.5 20.5t-20.5 6.5h-72v32h558l4 -250h-25q0 56 -18 106t-54 81t-88 31h-159q-14 0 -20.5 -6.5t-6.5 -20.5v-269h77q47 0 71.5 48.5t24.5 114.5h26
v-358h-26q0 66 -24.5 114.5t-71.5 48.5h-77v-293q0 -27 27 -27h160q68 0 104 46.5t44.5 86.5t18.5 111h25l-12 -276h-558v32z" />
    <glyph glyph-name="Ecircumflex" unicode="&#xca;" horiz-adv-x="690" 
d="M210 778q92 53 138 142h40q46 -89 138 -142l-10 -16q-26 9 -71.5 38.5t-76.5 57.5q-31 -28 -76.5 -57.5t-71.5 -38.5zM62 32h72q27 0 27 27v594q0 14 -6.5 20.5t-20.5 6.5h-72v32h558l4 -250h-25q0 29 -10 74.5t-32 79.5q-42 64 -118 64h-159q-14 0 -20.5 -6.5
t-6.5 -20.5v-269h77q47 0 71.5 48.5t24.5 114.5h26v-358h-26q0 66 -24.5 114.5t-71.5 48.5h-77v-293q0 -27 27 -27h160q73 0 110 54.5t51 145.5l6 44h25l-12 -276h-558v32z" />
    <glyph glyph-name="Edieresis" unicode="&#xcb;" horiz-adv-x="690" 
d="M229 813q-15 15 -15 37q0 23 15 37.5t37 14.5q23 0 37.5 -14.5t14.5 -37.5q0 -22 -14.5 -37t-37.5 -15q-22 0 -37 15zM433 813q-15 15 -15 37q0 23 15 37.5t37 14.5q23 0 37.5 -14.5t14.5 -37.5q0 -22 -14.5 -37t-37.5 -15q-22 0 -37 15zM62 32h72q27 0 27 27v594
q0 14 -6.5 20.5t-20.5 6.5h-72v32h558l4 -250h-25q0 29 -10 74.5t-32 79.5q-42 64 -118 64h-159q-14 0 -20.5 -6.5t-6.5 -20.5v-269h77q47 0 71.5 48.5t24.5 114.5h26v-358h-26q0 66 -24.5 114.5t-71.5 48.5h-77v-293q0 -27 27 -27h160q73 0 110 54.5t51 145.5l6 44h25
l-12 -276h-558v32z" />
    <glyph glyph-name="Igrave" unicode="&#xcc;" horiz-adv-x="394" 
d="M92 863q-28 21 -28 44q0 14 7.5 22.5t20.5 8.5q14 0 25 -7t24 -25l92 -133l-13 -11zM62 32h72q27 0 27 27v594q0 14 -6.5 20.5t-20.5 6.5h-72v32h290v-32h-72q-14 0 -20.5 -6.5t-6.5 -20.5v-594q0 -27 27 -27h72v-32h-290v32z" />
    <glyph glyph-name="Iacute" unicode="&#xcd;" horiz-adv-x="394" 
d="M183 773l92 133q13 18 24 25t25 7q13 0 20.5 -8.5t7.5 -22.5q0 -23 -28 -44l-128 -101zM62 32h72q27 0 27 27v594q0 14 -6.5 20.5t-20.5 6.5h-72v32h290v-32h-72q-14 0 -20.5 -6.5t-6.5 -20.5v-594q0 -27 27 -27h72v-32h-290v32z" />
    <glyph glyph-name="Icircumflex" unicode="&#xce;" horiz-adv-x="394" 
d="M50 778q92 53 138 142h40q46 -89 138 -142l-10 -16q-26 9 -71.5 38.5t-76.5 57.5q-31 -28 -76.5 -57.5t-71.5 -38.5zM62 32h72q27 0 27 27v594q0 14 -6.5 20.5t-20.5 6.5h-72v32h290v-32h-72q-14 0 -20.5 -6.5t-6.5 -20.5v-594q0 -27 27 -27h72v-32h-290v32z" />
    <glyph glyph-name="Idieresis" unicode="&#xcf;" horiz-adv-x="394" 
d="M69 813q-15 15 -15 37q0 23 15 37.5t37 14.5q23 0 37.5 -14.5t14.5 -37.5q0 -22 -14.5 -37t-37.5 -15q-22 0 -37 15zM273 813q-15 15 -15 37q0 23 15 37.5t37 14.5q23 0 37.5 -14.5t14.5 -37.5q0 -22 -14.5 -37t-37.5 -15q-22 0 -37 15zM62 32h72q27 0 27 27v594
q0 14 -6.5 20.5t-20.5 6.5h-72v32h290v-32h-72q-14 0 -20.5 -6.5t-6.5 -20.5v-594q0 -27 27 -27h72v-32h-290v32z" />
    <glyph glyph-name="Eth" unicode="&#xd0;" horiz-adv-x="768" 
d="M62 32h72q27 0 27 27v297h-93v36h93v261q0 14 -6.5 20.5t-20.5 6.5h-72v32h366q94 0 162.5 -49.5t104 -129.5t35.5 -171q0 -103 -41 -186t-110 -129.5t-151 -46.5h-366v32zM424 32q74 0 118.5 51t63 125.5t18.5 153.5q0 142 -50.5 230t-149.5 88h-144q-14 0 -20.5 -6.5
t-6.5 -20.5v-261h115v-36h-115v-297q0 -27 27 -27h144z" />
    <glyph glyph-name="Ntilde" unicode="&#xd1;" horiz-adv-x="770" 
d="M260 810q3 40 26 66t60 26q29 0 90 -21q51 -17 72 -17q36 0 44 42l20 -2q-3 -40 -26 -66t-60 -26q-28 0 -90 21q-51 17 -72 17q-36 0 -44 -42zM205 603h-4v-491q0 -47 20.5 -63.5t78.5 -16.5v-32h-238v32q41 0 62 7.5t29 24.5t8 48v541q-1 14 -7 20.5t-20 6.5h-72v32h189
l347 -558v446q0 32 -8.5 49t-29.5 24t-60 7v32h238v-32q-58 0 -79 -17.5t-21 -62.5v-618h-40z" />
    <glyph glyph-name="Ograve" unicode="&#xd2;" horiz-adv-x="700" 
d="M244 863q-28 21 -28 44q0 14 7.5 22.5t20.5 8.5q14 0 25 -7t24 -25l92 -133l-13 -11zM211.5 34q-66.5 52 -104.5 141q-37 84 -37 181q0 96 37 182t103 139q67 53 150 53q82 0 148.5 -52t104.5 -140q37 -86 37 -182t-37 -182t-103 -139q-67 -53 -150 -53q-82 0 -148.5 52z
M500 101q44 87 44 255q0 169 -44 255.5t-140 86.5t-140 -86.5t-44 -255.5q0 -168 44 -255t140 -87t140 87z" />
    <glyph glyph-name="Oacute" unicode="&#xd3;" horiz-adv-x="700" 
d="M335 773l92 133q13 18 24 25t25 7q13 0 20.5 -8.5t7.5 -22.5q0 -23 -28 -44l-128 -101zM211.5 34q-66.5 52 -104.5 141q-37 84 -37 181q0 96 37 182t103 139q67 53 150 53q82 0 148.5 -52t104.5 -140q37 -86 37 -182t-37 -182t-103 -139q-67 -53 -150 -53
q-82 0 -148.5 52zM500 101q44 87 44 255q0 169 -44 255.5t-140 86.5t-140 -86.5t-44 -255.5q0 -168 44 -255t140 -87t140 87z" />
    <glyph glyph-name="Ocircumflex" unicode="&#xd4;" horiz-adv-x="700" 
d="M202 778q92 53 138 142h40q46 -89 138 -142l-10 -16q-26 9 -71.5 38.5t-76.5 57.5q-31 -28 -76.5 -57.5t-71.5 -38.5zM211.5 34q-66.5 52 -104.5 141q-37 84 -37 181q0 96 37 182t103 139q67 53 150 53q82 0 148.5 -52t104.5 -140q37 -86 37 -182t-37 -182t-103 -139
q-67 -53 -150 -53q-82 0 -148.5 52zM500 101q44 87 44 255q0 169 -44 255.5t-140 86.5t-140 -86.5t-44 -255.5q0 -168 44 -255t140 -87t140 87z" />
    <glyph glyph-name="Otilde" unicode="&#xd5;" horiz-adv-x="700" 
d="M204 810q3 40 26 66t60 26q28 0 90 -21q51 -17 72 -17q36 0 44 42l20 -2q-3 -40 -26 -66t-60 -26q-28 0 -90 21q-51 17 -72 17q-36 0 -44 -42zM211.5 34q-66.5 52 -104.5 141q-37 84 -37 181q0 96 37 182t103 139q67 53 150 53q82 0 148.5 -52t104.5 -140q37 -86 37 -182
t-37 -182t-103 -139q-67 -53 -150 -53q-82 0 -148.5 52zM500 101q44 87 44 255q0 169 -44 255.5t-140 86.5t-140 -86.5t-44 -255.5q0 -168 44 -255t140 -87t140 87z" />
    <glyph glyph-name="Odieresis" unicode="&#xd6;" horiz-adv-x="700" 
d="M221 813q-15 15 -15 37q0 23 15 37.5t37 14.5q23 0 37.5 -14.5t14.5 -37.5q0 -22 -14.5 -37t-37.5 -15q-22 0 -37 15zM425 813q-15 15 -15 37q0 23 15 37.5t37 14.5q23 0 37.5 -14.5t14.5 -37.5q0 -22 -14.5 -37t-37.5 -15q-22 0 -37 15zM211.5 34q-66.5 52 -104.5 141
q-37 84 -37 181q0 96 37 182t103 139q67 53 150 53q82 0 148.5 -52t104.5 -140q37 -86 37 -182t-37 -182t-103 -139q-67 -53 -150 -53q-82 0 -148.5 52zM500 101q44 87 44 255q0 169 -44 255.5t-140 86.5t-140 -86.5t-44 -255.5q0 -168 44 -255t140 -87t140 87z" />
    <glyph glyph-name="multiply" unicode="&#xd7;" horiz-adv-x="940" 
d="M188 -50l-32 32l283 282l-283 282l32 32l282 -283l282 283l32 -32l-283 -282l283 -282l-32 -32l-282 283z" />
    <glyph glyph-name="Oslash" unicode="&#xd8;" horiz-adv-x="700" 
d="M70 6l75 99q-36 52 -55.5 117.5t-19.5 133.5q0 96 37 182t103 139q67 53 150 53q54 0 102 -23t87 -66l67 89l32 -24l-74 -98q37 -52 56.5 -117.5t19.5 -134.5q0 -96 -37 -182t-103 -139q-67 -53 -150 -53q-54 0 -102.5 23.5t-87.5 66.5l-68 -90zM510 589
q-43 109 -150 109q-96 0 -140 -86.5t-44 -255.5q0 -107 18 -185zM500 101q44 87 44 255q0 112 -19 187l-316 -419q45 -110 151 -110q96 0 140 87z" />
    <glyph glyph-name="Ugrave" unicode="&#xd9;" horiz-adv-x="780" 
d="M296 863q-28 21 -28 44q0 14 7.5 22.5t20.5 8.5q14 0 25 -7t24 -25l92 -133l-13 -11zM267 16.5q-60 34.5 -88 94.5q-28 56 -28 126v416q0 14 -6.5 20.5t-20.5 6.5h-72v32h291v-32h-73q-14 0 -20.5 -6.5t-6.5 -20.5v-443q0 -93 45 -144.5t126 -51.5q61 0 106.5 25t69.5 68
q23 43 23 91v401q0 47 -21 64t-78 17v32h238v-32q-57 0 -78 -18t-21 -63v-391q0 -64 -28.5 -115t-82.5 -81q-56 -30 -128 -30q-87 0 -147 34.5z" />
    <glyph glyph-name="Uacute" unicode="&#xda;" horiz-adv-x="780" 
d="M387 773l92 133q13 18 24 25t25 7q13 0 20.5 -8.5t7.5 -22.5q0 -23 -28 -44l-128 -101zM267 16.5q-60 34.5 -88 94.5q-28 56 -28 126v416q0 14 -6.5 20.5t-20.5 6.5h-72v32h291v-32h-73q-14 0 -20.5 -6.5t-6.5 -20.5v-443q0 -93 45 -144.5t126 -51.5q61 0 106.5 25
t69.5 68q23 43 23 91v401q0 47 -21 64t-78 17v32h238v-32q-57 0 -78 -18t-21 -63v-391q0 -64 -28.5 -115t-82.5 -81q-56 -30 -128 -30q-87 0 -147 34.5z" />
    <glyph glyph-name="Ucircumflex" unicode="&#xdb;" horiz-adv-x="780" 
d="M254 778q92 53 138 142h40q46 -89 138 -142l-10 -16q-26 9 -71.5 38.5t-76.5 57.5q-31 -28 -76.5 -57.5t-71.5 -38.5zM267 16.5q-60 34.5 -88 94.5q-28 56 -28 126v416q0 14 -6.5 20.5t-20.5 6.5h-72v32h291v-32h-73q-14 0 -20.5 -6.5t-6.5 -20.5v-443q0 -93 45 -144.5
t126 -51.5q61 0 106.5 25t69.5 68q23 43 23 91v401q0 47 -21 64t-78 17v32h238v-32q-57 0 -78 -18t-21 -63v-391q0 -64 -28.5 -115t-82.5 -81q-56 -30 -128 -30q-87 0 -147 34.5z" />
    <glyph glyph-name="Udieresis" unicode="&#xdc;" horiz-adv-x="780" 
d="M273 813q-15 15 -15 37q0 23 15 37.5t37 14.5q23 0 37.5 -14.5t14.5 -37.5q0 -22 -14.5 -37t-37.5 -15q-22 0 -37 15zM477 813q-15 15 -15 37q0 23 15 37.5t37 14.5q23 0 37.5 -14.5t14.5 -37.5q0 -22 -14.5 -37t-37.5 -15q-22 0 -37 15zM267 16.5q-60 34.5 -88 94.5
q-28 56 -28 126v416q0 14 -6.5 20.5t-20.5 6.5h-72v32h291v-32h-73q-14 0 -20.5 -6.5t-6.5 -20.5v-443q0 -93 45 -144.5t126 -51.5q61 0 106.5 25t69.5 68q23 43 23 91v401q0 47 -21 64t-78 17v32h238v-32q-57 0 -78 -18t-21 -63v-391q0 -64 -28.5 -115t-82.5 -81
q-56 -30 -128 -30q-87 0 -147 34.5z" />
    <glyph glyph-name="Yacute" unicode="&#xdd;" horiz-adv-x="728" 
d="M367 773l92 133q13 18 24 25t25 7q13 0 20.5 -8.5t7.5 -22.5q0 -23 -28 -44l-128 -101zM224 32h96q27 0 27 27v259l-194 318q-15 26 -27 35t-32 9h-52v32h310v-32h-60q-15 0 -25 -7t-10 -18q0 -14 5 -22l158 -267l102 196q5 7 11 28t6 33q0 25 -14 41t-41 16h-30v32h248
v-32h-29q-30 0 -50 -17.5t-41 -55.5l-143 -272v-276q0 -27 27 -27h96v-32h-338v32z" />
    <glyph glyph-name="Thorn" unicode="&#xde;" horiz-adv-x="680" 
d="M62 32h72q27 0 27 27v594q0 14 -6.5 20.5t-20.5 6.5h-72v32h306v-32h-88q-14 0 -20.5 -6.5t-6.5 -20.5v-67h143q69 0 124 -23.5t86 -65.5q30 -44 30 -97q0 -54 -30.5 -97.5t-84.5 -67.5q-54 -25 -125 -25h-143v-151q0 -27 27 -27h88v-32h-306v32zM409 242q53 0 87 46
t34 112t-33.5 110t-87.5 44h-129q-14 0 -20.5 -6.5t-6.5 -20.5v-285h156z" />
    <glyph glyph-name="germandbls" unicode="&#xdf;" horiz-adv-x="526" 
d="M234 15q-32 27 -32 69q0 28 14.5 44t37.5 16q44 0 44 -42q0 -14 -6.5 -21.5t-19.5 -14.5q-6 -3 -11 -7.5t-5 -10.5q0 -17 16 -26.5t41 -9.5q45 0 61 45.5t16 120.5q0 107 -34.5 172.5t-95.5 65.5h-38v28h38q51 0 78.5 39t27.5 97q0 114 -83 114q-52 0 -80.5 -48.5
t-28.5 -117.5v-528h-146v24h52q12 0 17 5t5 17v463q0 60 24 107.5t66.5 74.5t95.5 27q69 0 111.5 -37t42.5 -96q0 -55 -42.5 -97t-100.5 -56v-4q78 -23 128.5 -86.5t50.5 -163.5q0 -55 -21 -98t-58.5 -67.5t-86.5 -24.5q-46 0 -78 27z" />
    <glyph glyph-name="agrave" unicode="&#xe0;" horiz-adv-x="494" 
d="M112 609q-28 21 -28 44q0 14 7.5 22.5t20.5 8.5q14 0 25 -7t24 -25l92 -133l-13 -11zM82 16q-36 28 -36 90q0 50 25 79t60 42t85 22l92 17v85q0 93 -93 93q-34 0 -62 -17.5t-28 -39.5q0 -18 18 -25q19 -5 28 -14.5t9 -24.5q0 -20 -12 -29.5t-32 -9.5q-23 0 -40.5 17.5
t-17.5 48.5q0 36 20 63.5t54 41.5q30 13 66 13q70 0 116 -36.5t46 -105.5v-246q0 -50 31 -50q24 0 35.5 27.5t11.5 72.5h18q0 -142 -80 -142q-42 0 -64 25t-24 71l-5 2q-17 -39 -51 -68.5t-76 -29.5q-58 0 -94 28zM259.5 55.5q25.5 31.5 48.5 94.5v95l-87 -19
q-48 -10 -69.5 -39.5t-21.5 -83.5q0 -42 17.5 -60.5t44.5 -18.5q42 0 67.5 31.5z" />
    <glyph glyph-name="aacute" unicode="&#xe1;" horiz-adv-x="494" 
d="M203 519l92 133q13 18 24 25t25 7q13 0 20.5 -8.5t7.5 -22.5q0 -23 -28 -44l-128 -101zM82 16q-36 28 -36 90q0 50 25 79t60 42t85 22l92 17v85q0 93 -93 93q-34 0 -62 -17.5t-28 -39.5q0 -9 2.5 -13.5t7.5 -7.5q26 -9 35.5 -19t9.5 -24q0 -20 -12 -29.5t-32 -9.5
q-23 0 -40.5 17.5t-17.5 48.5q0 36 20 63.5t54 41.5q30 13 66 13q70 0 116 -36.5t46 -105.5v-246q0 -50 31 -50q24 0 35.5 27.5t11.5 72.5h18q0 -142 -80 -142q-42 0 -64 25t-24 71l-5 2q-17 -39 -51 -68.5t-76 -29.5q-58 0 -94 28zM259.5 55.5q25.5 31.5 48.5 94.5v95
l-87 -19q-48 -10 -69.5 -39.5t-21.5 -83.5q0 -42 17.5 -60.5t44.5 -18.5q42 0 67.5 31.5z" />
    <glyph glyph-name="acircumflex" unicode="&#xe2;" horiz-adv-x="494" 
d="M97 521q75 50 111 151h40q36 -101 111 -151l-9 -13q-69 36 -122 92q-54 -57 -122 -92zM82 16q-36 28 -36 90q0 50 25 79t60 42t85 22l92 17v85q0 93 -93 93q-34 0 -62 -17.5t-28 -39.5q0 -18 18 -25q19 -5 28 -14.5t9 -24.5q0 -20 -12 -29.5t-32 -9.5q-23 0 -40.5 17.5
t-17.5 48.5q0 36 20 63.5t54 41.5q30 13 66 13q70 0 116 -36.5t46 -105.5v-246q0 -50 31 -50q24 0 35.5 27.5t11.5 72.5h18q0 -142 -80 -142q-42 0 -64 25t-24 71l-5 2q-17 -39 -51 -68.5t-76 -29.5q-58 0 -94 28zM259.5 55.5q25.5 31.5 48.5 94.5v95l-87 -19
q-48 -10 -69.5 -39.5t-21.5 -83.5q0 -42 17.5 -60.5t44.5 -18.5q42 0 67.5 31.5z" />
    <glyph glyph-name="atilde" unicode="&#xe3;" horiz-adv-x="494" 
d="M86 558q6 38 29 63t57 25q17 0 33 -4.5t42 -15.5q20 -9 33 -12.5t27 -3.5q34 0 46 42l17 -4q-6 -38 -29 -63t-57 -25q-17 0 -33 4.5t-42 15.5q-20 9 -33 12.5t-27 3.5q-34 0 -46 -42zM82 16q-36 28 -36 90q0 50 25 79t60 42t85 22l92 17v85q0 93 -93 93q-34 0 -62 -17.5
t-28 -39.5q0 -9 2.5 -13.5t7.5 -7.5q6 -4 11 -5.5t8 -3.5q13 -5 19.5 -11.5t6.5 -22.5q0 -20 -12 -29.5t-32 -9.5q-23 0 -40.5 17.5t-17.5 48.5q0 36 20 63.5t54 41.5q30 13 66 13q70 0 116 -36.5t46 -105.5v-246q0 -50 31 -50q24 0 35.5 27.5t11.5 72.5h18q0 -142 -80 -142
q-42 0 -64 25t-24 71l-5 2q-17 -39 -51 -68.5t-76 -29.5q-58 0 -94 28zM259.5 55.5q25.5 31.5 48.5 94.5v95l-87 -19q-48 -10 -69.5 -39.5t-21.5 -83.5q0 -42 17.5 -60.5t44.5 -18.5q42 0 67.5 31.5z" />
    <glyph glyph-name="adieresis" unicode="&#xe4;" horiz-adv-x="494" 
d="M100.5 562.5q-14.5 14.5 -14.5 33.5q0 20 14.5 34t33.5 14q20 0 34 -14t14 -34q0 -19 -14 -33.5t-34 -14.5q-19 0 -33.5 14.5zM288.5 562.5q-14.5 14.5 -14.5 33.5q0 20 14.5 34t33.5 14q20 0 34 -14t14 -34q0 -19 -14 -33.5t-34 -14.5q-19 0 -33.5 14.5zM82 16
q-36 28 -36 90q0 50 25 79t60 42t85 22l92 17v85q0 93 -93 93q-34 0 -62 -17.5t-28 -39.5q0 -18 18 -25q19 -5 28 -14.5t9 -24.5q0 -20 -12 -29.5t-32 -9.5q-23 0 -40.5 17.5t-17.5 48.5q0 36 20 63.5t54 41.5q30 13 66 13q70 0 116 -36.5t46 -105.5v-246q0 -50 31 -50
q24 0 35.5 27.5t11.5 72.5h18q0 -142 -80 -142q-42 0 -64 25t-24 71l-5 2q-17 -39 -51 -68.5t-76 -29.5q-58 0 -94 28zM259.5 55.5q25.5 31.5 48.5 94.5v95l-87 -19q-48 -10 -69.5 -39.5t-21.5 -83.5q0 -42 17.5 -60.5t44.5 -18.5q42 0 67.5 31.5z" />
    <glyph glyph-name="aring" unicode="&#xe5;" horiz-adv-x="494" 
d="M159 529q-29 29 -29 69q0 41 29 69.5t69 28.5q41 0 69.5 -28.5t28.5 -69.5q0 -40 -28.5 -69t-69.5 -29q-40 0 -69 29zM280.5 545.5q21.5 21.5 21.5 52.5t-21.5 52.5t-52.5 21.5t-52.5 -21.5t-21.5 -52.5t21.5 -52.5t52.5 -21.5t52.5 21.5zM82 16q-36 28 -36 90
q0 50 25 79t60 42t85 22l92 17v85q0 93 -93 93q-34 0 -62 -17.5t-28 -39.5q0 -18 18 -25q19 -5 28 -14.5t9 -24.5q0 -20 -12 -29.5t-32 -9.5q-23 0 -40.5 17.5t-17.5 48.5q0 36 20 63.5t54 41.5q30 13 66 13q70 0 116 -36.5t46 -105.5v-246q0 -50 31 -50q24 0 35.5 27.5
t11.5 72.5h18q0 -142 -80 -142q-42 0 -64 25t-24 71l-5 2q-17 -39 -51 -68.5t-76 -29.5q-58 0 -94 28zM259.5 55.5q25.5 31.5 48.5 94.5v95l-87 -19q-48 -10 -69.5 -39.5t-21.5 -83.5q0 -42 17.5 -60.5t44.5 -18.5q42 0 67.5 31.5z" />
    <glyph glyph-name="ae" unicode="&#xe6;" horiz-adv-x="700" 
d="M82 16q-36 28 -36 90q0 50 25 79t60 42t85 22l92 17v85q0 93 -93 93q-34 0 -62 -17.5t-28 -39.5q0 -9 2.5 -13.5t7.5 -7.5q26 -9 35.5 -19t9.5 -24q0 -20 -12 -29.5t-32 -9.5q-23 0 -40.5 17.5t-17.5 48.5q0 36 20 63.5t54 41.5q30 13 66 13q44 0 81 -15t58 -45
q50 60 125 60q58 0 98 -31.5t59 -84.5q8 -24 12.5 -59t4.5 -63h-276q0 -218 118 -218q49 0 88 37t50 107h24q-6 -74 -51 -121t-115 -47q-63 0 -105.5 28t-65.5 76q-19 -38 -61.5 -71t-85.5 -33q-58 0 -94 28zM570 254q0 86 -22 138t-68 52q-48 0 -74 -53.5t-26 -136.5h190z
M266.5 49.5q31.5 25.5 47.5 64.5q-6 44 -6 128l-87 -16q-48 -9 -69.5 -39t-21.5 -84q0 -42 17.5 -60.5t44.5 -18.5q43 0 74.5 25.5z" />
    <glyph glyph-name="ccedilla" unicode="&#xe7;" horiz-adv-x="436" 
d="M184.5 -195q-24.5 17 -24.5 46q0 11 7 19t17 8q22 0 27 -32q7 -40 40 -40q27 0 42 12.5t15 35.5q0 48 -58 48h-41l14 87q-57 7 -96.5 43t-59 88.5t-19.5 107.5q0 68 26 123t71 86t99 31q45 0 79 -19t52.5 -49.5t18.5 -62.5q0 -30 -15.5 -48t-39.5 -18q-20 0 -33.5 13
t-13.5 31q0 17 9.5 29.5t24.5 16.5q16 4 16 18q0 28 -31 46.5t-67 18.5q-61 0 -84.5 -51.5t-23.5 -164.5t23.5 -164.5t84.5 -51.5q58 0 92.5 41t41.5 103h24q-5 -74 -47.5 -121t-108.5 -47l-6 -38h26q35 0 57.5 -19t22.5 -53q0 -40 -25.5 -65t-76.5 -25q-35 0 -59.5 17z" />
    <glyph glyph-name="egrave" unicode="&#xe8;" horiz-adv-x="460" 
d="M124 609q-28 21 -28 44q0 14 7.5 22.5t20.5 8.5q14 0 25 -7t24 -25l92 -133l-13 -11zM104 51.5q-56 63.5 -56 174.5q0 64 25 119.5t70 89.5q44 33 99 33q58 0 98 -31.5t59 -84.5q8 -24 12.5 -59t4.5 -63h-280q0 -218 122 -218q49 0 88 37t50 107h24q-6 -74 -51 -121
t-115 -47q-94 0 -150 63.5zM330 254q0 86 -22 138t-68 52q-49 0 -76.5 -54t-27.5 -136h194z" />
    <glyph glyph-name="eacute" unicode="&#xe9;" horiz-adv-x="460" 
d="M215 519l92 133q13 18 24 25t25 7q13 0 20.5 -8.5t7.5 -22.5q0 -23 -28 -44l-128 -101zM104 51.5q-56 63.5 -56 174.5q0 64 25 119.5t70 89.5q44 33 99 33q58 0 98 -31.5t59 -84.5q8 -24 12.5 -59t4.5 -63h-280q0 -218 122 -218q49 0 88 37t50 107h24q-6 -74 -51 -121
t-115 -47q-94 0 -150 63.5zM330 254q0 86 -22 138t-68 52q-49 0 -76.5 -54t-27.5 -136h194z" />
    <glyph glyph-name="ecircumflex" unicode="&#xea;" horiz-adv-x="460" 
d="M109 521q75 50 111 151h40q36 -101 111 -151l-9 -13q-69 36 -122 92q-54 -57 -122 -92zM104 51.5q-56 63.5 -56 174.5q0 64 25 119.5t70 89.5q44 33 99 33q58 0 98 -31.5t59 -84.5q8 -24 12.5 -59t4.5 -63h-280q0 -218 122 -218q49 0 88 37t50 107h24q-6 -74 -51 -121
t-115 -47q-94 0 -150 63.5zM330 254q0 86 -22 138t-68 52q-49 0 -76.5 -54t-27.5 -136h194z" />
    <glyph glyph-name="edieresis" unicode="&#xeb;" horiz-adv-x="460" 
d="M112.5 562.5q-14.5 14.5 -14.5 33.5q0 20 14.5 34t33.5 14q20 0 34 -14t14 -34q0 -19 -14 -33.5t-34 -14.5q-19 0 -33.5 14.5zM300.5 562.5q-14.5 14.5 -14.5 33.5q0 20 14.5 34t33.5 14q20 0 34 -14t14 -34q0 -19 -14 -33.5t-34 -14.5q-19 0 -33.5 14.5zM104 51.5
q-56 63.5 -56 174.5q0 64 25 119.5t70 89.5q44 33 99 33q58 0 98 -31.5t59 -84.5q8 -24 12.5 -59t4.5 -63h-280q0 -218 122 -218q49 0 88 37t50 107h24q-6 -74 -51 -121t-115 -47q-94 0 -150 63.5zM330 254q0 86 -22 138t-68 52q-49 0 -76.5 -54t-27.5 -136h194z" />
    <glyph glyph-name="igrave" unicode="&#xec;" horiz-adv-x="270" 
d="M16 609q-28 21 -28 44q0 14 7.5 22.5t20.5 8.5q14 0 25 -7t24 -25l92 -133l-13 -11zM38 24h42q12 0 17 5t5 17v364q0 12 -5 17t-17 5h-42v24h136v-410q0 -12 5 -17t17 -5h42v-24h-200v24z" />
    <glyph glyph-name="iacute" unicode="&#xed;" horiz-adv-x="270" 
d="M107 519l92 133q13 18 24 25t25 7q13 0 20.5 -8.5t7.5 -22.5q0 -23 -28 -44l-128 -101zM38 24h42q12 0 17 5t5 17v364q0 12 -5 17t-17 5h-42v24h136v-410q0 -12 5 -17t17 -5h42v-24h-200v24z" />
    <glyph glyph-name="icircumflex" unicode="&#xee;" horiz-adv-x="282" 
d="M7 521q75 50 111 151h40q36 -101 111 -151l-9 -13q-69 36 -122 92q-54 -57 -122 -92zM44 24h42q12 0 17 5t5 17v364q0 12 -5 17t-17 5h-42v24h136v-410q0 -12 5 -17t17 -5h42v-24h-200v24z" />
    <glyph glyph-name="idieresis" unicode="&#xef;" horiz-adv-x="282" 
d="M25.5 562.5q-14.5 14.5 -14.5 33.5q0 20 14.5 34t33.5 14q20 0 34 -14t14 -34q0 -19 -14 -33.5t-34 -14.5q-19 0 -33.5 14.5zM193.5 562.5q-14.5 14.5 -14.5 33.5q0 20 14.5 34t33.5 14q20 0 34 -14t14 -34q0 -19 -14 -33.5t-34 -14.5q-19 0 -33.5 14.5zM50 24h42
q12 0 17 5t5 17v364q0 12 -5 17t-17 5h-42v24h136v-410q0 -12 5 -17t17 -5h42v-24h-200v24z" />
    <glyph glyph-name="eth" unicode="&#xf0;" horiz-adv-x="500" 
d="M148 20.5q-46 32.5 -73 87.5t-27 120t26.5 120t72.5 88q47 32 101 32q32 0 63 -12l3 4q-23 44 -84 120l-108 -67l-15 23l104 65q-46 59 -103 111h96q28 -24 67 -74l108 68l15 -23l-105 -66q43 -54 67 -92q92 -143 92 -267q0 -83 -26.5 -144.5t-72.5 -93.5
q-47 -32 -101 -32t-100 32.5zM333 67q27 55 27 161t-27 161t-85 55t-85 -55t-27 -161t27 -161t85 -55t85 55z" />
    <glyph glyph-name="ntilde" unicode="&#xf1;" horiz-adv-x="540" 
d="M134 558q6 38 29 63t57 25q17 0 32.5 -4.5t37.5 -13.5t35.5 -13.5t29.5 -4.5q34 0 46 42l17 -4q-6 -38 -29 -63t-57 -25q-17 0 -32.5 4.5t-37.5 13.5t-35.5 13.5t-29.5 4.5q-34 0 -46 -42zM38 24h42q12 0 17 5t5 17v364q0 12 -5 17t-17 5h-42v24h136v-82l4 -1
q23 47 56.5 71t75.5 24q69 0 101.5 -42.5t32.5 -110.5v-269q0 -12 5 -17t17 -5h42v-24h-200v24h42q12 0 17 5t5 17v288q0 48 -18.5 77t-58.5 29q-35 0 -62.5 -24t-42.5 -67q-16 -42 -16 -95v-208q0 -12 5 -17t17 -5h42v-24h-200v24z" />
    <glyph glyph-name="ograve" unicode="&#xf2;" horiz-adv-x="496" 
d="M132 609q-28 21 -28 44q0 14 7.5 22.5t20.5 8.5q14 0 25 -7t24 -25l92 -133l-13 -11zM148 20.5q-46 32.5 -73 87.5t-27 120t26.5 120t72.5 88q47 32 101 32t100.5 -32.5t73.5 -87.5q26 -57 26 -120q0 -65 -26.5 -120t-72.5 -87q-46 -33 -101 -33q-54 0 -100 32.5zM333 67
q27 55 27 161t-27 161t-85 55t-85 -55t-27 -161t27 -161t85 -55t85 55z" />
    <glyph glyph-name="oacute" unicode="&#xf3;" horiz-adv-x="496" 
d="M223 519l92 133q13 18 24 25t25 7q13 0 20.5 -8.5t7.5 -22.5q0 -23 -28 -44l-128 -101zM148 20.5q-46 32.5 -73 87.5t-27 120t26.5 120t72.5 88q47 32 101 32t100.5 -32.5t73.5 -87.5q26 -57 26 -120q0 -65 -26.5 -120t-72.5 -87q-46 -33 -101 -33q-54 0 -100 32.5z
M333 67q27 55 27 161t-27 161t-85 55t-85 -55t-27 -161t27 -161t85 -55t85 55z" />
    <glyph glyph-name="ocircumflex" unicode="&#xf4;" horiz-adv-x="496" 
d="M117 521q75 50 111 151h40q36 -101 111 -151l-9 -13q-69 36 -122 92q-54 -57 -122 -92zM148 20.5q-46 32.5 -73 87.5t-27 120t26.5 120t72.5 88q47 32 101 32t100.5 -32.5t73.5 -87.5q26 -57 26 -120q0 -65 -26.5 -120t-72.5 -87q-46 -33 -101 -33q-54 0 -100 32.5z
M333 67q27 55 27 161t-27 161t-85 55t-85 -55t-27 -161t27 -161t85 -55t85 55z" />
    <glyph glyph-name="otilde" unicode="&#xf5;" horiz-adv-x="496" 
d="M106 558q6 38 29 63t57 25q17 0 33 -4.5t42 -15.5q20 -9 33 -12.5t27 -3.5q34 0 46 42l17 -4q-6 -38 -29 -63t-57 -25q-17 0 -33 4.5t-42 15.5q-20 9 -33 12.5t-27 3.5q-34 0 -46 -42zM148 20.5q-46 32.5 -73 87.5t-27 120t26.5 120t72.5 88q47 32 101 32t100.5 -32.5
t73.5 -87.5q26 -57 26 -120q0 -65 -26.5 -120t-72.5 -87q-46 -33 -101 -33q-54 0 -100 32.5zM333 67q27 55 27 161t-27 161t-85 55t-85 -55t-27 -161t27 -161t85 -55t85 55z" />
    <glyph glyph-name="odieresis" unicode="&#xf6;" horiz-adv-x="496" 
d="M120.5 562.5q-14.5 14.5 -14.5 33.5q0 20 14.5 34t33.5 14q20 0 34 -14t14 -34q0 -19 -14 -33.5t-34 -14.5q-19 0 -33.5 14.5zM308.5 562.5q-14.5 14.5 -14.5 33.5q0 20 14.5 34t33.5 14q20 0 34 -14t14 -34q0 -19 -14 -33.5t-34 -14.5q-19 0 -33.5 14.5zM148 20.5
q-46 32.5 -73 87.5t-27 120t26.5 120t72.5 88q47 32 101 32t100.5 -32.5t73.5 -87.5q26 -57 26 -120q0 -65 -26.5 -120t-72.5 -87q-46 -33 -101 -33q-54 0 -100 32.5zM333 67q27 55 27 161t-27 161t-85 55t-85 -55t-27 -161t27 -161t85 -55t85 55z" />
    <glyph glyph-name="oslash" unicode="&#xf8;" horiz-adv-x="496" 
d="M48 6l51 62q-24 33 -37.5 74t-13.5 86q0 65 26.5 120t72.5 88q47 32 101 32q36 0 70 -15t61 -43l47 58l22 -18l-51 -62q24 -33 37.5 -74t13.5 -86q0 -65 -26.5 -120t-72.5 -87q-46 -33 -101 -33q-36 0 -70 15t-61 43l-47 -58zM343 366q-27 78 -95 78q-58 0 -85 -55
t-27 -161q0 -59 9 -104zM333 67q27 55 27 161q0 59 -9 104l-198 -242q27 -78 95 -78q58 0 85 55z" />
    <glyph glyph-name="ugrave" unicode="&#xf9;" horiz-adv-x="534" 
d="M146 609q-28 21 -28 44q0 14 7.5 22.5t20.5 8.5q14 0 25 -7t24 -25l92 -133l-13 -11zM128.5 30.5q-32.5 42.5 -32.5 110.5v269q0 12 -5 17t-17 5h-42v24h136v-334q0 -48 18.5 -77t58.5 -29q35 0 62.5 24.5t43.5 67.5q15 42 15 94v208q0 12 -5 17t-17 5h-42v24h136v-410
q0 -12 5 -17t17 -5h42v-24h-136v82l-4 1q-23 -47 -56.5 -71t-75.5 -24q-69 0 -101.5 42.5z" />
    <glyph glyph-name="uacute" unicode="&#xfa;" horiz-adv-x="534" 
d="M237 519l92 133q13 18 24 25t25 7q13 0 20.5 -8.5t7.5 -22.5q0 -23 -28 -44l-128 -101zM128.5 30.5q-32.5 42.5 -32.5 110.5v269q0 12 -5 17t-17 5h-42v24h136v-334q0 -48 18.5 -77t58.5 -29q35 0 62.5 24.5t43.5 67.5q15 42 15 94v208q0 12 -5 17t-17 5h-42v24h136v-410
q0 -12 5 -17t17 -5h42v-24h-136v82l-4 1q-23 -47 -56.5 -71t-75.5 -24q-69 0 -101.5 42.5z" />
    <glyph glyph-name="ucircumflex" unicode="&#xfb;" horiz-adv-x="534" 
d="M131 521q75 50 111 151h40q36 -101 111 -151l-9 -13q-69 36 -122 92q-54 -57 -122 -92zM128.5 30.5q-32.5 42.5 -32.5 110.5v269q0 12 -5 17t-17 5h-42v24h136v-334q0 -48 18.5 -77t58.5 -29q35 0 62.5 24.5t43.5 67.5q15 42 15 94v208q0 12 -5 17t-17 5h-42v24h136v-410
q0 -12 5 -17t17 -5h42v-24h-136v82l-4 1q-23 -47 -56.5 -71t-75.5 -24q-69 0 -101.5 42.5z" />
    <glyph glyph-name="udieresis" unicode="&#xfc;" horiz-adv-x="534" 
d="M134.5 562.5q-14.5 14.5 -14.5 33.5q0 20 14.5 34t33.5 14q20 0 34 -14t14 -34q0 -19 -14 -33.5t-34 -14.5q-19 0 -33.5 14.5zM322.5 562.5q-14.5 14.5 -14.5 33.5q0 20 14.5 34t33.5 14q20 0 34 -14t14 -34q0 -19 -14 -33.5t-34 -14.5q-19 0 -33.5 14.5zM128.5 30.5
q-32.5 42.5 -32.5 110.5v269q0 12 -5 17t-17 5h-42v24h136v-334q0 -48 18.5 -77t58.5 -29q35 0 62.5 24.5t43.5 67.5q15 42 15 94v208q0 12 -5 17t-17 5h-42v24h136v-410q0 -12 5 -17t17 -5h42v-24h-136v82l-4 1q-23 -47 -56.5 -71t-75.5 -24q-69 0 -101.5 42.5z" />
    <glyph glyph-name="yacute" unicode="&#xfd;" horiz-adv-x="530" 
d="M251 519l92 133q13 18 24 25t25 7q13 0 20.5 -8.5t7.5 -22.5q0 -23 -28 -44l-128 -101zM70 -213q-13 12 -20.5 28.5t-7.5 34.5q0 25 15 41t35 16q22 0 34 -14t12 -37q0 -13 -8 -27q-6 -14 -6 -20q0 -15 20 -15q28 0 49.5 22t31.5 57l27 87l-142 413q-13 34 -24 46.5
t-35 12.5h-33v24h226v-24h-32q-13 0 -22.5 -6.5t-9.5 -17.5q0 -16 6 -33l104 -307l83 274q11 35 11 51q0 17 -10 28t-26 11h-24v24h182v-24h-23q-23 0 -41.5 -15t-27.5 -44l-161 -512q-12 -40 -44 -69.5t-75 -29.5q-39 0 -64 25z" />
    <glyph glyph-name="thorn" unicode="&#xfe;" horiz-adv-x="500" 
d="M26 -228l52 22q11 5 15.5 11t4.5 17v786q0 18 -16 18q-8 0 -16 -4l-30 -11l-10 24l116 49h28v-332l6 -2q27 54 71 86t89 32q49 0 82.5 -30.5t33.5 -88.5q0 -66 -43 -138t-115 -133q-54 -45 -124 -78v-199l-134 -53zM170 27q57 29 99 70t68 102q27 65 27 135q0 90 -62 90
q-29 0 -60 -29t-51 -74q-21 -45 -21 -89v-205z" />
    <glyph glyph-name="ydieresis" unicode="&#xff;" horiz-adv-x="530" 
d="M148.5 562.5q-14.5 14.5 -14.5 33.5q0 20 14.5 34t33.5 14q20 0 34 -14t14 -34q0 -19 -14 -33.5t-34 -14.5q-19 0 -33.5 14.5zM336.5 562.5q-14.5 14.5 -14.5 33.5q0 20 14.5 34t33.5 14q20 0 34 -14t14 -34q0 -19 -14 -33.5t-34 -14.5q-19 0 -33.5 14.5zM70 -213
q-13 12 -20.5 28.5t-7.5 34.5q0 25 15 41t35 16q22 0 34 -14t12 -37q0 -13 -8 -27q-6 -14 -6 -20q0 -15 20 -15q28 0 49.5 22t31.5 57l27 87l-142 413q-13 34 -24 46.5t-35 12.5h-33v24h226v-24h-32q-13 0 -22.5 -6.5t-9.5 -17.5q0 -16 6 -33l104 -307l83 274q11 35 11 51
q0 17 -10 28t-26 11h-24v24h182v-24h-23q-23 0 -41.5 -15t-27.5 -44l-161 -512q-12 -40 -44 -69.5t-75 -29.5q-39 0 -64 25z" />
    <glyph glyph-name="OE" unicode="&#x152;" horiz-adv-x="1048" 
d="M210.5 34q-66.5 52 -103.5 141q-37 84 -37 181q0 96 37 182t103 139q67 53 150 53q17 0 54 -7q64 -11 104 -11h460l4 -250h-25q0 56 -18 106t-54 81t-88 31h-159q-14 0 -20.5 -6.5t-6.5 -20.5v-269h77q47 0 71.5 48.5t24.5 114.5h26v-358h-26q0 66 -24.5 114.5
t-71.5 48.5h-77v-293q0 -27 27 -27h160q68 0 104 46.5t44.5 86.5t18.5 111h25l-12 -276h-459q-48 0 -108 -12q-42 -6 -51 -6q-83 0 -149.5 52zM477 58.5q42 44.5 42 122.5v349q0 81 -39 124.5t-120 43.5q-96 0 -140 -86.5t-44 -255.5q0 -168 44 -255t140 -87q75 0 117 44.5z
" />
    <glyph glyph-name="oe" unicode="&#x153;" horiz-adv-x="766" 
d="M142 19.5q-45 31.5 -69 87.5q-25 54 -25 121q0 66 24.5 121t69.5 87q44 32 102 32q46 0 85.5 -22.5t66.5 -62.5h4q27 40 65 62.5t83 22.5q58 0 98 -31.5t59 -84.5q8 -24 12.5 -59t4.5 -63h-280q0 -218 122 -218q49 0 88 37t50 107h24q-6 -74 -51 -121t-115 -47
q-106 0 -160 79h-4q-30 -37 -69 -58t-83 -21q-57 0 -102 31.5zM326 74q28 62 28 154t-28 154t-82 62t-81 -61t-27 -155t27 -155t81 -61t82 62zM636 254q0 86 -22 138t-68 52q-49 0 -76.5 -54t-27.5 -136h194z" />
    <glyph glyph-name="circumflex" unicode="&#x2c6;" horiz-adv-x="462" 
d="M100 521q75 50 111 151h40q36 -101 111 -151l-9 -13q-69 36 -122 92q-54 -57 -122 -92z" />
    <glyph glyph-name="ring" unicode="&#x2da;" horiz-adv-x="396" 
d="M129 529q-29 29 -29 69q0 41 29 69.5t69 28.5q41 0 69.5 -28.5t28.5 -69.5q0 -40 -28.5 -69t-69.5 -29q-40 0 -69 29zM250.5 545.5q21.5 21.5 21.5 52.5t-21.5 52.5t-52.5 21.5t-52.5 -21.5t-21.5 -52.5t21.5 -52.5t52.5 -21.5t52.5 21.5z" />
    <glyph glyph-name="tilde" unicode="&#x2dc;" horiz-adv-x="484" 
d="M100 558q6 38 29 63t57 25q17 0 32.5 -4.5t37.5 -13.5t35.5 -13.5t29.5 -4.5q34 0 46 42l17 -4q-6 -38 -29 -63t-57 -25q-17 0 -32.5 4.5t-37.5 13.5t-35.5 13.5t-29.5 4.5q-34 0 -46 -42z" />
    <glyph glyph-name="uni10D0" unicode="&#x10d0;" horiz-adv-x="433" 
d="M135 507q0 -41 16.5 -71t40.5 -51t65 -50q42 -29 67 -51t42 -54t17 -75q0 -44 -23.5 -82.5t-66 -61.5t-97.5 -23q-44 0 -77 17t-51 45.5t-18 62.5q0 25 15.5 45.5t41.5 20.5q17 0 30.5 -12.5t13.5 -37.5q0 -14 -5.5 -22t-16.5 -17q-9 -8 -13 -13.5t-4 -13.5q0 -22 28 -41
t57 -19q57 0 84.5 45t27.5 101q0 38 -12.5 67t-30 49t-49.5 49q-34 31 -53.5 53.5t-33.5 56.5t-14 81z" />
    <glyph glyph-name="uni10D1" unicode="&#x10d1;" horiz-adv-x="502" 
d="M102.5 343.5q52.5 56.5 127.5 74.5q16 4 41 22t43.5 42.5t18.5 47.5q0 45 -92 47q-73 2 -103 30.5t-30 101.5v13h15q0 -33 15.5 -49t41 -20t67.5 -4q65 0 99 -21.5t34 -59.5q0 -41 -27.5 -76t-90.5 -70v-2q50 -3 94 -33t70 -78t26 -104q0 -59 -28 -108.5t-74 -79
t-99 -29.5t-99 29.5t-74 79t-28 108.5q0 82 52.5 138.5zM162 55.5q32 -52.5 89 -52.5t89 52.5t32 149.5q0 96 -32 148t-89 52t-89 -52t-32 -148q0 -97 32 -149.5z" />
    <glyph glyph-name="uni10D2" unicode="&#x10d2;" horiz-adv-x="514" 
d="M98.5 50.5q48.5 59.5 131.5 93.5q51 20 70 54.5t19 108.5q0 44 -23.5 77t-65.5 33q-27 0 -48 -12.5t-21 -33.5q0 -13 6.5 -19.5t20.5 -13.5q15 -6 22.5 -13.5t7.5 -24.5q0 -38 -42 -38q-23 0 -38 19t-15 42q0 44 32.5 76.5t81.5 32.5q62 0 103 -33.5t41 -84.5
q0 -63 -31.5 -100.5t-89.5 -67.5v-2q59 -2 105.5 -35.5t72.5 -86.5t26 -110q0 -59 -29.5 -110.5t-77 -82.5t-100.5 -31t-100.5 31t-77 82.5t-29.5 110.5q0 79 48.5 138.5zM165 -241q35 -56 92 -56t92 56t35 153q0 99 -33.5 158.5t-93.5 59.5t-93.5 -59.5t-33.5 -158.5
q0 -97 35 -153z" />
    <glyph glyph-name="uni10D3" unicode="&#x10d3;" horiz-adv-x="800" 
d="M735 -296l-24 -16q-42 56 -113 110t-141 85q-59 26 -101 41t-76 15q-77 0 -85 -32h1q6 2 13 2q16 0 27.5 -11.5t11.5 -29.5q0 -22 -13.5 -34.5t-36.5 -12.5q-29 0 -45 17.5t-16 44.5q0 36 37.5 58.5t107.5 22.5v2q-106 47 -169 109.5t-63 149.5q0 67 32.5 114t80 70
t90.5 23q50 0 87 -20t61 -53q29 34 67.5 53.5t81.5 19.5q53 0 99 -29.5t73.5 -79t27.5 -108.5t-27.5 -111t-74 -83.5t-98.5 -31.5t-98.5 31.5t-74 83.5t-27.5 111q0 71 38 126q-17 32 -49 52.5t-63 20.5q-68 0 -107 -50t-39 -142q0 -81 31.5 -131.5t86 -83t165.5 -81.5
q11 -5 20.5 -9t17.5 -8q178 -79 284 -205zM461.5 365q-31.5 -52 -31.5 -150q0 -99 31.5 -155t88.5 -56t88.5 56t31.5 155q0 98 -31.5 150t-88.5 52t-88.5 -52z" />
    <glyph glyph-name="uni10D4" unicode="&#x10d4;" horiz-adv-x="498" 
d="M102 12.5q52 52.5 129 68.5l4 -14q-56 -20 -80.5 -60.5t-24.5 -121.5q0 -96 30.5 -139t89.5 -43q57 0 90 52.5t33 149.5v338q0 64 -24.5 118.5t-97.5 54.5q-50 0 -75.5 -22t-25.5 -50q0 -15 7.5 -22.5t22.5 -14.5q16 -7 24 -15t8 -26q0 -42 -46 -42q-26 0 -42 21t-16 46
q0 57 39 99t119 42q64 0 105 -32.5t59 -79.5t18 -90v-325q0 -59 -27 -109t-72.5 -79t-98.5 -29q-54 0 -99.5 24.5t-73 69.5t-27.5 103q0 75 52 127.5z" />
    <glyph glyph-name="uni10D5" unicode="&#x10d5;" horiz-adv-x="515" 
d="M176 6l5 -12q-37 -22 -54 -57.5t-17 -87.5q0 -44 20 -77.5t53.5 -51t72.5 -17.5q38 0 69.5 24t50.5 68t19 101q0 89 -44.5 141.5t-116.5 52.5q-32 0 -53 -4v18q69 2 109 18t59 50.5t19 93.5q0 38 -14.5 72.5t-43 56.5t-68.5 22q-34 0 -61 -14t-41.5 -34t-14.5 -37
q0 -15 7.5 -22t23.5 -14q17 -7 25.5 -15t8.5 -26q0 -42 -46 -42q-26 0 -42 21t-16 46q0 35 19.5 70.5t58 58.5t92.5 23q68 0 111 -22.5t62 -57t19 -72.5q0 -67 -43 -104.5t-93 -61.5v-2q80 -25 121.5 -72t41.5 -144q0 -56 -31.5 -104t-82 -76t-105.5 -28q-64 0 -113.5 20
t-76 55.5t-26.5 81.5q0 113 136 161z" />
    <glyph glyph-name="uni10D6" unicode="&#x10d6;" horiz-adv-x="704" 
d="M355.5 18.5q-45.5 30.5 -72.5 81.5t-27 110v240h-2q-9 -17 -27.5 -30t-44.5 -13q-34 0 -64.5 21.5t-49 57.5t-18.5 79t19 79t51.5 57t70.5 21t70.5 -21t51 -57t18.5 -79v-190h2q20 25 54 41t67 16q53 0 99 -30.5t73.5 -81.5t27.5 -110t-27.5 -110t-73.5 -81.5t-99 -30.5
t-98.5 30.5zM240 455q16 33 16 107q0 80 -16 112.5t-50 32.5q-33 0 -50 -33t-17 -112q0 -78 16.5 -109t50.5 -31t50 33zM554 638l-3 6l-95 -19q-17 -66 -64 -162l10 -5q100 110 152 180zM542.5 57q31.5 54 31.5 153q0 98 -31.5 152.5t-88.5 54.5q-58 0 -90.5 -52t-32.5 -155
q0 -98 33 -152.5t90 -54.5t88.5 54z" />
    <glyph glyph-name="uni10D7" unicode="&#x10d7;" horiz-adv-x="802" 
d="M647.5 410.5q46.5 -21.5 75.5 -64t29 -100.5q0 -80 -51.5 -148t-123.5 -115l-8 13q51 41 77 90.5t26 126.5q0 96 -36 148.5t-92 52.5q-39 0 -70.5 -22t-54.5 -59q33 -53 33 -118q0 -59 -28 -111t-74.5 -83.5t-98.5 -31.5t-98.5 31.5t-74.5 83.5t-28 111t28 108.5t74 79
t99 29.5q43 0 82 -19.5t67 -53.5q25 31 64.5 52t84.5 21q52 0 98.5 -21.5zM340 60q32 56 32 155q0 97 -32 149.5t-89 52.5t-89 -52.5t-32 -149.5q0 -99 32 -155t89 -56t89 56z" />
    <glyph glyph-name="uni10D8" unicode="&#x10d8;" horiz-adv-x="514" 
d="M92 69q42 -60 101 -82l9 14q-40 23 -56 71t-16 141q0 96 32.5 150t92.5 54q59 0 94 -54.5t35 -149.5q0 -94 -15 -141.5t-56 -70.5l7 -14q59 21 101.5 80.5t42.5 145.5q0 63 -30 113t-78.5 78t-100.5 28q-48 0 -96 -28t-78.5 -78t-30.5 -113q0 -84 42 -144z" />
    <glyph glyph-name="uni10D9" unicode="&#x10d9;" horiz-adv-x="535" 
d="M186 6l5 -12q-37 -22 -54 -57.5t-17 -87.5q0 -44 20 -77.5t53.5 -51t72.5 -17.5q38 0 69.5 24t50.5 68t19 101q0 92 -30.5 153t-94.5 61q-26 0 -48 -8.5t-39 -18t-25 -13.5l-7 13q32 21 76 38q102 42 151 85t49 112q0 27 -6 39t-23 12q-7 0 -11.5 -5t-6.5 -7
q-16 -20 -37 -20q-23 0 -35.5 12.5t-12.5 31.5q0 26 17.5 39t46.5 13q55 0 78.5 -32.5t23.5 -82.5q0 -70 -50 -114t-114 -74v-2q78 -19 128 -80.5t50 -151.5q0 -56 -31.5 -104t-82 -76t-105.5 -28q-64 0 -113.5 20t-76 55.5t-26.5 81.5q0 113 136 161z" />
    <glyph glyph-name="uni10DA" unicode="&#x10da;" horiz-adv-x="918" 
d="M781.5 167q16.5 36 16.5 97q0 56 -25 99t-82 43q-33 0 -65 -20t-45 -55q17 -33 25 -54.5t8 -45.5q0 -22 -11 -49.5t-26 -27.5q-16 0 -27 28t-11 49q0 26 5 43t12 33.5t11 24.5q-12 28 -41 47t-64 19t-64 -19t-41 -47q4 -9 12 -27.5t12.5 -35.5t4.5 -38t-11 -49t-26 -28
q-16 0 -27 28t-11 49q0 24 8.5 46.5t23.5 53.5q-13 36 -41.5 55.5t-60.5 19.5q-49 0 -80 -47t-31 -137q0 -81 31.5 -131.5t86 -83t165.5 -81.5q11 -5 20.5 -9t17.5 -8q178 -79 284 -205l-24 -16q-42 56 -113 110t-141 85q-59 26 -101 41t-76 15q-77 0 -85 -32h1q6 2 13 2
q16 0 27.5 -11.5t11.5 -29.5q0 -22 -13.5 -34.5t-36.5 -12.5q-29 0 -45 17.5t-16 44.5q0 36 37.5 58.5t107.5 22.5v2q-106 47 -169 109.5t-63 149.5q0 68 27 114.5t67 69.5t80 23q86 0 127 -81q20 37 48.5 59t62.5 22t63 -22t49 -59q43 81 122 81q54 0 93 -25.5t59 -63.5
t20 -73q0 -53 -37 -100.5t-101 -83.5l-11 15q46 30 62.5 66z" />
    <glyph glyph-name="uni10DB" unicode="&#x10db;" horiz-adv-x="498" 
d="M77.5 313.5q27.5 49.5 73.5 79t99 29.5q33 0 67 -16t54 -41h2v182q0 59 -26.5 109t-100.5 50q-34 0 -61 -14t-42 -35t-15 -38q0 -15 7.5 -22.5t22.5 -14.5q16 -7 24 -15t8 -26q0 -42 -46 -42q-26 0 -42 21t-16 46q0 36 20 72t59.5 60t95.5 24q65 0 107 -29.5t61 -73
t19 -85.5v-329q0 -59 -27 -109t-72.5 -79t-98.5 -29t-99 29.5t-73.5 79t-27.5 108.5t27.5 108.5zM161.5 55q31.5 -52 88.5 -52t90 52.5t33 149.5t-33 149.5t-90 52.5t-88.5 -52t-31.5 -150t31.5 -150z" />
    <glyph glyph-name="uni10DC" unicode="&#x10dc;" horiz-adv-x="498" 
d="M355.5 652.5q-30.5 -17.5 -72.5 -17.5q-27 0 -45.5 8.5t-37.5 23.5q-13 10 -22 15t-20 5q-21 0 -27 -19.5t-6 -61.5v-231h2q20 25 54 41t67 16q53 0 99 -30.5t73.5 -81.5t27.5 -110t-27.5 -110t-73.5 -81.5t-99 -30.5t-98.5 30.5t-72.5 81.5t-27 110v370q0 69 27.5 105.5
t88.5 36.5q24 0 40.5 -5.5t37.5 -15.5q19 -10 31 -14t31 -4q34 0 53.5 9t49.5 40l11 -10q-34 -52 -64.5 -69.5zM336.5 362.5q-31.5 54.5 -88.5 54.5t-90 -55t-33 -152q0 -98 33 -152.5t90 -54.5t88.5 54t31.5 153q0 98 -31.5 152.5z" />
    <glyph glyph-name="uni10DD" unicode="&#x10dd;" horiz-adv-x="737" 
d="M598.5 -90.5q-12.5 11.5 -12.5 30.5q0 17 10.5 27.5t24.5 10.5q12 0 18 -5h1q0 17 -21.5 27t-61.5 10q-33 0 -87 -10l-37 -5v16q44 7 80 34t57.5 71.5t21.5 98.5q0 95 -34 146.5t-89 51.5q-67 0 -101 -73q14 -33 21.5 -56.5t7.5 -52.5q0 -21 -11 -49t-26 -28
q-16 0 -27 28t-11 49q0 29 7.5 52.5t21.5 56.5q-34 73 -101 73q-55 0 -89 -51.5t-34 -146.5q0 -85 32 -138t97 -71v-11q-60 0 -107 29.5t-73 80t-26 110.5q0 59 26.5 109t71 79t97.5 29q35 0 65 -20.5t49 -53.5h1q19 33 49 53.5t65 20.5q54 0 98.5 -24.5t70.5 -69.5t26 -103
q0 -65 -41.5 -122.5t-105.5 -90.5v-1q36 6 57 6q47 0 77.5 -18.5t30.5 -51.5q0 -25 -14.5 -42t-40.5 -17q-21 0 -33.5 11.5z" />
    <glyph glyph-name="uni10DE" unicode="&#x10de;" horiz-adv-x="515" 
d="M154 7q-47 19 -75.5 53.5t-28.5 77.5q0 41 24 68.5t57 40.5t59 13l3 -12q-35 -7 -54 -36t-19 -72q0 -41 20 -72.5t51.5 -48t65.5 -16.5q56 0 92 43.5t36 111.5q0 162 -149 162h-17v15h27q72 0 108 25.5t36 75.5q0 29 -16.5 46.5t-40.5 26.5t-64 19q-44 11 -71.5 21.5
t-46.5 32.5t-19 58q0 42 33.5 62t67.5 20v-15q-24 0 -47.5 -14t-23.5 -40q0 -21 23.5 -30.5t75.5 -19.5q57 -11 92 -23t61 -39.5t26 -76.5q0 -40 -22.5 -68.5t-51.5 -44.5t-49 -20v-2q65 -16 106.5 -55t41.5 -116q0 -46 -29.5 -85t-78 -62t-103.5 -23q-53 0 -100 19z" />
    <glyph glyph-name="uni10DF" unicode="&#x10df;" horiz-adv-x="508" 
d="M458 420v-515q0 -58 -28 -108t-74.5 -79.5t-98.5 -29.5q-60 0 -107.5 22t-73.5 59.5t-26 83.5q0 54 30 92t69.5 58t69.5 24l3 -12q-38 -17 -59 -32.5t-32 -43.5t-11 -76q0 -77 38.5 -118.5t98.5 -41.5q56 3 91 56t35 146v484q-18 -33 -51.5 -54t-76.5 -28q5 -18 5 -34
q0 -54 -24 -86t-65 -32q-37 0 -60 34.5t-23 81.5q0 46 19 83l15 -5q-14 -36 -14 -59q0 -28 16.5 -47.5t46.5 -19.5q35 0 52 19.5t17 49.5q0 22 -6 50q58 3 92.5 18.5t56.5 59.5h75z" />
    <glyph glyph-name="uni10E0" unicode="&#x10e0;" horiz-adv-x="738" 
d="M156 23.5q-48 28.5 -77 88.5t-29 151q0 175 82 252t206 78h34q83 1 122 3.5t61.5 13t22.5 33.5q0 54 -116 54v15q72 0 109.5 -15t37.5 -64q0 -54 -57.5 -81.5t-156.5 -29.5h-51q-54 0 -84 -1.5t-54 -7.5q-67 -16 -102.5 -77t-35.5 -134h2q35 130 181 130q35 0 67 -20.5
t50 -53.5l1 2v-2q18 32 53 53t71 21q54 0 98.5 -24.5t70.5 -69.5t26 -103q0 -79 -33.5 -133t-86 -80.5t-109.5 -26.5v13q69 10 110.5 63t41.5 144q0 95 -34 146.5t-89 51.5q-36 0 -65.5 -19.5t-45.5 -53.5q14 -33 21.5 -56.5t7.5 -52.5q0 -21 -11 -49t-26 -28q-16 0 -27 28
t-11 49q0 29 7.5 52.5t21.5 56.5q-16 35 -42.5 54t-61.5 19q-56 0 -92 -51.5t-36 -146.5q0 -98 32.5 -144t101.5 -65v-11q-58 0 -106 28.5z" />
    <glyph glyph-name="uni10E1" unicode="&#x10e1;" horiz-adv-x="615" 
d="M379 467q0 -30 18.5 -50t56.5 -45q35 -23 57.5 -43.5t38 -52.5t15.5 -78q0 -55 -28.5 -103.5t-75.5 -77.5t-100 -29t-97 29t-70 79t-26 109v399q0 40 -10.5 60t-36.5 20q-25 0 -38.5 -20t-13.5 -60h-19q0 53 25.5 85.5t73.5 32.5t71 -31t23 -81v-405q0 -98 30.5 -150
t87.5 -52q59 0 91.5 44t32.5 134q0 54 -15.5 84.5t-46.5 64.5q-30 33 -44.5 61.5t-14.5 78.5q0 34 6 68h15q-6 -31 -6 -71z" />
    <glyph glyph-name="uni10E2" unicode="&#x10e2;" horiz-adv-x="738" 
d="M50 305q64 4 119 29t105 73l13 -13q-65 -67 -85.5 -154.5t-20.5 -206.5q0 -114 31 -188t80.5 -108t106.5 -34t103.5 33.5t74.5 107.5t28 189q0 167 -50 258t-132 107v-2q20 -11 35.5 -34.5t15.5 -47.5q0 -36 -27 -63.5t-60 -27.5q-34 0 -60 27t-26 64q0 31 19 56.5
t46 32.5v2q-26 9 -43 30.5t-17 49.5q0 34 24 59.5t57 25.5q32 0 56 -25.5t24 -59.5q0 -24 -14.5 -45t-34.5 -31v-2q65 -6 126 -42t102.5 -113.5t41.5 -201.5q0 -127 -45.5 -208.5t-112 -117.5t-131.5 -36q-64 0 -134 35t-118.5 110.5t-48.5 189.5q0 72 14 123.5t35 87
t59 86.5l15 20l-2 2q-37 -24 -81.5 -39.5t-87.5 -16.5v19zM356 428.5q9 -19.5 31 -19.5q39 0 39 76q0 75 -39 75q-22 0 -31 -19.5t-9 -55.5q0 -37 9 -56.5zM352 254q12 -21 35 -21q22 0 34.5 21.5t12.5 59.5q0 39 -12.5 62t-34.5 23q-23 0 -35 -23t-12 -62t12 -60z" />
    <glyph glyph-name="uni10E3" unicode="&#x10e3;" horiz-adv-x="697" 
d="M79 -45q29 35 75 54.5t96 19.5q51 0 93 -24l-8 -13q-43 22 -85 22q-56 0 -88 -32.5t-32 -98.5q0 -56 34.5 -97t83 -62t90.5 -21q63 0 116.5 27t85.5 79t32 124v347q0 53 -20.5 82.5t-57.5 29.5q-43 0 -60 -31t-17 -88v-66h-15v51q0 63 -23 93.5t-58 30.5q-28 0 -42 -11.5
t-19.5 -28.5t-9.5 -45q-5 -31 -11 -49.5t-23.5 -31.5t-50.5 -13q-43 0 -76.5 27.5t-33.5 77.5q0 42 24 79.5t69 74.5l11 -12q-35 -34 -44.5 -63.5t-9.5 -70.5q0 -33 20 -58.5t46 -25.5q28 0 42.5 12.5t19.5 30.5t8 49q3 35 9.5 56.5t26 36.5t57.5 15q30 0 48 -15t36 -42h2
q13 24 38.5 40.5t57.5 16.5q58 0 94.5 -39.5t36.5 -115.5v-334q0 -83 -42 -140.5t-112.5 -86t-154.5 -28.5q-60 0 -127.5 24t-114 67.5t-46.5 97.5q0 43 29 78z" />
    <glyph glyph-name="uni10E4" unicode="&#x10e4;" horiz-adv-x="772" 
d="M624 13.5q41 -17.5 69.5 -51t28.5 -77.5q0 -62 -39.5 -107t-104.5 -68t-141 -23q-75 0 -139 20t-102 56t-38 81q0 57 40 82t82 32l2 -14q-29 -13 -41.5 -36t-12.5 -57q0 -43 28.5 -77t76.5 -53t104 -19q96 0 150.5 40t54.5 128q0 70 -32.5 109.5t-93.5 39.5q-21 0 -41 -4
l-2 14q79 9 121.5 60t42.5 156q0 50 -18.5 89t-49 60.5t-65.5 21.5q-39 0 -68 -18.5t-44 -45.5q41 -56 41 -124q0 -55 -27 -104.5t-71 -79t-93 -29.5q-50 0 -94 29.5t-71 79t-27 104.5t26.5 102t71 74.5t94.5 27.5q38 0 72.5 -16t61.5 -45q24 22 41 34t42.5 19.5t64.5 7.5
q41 0 84 -24t71 -67.5t28 -98.5q0 -76 -43 -122t-75.5 -64.5t-38.5 -22.5v-2q33 0 74 -17.5zM325.5 82.5q30.5 52.5 30.5 145.5q0 91 -30 140t-84 49t-84 -48.5t-30 -140.5q0 -94 30 -146t84 -52q53 0 83.5 52.5z" />
    <glyph glyph-name="uni10E5" unicode="&#x10e5;" horiz-adv-x="494" 
d="M444 722v-812q0 -61 -25 -112t-70.5 -80.5t-104.5 -29.5q-87 0 -140.5 43t-53.5 114q0 73 48.5 120.5t130.5 59.5l2 -15q-61 -12 -86 -54t-25 -111q0 -67 30.5 -104.5t92.5 -37.5q60 0 93 52t33 136v477q-32 -39 -104 -48q-20 -3 -35.5 -10.5t-15.5 -19.5q0 -8 3.5 -12
t11.5 -9q10 -6 14.5 -12.5t4.5 -19.5q0 -22 -12.5 -33.5t-33.5 -11.5q-27 0 -42.5 16.5t-15.5 44.5q0 43 31.5 63t72.5 23q47 3 74.5 18.5t46.5 37.5v240l-2 1q-38 -47 -148 -59v16q61 9 109 40.5t58 88.5h58z" />
    <glyph glyph-name="uni10E6" unicode="&#x10e6;" horiz-adv-x="755" 
d="M705 -296l-24 -16q-43 57 -114 113.5t-140 86.5l-20 9q-55 24 -91.5 37t-65.5 13q-77 0 -85 -32h1q6 2 13 2q16 0 27.5 -11.5t11.5 -29.5q0 -22 -13.5 -34.5t-36.5 -12.5q-29 0 -45 17.5t-16 44.5q0 36 37.5 58.5t107.5 22.5v2q-202 89 -202 251q0 68 27 114.5t68 69.5
t83 23q93 0 146 -73q18 32 52.5 52.5t70.5 20.5q54 0 100 -24.5t73.5 -69.5t27.5 -103q0 -78 -30.5 -132t-77 -80t-93.5 -26v13q65 10 94.5 59.5t29.5 145.5q0 94 -36.5 146t-92.5 52q-36 0 -65.5 -19.5t-45.5 -53.5q14 -33 21.5 -56.5t7.5 -52.5q0 -21 -11 -49t-26 -28
q-16 0 -27 28t-11 49q0 29 7.5 52.5t21.5 56.5q-17 32 -50 53t-63 21q-65 0 -93 -47.5t-28 -144.5q0 -84 29.5 -134.5t86.5 -86t175 -87.5q171 -76 284 -210z" />
    <glyph glyph-name="uni10E7" unicode="&#x10e7;" horiz-adv-x="531" 
d="M481 420v-510q0 -62 -25.5 -112.5t-74 -80t-114.5 -29.5q-56 0 -105 17t-80.5 54t-31.5 92q0 75 47.5 111.5t121.5 39.5l1 -15q-49 -10 -74.5 -47t-25.5 -95q0 -79 43.5 -110.5t103.5 -31.5q70 0 104.5 51t34.5 137v353q-19 -67 -62.5 -106t-113.5 -39q-38 0 -77 18
t-64.5 53.5t-25.5 83.5q0 84 41.5 123t93.5 57l7 -14q-70 -38 -70 -146q0 -55 31.5 -94.5t90.5 -39.5q52 0 85 32.5t48 80t16 96.5v71h75z" />
    <glyph glyph-name="uni10E8" unicode="&#x10e8;" horiz-adv-x="537" 
d="M67 665.5q17 30.5 42 44t50 13.5q37 0 61.5 -15.5t42.5 -42.5h2q14 24 36.5 40.5t54.5 16.5q58 0 94.5 -39t36.5 -115v-363q0 -59 -27 -109t-72.5 -79t-98.5 -29t-98.5 29t-73 79t-27.5 109t27.5 109t73 79t98.5 29q33 0 67 -16t54 -41h2v206q0 53 -20.5 82.5t-57.5 29.5
q-43 0 -60 -31t-17 -88v-27h-15v12q0 64 -24.5 94t-65.5 30q-37 0 -59 -20.5t-22 -66.5q0 -44 27 -79l-11 -10q-10 9 -23.5 34t-13.5 57q0 47 17 77.5zM201 55q31 -52 88 -52t90 52.5t33 149.5t-33 149.5t-90 52.5t-88 -52t-31 -150t31 -150z" />
    <glyph glyph-name="uni10E9" unicode="&#x10e9;" horiz-adv-x="498" 
d="M400 360.5q48 -50.5 48 -139.5q0 -71 -40 -135t-101 -95l-8 14q34 27 49.5 73.5t15.5 134.5q0 71 -34.5 116.5t-93.5 46.5q-31 0 -62 -12.5t-49 -35.5v-328h-75v573q0 65 40 107t110 42q68 0 105.5 -32t37.5 -83q0 -38 -20.5 -68.5t-68 -59.5t-129.5 -61v-69
q60 62 146 62q81 0 129 -50.5zM139.5 674q-14.5 -33 -14.5 -83v-156q78 30 113 76.5t35 93.5t-22 74.5t-51 27.5q-46 0 -60.5 -33z" />
    <glyph glyph-name="uni10EA" unicode="&#x10ea;" horiz-adv-x="631" 
d="M50 321q119 7 224 107l13 -13q-121 -125 -121 -406q0 -171 57 -238.5t131 -67.5q45 0 78 25.5t51 68t18 93.5q0 60 -16.5 105t-52.5 60q-9 -4 -23.5 -11t-26.5 -10.5t-25 -3.5q-18 0 -41 11.5t-23 22.5t23 23.5t41 12.5q16 0 29.5 -4.5t27 -11t18.5 -9.5q43 17 60 44.5
t17 70.5q0 32 -9.5 53t-23.5 33.5t-39 29.5q-26 16 -41.5 31t-26.5 40t-11 64q0 5 2 17l15 2q-2 -10 -2 -15q0 -29 12 -47t30 -29t49 -24q38 -16 60 -30.5t38 -41.5t16 -71q0 -47 -40 -82.5t-85 -53.5v-2q49 -17 88.5 -62.5t39.5 -116.5q0 -62 -32.5 -106.5t-84.5 -67.5
t-110 -23q-65 0 -125.5 30t-101.5 102.5t-41 191.5q0 80 18.5 141.5t44 103t72.5 104.5l-2 2q-92 -58 -169 -61v19z" />
    <glyph glyph-name="uni10EB" unicode="&#x10eb;" horiz-adv-x="498" 
d="M77.5 320q27.5 51 73.5 81.5t99 30.5q33 0 67 -16t54 -41h2v223q0 37 -18 61.5t-47 24.5q-32 0 -49.5 -20t-17.5 -60h-19q0 53 28.5 85.5t83.5 32.5q48 0 81 -30t33 -94v-388q0 -59 -27 -110t-72.5 -81.5t-98.5 -30.5t-99 30.5t-73.5 81.5t-27.5 110t27.5 110zM161.5 57
q31.5 -54 88.5 -54t90 54.5t33 152.5q0 97 -33 152t-90 55t-88.5 -54.5t-31.5 -152.5q0 -99 31.5 -153z" />
    <glyph glyph-name="uni10EC" unicode="&#x10ec;" horiz-adv-x="561" 
d="M414 397q33 -24 48.5 -60t15.5 -71q0 -62 -20 -126t-49 -122.5t-76 -141.5q-69 -120 -96 -188h-15q7 31 7 56q0 67 -23.5 161.5t-69.5 246.5q-44 149 -65 232.5t-21 140.5q0 59 20 103.5t55.5 69t78.5 24.5q38 0 67.5 -14.5t45.5 -37.5h2q17 23 42 37.5t56 14.5
q41 0 67.5 -28.5t26.5 -76.5q0 -41 -22 -73t-37 -43l-10 11q17 17 26 38t9 55t-24.5 57.5t-62.5 23.5q-37 0 -64.5 -31t-27.5 -83v-35h-15v43q0 53 -21 85.5t-58 32.5q-38 0 -62.5 -32t-24.5 -91q0 -48 13.5 -109t40.5 -152q25 42 65 74.5t96 32.5q49 0 82 -24zM384 36
q29 88 29 172q0 78 -35.5 118.5t-88.5 40.5q-37 0 -66 -22t-47 -48l7 -23q38 -128 64 -227t45 -212h2q61 113 90 201z" />
    <glyph glyph-name="uni10ED" unicode="&#x10ed;" horiz-adv-x="609" 
d="M450 237.5q-21 11.5 -47 35.5v-118q0 -61 19 -98.5t55 -78.5q28 -33 41.5 -57t13.5 -58q0 -54 -32.5 -93.5t-86.5 -60.5t-116 -21q-64 0 -116 23t-81 62.5t-29 88.5q0 72 41.5 107.5t97.5 55.5l5 -12q-39 -24 -56.5 -57t-17.5 -94q0 -45 21 -81.5t57 -57t78 -20.5
q40 0 75 15.5t57.5 46.5t22.5 77q0 33 -12.5 59.5t-38.5 65.5q-31 47 -47 82.5t-16 84.5v139q-23 -32 -52 -53.5t-62 -21.5q-42 0 -70.5 27t-28.5 75t28.5 75t70.5 27q32 0 64 -21.5t50 -49.5v144q0 45 -17.5 70.5t-43.5 36t-71 21.5q-33 8 -54 15t-39 18l-2 -1
q-5 -50 -13 -88.5t-22 -82.5l-26 8q24 76 35 129.5t11 120.5h17q8 -19 30 -27t68 -17q59 -10 97.5 -25t66.5 -55t28 -113v-153q45 42 99 42q24 0 49 -7l-5 -17q-27 5 -44 5q-30 0 -52.5 -11.5t-46.5 -35.5v-15q38 -32 69 -32q22 0 37 8t25 27l25 -18q-9 -52 -67 -52
q-21 0 -42 11.5zM287 256.5q29 14.5 51 33.5v22q-17 17 -48 31.5t-60 14.5q-35 0 -62.5 -14.5t-27.5 -43.5t27.5 -43.5t62.5 -14.5q28 0 57 14.5z" />
    <glyph glyph-name="uni10EE" unicode="&#x10ee;" horiz-adv-x="616" 
d="M157.5 664q-10.5 20 -36.5 20q-25 0 -38.5 -20t-13.5 -60h-19q0 53 25.5 85.5t73.5 32.5t71 -31t23 -81v-235h2q20 25 54 41t67 16q53 0 99 -30.5t73.5 -81.5t27.5 -110t-27.5 -110t-73.5 -81.5t-99 -30.5t-98.5 30.5t-72.5 81.5t-27 110v394q0 40 -10.5 60zM310 458
q100 110 152 180l-3 6l-95 -19q-17 -66 -64 -162zM276 57.5q33 -54.5 90 -54.5t88.5 54t31.5 153q0 98 -31.5 152.5t-88.5 54.5q-58 0 -90.5 -52t-32.5 -155q0 -98 33 -152.5z" />
    <glyph glyph-name="uni10EF" unicode="&#x10ef;" horiz-adv-x="802" 
d="M695 -14.5q27 -14.5 42 -38t15 -49.5q0 -34 -20 -58t-49.5 -36t-56.5 -12q-64 0 -107 31.5t-75.5 88.5t-73.5 159q-120 -56 -194 -122q36 0 71.5 -15t59 -45t23.5 -72q0 -39 -21.5 -68t-56 -45t-74.5 -16q-59 0 -93.5 32t-34.5 76q0 38 25 67l10 -11q-16 -22 -16 -55
q0 -39 32 -66.5t77 -27.5q43 0 70 32t27 77q0 35 -14 63t-37 44t-47 16q-18 0 -36 -5.5t-26 -12.5l-8 7q36 46 102.5 101t141.5 93q-21 54 -39 107q-25 71 -41 108.5t-35.5 60.5t-45.5 23q-22 0 -35 -12t-13 -25q0 -11 4.5 -16.5t13.5 -12.5q12 -8 17.5 -16t5.5 -24
t-11 -26.5t-31 -10.5q-21 0 -38 19t-17 42q0 41 30 69t74 28q53 0 86 -22t63 -77.5t83 -181.5v-1q88 42 147 86.5t59 95.5q0 35 -16.5 60t-45.5 25q-21 0 -29 -10q13 -4 19.5 -15.5t6.5 -25.5q0 -16 -12 -26.5t-30 -10.5q-19 0 -31.5 12t-12.5 30q0 32 25.5 46.5t61.5 14.5
q22 0 45.5 -12t40 -36t16.5 -58q0 -64 -58 -115t-169 -102q17 -41 37 -99q28 -78 45.5 -117t42.5 -62.5t63 -23.5q32 0 56 21.5t24 66.5q0 31 -12 51.5t-29 30t-32 9.5q-21 0 -39 -10l-6 16q5 3 18 5.5t25 2.5q36 0 63 -14.5z" />
    <glyph glyph-name="uni10F0" unicode="&#x10f0;" horiz-adv-x="511" 
d="M353 236q50 -18 79 -45.5t29 -72.5q0 -35 -26.5 -65t-74 -47.5t-106.5 -17.5q-61 0 -100.5 19t-62 49.5t-41.5 77.5l18 9q21 -41 39.5 -66t54.5 -43t93 -18q70 0 101 32.5t31 73.5q0 78 -52 108q-40 -22 -92 -22q-17 0 -40.5 10t-23.5 20q0 12 23.5 22t40.5 10
q52 0 92 -25q34 12 51.5 35t17.5 56q0 62 -74 87q-21 -12 -41 -17t-46 -5q-17 0 -40.5 9.5t-23.5 20.5q0 12 23 21.5t41 9.5q23 0 44 -6t45 -18q58 33 58 87q0 29 -26 46t-76 17q-64 0 -92.5 32.5t-28.5 101.5h15q0 -38 31 -53t85 -15q42 0 73 -16.5t47.5 -41.5t16.5 -51
q0 -65 -87 -113v-2q47 -8 77.5 -33t30.5 -60q0 -41 -28 -65t-75 -34v-2z" />
    <glyph glyph-name="uni10F1" unicode="&#x10f1;" horiz-adv-x="663" 
d="M576.5 272.5q-27.5 -23.5 -76.5 -35.5v-2q48 -18 70 -40t22 -68q0 -35 -26.5 -67.5t-80 -53t-130.5 -20.5q-138 0 -221.5 89t-83.5 286q0 80 22.5 163.5t64.5 139.5t97 56q30 0 50.5 -17t20.5 -59q0 -38 -23.5 -101t-63.5 -132t-86 -123q11 -156 67.5 -221t153.5 -65
q93 0 129 41t36 97q0 35 -6 52.5t-30 36.5q-40 -22 -92 -22q-17 0 -40.5 10t-23.5 20q0 12 23.5 22t40.5 10q52 0 92 -25q70 29 70 91q0 33 -14.5 54t-48.5 33q-21 -12 -41 -17t-46 -5q-17 0 -40.5 9.5t-23.5 20.5q0 12 23 21.5t41 9.5q23 0 44 -6t45 -18q77 30 77 87
q0 29 -26 46t-76 17q-64 0 -92.5 32.5t-28.5 101.5h15q0 -38 31 -53t85 -15q42 0 73 -16.5t47.5 -41.5t16.5 -51q0 -46 -29 -72t-77 -41v-2q46 -7 71.5 -32t25.5 -61q0 -40 -27.5 -63.5zM190 647.5q-26 -56.5 -43 -138.5t-17 -151q0 -33 1 -48q43 54 79 119t57 123t21 90
q0 36 -13 49t-34 13q-25 0 -51 -56.5z" />
    <glyph glyph-name="uni10F2" unicode="&#x10f2;" horiz-adv-x="514" 
d="M453 -12q-103 2 -195 28q-90 -26 -198 -28l1 28q29 -7 62 -7q58 0 107 16q-82 29 -131 81t-49 131q0 57 30.5 101.5t78 69t96.5 24.5q52 0 100.5 -24t78.5 -68.5t30 -102.5q0 -148 -179 -212q49 -16 106 -16q33 0 61 7zM164.5 113q34.5 -51 92.5 -77q58 26 92.5 77
t34.5 127q0 85 -34.5 131t-94.5 46t-92.5 -45t-32.5 -132q0 -76 34.5 -127z" />
    <glyph glyph-name="uni10F3" unicode="&#x10f3;" horiz-adv-x="535" 
d="M186 6l5 -12q-37 -22 -54 -57.5t-17 -87.5q0 -44 20 -77.5t53.5 -51t72.5 -17.5q38 0 69.5 24t50.5 68t19 101q0 94 -30.5 154t-94.5 60q-26 0 -48 -8.5t-39 -18t-25 -13.5l-7 13q19 13 53 31q47 26 82 49.5t74.5 64.5t76.5 102l-2 2q-58 -30 -115.5 -45.5t-102.5 -15.5
q-66 0 -109 27t-43 83q0 22 13.5 36.5t34.5 14.5q22 0 35.5 -9t13.5 -35q0 -15 -7.5 -23.5t-21.5 -15.5q-9 -5 -13.5 -9t-4.5 -11q0 -19 30 -31t80 -12q41 0 112.5 22.5t115.5 49.5l13 -7q-33 -77 -87.5 -133t-108.5 -89v-2q60 0 106 -26.5t72.5 -78t26.5 -122.5
q0 -57 -31 -106t-82 -77.5t-106 -28.5q-64 0 -113.5 20t-76 55.5t-26.5 81.5q0 113 136 161z" />
    <glyph glyph-name="uni10F4" unicode="&#x10f4;" horiz-adv-x="536" 
d="M76.5 -236.5q26.5 -35.5 75.5 -55.5t113 -20q58 0 108.5 21.5t81.5 65t31 106.5q0 82 -42.5 127t-105.5 59v2q123 25 123 113q0 42 -24 66.5t-57.5 35.5t-87.5 21q-56 11 -82.5 22t-26.5 37q0 19 21.5 31.5t55.5 12.5q37 0 77.5 -16t77.5 -47l6 10q-41 39 -84.5 58
t-84.5 19q-44 0 -73 -21t-29 -53q0 -40 19.5 -63t48 -33.5t74.5 -20.5q40 -8 63.5 -16.5t39.5 -25t16 -45.5q0 -44 -42.5 -62.5t-100.5 -18.5h-28v-15h20q50 0 82.5 -25.5t47.5 -64.5t15 -80q0 -92 -39.5 -138.5t-100.5 -46.5q-39 0 -72 17.5t-53 51t-20 77.5q0 48 9.5 70.5
t31.5 44.5l-5 12q-45 -16 -75.5 -45.5t-30.5 -85.5q0 -46 26.5 -81.5z" />
    <glyph glyph-name="uni10F5" unicode="&#x10f5;" horiz-adv-x="580" 
d="M104.5 282.5q54.5 46.5 191.5 46.5h77v91h-77q-95 0 -149 17t-75.5 50t-21.5 86q0 73 57 111t143 38q53 0 98.5 -25.5t72.5 -72t27 -104.5v-85h82v-15h-82v-91h82v-15h-82v-124q0 -58 -27 -104.5t-72.5 -72t-98.5 -25.5q-54 0 -100 20.5t-73 58t-27 86.5q0 83 54.5 129.5
zM166 467.5q36 -32.5 125 -32.5h82v85q0 96 -32 141.5t-91 45.5q-58 0 -89 -33t-31 -99q0 -75 36 -107.5zM162 44.5q32 -41.5 88 -41.5q59 0 91 45.5t32 141.5v124h-82q-87 0 -124 -41t-37 -119q0 -68 32 -109.5z" />
    <glyph glyph-name="uni10F6" unicode="&#x10f6;" horiz-adv-x="702" 
d="M610 -161q15 -19 15 -42q0 -44 -32.5 -76.5t-81.5 -32.5q-38 0 -84.5 27t-80.5 88t-34 156v31q-83 6 -142.5 38t-89.5 81t-30 106t32.5 104.5t94 77t143.5 34.5v23q0 108 -16 161t-37 66.5t-49 13.5q-26 0 -41.5 -10.5t-15.5 -32.5q0 -13 5 -20t16 -14q12 -7 18 -15
t6 -25q0 -38 -42 -38q-23 0 -38 19t-15 42q0 44 32.5 76.5t81.5 32.5q36 0 75.5 -25.5t67 -81t27.5 -138.5v-35q79 -7 137 -37t89 -76.5t31 -101.5q0 -57 -30.5 -106t-90 -81t-143.5 -38v-16q0 -160 41 -215.5t89 -55.5q26 0 41.5 10.5t15.5 32.5q0 13 -5 20t-16 14
q-12 7 -18 15t-6 25q0 38 42 38q23 0 38 -19zM172 66.5q42 -52.5 140 -60.5q2 144 4 217q4 130 4 193q-98 -7 -144 -57t-46 -144q0 -96 42 -148.5zM529 355q-43 50 -134 60q-2 -144 -4 -217q-1 -33 -2 -81t-1 -112q99 9 141.5 61.5t42.5 148.5q0 90 -43 140z" />
    <glyph glyph-name="uni10F7" unicode="&#x10f7;" horiz-adv-x="503" 
d="M71.5 -0.5q21.5 45.5 52 76t79.5 68.5q40 30 62.5 51t37.5 49t15 63q0 44 -23.5 77t-65.5 33q-27 0 -48 -12.5t-21 -33.5q0 -13 6.5 -19.5t20.5 -13.5q15 -6 22.5 -13.5t7.5 -24.5q0 -38 -42 -38q-23 0 -38 19t-15 42q0 44 32.5 76.5t81.5 32.5q65 0 104.5 -33t39.5 -99
q0 -49 -17 -85t-41.5 -60t-67.5 -56t-68 -56.5t-42.5 -61.5t-17.5 -89q0 -89 35 -139t92 -50q58 0 89 42.5t31 129.5q0 69 -11.5 101t-33.5 60l7 10q51 -21 84.5 -58t33.5 -113q0 -52 -27.5 -95t-73.5 -67.5t-99 -24.5t-100 26t-75 73t-28 105q0 62 21.5 107.5z" />
    <glyph glyph-name="uni10F8" unicode="&#x10f8;" horiz-adv-x="531" 
d="M433.5 -37.5q47.5 -36.5 47.5 -111.5q0 -55 -31.5 -92t-80.5 -54t-105 -17q-66 0 -114.5 29.5t-74 80t-25.5 112.5v510h75v-71q1 -49 16 -96.5t48 -80t85 -32.5q59 0 90.5 39.5t31.5 94.5q0 108 -70 146l7 14q52 -18 93.5 -57t41.5 -123q0 -48 -25.5 -83.5t-64.5 -53.5
t-77 -18q-70 0 -113.5 39t-62.5 106v-353q0 -86 34.5 -137t104.5 -51q60 0 103.5 31.5t43.5 110.5q0 58 -25.5 95t-74.5 47l1 15q74 -3 121.5 -39.5z" />
    <glyph glyph-name="uni10F9" unicode="&#x10f9;" horiz-adv-x="514" 
d="M416 67q-48 -57 -132 -91q-51 -20 -70 -54.5t-19 -108.5q0 -44 23.5 -77t65.5 -33q27 0 48 12.5t21 33.5q0 13 -6.5 19.5t-20.5 13.5q-15 6 -22.5 13.5t-7.5 24.5q0 38 42 38q23 0 38 -19t15 -42q0 -44 -32.5 -76.5t-81.5 -32.5q-62 0 -103 33.5t-41 84.5q0 57 32 97
t89 71v2q-50 3 -97.5 36t-77 84.5t-29.5 106.5q0 58 29 108t77 79.5t101 29.5t101 -29.5t77 -79.5t29 -108q0 -79 -48 -136zM349.5 352q-34.5 53 -92.5 53t-92.5 -53t-34.5 -149q0 -99 33 -156t94 -57t94 57t33 156q0 96 -34.5 149z" />
    <glyph glyph-name="uni10FA" unicode="&#x10fa;" horiz-adv-x="392" 
d="M265.5 263q-14.5 10 -14.5 28q0 11 4 19t12 18q5 6 9 13t4 16q0 22 -28 40t-57 18q-48 0 -66 -34.5t-18 -91.5q0 -37 14.5 -63.5t35 -44t55.5 -41.5q33 -23 52.5 -39.5t33 -41t13.5 -57.5l-17 -2q0 46 -26.5 75.5t-75.5 56.5q-25 6 -42 6q-37 0 -44 -27h1q2 1 9 1
q10 0 15.5 -7.5t5.5 -17.5t-7 -18t-22 -8t-25 8.5t-10 25.5q0 19 20.5 35t53.5 16q12 0 25 -3q-43 24 -67.5 40.5t-41.5 43t-17 64.5q0 42 20 74t53.5 49.5t72.5 17.5q44 0 77 -17t51 -45.5t18 -62.5q0 -54 -48 -54q-14 0 -28.5 10z" />
    <glyph glyph-name="uni10FC" unicode="&#x10fc;" horiz-adv-x="347" 
d="M245 676q-20 -12 -45 -12q-18 0 -29 5t-23 15q-13 11 -23 11q-17 0 -17 -26v-156h3q10 15 27 24.5t38 9.5q33 0 60.5 -18t44 -48t16.5 -65t-17 -65t-45.5 -48t-61.5 -18t-61.5 18t-45 48t-16.5 65v217q0 41 20.5 62.5t54.5 21.5q24 0 44 -11q12 -6 21.5 -8.5t23.5 -2.5
q17 0 31.5 5.5t30.5 21.5l5 -5q-16 -29 -36 -41zM219.5 504q-17.5 32 -46.5 32t-47 -32.5t-18 -87.5t18 -87.5t47 -32.5t46.5 32t17.5 88t-17.5 88z" />
    <glyph glyph-name="uni10FD" unicode="&#x10fd;" horiz-adv-x="507" 
d="M72 209q22 30 52.5 45.5t55.5 15.5l3 -12q-33 -18 -48 -46.5t-15 -71.5q0 -41 19 -72.5t50 -48t65 -16.5q62 0 94.5 44.5t32.5 117.5q0 53 -19 89.5t-47.5 59.5t-75.5 52q-51 32 -80.5 56.5t-50.5 65.5t-21 102q0 44 22.5 76.5t59.5 49t80 16.5q54 0 91 -20.5t54.5 -52.5
t17.5 -68q0 -25 -16 -46t-42 -21q-46 0 -46 42q0 18 8 26t24 15q15 7 22.5 14.5t7.5 22.5q0 17 -13.5 34t-39.5 28t-61 11q-48 0 -77.5 -32.5t-29.5 -87.5q0 -40 18 -69.5t44.5 -50.5t73.5 -51q56 -36 90 -64t58 -72.5t24 -108.5q0 -53 -28 -97.5t-75 -70t-100 -25.5
t-100 19t-75.5 53.5t-28.5 77.5q0 41 22 71z" />
    <glyph glyph-name="uni10FE" unicode="&#x10fe;" horiz-adv-x="514" 
d="M464 183q0 -58 -30 -102.5t-78.5 -68.5t-100.5 -24q-49 0 -96.5 24.5t-78 69t-30.5 101.5q0 79 49 131t131 81q-49 16 -107 16q-33 0 -62 -7l-1 28q108 -2 198 -28q92 26 195 28l-1 -28q-28 7 -61 7q-57 0 -106 -16q179 -64 179 -212zM349.5 49q34.5 46 34.5 131
q0 76 -34.5 127t-92.5 77q-58 -26 -92.5 -77t-34.5 -127q0 -86 32.5 -131.5t92.5 -45.5t94.5 46z" />
    <glyph glyph-name="uni10FF" unicode="&#x10ff;" horiz-adv-x="502" 
d="M78 323.5q28 49.5 74 79t99 29.5t99 -29.5t74 -79t28 -108.5t-28 -111t-74.5 -83.5t-98.5 -31.5t-98.5 31.5t-74.5 83.5t-28 111t28 108.5zM162 60q32 -56 89 -56t89 56t32 155q0 97 -32 149.5t-89 52.5t-89 -52.5t-32 -149.5q0 -99 32 -155z" />
    <glyph glyph-name="endash" unicode="&#x2013;" horiz-adv-x="620" 
d="M60 244v36h500v-36h-500z" />
    <glyph glyph-name="emdash" unicode="&#x2014;" horiz-adv-x="1000" 
d="M60 244v36h880v-36h-880z" />
    <glyph glyph-name="quoteleft" unicode="&#x2018;" 
d="M91 450.5q-21 28.5 -21 74.5q0 60 30 115.5t76 89.5l14 -16q-37 -28 -60.5 -68.5t-23.5 -79.5q0 -21 13.5 -27.5t38.5 -6.5q21 0 35.5 -15.5t14.5 -36.5q0 -26 -17.5 -42t-40.5 -16q-38 0 -59 28.5z" />
    <glyph glyph-name="quoteright" unicode="&#x2019;" 
d="M90 438q37 28 60.5 68.5t23.5 79.5q0 21 -13.5 27.5t-38.5 6.5q-21 0 -35.5 15.5t-14.5 36.5q0 26 17.5 42t40.5 16q38 0 59 -28.5t21 -74.5q0 -60 -30 -115.5t-76 -89.5z" />
    <glyph glyph-name="quotesinglbase" unicode="&#x201a;" 
d="M90 -152q37 28 60.5 68.5t23.5 79.5q0 21 -13.5 27.5t-38.5 6.5q-21 0 -35.5 15.5t-14.5 36.5q0 26 17.5 42t40.5 16q38 0 59 -28.5t21 -74.5q0 -60 -30 -115.5t-76 -89.5z" />
    <glyph glyph-name="quotedblleft" unicode="&#x201c;" horiz-adv-x="466" 
d="M91 450.5q-21 28.5 -21 74.5q0 60 30 115.5t76 89.5l14 -16q-37 -28 -60.5 -68.5t-23.5 -79.5q0 -21 13.5 -27.5t38.5 -6.5q21 0 35.5 -15.5t14.5 -36.5q0 -26 -17.5 -42t-40.5 -16q-38 0 -59 28.5zM277 450.5q-21 28.5 -21 74.5q0 60 30 115.5t76 89.5l14 -16
q-37 -28 -60.5 -68.5t-23.5 -79.5q0 -21 13.5 -27.5t38.5 -6.5q21 0 35.5 -15.5t14.5 -36.5q0 -26 -17.5 -42t-40.5 -16q-38 0 -59 28.5z" />
    <glyph glyph-name="quotedblright" unicode="&#x201d;" horiz-adv-x="466" 
d="M90 438q37 28 60.5 68.5t23.5 79.5q0 21 -13.5 27.5t-38.5 6.5q-21 0 -35.5 15.5t-14.5 36.5q0 26 17.5 42t40.5 16q38 0 59 -28.5t21 -74.5q0 -60 -30 -115.5t-76 -89.5zM276 438q37 28 60.5 68.5t23.5 79.5q0 21 -13.5 27.5t-38.5 6.5q-21 0 -35.5 15.5t-14.5 36.5
q0 26 17.5 42t40.5 16q38 0 59 -28.5t21 -74.5q0 -60 -30 -115.5t-76 -89.5z" />
    <glyph glyph-name="quotedblbase" unicode="&#x201e;" horiz-adv-x="466" 
d="M90 -152q37 28 60.5 68.5t23.5 79.5q0 21 -13.5 27.5t-38.5 6.5q-21 0 -35.5 15.5t-14.5 36.5q0 26 17.5 42t40.5 16q38 0 59 -28.5t21 -74.5q0 -60 -30 -115.5t-76 -89.5zM276 -152q37 28 60.5 68.5t23.5 79.5q0 21 -13.5 27.5t-38.5 6.5q-21 0 -35.5 15.5t-14.5 36.5
q0 26 17.5 42t40.5 16q38 0 59 -28.5t21 -74.5q0 -60 -30 -115.5t-76 -89.5z" />
    <glyph glyph-name="bullet" unicode="&#x2022;" horiz-adv-x="500" 
d="M169 273q-33 33 -33 81t33 81t81 33t81 -33t33 -81t-33 -81t-81 -33t-81 33z" />
    <glyph glyph-name="ellipsis" unicode="&#x2026;" horiz-adv-x="840" 
d="M95.5 5.5q-17.5 17.5 -17.5 44.5t17.5 44.5t44.5 17.5t44.5 -17.5t17.5 -44.5t-17.5 -44.5t-44.5 -17.5t-44.5 17.5zM375.5 5.5q-17.5 17.5 -17.5 44.5t17.5 44.5t44.5 17.5t44.5 -17.5t17.5 -44.5t-17.5 -44.5t-44.5 -17.5t-44.5 17.5zM655.5 5.5q-17.5 17.5 -17.5 44.5
t17.5 44.5t44.5 17.5t44.5 -17.5t17.5 -44.5t-17.5 -44.5t-44.5 -17.5t-44.5 17.5z" />
    <glyph glyph-name="guilsinglleft" unicode="&#x2039;" horiz-adv-x="330" 
d="M224 28q-49 32 -82.5 85.5t-33.5 114.5t33.5 114.5t82.5 85.5l15 -15q-36 -32 -55.5 -81t-19.5 -104t19.5 -104t55.5 -81z" />
    <glyph glyph-name="guilsinglright" unicode="&#x203a;" horiz-adv-x="330" 
d="M91 43q36 32 55.5 81t19.5 104t-19.5 104t-55.5 81l15 15q49 -32 82.5 -85.5t33.5 -114.5t-33.5 -114.5t-82.5 -85.5z" />
    <glyph glyph-name="minus" unicode="&#x2212;" horiz-adv-x="940" 
d="M48 244v40h844v-40h-844z" />
    <glyph glyph-name="uni10D7.001" horiz-adv-x="802" 
d="M647.5 410.5q46.5 -21.5 75.5 -64t29 -100.5q0 -80 -51.5 -148t-123.5 -115l-8 13q51 41 77 90.5t26 126.5q0 64 -16.5 109.5t-45 68.5t-62.5 23q-42 0 -73 -26t-50 -66q27 -51 27 -107q0 -59 -28 -111t-74.5 -83.5t-98.5 -31.5t-98.5 31.5t-74.5 83.5t-28 111t28 108.5
t74 79t99 29.5q43 0 82 -19.5t67 -53.5q25 31 65 52t84 21q52 0 98.5 -21.5zM340 60q32 56 32 155q0 97 -32 149.5t-89 52.5t-89 -52.5t-32 -149.5q0 -99 32 -155t89 -56t89 56z" />
    <glyph glyph-name="uni10F0.ss01" horiz-adv-x="511" 
d="M368 177q36 -7 64.5 -27t28.5 -53q0 -35 -31.5 -60t-77 -37t-88.5 -12q-90 0 -137.5 38.5t-76.5 107.5l18 9q19 -38 41 -65t60.5 -46t95.5 -19q40 0 69 15t44 37.5t15 45.5q0 60 -69 60q-22 -13 -39.5 -18t-41.5 -5q-19 0 -42 8.5t-23 21.5q0 14 23 23t42 9q25 0 42 -5.5
t39 -19.5h2q47 3 68 16.5t21 46.5q0 35 -29 49.5t-62 14.5q-23 -14 -40 -19.5t-41 -5.5q-19 0 -42 9t-23 22q0 14 22.5 22.5t42.5 8.5q26 0 43 -5t38 -19h4q42 2 60 17t18 53q0 31 -25.5 44t-56.5 13q-21 -13 -38.5 -18t-42.5 -5q-19 0 -42 9t-23 22q0 14 22.5 22.5
t42.5 8.5q26 0 43 -5t38 -19h1q61 21 61 68q0 29 -23.5 43t-74.5 14q-65 0 -93 31.5t-28 99.5h15q0 -37 30 -50t86 -13q64 0 98.5 -24t34.5 -62q0 -31 -21 -60t-60 -48q101 -7 101 -70q0 -58 -80 -74q38 -5 63.5 -25t25.5 -50q0 -32 -24.5 -47.5t-67.5 -21.5v-1z" />
    </font>
</defs>
</svg>
